<?xml version="1.0" encoding="UTF-8" standalone="no"?>
<!-- Generator: Adobe Illustrator 20.0.0, SVG Export Plug-In . SVG Version: 6.00 Build 0)  -->

<svg
   version="1.1"
   id="svg2"
   x="0px"
   y="0px"
   viewBox="0 0 721.6 721.6"
   style="enable-background:new 0 0 721.6 721.6;"
   xml:space="preserve"
   sodipodi:docname="blue5.svg"
   inkscape:version="1.1 (c68e22c387, 2021-05-23)"
   xmlns:inkscape="http://www.inkscape.org/namespaces/inkscape"
   xmlns:sodipodi="http://sodipodi.sourceforge.net/DTD/sodipodi-0.dtd"
   xmlns="http://www.w3.org/2000/svg"
   xmlns:svg="http://www.w3.org/2000/svg"><defs
   id="defs1626"><inkscape:path-effect
     effect="bspline"
     id="path-effect11541"
     is_visible="true"
     lpeversion="1"
     weight="33.333333"
     steps="2"
     helper_size="0"
     apply_no_weight="true"
     apply_with_weight="true"
     only_selected="false" /><inkscape:path-effect
     effect="fill_between_many"
     method="originald"
     linkedpaths="#g12224,0,1"
     id="path-effect12573" /></defs><sodipodi:namedview
   id="namedview1624"
   pagecolor="#ffffff"
   bordercolor="#666666"
   borderopacity="1.0"
   inkscape:pageshadow="2"
   inkscape:pageopacity="0.0"
   inkscape:pagecheckerboard="0"
   showgrid="false"
   showguides="false"
   inkscape:zoom="2.1701774"
   inkscape:cx="397.20255"
   inkscape:cy="396.97216"
   inkscape:window-width="1920"
   inkscape:window-height="1001"
   inkscape:window-x="-9"
   inkscape:window-y="-9"
   inkscape:window-maximized="1"
   inkscape:current-layer="layer3" />
<style
   type="text/css"
   id="style1226">
	
		.st0{opacity:0.9895;fill:url(#path3302_3_);stroke:#5A5A59;stroke-width:0.9965;stroke-linecap:round;stroke-linejoin:round;enable-background:new    ;}
	
		.st1{opacity:0.9895;fill:url(#path3304_3_);stroke:#5A5A59;stroke-width:0.9965;stroke-linecap:round;stroke-linejoin:round;enable-background:new    ;}
	
		.st2{opacity:0.9895;fill:url(#path3306_3_);stroke:#5A5A59;stroke-width:0.9965;stroke-linecap:round;stroke-linejoin:round;enable-background:new    ;}
	
		.st3{opacity:0.9895;fill:url(#path3310_3_);stroke:#5A5A59;stroke-width:0.9965;stroke-linecap:round;stroke-linejoin:round;enable-background:new    ;}
	
		.st4{opacity:0.9895;fill:url(#path3312_3_);stroke:#5A5A59;stroke-width:0.9965;stroke-linecap:round;stroke-linejoin:round;enable-background:new    ;}
	
		.st5{opacity:0.9895;fill:url(#path3314_3_);stroke:#5A5A59;stroke-width:0.9965;stroke-linecap:round;stroke-linejoin:round;enable-background:new    ;}
	
		.st6{opacity:0.9895;fill:url(#path3316_3_);stroke:#5A5A59;stroke-width:0.9965;stroke-linecap:round;stroke-linejoin:round;enable-background:new    ;}
	
		.st7{opacity:0.9895;fill:url(#path3318_3_);stroke:#5A5A59;stroke-width:0.9965;stroke-linecap:round;stroke-linejoin:round;enable-background:new    ;}
	
		.st8{opacity:0.9895;fill:url(#path3320_3_);stroke:#5A5A59;stroke-width:0.9965;stroke-linecap:round;stroke-linejoin:round;enable-background:new    ;}
	
		.st9{opacity:0.9895;fill:url(#path3322_3_);stroke:#5A5A59;stroke-width:0.9965;stroke-linecap:round;stroke-linejoin:round;enable-background:new    ;}
	
		.st10{opacity:0.9895;fill:url(#path3308_3_);stroke:#5A5A59;stroke-width:0.9965;stroke-linecap:round;stroke-linejoin:round;enable-background:new    ;}
	
		.st11{opacity:0.9895;fill:url(#path3324_3_);stroke:#5A5A59;stroke-width:0.9965;stroke-linecap:round;stroke-linejoin:round;enable-background:new    ;}
	
		.st12{opacity:0.9895;fill:url(#path3326_3_);stroke:#5A5A59;stroke-width:0.9965;stroke-linecap:round;stroke-linejoin:round;enable-background:new    ;}
	
		.st13{opacity:0.9895;fill:url(#path3328_3_);stroke:#5A5A59;stroke-width:0.9965;stroke-linecap:round;stroke-linejoin:round;enable-background:new    ;}
	
		.st14{opacity:0.9895;fill:url(#path3330_3_);stroke:#5A5A59;stroke-width:0.9965;stroke-linecap:round;stroke-linejoin:round;enable-background:new    ;}
	
		.st15{opacity:0.9895;fill:url(#path3332_3_);stroke:#5A5A59;stroke-width:0.9965;stroke-linecap:round;stroke-linejoin:round;enable-background:new    ;}
	
		.st16{opacity:0.9895;fill:url(#path3334_3_);stroke:#5A5A59;stroke-width:0.9965;stroke-linecap:round;stroke-linejoin:round;enable-background:new    ;}
	
		.st17{opacity:0.9895;fill:url(#path3336_3_);stroke:#5A5A59;stroke-width:0.9965;stroke-linecap:round;stroke-linejoin:round;enable-background:new    ;}
	
		.st18{opacity:0.9895;fill:url(#path3338_3_);stroke:#5A5A59;stroke-width:0.9965;stroke-linecap:round;stroke-linejoin:round;enable-background:new    ;}
	
		.st19{opacity:0.9895;fill:url(#path3340_3_);stroke:#5A5A59;stroke-width:0.9965;stroke-linecap:round;stroke-linejoin:round;enable-background:new    ;}
	.st20{opacity:0.9895;enable-background:new    ;}
	
		.st21{opacity:0.9895;fill:url(#path3302_5_);stroke:#5A5A59;stroke-width:0.9965;stroke-linecap:round;stroke-linejoin:round;enable-background:new    ;}
	
		.st22{opacity:0.9895;fill:url(#path3304_5_);stroke:#5A5A59;stroke-width:0.9965;stroke-linecap:round;stroke-linejoin:round;enable-background:new    ;}
	
		.st23{opacity:0.9895;fill:url(#path3306_5_);stroke:#5A5A59;stroke-width:0.9965;stroke-linecap:round;stroke-linejoin:round;enable-background:new    ;}
	
		.st24{opacity:0.9895;fill:url(#path3310_5_);stroke:#5A5A59;stroke-width:0.9965;stroke-linecap:round;stroke-linejoin:round;enable-background:new    ;}
	
		.st25{opacity:0.9895;fill:url(#path3312_5_);stroke:#5A5A59;stroke-width:0.9965;stroke-linecap:round;stroke-linejoin:round;enable-background:new    ;}
	
		.st26{opacity:0.9895;fill:url(#path3314_5_);stroke:#5A5A59;stroke-width:0.9965;stroke-linecap:round;stroke-linejoin:round;enable-background:new    ;}
	
		.st27{opacity:0.9895;fill:url(#path3316_5_);stroke:#5A5A59;stroke-width:0.9965;stroke-linecap:round;stroke-linejoin:round;enable-background:new    ;}
	
		.st28{opacity:0.9895;fill:url(#path3318_5_);stroke:#5A5A59;stroke-width:0.9965;stroke-linecap:round;stroke-linejoin:round;enable-background:new    ;}
	
		.st29{opacity:0.9895;fill:url(#path3320_5_);stroke:#5A5A59;stroke-width:0.9965;stroke-linecap:round;stroke-linejoin:round;enable-background:new    ;}
	
		.st30{opacity:0.9895;fill:url(#path3322_5_);stroke:#5A5A59;stroke-width:0.9965;stroke-linecap:round;stroke-linejoin:round;enable-background:new    ;}
	
		.st31{opacity:0.9895;fill:url(#path3308_5_);stroke:#5A5A59;stroke-width:0.9965;stroke-linecap:round;stroke-linejoin:round;enable-background:new    ;}
	
		.st32{opacity:0.9895;fill:url(#path3324_5_);stroke:#5A5A59;stroke-width:0.9965;stroke-linecap:round;stroke-linejoin:round;enable-background:new    ;}
	
		.st33{opacity:0.9895;fill:url(#path3326_5_);stroke:#5A5A59;stroke-width:0.9965;stroke-linecap:round;stroke-linejoin:round;enable-background:new    ;}
	
		.st34{opacity:0.9895;fill:url(#path3328_5_);stroke:#5A5A59;stroke-width:0.9965;stroke-linecap:round;stroke-linejoin:round;enable-background:new    ;}
	
		.st35{opacity:0.9895;fill:url(#path3330_5_);stroke:#5A5A59;stroke-width:0.9965;stroke-linecap:round;stroke-linejoin:round;enable-background:new    ;}
	
		.st36{opacity:0.9895;fill:url(#path3332_5_);stroke:#5A5A59;stroke-width:0.9965;stroke-linecap:round;stroke-linejoin:round;enable-background:new    ;}
	
		.st37{opacity:0.9895;fill:url(#path3334_5_);stroke:#5A5A59;stroke-width:0.9965;stroke-linecap:round;stroke-linejoin:round;enable-background:new    ;}
	
		.st38{opacity:0.9895;fill:url(#path3336_5_);stroke:#5A5A59;stroke-width:0.9965;stroke-linecap:round;stroke-linejoin:round;enable-background:new    ;}
	
		.st39{opacity:0.9895;fill:url(#path3338_5_);stroke:#5A5A59;stroke-width:0.9965;stroke-linecap:round;stroke-linejoin:round;enable-background:new    ;}
	
		.st40{opacity:0.9895;fill:url(#path3340_5_);stroke:#5A5A59;stroke-width:0.9965;stroke-linecap:round;stroke-linejoin:round;enable-background:new    ;}
	
		.st41{opacity:0.9895;fill:url(#path3302_6_);stroke:#5A5A59;stroke-width:0.9965;stroke-linecap:round;stroke-linejoin:round;enable-background:new    ;}
	
		.st42{opacity:0.9895;fill:url(#path3304_6_);stroke:#5A5A59;stroke-width:0.9965;stroke-linecap:round;stroke-linejoin:round;enable-background:new    ;}
	
		.st43{opacity:0.9895;fill:url(#path3306_6_);stroke:#5A5A59;stroke-width:0.9965;stroke-linecap:round;stroke-linejoin:round;enable-background:new    ;}
	
		.st44{opacity:0.9895;fill:url(#path3310_6_);stroke:#5A5A59;stroke-width:0.9965;stroke-linecap:round;stroke-linejoin:round;enable-background:new    ;}
	
		.st45{opacity:0.9895;fill:url(#path3312_6_);stroke:#5A5A59;stroke-width:0.9965;stroke-linecap:round;stroke-linejoin:round;enable-background:new    ;}
	
		.st46{opacity:0.9895;fill:url(#path3314_6_);stroke:#5A5A59;stroke-width:0.9965;stroke-linecap:round;stroke-linejoin:round;enable-background:new    ;}
	
		.st47{opacity:0.9895;fill:url(#path3316_6_);stroke:#5A5A59;stroke-width:0.9965;stroke-linecap:round;stroke-linejoin:round;enable-background:new    ;}
	
		.st48{opacity:0.9895;fill:url(#path3318_6_);stroke:#5A5A59;stroke-width:0.9965;stroke-linecap:round;stroke-linejoin:round;enable-background:new    ;}
	
		.st49{opacity:0.9895;fill:url(#path3320_6_);stroke:#5A5A59;stroke-width:0.9965;stroke-linecap:round;stroke-linejoin:round;enable-background:new    ;}
	
		.st50{opacity:0.9895;fill:url(#path3322_6_);stroke:#5A5A59;stroke-width:0.9965;stroke-linecap:round;stroke-linejoin:round;enable-background:new    ;}
	
		.st51{opacity:0.9895;fill:url(#path3308_6_);stroke:#5A5A59;stroke-width:0.9965;stroke-linecap:round;stroke-linejoin:round;enable-background:new    ;}
	
		.st52{opacity:0.9895;fill:url(#path3324_6_);stroke:#5A5A59;stroke-width:0.9965;stroke-linecap:round;stroke-linejoin:round;enable-background:new    ;}
	
		.st53{opacity:0.9895;fill:url(#path3326_6_);stroke:#5A5A59;stroke-width:0.9965;stroke-linecap:round;stroke-linejoin:round;enable-background:new    ;}
	
		.st54{opacity:0.9895;fill:url(#path3328_6_);stroke:#5A5A59;stroke-width:0.9965;stroke-linecap:round;stroke-linejoin:round;enable-background:new    ;}
	
		.st55{opacity:0.9895;fill:url(#path3330_6_);stroke:#5A5A59;stroke-width:0.9965;stroke-linecap:round;stroke-linejoin:round;enable-background:new    ;}
	
		.st56{opacity:0.9895;fill:url(#path3332_6_);stroke:#5A5A59;stroke-width:0.9965;stroke-linecap:round;stroke-linejoin:round;enable-background:new    ;}
	
		.st57{opacity:0.9895;fill:url(#path3334_6_);stroke:#5A5A59;stroke-width:0.9965;stroke-linecap:round;stroke-linejoin:round;enable-background:new    ;}
	
		.st58{opacity:0.9895;fill:url(#path3336_6_);stroke:#5A5A59;stroke-width:0.9965;stroke-linecap:round;stroke-linejoin:round;enable-background:new    ;}
	
		.st59{opacity:0.9895;fill:url(#path3338_6_);stroke:#5A5A59;stroke-width:0.9965;stroke-linecap:round;stroke-linejoin:round;enable-background:new    ;}
	
		.st60{opacity:0.9895;fill:url(#path3340_6_);stroke:#5A5A59;stroke-width:0.9965;stroke-linecap:round;stroke-linejoin:round;enable-background:new    ;}
	.st61{fill:#004C99;stroke:#5A5A59;stroke-width:0.9965;stroke-linecap:round;stroke-linejoin:round;}
	.st62{opacity:0.3;}
</style>





<g
   inkscape:groupmode="layer"
   id="layer1"
   inkscape:label="red"
   style="display:none"><g
     id="g1352">
	<g
   id="g1288">
		<linearGradient
   id="path3302_3_"
   gradientUnits="userSpaceOnUse"
   x1="261.125"
   y1="263.52499"
   x2="469.875"
   y2="54.775002">
			<stop
   offset="0.3254"
   style="stop-color:#E63329"
   id="stop1228" />
			<stop
   offset="0.6124"
   style="stop-color:#B92D1F"
   id="stop1230" />
		</linearGradient>
		<path
   id="path3302_4_"
   class="st0"
   d="m 320.7,8.6 c 48.9,-18 67.6,15.3 109.7,6.7 l -71.6,345.9 z" />
		<linearGradient
   id="path3304_3_"
   gradientUnits="userSpaceOnUse"
   x1="334.72501"
   y1="332.22491"
   x2="585.56543"
   y2="81.384598">
			<stop
   offset="0.3254"
   style="stop-color:#E63329"
   id="stop1234" />
			<stop
   offset="0.6124"
   style="stop-color:#B92D1F"
   id="stop1236" />
		</linearGradient>
		<path
   id="path3304_4_"
   class="st1"
   d="m 538.9,49.8 c 50.3,13.9 46.1,53.5 85.4,71.1 l -262.9,238 z" />
		<linearGradient
   id="path3306_3_"
   gradientUnits="userSpaceOnUse"
   x1="439.5"
   y1="437.70001"
   x2="673.79999"
   y2="203.39999">
			<stop
   offset="0.3254"
   style="stop-color:#E63329"
   id="stop1240" />
			<stop
   offset="0.6124"
   style="stop-color:#B92D1F"
   id="stop1242" />
		</linearGradient>
		<path
   id="path3306_4_"
   class="st2"
   d="m 684.4,214 c 32.4,40.6 8.8,68.9 30,105.8 L 361,359.2 Z" />
		<linearGradient
   id="path3310_3_"
   gradientUnits="userSpaceOnUse"
   x1="481.39999"
   y1="480.10001"
   x2="620.15002"
   y2="341.35001">
			<stop
   offset="0.3254"
   style="stop-color:#E63329"
   id="stop1246" />
			<stop
   offset="0.6124"
   style="stop-color:#B92D1F"
   id="stop1248" />
		</linearGradient>
		<path
   id="path3310_4_"
   class="st3"
   d="m 709.1,430.3 c 2.2,51.8 -34.7,61 -39.5,103.4 L 360.5,359.2 Z" />
		<linearGradient
   id="path3312_3_"
   gradientUnits="userSpaceOnUse"
   x1="398.09509"
   y1="571.79498"
   x2="485.49509"
   y2="484.39499">
			<stop
   offset="0.3254"
   style="stop-color:#E63329"
   id="stop1252" />
			<stop
   offset="0.6124"
   style="stop-color:#B92D1F"
   id="stop1254" />
		</linearGradient>
		<path
   id="path3312_4_"
   class="st4"
   d="m 599.2,619 c -28.9,43.2 -63.5,30.1 -92.4,61.5 L 360,358.9 Z" />
		<linearGradient
   id="path3314_3_"
   gradientUnits="userSpaceOnUse"
   x1="249.675"
   y1="665.67499"
   x2="458.42499"
   y2="456.92499">
			<stop
   offset="0.3254"
   style="stop-color:#E63329"
   id="stop1258" />
			<stop
   offset="0.6124"
   style="stop-color:#B92D1F"
   id="stop1260" />
		</linearGradient>
		<path
   id="path3314_4_"
   class="st5"
   d="m 399.1,713.3 c -48.9,18 -68.8,-17.6 -110.8,-9 l 71.6,-345.9 z" />
		<linearGradient
   id="path3316_3_"
   gradientUnits="userSpaceOnUse"
   x1="135.493"
   y1="635.80701"
   x2="386.75"
   y2="384.54999">
			<stop
   offset="0.3254"
   style="stop-color:#E63329"
   id="stop1264" />
			<stop
   offset="0.6124"
   style="stop-color:#B92D1F"
   id="stop1266" />
		</linearGradient>
		<path
   id="path3316_4_"
   class="st6"
   d="M 181.9,667.4 C 131.6,653.5 136.5,613.5 97.4,595.9 l 262.7,-238 z" />
		<linearGradient
   id="path3318_3_"
   gradientUnits="userSpaceOnUse"
   x1="48.525002"
   y1="512.52502"
   x2="282.02499"
   y2="279.0249">
			<stop
   offset="0.3254"
   style="stop-color:#E63329"
   id="stop1270" />
			<stop
   offset="0.6124"
   style="stop-color:#B92D1F"
   id="stop1272" />
		</linearGradient>
		<path
   id="path3318_4_"
   class="st7"
   d="M 38.1,502.1 C 5.7,461.5 28.3,433.9 7.1,396.8 l 353.5,-39.2 z" />
		<linearGradient
   id="path3320_3_"
   gradientUnits="userSpaceOnUse"
   x1="101.275"
   y1="375.375"
   x2="240.075"
   y2="236.575">
			<stop
   offset="0.3254"
   style="stop-color:#E63329"
   id="stop1276" />
			<stop
   offset="0.6124"
   style="stop-color:#B92D1F"
   id="stop1278" />
		</linearGradient>
		<path
   id="path3320_4_"
   class="st8"
   d="M 13.2,287.3 C 11,235.5 47.1,225.4 51.8,183 L 361,357.5 Z" />
		<linearGradient
   id="path3322_3_"
   gradientUnits="userSpaceOnUse"
   x1="235.16949"
   y1="231.36951"
   x2="322.5195"
   y2="144.0195">
			<stop
   offset="0.3254"
   style="stop-color:#E63329"
   id="stop1282" />
			<stop
   offset="0.6124"
   style="stop-color:#B92D1F"
   id="stop1284" />
		</linearGradient>
		<path
   id="path3322_4_"
   class="st9"
   d="M 119.9,96.5 C 148.8,53.3 185.7,67.7 214.6,36.1 L 361.5,357.7 Z" />
	</g>
	<g
   id="g1350">
		<linearGradient
   id="path3308_3_"
   gradientUnits="userSpaceOnUse"
   x1="399.625"
   y1="398.625"
   x2="651.23077"
   y2="147.0192">
			<stop
   offset="0.3254"
   style="stop-color:#E63329"
   id="stop1290" />
			<stop
   offset="0.6124"
   style="stop-color:#B92D1F"
   id="stop1292" />
		</linearGradient>
		<path
   id="path3308_4_"
   class="st10"
   d="m 599.4,98 c 43.5,28.7 53.7,87.5 85.5,116.2 L 361.1,360.1 Z" />
		<linearGradient
   id="path3324_3_"
   gradientUnits="userSpaceOnUse"
   x1="240.35001"
   y1="238.35001"
   x2="396.10001"
   y2="82.599998">
			<stop
   offset="0.3254"
   style="stop-color:#E63329"
   id="stop1296" />
			<stop
   offset="0.6124"
   style="stop-color:#B92D1F"
   id="stop1298" />
		</linearGradient>
		<path
   id="path3324_4_"
   class="st11"
   d="M 184,53 C 224.9,20.9 284.5,29.3 321.7,8.2 l 39.5,351 z" />
		<linearGradient
   id="path3326_3_"
   gradientUnits="userSpaceOnUse"
   x1="282.97501"
   y1="281.375"
   x2="524.32501"
   y2="40.025002">
			<stop
   offset="0.3254"
   style="stop-color:#E63329"
   id="stop1302" />
			<stop
   offset="0.6124"
   style="stop-color:#B92D1F"
   id="stop1304" />
		</linearGradient>
		<path
   id="path3326_4_"
   class="st12"
   d="m 399.1,8.6 c 52.2,-2.2 95.3,39.5 138,44.2 L 361.3,359.7 Z" />
		<linearGradient
   id="path3328_3_"
   gradientUnits="userSpaceOnUse"
   x1="465.27499"
   y1="465.17499"
   x2="675.97498"
   y2="254.47501">
			<stop
   offset="0.3254"
   style="stop-color:#E63329"
   id="stop1308" />
			<stop
   offset="0.6124"
   style="stop-color:#B92D1F"
   id="stop1310" />
		</linearGradient>
		<path
   id="path3328_4_"
   class="st13"
   d="m 709.1,287.6 c 18.2,48.5 -9,102 -0.3,143.8 L 360.4,360.3 Z" />
		<linearGradient
   id="path3330_3_"
   gradientUnits="userSpaceOnUse"
   x1="474.5"
   y1="495.79999"
   x2="575.29999"
   y2="395">
			<stop
   offset="0.3254"
   style="stop-color:#E63329"
   id="stop1314" />
			<stop
   offset="0.6124"
   style="stop-color:#B92D1F"
   id="stop1316" />
		</linearGradient>
		<path
   id="path3330_4_"
   class="st14"
   d="m 684.6,504.3 c -14,49.9 -67.2,77.8 -85,116.6 L 360,360.1 Z" />
		<linearGradient
   id="path3332_3_"
   gradientUnits="userSpaceOnUse"
   x1="324.85001"
   y1="636.15002"
   x2="480.5"
   y2="480.5">
			<stop
   offset="0.3254"
   style="stop-color:#E63329"
   id="stop1320" />
			<stop
   offset="0.6124"
   style="stop-color:#B92D1F"
   id="stop1322" />
		</linearGradient>
		<path
   id="path3332_4_"
   class="st15"
   d="m 537,665.8 c -40.9,32.1 -100.5,23.7 -137.7,44.8 l -39.7,-351 z" />
		<linearGradient
   id="path3334_3_"
   gradientUnits="userSpaceOnUse"
   x1="196.72501"
   y1="678.72498"
   x2="438.07501"
   y2="437.375">
			<stop
   offset="0.3254"
   style="stop-color:#E63329"
   id="stop1326" />
			<stop
   offset="0.6124"
   style="stop-color:#B92D1F"
   id="stop1328" />
		</linearGradient>
		<path
   id="path3334_4_"
   class="st16"
   d="M 322,710.2 C 269.8,712.4 226.7,670.7 184,666 L 359.7,359 Z" />
		<linearGradient
   id="path3336_3_"
   gradientUnits="userSpaceOnUse"
   x1="69.769203"
   y1="571.68073"
   x2="321.42499"
   y2="320.02499">
			<stop
   offset="0.3254"
   style="stop-color:#E63329"
   id="stop1332" />
			<stop
   offset="0.6124"
   style="stop-color:#B92D1F"
   id="stop1334" />
		</linearGradient>
		<path
   id="path3336_4_"
   class="st17"
   d="M 121.6,620.7 C 78.1,592 67.9,533.2 36.1,504.5 L 360,358.6 Z" />
		<linearGradient
   id="path3338_3_"
   gradientUnits="userSpaceOnUse"
   x1="45.275002"
   y1="463.97501"
   x2="255.72501"
   y2="253.52499">
			<stop
   offset="0.3254"
   style="stop-color:#E63329"
   id="stop1338" />
			<stop
   offset="0.6124"
   style="stop-color:#B92D1F"
   id="stop1340" />
		</linearGradient>
		<path
   id="path3338_4_"
   class="st18"
   d="M 12.6,431.3 C -5.6,382.8 21,329 12.2,287.3 l 348.4,71.1 z" />
		<linearGradient
   id="path3340_3_"
   gradientUnits="userSpaceOnUse"
   x1="145.75"
   y1="323.85001"
   x2="246.55"
   y2="223.05">
			<stop
   offset="0.3254"
   style="stop-color:#E63329"
   id="stop1344" />
			<stop
   offset="0.6124"
   style="stop-color:#B92D1F"
   id="stop1346" />
		</linearGradient>
		<path
   id="path3340_4_"
   class="st19"
   d="m 36.4,214.5 c 14,-49.9 67.2,-77.8 85,-116.6 l 239.7,260.9 z" />
	</g>
</g><path
     style="fill:#000000;fill-opacity:0;fill-rule:evenodd;stroke:#000000;stroke-width:2.007;stroke-linecap:round;stroke-miterlimit:4;stroke-dasharray:none;stroke-opacity:1;paint-order:fill markers stroke"
     id="path16252"
     sodipodi:type="arc"
     sodipodi:cx="360.63962"
     sodipodi:cy="360.90927"
     sodipodi:rx="261.62036"
     sodipodi:ry="259.47031"
     sodipodi:start="4.920345"
     sodipodi:end="4.8959453"
     sodipodi:open="true"
     sodipodi:arc-type="arc"
     d="M 414.65386,107.02926 A 261.62036,259.47031 0 0 1 616.94808,412.92998 261.62036,259.47031 0 0 1 309.75228,615.42392 261.62036,259.47031 0 0 1 103.71035,311.99359 261.62036,259.47031 0 0 1 408.39248,105.79786" /></g><g
   inkscape:groupmode="layer"
   id="layer2"
   inkscape:label="white"
   style="display:none"><g
     class="st20"
     id="g1478">
	<g
   id="g1414">
		
			<linearGradient
   id="path3302_5_"
   gradientUnits="userSpaceOnUse"
   x1="396.25711"
   y1="-13.6055"
   x2="322.9931"
   y2="-18.4254"
   gradientTransform="translate(0,252.6096)">
			<stop
   offset="0"
   style="stop-color:#FFFFFF"
   id="stop1354" />
			<stop
   offset="1"
   style="stop-color:#D8D8D8"
   id="stop1356" />
		</linearGradient>
		<path
   id="path3302_2_"
   class="st21"
   d="m 331.5,114.8 c 34.3,-12.7 47.3,10.7 76.8,4.7 l -50.1,242.2 z" />
		
			<linearGradient
   id="path3304_5_"
   gradientUnits="userSpaceOnUse"
   x1="468.2041"
   y1="31.6611"
   x2="408.6066"
   y2="-17.363001"
   gradientTransform="translate(0,252.6096)">
			<stop
   offset="0"
   style="stop-color:#FFFFFF"
   id="stop1360" />
			<stop
   offset="1"
   style="stop-color:#D8D8D8"
   id="stop1362" />
		</linearGradient>
		<path
   id="path3304_2_"
   class="st22"
   d="m 485.4,142.4 c 35.2,9.8 32.3,37.5 59.7,49.8 L 361.2,358.8 Z" />
		
			<linearGradient
   id="path3306_5_"
   gradientUnits="userSpaceOnUse"
   x1="490.23071"
   y1="107.4641"
   x2="472.0347"
   y2="35.6376"
   gradientTransform="translate(0,252.6096)">
			<stop
   offset="0"
   style="stop-color:#FFFFFF"
   id="stop1366" />
			<stop
   offset="1"
   style="stop-color:#D8D8D8"
   id="stop1368" />
		</linearGradient>
		<path
   id="path3306_2_"
   class="st23"
   d="m 587.4,257.4 c 22.7,28.4 6.2,48.3 21,74.1 L 361,359 Z" />
		
			<linearGradient
   id="path3310_5_"
   gradientUnits="userSpaceOnUse"
   x1="465.13171"
   y1="180.78439"
   x2="493.8765"
   y2="111.7968"
   gradientTransform="translate(0,252.6096)">
			<stop
   offset="0"
   style="stop-color:#FFFFFF"
   id="stop1372" />
			<stop
   offset="1"
   style="stop-color:#D8D8D8"
   id="stop1374" />
		</linearGradient>
		<path
   id="path3310_2_"
   class="st24"
   d="m 604.7,408.8 c 1.5,36.3 -24.2,42.7 -27.7,72.4 L 360.6,359 Z" />
		
			<linearGradient
   id="path3312_5_"
   gradientUnits="userSpaceOnUse"
   x1="397.4299"
   y1="231.8116"
   x2="458.02921"
   y2="190.4502"
   gradientTransform="translate(0,252.6096)">
			<stop
   offset="0"
   style="stop-color:#FFFFFF"
   id="stop1378" />
			<stop
   offset="1"
   style="stop-color:#D8D8D8"
   id="stop1380" />
		</linearGradient>
		<path
   id="path3312_2_"
   class="st25"
   d="m 527.8,540.9 c -20.3,30.2 -44.4,21 -64.7,43.1 L 360.2,358.8 Z" />
		
			<linearGradient
   id="path3314_5_"
   gradientUnits="userSpaceOnUse"
   x1="323.90659"
   y1="227.9371"
   x2="399.09619"
   y2="235.6488"
   gradientTransform="translate(0,252.6096)">
			<stop
   offset="0"
   style="stop-color:#FFFFFF"
   id="stop1384" />
			<stop
   offset="1"
   style="stop-color:#D8D8D8"
   id="stop1386" />
		</linearGradient>
		<path
   id="path3314_2_"
   class="st26"
   d="m 387.7,607 c -34.3,12.7 -48.2,-12.3 -77.6,-6.3 l 50.1,-242.2 z" />
		
			<linearGradient
   id="path3316_5_"
   gradientUnits="userSpaceOnUse"
   x1="259.379"
   y1="183.4431"
   x2="314.16089"
   y2="232.4586"
   gradientTransform="translate(0,252.6096)">
			<stop
   offset="0"
   style="stop-color:#FFFFFF"
   id="stop1390" />
			<stop
   offset="1"
   style="stop-color:#D8D8D8"
   id="stop1392" />
		</linearGradient>
		<path
   id="path3316_2_"
   class="st27"
   d="m 235.5,574.8 c -35.2,-9.8 -31.8,-37.7 -59.2,-50 L 360.2,358.2 Z" />
		
			<linearGradient
   id="path3318_5_"
   gradientUnits="userSpaceOnUse"
   x1="229.8683"
   y1="101.032"
   x2="249.9808"
   y2="173.8203"
   gradientTransform="translate(0,252.6096)">
			<stop
   offset="0"
   style="stop-color:#FFFFFF"
   id="stop1396" />
			<stop
   offset="1"
   style="stop-color:#D8D8D8"
   id="stop1398" />
		</linearGradient>
		<path
   id="path3318_2_"
   class="st28"
   d="m 134.9,459.1 c -22.7,-28.4 -6.8,-47.7 -21.7,-73.7 L 360.6,358 Z" />
		
			<linearGradient
   id="path3320_5_"
   gradientUnits="userSpaceOnUse"
   x1="257.0575"
   y1="26.767599"
   x2="229.2776"
   y2="99.57"
   gradientTransform="translate(0,252.6096)">
			<stop
   offset="0"
   style="stop-color:#FFFFFF"
   id="stop1402" />
			<stop
   offset="1"
   style="stop-color:#D8D8D8"
   id="stop1404" />
		</linearGradient>
		<path
   id="path3320_2_"
   class="st29"
   d="m 117.5,308.7 c -1.5,-36.3 23.7,-43.3 27,-73.1 L 361,357.8 Z" />
		
			<linearGradient
   id="path3322_5_"
   gradientUnits="userSpaceOnUse"
   x1="321.81561"
   y1="-18.138"
   x2="256.3974"
   y2="24.191601"
   gradientTransform="translate(0,252.6096)">
			<stop
   offset="0"
   style="stop-color:#FFFFFF"
   id="stop1408" />
			<stop
   offset="1"
   style="stop-color:#D8D8D8"
   id="stop1410" />
		</linearGradient>
		<path
   id="path3322_2_"
   class="st30"
   d="m 192.2,175.1 c 20.3,-30.2 46.1,-20.2 66.3,-42.3 L 361.3,358 Z" />
	</g>
	<g
   id="g1476">
		
			<linearGradient
   id="path3308_5_"
   gradientUnits="userSpaceOnUse"
   x1="361"
   y1="579.33002"
   x2="587.70001"
   y2="579.33002"
   gradientTransform="matrix(1,0,0,-1,0,847.28)">
			<stop
   offset="0"
   style="stop-color:#FFFFFF"
   id="stop1416" />
			<stop
   offset="1"
   style="stop-color:#D8D8D8"
   id="stop1418" />
		</linearGradient>
		<path
   id="path3308_2_"
   class="st31"
   d="m 527.9,176.2 c 30.4,20.1 37.6,61.3 59.8,81.3 L 361,359.7 Z" />
		
			<linearGradient
   id="path3324_5_"
   gradientUnits="userSpaceOnUse"
   x1="237"
   y1="611.13"
   x2="361.10001"
   y2="611.13"
   gradientTransform="matrix(1,0,0,-1,0,847.28)">
			<stop
   offset="0"
   style="stop-color:#FFFFFF"
   id="stop1422" />
			<stop
   offset="1"
   style="stop-color:#D8D8D8"
   id="stop1424" />
		</linearGradient>
		<path
   id="path3324_2_"
   class="st32"
   d="m 237,144.7 c 28.7,-22.5 70.4,-16.5 96.4,-31.4 L 361.1,359 Z" />
		
			<linearGradient
   id="path3326_5_"
   gradientUnits="userSpaceOnUse"
   x1="361.10001"
   y1="610.75787"
   x2="484.10001"
   y2="610.75787"
   gradientTransform="matrix(1,0,0,-1,0,847.28)">
			<stop
   offset="0"
   style="stop-color:#FFFFFF"
   id="stop1428" />
			<stop
   offset="1"
   style="stop-color:#D8D8D8"
   id="stop1430" />
		</linearGradient>
		<path
   id="path3326_2_"
   class="st33"
   d="m 387.6,113.6 c 36.6,-1.5 66.7,27.7 96.5,31 l -123,214.9 z" />
		
			<linearGradient
   id="path3328_5_"
   gradientUnits="userSpaceOnUse"
   x1="360.60001"
   y1="488.03"
   x2="609.17572"
   y2="488.03"
   gradientTransform="matrix(1,0,0,-1,0,847.28)">
			<stop
   offset="0"
   style="stop-color:#FFFFFF"
   id="stop1434" />
			<stop
   offset="1"
   style="stop-color:#D8D8D8"
   id="stop1436" />
		</linearGradient>
		<path
   id="path3328_2_"
   class="st34"
   d="m 604.7,308.9 c 12.7,33.9 -6.3,71.4 -0.2,100.7 L 360.6,359.8 Z" />
		
			<linearGradient
   id="path3330_5_"
   gradientUnits="userSpaceOnUse"
   x1="360.20001"
   y1="396.28"
   x2="587.5"
   y2="396.28"
   gradientTransform="matrix(1,0,0,-1,0,847.28)">
			<stop
   offset="0"
   style="stop-color:#FFFFFF"
   id="stop1440" />
			<stop
   offset="1"
   style="stop-color:#D8D8D8"
   id="stop1442" />
		</linearGradient>
		<path
   id="path3330_2_"
   class="st35"
   d="M 587.5,460.6 C 577.7,495.5 540.4,515 528,542.3 L 360.2,359.7 Z" />
		
			<linearGradient
   id="path3332_5_"
   gradientUnits="userSpaceOnUse"
   x1="360"
   y1="365.03"
   x2="484.20001"
   y2="365.03"
   gradientTransform="matrix(1,0,0,-1,0,847.28)">
			<stop
   offset="0"
   style="stop-color:#FFFFFF"
   id="stop1446" />
			<stop
   offset="1"
   style="stop-color:#D8D8D8"
   id="stop1448" />
		</linearGradient>
		<path
   id="path3332_2_"
   class="st36"
   d="m 484.2,573.7 c -28.7,22.5 -70.4,16.5 -96.4,31.4 L 360,359.4 Z" />
		
			<linearGradient
   id="path3334_5_"
   gradientUnits="userSpaceOnUse"
   x1="237.10001"
   y1="365.45209"
   x2="360.10001"
   y2="365.45209"
   gradientTransform="matrix(1,0,0,-1,0,847.28)">
			<stop
   offset="0"
   style="stop-color:#FFFFFF"
   id="stop1452" />
			<stop
   offset="1"
   style="stop-color:#D8D8D8"
   id="stop1454" />
		</linearGradient>
		<path
   id="path3334_2_"
   class="st37"
   d="m 333.6,604.8 c -36.6,1.5 -66.7,-27.7 -96.5,-31 l 123,-215 z" />
		
			<linearGradient
   id="path3336_5_"
   gradientUnits="userSpaceOnUse"
   x1="133.5"
   y1="396.92999"
   x2="360.20001"
   y2="396.92999"
   gradientTransform="matrix(1,0,0,-1,0,847.28)">
			<stop
   offset="0"
   style="stop-color:#FFFFFF"
   id="stop1458" />
			<stop
   offset="1"
   style="stop-color:#D8D8D8"
   id="stop1460" />
		</linearGradient>
		<path
   id="path3336_2_"
   class="st38"
   d="M 193.3,542.1 C 162.9,522 155.7,480.8 133.5,460.8 L 360.2,358.6 Z" />
		
			<linearGradient
   id="path3338_5_"
   gradientUnits="userSpaceOnUse"
   x1="112.4378"
   y1="488.17999"
   x2="360.60001"
   y2="488.17999"
   gradientTransform="matrix(1,0,0,-1,0,847.28)">
			<stop
   offset="0"
   style="stop-color:#FFFFFF"
   id="stop1464" />
			<stop
   offset="1"
   style="stop-color:#D8D8D8"
   id="stop1466" />
		</linearGradient>
		<path
   id="path3338_2_"
   class="st39"
   d="m 117,409.5 c -12.7,-33.9 5.8,-71.6 -0.3,-100.8 l 243.9,49.8 z" />
		
			<linearGradient
   id="path3340_5_"
   gradientUnits="userSpaceOnUse"
   x1="133.7"
   y1="579.88"
   x2="361"
   y2="579.88"
   gradientTransform="matrix(1,0,0,-1,0,847.28)">
			<stop
   offset="0"
   style="stop-color:#FFFFFF"
   id="stop1470" />
			<stop
   offset="1"
   style="stop-color:#D8D8D8"
   id="stop1472" />
		</linearGradient>
		<path
   id="path3340_2_"
   class="st40"
   d="m 133.7,257.8 c 9.8,-34.9 47.1,-54.4 59.5,-81.7 L 361,358.7 Z" />
	</g>
</g><path
     id="path16068"
     style="fill-opacity:0;fill-rule:evenodd;stroke:#000000;stroke-width:2.007;stroke-linecap:round;paint-order:fill markers stroke"
     d="M 393.53909,206.90139 A 158.37195,157.44801 0 0 1 515.99794,392.52363 158.37195,157.44801 0 0 1 330.03689,515.39808 158.37195,157.44801 0 0 1 205.30936,331.27488 158.37195,157.44801 0 0 1 389.74876,206.15417" /></g><g
   inkscape:groupmode="layer"
   id="layer3"
   inkscape:label="blue"
   style="display:inline"><g
     id="g1540"
     style="display:inline">
	<linearGradient
   id="path3302_6_"
   gradientUnits="userSpaceOnUse"
   x1="344.70001"
   y1="297.9892"
   x2="383.89999"
   y2="297.9892">
		<stop
   offset="0.3541"
   style="stop-color:#004C99"
   id="stop1480" />
		<stop
   offset="0.7081"
   style="stop-color:#003D7C"
   id="stop1482" />
	</linearGradient>
	<path
   id="path3302_1_"
   class="st41"
   d="m 344.7,236 c 17.5,-6.4 24.1,5.5 39.2,2.4 l -25.6,123.5 z" />
	<linearGradient
   id="path3304_6_"
   gradientUnits="userSpaceOnUse"
   x1="361"
   y1="304"
   x2="454.89999"
   y2="304">
		<stop
   offset="0.3541"
   style="stop-color:#004C99"
   id="stop1486" />
		<stop
   offset="0.7081"
   style="stop-color:#003D7C"
   id="stop1488" />
	</linearGradient>
	<path
   id="path3304_1_"
   class="st42"
   d="m 424.4,248.8 c 17.9,5 16.5,19.1 30.5,25.4 l -93.9,85 z" />
	<linearGradient
   id="path3306_6_"
   gradientUnits="userSpaceOnUse"
   x1="360.89999"
   y1="333.45001"
   x2="487.10001"
   y2="333.45001">
		<stop
   offset="0.3541"
   style="stop-color:#004C99"
   id="stop1492" />
		<stop
   offset="0.7081"
   style="stop-color:#003D7C"
   id="stop1494" />
	</linearGradient>
	<path
   id="path3306_1_"
   class="st43"
   d="m 476.4,307.5 c 11.6,14.5 3.1,24.6 10.7,37.8 l -126.2,14.1 z" />
	<linearGradient
   id="path3310_6_"
   gradientUnits="userSpaceOnUse"
   x1="360.70001"
   y1="390.45001"
   x2="485.23489"
   y2="390.45001">
		<stop
   offset="0.3541"
   style="stop-color:#004C99"
   id="stop1498" />
		<stop
   offset="0.7081"
   style="stop-color:#003D7C"
   id="stop1500" />
	</linearGradient>
	<path
   id="path3310_1_"
   class="st44"
   d="m 485.2,384.7 c 0.8,18.5 -12.4,21.8 -14.1,36.9 L 360.7,359.3 Z" />
	<linearGradient
   id="path3312_6_"
   gradientUnits="userSpaceOnUse"
   x1="360.5"
   y1="416.70001"
   x2="445.89999"
   y2="416.70001">
		<stop
   offset="0.3541"
   style="stop-color:#004C99"
   id="stop1504" />
		<stop
   offset="0.7081"
   style="stop-color:#003D7C"
   id="stop1506" />
	</linearGradient>
	<path
   id="path3312_1_"
   class="st45"
   d="m 445.9,452.1 c -10.3,15.4 -22.7,10.7 -33,22 L 360.5,359.3 Z" />
	<linearGradient
   id="path3314_6_"
   gradientUnits="userSpaceOnUse"
   x1="334.89999"
   y1="423.3143"
   x2="374.5"
   y2="423.3143">
		<stop
   offset="0.3541"
   style="stop-color:#004C99"
   id="stop1510" />
		<stop
   offset="0.7081"
   style="stop-color:#003D7C"
   id="stop1512" />
	</linearGradient>
	<path
   id="path3314_1_"
   class="st46"
   d="m 374.5,485.8 c -17.5,6.4 -24.6,-6.3 -39.6,-3.2 L 360.5,359 Z" />
	<linearGradient
   id="path3316_6_"
   gradientUnits="userSpaceOnUse"
   x1="266.70001"
   y1="414.14999"
   x2="360.5"
   y2="414.14999">
		<stop
   offset="0.3541"
   style="stop-color:#004C99"
   id="stop1516" />
		<stop
   offset="0.7081"
   style="stop-color:#003D7C"
   id="stop1518" />
	</linearGradient>
	<path
   id="path3316_1_"
   class="st47"
   d="m 296.9,469.4 c -17.9,-5 -16.2,-19.2 -30.2,-25.5 l 93.8,-85 z" />
	<linearGradient
   id="path3318_6_"
   gradientUnits="userSpaceOnUse"
   x1="234.5"
   y1="384.5"
   x2="360.70001"
   y2="384.5">
		<stop
   offset="0.3541"
   style="stop-color:#004C99"
   id="stop1522" />
		<stop
   offset="0.7081"
   style="stop-color:#003D7C"
   id="stop1524" />
	</linearGradient>
	<path
   id="path3318_1_"
   class="st48"
   d="M 245.6,410.3 C 234,395.8 242.1,385.9 234.5,372.7 l 126.2,-14 z" />
	<linearGradient
   id="path3320_6_"
   gradientUnits="userSpaceOnUse"
   x1="236.66431"
   y1="327.45001"
   x2="360.89999"
   y2="327.45001">
		<stop
   offset="0.3541"
   style="stop-color:#004C99"
   id="stop1528" />
		<stop
   offset="0.7081"
   style="stop-color:#003D7C"
   id="stop1530" />
	</linearGradient>
	<path
   id="path3320_1_"
   class="st49"
   d="m 236.7,333.6 c -0.8,-18.5 12.1,-22.1 13.8,-37.3 l 110.4,62.3 z" />
	<linearGradient
   id="path3322_6_"
   gradientUnits="userSpaceOnUse"
   x1="274.79999"
   y1="301.29999"
   x2="361.10001"
   y2="301.29999">
		<stop
   offset="0.3541"
   style="stop-color:#004C99"
   id="stop1534" />
		<stop
   offset="0.7081"
   style="stop-color:#003D7C"
   id="stop1536" />
	</linearGradient>
	<path
   id="path3322_1_"
   class="st50"
   d="m 274.8,265.5 c 10.3,-15.4 23.5,-10.3 33.8,-21.6 l 52.5,114.8 z" />
</g><g
     id="g1602"
     style="display:inline">
	<linearGradient
   id="path3308_6_"
   gradientUnits="userSpaceOnUse"
   x1="374.64999"
   y1="373.35001"
   x2="464.49081"
   y2="283.50909">
		<stop
   offset="0.3541"
   style="stop-color:#004C99"
   id="stop1542" />
		<stop
   offset="0.7081"
   style="stop-color:#003D7C"
   id="stop1544" />
	</linearGradient>
	<path
   id="path3308_1_"
   class="st51"
   d="m 446,266 c 15.5,10.3 19.2,31.2 30.5,41.5 l -115.6,52.1 z" />
	<linearGradient
   id="path3324_6_"
   gradientUnits="userSpaceOnUse"
   x1="317.85001"
   y1="316.14999"
   x2="373.45001"
   y2="260.54999">
		<stop
   offset="0.3541"
   style="stop-color:#004C99"
   id="stop1548" />
		<stop
   offset="0.7081"
   style="stop-color:#003D7C"
   id="stop1550" />
	</linearGradient>
	<path
   id="path3324_1_"
   class="st52"
   d="m 297.7,250 c 14.6,-11.5 35.9,-8.4 49.2,-16 L 361,359.3 Z" />
	<linearGradient
   id="path3326_6_"
   gradientUnits="userSpaceOnUse"
   x1="333.02499"
   y1="331.52499"
   x2="419.22501"
   y2="245.325">
		<stop
   offset="0.3541"
   style="stop-color:#004C99"
   id="stop1554" />
		<stop
   offset="0.7081"
   style="stop-color:#003D7C"
   id="stop1556" />
	</linearGradient>
	<path
   id="path3326_1_"
   class="st53"
   d="m 374.5,234.1 c 18.6,-0.8 34,14.1 49.3,15.8 L 361,359.5 Z" />
	<linearGradient
   id="path3328_6_"
   gradientUnits="userSpaceOnUse"
   x1="398.14999"
   y1="397.25"
   x2="473.39999"
   y2="322">
		<stop
   offset="0.3541"
   style="stop-color:#004C99"
   id="stop1560" />
		<stop
   offset="0.7081"
   style="stop-color:#003D7C"
   id="stop1562" />
	</linearGradient>
	<path
   id="path3328_1_"
   class="st54"
   d="m 485.2,333.8 c 6.5,17.3 -3.2,36.4 -0.1,51.4 L 360.7,359.8 Z" />
	<linearGradient
   id="path3330_6_"
   gradientUnits="userSpaceOnUse"
   x1="401.39999"
   y1="408.10001"
   x2="437.35001"
   y2="372.14999">
		<stop
   offset="0.3541"
   style="stop-color:#004C99"
   id="stop1566" />
		<stop
   offset="0.7081"
   style="stop-color:#003D7C"
   id="stop1568" />
	</linearGradient>
	<path
   id="path3330_1_"
   class="st55"
   d="m 476.4,411.2 c -5,17.8 -24,27.8 -30.3,41.6 l -85.6,-93.2 z" />
	<linearGradient
   id="path3332_6_"
   gradientUnits="userSpaceOnUse"
   x1="347.92499"
   y1="458.22501"
   x2="403.47501"
   y2="402.67499">
		<stop
   offset="0.3541"
   style="stop-color:#004C99"
   id="stop1572" />
		<stop
   offset="0.7081"
   style="stop-color:#003D7C"
   id="stop1574" />
	</linearGradient>
	<path
   id="path3332_1_"
   class="st56"
   d="m 423.7,468.8 c -14.6,11.5 -35.9,8.4 -49.2,16 L 360.3,359.5 Z" />
	<linearGradient
   id="path3334_6_"
   gradientUnits="userSpaceOnUse"
   x1="302.125"
   y1="473.42499"
   x2="388.32501"
   y2="387.22501">
		<stop
   offset="0.3541"
   style="stop-color:#004C99"
   id="stop1578" />
		<stop
   offset="0.7081"
   style="stop-color:#003D7C"
   id="stop1580" />
	</linearGradient>
	<path
   id="path3334_1_"
   class="st57"
   d="m 346.9,484.7 c -18.6,0.8 -34,-14.1 -49.3,-15.8 l 62.7,-109.7 z" />
	<linearGradient
   id="path3336_6_"
   gradientUnits="userSpaceOnUse"
   x1="256.90909"
   y1="435.1908"
   x2="346.75"
   y2="345.35001">
		<stop
   offset="0.3541"
   style="stop-color:#004C99"
   id="stop1584" />
		<stop
   offset="0.7081"
   style="stop-color:#003D7C"
   id="stop1586" />
	</linearGradient>
	<path
   id="path3336_1_"
   class="st58"
   d="M 275.4,452.7 C 259.9,442.4 256.2,421.5 244.9,411.2 L 360.5,359.1 Z" />
	<linearGradient
   id="path3338_6_"
   gradientUnits="userSpaceOnUse"
   x1="248.10001"
   y1="396.79999"
   x2="323.25"
   y2="321.64999">
		<stop
   offset="0.3541"
   style="stop-color:#004C99"
   id="stop1590" />
		<stop
   offset="0.7081"
   style="stop-color:#003D7C"
   id="stop1592" />
	</linearGradient>
	<path
   id="path3338_1_"
   class="st59"
   d="m 236.4,385.1 c -6.5,-17.3 3,-36.5 -0.1,-51.4 l 124.4,25.4 z" />
	<linearGradient
   id="path3340_6_"
   gradientUnits="userSpaceOnUse"
   x1="283.95001"
   y1="346.64999"
   x2="319.89999"
   y2="310.70001">
		<stop
   offset="0.3541"
   style="stop-color:#004C99"
   id="stop1596" />
		<stop
   offset="0.7081"
   style="stop-color:#003D7C"
   id="stop1598" />
	</linearGradient>
	<path
   id="path3340_1_"
   class="st60"
   d="m 244.9,307.6 c 5,-17.8 24,-27.8 30.3,-41.6 l 85.6,93.2 z" />
</g><g
     id="path3912_1_"
     class="st20"
     style="display:inline">
	<g
   id="g1616">
		<g
   id="g1612">
			<g
   id="g1606">
				<path
   class="st61"
   d="m 425.1,360.8 c 0,35.2 -28.8,63.8 -64.3,63.8 -35.5,0 -64.3,-28.6 -64.3,-63.8 0,-35.2 28.8,-63.8 64.3,-63.8 35.5,0 64.3,28.6 64.3,63.8 z"
   id="path1604" />
			</g>
			<g
   class="st62"
   id="g1610">
				<path
   class="st61"
   d="m 425.1,360.8 c 0,35.2 -28.8,63.8 -64.3,63.8 -35.5,0 -64.3,-28.6 -64.3,-63.8 0,-35.2 28.8,-63.8 64.3,-63.8 35.5,0 64.3,28.6 64.3,63.8 z"
   id="path1608" />
			</g>
		</g>
		<path
   class="st61"
   d="m 425.1,360.8 c 0,35.2 -28.8,63.8 -64.3,63.8 -35.5,0 -64.3,-28.6 -64.3,-63.8 0,-35.2 28.8,-63.8 64.3,-63.8 35.5,0 64.3,28.6 64.3,63.8 z"
   id="path1614" />
	</g>
	<g
   class="st62"
   id="g1620">
		<path
   class="st61"
   d="m 425.1,360.8 c 0,35.2 -28.8,63.8 -64.3,63.8 -35.5,0 -64.3,-28.6 -64.3,-63.8 0,-35.2 28.8,-63.8 64.3,-63.8 35.5,0 64.3,28.6 64.3,63.8 z"
   id="path1618" />
	</g>
</g><g
     aria-label="being repeated 3 times, and the other vowel being the third one (2)"
     id="text17098"
     style="font-size:13.3333px;line-height:1.25;stroke:#ffffff;fill:#ffffff;-inkscape-font-specification:'sans-serif, Normal'"
     transform="rotate(2.2744062,360.77242,359.22711)"><path
       d="m 334.01334,439.79363 q 0.25446,-0.87522 0.70809,-1.50269 0.44738,-0.62929 1.00437,-0.98263 0.58744,-0.36482 1.19153,-0.46039 0.60226,-0.0893 1.23992,0.0961 0.5939,0.17267 0.99595,0.4455 0.40388,0.26659 0.76616,0.62956 l 0.16954,-0.30327 1.10027,0.31989 -2.82813,9.7274 -1.17529,-0.34171 1.01056,-3.47585 q -0.61201,0.26276 -1.24292,0.35731 -0.63272,0.1008 -1.32664,-0.10095 -1.23781,-0.35988 -1.67421,-1.51731 -0.44266,-1.15926 0.0608,-2.89093 z m 1.22189,0.32135 q -0.36351,1.2503 -0.13812,2.01417 0.22358,0.77012 1.14255,1.0373 0.51263,0.14904 1.10319,0.0767 0.58874,-0.0661 1.14064,-0.28535 l 1.16324,-4.00098 q -0.43469,-0.37046 -0.76558,-0.56159 -0.33715,-0.19294 -0.79351,-0.32562 -0.97524,-0.28354 -1.71077,0.19417 -0.74359,0.48215 -1.14164,1.85124 z"
       id="path44132" /><path
       d="m 326.28924,436.56218 4.96719,2.00893 q 0.25142,-0.62165 0.25228,-1.16205 -0.002,-0.53437 -0.2079,-0.96192 -0.19667,-0.41663 -0.56661,-0.73479 -0.37597,-0.32061 -0.89502,-0.53053 -0.68804,-0.27827 -1.49196,-0.28739 -0.8124,-0.006 -1.21555,0.14043 l -0.0603,-0.0244 0.5004,-1.23727 q 0.67101,-0.01 1.33443,0.0692 0.66342,0.0787 1.32128,0.34477 1.67786,0.67859 2.25325,1.96471 0.57294,1.29215 -0.10321,2.96397 -0.66883,1.65372 -1.96111,2.26173 -1.29832,0.60556 -2.77098,0.01 -1.36401,-0.55166 -1.77813,-1.64615 -0.42015,-1.09692 0.17301,-2.56354 z m 0.75299,1.31581 q -0.35523,0.89569 -0.10633,1.5652 0.24287,0.66706 1.14819,1.03321 0.91136,0.36859 1.6718,0.0511 0.7544,-0.31991 1.14904,-1.0873 z"
       id="path44134" /><path
       d="m 321.02175,439.49754 1.23837,0.60943 -0.56055,1.13907 -1.23838,-0.60943 z m 3.81861,-7.58267 1.09818,0.54043 -3.21096,6.52483 -1.09818,-0.54043 z"
       id="path44136" /><path
       d="m 317.42988,427.75018 1.05375,0.62263 -2.10633,3.56483 q -0.25502,0.43159 -0.42647,0.83694 -0.17476,0.41095 -0.16608,0.70343 0.001,0.31821 0.19823,0.58597 0.19389,0.27336 0.61427,0.52175 0.43159,0.25502 1.02827,0.32022 0.59667,0.0652 1.22366,-0.0105 l 2.76209,-4.67463 1.05376,0.62262 -3.69934,6.26088 -1.05376,-0.62263 0.41067,-0.69503 q -0.73501,0.11773 -1.39768,0.0362 -0.66266,-0.0815 -1.21756,-0.40938 -1.01452,-0.59944 -1.18601,-1.52502 -0.17149,-0.92558 0.50744,-2.07462 z"
       id="path44138" /><path
       d="m 310.23993,423.58215 q 1.1032,-1.48377 2.2938,-1.67754 1.19061,-0.19377 2.59079,0.84728 0.46499,0.34572 0.85858,0.74382 0.39225,0.38899 0.73132,0.82769 l -0.74583,1.00311 -0.0522,-0.0388 q -0.17041,-0.27273 -0.59187,-0.79702 -0.41757,-0.52951 -0.94003,-0.91796 -0.50156,-0.37291 -0.92005,-0.49747 -0.41849,-0.12456 -0.76061,-0.0463 -0.33436,0.0678 -0.62637,0.29688 -0.29202,0.22909 -0.55616,0.58436 l -0.39622,0.5329 q 0.70823,-0.0251 1.24782,0.10027 0.53048,0.12669 1.15743,0.59283 1.04491,0.7769 1.10204,1.98761 0.048,1.21205 -0.9736,2.58611 -0.55937,0.75233 -1.17234,1.14031 -0.62208,0.38931 -1.28302,0.51446 -0.61539,0.11845 -1.25277,-0.0391 -0.64127,-0.15227 -1.12193,-0.50964 -0.50678,-0.3768 -0.76868,-0.73378 -0.27102,-0.35565 -0.49703,-0.8482 l -0.24915,0.20417 -0.91953,-0.68367 z m 0.28301,1.67071 -2.36566,3.18176 q 0.25977,0.46897 0.54499,0.7946 0.2761,0.32698 0.61047,0.57559 0.80981,0.60209 1.67878,0.40446 0.86898,-0.19764 1.63811,-1.2321 0.73028,-0.98222 0.76226,-1.74537 0.032,-0.76316 -0.76739,-1.35749 -0.42841,-0.31853 -0.97724,-0.4751 -0.55795,-0.15522 -1.12432,-0.14635 z"
       id="path44140" /><path
       d="m 298.01865,419.1873 0.046,0.0461 q 0.14712,0.2395 0.31269,0.44219 0.15636,0.20268 0.40475,0.45147 0.40019,0.40083 0.95246,0.59463 0.54766,0.19839 1.17369,0.26334 l 3.65354,-3.64768 0.86477,0.86616 -5.14628,5.13803 -0.86478,-0.86616 0.7602,-0.75897 q -0.92984,-0.10203 -1.49129,-0.32345 -0.57066,-0.22143 -0.98005,-0.63147 -0.22539,-0.22576 -0.31277,-0.34091 -0.092,-0.11056 -0.26212,-0.34548 z"
       id="path44142" /><path
       d="m 294.84005,411.73722 3.44912,4.10029 q 0.51316,-0.43167 0.76687,-0.90882 0.24872,-0.47295 0.26653,-0.94734 0.0212,-0.46023 -0.15677,-0.91455 -0.18217,-0.45929 -0.54259,-0.88775 -0.47777,-0.56797 -1.18392,-0.95232 -0.71532,-0.38514 -1.13989,-0.44486 l -0.0419,-0.0498 1.02133,-0.85913 q 0.59743,0.30566 1.14684,0.68574 0.54942,0.38007 1.00623,0.92312 1.16508,1.38503 1.07154,2.79088 -0.0985,1.41004 -1.47856,2.57092 -1.3651,1.14831 -2.79167,1.08072 -1.43076,-0.0726 -2.45334,-1.28822 -0.94715,-1.12596 -0.8008,-2.28698 0.14216,-1.166 1.35281,-2.18439 z m 0.0495,1.51522 q -0.73316,0.62524 -0.82659,1.33338 -0.0976,0.70316 0.53103,1.45048 0.63283,0.7523 1.45342,0.8277 0.8164,0.0704 1.52433,-0.423 z"
       id="path44144" /><path
       d="m 289.73598,404.79226 q 0.73175,-0.49851 1.48269,-0.70287 0.74557,-0.2007 1.4255,-0.1046 0.64007,0.0839 1.19057,0.41782 0.54145,0.33225 0.908,0.87029 0.31889,0.4681 0.47692,0.91976 0.15435,0.44628 0.20671,0.98567 l 2.51806,-1.71545 0.68912,1.01153 -8.22674,5.60454 -0.68911,-1.01153 0.62951,-0.42886 q -0.61388,-0.17261 -1.18075,-0.51904 -0.57592,-0.34815 -0.96446,-0.91848 -0.74043,-1.08685 -0.32776,-2.25029 0.40363,-1.16514 1.86174,-2.15849 z m 0.73801,1.02548 q -1.08685,0.74043 -1.37198,1.47823 -0.28513,0.7378 0.23904,1.50721 0.2969,0.43582 0.78579,0.74872 0.48889,0.31291 1.07048,0.50751 l 3.40584,-2.32026 q -0.0995,-0.56239 -0.23853,-0.91673 -0.14265,-0.35972 -0.41023,-0.75249 -0.57549,-0.84474 -1.46838,-0.92967 -0.89289,-0.0849 -2.01203,0.67748 z"
       id="path44146" /><path
       d="m 285.86167,397.36619 2.55382,4.71029 q 0.5895,-0.31961 0.934,-0.73597 0.33878,-0.41326 0.45166,-0.87436 0.11336,-0.44656 0.0304,-0.92739 -0.0861,-0.48655 -0.35292,-0.97876 -0.35375,-0.65246 -0.96815,-1.171 -0.62323,-0.52117 -1.02711,-0.66507 l -0.031,-0.0572 1.17328,-0.63612 q 0.52373,0.41959 0.98546,0.90242 0.46173,0.48282 0.79996,1.10666 0.86265,1.59108 0.48823,2.94938 -0.38014,1.3614 -1.9655,2.22095 -1.56819,0.85023 -2.952,0.49705 -1.38691,-0.3589 -2.14405,-1.75539 -0.7013,-1.29347 -0.32439,-2.40132 0.3738,-1.11357 1.76457,-1.86761 z m -0.25629,1.49421 q -0.84395,0.46498 -1.07791,1.13985 -0.23707,0.66915 0.22839,1.52765 0.46856,0.86422 1.25721,1.10314 0.78555,0.23321 1.57826,-0.10772 z"
       id="path44148" /><path
       d="m 285.97899,388.79477 0.47109,1.1226 -0.71438,0.29979 q 0.16503,0.10725 0.45946,0.2873 0.2859,0.17656 0.49473,0.37134 0.25648,0.22421 0.5002,0.55262 0.24972,0.32589 0.4563,0.81816 0.38039,0.90649 0.0446,1.78875 -0.33581,0.88226 -1.26631,1.27273 -0.76242,0.31994 -1.36671,0.19227 -0.61281,-0.13117 -1.13739,-0.62413 -0.52711,-0.49897 -0.98341,-1.31712 -0.45629,-0.81816 -0.91747,-1.78254 l -0.17409,0.0731 q -0.38421,0.16123 -0.57841,0.40511 -0.19671,0.23788 -0.23498,0.55047 -0.0373,0.29808 0.0557,0.65441 0.0931,0.35634 0.24672,0.72253 0.18642,0.44424 0.53574,0.94016 0.34331,0.49843 0.80979,0.98753 l 0.0252,0.06 -1.14662,0.48117 q -0.2286,-0.29239 -0.59866,-0.87138 -0.37005,-0.57899 -0.62449,-1.18532 -0.29727,-0.70838 -0.39638,-1.28105 -0.10762,-0.57615 0.0133,-1.07876 0.11744,-0.49409 0.47254,-0.8761 0.35511,-0.38201 1.00346,-0.65408 z m -1.1798,1.81538 -1.86701,0.78347 q 0.24667,0.50369 0.60145,1.18087 0.35226,0.67119 0.63763,1.03154 0.34213,0.42833 0.76225,0.60505 0.41411,0.17924 0.92439,-0.0349 0.57631,-0.24185 0.72436,-0.71348 0.14204,-0.46911 -0.15775,-1.18349 -0.2494,-0.59432 -0.6841,-0.99086 -0.4407,-0.39402 -0.94122,-0.67821 z"
       id="path44150" /><path
       d="m 283.98316,382.99251 q 0.19337,0.29996 0.37592,0.6719 0.18053,0.36574 0.27917,0.66912 0.34423,1.05872 -0.0462,1.79495 -0.39044,0.73624 -1.64729,1.14488 l -3.67767,1.19575 0.25566,0.7863 -0.97824,0.31806 -0.25565,-0.7863 -1.98743,0.64618 -0.37845,-1.16397 1.98742,-0.64619 -0.78106,-2.40225 0.97824,-0.31806 0.78106,2.40225 3.1514,-1.02464 q 0.54484,-0.17714 0.84636,-0.30256 0.29532,-0.1234 0.51324,-0.35856 0.20337,-0.21673 0.24451,-0.49025 0.0329,-0.2777 -0.1261,-0.76681 -0.0926,-0.28481 -0.27374,-0.56821 -0.18733,-0.28138 -0.28734,-0.39947 l -0.0201,-0.0619 z"
       id="path44152" /><path
       d="m 278.81727,376.43166 1.22925,5.21515 q 0.65269,-0.15385 1.09432,-0.4653 0.43529,-0.30995 0.66513,-0.72532 0.2265,-0.40121 0.27253,-0.88696 0.0445,-0.4921 -0.0839,-1.03706 -0.17027,-0.72239 -0.6272,-1.3839 -0.46475,-0.66636 -0.81675,-0.91114 l -0.0149,-0.0634 1.29903,-0.3062 q 0.39537,0.54225 0.71433,1.12926 0.31896,0.58701 0.48177,1.27771 0.41523,1.76162 -0.30228,2.9742 -0.72384,1.21407 -2.47912,1.6278 -1.73627,0.40926 -2.97904,-0.29444 -1.24426,-0.71004 -1.6087,-2.25621 -0.33756,-1.4321 0.31666,-2.40234 0.65274,-0.97658 2.19257,-1.33954 z m -0.63916,1.37471 q -0.93635,0.2274 -1.33909,0.8173 -0.40425,0.58357 -0.1802,1.53408 0.22554,0.95685 0.92393,1.39422 0.69691,0.43104 1.55128,0.30992 z"
       id="path44154" /><path
       d="m 281.15833,367.94395 0.15755,1.21377 -0.75538,0.0981 q 0.51982,0.46429 0.84536,0.99976 0.32554,0.53546 0.41186,1.20046 0.16761,1.29124 -0.72776,2.18214 -0.89621,0.88444 -2.65877,1.11322 -0.91678,0.119 -1.66695,-0.0462 -0.751,-0.17169 -1.31241,-0.5518 -0.54766,-0.37533 -0.88133,-0.92287 -0.33452,-0.554 -0.41581,-1.18025 -0.0737,-0.56815 -0.008,-1.0231 0.0592,-0.45411 0.24816,-0.97101 l -3.12481,0.40561 -0.15756,-1.21377 z m -1.61791,1.44423 -4.13845,0.53719 q -0.15582,0.51916 -0.18947,0.91743 -0.0336,0.39827 0.0259,0.85666 0.13241,1.02009 0.91634,1.49605 0.78394,0.47597 2.0881,0.30668 1.28479,-0.16677 1.89925,-0.69295 0.60801,-0.52534 0.4823,-1.49378 -0.067,-0.51649 -0.36173,-1.01657 -0.30114,-0.49925 -0.72219,-0.91071 z"
       id="path44156" /><path
       d="m 276.35606,355.13234 q 0.291,-0.30223 0.72116,-0.48871 0.43015,-0.18648 1.10029,-0.16237 0.66363,0.0239 1.208,0.2845 0.54437,0.26062 0.93857,0.71128 0.43788,0.50435 0.63522,1.17594 0.19106,0.66485 0.16274,1.4521 -0.029,0.80677 -0.25229,1.58049 -0.21677,0.77395 -0.46251,1.26674 l -1.35979,-0.0489 0.004,-0.0976 q 0.38424,-0.53992 0.65189,-1.27947 0.26764,-0.73955 0.29269,-1.43572 0.0147,-0.40989 -0.10527,-0.87674 -0.12001,-0.46686 -0.37647,-0.76273 -0.2755,-0.30958 -0.61518,-0.46512 -0.33945,-0.16205 -0.86645,-0.18101 -0.52049,-0.0187 -0.8649,0.13827 -0.35068,0.15025 -0.5564,0.43601 -0.21222,0.28552 -0.29877,0.69934 -0.0931,0.41359 -0.11038,0.89505 l -0.0211,0.58555 -1.08003,-0.0389 0.0164,-0.45543 q 0.0356,-0.98894 -0.35325,-1.58925 -0.3951,-0.60704 -1.18885,-0.63559 -0.35134,-0.0126 -0.61697,0.12764 -0.27214,0.14004 -0.45089,0.40071 -0.17923,0.27368 -0.25576,0.59014 -0.0765,0.31647 -0.091,0.71985 -0.0222,0.61809 0.17393,1.32221 0.19616,0.70412 0.57731,1.33672 l -0.002,0.0651 -1.35979,-0.0489 q -0.2111,-0.47013 -0.37216,-1.24465 -0.16733,-0.78125 -0.14135,-1.50344 0.0255,-0.70918 0.17506,-1.24451 0.14955,-0.53533 0.4515,-0.96095 0.32915,-0.45721 0.78023,-0.68202 0.45109,-0.22482 1.04315,-0.20352 0.80677,0.029 1.39125,0.62334 0.5782,0.58757 0.7065,1.36742 l 0.0911,0.003 q 0.0633,-0.31042 0.24696,-0.70772 0.17717,-0.39753 0.43447,-0.66841 z"
       id="path44158" /><path
       d="m 282.53752,344.01636 q 0.0278,0.3558 0.0118,0.76981 -0.0148,0.40761 -0.072,0.72144 -0.19975,1.09522 -0.89294,1.55778 -0.6932,0.46255 -1.99337,0.22543 l -3.80442,-0.69385 -0.14835,0.81341 -1.01195,-0.18456 0.14835,-0.81341 -2.05593,-0.37496 0.2196,-1.20409 2.05593,0.37496 0.45322,-2.48505 1.01195,0.18456 -0.45322,2.48505 3.26002,0.59456 q 0.56362,0.10279 0.88853,0.13558 0.3185,0.0316 0.62194,-0.0719 0.28189,-0.0942 0.44797,-0.31537 0.16084,-0.22876 0.25312,-0.73473 0.0537,-0.29462 0.0289,-0.63005 -0.0313,-0.33659 -0.0632,-0.488 l 0.0117,-0.0641 z"
       id="path44160" /><path
       d="m 275.00456,339.33231 -0.32182,1.34216 -1.23453,-0.29602 0.32182,-1.34216 z m 8.23734,2.05549 -0.28539,1.19021 -7.07167,-1.69564 0.28539,-1.19022 z"
       id="path44162" /><path
       d="m 287.22084,328.98308 -0.40658,1.15445 -3.90548,-1.37546 q -0.44213,-0.15571 -0.8687,-0.25762 -0.4244,-0.10806 -0.71545,-0.0656 -0.31379,0.0482 -0.54188,0.26471 -0.22809,0.21647 -0.40326,0.71387 -0.17085,0.48512 -0.0961,1.05674 0.0686,0.56946 0.27237,1.1865 0.14772,0.0313 0.34241,0.0861 0.18855,0.0526 0.37277,0.11748 l 4.3906,1.54631 -0.40659,1.15445 -3.90548,-1.37546 q -0.45441,-0.16004 -0.87484,-0.25979 -0.4244,-0.10806 -0.71544,-0.0656 -0.31379,0.0482 -0.53574,0.26688 -0.22809,0.21647 -0.40327,0.71386 -0.16653,0.47284 -0.10187,1.03399 0.0668,0.55502 0.2626,1.15545 l 5.12134,1.80367 -0.40658,1.15445 -6.85916,-2.41571 0.40658,-1.15445 0.76145,0.26818 q -0.25796,-0.69826 -0.32157,-1.32117 -0.0615,-0.62905 0.15265,-1.23698 0.24654,-0.70004 0.71215,-1.08135 0.46776,-0.38745 1.07407,-0.44311 -0.34297,-0.90765 -0.39758,-1.57571 -0.0608,-0.67022 0.17064,-1.32727 0.39794,-1.12989 1.27385,-1.42191 0.87193,-0.30033 2.10007,0.13221 z"
       id="path44164" /><path
       d="m 287.93324,319.85609 -2.42654,4.7771 q 0.59786,0.30369 1.13621,0.35077 0.53254,0.0441 0.97618,-0.12483 0.43193,-0.16031 0.78058,-0.50166 0.35159,-0.34716 0.60515,-0.84635 0.33612,-0.66171 0.41399,-1.46191 0.075,-0.80895 -0.0359,-1.2231 l 0.0295,-0.058 1.18992,0.60442 q -0.0479,0.66937 -0.18309,1.32362 -0.13518,0.65425 -0.45655,1.28694 -0.81966,1.61365 -2.15029,2.07689 -1.33643,0.46029 -2.94428,-0.35642 -1.59043,-0.80787 -2.08564,-2.14743 -0.49226,-1.34537 0.22715,-2.76167 0.66635,-1.31181 1.79225,-1.63077 1.12884,-0.32476 2.53934,0.3917 z m -1.3754,0.63765 q -0.86202,-0.43056 -1.55036,-0.23985 -0.6854,0.18491 -1.12766,1.05558 -0.44521,0.87648 -0.19397,1.66129 0.25419,0.77901 0.985,1.23786 z"
       id="path44166" /><path
       d="m 293.02899,314.34248 q 0.84182,0.53247 0.93905,1.5723 0.1007,1.03433 -0.66146,2.2393 -0.43155,0.68226 -0.95305,1.15356 -0.52352,0.46231 -0.95971,0.72566 l -1.16095,-0.73433 0.0348,-0.055 q 0.67838,-0.25651 1.27781,-0.71704 0.59392,-0.46401 0.94194,-1.01422 0.43155,-0.68226 0.45508,-1.20662 0.0235,-0.52436 -0.44966,-0.82366 -0.36314,-0.22969 -0.68246,-0.13894 -0.31932,0.0908 -0.82723,0.60147 -0.18873,0.18876 -0.48097,0.50464 -0.28876,0.31037 -0.55024,0.55326 -0.72617,0.67309 -1.3546,0.7532 -0.63046,0.0711 -1.23569,-0.31168 -0.37965,-0.24014 -0.61784,-0.60649 -0.2347,-0.37185 -0.29695,-0.85803 -0.0637,-0.47169 0.087,-1.03883 0.14872,-0.57614 0.5211,-1.16487 0.34802,-0.55021 0.84055,-1.02442 0.49051,-0.4832 0.91974,-0.73554 l 1.10593,0.69952 -0.0348,0.055 q -0.54219,0.2117 -1.09873,0.65313 -0.56204,0.43796 -0.90658,0.98267 -0.35846,0.56672 -0.38547,1.09658 -0.0325,0.52638 0.39666,0.79783 0.37965,0.24014 0.72187,0.12535 0.33874,-0.10928 0.78693,-0.54992 0.247,-0.24435 0.53576,-0.55472 0.29223,-0.31588 0.4969,-0.51767 0.62097,-0.61637 1.26972,-0.75297 0.65426,-0.13312 1.32552,0.29147 z"
       id="path44168" /><path
       d="m 295.86759,310.90886 2.3304,4.0155 -0.56643,0.76332 -2.74939,-3.45087 z"
       id="path44170" /><path
       d="m 305.79968,302.60658 -0.85454,0.86714 -0.55181,-0.5438 q -0.0354,0.19361 -0.0882,0.53467 -0.0528,0.33185 -0.15214,0.59959 -0.10812,0.32304 -0.31732,0.67445 -0.20456,0.35598 -0.57928,0.73622 -0.69003,0.70021 -1.63357,0.73013 -0.94353,0.0299 -1.66228,-0.6784 -0.58891,-0.58036 -0.70384,-1.1872 -0.11499,-0.61605 0.13788,-1.29004 0.25745,-0.67862 0.83673,-1.41484 0.57928,-0.73622 1.29162,-1.53326 l -0.13447,-0.13253 q -0.29678,-0.29246 -0.59664,-0.37774 -0.29529,-0.0899 -0.59851,-0.005 -0.28944,0.0804 -0.58245,0.3035 -0.293,0.22312 -0.57175,0.50598 -0.33817,0.34315 -0.66127,0.85652 -0.32775,0.5088 -0.59944,1.12768 l -0.0457,0.0464 -0.88568,-0.87282 q 0.18178,-0.32359 0.57357,-0.8881 0.39178,-0.56452 0.85333,-1.03286 0.53923,-0.54718 1.02954,-0.85921 0.49024,-0.32124 1.00065,-0.40324 0.5012,-0.0819 0.99051,0.0986 0.48931,0.18057 0.99012,0.67411 z m -2.12974,-0.38955 -1.44214,-1.42119 q -0.36981,0.42164 -0.8581,1.00988 -0.48372,0.5836 -0.70636,0.98575 -0.2635,0.4807 -0.26477,0.93648 -0.006,0.4512 0.38825,0.83963 0.44516,0.4387 0.93742,0.39366 0.48763,-0.0496 1.03143,-0.60142 0.45241,-0.45907 0.65092,-1.01296 0.19387,-0.55846 0.26335,-1.12983 z"
       id="path44172" /><path
       d="m 312.22579,297.13631 -0.94404,0.779 -2.63536,-3.19368 q -0.31906,-0.38665 -0.64188,-0.6858 -0.32696,-0.30417 -0.60493,-0.39554 -0.29957,-0.10731 -0.61846,-0.013 -0.32302,0.0893 -0.69964,0.40007 -0.38665,0.31906 -0.651,0.85794 -0.26435,0.53888 -0.40653,1.15421 l 3.45579,4.18794 -0.94404,0.77901 -4.62844,-5.60903 0.94404,-0.779 0.51381,0.62266 q 0.13941,-0.73121 0.44154,-1.32659 0.30213,-0.59539 0.79926,-1.00561 0.9089,-0.74999 1.8376,-0.59629 0.9287,0.15369 1.77814,1.1831 z"
       id="path44174" /><path
       d="m 319.0425,292.4759 -1.02006,0.67641 -0.42096,-0.63482 q -0.18764,0.67124 -0.5248,1.19947 -0.33716,0.52823 -0.89603,0.89881 -1.08517,0.71959 -2.27951,0.30856 -1.18891,-0.41463 -2.17114,-1.8959 -0.51091,-0.77047 -0.69324,-1.51666 -0.17691,-0.74979 -0.0832,-1.42127 0.0955,-0.65702 0.43993,-1.19787 0.34983,-0.54445 0.87614,-0.89345 0.47748,-0.31662 0.9148,-0.45818 0.43373,-0.147 0.98099,-0.20523 l -1.7414,-2.62613 1.02006,-0.67641 z m -2.00949,-0.8157 -2.30628,-3.47799 q -0.53469,0.089 -0.90702,0.2343 -0.37233,0.14534 -0.75756,0.40079 -0.85729,0.56847 -0.939,1.48194 -0.0817,0.91346 0.64508,2.00949 0.71599,1.07975 1.45913,1.39938 0.73955,0.31421 1.55343,-0.22548 0.43407,-0.28783 0.75307,-0.77277 0.31539,-0.49036 0.49915,-1.04966 z"
       id="path44176" /><path
       d="m 328.66061,287.40429 q -0.27276,0.23015 -0.61829,0.45877 -0.33966,0.22583 -0.62792,0.36246 -1.006,0.47683 -1.78612,0.18376 -0.78013,-0.29306 -1.34619,-1.48731 l -1.65633,-3.49452 -0.74715,0.35414 -0.44057,-0.92952 0.74714,-0.35413 -0.89509,-1.88845 1.10601,-0.52423 0.89509,1.88845 2.28261,-1.08192 0.44057,0.92952 -2.28261,1.08192 1.41932,2.99445 q 0.24539,0.51771 0.40834,0.8007 0.16017,0.27712 0.42126,0.46316 0.24097,0.17398 0.5175,0.1798 0.27963,-0.003 0.74439,-0.22315 0.27062,-0.12827 0.52852,-0.34417 0.25511,-0.22178 0.35944,-0.33607 l 0.0588,-0.0279 z"
       id="path44178" /><path
       d="m 335.73848,284.73511 -1.14676,0.4278 -1.44726,-3.87945 q -0.17522,-0.46968 -0.38258,-0.85788 -0.20963,-0.39431 -0.4425,-0.57148 -0.24807,-0.19931 -0.58027,-0.21435 -0.33447,-0.0211 -0.79196,0.14953 -0.46968,0.17521 -0.89559,0.59815 -0.4259,0.42294 -0.76133,0.95805 l 1.89782,5.0872 -1.14675,0.4278 -3.54078,-9.49123 1.14675,-0.4278 1.28115,3.43416 q 0.37066,-0.64553 0.85074,-1.10952 0.48008,-0.464 1.08396,-0.68928 1.10405,-0.41187 1.93157,0.0368 0.82751,0.4487 1.294,1.69915 z"
       id="path44180" /><path
       d="m 343.00291,279.11097 -5.18569,1.34811 q 0.16872,0.649 0.49018,1.08339 0.31982,0.4281 0.74033,0.64839 0.40628,0.21727 0.89296,0.25219 0.49298,0.0333 1.03486,-0.10759 0.71831,-0.18673 1.36921,-0.65865 0.65557,-0.47986 0.89224,-0.83736 l 0.063,-0.0164 0.3358,1.29169 q -0.53307,0.40766 -1.11264,0.73995 -0.57957,0.33229 -1.26638,0.51084 -1.75166,0.45537 -2.98032,-0.23424 -1.23029,-0.69591 -1.68403,-2.44128 -0.44882,-1.72646 0.2263,-2.98498 0.68142,-1.26016 2.21885,-1.65985 1.42402,-0.37019 2.40896,0.26169 0.99124,0.63025 1.38928,2.16139 z m -1.38895,-0.60757 q -0.24873,-0.93091 -0.84769,-1.32007 -0.59265,-0.3908 -1.53779,-0.1451 -0.95145,0.24735 -1.37275,0.95556 -0.415,0.70657 -0.27439,1.55795 z"
       id="path44182" /><path
       d="m 356.17113,277.20897 q 0.16713,1.76946 -0.64355,2.87926 -0.81069,1.10979 -2.33386,1.25366 -1.53613,0.1451 -2.54027,-0.79328 -0.99767,-0.93899 -1.1648,-2.70845 -0.16713,-1.76946 0.63707,-2.87865 0.81008,-1.11627 2.34621,-1.26137 1.52316,-0.14387 2.52792,0.80099 1.00415,0.93838 1.17128,2.70784 z m -1.25742,0.11877 q -0.13285,-1.4065 -0.74807,-2.03502 -0.61582,-0.63501 -1.59454,-0.54257 -0.99167,0.0937 -1.47771,0.83275 -0.48017,0.73199 -0.34732,2.13849 0.12857,1.36113 0.74623,2.01558 0.61705,0.64797 1.60224,0.55491 0.97224,-0.0918 1.45766,-0.83739 0.4913,-0.75266 0.36151,-2.12675 z"
       id="path44184" /><path
       d="m 362.18632,280.70581 q -0.34413,0.0946 -0.75368,0.15723 -0.40305,0.0626 -0.72204,0.0658 -1.11322,0.011 -1.69856,-0.58213 -0.58535,-0.59317 -0.59846,-1.91472 l -0.0384,-3.86699 -0.82678,0.008 -0.0102,-1.02859 0.82678,-0.008 -0.0207,-2.08973 1.22389,-0.0122 0.0208,2.08973 2.52591,-0.0251 0.0102,1.02859 -2.52591,0.0251 0.0329,3.31364 q 0.006,0.57288 0.035,0.89813 0.0292,0.31873 0.18822,0.59712 0.14581,0.25898 0.39442,0.38021 0.25506,0.11466 0.76935,0.10956 0.29947,-0.003 0.62413,-0.0908 0.3246,-0.0944 0.46724,-0.15438 l 0.0651,-6.5e-4 z"
       id="path44186" /><path
       d="m 369.73086,281.25483 -1.22041,-0.0932 0.31519,-4.1286 q 0.0382,-0.49985 0.0129,-0.93924 -0.0247,-0.44589 -0.16169,-0.70446 -0.14147,-0.28503 -0.43666,-0.43815 -0.2947,-0.15962 -0.78156,-0.19678 -0.49985,-0.0382 -1.06397,0.16689 -0.56411,0.20505 -1.0932,0.54989 l -0.41331,5.41392 -1.2204,-0.0932 0.77111,-10.10079 1.22041,0.0932 -0.27901,3.65473 q 0.60743,-0.43027 1.23795,-0.64984 0.63052,-0.21957 1.27318,-0.17051 1.17496,0.0897 1.73764,0.84435 0.56267,0.75466 0.46108,2.08542 z"
       id="path44188" /><path
       d="m 378.68353,279.19698 -5.27314,-0.95016 q -0.11892,0.65995 -0.009,1.18909 0.11088,0.52274 0.4003,0.89904 0.27776,0.36758 0.70496,0.60332 0.43361,0.2369 0.98463,0.33619 0.73043,0.13161 1.51921,-0.0239 0.79634,-0.1608 1.16109,-0.38615 l 0.0641,0.0115 -0.23668,1.31348 q -0.65486,0.14661 -1.32035,0.20531 -0.66549,0.0587 -1.36387,-0.0671 -1.78121,-0.32096 -2.60756,-1.46214 -0.82519,-1.14759 -0.50539,-2.92239 0.31633,-1.75558 1.45688,-2.61512 1.14696,-0.85839 2.71032,-0.57668 1.44803,0.26091 2.07732,1.24752 0.63569,0.98775 0.35515,2.54471 z m -1.00628,-1.13391 q 0.16446,-0.94942 -0.21615,-1.55384 -0.37422,-0.60326 -1.3353,-0.77644 -0.96749,-0.17433 -1.64689,0.292 -0.67299,0.46749 -0.90227,1.29939 z"
       id="path44190" /><path
       d="m 385.78184,278.56835 -0.0629,-0.0169 q -0.24719,-0.13379 -0.49194,-0.22649 -0.23677,-0.0973 -0.5763,-0.18848 -0.54702,-0.14692 -1.12218,-0.0385 -0.57346,0.10214 -1.14804,0.35904 l -1.3391,4.98605 -1.18207,-0.31747 1.88623,-7.02323 1.18207,0.31747 -0.27863,1.03745 q 0.85619,-0.37675 1.45311,-0.46586 0.60491,-0.0937 1.1645,0.0566 0.30809,0.0827 0.44135,0.13876 0.13495,0.0497 0.39979,0.16804 z"
       id="path44192" /><path
       d="m 398.40547,282.02393 -5.57048,5.52385 -1.13088,-0.48492 0.17934,-7.83559 1.22064,0.52341 -0.21066,6.20708 4.33329,-4.43928 z"
       id="path44194" /><path
       d="m 404.04224,289.21636 q -0.8601,1.55536 -2.15551,2.01446 -1.29541,0.45909 -2.63428,-0.28129 -1.35026,-0.74668 -1.65009,-2.08794 -0.29414,-1.3381 0.56597,-2.89346 0.8601,-1.55537 2.14981,-2.01761 1.29857,-0.46479 2.64883,0.28189 1.33886,0.74038 1.63555,2.08733 0.29983,1.34126 -0.56028,2.89662 z m -1.10527,-0.61121 q 0.68367,-1.23631 0.53021,-2.10233 -0.15031,-0.87171 -1.0106,-1.34745 -0.87169,-0.48203 -1.68992,-0.14592 -0.80939,0.33357 -1.49306,1.56989 -0.66162,1.19643 -0.52076,2.08524 0.14401,0.8831 1.01,1.36199 0.8546,0.47258 1.67598,0.13077 0.83023,-0.34436 1.49815,-1.55219 z"
       id="path44196" /><path
       d="m 415.59247,292.82437 -5.79153,4.78864 -0.91863,-0.66285 1.76475,-5.63897 -4.78462,3.45995 -0.91336,-0.65905 2.70302,-7.01719 1.03479,0.74666 -2.21291,5.34771 4.76818,-3.50392 0.81833,0.59047 -1.78527,5.65628 4.31943,-3.82772 z"
       id="path44198" /><path
       d="m 419.48618,301.47812 -3.94367,-3.62715 q -0.45395,0.49356 -0.64476,0.99915 -0.1864,0.5008 -0.1436,0.97359 0.0376,0.45919 0.27208,0.88711 0.23924,0.43232 0.65133,0.81134 0.54627,0.50243 1.29566,0.79363 0.75858,0.29081 1.1873,0.29592 l 0.0479,0.0441 -0.90348,0.98232 q -0.63152,-0.22701 -1.2249,-0.53395 -0.59339,-0.30694 -1.1157,-0.78732 -1.33213,-1.22521 -1.41857,-2.63152 -0.082,-1.41109 1.13877,-2.73843 1.20758,-1.31296 2.63113,-1.42777 1.42834,-0.1104 2.59754,0.96497 1.08296,0.99603 1.08581,2.16624 0.008,1.17461 -1.06332,2.33902 z m -0.24226,-1.49655 q 0.64748,-0.7136 0.64987,-1.42787 0.007,-0.70987 -0.7116,-1.37095 -0.72356,-0.66549 -1.54707,-0.63567 -0.81872,0.0342 -1.45797,0.61386 z"
       id="path44200" /><path
       d="m 419.20907,306.33768 -0.83833,-0.89178 7.38086,-6.93855 0.83834,0.89178 z"
       id="path44202" /><path
       d="m 430.56994,314.78623 q -0.74109,0.53061 -1.48556,0.74335 -0.74068,0.21804 -1.39692,0.15141 -0.68728,-0.0764 -1.22117,-0.37477 -0.5286,-0.30213 -0.91518,-0.84207 -0.36005,-0.50288 -0.50739,-0.96589 -0.15264,-0.45922 -0.213,-0.96849 l -0.32074,0.13356 -0.66704,-0.93165 8.23667,-5.89728 0.71252,0.99518 -2.94318,2.10725 q 0.64349,0.17183 1.19784,0.48756 0.55964,0.31194 0.98033,0.89952 0.75042,1.04811 0.37787,2.22765 -0.36875,1.18484 -1.83505,2.23467 z m -0.76173,-1.00798 q 1.0587,-0.75801 1.35378,-1.49775 0.30039,-0.74353 -0.25675,-1.52168 -0.31078,-0.43406 -0.81971,-0.74227 -0.50363,-0.31201 -1.07295,-0.4809 l -3.38783,2.42562 q 0.11263,0.55992 0.25456,0.91471 0.14571,0.36008 0.42238,0.7465 0.59124,0.82579 1.4647,0.90503 0.88254,0.0807 2.04182,-0.74926 z"
       id="path44204" /><path
       d="m 434.64288,322.10095 -2.66301,-4.64942 q -0.58189,0.33328 -0.91658,0.75756 -0.32904,0.42105 -0.43113,0.88466 -0.10291,0.44909 -0.009,0.92785 0.0974,0.48441 0.37566,0.97026 0.36888,0.64402 0.99521,1.14809 0.63522,0.50648 1.04234,0.64093 l 0.0324,0.0565 -1.15812,0.66333 q -0.53337,-0.40726 -1.00624,-0.87918 -0.47288,-0.47192 -0.82557,-1.0877 -0.89954,-1.57053 -0.55691,-2.93719 0.34828,-1.3699 1.91315,-2.2662 1.54793,-0.88659 2.9396,-0.56579 1.39491,0.32645 2.18443,1.7049 0.73128,1.27675 0.38032,2.39309 -0.34772,1.12199 -1.72051,1.90828 z m 0.22137,-1.49978 q 0.83287,-0.48454 1.05102,-1.16469 0.22139,-0.67449 -0.26397,-1.5219 -0.4886,-0.85305 -1.28261,-1.07351 -0.79077,-0.21482 -1.57531,0.14451 z"
       id="path44206" /><path
       d="m 440.59753,323.04313 -0.59766,-1.2441 1.14434,-0.54973 0.59765,1.2441 z m -7.68621,3.6057 -0.52999,-1.10326 6.55499,-3.14895 0.52999,1.10326 z"
       id="path44208" /><path
       d="m 436.17234,334.49896 -0.44518,-1.14012 3.85702,-1.50603 q 0.46696,-0.18233 0.85197,-0.39557 0.39108,-0.2156 0.5647,-0.45113 0.19551,-0.25107 0.2055,-0.58346 0.0161,-0.33476 -0.16154,-0.78959 -0.18233,-0.46697 -0.61169,-0.8864 -0.42936,-0.41944 -0.9695,-0.74669 l -5.05778,1.97488 -0.44518,-1.14012 6.77403,-2.64502 0.44518,1.14012 -0.752,0.29363 q 0.65109,0.36081 1.12233,0.83379 0.47123,0.47297 0.70566,1.07336 0.4286,1.09767 -0.007,1.9319 -0.43607,0.83424 -1.67929,1.31967 z"
       id="path44210" /><path
       d="m 439.2645,342.21291 q -1.7833,0.48832 -2.84025,-0.093 -1.05695,-0.58133 -1.51776,-2.26417 -0.15303,-0.55885 -0.21755,-1.11494 -0.0691,-0.54809 -0.0657,-1.10253 l 1.20561,-0.33014 0.0172,0.0628 q -0.0339,0.31979 -0.0252,0.99242 0.002,0.67435 0.17434,1.30227 0.16507,0.60281 0.41782,0.95885 0.25275,0.35605 0.57037,0.50533 0.30508,0.15271 0.67623,0.15233 0.37114,-3.8e-4 0.79813,-0.1173 l 0.64049,-0.17539 q -0.57315,-0.41681 -0.92076,-0.84813 -0.33961,-0.42676 -0.54594,-1.18027 -0.34389,-1.25584 0.35743,-2.24439 0.70931,-0.98399 2.36075,-1.43621 0.90421,-0.2476 1.62603,-0.17525 0.72982,0.0769 1.3274,0.38578 0.55759,0.28607 0.96239,0.80298 0.41108,0.51519 0.56926,1.09288 0.16679,0.60909 0.15297,1.05163 -0.006,0.44709 -0.13147,0.97426 l 0.32203,-0.007 0.30263,1.10515 z m 0.80701,-1.49 3.82405,-1.04714 q 0.0845,-0.5294 0.0607,-0.96163 -0.0159,-0.42766 -0.1259,-0.82953 -0.26651,-0.97328 -1.07258,-1.35331 -0.80607,-0.38003 -2.04936,-0.0396 -1.1805,0.32325 -1.6761,0.90447 -0.4956,0.58121 -0.23253,1.54194 0.141,0.51489 0.47665,0.97649 0.34365,0.46615 0.79509,0.80829 z"
       id="path44212" /><path
       d="m 440.26225,353.15539 q -0.13272,-0.33129 -0.2411,-0.73118 -0.10758,-0.39343 -0.14665,-0.71004 -0.13634,-1.1049 0.38715,-1.75331 0.52349,-0.64842 1.83515,-0.81027 l 3.83807,-0.47359 -0.10125,-0.8206 1.0209,-0.12597 0.10125,0.8206 2.07411,-0.25593 0.14989,1.21474 -2.07411,0.25593 0.30935,2.50702 -1.0209,0.12598 -0.30935,-2.50703 -3.28885,0.40582 q -0.5686,0.0702 -0.88848,0.13588 -0.31342,0.0649 -0.57212,0.25427 -0.24092,0.17404 -0.33339,0.43472 -0.0852,0.26634 -0.0222,0.7768 0.0367,0.29722 0.16053,0.60992 0.13033,0.31191 0.20602,0.44689 l 0.008,0.0646 z"
       id="path44214" /><path
       d="m 440.5646,360.71392 -0.0445,-1.22314 4.13789,-0.15041 q 0.50097,-0.0182 0.93475,-0.0926 0.44028,-0.0746 0.68184,-0.23977 0.26734,-0.17258 0.38635,-0.4831 0.12551,-0.31075 0.10778,-0.79871 -0.0182,-0.50097 -0.28531,-1.03849 -0.2671,-0.53753 -0.66917,-1.02455 l -5.42609,0.19724 -0.0445,-1.22315 10.1235,-0.36798 0.0445,1.22314 -3.66294,0.13315 q 0.49576,0.55527 0.78474,1.15715 0.28898,0.60188 0.31239,1.24598 0.0428,1.17761 -0.64389,1.82147 -0.6867,0.64385 -2.02045,0.69233 z"
       id="path44216" /><path
       d="m 443.60768,369.38197 0.35756,-5.34612 q -0.66908,-0.0447 -1.18273,0.12318 -0.50716,0.16835 -0.84891,0.49784 -0.3344,0.31693 -0.52115,0.76771 -0.18718,0.45728 -0.22454,1.01593 -0.0495,0.74053 0.19283,1.50711 0.24841,0.7735 0.51294,1.11092 l -0.004,0.065 -1.33166,-0.0891 q -0.21856,-0.63448 -0.35094,-1.28931 -0.13238,-0.65482 -0.085,-1.36287 0.12077,-1.80586 1.16293,-2.75405 1.04865,-0.94776 2.84802,-0.82741 1.77987,0.11904 2.76097,1.15687 0.98067,1.04433 0.87467,2.62933 -0.0982,1.46807 -1.00865,2.20322 -0.91089,0.74165 -2.4894,0.63607 z m 1.01492,-1.12619 q 0.96182,0.0578 1.52014,-0.3877 0.55788,-0.43901 0.62305,-1.41339 0.0656,-0.98088 -0.47343,-1.60418 -0.53947,-0.6168 -1.39171,-0.75209 z"
       id="path44218" /><path
       d="m 438.365,379.32195 q -0.0182,-0.35642 0.009,-0.76986 0.0257,-0.40706 0.0913,-0.71925 0.22896,-1.08948 0.93428,-1.53334 0.70531,-0.44386 1.99868,-0.17206 l 3.78451,0.79532 0.17004,-0.80915 1.00665,0.21155 -0.17004,0.80915 2.04517,0.42979 -0.25172,1.19779 -2.04517,-0.42979 -0.5195,2.47204 -1.00665,-0.21155 0.5195,-2.47204 -3.24296,-0.68151 q -0.56067,-0.11783 -0.88458,-0.15929 -0.31755,-0.0401 -0.62365,0.0552 -0.2843,0.0866 -0.45623,0.30327 -0.1669,0.22438 -0.27268,0.72771 -0.0616,0.29308 -0.0457,0.62904 0.0222,0.33731 0.0501,0.48953 l -0.0134,0.0637 z"
       id="path44220" /><path
       d="m 436.21422,386.57471 0.35212,-1.17221 3.96556,1.19122 q 0.48011,0.14422 0.91473,0.21359 0.44084,0.0713 0.72273,-0.007 0.3087,-0.0772 0.52144,-0.33281 0.21896,-0.25372 0.35944,-0.72136 0.14422,-0.4801 0.0646,-1.07503 -0.0796,-0.59493 -0.30326,-1.18554 l -5.20012,-1.56207 0.35212,-1.17221 9.70191,2.91436 -0.35212,1.17221 -3.5104,-1.05449 q 0.29035,0.68542 0.36993,1.34832 0.0796,0.6629 -0.10585,1.28018 -0.33901,1.12856 -1.19657,1.51675 -0.85757,0.38819 -2.13578,0.004 z"
       id="path44222" /><path
       d="m 442.81485,393.05284 0.49576,-1.2881 1.1848,0.45601 -0.49576,1.28809 z m -7.89494,-3.1223 0.43964,-1.14227 6.7868,2.61209 -0.43964,1.14227 z"
       id="path44224" /><path
       d="m 437.54203,398.7627 0.0269,-0.0593 q 0.17232,-0.22206 0.3037,-0.44841 0.13462,-0.21773 0.27997,-0.53783 0.23417,-0.51573 0.22101,-1.10087 -0.007,-0.58244 -0.16696,-1.19123 l -4.70084,-2.1345 0.50604,-1.11445 6.62148,3.0066 -0.50604,1.11445 -0.9781,-0.44412 q 0.23204,0.90617 0.22258,1.50964 -0.006,0.61208 -0.24578,1.13967 -0.13189,0.29047 -0.20889,0.4128 -0.0711,0.12504 -0.231,0.36702 z"
       id="path44226" /><path
       d="m 428.71113,402.47387 0.60237,-1.06546 0.66308,0.37489 q -0.13717,-0.68335 -0.0762,-1.30704 0.0609,-0.62368 0.39097,-1.20742 0.64083,-1.13347 1.89169,-1.30878 1.24765,-0.16964 2.79484,0.7051 0.80476,0.45498 1.30567,1.03734 0.4977,0.58802 0.71867,1.22899 0.21284,0.62889 0.15116,1.26712 -0.0649,0.64389 -0.37569,1.19363 -0.28196,0.49872 -0.60752,0.82322 -0.3199,0.32771 -0.78124,0.6278 l 2.743,1.5508 -0.60238,1.06546 z m 2.16089,-0.18432 3.63277,2.05386 q 0.4362,-0.32178 0.70213,-0.62016 0.26592,-0.29839 0.49342,-0.70077 0.50625,-0.89544 0.16481,-1.74662 -0.34144,-0.85119 -1.48625,-1.49842 -1.1278,-0.63763 -1.93508,-0.58548 -0.80162,0.0554 -1.28224,0.90545 -0.25633,0.45339 -0.32072,1.03026 -0.0587,0.58007 0.0312,1.16188 z"
       id="path44228" /><path
       d="m 423.66634,415.45292 q -1.38527,-1.11353 -1.61597,-2.46839 -0.23069,-1.35485 0.72784,-2.54731 0.96669,-1.2026 2.33947,-1.26854 1.36869,-0.0609 2.75397,1.05267 1.38527,1.11353 1.62005,2.46331 0.23577,1.35893 -0.73092,2.56154 -0.95853,1.19245 -2.33638,1.25431 -1.37278,0.0659 -2.75806,-1.04759 z m 0.7913,-0.98441 q 1.10112,0.88511 1.98062,0.88208 0.88458,10e-4 1.50049,-0.76517 0.62406,-0.77636 0.43289,-1.64003 -0.19017,-0.85452 -1.29129,-1.73963 -1.0656,-0.85657 -1.9654,-0.86985 -0.89472,-0.009 -1.51471,0.76209 -0.61182,0.76114 -0.41558,1.62889 0.19724,0.8769 1.27298,1.74162 z"
       id="path44230" /><path
       d="m 415.27641,418.901 0.86146,-0.86945 2.94133,2.91432 q 0.35611,0.35283 0.70721,0.61822 0.35572,0.26997 0.64143,0.33311 0.3088,0.0768 0.61666,-0.0489 0.31248,-0.12114 0.65615,-0.46799 0.35284,-0.35611 0.56201,-0.91871 0.20917,-0.56261 0.28914,-1.18906 l -3.85702,-3.82161 0.86146,-0.86945 5.16583,5.11839 -0.86147,0.86945 -0.57346,-0.5682 q -0.0656,0.74148 -0.30676,1.36408 -0.24111,0.62259 -0.69476,1.08044 -0.82939,0.83708 -1.7688,0.77696 -0.93941,-0.0601 -1.88748,-0.99948 z"
       id="path44232" /><path
       d="m 411.04406,427.05466 4.14034,-3.40094 q -0.42563,-0.51817 -0.89978,-0.77744 -0.47001,-0.25423 -0.94416,-0.27759 -0.45996,-0.0266 -0.91632,0.14606 -0.46139,0.17679 -0.89404,0.53217 -0.57351,0.47109 -0.9661,1.1727 -0.39348,0.71077 -0.45817,1.13461 l -0.0503,0.0413 -0.84714,-1.03132 q 0.31263,-0.5938 0.69911,-1.13874 0.38647,-0.54493 0.93483,-0.99536 1.39856,-1.1488 2.80322,-1.03883 1.40879,0.115 2.55345,1.50853 1.13227,1.37844 1.04799,2.80412 -0.0893,1.42981 -1.31682,2.43811 -1.13696,0.93391 -2.29619,0.774 -1.16426,-0.15579 -2.16842,-1.37827 z m 1.51569,-0.0318 q 0.61662,0.74042 1.32362,0.84212 0.70197,0.10584 1.45659,-0.51402 0.75965,-0.62399 0.84464,-1.44364 0.08,-0.81552 -0.40514,-1.52917 z"
       id="path44234" /><path
       d="m 398.68742,427.74065 1.27718,-0.76913 q 1.66896,0.5377 3.02159,1.54708 1.35263,1.00939 2.36357,2.68812 1.01094,1.67874 1.27044,3.34641 0.2595,1.66767 -0.0459,3.39431 l -1.27717,0.76912 -0.0336,-0.0558 q 0.20658,-0.67918 0.29686,-1.46313 0.0881,-0.77501 0.0129,-1.69491 -0.0785,-0.88751 -0.36362,-1.84056 -0.29071,-0.94969 -0.84153,-1.86435 -0.57432,-0.9537 -1.25202,-1.62475 -0.68328,-0.6677 -1.45896,-1.17334 -0.74774,-0.48448 -1.50969,-0.77801 -0.7653,-0.29911 -1.42649,-0.42532 z"
       id="path44236" /><path
       d="m 392.42497,433.90324 5.905,-2.86306 0.59363,1.22435 q -0.35947,0.82547 -0.71895,1.65094 -0.36533,0.82831 -0.64563,1.60815 -0.59646,1.63496 -0.70279,2.47516 -0.10349,0.84606 0.25723,1.59004 0.32948,0.67955 0.96518,0.84162 0.63268,0.17077 1.43524,-0.21835 0.53309,-0.25847 1.06317,-0.74701 0.53007,-0.48854 0.93428,-1.16205 l 0.0586,-0.0284 0.59647,1.23021 q -0.31652,0.4067 -0.92541,0.91174 -0.61475,0.50789 -1.265,0.82317 -1.34151,0.65043 -2.41835,0.36942 -1.07399,-0.27515 -1.61082,-1.38234 -0.24143,-0.49794 -0.32273,-0.99393 -0.0843,-0.48729 -0.0258,-0.99322 0.0524,-0.47398 0.19243,-0.97601 0.13421,-0.49918 0.36622,-1.13985 0.32859,-0.91902 0.71522,-1.82278 0.38948,-0.89789 0.73084,-1.67117 l -4.69237,2.27511 z"
       id="path44238" /><path
       d="m 388.37116,439.43791 q -0.69153,-1.83356 -0.64594,-3.52068 0.0456,-1.68712 0.65741,-3.33035 l 1.39496,-0.52612 0.023,0.0609 q -0.31053,0.59722 -0.54983,1.38328 -0.2477,0.78226 -0.32452,1.66707 -0.0836,0.92216 0.0233,1.86987 0.10085,0.95001 0.49371,1.99166 0.37679,0.99902 0.94219,1.81556 0.56541,0.81655 1.21958,1.42567 0.67555,0.62888 1.34458,1.03757 0.66524,0.41708 1.32637,0.67567 l 0.023,0.0609 -1.39496,0.52612 q -1.54459,-0.82994 -2.69295,-2.06676 -1.14836,-1.23683 -1.83989,-3.07039 z"
       id="path44240" /></g></g></svg>
