<?xml version="1.0" encoding="UTF-8" standalone="no"?>
<!-- Generator: Adobe Illustrator 20.0.0, SVG Export Plug-In . SVG Version: 6.00 Build 0)  -->

<svg
   version="1.1"
   id="svg2"
   x="0px"
   y="0px"
   viewBox="0 0 721.6 721.6"
   style="enable-background:new 0 0 721.6 721.6;"
   xml:space="preserve"
   sodipodi:docname="red10.svg"
   inkscape:version="1.1 (c68e22c387, 2021-05-23)"
   xmlns:inkscape="http://www.inkscape.org/namespaces/inkscape"
   xmlns:sodipodi="http://sodipodi.sourceforge.net/DTD/sodipodi-0.dtd"
   xmlns="http://www.w3.org/2000/svg"
   xmlns:svg="http://www.w3.org/2000/svg"><defs
   id="defs1626"><inkscape:path-effect
     effect="bspline"
     id="path-effect11541"
     is_visible="true"
     lpeversion="1"
     weight="33.333333"
     steps="2"
     helper_size="0"
     apply_no_weight="true"
     apply_with_weight="true"
     only_selected="false" /><inkscape:path-effect
     effect="fill_between_many"
     method="originald"
     linkedpaths="#g12224,0,1"
     id="path-effect12573" /></defs><sodipodi:namedview
   id="namedview1624"
   pagecolor="#ffffff"
   bordercolor="#666666"
   borderopacity="1.0"
   inkscape:pageshadow="2"
   inkscape:pageopacity="0.0"
   inkscape:pagecheckerboard="0"
   showgrid="false"
   showguides="false"
   inkscape:zoom="0.76727357"
   inkscape:cx="458.76727"
   inkscape:cy="443.77913"
   inkscape:window-width="1920"
   inkscape:window-height="1001"
   inkscape:window-x="-9"
   inkscape:window-y="-9"
   inkscape:window-maximized="1"
   inkscape:current-layer="layer1" />
<style
   type="text/css"
   id="style1226">
	
		.st0{opacity:0.9895;fill:url(#path3302_3_);stroke:#5A5A59;stroke-width:0.9965;stroke-linecap:round;stroke-linejoin:round;enable-background:new    ;}
	
		.st1{opacity:0.9895;fill:url(#path3304_3_);stroke:#5A5A59;stroke-width:0.9965;stroke-linecap:round;stroke-linejoin:round;enable-background:new    ;}
	
		.st2{opacity:0.9895;fill:url(#path3306_3_);stroke:#5A5A59;stroke-width:0.9965;stroke-linecap:round;stroke-linejoin:round;enable-background:new    ;}
	
		.st3{opacity:0.9895;fill:url(#path3310_3_);stroke:#5A5A59;stroke-width:0.9965;stroke-linecap:round;stroke-linejoin:round;enable-background:new    ;}
	
		.st4{opacity:0.9895;fill:url(#path3312_3_);stroke:#5A5A59;stroke-width:0.9965;stroke-linecap:round;stroke-linejoin:round;enable-background:new    ;}
	
		.st5{opacity:0.9895;fill:url(#path3314_3_);stroke:#5A5A59;stroke-width:0.9965;stroke-linecap:round;stroke-linejoin:round;enable-background:new    ;}
	
		.st6{opacity:0.9895;fill:url(#path3316_3_);stroke:#5A5A59;stroke-width:0.9965;stroke-linecap:round;stroke-linejoin:round;enable-background:new    ;}
	
		.st7{opacity:0.9895;fill:url(#path3318_3_);stroke:#5A5A59;stroke-width:0.9965;stroke-linecap:round;stroke-linejoin:round;enable-background:new    ;}
	
		.st8{opacity:0.9895;fill:url(#path3320_3_);stroke:#5A5A59;stroke-width:0.9965;stroke-linecap:round;stroke-linejoin:round;enable-background:new    ;}
	
		.st9{opacity:0.9895;fill:url(#path3322_3_);stroke:#5A5A59;stroke-width:0.9965;stroke-linecap:round;stroke-linejoin:round;enable-background:new    ;}
	
		.st10{opacity:0.9895;fill:url(#path3308_3_);stroke:#5A5A59;stroke-width:0.9965;stroke-linecap:round;stroke-linejoin:round;enable-background:new    ;}
	
		.st11{opacity:0.9895;fill:url(#path3324_3_);stroke:#5A5A59;stroke-width:0.9965;stroke-linecap:round;stroke-linejoin:round;enable-background:new    ;}
	
		.st12{opacity:0.9895;fill:url(#path3326_3_);stroke:#5A5A59;stroke-width:0.9965;stroke-linecap:round;stroke-linejoin:round;enable-background:new    ;}
	
		.st13{opacity:0.9895;fill:url(#path3328_3_);stroke:#5A5A59;stroke-width:0.9965;stroke-linecap:round;stroke-linejoin:round;enable-background:new    ;}
	
		.st14{opacity:0.9895;fill:url(#path3330_3_);stroke:#5A5A59;stroke-width:0.9965;stroke-linecap:round;stroke-linejoin:round;enable-background:new    ;}
	
		.st15{opacity:0.9895;fill:url(#path3332_3_);stroke:#5A5A59;stroke-width:0.9965;stroke-linecap:round;stroke-linejoin:round;enable-background:new    ;}
	
		.st16{opacity:0.9895;fill:url(#path3334_3_);stroke:#5A5A59;stroke-width:0.9965;stroke-linecap:round;stroke-linejoin:round;enable-background:new    ;}
	
		.st17{opacity:0.9895;fill:url(#path3336_3_);stroke:#5A5A59;stroke-width:0.9965;stroke-linecap:round;stroke-linejoin:round;enable-background:new    ;}
	
		.st18{opacity:0.9895;fill:url(#path3338_3_);stroke:#5A5A59;stroke-width:0.9965;stroke-linecap:round;stroke-linejoin:round;enable-background:new    ;}
	
		.st19{opacity:0.9895;fill:url(#path3340_3_);stroke:#5A5A59;stroke-width:0.9965;stroke-linecap:round;stroke-linejoin:round;enable-background:new    ;}
	.st20{opacity:0.9895;enable-background:new    ;}
	
		.st21{opacity:0.9895;fill:url(#path3302_5_);stroke:#5A5A59;stroke-width:0.9965;stroke-linecap:round;stroke-linejoin:round;enable-background:new    ;}
	
		.st22{opacity:0.9895;fill:url(#path3304_5_);stroke:#5A5A59;stroke-width:0.9965;stroke-linecap:round;stroke-linejoin:round;enable-background:new    ;}
	
		.st23{opacity:0.9895;fill:url(#path3306_5_);stroke:#5A5A59;stroke-width:0.9965;stroke-linecap:round;stroke-linejoin:round;enable-background:new    ;}
	
		.st24{opacity:0.9895;fill:url(#path3310_5_);stroke:#5A5A59;stroke-width:0.9965;stroke-linecap:round;stroke-linejoin:round;enable-background:new    ;}
	
		.st25{opacity:0.9895;fill:url(#path3312_5_);stroke:#5A5A59;stroke-width:0.9965;stroke-linecap:round;stroke-linejoin:round;enable-background:new    ;}
	
		.st26{opacity:0.9895;fill:url(#path3314_5_);stroke:#5A5A59;stroke-width:0.9965;stroke-linecap:round;stroke-linejoin:round;enable-background:new    ;}
	
		.st27{opacity:0.9895;fill:url(#path3316_5_);stroke:#5A5A59;stroke-width:0.9965;stroke-linecap:round;stroke-linejoin:round;enable-background:new    ;}
	
		.st28{opacity:0.9895;fill:url(#path3318_5_);stroke:#5A5A59;stroke-width:0.9965;stroke-linecap:round;stroke-linejoin:round;enable-background:new    ;}
	
		.st29{opacity:0.9895;fill:url(#path3320_5_);stroke:#5A5A59;stroke-width:0.9965;stroke-linecap:round;stroke-linejoin:round;enable-background:new    ;}
	
		.st30{opacity:0.9895;fill:url(#path3322_5_);stroke:#5A5A59;stroke-width:0.9965;stroke-linecap:round;stroke-linejoin:round;enable-background:new    ;}
	
		.st31{opacity:0.9895;fill:url(#path3308_5_);stroke:#5A5A59;stroke-width:0.9965;stroke-linecap:round;stroke-linejoin:round;enable-background:new    ;}
	
		.st32{opacity:0.9895;fill:url(#path3324_5_);stroke:#5A5A59;stroke-width:0.9965;stroke-linecap:round;stroke-linejoin:round;enable-background:new    ;}
	
		.st33{opacity:0.9895;fill:url(#path3326_5_);stroke:#5A5A59;stroke-width:0.9965;stroke-linecap:round;stroke-linejoin:round;enable-background:new    ;}
	
		.st34{opacity:0.9895;fill:url(#path3328_5_);stroke:#5A5A59;stroke-width:0.9965;stroke-linecap:round;stroke-linejoin:round;enable-background:new    ;}
	
		.st35{opacity:0.9895;fill:url(#path3330_5_);stroke:#5A5A59;stroke-width:0.9965;stroke-linecap:round;stroke-linejoin:round;enable-background:new    ;}
	
		.st36{opacity:0.9895;fill:url(#path3332_5_);stroke:#5A5A59;stroke-width:0.9965;stroke-linecap:round;stroke-linejoin:round;enable-background:new    ;}
	
		.st37{opacity:0.9895;fill:url(#path3334_5_);stroke:#5A5A59;stroke-width:0.9965;stroke-linecap:round;stroke-linejoin:round;enable-background:new    ;}
	
		.st38{opacity:0.9895;fill:url(#path3336_5_);stroke:#5A5A59;stroke-width:0.9965;stroke-linecap:round;stroke-linejoin:round;enable-background:new    ;}
	
		.st39{opacity:0.9895;fill:url(#path3338_5_);stroke:#5A5A59;stroke-width:0.9965;stroke-linecap:round;stroke-linejoin:round;enable-background:new    ;}
	
		.st40{opacity:0.9895;fill:url(#path3340_5_);stroke:#5A5A59;stroke-width:0.9965;stroke-linecap:round;stroke-linejoin:round;enable-background:new    ;}
	
		.st41{opacity:0.9895;fill:url(#path3302_6_);stroke:#5A5A59;stroke-width:0.9965;stroke-linecap:round;stroke-linejoin:round;enable-background:new    ;}
	
		.st42{opacity:0.9895;fill:url(#path3304_6_);stroke:#5A5A59;stroke-width:0.9965;stroke-linecap:round;stroke-linejoin:round;enable-background:new    ;}
	
		.st43{opacity:0.9895;fill:url(#path3306_6_);stroke:#5A5A59;stroke-width:0.9965;stroke-linecap:round;stroke-linejoin:round;enable-background:new    ;}
	
		.st44{opacity:0.9895;fill:url(#path3310_6_);stroke:#5A5A59;stroke-width:0.9965;stroke-linecap:round;stroke-linejoin:round;enable-background:new    ;}
	
		.st45{opacity:0.9895;fill:url(#path3312_6_);stroke:#5A5A59;stroke-width:0.9965;stroke-linecap:round;stroke-linejoin:round;enable-background:new    ;}
	
		.st46{opacity:0.9895;fill:url(#path3314_6_);stroke:#5A5A59;stroke-width:0.9965;stroke-linecap:round;stroke-linejoin:round;enable-background:new    ;}
	
		.st47{opacity:0.9895;fill:url(#path3316_6_);stroke:#5A5A59;stroke-width:0.9965;stroke-linecap:round;stroke-linejoin:round;enable-background:new    ;}
	
		.st48{opacity:0.9895;fill:url(#path3318_6_);stroke:#5A5A59;stroke-width:0.9965;stroke-linecap:round;stroke-linejoin:round;enable-background:new    ;}
	
		.st49{opacity:0.9895;fill:url(#path3320_6_);stroke:#5A5A59;stroke-width:0.9965;stroke-linecap:round;stroke-linejoin:round;enable-background:new    ;}
	
		.st50{opacity:0.9895;fill:url(#path3322_6_);stroke:#5A5A59;stroke-width:0.9965;stroke-linecap:round;stroke-linejoin:round;enable-background:new    ;}
	
		.st51{opacity:0.9895;fill:url(#path3308_6_);stroke:#5A5A59;stroke-width:0.9965;stroke-linecap:round;stroke-linejoin:round;enable-background:new    ;}
	
		.st52{opacity:0.9895;fill:url(#path3324_6_);stroke:#5A5A59;stroke-width:0.9965;stroke-linecap:round;stroke-linejoin:round;enable-background:new    ;}
	
		.st53{opacity:0.9895;fill:url(#path3326_6_);stroke:#5A5A59;stroke-width:0.9965;stroke-linecap:round;stroke-linejoin:round;enable-background:new    ;}
	
		.st54{opacity:0.9895;fill:url(#path3328_6_);stroke:#5A5A59;stroke-width:0.9965;stroke-linecap:round;stroke-linejoin:round;enable-background:new    ;}
	
		.st55{opacity:0.9895;fill:url(#path3330_6_);stroke:#5A5A59;stroke-width:0.9965;stroke-linecap:round;stroke-linejoin:round;enable-background:new    ;}
	
		.st56{opacity:0.9895;fill:url(#path3332_6_);stroke:#5A5A59;stroke-width:0.9965;stroke-linecap:round;stroke-linejoin:round;enable-background:new    ;}
	
		.st57{opacity:0.9895;fill:url(#path3334_6_);stroke:#5A5A59;stroke-width:0.9965;stroke-linecap:round;stroke-linejoin:round;enable-background:new    ;}
	
		.st58{opacity:0.9895;fill:url(#path3336_6_);stroke:#5A5A59;stroke-width:0.9965;stroke-linecap:round;stroke-linejoin:round;enable-background:new    ;}
	
		.st59{opacity:0.9895;fill:url(#path3338_6_);stroke:#5A5A59;stroke-width:0.9965;stroke-linecap:round;stroke-linejoin:round;enable-background:new    ;}
	
		.st60{opacity:0.9895;fill:url(#path3340_6_);stroke:#5A5A59;stroke-width:0.9965;stroke-linecap:round;stroke-linejoin:round;enable-background:new    ;}
	.st61{fill:#004C99;stroke:#5A5A59;stroke-width:0.9965;stroke-linecap:round;stroke-linejoin:round;}
	.st62{opacity:0.3;}
</style>





<g
   inkscape:groupmode="layer"
   id="layer1"
   inkscape:label="red"
   style="display:inline"><g
     id="g1352">
	<g
   id="g1288">
		<linearGradient
   id="path3302_3_"
   gradientUnits="userSpaceOnUse"
   x1="261.125"
   y1="263.52499"
   x2="469.875"
   y2="54.775002">
			<stop
   offset="0.3254"
   style="stop-color:#E63329"
   id="stop1228" />
			<stop
   offset="0.6124"
   style="stop-color:#B92D1F"
   id="stop1230" />
		</linearGradient>
		<path
   id="path3302_4_"
   class="st0"
   d="m 320.7,8.6 c 48.9,-18 67.6,15.3 109.7,6.7 l -71.6,345.9 z" />
		<linearGradient
   id="path3304_3_"
   gradientUnits="userSpaceOnUse"
   x1="334.72501"
   y1="332.22491"
   x2="585.56543"
   y2="81.384598">
			<stop
   offset="0.3254"
   style="stop-color:#E63329"
   id="stop1234" />
			<stop
   offset="0.6124"
   style="stop-color:#B92D1F"
   id="stop1236" />
		</linearGradient>
		<path
   id="path3304_4_"
   class="st1"
   d="m 538.9,49.8 c 50.3,13.9 46.1,53.5 85.4,71.1 l -262.9,238 z" />
		<linearGradient
   id="path3306_3_"
   gradientUnits="userSpaceOnUse"
   x1="439.5"
   y1="437.70001"
   x2="673.79999"
   y2="203.39999">
			<stop
   offset="0.3254"
   style="stop-color:#E63329"
   id="stop1240" />
			<stop
   offset="0.6124"
   style="stop-color:#B92D1F"
   id="stop1242" />
		</linearGradient>
		<path
   id="path3306_4_"
   class="st2"
   d="m 684.4,214 c 32.4,40.6 8.8,68.9 30,105.8 L 361,359.2 Z" />
		<linearGradient
   id="path3310_3_"
   gradientUnits="userSpaceOnUse"
   x1="481.39999"
   y1="480.10001"
   x2="620.15002"
   y2="341.35001">
			<stop
   offset="0.3254"
   style="stop-color:#E63329"
   id="stop1246" />
			<stop
   offset="0.6124"
   style="stop-color:#B92D1F"
   id="stop1248" />
		</linearGradient>
		<path
   id="path3310_4_"
   class="st3"
   d="m 709.1,430.3 c 2.2,51.8 -34.7,61 -39.5,103.4 L 360.5,359.2 Z" />
		<linearGradient
   id="path3312_3_"
   gradientUnits="userSpaceOnUse"
   x1="398.09509"
   y1="571.79498"
   x2="485.49509"
   y2="484.39499">
			<stop
   offset="0.3254"
   style="stop-color:#E63329"
   id="stop1252" />
			<stop
   offset="0.6124"
   style="stop-color:#B92D1F"
   id="stop1254" />
		</linearGradient>
		<path
   id="path3312_4_"
   class="st4"
   d="m 599.2,619 c -28.9,43.2 -63.5,30.1 -92.4,61.5 L 360,358.9 Z" />
		<linearGradient
   id="path3314_3_"
   gradientUnits="userSpaceOnUse"
   x1="249.675"
   y1="665.67499"
   x2="458.42499"
   y2="456.92499">
			<stop
   offset="0.3254"
   style="stop-color:#E63329"
   id="stop1258" />
			<stop
   offset="0.6124"
   style="stop-color:#B92D1F"
   id="stop1260" />
		</linearGradient>
		<path
   id="path3314_4_"
   class="st5"
   d="m 399.1,713.3 c -48.9,18 -68.8,-17.6 -110.8,-9 l 71.6,-345.9 z" />
		<linearGradient
   id="path3316_3_"
   gradientUnits="userSpaceOnUse"
   x1="135.493"
   y1="635.80701"
   x2="386.75"
   y2="384.54999">
			<stop
   offset="0.3254"
   style="stop-color:#E63329"
   id="stop1264" />
			<stop
   offset="0.6124"
   style="stop-color:#B92D1F"
   id="stop1266" />
		</linearGradient>
		<path
   id="path3316_4_"
   class="st6"
   d="M 181.9,667.4 C 131.6,653.5 136.5,613.5 97.4,595.9 l 262.7,-238 z" />
		<linearGradient
   id="path3318_3_"
   gradientUnits="userSpaceOnUse"
   x1="48.525002"
   y1="512.52502"
   x2="282.02499"
   y2="279.0249">
			<stop
   offset="0.3254"
   style="stop-color:#E63329"
   id="stop1270" />
			<stop
   offset="0.6124"
   style="stop-color:#B92D1F"
   id="stop1272" />
		</linearGradient>
		<path
   id="path3318_4_"
   class="st7"
   d="M 38.1,502.1 C 5.7,461.5 28.3,433.9 7.1,396.8 l 353.5,-39.2 z" />
		<linearGradient
   id="path3320_3_"
   gradientUnits="userSpaceOnUse"
   x1="101.275"
   y1="375.375"
   x2="240.075"
   y2="236.575">
			<stop
   offset="0.3254"
   style="stop-color:#E63329"
   id="stop1276" />
			<stop
   offset="0.6124"
   style="stop-color:#B92D1F"
   id="stop1278" />
		</linearGradient>
		<path
   id="path3320_4_"
   class="st8"
   d="M 13.2,287.3 C 11,235.5 47.1,225.4 51.8,183 L 361,357.5 Z" />
		<linearGradient
   id="path3322_3_"
   gradientUnits="userSpaceOnUse"
   x1="235.16949"
   y1="231.36951"
   x2="322.5195"
   y2="144.0195">
			<stop
   offset="0.3254"
   style="stop-color:#E63329"
   id="stop1282" />
			<stop
   offset="0.6124"
   style="stop-color:#B92D1F"
   id="stop1284" />
		</linearGradient>
		<path
   id="path3322_4_"
   class="st9"
   d="M 119.9,96.5 C 148.8,53.3 185.7,67.7 214.6,36.1 L 361.5,357.7 Z" />
	</g>
	<g
   id="g1350">
		<linearGradient
   id="path3308_3_"
   gradientUnits="userSpaceOnUse"
   x1="399.625"
   y1="398.625"
   x2="651.23077"
   y2="147.0192">
			<stop
   offset="0.3254"
   style="stop-color:#E63329"
   id="stop1290" />
			<stop
   offset="0.6124"
   style="stop-color:#B92D1F"
   id="stop1292" />
		</linearGradient>
		<path
   id="path3308_4_"
   class="st10"
   d="m 599.4,98 c 43.5,28.7 53.7,87.5 85.5,116.2 L 361.1,360.1 Z" />
		<linearGradient
   id="path3324_3_"
   gradientUnits="userSpaceOnUse"
   x1="240.35001"
   y1="238.35001"
   x2="396.10001"
   y2="82.599998">
			<stop
   offset="0.3254"
   style="stop-color:#E63329"
   id="stop1296" />
			<stop
   offset="0.6124"
   style="stop-color:#B92D1F"
   id="stop1298" />
		</linearGradient>
		<path
   id="path3324_4_"
   class="st11"
   d="M 184,53 C 224.9,20.9 284.5,29.3 321.7,8.2 l 39.5,351 z" />
		<linearGradient
   id="path3326_3_"
   gradientUnits="userSpaceOnUse"
   x1="282.97501"
   y1="281.375"
   x2="524.32501"
   y2="40.025002">
			<stop
   offset="0.3254"
   style="stop-color:#E63329"
   id="stop1302" />
			<stop
   offset="0.6124"
   style="stop-color:#B92D1F"
   id="stop1304" />
		</linearGradient>
		<path
   id="path3326_4_"
   class="st12"
   d="m 399.1,8.6 c 52.2,-2.2 95.3,39.5 138,44.2 L 361.3,359.7 Z" />
		<linearGradient
   id="path3328_3_"
   gradientUnits="userSpaceOnUse"
   x1="465.27499"
   y1="465.17499"
   x2="675.97498"
   y2="254.47501">
			<stop
   offset="0.3254"
   style="stop-color:#E63329"
   id="stop1308" />
			<stop
   offset="0.6124"
   style="stop-color:#B92D1F"
   id="stop1310" />
		</linearGradient>
		<path
   id="path3328_4_"
   class="st13"
   d="m 709.1,287.6 c 18.2,48.5 -9,102 -0.3,143.8 L 360.4,360.3 Z" />
		<linearGradient
   id="path3330_3_"
   gradientUnits="userSpaceOnUse"
   x1="474.5"
   y1="495.79999"
   x2="575.29999"
   y2="395">
			<stop
   offset="0.3254"
   style="stop-color:#E63329"
   id="stop1314" />
			<stop
   offset="0.6124"
   style="stop-color:#B92D1F"
   id="stop1316" />
		</linearGradient>
		<path
   id="path3330_4_"
   class="st14"
   d="m 684.6,504.3 c -14,49.9 -67.2,77.8 -85,116.6 L 360,360.1 Z" />
		<linearGradient
   id="path3332_3_"
   gradientUnits="userSpaceOnUse"
   x1="324.85001"
   y1="636.15002"
   x2="480.5"
   y2="480.5">
			<stop
   offset="0.3254"
   style="stop-color:#E63329"
   id="stop1320" />
			<stop
   offset="0.6124"
   style="stop-color:#B92D1F"
   id="stop1322" />
		</linearGradient>
		<path
   id="path3332_4_"
   class="st15"
   d="m 537,665.8 c -40.9,32.1 -100.5,23.7 -137.7,44.8 l -39.7,-351 z" />
		<linearGradient
   id="path3334_3_"
   gradientUnits="userSpaceOnUse"
   x1="196.72501"
   y1="678.72498"
   x2="438.07501"
   y2="437.375">
			<stop
   offset="0.3254"
   style="stop-color:#E63329"
   id="stop1326" />
			<stop
   offset="0.6124"
   style="stop-color:#B92D1F"
   id="stop1328" />
		</linearGradient>
		<path
   id="path3334_4_"
   class="st16"
   d="M 322,710.2 C 269.8,712.4 226.7,670.7 184,666 L 359.7,359 Z" />
		<linearGradient
   id="path3336_3_"
   gradientUnits="userSpaceOnUse"
   x1="69.769203"
   y1="571.68073"
   x2="321.42499"
   y2="320.02499">
			<stop
   offset="0.3254"
   style="stop-color:#E63329"
   id="stop1332" />
			<stop
   offset="0.6124"
   style="stop-color:#B92D1F"
   id="stop1334" />
		</linearGradient>
		<path
   id="path3336_4_"
   class="st17"
   d="M 121.6,620.7 C 78.1,592 67.9,533.2 36.1,504.5 L 360,358.6 Z" />
		<linearGradient
   id="path3338_3_"
   gradientUnits="userSpaceOnUse"
   x1="45.275002"
   y1="463.97501"
   x2="255.72501"
   y2="253.52499">
			<stop
   offset="0.3254"
   style="stop-color:#E63329"
   id="stop1338" />
			<stop
   offset="0.6124"
   style="stop-color:#B92D1F"
   id="stop1340" />
		</linearGradient>
		<path
   id="path3338_4_"
   class="st18"
   d="M 12.6,431.3 C -5.6,382.8 21,329 12.2,287.3 l 348.4,71.1 z" />
		<linearGradient
   id="path3340_3_"
   gradientUnits="userSpaceOnUse"
   x1="145.75"
   y1="323.85001"
   x2="246.55"
   y2="223.05">
			<stop
   offset="0.3254"
   style="stop-color:#E63329"
   id="stop1344" />
			<stop
   offset="0.6124"
   style="stop-color:#B92D1F"
   id="stop1346" />
		</linearGradient>
		<path
   id="path3340_4_"
   class="st19"
   d="m 36.4,214.5 c 14,-49.9 67.2,-77.8 85,-116.6 l 239.7,260.9 z" />
	</g>
</g><g
     aria-label="10. Birthplace of the first national leader "
     id="text94680"
     style="font-size:56px;line-height:1.25;-inkscape-font-specification:'sans-serif, Normal'"><path
       d="m 135.4268,490.77329 11.9629,18.50971 -3.49066,2.25603 -4.60112,-7.11912 -22.91896,14.81263 4.60112,7.11912 -3.12323,2.01856 q -0.93506,-1.44679 -2.23336,-2.95184 -1.32126,-1.49021 -2.32972,-2.04306 -1.25687,-0.68533 -2.51544,-0.71841 -1.29637,-0.0412 -2.84846,0.83169 l -2.30056,-3.55956 30.81889,-19.91839 -4.51207,-6.98132 z"
       id="path106296" /><path
       d="m 100.16324,465.48379 q 9.92724,-4.65593 16.04437,-3.71948 6.08076,0.92331 9.14601,7.45895 3.11169,6.63466 -0.15225,11.91048 -3.27555,5.25107 -13.0295,9.82572 -9.82821,4.60949 -15.958488,3.7094 -6.15503,-0.88847 -9.231891,-7.44887 -3.111693,-6.63466 0.238128,-11.92056 3.313455,-5.29905 12.943621,-9.81564 z m 14.29296,1.23958 q -2.41163,0.074 -5.24939,1.04251 -2.87412,0.95535 -6.68658,2.74342 -3.762942,1.76484 -6.384698,3.38708 -2.633366,1.59748 -4.146362,3.39435 -1.499851,1.7605 -1.757085,3.72345 -0.268844,1.93819 0.834182,4.29003 1.091414,2.32708 2.776776,3.40915 1.673751,1.05731 4.04748,1.03128 2.226727,-0.0175 5.323657,-1.07734 3.08532,-1.08462 6.6007,-2.73335 3.86197,-1.81128 6.33365,-3.30273 2.47169,-1.49146 4.10846,-3.34638 1.54783,-1.72259 1.86619,-3.68401 0.30675,-1.98617 -0.85433,-4.46179 -1.09142,-2.32709 -2.77678,-3.40915 -1.68536,-1.08206 -4.03587,-1.00652 z"
       id="path106298" /><path
       d="m 113.03116,440.5922 2.12514,6.17997 -7.36943,2.53416 -2.12513,-6.17997 z"
       id="path106300" /><path
       d="m 87.785091,381.02719 q 3.004331,-0.43148 5.468205,0.37489 2.463875,0.80636 4.228496,2.51426 2.112882,2.01699 3.263338,4.64182 1.14656,2.59776 1.74908,6.793 l 2.05242,14.29087 -40.301333,5.788 -1.714243,-11.93613 q -0.633609,-4.41176 -0.623677,-6.65076 0.0099,-2.23899 0.75079,-4.38959 0.845092,-2.38656 2.541757,-3.65234 1.6696,-1.26188 4.213808,-1.62727 2.869,-0.41204 5.10886,0.75798 2.212795,1.17392 3.780612,3.43494 l 0.216528,-0.0311 q 0.252084,-4.20747 2.674637,-6.95871 2.395486,-2.74735 6.590722,-3.34986 z m -16.866885,11.62128 q -1.461566,0.20991 -2.393041,0.84092 -0.931474,0.63102 -1.398506,1.80307 -0.548086,1.37705 -0.450042,3.2138 0.07098,1.84064 0.455808,4.52017 l 0.917373,6.38759 11.638398,-1.67148 -0.995116,-6.92891 q -0.361507,-2.51714 -0.818896,-3.97079 -0.484455,-1.44976 -1.479133,-2.60525 -0.994679,-1.15549 -2.340639,-1.48705 -1.376913,-0.35473 -3.136206,-0.10207 z m 17.884171,-6.07677 q -2.435944,0.34984 -3.76549,1.28665 -1.329547,0.9368 -2.055001,3.00231 -0.490067,1.39635 -0.411314,3.29112 0.0478,1.87159 0.428742,4.52406 l 1.20891,8.41754 14.994587,-2.1535 -1.018439,-7.0913 q -0.505333,-3.51858 -1.179826,-5.71453 -0.70156,-2.19206 -1.881958,-3.48662 -1.273257,-1.3641 -2.727625,-1.87346 -1.454369,-0.50936 -3.592586,-0.20227 z"
       id="path106302" /><path
       d="m 64.408786,367.81314 0.229252,5.79234 -5.32786,0.21087 -0.229252,-5.79234 z m 35.641334,-1.08225 0.2033,5.13661 -30.519077,1.20789 -0.203299,-5.1366 z"
       id="path106304" /><path
       d="m 75.625165,336.62235 -0.0097,0.27326 q -0.314178,1.13797 -0.462449,2.22713 -0.174624,1.06086 -0.227227,2.53648 -0.08475,2.3774 0.902074,4.62883 0.959498,2.25045 2.553347,4.35935 l 21.669831,0.7725 -0.183139,5.13736 -30.523581,-1.08811 0.183138,-5.13737 4.508855,0.16074 q -2.350272,-3.14823 -3.278547,-5.50702 -0.954627,-2.38709 -0.867928,-4.81913 0.04773,-1.339 0.151143,-1.93726 0.07608,-0.59923 0.31023,-1.79477 z"
       id="path106306" /><path
       d="m 102.88899,316.92581 q 0.20113,1.48537 0.23286,3.22523 0.0351,1.71272 -0.13015,3.04233 -0.57674,4.64008 -3.373324,6.7448 -2.796587,2.10472 -8.304981,1.42006 l -16.11816,-2.0034 -0.428335,3.44614 -4.287322,-0.53289 0.428335,-3.44613 -8.710319,-1.08265 0.634071,-5.10137 8.710318,1.08265 1.308614,-10.52837 4.287322,0.53289 -1.308614,10.52836 13.811689,1.71672 q 2.387876,0.29679 3.758114,0.35689 1.343103,0.0567 2.590851,-0.44949 1.159598,-0.46206 1.803325,-1.4291 0.619965,-0.99756 0.88641,-3.14122 0.155145,-1.24821 -0.02897,-2.6488 -0.211253,-1.40397 -0.381268,-2.03129 l 0.03373,-0.27135 z"
       id="path106308" /><path
       d="m 110.03846,285.9617 -1.19211,5.00049 -16.91655,-4.0329 q -2.048073,-0.48825 -3.887231,-0.67372 -1.865757,-0.1918 -3.028679,0.2056 -1.275656,0.39863 -2.105652,1.52193 -0.856593,1.11697 -1.332171,3.11184 -0.488259,2.04807 -0.01017,4.52329 0.47809,2.47522 1.559133,4.89742 l 22.183018,5.28842 -1.19211,5.00049 -41.387027,-9.86665 1.192114,-5.00049 14.974868,3.57 q -1.383668,-2.80355 -1.878144,-5.56377 -0.494475,-2.76023 0.133287,-5.39347 1.147727,-4.8143 4.649344,-6.64997 3.501618,-1.83567 8.954279,-0.53576 z"
       id="path106310" /><path
       d="m 108.14757,245.77526 q 3.46747,1.34379 5.96317,3.45468 2.47021,2.101 3.75736,4.68192 1.23458,2.41393 1.39064,5.11369 0.14045,2.66438 -0.84763,5.21399 -0.85964,2.21816 -2.0456,3.84064 -1.17609,1.59699 -2.91723,3.06297 l 11.93216,4.62423 -1.8576,4.79327 -38.983491,-15.10781 1.857598,-4.79326 2.98304,1.15606 q -0.865189,-2.5347 -1.017106,-5.32083 -0.167532,-2.82151 0.879837,-5.52409 1.995929,-5.15021 7.003482,-6.494 4.99194,-1.37917 11.90137,1.29854 z m -1.7894,4.99564 q -5.15021,-1.99593 -8.38159,-1.22478 -3.231386,0.77114 -4.644346,4.41708 -0.800348,2.06518 -0.718214,4.50169 0.08213,2.43651 0.794347,4.91192 l 16.139013,6.25457 q 1.70833,-1.68397 2.60298,-3.0088 0.90454,-1.35032 1.62584,-3.21153 1.55129,-4.00289 -0.28178,-7.29391 -1.83307,-3.29102 -7.13625,-5.34624 z"
       id="path106312" /><path
       d="m 128.85892,239.69345 -2.3157,4.58951 -37.985489,-19.1661 2.315698,-4.58951 z"
       id="path106314" /><path
       d="m 146.15686,210.54656 -2.72887,4.32422 -2.75178,-1.73655 q 0.0283,0.82618 0.11764,2.2729 0.0808,1.40901 -0.0866,2.59665 -0.15401,1.42247 -0.69732,3.05194 -0.52017,1.64406 -1.71679,3.54024 -2.20353,3.49176 -6.0482,4.46051 -3.84467,0.96875 -7.42892,-1.29315 -2.93678,-1.8533 -3.95245,-4.24025 -1.0242,-2.42467 -0.5909,-5.41689 0.44788,-3.01535 2.16468,-6.5556 1.7168,-3.54024 3.92504,-7.44935 l -0.6706,-0.4232 q -1.47995,-0.93394 -2.78681,-1.01499 -1.29226,-0.10417 -2.46014,0.51682 -1.11557,0.58933 -2.11776,1.76754 -1.0022,1.17822 -1.89237,2.58879 -1.07987,1.71119 -1.94534,4.10735 -0.88859,2.38157 -1.44851,5.16455 l -0.14593,0.23124 -4.41672,-2.78724 q 0.45575,-1.49072 1.55717,-4.15831 1.10143,-2.66759 2.57531,-5.00313 1.72196,-2.72866 3.45403,-4.4486 1.72353,-1.75767 3.74431,-2.55175 1.98307,-0.78555 4.1527,-0.48337 2.16963,0.30218 4.66704,1.87822 z m -9.08802,0.31118 -7.19163,-4.53839 q -1.13936,2.06164 -2.61549,4.9131 -1.46153,2.82834 -2.01449,4.67805 -0.65017,2.20869 -0.24673,4.07995 0.38032,1.85667 2.34587,3.09707 2.21993,1.40092 4.1994,0.77476 1.95635,-0.64074 3.6929,-3.39252 1.4447,-2.28929 1.7626,-4.74001 0.29477,-2.4653 0.0676,-4.87201 z"
       id="path106316" /><path
       d="m 164.90043,183.8955 q -0.67561,2.76842 -1.61857,5.00004 -0.92565,2.21045 -2.57081,4.22074 -2.09542,2.56047 -4.58512,4.09161 -2.51087,1.51382 -5.28131,1.79055 -2.78777,0.29788 -5.80817,-0.76061 -3.0204,-1.05849 -6.13105,-3.60416 -5.7981,-4.745 -6.50157,-10.62067 -0.68616,-5.89683 3.59126,-11.12358 1.66248,-2.03144 3.82704,-3.51068 2.18187,-1.50039 4.3406,-2.4544 l 4.42263,3.61936 -0.17318,0.21161 q -2.90708,0.65957 -5.26209,1.98294 -2.33768,1.30222 -3.84431,3.14322 -2.7708,3.38574 -2.09595,7.224 0.67101,3.79978 5.07248,7.40182 4.27451,3.49814 8.13962,3.48126 3.86127,-0.0554 6.70135,-3.52574 0.98709,-1.20617 1.69141,-2.71443 0.70432,-1.50826 1.01038,-2.91844 0.26564,-1.23126 0.40237,-2.39136 0.11557,-1.17741 0.1195,-1.91619 l 0.17318,-0.21161 z"
       id="path106318" /><path
       d="m 179.23397,151.99263 -16.26379,15.55362 q 1.94657,2.03544 4.01437,2.97122 2.04891,0.91603 4.04208,0.86381 1.93473,-0.0342 3.79138,-0.9017 1.8764,-0.88643 3.57589,-2.51172 2.25283,-2.15445 3.67497,-5.21707 1.423,-3.10128 1.55978,-4.89682 l 0.19761,-0.18899 3.87423,4.05113 q -1.1214,2.58583 -2.56753,4.99037 -1.44613,2.40453 -3.60015,4.46449 -5.49372,5.25383 -11.41133,5.23779 -5.93651,-0.0358 -11.17144,-5.50976 -5.17824,-5.41468 -5.27646,-11.4122 -0.0784,-6.01641 4.74338,-10.62769 4.46612,-4.27111 9.37166,-3.96822 4.9253,0.28399 9.51768,5.08606 z m -6.33779,0.61279 q -2.81676,-2.90582 -5.80991,-3.108 -2.97339,-0.22109 -5.93763,2.61372 -2.984,2.8537 -3.08056,6.31336 -0.0768,3.44077 2.18069,6.27608 z"
       id="path106320" /><path
       d="m 225.28685,119.19711 q 3.95318,6.33216 2.99384,12.0242 -0.95934,5.69204 -6.4101,9.09496 -5.49716,3.43188 -11.03234,1.79438 -5.51199,-1.65197 -9.46517,-7.98413 -3.95318,-6.33216 -3.01703,-12.00972 0.94486,-5.71524 6.44201,-9.14712 5.45076,-3.40292 11.00043,-1.74223 5.53518,1.6375 9.48836,7.96966 z m -4.49978,2.80922 q -3.14227,-5.03326 -6.63427,-6.23786 -3.50649,-1.2278 -7.00889,0.95876 -3.5488,2.21552 -3.98542,5.905 -0.4279,3.65181 2.71437,8.68507 3.04091,4.87089 6.59084,6.16827 3.53544,1.27419 7.06104,-0.92685 3.47921,-2.17207 3.90135,-5.88475 0.43085,-3.75036 -2.63902,-8.66764 z"
       id="path106322" /><path
       d="m 238.85574,87.724407 -0.24572,0.119961 q -0.86969,0.150734 -2.20625,0.529395 -1.34855,0.354089 -2.28228,0.809942 -2.97319,1.451533 -3.67684,3.438197 -0.69109,1.950097 0.98837,5.390149 l 0.45586,0.933729 8.32984,-4.066691 1.89539,3.882344 -8.18241,3.994717 11.50429,23.56435 -4.6195,2.25528 -11.50429,-23.56436 -3.12062,1.52351 -1.89539,-3.88234 3.12062,-1.52351 -0.44386,-0.90916 q -2.38723,-4.889788 -1.22621,-8.682016 1.14902,-3.816801 5.74395,-6.060078 1.54802,-0.755757 2.84859,-1.208133 1.32513,-0.464372 2.45312,-0.771636 z"
       id="path106324" /><path
       d="m 291.94851,108.59924 q -1.27433,0.78921 -2.8501,1.52749 -1.54961,0.7303 -2.83109,1.12145 -4.47209,1.36504 -7.53408,-0.33055 -3.06198,-1.69558 -4.68246,-7.00456 l -4.7417,-15.534633 -3.32137,1.013796 -1.26126,-4.132109 3.32138,-1.013797 -2.56244,-8.394981 4.91669,-1.500738 2.56243,8.394981 10.14721,-3.097268 1.26126,4.132109 -10.14721,3.097268 4.06317,13.311672 q 0.70247,2.30142 1.20622,3.57712 0.49576,1.24955 1.46667,2.18253 0.89467,0.87048 2.04013,1.06404 1.16364,0.15942 3.2297,-0.4712 1.20302,-0.36721 2.40687,-1.10632 1.19587,-0.76527 1.69939,-1.17626 l 0.26152,-0.0798 z"
       id="path106326" /><path
       d="m 323.14427,102.53705 -5.0531,0.94457 -3.19544,-17.094536 q -0.38687,-2.069621 -0.9654,-3.825241 -0.58355,-1.782499 -1.41955,-2.683288 -0.88297,-1.003278 -2.24673,-1.304701 -1.36879,-0.328302 -3.38465,0.04852 -2.06962,0.386868 -4.13647,1.830278 -2.06685,1.44341 -3.84004,3.416092 l 4.19024,22.416417 -5.0531,0.94456 -7.81776,-41.822472 5.0531,-0.944562 2.82866,15.132424 q 1.99851,-2.404244 4.31907,-3.978531 2.32056,-1.574287 4.9815,-2.07169 4.86495,-0.909392 7.96602,1.543026 3.10108,2.452418 4.13105,7.962448 z"
       id="path106328" /><path
       d="m 357.77081,85.392071 -22.47298,1.179375 q 0.1476,2.812536 1.10444,4.870688 0.9554,2.030845 2.50015,3.291465 1.48871,1.236179 3.46184,1.789783 2.00043,0.552171 4.34876,0.428931 3.11291,-0.163364 6.18863,-1.556939 3.1016,-1.422314 4.37655,-2.694004 l 0.27306,-0.01433 0.29377,5.597765 q -2.53677,1.228384 -5.20139,2.107515 -2.66462,0.87914 -5.64099,1.03534 -7.59111,0.39838 -12.06583,-3.473996 -4.47615,-3.899682 -4.8731,-11.463492 -0.39264,-7.481891 3.44526,-12.091705 3.86521,-4.611247 10.52792,-4.960904 6.17119,-0.323862 9.6917,3.105725 3.54782,3.428153 3.89605,10.063553 z m -5.20338,-3.669846 q -0.23939,-4.039881 -2.37613,-6.145638 -2.10942,-2.107189 -6.20535,-1.892236 -4.12323,0.216385 -6.45325,2.775607 -2.30271,2.557788 -2.44122,6.179399 z"
       id="path106330" /><path
       d="m 406.93599,66.648616 -0.27135,-0.03375 q -0.81079,-0.348851 -2.13714,-0.761837 -1.32298,-0.44012 -2.35409,-0.568388 -3.28329,-0.408434 -4.95797,0.871184 -1.64417,1.255858 -2.11674,5.054702 l -0.12827,1.031115 9.19864,1.144289 -0.53333,4.287267 -9.03582,-1.124035 -3.23709,26.022082 -5.10131,-0.63459 3.23709,-26.022083 -3.44609,-0.428686 0.53332,-4.287267 3.4461,0.428686 0.12489,-1.003981 q 0.67172,-5.399786 3.71585,-7.941881 3.0475,-2.569231 8.12167,-1.938016 1.70948,0.212656 3.04596,0.544238 1.36361,0.334957 2.47626,0.693804 z"
       id="path106332" /><path
       d="m 417.63733,70.769744 -5.69224,-1.096414 1.00849,-5.23579 5.69225,1.096414 z m -7.06618,34.950606 -5.04784,-0.97229 5.77686,-29.991681 5.04784,0.972292 z"
       id="path106334" /><path
       d="m 445.4391,88.776951 -0.26391,-0.07155 q -1.03688,-0.564423 -2.0639,-0.956189 -0.99347,-0.411002 -2.41859,-0.797375 -2.29601,-0.622489 -4.71273,-0.172799 -2.40957,0.4233 -4.82535,1.496523 l -5.67396,20.928079 -4.96151,-1.34515 7.99219,-29.478769 4.96151,1.34515 -1.18058,4.354518 q 3.59975,-1.573826 6.10772,-1.942114 2.54152,-0.387524 4.89032,0.249275 1.29316,0.350598 1.8523,0.587182 0.56629,0.210193 1.67741,0.709753 z"
       id="path106336" /><path
       d="m 467.01567,114.05244 q -1.49532,3.90724 -5.69637,5.16869 -4.1755,1.27124 -9.76821,-0.86912 -3.16665,-1.2119 -5.53912,-2.96891 -2.33716,-1.77278 -3.78271,-3.35072 l 2.06217,-5.38841 0.25537,0.0977 q 1.61803,2.58084 4.01068,4.66763 2.40242,2.06126 4.95617,3.03859 3.16665,1.21189 5.3452,0.87453 2.17856,-0.33737 3.01907,-2.53359 0.64504,-1.68547 0.007,-2.92513 -0.63814,-1.23966 -3.16162,-2.90808 -0.93354,-0.62077 -2.4762,-1.56249 -1.51712,-0.93194 -2.73378,-1.80746 -3.37284,-2.43264 -4.22317,-4.953895 -0.81501,-2.537021 0.26006,-5.346143 0.67436,-1.762086 1.98558,-3.046219 1.33676,-1.274359 3.28705,-1.933304 1.88945,-0.652955 4.34955,-0.50196 2.49542,0.135231 5.22793,1.180978 2.55374,0.977334 4.91423,2.612651 2.3958,1.619553 3.79028,3.177951 l -1.96444,5.133032 -0.25537,-0.09773 q -1.32071,-2.057166 -3.59923,-3.983169 -2.26875,-1.95154 -4.79696,-2.9191 -2.63036,-1.006654 -4.83445,-0.679062 -2.19432,0.302055 -2.95664,2.293978 -0.67436,1.762086 0.0817,3.076151 0.73051,1.304291 2.91602,2.784814 1.21067,0.81466 2.72778,1.7466 1.54266,0.94172 2.54304,1.61735 3.05221,2.04643 4.15191,4.60457 1.08994,2.58368 -0.10241,5.69925 z"
       id="path106338" /><path
       d="m 484.80063,132.36086 q -1.46761,-0.30479 -3.11881,-0.85404 -1.62672,-0.53704 -2.82549,-1.13548 -4.18345,-2.08846 -5.23719,-5.42618 -1.05374,-3.33772 1.42553,-8.30404 l 7.25464,-14.532 -3.10701,-1.55107 1.92968,-3.865417 3.10701,1.551075 3.92043,-7.85315 4.59936,2.296079 -3.92044,7.853153 9.49229,4.73871 -1.92969,3.86542 -9.49228,-4.73872 -6.21651,12.4525 q -1.07476,2.15289 -1.58756,3.42498 -0.50059,1.24762 -0.43861,2.59271 0.0497,1.24728 0.7473,2.17621 0.73429,0.91668 2.66699,1.88152 1.12538,0.5618 2.50738,0.85442 1.39422,0.26816 2.04236,0.31667 l 0.24464,0.12213 z"
       id="path106340" /><path
       d="m 527.20096,161.47158 -4.09862,-3.10279 10.49669,-13.86555 q 1.27083,-1.67869 2.1804,-3.2879 0.92608,-1.63102 1.03001,-2.85557 0.14815,-1.32825 -0.54642,-2.53997 -0.67807,-1.23353 -2.31315,-2.47134 -1.67869,-1.27083 -4.13715,-1.82874 -2.45846,-0.55791 -5.1109,-0.54247 l -13.76453,18.18217 -4.09862,-3.10279 18.43523,-24.35191 4.09862,3.1028 -2.04653,2.70334 q 3.12331,-0.13911 5.8493,0.51844 2.72598,0.65755 4.8843,2.29147 3.94601,2.98727 4.21816,6.9315 0.27215,3.94423 -3.11122,8.41347 z"
       id="path106342" /><path
       d="m 551.53463,184.71333 -3.63676,-3.59439 2.28734,-2.3143 q -0.81296,-0.14992 -2.24508,-0.37355 -1.39346,-0.22386 -2.51736,-0.64265 -1.35614,-0.4561 -2.83078,-1.33688 -1.49387,-0.86133 -3.0886,-2.43748 -2.93663,-2.90242 -3.05653,-6.86545 -0.1199,-3.96303 2.8594,-6.97746 2.44111,-2.46989 4.99056,-2.94887 2.58812,-0.47922 5.41732,0.58698 2.84864,1.08542 5.93724,3.5229 3.08859,2.43748 6.43182,5.43419 l 0.55742,-0.56399 q 1.23016,-1.24466 1.59016,-2.50357 0.37944,-1.23968 0.0239,-2.51372 -0.33583,-1.21616 -1.27114,-2.44814 -0.93532,-1.23197 -2.12164,-2.40447 -1.43915,-1.42238 -3.59333,-2.78256 -2.13497,-1.37963 -4.73261,-2.52453 l -0.19448,-0.19221 3.67127,-3.71455 q 1.35796,0.76545 3.72653,2.41441 2.36857,1.64895 4.33281,3.5903 2.29485,2.26812 3.60239,4.32933 1.34622,2.06099 1.68748,4.2052 0.34104,2.10555 -0.42033,4.15955 -0.76138,2.054 -2.83728,4.15438 z m 1.6491,-8.94257 5.97783,-6.0483 q -1.76863,-1.5558 -4.23625,-3.61021 -2.44817,-2.03519 -4.13583,-2.97273 -2.01737,-1.10963 -3.93162,-1.11774 -1.89501,-0.0276 -3.52883,1.6255 -1.84524,1.867 -1.65911,3.93479 0.20536,2.04834 2.51966,4.33567 1.92535,1.90291 4.25049,2.74004 2.34436,0.81768 4.74366,1.11298 z"
       id="path106344" /><path
       d="m 568.23215,204.35143 q -1.21445,-0.87858 -2.49639,-2.05532 -1.26462,-1.15559 -2.11361,-2.19212 -2.96282,-3.61727 -2.55873,-7.09397 0.40409,-3.47671 4.69828,-6.99396 l 12.56527,-10.29188 -2.20045,-2.68651 3.34228,-2.73757 2.20045,2.68652 6.79032,-5.56177 3.25736,3.97688 -6.79032,5.56177 6.72264,8.20762 -3.34228,2.73757 -6.72264,-8.20762 -10.76721,8.81913 q -1.86152,1.52472 -2.8499,2.47566 -0.96722,0.9336 -1.46099,2.18633 -0.46497,1.15843 -0.20849,2.29147 0.29497,1.13687 1.66375,2.80801 0.79701,0.97307 1.93833,1.80551 1.16247,0.81511 1.73404,1.12455 l 0.17326,0.21154 z"
       id="path106346" /><path
       d="m 603.87195,193.51217 -3.35119,-4.73005 4.35075,-3.08245 3.35118,4.73004 z m -29.28393,20.34521 -2.9718,-4.19457 24.92197,-17.65695 2.97181,4.19457 z"
       id="path106348" /><path
       d="m 606.67346,237.11531 q -6.46619,3.72992 -12.1213,2.57263 -5.65512,-1.15728 -8.86585,-6.72342 -3.23806,-5.6135 -1.4085,-11.08821 1.84322,-5.45101 8.30941,-9.18093 6.46619,-3.72992 12.10764,-2.59631 5.6788,1.14362 8.91686,6.75713 3.21073,5.56613 1.35749,11.05449 -1.82956,5.47471 -8.29575,9.20462 z m -2.65056,-4.59502 q 5.13979,-2.9648 6.46546,-6.41267 1.34935,-3.46153 -0.71372,-7.03807 -2.09039,-3.6239 -5.7624,-4.18894 -3.63467,-0.55501 -8.77446,2.40979 -4.97399,2.86917 -6.3944,6.37169 -1.39672,3.48885 0.68001,7.08907 2.0494,3.55285 5.7451,4.10423 3.73304,0.56139 8.75441,-2.3351 z"
       id="path106350" /><path
       d="m 606.62505,275.56489 -1.95717,-4.75347 16.08092,-6.62104 q 1.9469,-0.8016 3.54726,-1.72666 1.62565,-0.93547 2.33661,-1.9379 0.80169,-1.06935 0.81808,-2.46592 0.0417,-1.40699 -0.73909,-3.30333 -0.80161,-1.9469 -2.63689,-3.6752 -1.83529,-1.72829 -4.12868,-3.06098 l -21.08723,8.6823 -1.95716,-4.75348 28.24273,-11.62845 1.95716,4.75348 -3.13527,1.29089 q 2.76189,1.46507 4.77713,3.41498 2.01524,1.94991 3.04588,4.45307 1.88428,4.57649 0.11727,8.11325 -1.76701,3.53676 -6.95033,5.6709 z"
       id="path106352" /><path
       d="m 615.77163,307.94778 -1.30415,-4.94418 3.1463,-0.8299 q -0.62382,-0.54243 -1.74333,-1.46313 -1.08609,-0.90124 -1.84096,-1.83328 -0.93589,-1.08225 -1.7579,-2.59045 -0.84844,-1.50122 -1.42031,-3.66925 -1.05308,-3.99236 0.85859,-7.4659 1.91167,-3.47354 6.00978,-4.55452 3.35781,-0.8857 5.79668,-0.002 2.47229,0.90322 4.36644,3.25977 1.90113,2.38299 3.32144,6.05224 1.42032,3.66926 2.77558,7.94953 l 0.76674,-0.20224 q 1.69212,-0.44634 2.64218,-1.34736 0.95702,-0.87457 1.29866,-2.15241 0.32915,-1.21798 0.15012,-2.75438 -0.17903,-1.5364 -0.60445,-3.1492 -0.51608,-1.95652 -1.6795,-4.22303 -1.13699,-2.27348 -2.79173,-4.58007 l -0.0697,-0.26439 5.04994,-1.33204 q 0.78016,1.34956 1.98137,3.97373 1.20121,2.62417 1.90558,5.29455 0.82294,3.11985 0.90089,5.55956 0.11136,2.45918 -0.68495,4.47908 -0.77685,1.98649 -2.47679,3.3681 -1.69993,1.3816 -4.55539,2.1348 z m 5.9667,-6.86203 8.22266,-2.16892 q -0.73196,-2.23892 -1.81232,-5.2626 -1.07338,-2.99723 -2.04996,-4.66261 -1.173,-1.98119 -2.81724,-2.96143 -1.61779,-0.98722 -3.86514,-0.39443 -2.53819,0.66951 -3.42923,2.54472 -0.8646,1.86824 -0.0347,5.01453 0.69043,2.61751 2.267,4.52053 1.60301,1.89605 3.51892,3.37021 z"
       id="path106354" /><path
       d="m 618.26132,322.85194 -0.83821,-5.07183 41.97746,-6.93755 0.83821,5.07183 z"
       id="path106356" /><path
       d="m 621.29547,357.75035 -0.15122,-5.1384 42.52846,-1.25156 0.15122,5.1384 z"
       id="path106358" /><path
       d="m 634.619,394.38936 1.43597,-22.45805 q -2.81067,-0.17971 -4.96593,0.53187 -2.12798,0.71332 -3.55931,2.10138 -1.40056,1.33523 -2.17935,3.2308 -0.78054,1.92286 -0.93059,4.26963 -0.19891,3.11084 0.8284,6.32748 1.05285,3.24567 2.16803,4.65955 l -0.0174,0.27288 -5.59404,-0.35768 q -0.92577,-2.66215 -1.48981,-5.41078 -0.56404,-2.74862 -0.37386,-5.72302 0.48506,-7.58607 4.85045,-11.58128 4.39268,-3.99347 11.95146,-3.51016 7.47692,0.47807 11.61032,4.8249 4.13165,4.37412 3.70592,11.0324 -0.39432,6.16709 -4.20921,9.26592 -3.81663,3.12611 -10.44762,2.70213 z m 4.24878,-4.74246 q 4.04037,0.23094 6.37981,-1.64705 2.3377,-1.85069 2.59942,-5.9439 0.26347,-4.12049 -2.00813,-6.7317 -2.27335,-2.58392 -5.85443,-3.14169 z"
       id="path106360" /><path
       d="m 614.239,424.48716 0.97703,-5.01907 3.19395,0.62175 q -0.32566,-0.75982 -0.93303,-2.07591 -0.58576,-1.28402 -0.85989,-2.45166 -0.37176,-1.38165 -0.45565,-3.09725 -0.11073,-1.72084 0.3177,-3.92171 0.78894,-4.05283 4.02153,-6.34855 3.2326,-2.29572 7.39279,-1.48589 3.40867,0.66355 5.22005,2.52044 1.833,1.88895 2.51309,4.8349 0.67488,2.97278 0.35718,6.89449 -0.3177,3.92171 -0.95984,8.36526 l 0.77835,0.15152 q 1.71776,0.33438 2.96521,-0.0635 1.24222,-0.37104 2.10582,-1.37292 0.82631,-0.95343 1.33361,-2.41467 0.50731,-1.46124 0.82602,-3.09847 0.38663,-1.98616 0.32528,-4.53309 -0.0345,-2.5417 -0.52078,-5.33849 l 0.0523,-0.2684 5.12643,0.99792 q 0.11523,1.55457 0.055,4.43997 -0.0603,2.8854 -0.58796,5.59624 -0.61652,3.16711 -1.60787,5.39769 -0.96974,2.26264 -2.5656,3.73484 -1.56379,1.45058 -3.69553,1.95489 -2.13173,0.50431 -5.03044,-0.06 z m 8.35801,-3.58226 8.34722,1.6249 q 0.31513,-2.33436 0.65803,-5.52688 0.33767,-3.16568 0.183,-5.09007 -0.19412,-2.2942 -1.24804,-3.89221 -1.02708,-1.59279 -3.30847,-2.03689 -2.57664,-0.50158 -4.19483,0.79912 -1.59135,1.30593 -2.2131,4.49989 -0.51725,2.65715 0.0742,5.05657 0.61833,2.40464 1.70195,4.56557 z"
       id="path106362" /><path
       d="m 603.84128,457.57512 1.6377,-4.87278 3.03252,1.01921 q -1.10873,-2.70922 -1.35299,-5.32983 -0.24426,-2.62061 0.65299,-5.29028 1.74224,-5.1838 6.76168,-6.90073 5.01074,-1.69101 12.08664,0.68714 3.6805,1.23698 6.20907,3.24068 2.51985,2.02962 3.94047,4.49751 1.37748,2.42454 1.63024,5.1057 0.24405,2.70708 -0.60094,5.22122 -0.76658,2.28088 -1.8514,3.87786 -1.0589,1.60569 -2.72308,3.20989 l 12.54481,4.2162 -1.63769,4.87278 z m 8.76543,-2.47721 16.6141,5.58386 q 1.5433,-1.67367 2.40291,-3.11557 0.85962,-1.4419 1.47811,-3.28215 1.37637,-4.0952 -0.70814,-7.33431 -2.08452,-3.2391 -7.32016,-4.99875 -5.15789,-1.73352 -8.44583,-0.87699 -3.26202,0.86524 -4.56869,4.7531 -0.69689,2.07352 -0.50404,4.50377 0.21877,2.43897 1.05174,4.76704 z"
       id="path106364" /><path
       d="m 601.89293,496.38435 9.92248,-20.19827 q -2.52786,-1.24182 -4.79136,-1.40936 -2.23896,-0.15548 -4.09258,0.57903 -1.80497,0.69749 -3.24999,2.15064 -1.45708,1.47768 -2.49394,3.58832 -1.37444,2.79781 -1.65653,6.16271 -0.26961,3.4015 0.21948,5.13456 l -0.12056,0.24542 -5.03116,-2.47158 q 0.16367,-2.81377 0.69462,-5.56898 0.53095,-2.75521 1.84511,-5.43031 3.3517,-6.82275 8.91385,-8.84287 5.58669,-2.00806 12.38489,1.33158 6.72458,3.30348 8.87947,8.90137 2.14283,5.62243 -0.79895,11.61074 -2.72477,5.54654 -7.43523,6.94924 -4.72253,1.42725 -10.6863,-1.50248 z m 5.74041,-2.7551 q 3.64431,1.75982 6.52442,0.92027 2.86804,-0.81501 4.67651,-4.49635 1.82053,-3.70588 0.72135,-6.98771 -1.11123,-3.25729 -4.20613,-5.14325 z"
       id="path106366" /><path
       d="m 595.25066,525.98597 0.14718,-0.23044 q 0.84862,-0.82069 1.52954,-1.68359 0.68924,-0.82515 1.48403,-2.06955 1.28051,-2.00487 1.57397,-4.44549 0.3165,-2.4259 0.0147,-5.05206 l -18.27427,-11.67173 2.76707,-4.33236 25.74068,16.4405 -2.76707,4.33236 -3.80234,-2.42854 q 0.42554,3.90564 0.0271,6.409 -0.3901,2.54113 -1.70004,4.59209 -0.7212,1.12918 -1.11414,1.592 -0.3699,0.47754 -1.17882,1.38847 z"
       id="path106368" /></g></g><g
   inkscape:groupmode="layer"
   id="layer2"
   inkscape:label="white"
   style="display:none"><g
     class="st20"
     id="g1478">
	<g
   id="g1414">
		
			<linearGradient
   id="path3302_5_"
   gradientUnits="userSpaceOnUse"
   x1="396.25711"
   y1="-13.6055"
   x2="322.9931"
   y2="-18.4254"
   gradientTransform="translate(0,252.6096)">
			<stop
   offset="0"
   style="stop-color:#FFFFFF"
   id="stop1354" />
			<stop
   offset="1"
   style="stop-color:#D8D8D8"
   id="stop1356" />
		</linearGradient>
		<path
   id="path3302_2_"
   class="st21"
   d="m 331.5,114.8 c 34.3,-12.7 47.3,10.7 76.8,4.7 l -50.1,242.2 z" />
		
			<linearGradient
   id="path3304_5_"
   gradientUnits="userSpaceOnUse"
   x1="468.2041"
   y1="31.6611"
   x2="408.6066"
   y2="-17.363001"
   gradientTransform="translate(0,252.6096)">
			<stop
   offset="0"
   style="stop-color:#FFFFFF"
   id="stop1360" />
			<stop
   offset="1"
   style="stop-color:#D8D8D8"
   id="stop1362" />
		</linearGradient>
		<path
   id="path3304_2_"
   class="st22"
   d="m 485.4,142.4 c 35.2,9.8 32.3,37.5 59.7,49.8 L 361.2,358.8 Z" />
		
			<linearGradient
   id="path3306_5_"
   gradientUnits="userSpaceOnUse"
   x1="490.23071"
   y1="107.4641"
   x2="472.0347"
   y2="35.6376"
   gradientTransform="translate(0,252.6096)">
			<stop
   offset="0"
   style="stop-color:#FFFFFF"
   id="stop1366" />
			<stop
   offset="1"
   style="stop-color:#D8D8D8"
   id="stop1368" />
		</linearGradient>
		<path
   id="path3306_2_"
   class="st23"
   d="m 587.4,257.4 c 22.7,28.4 6.2,48.3 21,74.1 L 361,359 Z" />
		
			<linearGradient
   id="path3310_5_"
   gradientUnits="userSpaceOnUse"
   x1="465.13171"
   y1="180.78439"
   x2="493.8765"
   y2="111.7968"
   gradientTransform="translate(0,252.6096)">
			<stop
   offset="0"
   style="stop-color:#FFFFFF"
   id="stop1372" />
			<stop
   offset="1"
   style="stop-color:#D8D8D8"
   id="stop1374" />
		</linearGradient>
		<path
   id="path3310_2_"
   class="st24"
   d="m 604.7,408.8 c 1.5,36.3 -24.2,42.7 -27.7,72.4 L 360.6,359 Z" />
		
			<linearGradient
   id="path3312_5_"
   gradientUnits="userSpaceOnUse"
   x1="397.4299"
   y1="231.8116"
   x2="458.02921"
   y2="190.4502"
   gradientTransform="translate(0,252.6096)">
			<stop
   offset="0"
   style="stop-color:#FFFFFF"
   id="stop1378" />
			<stop
   offset="1"
   style="stop-color:#D8D8D8"
   id="stop1380" />
		</linearGradient>
		<path
   id="path3312_2_"
   class="st25"
   d="m 527.8,540.9 c -20.3,30.2 -44.4,21 -64.7,43.1 L 360.2,358.8 Z" />
		
			<linearGradient
   id="path3314_5_"
   gradientUnits="userSpaceOnUse"
   x1="323.90659"
   y1="227.9371"
   x2="399.09619"
   y2="235.6488"
   gradientTransform="translate(0,252.6096)">
			<stop
   offset="0"
   style="stop-color:#FFFFFF"
   id="stop1384" />
			<stop
   offset="1"
   style="stop-color:#D8D8D8"
   id="stop1386" />
		</linearGradient>
		<path
   id="path3314_2_"
   class="st26"
   d="m 387.7,607 c -34.3,12.7 -48.2,-12.3 -77.6,-6.3 l 50.1,-242.2 z" />
		
			<linearGradient
   id="path3316_5_"
   gradientUnits="userSpaceOnUse"
   x1="259.379"
   y1="183.4431"
   x2="314.16089"
   y2="232.4586"
   gradientTransform="translate(0,252.6096)">
			<stop
   offset="0"
   style="stop-color:#FFFFFF"
   id="stop1390" />
			<stop
   offset="1"
   style="stop-color:#D8D8D8"
   id="stop1392" />
		</linearGradient>
		<path
   id="path3316_2_"
   class="st27"
   d="m 235.5,574.8 c -35.2,-9.8 -31.8,-37.7 -59.2,-50 L 360.2,358.2 Z" />
		
			<linearGradient
   id="path3318_5_"
   gradientUnits="userSpaceOnUse"
   x1="229.8683"
   y1="101.032"
   x2="249.9808"
   y2="173.8203"
   gradientTransform="translate(0,252.6096)">
			<stop
   offset="0"
   style="stop-color:#FFFFFF"
   id="stop1396" />
			<stop
   offset="1"
   style="stop-color:#D8D8D8"
   id="stop1398" />
		</linearGradient>
		<path
   id="path3318_2_"
   class="st28"
   d="m 134.9,459.1 c -22.7,-28.4 -6.8,-47.7 -21.7,-73.7 L 360.6,358 Z" />
		
			<linearGradient
   id="path3320_5_"
   gradientUnits="userSpaceOnUse"
   x1="257.0575"
   y1="26.767599"
   x2="229.2776"
   y2="99.57"
   gradientTransform="translate(0,252.6096)">
			<stop
   offset="0"
   style="stop-color:#FFFFFF"
   id="stop1402" />
			<stop
   offset="1"
   style="stop-color:#D8D8D8"
   id="stop1404" />
		</linearGradient>
		<path
   id="path3320_2_"
   class="st29"
   d="m 117.5,308.7 c -1.5,-36.3 23.7,-43.3 27,-73.1 L 361,357.8 Z" />
		
			<linearGradient
   id="path3322_5_"
   gradientUnits="userSpaceOnUse"
   x1="321.81561"
   y1="-18.138"
   x2="256.3974"
   y2="24.191601"
   gradientTransform="translate(0,252.6096)">
			<stop
   offset="0"
   style="stop-color:#FFFFFF"
   id="stop1408" />
			<stop
   offset="1"
   style="stop-color:#D8D8D8"
   id="stop1410" />
		</linearGradient>
		<path
   id="path3322_2_"
   class="st30"
   d="m 192.2,175.1 c 20.3,-30.2 46.1,-20.2 66.3,-42.3 L 361.3,358 Z" />
	</g>
	<g
   id="g1476">
		
			<linearGradient
   id="path3308_5_"
   gradientUnits="userSpaceOnUse"
   x1="361"
   y1="579.33002"
   x2="587.70001"
   y2="579.33002"
   gradientTransform="matrix(1,0,0,-1,0,847.28)">
			<stop
   offset="0"
   style="stop-color:#FFFFFF"
   id="stop1416" />
			<stop
   offset="1"
   style="stop-color:#D8D8D8"
   id="stop1418" />
		</linearGradient>
		<path
   id="path3308_2_"
   class="st31"
   d="m 527.9,176.2 c 30.4,20.1 37.6,61.3 59.8,81.3 L 361,359.7 Z" />
		
			<linearGradient
   id="path3324_5_"
   gradientUnits="userSpaceOnUse"
   x1="237"
   y1="611.13"
   x2="361.10001"
   y2="611.13"
   gradientTransform="matrix(1,0,0,-1,0,847.28)">
			<stop
   offset="0"
   style="stop-color:#FFFFFF"
   id="stop1422" />
			<stop
   offset="1"
   style="stop-color:#D8D8D8"
   id="stop1424" />
		</linearGradient>
		<path
   id="path3324_2_"
   class="st32"
   d="m 237,144.7 c 28.7,-22.5 70.4,-16.5 96.4,-31.4 L 361.1,359 Z" />
		
			<linearGradient
   id="path3326_5_"
   gradientUnits="userSpaceOnUse"
   x1="361.10001"
   y1="610.75787"
   x2="484.10001"
   y2="610.75787"
   gradientTransform="matrix(1,0,0,-1,0,847.28)">
			<stop
   offset="0"
   style="stop-color:#FFFFFF"
   id="stop1428" />
			<stop
   offset="1"
   style="stop-color:#D8D8D8"
   id="stop1430" />
		</linearGradient>
		<path
   id="path3326_2_"
   class="st33"
   d="m 387.6,113.6 c 36.6,-1.5 66.7,27.7 96.5,31 l -123,214.9 z" />
		
			<linearGradient
   id="path3328_5_"
   gradientUnits="userSpaceOnUse"
   x1="360.60001"
   y1="488.03"
   x2="609.17572"
   y2="488.03"
   gradientTransform="matrix(1,0,0,-1,0,847.28)">
			<stop
   offset="0"
   style="stop-color:#FFFFFF"
   id="stop1434" />
			<stop
   offset="1"
   style="stop-color:#D8D8D8"
   id="stop1436" />
		</linearGradient>
		<path
   id="path3328_2_"
   class="st34"
   d="m 604.7,308.9 c 12.7,33.9 -6.3,71.4 -0.2,100.7 L 360.6,359.8 Z" />
		
			<linearGradient
   id="path3330_5_"
   gradientUnits="userSpaceOnUse"
   x1="360.20001"
   y1="396.28"
   x2="587.5"
   y2="396.28"
   gradientTransform="matrix(1,0,0,-1,0,847.28)">
			<stop
   offset="0"
   style="stop-color:#FFFFFF"
   id="stop1440" />
			<stop
   offset="1"
   style="stop-color:#D8D8D8"
   id="stop1442" />
		</linearGradient>
		<path
   id="path3330_2_"
   class="st35"
   d="M 587.5,460.6 C 577.7,495.5 540.4,515 528,542.3 L 360.2,359.7 Z" />
		
			<linearGradient
   id="path3332_5_"
   gradientUnits="userSpaceOnUse"
   x1="360"
   y1="365.03"
   x2="484.20001"
   y2="365.03"
   gradientTransform="matrix(1,0,0,-1,0,847.28)">
			<stop
   offset="0"
   style="stop-color:#FFFFFF"
   id="stop1446" />
			<stop
   offset="1"
   style="stop-color:#D8D8D8"
   id="stop1448" />
		</linearGradient>
		<path
   id="path3332_2_"
   class="st36"
   d="m 484.2,573.7 c -28.7,22.5 -70.4,16.5 -96.4,31.4 L 360,359.4 Z" />
		
			<linearGradient
   id="path3334_5_"
   gradientUnits="userSpaceOnUse"
   x1="237.10001"
   y1="365.45209"
   x2="360.10001"
   y2="365.45209"
   gradientTransform="matrix(1,0,0,-1,0,847.28)">
			<stop
   offset="0"
   style="stop-color:#FFFFFF"
   id="stop1452" />
			<stop
   offset="1"
   style="stop-color:#D8D8D8"
   id="stop1454" />
		</linearGradient>
		<path
   id="path3334_2_"
   class="st37"
   d="m 333.6,604.8 c -36.6,1.5 -66.7,-27.7 -96.5,-31 l 123,-215 z" />
		
			<linearGradient
   id="path3336_5_"
   gradientUnits="userSpaceOnUse"
   x1="133.5"
   y1="396.92999"
   x2="360.20001"
   y2="396.92999"
   gradientTransform="matrix(1,0,0,-1,0,847.28)">
			<stop
   offset="0"
   style="stop-color:#FFFFFF"
   id="stop1458" />
			<stop
   offset="1"
   style="stop-color:#D8D8D8"
   id="stop1460" />
		</linearGradient>
		<path
   id="path3336_2_"
   class="st38"
   d="M 193.3,542.1 C 162.9,522 155.7,480.8 133.5,460.8 L 360.2,358.6 Z" />
		
			<linearGradient
   id="path3338_5_"
   gradientUnits="userSpaceOnUse"
   x1="112.4378"
   y1="488.17999"
   x2="360.60001"
   y2="488.17999"
   gradientTransform="matrix(1,0,0,-1,0,847.28)">
			<stop
   offset="0"
   style="stop-color:#FFFFFF"
   id="stop1464" />
			<stop
   offset="1"
   style="stop-color:#D8D8D8"
   id="stop1466" />
		</linearGradient>
		<path
   id="path3338_2_"
   class="st39"
   d="m 117,409.5 c -12.7,-33.9 5.8,-71.6 -0.3,-100.8 l 243.9,49.8 z" />
		
			<linearGradient
   id="path3340_5_"
   gradientUnits="userSpaceOnUse"
   x1="133.7"
   y1="579.88"
   x2="361"
   y2="579.88"
   gradientTransform="matrix(1,0,0,-1,0,847.28)">
			<stop
   offset="0"
   style="stop-color:#FFFFFF"
   id="stop1470" />
			<stop
   offset="1"
   style="stop-color:#D8D8D8"
   id="stop1472" />
		</linearGradient>
		<path
   id="path3340_2_"
   class="st40"
   d="m 133.7,257.8 c 9.8,-34.9 47.1,-54.4 59.5,-81.7 L 361,358.7 Z" />
	</g>
</g><g
     aria-label="won a race "
     id="text69141"
     style="font-size:40px;line-height:1.25"><path
       d="m 276.28545,202.0325 7.08322,21.40296 -2.85296,1.84663 -13.84337,-11.0713 4.46471,17.14184 -2.83655,1.83602 -16.67504,-15.19446 3.21367,-2.08011 12.54133,12.00714 -4.60554,-17.14375 2.54142,-1.64499 13.86944,11.1475 -5.99923,-16.24166 z"
       id="path92791" /><path
       d="m 306.1023,201.12935 q 2.04952,4.9224 0.71139,8.82229 -1.33813,3.8999 -5.57536,5.66415 -4.27329,1.77926 -7.98377,-0.0186 -3.69245,-1.80533 -5.74198,-6.72773 -2.04952,-4.92239 -0.72942,-8.81478 1.33062,-3.91793 5.60391,-5.6972 4.23723,-1.76424 7.95522,0.0516 3.71048,1.79782 5.76001,6.72022 z m -3.49797,1.45644 q -1.62911,-3.91268 -3.95001,-5.16777 -2.3284,-1.27313 -5.05104,-0.13951 -2.75871,1.14863 -3.49554,3.69803 -0.7263,2.52385 0.90281,6.43652 1.57656,3.78646 3.92748,5.11368 2.34342,1.3092 5.0841,0.16807 2.70461,-1.12612 3.43393,-3.69354 0.73984,-2.59296 -0.85173,-6.41548 z"
       id="path92793" /><path
       d="m 333.48294,205.20751 -3.56917,0.86237 -2.91737,-12.07444 q -0.3532,-1.46184 -0.8314,-2.69255 -0.48278,-1.24969 -1.11273,-1.86103 -0.66728,-0.68269 -1.65131,-0.8468 -0.98863,-0.18309 -2.4125,0.16094 -1.46184,0.3532 -2.88227,1.45994 -1.42043,1.10674 -2.61163,2.58006 l 3.8256,15.83345 -3.56917,0.86237 -5.12374,-21.2062 3.56917,-0.86237 0.5688,2.35414 q 1.33582,-1.78956 2.93233,-2.99913 1.59652,-1.20957 3.47603,-1.66368 3.43628,-0.83026 5.73984,0.80333 2.30356,1.63359 3.24391,5.52551 z"
       id="path92795" /><path
       d="m 371.47661,203.02637 -3.65223,-0.0292 0.0186,-2.32414 q -0.49093,0.32811 -1.33559,0.92684 -0.82498,0.57935 -1.60902,0.92464 -0.92153,0.44186 -2.11525,0.72528 -1.19387,0.30295 -2.79538,0.29012 -2.94912,-0.0236 -4.9842,-1.99309 -2.03508,-1.96949 -2.01084,-4.99673 0.0199,-2.48039 1.08671,-3.99534 1.08654,-1.53431 3.06617,-2.3974 1.99916,-0.86292 4.79455,-1.15305 2.79538,-0.29013 5.99965,-0.42073 l 0.005,-0.56638 q 0.01,-1.24996 -0.43263,-2.07385 -0.42311,-0.82372 -1.23964,-1.29903 -0.77763,-0.45546 -1.87009,-0.62046 -1.09247,-0.165 -2.28383,-0.17454 -1.44527,-0.0116 -3.22568,0.36481 -1.78026,0.35685 -3.68052,1.06431 l -0.19531,-0.002 0.0299,-3.73035 q 1.07653,-0.28436 3.11053,-0.61965 2.034,-0.33528 4.0066,-0.31949 2.30461,0.0185 4.00065,0.42267 1.71572,0.38485 2.95833,1.31279 1.22324,0.90827 1.85633,2.33916 0.6331,1.4309 0.61621,3.54021 z m -3.60923,-5.40017 0.0486,-6.07402 q -1.68042,0.0842 -3.96706,0.26121 -2.26712,0.17717 -3.59817,0.53761 -1.58558,0.43654 -2.56977,1.38572 -0.98404,0.92965 -0.99733,2.58976 -0.015,1.87494 1.1101,2.84101 1.12527,0.94654 3.44941,0.96515 1.93353,0.0155 3.54099,-0.71386 1.60761,-0.74887 2.98319,-1.79258 z"
       id="path92797" /><path
       d="m 409.66468,191.56985 -0.19041,-0.0435 q -0.75623,-0.37306 -1.50047,-0.62317 -0.72085,-0.26481 -1.74907,-0.49964 -1.65656,-0.37834 -3.36848,0.012 -1.70757,0.37131 -3.40092,1.20665 l -3.44857,15.09947 -3.5797,-0.81757 4.85758,-21.26874 3.5797,0.81757 -0.71755,3.14176 q 2.52398,-1.22663 4.30336,-1.5615 1.80278,-0.34956 3.49742,0.0375 0.93301,0.21309 1.33886,0.36589 0.41021,0.13375 1.21757,0.45839 z"
       id="path92799" /><path
       d="m 424.25642,215.62386 -3.42717,-1.26259 0.80347,-2.18092 q -0.57296,0.14276 -1.57033,0.42058 -0.9723,0.26623 -1.82691,0.32605 -1.01667,0.10419 -2.2359,-0.0328 -1.22598,-0.11862 -2.72881,-0.67227 -2.76739,-1.01953 -4.01655,-3.56118 -1.24917,-2.54165 -0.20264,-5.38235 0.85748,-2.32754 2.37379,-3.39246 1.54138,-1.07649 3.69625,-1.21927 2.1732,-0.13604 4.902,0.53624 2.72881,0.67227 5.78847,1.63295 l 0.1958,-0.53148 q 0.43212,-1.17294 0.29417,-2.09797 -0.11962,-0.91828 -0.72732,-1.6417 -0.57779,-0.6916 -1.55009,-1.21632 -0.97231,-0.52472 -2.09026,-0.93658 -1.35621,-0.49963 -3.15901,-0.7475 -1.79605,-0.2662 -3.8236,-0.24303 l -0.18327,-0.0675 1.2896,-3.50048 q 1.10927,0.0964 3.13682,0.46874 2.02755,0.3723 3.87859,1.05424 2.1626,0.79671 3.62202,1.75066 1.4845,0.94237 2.3401,2.23586 0.84402,1.26841 0.95594,2.8291 0.11191,1.56069 -0.61729,3.54002 z m -1.57042,-6.30254 2.09981,-5.69973 q -1.60989,-0.48902 -3.82168,-1.09571 -2.19346,-0.59994 -3.56799,-0.71085 -1.63978,-0.12537 -2.88698,0.43507 -1.24044,0.54211 -1.81435,2.09991 -0.64817,1.7594 0.084,3.04904 0.73889,1.2713 2.91981,2.07477 1.81439,0.66843 3.57378,0.52565 1.76614,-0.16111 3.41364,-0.67815 z"
       id="path92801" /><path
       d="m 445.50191,225.14197 q -2.03292,-0.10195 -3.72518,-0.46361 -1.67509,-0.35235 -3.30644,-1.23635 -2.07782,-1.12595 -3.48651,-2.66681 -1.39939,-1.55804 -1.96579,-3.46441 -0.58358,-1.91568 -0.24687,-4.17683 0.3367,-2.26114 1.70459,-4.78543 2.54967,-4.70515 6.57711,-5.98819 4.04462,-1.27374 8.28612,1.02468 1.64852,0.89332 2.97711,2.21305 1.34576,1.32905 2.3051,2.71527 l -1.94482,3.58896 -0.17172,-0.0931 q -0.85334,-1.95079 -2.09818,-3.42507 -1.22766,-1.46499 -2.72163,-2.27455 -2.74754,-1.48886 -5.34952,-0.49967 -2.5755,0.98132 -4.51101,4.55311 -1.87968,3.46876 -1.34848,6.178 0.55768,2.70137 3.3739,4.22745 0.97881,0.5304 2.13154,0.82183 1.15273,0.29144 2.18315,0.31666 0.89947,0.0209 1.73168,-0.0391 0.84153,-0.0771 1.36033,-0.17365 l 0.17172,0.0931 z"
       id="path92803" /><path
       d="m 469.73403,231.42069 -12.89065,-9.60268 q -1.2018,1.61329 -1.61467,3.18104 -0.40121,1.5521 -0.12713,2.94965 0.25441,1.35856 1.08646,2.56289 0.8477,1.216 2.19472,2.21944 1.78558,1.33014 4.11189,1.96711 2.35363,0.63298 3.6345,0.51554 l 0.15663,0.11668 -2.39192,3.21091 q -1.9547,-0.48193 -3.82037,-1.21415 -1.86567,-0.73222 -3.57294,-2.00402 -4.35431,-3.24368 -5.04756,-7.41332 -0.68157,-4.18531 2.55044,-8.52396 3.197,-4.29167 7.40932,-5.07489 4.22799,-0.77156 8.04976,2.07541 3.53984,2.63695 3.91056,6.12795 0.38639,3.50267 -2.44891,7.30878 z m -1.18615,-4.3907 q 1.71119,-2.32979 1.49723,-4.46192 -0.1983,-2.12046 -2.54775,-3.87064 -2.36512,-1.76186 -4.81323,-1.41796 -2.43245,0.35556 -4.16057,2.28306 z"
       id="path92805" /></g></g><g
   inkscape:groupmode="layer"
   id="layer3"
   inkscape:label="blue"
   style="display:none"><g
     id="g1540"
     style="display:inline">
	<linearGradient
   id="path3302_6_"
   gradientUnits="userSpaceOnUse"
   x1="344.70001"
   y1="297.9892"
   x2="383.89999"
   y2="297.9892">
		<stop
   offset="0.3541"
   style="stop-color:#004C99"
   id="stop1480" />
		<stop
   offset="0.7081"
   style="stop-color:#003D7C"
   id="stop1482" />
	</linearGradient>
	<path
   id="path3302_1_"
   class="st41"
   d="m 344.7,236 c 17.5,-6.4 24.1,5.5 39.2,2.4 l -25.6,123.5 z" />
	<linearGradient
   id="path3304_6_"
   gradientUnits="userSpaceOnUse"
   x1="361"
   y1="304"
   x2="454.89999"
   y2="304">
		<stop
   offset="0.3541"
   style="stop-color:#004C99"
   id="stop1486" />
		<stop
   offset="0.7081"
   style="stop-color:#003D7C"
   id="stop1488" />
	</linearGradient>
	<path
   id="path3304_1_"
   class="st42"
   d="m 424.4,248.8 c 17.9,5 16.5,19.1 30.5,25.4 l -93.9,85 z" />
	<linearGradient
   id="path3306_6_"
   gradientUnits="userSpaceOnUse"
   x1="360.89999"
   y1="333.45001"
   x2="487.10001"
   y2="333.45001">
		<stop
   offset="0.3541"
   style="stop-color:#004C99"
   id="stop1492" />
		<stop
   offset="0.7081"
   style="stop-color:#003D7C"
   id="stop1494" />
	</linearGradient>
	<path
   id="path3306_1_"
   class="st43"
   d="m 476.4,307.5 c 11.6,14.5 3.1,24.6 10.7,37.8 l -126.2,14.1 z" />
	<linearGradient
   id="path3310_6_"
   gradientUnits="userSpaceOnUse"
   x1="360.70001"
   y1="390.45001"
   x2="485.23489"
   y2="390.45001">
		<stop
   offset="0.3541"
   style="stop-color:#004C99"
   id="stop1498" />
		<stop
   offset="0.7081"
   style="stop-color:#003D7C"
   id="stop1500" />
	</linearGradient>
	<path
   id="path3310_1_"
   class="st44"
   d="m 485.2,384.7 c 0.8,18.5 -12.4,21.8 -14.1,36.9 L 360.7,359.3 Z" />
	<linearGradient
   id="path3312_6_"
   gradientUnits="userSpaceOnUse"
   x1="360.5"
   y1="416.70001"
   x2="445.89999"
   y2="416.70001">
		<stop
   offset="0.3541"
   style="stop-color:#004C99"
   id="stop1504" />
		<stop
   offset="0.7081"
   style="stop-color:#003D7C"
   id="stop1506" />
	</linearGradient>
	<path
   id="path3312_1_"
   class="st45"
   d="m 445.9,452.1 c -10.3,15.4 -22.7,10.7 -33,22 L 360.5,359.3 Z" />
	<linearGradient
   id="path3314_6_"
   gradientUnits="userSpaceOnUse"
   x1="334.89999"
   y1="423.3143"
   x2="374.5"
   y2="423.3143">
		<stop
   offset="0.3541"
   style="stop-color:#004C99"
   id="stop1510" />
		<stop
   offset="0.7081"
   style="stop-color:#003D7C"
   id="stop1512" />
	</linearGradient>
	<path
   id="path3314_1_"
   class="st46"
   d="m 374.5,485.8 c -17.5,6.4 -24.6,-6.3 -39.6,-3.2 L 360.5,359 Z" />
	<linearGradient
   id="path3316_6_"
   gradientUnits="userSpaceOnUse"
   x1="266.70001"
   y1="414.14999"
   x2="360.5"
   y2="414.14999">
		<stop
   offset="0.3541"
   style="stop-color:#004C99"
   id="stop1516" />
		<stop
   offset="0.7081"
   style="stop-color:#003D7C"
   id="stop1518" />
	</linearGradient>
	<path
   id="path3316_1_"
   class="st47"
   d="m 296.9,469.4 c -17.9,-5 -16.2,-19.2 -30.2,-25.5 l 93.8,-85 z" />
	<linearGradient
   id="path3318_6_"
   gradientUnits="userSpaceOnUse"
   x1="234.5"
   y1="384.5"
   x2="360.70001"
   y2="384.5">
		<stop
   offset="0.3541"
   style="stop-color:#004C99"
   id="stop1522" />
		<stop
   offset="0.7081"
   style="stop-color:#003D7C"
   id="stop1524" />
	</linearGradient>
	<path
   id="path3318_1_"
   class="st48"
   d="M 245.6,410.3 C 234,395.8 242.1,385.9 234.5,372.7 l 126.2,-14 z" />
	<linearGradient
   id="path3320_6_"
   gradientUnits="userSpaceOnUse"
   x1="236.66431"
   y1="327.45001"
   x2="360.89999"
   y2="327.45001">
		<stop
   offset="0.3541"
   style="stop-color:#004C99"
   id="stop1528" />
		<stop
   offset="0.7081"
   style="stop-color:#003D7C"
   id="stop1530" />
	</linearGradient>
	<path
   id="path3320_1_"
   class="st49"
   d="m 236.7,333.6 c -0.8,-18.5 12.1,-22.1 13.8,-37.3 l 110.4,62.3 z" />
	<linearGradient
   id="path3322_6_"
   gradientUnits="userSpaceOnUse"
   x1="274.79999"
   y1="301.29999"
   x2="361.10001"
   y2="301.29999">
		<stop
   offset="0.3541"
   style="stop-color:#004C99"
   id="stop1534" />
		<stop
   offset="0.7081"
   style="stop-color:#003D7C"
   id="stop1536" />
	</linearGradient>
	<path
   id="path3322_1_"
   class="st50"
   d="m 274.8,265.5 c 10.3,-15.4 23.5,-10.3 33.8,-21.6 l 52.5,114.8 z" />
</g><g
     id="g1602"
     style="display:inline">
	<linearGradient
   id="path3308_6_"
   gradientUnits="userSpaceOnUse"
   x1="374.64999"
   y1="373.35001"
   x2="464.49081"
   y2="283.50909">
		<stop
   offset="0.3541"
   style="stop-color:#004C99"
   id="stop1542" />
		<stop
   offset="0.7081"
   style="stop-color:#003D7C"
   id="stop1544" />
	</linearGradient>
	<path
   id="path3308_1_"
   class="st51"
   d="m 446,266 c 15.5,10.3 19.2,31.2 30.5,41.5 l -115.6,52.1 z" />
	<linearGradient
   id="path3324_6_"
   gradientUnits="userSpaceOnUse"
   x1="317.85001"
   y1="316.14999"
   x2="373.45001"
   y2="260.54999">
		<stop
   offset="0.3541"
   style="stop-color:#004C99"
   id="stop1548" />
		<stop
   offset="0.7081"
   style="stop-color:#003D7C"
   id="stop1550" />
	</linearGradient>
	<path
   id="path3324_1_"
   class="st52"
   d="m 297.7,250 c 14.6,-11.5 35.9,-8.4 49.2,-16 L 361,359.3 Z" />
	<linearGradient
   id="path3326_6_"
   gradientUnits="userSpaceOnUse"
   x1="333.02499"
   y1="331.52499"
   x2="419.22501"
   y2="245.325">
		<stop
   offset="0.3541"
   style="stop-color:#004C99"
   id="stop1554" />
		<stop
   offset="0.7081"
   style="stop-color:#003D7C"
   id="stop1556" />
	</linearGradient>
	<path
   id="path3326_1_"
   class="st53"
   d="m 374.5,234.1 c 18.6,-0.8 34,14.1 49.3,15.8 L 361,359.5 Z" />
	<linearGradient
   id="path3328_6_"
   gradientUnits="userSpaceOnUse"
   x1="398.14999"
   y1="397.25"
   x2="473.39999"
   y2="322">
		<stop
   offset="0.3541"
   style="stop-color:#004C99"
   id="stop1560" />
		<stop
   offset="0.7081"
   style="stop-color:#003D7C"
   id="stop1562" />
	</linearGradient>
	<path
   id="path3328_1_"
   class="st54"
   d="m 485.2,333.8 c 6.5,17.3 -3.2,36.4 -0.1,51.4 L 360.7,359.8 Z" />
	<linearGradient
   id="path3330_6_"
   gradientUnits="userSpaceOnUse"
   x1="401.39999"
   y1="408.10001"
   x2="437.35001"
   y2="372.14999">
		<stop
   offset="0.3541"
   style="stop-color:#004C99"
   id="stop1566" />
		<stop
   offset="0.7081"
   style="stop-color:#003D7C"
   id="stop1568" />
	</linearGradient>
	<path
   id="path3330_1_"
   class="st55"
   d="m 476.4,411.2 c -5,17.8 -24,27.8 -30.3,41.6 l -85.6,-93.2 z" />
	<linearGradient
   id="path3332_6_"
   gradientUnits="userSpaceOnUse"
   x1="347.92499"
   y1="458.22501"
   x2="403.47501"
   y2="402.67499">
		<stop
   offset="0.3541"
   style="stop-color:#004C99"
   id="stop1572" />
		<stop
   offset="0.7081"
   style="stop-color:#003D7C"
   id="stop1574" />
	</linearGradient>
	<path
   id="path3332_1_"
   class="st56"
   d="m 423.7,468.8 c -14.6,11.5 -35.9,8.4 -49.2,16 L 360.3,359.5 Z" />
	<linearGradient
   id="path3334_6_"
   gradientUnits="userSpaceOnUse"
   x1="302.125"
   y1="473.42499"
   x2="388.32501"
   y2="387.22501">
		<stop
   offset="0.3541"
   style="stop-color:#004C99"
   id="stop1578" />
		<stop
   offset="0.7081"
   style="stop-color:#003D7C"
   id="stop1580" />
	</linearGradient>
	<path
   id="path3334_1_"
   class="st57"
   d="m 346.9,484.7 c -18.6,0.8 -34,-14.1 -49.3,-15.8 l 62.7,-109.7 z" />
	<linearGradient
   id="path3336_6_"
   gradientUnits="userSpaceOnUse"
   x1="256.90909"
   y1="435.1908"
   x2="346.75"
   y2="345.35001">
		<stop
   offset="0.3541"
   style="stop-color:#004C99"
   id="stop1584" />
		<stop
   offset="0.7081"
   style="stop-color:#003D7C"
   id="stop1586" />
	</linearGradient>
	<path
   id="path3336_1_"
   class="st58"
   d="M 275.4,452.7 C 259.9,442.4 256.2,421.5 244.9,411.2 L 360.5,359.1 Z" />
	<linearGradient
   id="path3338_6_"
   gradientUnits="userSpaceOnUse"
   x1="248.10001"
   y1="396.79999"
   x2="323.25"
   y2="321.64999">
		<stop
   offset="0.3541"
   style="stop-color:#004C99"
   id="stop1590" />
		<stop
   offset="0.7081"
   style="stop-color:#003D7C"
   id="stop1592" />
	</linearGradient>
	<path
   id="path3338_1_"
   class="st59"
   d="m 236.4,385.1 c -6.5,-17.3 3,-36.5 -0.1,-51.4 l 124.4,25.4 z" />
	<linearGradient
   id="path3340_6_"
   gradientUnits="userSpaceOnUse"
   x1="283.95001"
   y1="346.64999"
   x2="319.89999"
   y2="310.70001">
		<stop
   offset="0.3541"
   style="stop-color:#004C99"
   id="stop1596" />
		<stop
   offset="0.7081"
   style="stop-color:#003D7C"
   id="stop1598" />
	</linearGradient>
	<path
   id="path3340_1_"
   class="st60"
   d="m 244.9,307.6 c 5,-17.8 24,-27.8 30.3,-41.6 l 85.6,93.2 z" />
</g><g
     id="path3912_1_"
     class="st20"
     style="display:inline">
	<g
   id="g1616">
		<g
   id="g1612">
			<g
   id="g1606">
				<path
   class="st61"
   d="m 425.1,360.8 c 0,35.2 -28.8,63.8 -64.3,63.8 -35.5,0 -64.3,-28.6 -64.3,-63.8 0,-35.2 28.8,-63.8 64.3,-63.8 35.5,0 64.3,28.6 64.3,63.8 z"
   id="path1604" />
			</g>
			<g
   class="st62"
   id="g1610">
				<path
   class="st61"
   d="m 425.1,360.8 c 0,35.2 -28.8,63.8 -64.3,63.8 -35.5,0 -64.3,-28.6 -64.3,-63.8 0,-35.2 28.8,-63.8 64.3,-63.8 35.5,0 64.3,28.6 64.3,63.8 z"
   id="path1608" />
			</g>
		</g>
		<path
   class="st61"
   d="m 425.1,360.8 c 0,35.2 -28.8,63.8 -64.3,63.8 -35.5,0 -64.3,-28.6 -64.3,-63.8 0,-35.2 28.8,-63.8 64.3,-63.8 35.5,0 64.3,28.6 64.3,63.8 z"
   id="path1614" />
	</g>
	<g
   class="st62"
   id="g1620">
		<path
   class="st61"
   d="m 425.1,360.8 c 0,35.2 -28.8,63.8 -64.3,63.8 -35.5,0 -64.3,-28.6 -64.3,-63.8 0,-35.2 28.8,-63.8 64.3,-63.8 35.5,0 64.3,28.6 64.3,63.8 z"
   id="path1618" />
	</g>
</g><path
     id="path15964"
     style="fill-opacity:0;fill-rule:evenodd;stroke:#000000;stroke-width:2.007;stroke-linecap:round;paint-order:fill markers stroke"
     d="m 280.9423,363.33669 a 79.79641,79.79641 0 0 1 76.53017,-82.46446 79.79641,79.79641 0 0 1 82.92974,76.02572 79.79641,79.79641 0 0 1 -75.51844,83.39195 79.79641,79.79641 0 0 1 -83.85105,-75.00836" /><g
     aria-label="antarctic program (3)"
     id="text17098"
     style="font-size:13.3333px;line-height:1.25;-inkscape-font-specification:'sans-serif, Normal';fill:#000000;fill-opacity:1"><path
       d="m 281.29864,351.00726 -0.12072,2.18808 -1.39241,-0.0768 q 0.18277,0.3035 0.51774,0.82665 0.32392,0.51081 0.50871,0.99047 0.23879,0.56479 0.37492,1.28823 0.14784,0.72409 0.0949,1.68357 -0.0975,1.76684 -1.33536,2.93089 -1.23788,1.16404 -3.05153,1.06398 -1.48602,-0.082 -2.36383,-0.76419 -0.88887,-0.69455 -1.35021,-1.9054 -0.4607,-1.22255 -0.5556,-2.90611 -0.0949,-1.68357 -0.0826,-3.60769 l -0.33933,-0.0187 q -0.74886,-0.0413 -1.25515,0.20069 -0.50564,0.23031 -0.81358,0.70625 -0.29494,0.45319 -0.4247,1.10328 -0.12976,0.65009 -0.16914,1.36385 -0.0478,0.86587 0.1275,1.94357 0.16357,1.07705 0.53389,2.23593 l -0.006,0.11701 -2.23488,-0.1233 q -0.14001,-0.65324 -0.28349,-1.88176 -0.14348,-1.22852 -0.0783,-2.41031 0.0762,-1.38072 0.36635,-2.38579 0.27913,-1.01742 0.87039,-1.73594 0.57892,-0.70746 1.45439,-1.04647 0.87547,-0.339 2.13918,-0.26928 z m -3.33848,2.01055 -3.639,-0.20077 q 0.003,1.00951 0.0445,2.38498 0.0421,1.36377 0.22054,2.1717 0.21683,0.96262 0.7579,1.5793 0.52937,0.61604 1.52395,0.67091 1.12329,0.062 1.73408,-0.58505 0.59909,-0.64767 0.67591,-2.04008 0.0639,-1.1584 -0.32779,-2.1424 -0.4034,-0.98466 -0.99006,-1.83859 z"
       style="font-size:24px;fill:#000000;fill-opacity:1"
       id="path67852" /><path
       d="m 284.5095,336.15395 -0.5259,2.13943 -7.23767,-1.77909 q -0.87626,-0.21539 -1.66389,-0.30039 -0.79902,-0.0878 -1.29859,0.079 -0.5479,0.16702 -0.90697,0.64593 -0.37045,0.47611 -0.58025,1.32961 -0.2154,0.87626 -0.0179,1.93848 0.19747,1.06222 0.65349,2.10352 l 9.49091,2.33296 -0.52589,2.13944 -12.71145,-3.12461 0.52589,-2.13943 1.41112,0.34686 q -0.58457,-1.20564 -0.7882,-2.39005 -0.20364,-1.18441 0.0733,-2.31103 0.50631,-2.05977 2.01248,-2.83596 1.50616,-0.7762 3.83906,-0.20275 z"
       style="font-size:24px;fill:#000000;fill-opacity:1"
       id="path67854" /><path
       d="m 288.57815,325.87123 q -0.0885,0.63627 -0.27635,1.35801 -0.1833,0.71093 -0.40506,1.2406 -0.77388,1.84844 -2.17114,2.39414 -1.39727,0.5457 -3.59162,-0.37299 l -6.42092,-2.68822 -0.57475,1.37282 -1.70792,-0.71504 0.57475,-1.37282 -3.46989,-1.45273 0.85082,-2.0322 3.46989,1.45272 1.75594,-4.19414 1.70792,0.71505 -1.75594,4.19413 5.5021,2.30354 q 0.95124,0.39825 1.50983,0.5813 0.54777,0.17851 1.1212,0.11368 0.53195,-0.0568 0.9093,-0.38156 0.37108,-0.34012 0.7286,-1.19408 0.20818,-0.49724 0.29393,-1.09656 0.075,-0.60384 0.0772,-0.88238 l 0.0453,-0.10809 z"
       style="font-size:24px;fill:#000000;fill-opacity:1"
       id="path67856" /><path
       d="m 295.13337,314.81525 -1.13849,1.87246 -1.19157,-0.7245 q 0.018,0.35382 0.0666,0.97312 0.0447,0.6032 -0.0186,1.11331 -0.0558,0.61065 -0.27703,1.31277 -0.21117,0.70822 -0.71041,1.52929 -0.91932,1.51198 -2.55989,1.95454 -1.64058,0.44256 -3.19261,-0.50112 -1.27167,-0.7732 -1.72393,-1.78879 -0.45618,-1.0317 -0.29186,-2.31699 0.17041,-1.29531 0.88081,-2.8246 0.71041,-1.52929 1.62877,-3.22014 l -0.29038,-0.17656 q -0.64084,-0.38965 -1.20142,-0.41505 -0.55449,-0.0354 -1.05051,0.23901 -0.47383,0.2605 -0.89488,0.77253 -0.42104,0.51203 -0.79243,1.12283 -0.45052,0.74097 -0.80429,1.77393 -0.36378,1.02687 -0.58385,2.22341 l -0.0609,0.10013 -1.91251,-1.16285 q 0.18466,-0.64205 0.63759,-1.793 0.45294,-1.15095 1.06785,-2.16228 0.71842,-1.18155 1.44835,-1.93093 0.72602,-0.76547 1.58628,-1.12017 0.84416,-0.35077 1.77603,-0.23676 0.93187,0.11401 2.01329,0.77154 z m -3.8921,0.19819 -3.11408,-1.89343 q -0.47353,0.89157 -1.08572,2.12398 -0.6061,1.22241 -0.82985,2.01898 -0.26284,0.95109 -0.0766,1.75007 0.17622,0.79289 1.02733,1.31039 0.96126,0.58447 1.80502,0.30203 0.83375,-0.28853 1.55825,-1.48009 0.60273,-0.9913 0.72147,-2.04373 0.10872,-1.05851 -0.006,-2.0882 z"
       style="font-size:24px;fill:#000000;fill-opacity:1"
       id="path67858" /><path
       d="m 294.84384,298.32658 -0.0755,0.0896 q -0.40677,0.30087 -0.74467,0.62912 -0.33931,0.31173 -0.74709,0.79565 -0.65696,0.77964 -0.91913,1.80001 -0.27113,1.01282 -0.29083,2.14556 l 7.10637,5.98822 -1.41966,1.68474 -10.00985,-8.43486 1.41965,-1.68474 1.47863,1.24597 q 0.0392,-1.68329 0.34952,-2.72441 0.30888,-1.05763 0.98095,-1.85519 0.37002,-0.43911 0.56303,-0.6136 0.18406,-0.18205 0.57904,-0.52349 z"
       style="font-size:24px;fill:#000000;fill-opacity:1"
       id="path67860" /><path
       d="m 311.20318,296.71281 q -0.47047,1.12702 -1.01837,2.00898 -0.53916,0.87414 -1.36959,1.61561 -1.05771,0.9444 -2.21377,1.42675 -1.16385,0.4736 -2.35519,0.40618 -1.20008,-0.0596 -2.40828,-0.70898 -1.2082,-0.64936 -2.35552,-1.93435 -2.13855,-2.39514 -2.04491,-4.92954 0.10239,-2.54221 2.26152,-4.47002 0.83917,-0.74928 1.85411,-1.23131 1.02369,-0.48984 2.00117,-0.74991 l 1.63123,1.82696 -0.0874,0.078 q -1.27469,0.0856 -2.35987,0.48891 -1.07645,0.39556 -1.83695,1.07459 -1.39863,1.24878 -1.36865,2.91872 0.0309,1.65338 1.65435,3.47159 1.57659,1.76577 3.21405,2.01614 1.6384,0.23382 3.072,-1.04619 0.49826,-0.44488 0.89693,-1.03649 0.39866,-0.59161 0.62219,-1.16824 0.1945,-0.50357 0.32967,-0.9856 0.12738,-0.49077 0.17826,-0.80328 l 0.0874,-0.0781 z"
       style="font-size:24px;fill:#000000;fill-opacity:1"
       id="path67862" /><path
       d="m 319.69181,291.86162 q -0.42401,0.48258 -0.97798,0.98188 -0.54424,0.49277 -1.02085,0.81303 -1.66329,1.11764 -3.13028,0.80447 -1.46699,-0.31317 -2.79378,-2.28771 l -3.88234,-5.77773 -1.2353,0.83006 -1.03268,-1.53683 1.23531,-0.83007 -2.09803,-3.1223 1.82864,-1.22875 2.09803,3.1223 3.774,-2.53593 1.03268,1.53683 -3.77401,2.53594 3.32679,4.95095 q 0.57516,0.85596 0.94086,1.31615 0.35917,0.45047 0.87366,0.71186 0.47542,0.24529 0.96922,0.18173 0.497,-0.0798 1.26541,-0.59616 0.44744,-0.30065 0.84881,-0.75389 0.39484,-0.46297 0.55001,-0.69431 l 0.0973,-0.0654 z"
       style="font-size:24px;fill:#000000;fill-opacity:1"
       id="path67864" /><path
       d="m 317.00361,276.1279 -2.19094,1.17127 -1.07735,-2.01526 2.19094,-1.17127 z m 7.08041,13.54268 -1.94291,1.03867 -6.17128,-11.5438 1.94292,-1.03868 z"
       style="font-size:24px;fill:#000000;fill-opacity:1"
       id="path67866" /><path
       d="m 336.69891,283.41518 q -0.83581,0.89048 -1.65818,1.5243 -0.81146,0.62958 -1.84917,1.03276 -1.32171,0.51352 -2.5735,0.55985 -1.25603,0.0354 -2.34808,-0.4455 -1.10296,-0.47666 -2.00673,-1.50846 -0.90377,-1.0318 -1.52764,-2.63752 -1.16285,-2.99297 -0.18643,-5.3336 0.98735,-2.34487 3.68539,-3.39314 1.04864,-0.40742 2.16816,-0.50294 1.13046,-0.0998 2.13706,-5.4e-4 l 0.887,2.28296 -0.10923,0.0424 q -1.22375,-0.36688 -2.38148,-0.36967 -1.1468,-0.007 -2.09712,0.3622 -1.74772,0.67904 -2.30523,2.25344 -0.55084,1.55924 0.33192,3.83127 0.85728,2.2065 2.30297,3.01518 1.45237,0.79351 3.24379,0.0975 0.62262,-0.24191 1.20343,-0.65615 0.58082,-0.41425 0.99235,-0.87587 0.35873,-0.40339 0.65436,-0.80741 0.29138,-0.41495 0.44862,-0.68977 l 0.10923,-0.0424 z"
       style="font-size:24px;fill:#000000;fill-opacity:1"
       id="path67868" /><path
       d="m 358.85482,273.90247 q 0.14689,1.58697 -0.18614,2.94767 -0.33411,1.34904 -1.07835,2.3359 -0.69021,0.93479 -1.69613,1.51042 -0.99532,0.56289 -2.16221,0.6709 -1.01519,0.094 -1.8642,-0.0511 -0.83734,-0.1461 -1.73238,-0.534 l 0.5055,5.46103 -2.19374,0.20306 -1.65152,-17.84169 2.19375,-0.20307 0.12637,1.36526 q 0.80712,-0.81615 1.84696,-1.40669 1.05043,-0.6033 2.28733,-0.71779 2.35711,-0.21819 3.82928,1.44618 1.48276,1.65161 1.77548,4.81387 z m -2.25836,0.26789 q -0.21819,-2.35711 -1.13135,-3.44947 -0.91317,-1.09235 -2.58182,-0.9379 -0.94517,0.0875 -1.86422,0.58448 -0.91904,0.49698 -1.73264,1.24311 l 0.68372,7.38639 q 0.9724,0.33367 1.65157,0.4238 0.69083,0.089 1.54266,0.0102 1.83201,-0.16958 2.74438,-1.50153 0.91236,-1.33195 0.6877,-3.75908 z"
       style="font-size:24px;fill:#000000;fill-opacity:1"
       id="path67870" /><path
       d="m 371.75842,270.63625 -0.11695,-0.007 q -0.4837,-0.14836 -0.94851,-0.22505 -0.45236,-0.0876 -1.08388,-0.12801 -1.01745,-0.0651 -1.9939,0.33047 -0.9757,0.38384 -1.89843,1.04115 l -0.59297,9.27403 -2.19863,-0.14058 0.83524,-13.06317 2.19863,0.14058 -0.12338,1.92965 q 1.37713,-0.96879 2.39886,-1.33794 1.03417,-0.3801 2.07502,-0.31355 0.57304,0.0366 0.82809,0.0882 0.25579,0.0398 0.76513,0.1546 z"
       style="font-size:24px;fill:#000000;fill-opacity:1"
       id="path67872" /><path
       d="m 385.46126,277.65371 q -0.69752,3.12226 -2.70236,4.57158 -2.00485,1.44932 -4.69251,0.84889 -2.71052,-0.60553 -3.90799,-2.77025 -1.18603,-2.16216 -0.48852,-5.28442 0.69752,-3.12225 2.69093,-4.57413 2.0074,-1.46076 4.71793,-0.85522 2.68765,0.60042 3.88256,2.77658 1.19747,2.16472 0.49996,5.28697 z m -2.21875,-0.49567 q 0.55443,-2.48179 -0.14942,-3.89983 -0.7013,-1.42948 -2.42826,-1.81528 -1.74984,-0.39092 -2.9928,0.60421 -1.22897,0.98625 -1.7834,3.46804 -0.53655,2.40173 0.15708,3.86552 0.6962,1.45236 2.43459,1.84072 1.71553,0.38324 2.96104,-0.62332 1.25951,-1.01545 1.80117,-3.44006 z"
       style="font-size:24px;fill:#000000;fill-opacity:1"
       id="path67874" /><path
       d="m 397.6274,287.98454 q -1.31423,3.05766 -3.31855,3.89263 -2.00433,0.83498 -4.88972,-0.40521 -0.95821,-0.41185 -1.81319,-0.94515 -0.84885,-0.51791 -1.62525,-1.145 l 0.88848,-2.06714 0.10767,0.0463 q 0.41196,0.40666 1.36828,1.14935 0.95169,0.75344 2.02833,1.2162 1.03357,0.44424 1.81829,0.48815 0.78471,0.0439 1.35127,-0.23555 0.55729,-0.25792 0.9733,-0.78066 0.41601,-0.52274 0.73069,-1.25485 l 0.47201,-1.09817 q -1.22982,0.33877 -2.22693,0.34388 -0.98172,-0.001 -2.27369,-0.55634 -2.15327,-0.92551 -2.75734,-3.02192 -0.58867,-2.10254 0.62837,-4.9341 0.66637,-1.55036 1.57829,-2.48496 0.92731,-0.94074 2.03265,-1.43506 1.02837,-0.46362 2.21012,-0.45315 1.18637,-2.9e-4 2.17688,0.42544 1.04434,0.44887 1.6516,0.96499 0.62266,0.50998 1.22351,1.27845 l 0.35131,-0.46126 1.89489,0.81445 z m -1.19112,-2.80792 2.81817,-6.55673 q -0.65014,-0.71312 -1.28517,-1.16464 -0.61964,-0.45766 -1.30868,-0.75382 -1.66879,-0.71727 -3.10826,-0.009 -1.43948,0.70785 -2.35573,2.8396 -0.86998,2.02407 -0.60827,3.37383 0.26171,1.34976 1.90897,2.05777 0.88284,0.37946 1.90914,0.42516 1.04169,0.0396 2.02983,-0.21175 z"
       style="font-size:24px;fill:#000000;fill-opacity:1"
       id="path67876" /><path
       d="m 413.39925,286.85224 -0.0992,-0.0624 q -0.35427,-0.36121 -0.72613,-0.65043 -0.3557,-0.29289 -0.8914,-0.62976 -0.86307,-0.54273 -1.90991,-0.66114 -1.0406,-0.12833 -2.16516,0.009 l -4.94696,7.86681 -1.86503,-1.1728 6.96818,-11.081 1.86502,1.1728 -1.02932,1.63686 q 1.67252,-0.19414 2.74657,-0.0309 1.0902,0.15952 1.97311,0.71473 0.48609,0.30567 0.68563,0.47268 0.20577,0.15708 0.59859,0.50101 z"
       style="font-size:24px;fill:#000000;fill-opacity:1"
       id="path67878" /><path
       d="m 416.73244,303.56717 -1.65827,-1.43263 0.91167,-1.05526 q -0.35193,-0.0408 -0.97074,-0.0953 -0.60227,-0.0557 -1.09488,-0.20256 -0.59299,-0.15612 -1.24884,-0.49043 -0.66351,-0.32544 -1.39066,-0.95365 -1.33903,-1.15683 -1.50403,-2.84801 -0.16501,-1.69119 1.02246,-3.06569 0.97296,-1.1262 2.04939,-1.40419 1.09295,-0.27919 2.33334,0.0955 1.24926,0.38238 2.63992,1.33603 1.39066,0.95366 2.90626,2.13913 l 0.22217,-0.25716 q 0.49031,-0.56753 0.60812,-1.11618 0.12668,-0.54099 -0.0619,-1.07559 -0.17851,-0.5104 -0.61381,-1.01036 -0.4353,-0.49996 -0.97624,-0.96729 -0.65621,-0.56692 -1.61639,-1.08673 -0.95253,-0.52867 -2.09616,-0.94369 l -0.0887,-0.0766 1.46327,-1.69374 q 0.60265,0.28835 1.66279,0.92548 1.06014,0.63714 1.95578,1.41091 1.0464,0.90401 1.66467,1.74788 0.6348,0.84266 0.84226,1.74975 0.20626,0.89057 -0.0604,1.79073 -0.26662,0.90016 -1.09402,1.85788 z m 0.44853,-3.87126 2.3826,-2.75786 q -0.80093,-0.61452 -1.91506,-1.42219 -1.10527,-0.80001 -1.85384,-1.15247 -0.89449,-0.4166 -1.71327,-0.36513 -0.81112,0.0426 -1.46231,0.79635 -0.73547,0.8513 -0.59653,1.73017 0.14659,0.86999 1.20185,1.78166 0.87791,0.75845 1.89619,1.04969 1.02593,0.28237 2.06037,0.33978 z"
       style="font-size:24px;fill:#000000;fill-opacity:1"
       id="path67880" /><path
       d="m 431.15451,321.90973 -1.28481,-1.7897 6.05451,-4.34649 q 0.68542,-0.49206 1.2754,-1.01658 0.59681,-0.515 0.83408,-0.98828 0.25216,-0.51282 0.16773,-1.07251 -0.0844,-0.5597 -0.638,-1.33079 -0.53989,-0.75206 -1.46058,-1.23075 -0.91116,-0.48552 -2.03175,-0.82069 -0.19845,0.18574 -0.47989,0.41664 -0.27192,0.22406 -0.55751,0.42908 l -6.80657,4.88639 -1.28481,-1.7897 6.05451,-4.34649 q 0.70446,-0.50572 1.28491,-1.02341 0.59682,-0.51501 0.83409,-0.98828 0.25216,-0.51282 0.15821,-1.06568 -0.0844,-0.5597 -0.638,-1.33079 -0.52623,-0.73302 -1.42103,-1.21586 -0.88798,-0.47331 -1.97586,-0.80312 l -7.93941,5.69965 -1.28481,-1.7897 10.63347,-7.6337 1.28481,1.7897 -1.18044,0.84743 q 1.29634,0.33884 2.28121,0.88685 0.99171,0.55754 1.66829,1.49998 0.77909,1.08525 0.86204,2.16534 0.0898,1.08961 -0.45286,2.04177 1.69298,0.42917 2.73521,1.03699 1.05175,0.60098 1.783,1.61958 1.25747,1.75162 0.78584,3.34526 -0.45528,1.59631 -2.35922,2.96313 z"
       style="font-size:24px;fill:#000000;fill-opacity:1"
       id="path67882" /><path
       d="m 433.39761,341.88245 -0.79559,-2.56295 q 1.65703,-2.68623 4.00262,-4.61685 2.34559,-1.93061 5.71436,-2.97634 3.36877,-1.04573 6.3953,-0.78273 3.02653,0.263 5.91342,1.53871 l 0.79559,2.56295 -0.11192,0.0347 q -1.09842,-0.65293 -2.42993,-1.14761 -1.31685,-0.48696 -2.9571,-0.75083 -1.58506,-0.24419 -3.37348,-0.1553 -1.78495,0.10008 -3.62042,0.66984 -1.91382,0.59409 -3.378,1.49034 -1.46071,0.90743 -2.67788,2.04603 -1.16815,1.09884 -2.00864,2.30456 -0.85168,1.2092 -1.35641,2.31069 z"
       style="font-size:24px;fill:#000000;fill-opacity:1"
       id="path67884" /><path
       d="m 448.67969,352.99121 q -0.42247,0.62597 -1.12751,1.08976 -0.70505,0.46379 -1.9008,0.62844 -1.18414,0.16305 -2.23007,-0.13062 -1.04593,-0.29367 -1.88441,-0.97078 -0.93253,-0.75879 -1.49029,-1.88858 -0.54455,-1.11978 -0.73798,-2.5245 -0.19821,-1.43954 -0.0418,-2.8806 0.14485,-1.43946 0.42809,-2.38932 l 2.42632,-0.33409 0.024,0.17414 q -0.51424,1.0763 -0.75995,2.4705 -0.24572,1.39421 -0.0747,2.63639 0.10071,0.73138 0.458,1.52207 0.35729,0.79068 0.9036,1.23595 0.58434,0.46369 1.23479,0.63437 0.65206,0.18229 1.5924,0.0528 0.92874,-0.12788 1.49086,-0.51284 0.57532,-0.37495 0.85167,-0.94532 0.28795,-0.57197 0.31335,-1.33255 0.037,-0.76217 -0.0813,-1.62125 l -0.14386,-1.04483 1.92712,-0.26535 0.1119,0.81264 q 0.24297,1.7646 1.11822,2.70873 0.88846,0.95413 2.30478,0.75911 0.6269,-0.0863 1.0545,-0.41727 0.43921,-0.33255 0.67551,-0.85009 0.23311,-0.54076 0.27087,-1.12559 0.0378,-0.58484 -0.0613,-1.30461 -0.15186,-1.10288 -0.71761,-2.29071 -0.56576,-1.18784 -1.43739,-2.19161 l -0.016,-0.11609 2.42632,-0.33409 q 0.51982,0.76831 1.04511,2.09184 0.5385,1.33354 0.71594,2.62216 0.17423,1.26541 0.0747,2.26094 -0.0995,0.99554 -0.50322,1.84369 -0.44215,0.91259 -1.17243,1.45083 -0.73028,0.53824 -1.78672,0.6837 -1.43954,0.19822 -2.65987,-0.67473 -1.20712,-0.86294 -1.67596,-2.20607 l -0.16253,0.0224 q -0.0161,0.57003 -0.21888,1.33136 -0.19112,0.75974 -0.56353,1.31968 z"
       style="font-size:24px;fill:#000000;fill-opacity:1"
       id="path67886" /><path
       d="m 447.08152,366.18496 q -3.52622,-0.089 -6.30886,-1.30801 -2.78263,-1.21903 -5.10845,-3.3526 l 0.0677,-2.68274 0.11715,0.003 q 0.78557,0.92246 1.93431,1.85408 1.13673,0.94304 2.56023,1.67059 1.4812,0.76417 3.13409,1.22789 1.65259,0.47544 3.65586,0.52599 1.92126,0.0485 3.66603,-0.34121 1.74476,-0.3897 3.20374,-1.06796 1.50643,-0.7005 2.64124,-1.53932 1.14622,-0.82682 2.02536,-1.75415 l 0.11715,0.003 -0.0677,2.68274 q -2.43048,2.01355 -5.27105,3.09067 -2.84058,1.07711 -6.3668,0.98813 z"
       style="font-size:24px;fill:#000000;fill-opacity:1"
       id="path67888" /></g></g></svg>
