<?xml version="1.0" encoding="UTF-8" standalone="no"?>
<!-- Generator: Adobe Illustrator 20.0.0, SVG Export Plug-In . SVG Version: 6.00 Build 0)  -->

<svg
   version="1.1"
   id="svg2"
   x="0px"
   y="0px"
   viewBox="0 0 721.6 721.6"
   style="enable-background:new 0 0 721.6 721.6;"
   xml:space="preserve"
   sodipodi:docname="red15.svg"
   inkscape:version="1.1 (c68e22c387, 2021-05-23)"
   xmlns:inkscape="http://www.inkscape.org/namespaces/inkscape"
   xmlns:sodipodi="http://sodipodi.sourceforge.net/DTD/sodipodi-0.dtd"
   xmlns="http://www.w3.org/2000/svg"
   xmlns:svg="http://www.w3.org/2000/svg"><defs
   id="defs1626"><inkscape:path-effect
     effect="bspline"
     id="path-effect11541"
     is_visible="true"
     lpeversion="1"
     weight="33.333333"
     steps="2"
     helper_size="0"
     apply_no_weight="true"
     apply_with_weight="true"
     only_selected="false" /><inkscape:path-effect
     effect="fill_between_many"
     method="originald"
     linkedpaths="#g12224,0,1"
     id="path-effect12573" /></defs><sodipodi:namedview
   id="namedview1624"
   pagecolor="#ffffff"
   bordercolor="#666666"
   borderopacity="1.0"
   inkscape:pageshadow="2"
   inkscape:pageopacity="0.0"
   inkscape:pagecheckerboard="0"
   showgrid="false"
   showguides="false"
   inkscape:zoom="0.76727357"
   inkscape:cx="323.22239"
   inkscape:cy="497.21509"
   inkscape:window-width="1920"
   inkscape:window-height="1001"
   inkscape:window-x="-9"
   inkscape:window-y="-9"
   inkscape:window-maximized="1"
   inkscape:current-layer="layer1" />
<style
   type="text/css"
   id="style1226">
	
		.st0{opacity:0.9895;fill:url(#path3302_3_);stroke:#5A5A59;stroke-width:0.9965;stroke-linecap:round;stroke-linejoin:round;enable-background:new    ;}
	
		.st1{opacity:0.9895;fill:url(#path3304_3_);stroke:#5A5A59;stroke-width:0.9965;stroke-linecap:round;stroke-linejoin:round;enable-background:new    ;}
	
		.st2{opacity:0.9895;fill:url(#path3306_3_);stroke:#5A5A59;stroke-width:0.9965;stroke-linecap:round;stroke-linejoin:round;enable-background:new    ;}
	
		.st3{opacity:0.9895;fill:url(#path3310_3_);stroke:#5A5A59;stroke-width:0.9965;stroke-linecap:round;stroke-linejoin:round;enable-background:new    ;}
	
		.st4{opacity:0.9895;fill:url(#path3312_3_);stroke:#5A5A59;stroke-width:0.9965;stroke-linecap:round;stroke-linejoin:round;enable-background:new    ;}
	
		.st5{opacity:0.9895;fill:url(#path3314_3_);stroke:#5A5A59;stroke-width:0.9965;stroke-linecap:round;stroke-linejoin:round;enable-background:new    ;}
	
		.st6{opacity:0.9895;fill:url(#path3316_3_);stroke:#5A5A59;stroke-width:0.9965;stroke-linecap:round;stroke-linejoin:round;enable-background:new    ;}
	
		.st7{opacity:0.9895;fill:url(#path3318_3_);stroke:#5A5A59;stroke-width:0.9965;stroke-linecap:round;stroke-linejoin:round;enable-background:new    ;}
	
		.st8{opacity:0.9895;fill:url(#path3320_3_);stroke:#5A5A59;stroke-width:0.9965;stroke-linecap:round;stroke-linejoin:round;enable-background:new    ;}
	
		.st9{opacity:0.9895;fill:url(#path3322_3_);stroke:#5A5A59;stroke-width:0.9965;stroke-linecap:round;stroke-linejoin:round;enable-background:new    ;}
	
		.st10{opacity:0.9895;fill:url(#path3308_3_);stroke:#5A5A59;stroke-width:0.9965;stroke-linecap:round;stroke-linejoin:round;enable-background:new    ;}
	
		.st11{opacity:0.9895;fill:url(#path3324_3_);stroke:#5A5A59;stroke-width:0.9965;stroke-linecap:round;stroke-linejoin:round;enable-background:new    ;}
	
		.st12{opacity:0.9895;fill:url(#path3326_3_);stroke:#5A5A59;stroke-width:0.9965;stroke-linecap:round;stroke-linejoin:round;enable-background:new    ;}
	
		.st13{opacity:0.9895;fill:url(#path3328_3_);stroke:#5A5A59;stroke-width:0.9965;stroke-linecap:round;stroke-linejoin:round;enable-background:new    ;}
	
		.st14{opacity:0.9895;fill:url(#path3330_3_);stroke:#5A5A59;stroke-width:0.9965;stroke-linecap:round;stroke-linejoin:round;enable-background:new    ;}
	
		.st15{opacity:0.9895;fill:url(#path3332_3_);stroke:#5A5A59;stroke-width:0.9965;stroke-linecap:round;stroke-linejoin:round;enable-background:new    ;}
	
		.st16{opacity:0.9895;fill:url(#path3334_3_);stroke:#5A5A59;stroke-width:0.9965;stroke-linecap:round;stroke-linejoin:round;enable-background:new    ;}
	
		.st17{opacity:0.9895;fill:url(#path3336_3_);stroke:#5A5A59;stroke-width:0.9965;stroke-linecap:round;stroke-linejoin:round;enable-background:new    ;}
	
		.st18{opacity:0.9895;fill:url(#path3338_3_);stroke:#5A5A59;stroke-width:0.9965;stroke-linecap:round;stroke-linejoin:round;enable-background:new    ;}
	
		.st19{opacity:0.9895;fill:url(#path3340_3_);stroke:#5A5A59;stroke-width:0.9965;stroke-linecap:round;stroke-linejoin:round;enable-background:new    ;}
	.st20{opacity:0.9895;enable-background:new    ;}
	
		.st21{opacity:0.9895;fill:url(#path3302_5_);stroke:#5A5A59;stroke-width:0.9965;stroke-linecap:round;stroke-linejoin:round;enable-background:new    ;}
	
		.st22{opacity:0.9895;fill:url(#path3304_5_);stroke:#5A5A59;stroke-width:0.9965;stroke-linecap:round;stroke-linejoin:round;enable-background:new    ;}
	
		.st23{opacity:0.9895;fill:url(#path3306_5_);stroke:#5A5A59;stroke-width:0.9965;stroke-linecap:round;stroke-linejoin:round;enable-background:new    ;}
	
		.st24{opacity:0.9895;fill:url(#path3310_5_);stroke:#5A5A59;stroke-width:0.9965;stroke-linecap:round;stroke-linejoin:round;enable-background:new    ;}
	
		.st25{opacity:0.9895;fill:url(#path3312_5_);stroke:#5A5A59;stroke-width:0.9965;stroke-linecap:round;stroke-linejoin:round;enable-background:new    ;}
	
		.st26{opacity:0.9895;fill:url(#path3314_5_);stroke:#5A5A59;stroke-width:0.9965;stroke-linecap:round;stroke-linejoin:round;enable-background:new    ;}
	
		.st27{opacity:0.9895;fill:url(#path3316_5_);stroke:#5A5A59;stroke-width:0.9965;stroke-linecap:round;stroke-linejoin:round;enable-background:new    ;}
	
		.st28{opacity:0.9895;fill:url(#path3318_5_);stroke:#5A5A59;stroke-width:0.9965;stroke-linecap:round;stroke-linejoin:round;enable-background:new    ;}
	
		.st29{opacity:0.9895;fill:url(#path3320_5_);stroke:#5A5A59;stroke-width:0.9965;stroke-linecap:round;stroke-linejoin:round;enable-background:new    ;}
	
		.st30{opacity:0.9895;fill:url(#path3322_5_);stroke:#5A5A59;stroke-width:0.9965;stroke-linecap:round;stroke-linejoin:round;enable-background:new    ;}
	
		.st31{opacity:0.9895;fill:url(#path3308_5_);stroke:#5A5A59;stroke-width:0.9965;stroke-linecap:round;stroke-linejoin:round;enable-background:new    ;}
	
		.st32{opacity:0.9895;fill:url(#path3324_5_);stroke:#5A5A59;stroke-width:0.9965;stroke-linecap:round;stroke-linejoin:round;enable-background:new    ;}
	
		.st33{opacity:0.9895;fill:url(#path3326_5_);stroke:#5A5A59;stroke-width:0.9965;stroke-linecap:round;stroke-linejoin:round;enable-background:new    ;}
	
		.st34{opacity:0.9895;fill:url(#path3328_5_);stroke:#5A5A59;stroke-width:0.9965;stroke-linecap:round;stroke-linejoin:round;enable-background:new    ;}
	
		.st35{opacity:0.9895;fill:url(#path3330_5_);stroke:#5A5A59;stroke-width:0.9965;stroke-linecap:round;stroke-linejoin:round;enable-background:new    ;}
	
		.st36{opacity:0.9895;fill:url(#path3332_5_);stroke:#5A5A59;stroke-width:0.9965;stroke-linecap:round;stroke-linejoin:round;enable-background:new    ;}
	
		.st37{opacity:0.9895;fill:url(#path3334_5_);stroke:#5A5A59;stroke-width:0.9965;stroke-linecap:round;stroke-linejoin:round;enable-background:new    ;}
	
		.st38{opacity:0.9895;fill:url(#path3336_5_);stroke:#5A5A59;stroke-width:0.9965;stroke-linecap:round;stroke-linejoin:round;enable-background:new    ;}
	
		.st39{opacity:0.9895;fill:url(#path3338_5_);stroke:#5A5A59;stroke-width:0.9965;stroke-linecap:round;stroke-linejoin:round;enable-background:new    ;}
	
		.st40{opacity:0.9895;fill:url(#path3340_5_);stroke:#5A5A59;stroke-width:0.9965;stroke-linecap:round;stroke-linejoin:round;enable-background:new    ;}
	
		.st41{opacity:0.9895;fill:url(#path3302_6_);stroke:#5A5A59;stroke-width:0.9965;stroke-linecap:round;stroke-linejoin:round;enable-background:new    ;}
	
		.st42{opacity:0.9895;fill:url(#path3304_6_);stroke:#5A5A59;stroke-width:0.9965;stroke-linecap:round;stroke-linejoin:round;enable-background:new    ;}
	
		.st43{opacity:0.9895;fill:url(#path3306_6_);stroke:#5A5A59;stroke-width:0.9965;stroke-linecap:round;stroke-linejoin:round;enable-background:new    ;}
	
		.st44{opacity:0.9895;fill:url(#path3310_6_);stroke:#5A5A59;stroke-width:0.9965;stroke-linecap:round;stroke-linejoin:round;enable-background:new    ;}
	
		.st45{opacity:0.9895;fill:url(#path3312_6_);stroke:#5A5A59;stroke-width:0.9965;stroke-linecap:round;stroke-linejoin:round;enable-background:new    ;}
	
		.st46{opacity:0.9895;fill:url(#path3314_6_);stroke:#5A5A59;stroke-width:0.9965;stroke-linecap:round;stroke-linejoin:round;enable-background:new    ;}
	
		.st47{opacity:0.9895;fill:url(#path3316_6_);stroke:#5A5A59;stroke-width:0.9965;stroke-linecap:round;stroke-linejoin:round;enable-background:new    ;}
	
		.st48{opacity:0.9895;fill:url(#path3318_6_);stroke:#5A5A59;stroke-width:0.9965;stroke-linecap:round;stroke-linejoin:round;enable-background:new    ;}
	
		.st49{opacity:0.9895;fill:url(#path3320_6_);stroke:#5A5A59;stroke-width:0.9965;stroke-linecap:round;stroke-linejoin:round;enable-background:new    ;}
	
		.st50{opacity:0.9895;fill:url(#path3322_6_);stroke:#5A5A59;stroke-width:0.9965;stroke-linecap:round;stroke-linejoin:round;enable-background:new    ;}
	
		.st51{opacity:0.9895;fill:url(#path3308_6_);stroke:#5A5A59;stroke-width:0.9965;stroke-linecap:round;stroke-linejoin:round;enable-background:new    ;}
	
		.st52{opacity:0.9895;fill:url(#path3324_6_);stroke:#5A5A59;stroke-width:0.9965;stroke-linecap:round;stroke-linejoin:round;enable-background:new    ;}
	
		.st53{opacity:0.9895;fill:url(#path3326_6_);stroke:#5A5A59;stroke-width:0.9965;stroke-linecap:round;stroke-linejoin:round;enable-background:new    ;}
	
		.st54{opacity:0.9895;fill:url(#path3328_6_);stroke:#5A5A59;stroke-width:0.9965;stroke-linecap:round;stroke-linejoin:round;enable-background:new    ;}
	
		.st55{opacity:0.9895;fill:url(#path3330_6_);stroke:#5A5A59;stroke-width:0.9965;stroke-linecap:round;stroke-linejoin:round;enable-background:new    ;}
	
		.st56{opacity:0.9895;fill:url(#path3332_6_);stroke:#5A5A59;stroke-width:0.9965;stroke-linecap:round;stroke-linejoin:round;enable-background:new    ;}
	
		.st57{opacity:0.9895;fill:url(#path3334_6_);stroke:#5A5A59;stroke-width:0.9965;stroke-linecap:round;stroke-linejoin:round;enable-background:new    ;}
	
		.st58{opacity:0.9895;fill:url(#path3336_6_);stroke:#5A5A59;stroke-width:0.9965;stroke-linecap:round;stroke-linejoin:round;enable-background:new    ;}
	
		.st59{opacity:0.9895;fill:url(#path3338_6_);stroke:#5A5A59;stroke-width:0.9965;stroke-linecap:round;stroke-linejoin:round;enable-background:new    ;}
	
		.st60{opacity:0.9895;fill:url(#path3340_6_);stroke:#5A5A59;stroke-width:0.9965;stroke-linecap:round;stroke-linejoin:round;enable-background:new    ;}
	.st61{fill:#004C99;stroke:#5A5A59;stroke-width:0.9965;stroke-linecap:round;stroke-linejoin:round;}
	.st62{opacity:0.3;}
</style>





<g
   inkscape:groupmode="layer"
   id="layer1"
   inkscape:label="red"
   style="display:inline"><g
     id="g1352">
	<g
   id="g1288">
		<linearGradient
   id="path3302_3_"
   gradientUnits="userSpaceOnUse"
   x1="261.125"
   y1="263.52499"
   x2="469.875"
   y2="54.775002">
			<stop
   offset="0.3254"
   style="stop-color:#E63329"
   id="stop1228" />
			<stop
   offset="0.6124"
   style="stop-color:#B92D1F"
   id="stop1230" />
		</linearGradient>
		<path
   id="path3302_4_"
   class="st0"
   d="m 320.7,8.6 c 48.9,-18 67.6,15.3 109.7,6.7 l -71.6,345.9 z" />
		<linearGradient
   id="path3304_3_"
   gradientUnits="userSpaceOnUse"
   x1="334.72501"
   y1="332.22491"
   x2="585.56543"
   y2="81.384598">
			<stop
   offset="0.3254"
   style="stop-color:#E63329"
   id="stop1234" />
			<stop
   offset="0.6124"
   style="stop-color:#B92D1F"
   id="stop1236" />
		</linearGradient>
		<path
   id="path3304_4_"
   class="st1"
   d="m 538.9,49.8 c 50.3,13.9 46.1,53.5 85.4,71.1 l -262.9,238 z" />
		<linearGradient
   id="path3306_3_"
   gradientUnits="userSpaceOnUse"
   x1="439.5"
   y1="437.70001"
   x2="673.79999"
   y2="203.39999">
			<stop
   offset="0.3254"
   style="stop-color:#E63329"
   id="stop1240" />
			<stop
   offset="0.6124"
   style="stop-color:#B92D1F"
   id="stop1242" />
		</linearGradient>
		<path
   id="path3306_4_"
   class="st2"
   d="m 684.4,214 c 32.4,40.6 8.8,68.9 30,105.8 L 361,359.2 Z" />
		<linearGradient
   id="path3310_3_"
   gradientUnits="userSpaceOnUse"
   x1="481.39999"
   y1="480.10001"
   x2="620.15002"
   y2="341.35001">
			<stop
   offset="0.3254"
   style="stop-color:#E63329"
   id="stop1246" />
			<stop
   offset="0.6124"
   style="stop-color:#B92D1F"
   id="stop1248" />
		</linearGradient>
		<path
   id="path3310_4_"
   class="st3"
   d="m 709.1,430.3 c 2.2,51.8 -34.7,61 -39.5,103.4 L 360.5,359.2 Z" />
		<linearGradient
   id="path3312_3_"
   gradientUnits="userSpaceOnUse"
   x1="398.09509"
   y1="571.79498"
   x2="485.49509"
   y2="484.39499">
			<stop
   offset="0.3254"
   style="stop-color:#E63329"
   id="stop1252" />
			<stop
   offset="0.6124"
   style="stop-color:#B92D1F"
   id="stop1254" />
		</linearGradient>
		<path
   id="path3312_4_"
   class="st4"
   d="m 599.2,619 c -28.9,43.2 -63.5,30.1 -92.4,61.5 L 360,358.9 Z" />
		<linearGradient
   id="path3314_3_"
   gradientUnits="userSpaceOnUse"
   x1="249.675"
   y1="665.67499"
   x2="458.42499"
   y2="456.92499">
			<stop
   offset="0.3254"
   style="stop-color:#E63329"
   id="stop1258" />
			<stop
   offset="0.6124"
   style="stop-color:#B92D1F"
   id="stop1260" />
		</linearGradient>
		<path
   id="path3314_4_"
   class="st5"
   d="m 399.1,713.3 c -48.9,18 -68.8,-17.6 -110.8,-9 l 71.6,-345.9 z" />
		<linearGradient
   id="path3316_3_"
   gradientUnits="userSpaceOnUse"
   x1="135.493"
   y1="635.80701"
   x2="386.75"
   y2="384.54999">
			<stop
   offset="0.3254"
   style="stop-color:#E63329"
   id="stop1264" />
			<stop
   offset="0.6124"
   style="stop-color:#B92D1F"
   id="stop1266" />
		</linearGradient>
		<path
   id="path3316_4_"
   class="st6"
   d="M 181.9,667.4 C 131.6,653.5 136.5,613.5 97.4,595.9 l 262.7,-238 z" />
		<linearGradient
   id="path3318_3_"
   gradientUnits="userSpaceOnUse"
   x1="48.525002"
   y1="512.52502"
   x2="282.02499"
   y2="279.0249">
			<stop
   offset="0.3254"
   style="stop-color:#E63329"
   id="stop1270" />
			<stop
   offset="0.6124"
   style="stop-color:#B92D1F"
   id="stop1272" />
		</linearGradient>
		<path
   id="path3318_4_"
   class="st7"
   d="M 38.1,502.1 C 5.7,461.5 28.3,433.9 7.1,396.8 l 353.5,-39.2 z" />
		<linearGradient
   id="path3320_3_"
   gradientUnits="userSpaceOnUse"
   x1="101.275"
   y1="375.375"
   x2="240.075"
   y2="236.575">
			<stop
   offset="0.3254"
   style="stop-color:#E63329"
   id="stop1276" />
			<stop
   offset="0.6124"
   style="stop-color:#B92D1F"
   id="stop1278" />
		</linearGradient>
		<path
   id="path3320_4_"
   class="st8"
   d="M 13.2,287.3 C 11,235.5 47.1,225.4 51.8,183 L 361,357.5 Z" />
		<linearGradient
   id="path3322_3_"
   gradientUnits="userSpaceOnUse"
   x1="235.16949"
   y1="231.36951"
   x2="322.5195"
   y2="144.0195">
			<stop
   offset="0.3254"
   style="stop-color:#E63329"
   id="stop1282" />
			<stop
   offset="0.6124"
   style="stop-color:#B92D1F"
   id="stop1284" />
		</linearGradient>
		<path
   id="path3322_4_"
   class="st9"
   d="M 119.9,96.5 C 148.8,53.3 185.7,67.7 214.6,36.1 L 361.5,357.7 Z" />
	</g>
	<g
   id="g1350">
		<linearGradient
   id="path3308_3_"
   gradientUnits="userSpaceOnUse"
   x1="399.625"
   y1="398.625"
   x2="651.23077"
   y2="147.0192">
			<stop
   offset="0.3254"
   style="stop-color:#E63329"
   id="stop1290" />
			<stop
   offset="0.6124"
   style="stop-color:#B92D1F"
   id="stop1292" />
		</linearGradient>
		<path
   id="path3308_4_"
   class="st10"
   d="m 599.4,98 c 43.5,28.7 53.7,87.5 85.5,116.2 L 361.1,360.1 Z" />
		<linearGradient
   id="path3324_3_"
   gradientUnits="userSpaceOnUse"
   x1="240.35001"
   y1="238.35001"
   x2="396.10001"
   y2="82.599998">
			<stop
   offset="0.3254"
   style="stop-color:#E63329"
   id="stop1296" />
			<stop
   offset="0.6124"
   style="stop-color:#B92D1F"
   id="stop1298" />
		</linearGradient>
		<path
   id="path3324_4_"
   class="st11"
   d="M 184,53 C 224.9,20.9 284.5,29.3 321.7,8.2 l 39.5,351 z" />
		<linearGradient
   id="path3326_3_"
   gradientUnits="userSpaceOnUse"
   x1="282.97501"
   y1="281.375"
   x2="524.32501"
   y2="40.025002">
			<stop
   offset="0.3254"
   style="stop-color:#E63329"
   id="stop1302" />
			<stop
   offset="0.6124"
   style="stop-color:#B92D1F"
   id="stop1304" />
		</linearGradient>
		<path
   id="path3326_4_"
   class="st12"
   d="m 399.1,8.6 c 52.2,-2.2 95.3,39.5 138,44.2 L 361.3,359.7 Z" />
		<linearGradient
   id="path3328_3_"
   gradientUnits="userSpaceOnUse"
   x1="465.27499"
   y1="465.17499"
   x2="675.97498"
   y2="254.47501">
			<stop
   offset="0.3254"
   style="stop-color:#E63329"
   id="stop1308" />
			<stop
   offset="0.6124"
   style="stop-color:#B92D1F"
   id="stop1310" />
		</linearGradient>
		<path
   id="path3328_4_"
   class="st13"
   d="m 709.1,287.6 c 18.2,48.5 -9,102 -0.3,143.8 L 360.4,360.3 Z" />
		<linearGradient
   id="path3330_3_"
   gradientUnits="userSpaceOnUse"
   x1="474.5"
   y1="495.79999"
   x2="575.29999"
   y2="395">
			<stop
   offset="0.3254"
   style="stop-color:#E63329"
   id="stop1314" />
			<stop
   offset="0.6124"
   style="stop-color:#B92D1F"
   id="stop1316" />
		</linearGradient>
		<path
   id="path3330_4_"
   class="st14"
   d="m 684.6,504.3 c -14,49.9 -67.2,77.8 -85,116.6 L 360,360.1 Z" />
		<linearGradient
   id="path3332_3_"
   gradientUnits="userSpaceOnUse"
   x1="324.85001"
   y1="636.15002"
   x2="480.5"
   y2="480.5">
			<stop
   offset="0.3254"
   style="stop-color:#E63329"
   id="stop1320" />
			<stop
   offset="0.6124"
   style="stop-color:#B92D1F"
   id="stop1322" />
		</linearGradient>
		<path
   id="path3332_4_"
   class="st15"
   d="m 537,665.8 c -40.9,32.1 -100.5,23.7 -137.7,44.8 l -39.7,-351 z" />
		<linearGradient
   id="path3334_3_"
   gradientUnits="userSpaceOnUse"
   x1="196.72501"
   y1="678.72498"
   x2="438.07501"
   y2="437.375">
			<stop
   offset="0.3254"
   style="stop-color:#E63329"
   id="stop1326" />
			<stop
   offset="0.6124"
   style="stop-color:#B92D1F"
   id="stop1328" />
		</linearGradient>
		<path
   id="path3334_4_"
   class="st16"
   d="M 322,710.2 C 269.8,712.4 226.7,670.7 184,666 L 359.7,359 Z" />
		<linearGradient
   id="path3336_3_"
   gradientUnits="userSpaceOnUse"
   x1="69.769203"
   y1="571.68073"
   x2="321.42499"
   y2="320.02499">
			<stop
   offset="0.3254"
   style="stop-color:#E63329"
   id="stop1332" />
			<stop
   offset="0.6124"
   style="stop-color:#B92D1F"
   id="stop1334" />
		</linearGradient>
		<path
   id="path3336_4_"
   class="st17"
   d="M 121.6,620.7 C 78.1,592 67.9,533.2 36.1,504.5 L 360,358.6 Z" />
		<linearGradient
   id="path3338_3_"
   gradientUnits="userSpaceOnUse"
   x1="45.275002"
   y1="463.97501"
   x2="255.72501"
   y2="253.52499">
			<stop
   offset="0.3254"
   style="stop-color:#E63329"
   id="stop1338" />
			<stop
   offset="0.6124"
   style="stop-color:#B92D1F"
   id="stop1340" />
		</linearGradient>
		<path
   id="path3338_4_"
   class="st18"
   d="M 12.6,431.3 C -5.6,382.8 21,329 12.2,287.3 l 348.4,71.1 z" />
		<linearGradient
   id="path3340_3_"
   gradientUnits="userSpaceOnUse"
   x1="145.75"
   y1="323.85001"
   x2="246.55"
   y2="223.05">
			<stop
   offset="0.3254"
   style="stop-color:#E63329"
   id="stop1344" />
			<stop
   offset="0.6124"
   style="stop-color:#B92D1F"
   id="stop1346" />
		</linearGradient>
		<path
   id="path3340_4_"
   class="st19"
   d="m 36.4,214.5 c 14,-49.9 67.2,-77.8 85,-116.6 l 239.7,260.9 z" />
	</g>
</g><g
     aria-label="15. Name contains 4 different consonants "
     id="text94680"
     style="font-size:56px;line-height:1.25;-inkscape-font-specification:'sans-serif, Normal'"><path
       d="m 146.23725,507.93722 13.36963,17.52065 -3.30414,2.52132 -5.14216,-6.73871 -21.69431,16.55446 5.14217,6.73871 -2.95634,2.25592 q -1.04502,-1.36948 -2.45671,-2.76873 -1.43342,-1.38265 -2.48192,-1.8552 -1.30648,-0.58524 -2.56379,-0.5201 -1.29564,0.06 -2.77495,1.05125 l -2.57108,-3.36936 29.1721,-22.2606 -5.04264,-6.60829 z"
       id="path3291" /><path
       d="m 115.71133,482.03832 q 2.47266,-1.40459 5.24456,-1.78415 2.77189,-0.37955 5.20868,0.31177 2.63669,0.76645 4.89073,2.6308 2.21675,1.85408 3.98598,4.96868 1.64769,2.90062 2.55565,5.93841 0.93175,3.02429 1.12926,5.36498 l -5.01665,2.84969 -0.18908,-0.33286 q 0.12887,-2.65189 -0.47704,-5.76692 -0.6297,-3.10151 -2.06129,-5.62173 -0.9589,-1.68807 -2.32578,-2.98714 -1.38039,-1.32286 -3.27146,-1.88391 -1.6166,-0.46538 -3.34026,-0.17811 -1.73716,0.2635 -3.61544,1.33044 -1.83072,1.03993 -2.72617,2.39767 -0.90897,1.33396 -1.03502,2.8836 -0.20118,1.74954 0.4551,3.73529 0.61901,1.97549 1.86152,4.16284 1.1885,2.09226 2.58126,3.87979 1.37927,1.76376 2.4614,3.00445 l -18.23588,10.3588 -12.101026,-21.30294 4.16073,-2.36348 9.494436,16.71425 9.41514,-5.34822 q -0.67584,-0.96833 -1.33114,-2.01122 -0.65531,-1.04289 -1.10099,-1.82749 -1.63418,-2.87685 -2.3639,-5.32404 -0.7535,-2.4337 -0.5436,-4.94293 0.22721,-2.64486 1.70145,-4.86597 1.47423,-2.22112 4.58883,-3.99035 z"
       id="path3293" /><path
       d="m 119.99734,459.65499 2.60051,5.99547 -7.14941,3.10102 -2.60051,-5.99547 z"
       id="path3295" /><path
       d="m 102.43388,399.12758 1.42255,6.54644 -31.491987,26.59847 35.591257,-7.73404 1.07417,4.94323 -39.786321,8.64563 -1.782545,-8.20309 28.752441,-24.26829 -32.49172,7.06051 -1.074171,-4.94323 z"
       id="path3297" /><path
       d="m 99.592165,365.05876 0.353659,5.10104 -3.246114,0.22505 q 0.511011,0.64981 1.43796,1.76414 0.89778,1.08896 1.464438,2.14604 0.716292,1.23858 1.240822,2.87419 0.55182,1.63372 0.7069,3.87053 0.28558,4.11902 -2.243671,7.17236 -2.529248,3.05334 -6.75738,3.34648 -3.46434,0.24019 -5.694171,-1.08532 -2.259001,-1.3509 -3.677537,-4.0209 -1.420427,-2.69728 -2.127324,-6.56781 -0.706898,-3.87053 -1.235285,-8.32904 l -0.79107,0.0548 q -1.745809,0.12103 -2.847998,0.82787 -1.104081,0.67955 -1.679327,1.87063 -0.551752,1.13463 -0.664069,2.67734 -0.112318,1.54271 0.003,3.20669 0.139951,2.01859 0.857618,4.46308 0.690389,2.44639 1.883133,5.02241 l 0.01891,0.27278 -5.21015,0.36123 q -0.513191,-1.47194 -1.200887,-4.27484 -0.687697,-2.80289 -0.878711,-5.558 -0.223164,-3.21884 0.157864,-5.62987 0.35186,-2.43642 1.5129,-4.27112 1.135653,-1.80552 3.064556,-2.84377 1.928903,-1.03824 4.874956,-1.24249 z m -7.147865,5.62112 -8.483541,0.58817 q 0.299036,2.33648 0.793093,5.50912 0.492164,3.14537 1.139055,4.96436 0.780589,2.16604 2.211786,3.43728 1.403918,1.27314 3.722571,1.11239 2.618714,-0.18156 3.845658,-1.85637 1.199665,-1.67292 0.97461,-4.91903 -0.187232,-2.70055 -1.378887,-4.8655 -1.218933,-2.16306 -2.824345,-3.97042 z"
       id="path3299" /><path
       d="m 103.31361,310.72955 -0.51121,5.11515 -17.30442,-1.7294 q -1.958991,-0.19578 -3.800975,-0.1875 -1.839265,-0.0189 -2.984696,0.44367 -1.232494,0.50886 -1.947999,1.61899 -0.715505,1.11013 -0.935758,3.314 -0.214815,2.14945 0.658699,4.40766 0.846306,2.2555 2.291192,4.57082 0.633946,-0.0191 1.482839,0.0108 0.821685,0.0272 1.637931,0.10874 l 19.453867,1.9442 -0.5112,5.11515 -17.304422,-1.7294 q -2.013408,-0.20121 -3.828184,-0.19022 -1.839265,-0.0189 -2.984696,0.44367 -1.232494,0.50886 -1.920791,1.62171 -0.715505,1.11013 -0.935758,3.314 -0.209376,2.09503 0.612441,4.3206 0.824535,2.19836 2.220444,4.45383 l 22.691648,2.26778 -0.511204,5.11515 -30.391572,-3.03732 0.511204,-5.11514 3.373818,0.33718 q -1.746912,-2.59282 -2.625881,-5.07143 -0.87625,-2.5058 -0.607052,-5.19942 0.309986,-3.10173 1.830795,-5.12066 1.523527,-2.04614 3.942273,-2.87613 -2.302003,-3.36278 -3.189145,-6.03455 -0.914351,-2.6745 -0.6234,-5.58578 0.500327,-5.00631 3.784215,-7.06888 3.259399,-2.09249 8.701041,-1.54866 z"
       id="path3301" /><path
       d="m 98.604358,272.534 -5.974428,21.69636 q 2.71534,0.74771 4.970294,0.48944 2.228591,-0.26553 3.912356,-1.3334 1.64289,-1.0224 2.791,-2.71992 1.15537,-1.72387 1.77968,-3.99105 0.82756,-3.00533 0.47607,-6.36369 -0.37059,-3.39198 -1.17484,-5.00316 l 0.0726,-0.26362 5.40432,1.48816 q 0.36487,2.79481 0.35798,5.60071 -0.007,2.80589 -0.79815,5.6794 -2.01809,7.32879 -7.10493,10.35244 -5.113195,3.0164 -12.415614,1.00556 -7.223333,-1.98905 -10.38606,-7.08582 -3.155467,-5.12313 -1.384191,-11.55559 1.640608,-5.95793 6.0061,-8.21593 4.372751,-2.28436 10.778845,-0.52034 z m -5.124661,3.779 q -3.908914,-1.04802 -6.581469,0.3148 -2.665295,1.33646 -3.754195,5.29084 -1.096158,3.98074 0.596767,6.99945 1.700185,2.99235 5.092926,4.26693 z"
       id="path3303" /><path
       d="m 131.56077,229.89752 q -0.0581,2.84906 -0.49386,5.23222 -0.42341,2.35874 -1.59264,4.67838 -1.48922,2.95449 -3.5869,4.98987 -2.12209,2.02306 -4.76628,2.89496 -2.6565,0.8963 -5.83471,0.51915 -3.1782,-0.37715 -6.76754,-2.18637 -6.69033,-3.3723 -8.653275,-8.95488 -1.950638,-5.607 1.089355,-11.63806 1.18153,-2.34406 2.9731,-4.25814 1.80388,-1.9385 3.70384,-3.33863 l 5.1032,2.5723 -0.12307,0.24417 q -2.69442,1.27528 -4.70574,3.07859 -1.99902,1.77889 -3.06978,3.9032 -1.96923,3.90676 -0.47677,7.50679 1.48034,3.5633 6.55913,6.12329 4.93229,2.48615 8.70146,1.63013 3.75706,-0.89275 5.77551,-4.89718 0.70154,-1.39178 1.06143,-3.01701 0.35989,-1.62524 0.35233,-3.06823 -0.008,-1.25957 -0.12667,-2.42167 -0.14293,-1.1744 -0.29957,-1.89639 l 0.12308,-0.24418 z"
       id="path3305" /><path
       d="m 138.48542,194.96118 q 6.20093,4.15602 7.65845,9.74129 1.45752,5.58527 -2.12001,10.92306 -3.60797,5.38322 -9.32807,6.15786 -5.70488,0.75194 -11.9058,-3.40408 -6.20092,-4.15602 -7.67366,-9.71858 -1.48024,-5.60049 2.12773,-10.98371 3.57753,-5.33779 9.32034,-6.09721 5.7201,-0.77465 11.92102,3.38137 z m -2.95336,4.40651 q -4.92893,-3.3035 -8.6079,-2.97127 -3.70168,0.31699 -6.00043,3.74681 -2.3292,3.47524 -1.21551,7.01962 1.10619,3.50644 6.03513,6.80994 4.76994,3.19694 8.53976,2.92561 3.74711,-0.28655 6.06109,-3.73908 2.28352,-3.4071 1.14712,-6.9667 -1.14389,-3.59754 -5.95926,-6.82493 z"
       id="path3307" /><path
       d="m 173.08072,178.09432 -3.41216,3.84489 -13.00718,-11.54328 q -1.57476,-1.39754 -3.10836,-2.42951 -1.55406,-1.05012 -2.76681,-1.24898 -1.31271,-0.251 -2.57478,0.34722 -1.28253,0.58008 -2.64376,2.11395 -1.39754,1.57476 -2.14496,3.98239 -0.74743,2.40762 -0.93832,5.05322 l 17.05658,15.13694 -3.41217,3.84489 -22.84436,-20.27333 3.41216,-3.84489 2.53599,2.25057 q 0.10423,-3.12467 0.97179,-5.79125 0.86757,-2.66659 2.66441,-4.69129 3.28511,-3.70173 7.23856,-3.66629 3.95345,0.0354 8.14601,3.75614 z"
       id="path3309" /><path
       d="m 191.92693,160.50043 q -0.81934,1.25517 -1.93328,2.59206 -1.09364,1.31856 -2.08827,2.21626 -3.47109,3.13281 -6.96316,2.89586 -3.49208,-0.23696 -7.21115,-4.3576 l -10.8824,-12.05745 -2.57794,2.32671 -2.89464,-3.2072 2.57794,-2.32671 -5.88089,-6.5159 3.81616,-3.44426 5.88089,6.5159 7.87591,-7.10837 2.89465,3.2072 -7.87591,7.10837 9.32515,10.33206 q 1.6122,1.78628 2.60943,2.72794 0.9789,0.92135 2.25385,1.35451 1.17939,0.4089 2.29884,0.0984 1.12142,-0.34912 2.72502,-1.79644 0.93374,-0.84275 1.71051,-2.02266 0.75845,-1.20021 1.04013,-1.78595 l 0.20299,-0.1832 z"
       id="path3311" /><path
       d="m 216.09499,142.76994 -4.13935,3.0019 -1.9103,-2.63413 q -0.28049,0.77763 -0.73468,2.15411 -0.4481,1.33829 -1.04457,2.37885 -0.67115,1.26361 -1.78063,2.57487 -1.09342,1.3334 -2.90853,2.64975 -3.34247,2.424 -7.272,1.89601 -3.92953,-0.528 -6.41774,-3.95901 -2.03873,-2.81121 -2.09554,-5.40465 -0.0507,-2.63162 1.46257,-5.24907 1.53544,-2.6335 4.44398,-5.28325 2.90854,-2.64974 6.41034,-5.45951 l -0.46553,-0.64193 q -1.02739,-1.41668 -2.21074,-1.97715 -1.1612,-0.57653 -2.47617,-0.43356 -1.25464,0.133 -2.62265,0.85488 -1.36802,0.72189 -2.71829,1.70112 -1.63803,1.18792 -3.3313,3.09145 -1.70933,1.8814 -3.26252,4.25755 l -0.22135,0.16053 -3.06612,-4.22789 q 0.97666,-1.21495 2.9898,-3.2829 2.01314,-2.06795 4.24883,-3.6893 2.612,-1.89425 4.85885,-2.84815 2.25294,-0.99208 4.4241,-0.9791 2.13298,0.007 4.03532,1.09304 1.90234,1.08615 3.63606,3.47679 z m -8.55392,-3.08537 -4.99247,-6.88416 q -1.8234,1.49123 -4.25273,3.59079 -2.40719,2.0835 -3.6074,3.59568 -1.42376,1.80941 -1.74394,3.6967 -0.33624,1.86515 1.02827,3.74667 1.54108,2.12502 3.61154,2.27859 2.0544,0.13143 4.68853,-1.77888 2.19142,-1.58924 3.39653,-3.74674 1.18904,-2.17963 1.87167,-4.49865 z"
       id="path3313" /><path
       d="m 211.27751,104.18735 -4.99413,2.94319 -2.70719,-4.59365 4.99413,-2.943203 z m 17.82076,30.88521 -4.42876,2.61 -15.50732,-26.31341 4.42876,-2.61001 z"
       id="path3315" /><path
       d="m 261.05704,119.1711 -4.66484,2.15993 -7.307,-15.78105 q -0.88465,-1.9106 -1.87773,-3.46967 -1.00457,-1.58388 -2.03666,-2.251037 -1.10286,-0.754921 -2.49885,-0.711197 -1.40748,0.01891 -3.26846,0.880584 -1.9106,0.88465 -3.5583,2.79262 -1.64771,1.90797 -2.88046,4.25659 l 9.58182,20.69402 -4.66484,2.15993 -12.8332,-27.71609 4.66484,-2.15993 1.42463,3.0768 q 1.34485,-2.82237 3.20622,-4.919671 1.86137,-2.097297 4.31785,-3.234708 4.49115,-2.079507 8.10068,-0.466348 3.60954,1.61316 5.96478,6.699817 z"
       id="path3317" /><path
       d="m 288.50422,100.76716 q 1.26854,3.98664 -1.22811,7.59314 -2.47059,3.5982 -8.17695,5.41395 -3.231,1.02809 -6.18131,1.13473 -2.93255,0.0723 -5.04669,-0.25932 l -1.74941,-5.49791 0.26056,-0.0829 q 2.87453,1.00788 6.04632,1.14641 3.16351,0.11247 5.76915,-0.71663 3.231,-1.0281 4.72331,-2.65073 1.49231,-1.62263 0.77928,-3.86349 -0.54721,-1.71973 -1.81925,-2.29058 -1.27205,-0.57086 -4.28513,-0.30078 -1.11688,0.0971 -2.91004,0.32338 -1.7671,0.21795 -3.26417,0.29258 -4.15365,0.20259 -6.39098,-1.237596 -2.21957,-1.474535 -3.13159,-4.340745 -0.57208,-1.797895 -0.34826,-3.619489 0.24989,-1.829884 1.36319,-3.561477 1.06948,-1.688953 3.08647,-3.10551 2.03477,-1.450904 4.82281,-2.338049 2.60564,-0.829108 5.47068,-1.023386 2.8828,-0.228626 4.94482,0.119557 l 1.66651,5.237346 -0.26056,0.08291 q -2.3155,-0.784034 -5.29779,-0.868086 -2.99058,-0.110108 -5.57017,0.710709 -2.68382,0.853981 -4.20218,2.484905 -1.52666,1.604868 -0.87995,3.637272 0.57208,1.797895 1.98269,2.353354 1.38456,0.563751 4.01627,0.357632 1.45443,-0.118459 3.22154,-0.33641 1.79316,-0.226243 2.9965,-0.322194 3.66213,-0.304438 6.11738,1.009017 2.46355,1.339511 3.47506,4.518399 z"
       id="path3319" /><path
       d="m 344.11149,89.16009 -6.00805,0.648727 1.22994,11.390823 -5.21966,0.5636 -1.22994,-11.390824 -19.38342,2.09295 -0.67515,-6.252718 17.13517,-24.952448 5.00217,-0.540116 2.67123,24.739016 6.00804,-0.648727 z m -11.69737,-3.137391 -1.9726,-18.268812 -13.71357,19.962546 z"
       id="path3321" /><path
       d="m 397.49128,103.27164 -5.11415,-0.52112 0.32432,-3.18274 q -2.39747,1.67968 -4.89943,2.49666 -2.50196,0.81698 -5.30386,0.53147 -5.44057,-0.55439 -8.22364,-5.07072 -2.75585,-4.513561 -1.99912,-11.939949 0.39362,-3.86281 1.78942,-6.771453 1.423,-2.905871 3.51621,-4.836432 2.06047,-1.878928 4.6196,-2.717569 2.58634,-0.835869 5.22502,-0.566992 2.39386,0.243931 4.19099,0.949277 1.7999,0.678144 3.73201,1.946952 l 1.34162,-13.166197 5.11414,0.521124 z m -4.35186,-8.001916 1.77681,-17.43705 q -1.97318,-1.135565 -3.56931,-1.655519 -1.59614,-0.519954 -3.52755,-0.716761 -4.29805,-0.437966 -6.99682,2.310421 -2.69877,2.748387 -3.2587,8.24337 -0.55161,5.413375 1.0099,8.430966 1.56429,2.990389 5.64472,3.40618 2.17623,0.221755 4.50389,-0.503047 2.33042,-0.752005 4.41706,-2.07856 z"
       id="path3323" /><path
       d="m 419.82551,71.34964 -5.6849,-1.133876 1.04296,-5.229035 5.6849,1.133876 z m -7.29619,34.90331 -5.04133,-1.00551 5.97425,-29.952984 5.04132,1.005513 z"
       id="path3325" /><path
       d="m 448.09963,76.505875 -0.264,-0.0712 q -0.75435,-0.458309 -2.01031,-1.051888 -1.24883,-0.619979 -2.25206,-0.890518 -3.19448,-0.861455 -5.03096,0.172609 -1.80297,1.014784 -2.79969,4.710874 l -0.27054,1.003224 8.94982,2.413497 -1.12488,4.171302 -8.79141,-2.37078 -6.82756,25.31822 -4.96333,-1.33846 6.82757,-25.318219 -3.35289,-0.904171 1.12488,-4.171302 3.35288,0.904172 0.26342,-0.976824 q 1.41677,-5.253728 4.7851,-7.34737 3.37545,-2.120042 8.31237,-0.788703 1.66324,0.448526 2.94055,0.962903 1.30372,0.521496 2.35559,1.031718 z"
       id="path3327" /><path
       d="m 469.32585,84.003639 -0.25794,-0.09074 q -0.71796,-0.513441 -1.92601,-1.199286 -1.19897,-0.711641 -2.17915,-1.056451 -3.12111,-1.097947 -5.02979,-0.204124 -1.8738,0.877103 -3.14416,4.4883 l -0.34481,0.980182 8.74426,3.076068 -1.43369,4.075494 -8.58949,-3.021624 -8.70191,24.736702 -4.84932,-1.7059 8.70191,-24.736705 -3.27587,-1.152391 1.43368,-4.075494 3.27588,1.152391 0.33573,-0.954388 q 1.80572,-5.133058 5.32119,-6.96893 3.52454,-1.861665 8.34807,-0.164837 1.62504,0.571659 2.86031,1.180122 1.26106,0.617537 2.27183,1.204997 z"
       id="path3329" /><path
       d="m 489.29355,118.22292 -20.36638,-9.57267 q -1.19804,2.5489 -1.32652,4.81495 -0.11685,2.24131 0.64953,4.08199 0.72851,1.79267 2.20635,3.21242 1.5026,1.43138 3.6308,2.43168 2.8211,1.32598 6.19037,1.55 3.40564,0.21091 5.13,-0.308 l 0.24747,0.11632 -2.38444,5.07304 q -2.81618,-0.11513 -5.58014,-0.59849 -2.76395,-0.48335 -5.46132,-1.75118 -6.87953,-3.23354 -8.99528,-8.76002 -2.10411,-5.55123 1.1178,-12.40601 3.18701,-6.780551 8.7469,-9.031658 5.58464,-2.239475 11.62279,0.598594 5.59272,2.628704 7.07645,7.314284 1.50847,4.6972 -1.31797,10.71061 z m -2.85368,-5.69205 q 1.6967,-3.67411 0.80761,-6.53931 -0.86435,-2.85356 -4.57633,-4.59828 -3.73673,-1.756343 -6.99911,-0.60073 -3.23764,1.16724 -5.06995,4.29421 z"
       id="path3331" /><path
       d="m 518.98573,124.26885 -0.23329,-0.14263 q -0.83719,-0.83233 -1.71331,-1.49616 -0.83852,-0.6729 -2.0983,-1.4431 -2.02964,-1.24087 -4.47555,-1.48632 -2.43166,-0.26879 -5.05138,0.0846 l -11.31047,18.50004 -4.38589,-2.68142 15.93165,-26.05869 4.38588,2.68142 -2.35337,3.84931 q 3.89653,-0.50218 6.40723,-0.15301 2.5483,0.3401 4.6246,1.60949 1.14313,0.69889 1.61358,1.08266 0.48472,0.36044 1.41136,1.15131 z"
       id="path3333" /><path
       d="m 539.20456,152.30168 -17.80598,-13.76129 q -1.72225,2.22845 -2.33906,4.41273 -0.60009,2.16264 -0.2511,4.1257 0.32245,1.90799 1.45726,3.61443 1.15645,1.72315 3.0171,3.16115 2.46644,1.90618 5.70696,2.85548 3.27887,0.9444 5.07473,0.81176 l 0.21635,0.16721 -3.42778,4.43527 q -2.7242,-0.72307 -5.31758,-1.79428 -2.59337,-1.07121 -4.95163,-2.89379 -6.01466,-4.6484 -6.88166,-10.50218 -0.85027,-5.87541 3.78141,-11.86843 4.58153,-5.92811 10.49727,-6.92001 5.93738,-0.97517 11.21643,3.10472 4.88961,3.77892 5.32198,8.67475 0.454,4.91255 -3.60917,10.16996 z m -1.55148,-6.17543 q 2.45305,-3.21876 2.20642,-6.20858 -0.22499,-2.9731 -3.47031,-5.48123 -3.26695,-2.52485 -6.7023,-2.10418 -3.41372,0.4374 -5.8805,3.09263 z"
       id="path3335" /><path
       d="m 554.00974,187.31565 -3.62537,-3.64454 12.32939,-12.26457 q 1.49271,-1.48487 2.61801,-2.95136 1.14468,-1.48578 1.41853,-2.68383 0.3321,-1.29457 -0.18652,-2.59139 -0.49925,-1.31609 -1.94554,-2.77003 -1.48486,-1.49271 -3.84137,-2.38833 -2.35652,-0.89562 -4.98514,-1.25058 l -16.1678,16.08279 -3.62537,-3.64454 21.65398,-21.54014 3.62538,3.64454 -2.40384,2.3912 q 3.11215,0.29823 5.71966,1.32986 2.6075,1.03163 4.51661,2.95083 3.49039,3.50883 3.20931,7.45244 -0.28108,3.9436 -4.25518,7.8968 z"
       id="path3337" /><path
       d="m 570.46149,207.16509 q -1.20465,-0.89196 -2.47348,-2.08283 -1.25175,-1.16951 -2.08922,-2.21538 -2.92258,-3.64985 -2.48002,-7.12187 0.44255,-3.47202 4.77542,-6.94151 l 12.67844,-10.15213 -2.17057,-2.71071 3.37238,-2.7004 2.17057,2.71071 6.85149,-5.48625 3.21313,4.01271 -6.85148,5.48625 6.63135,8.28154 -3.37238,2.7004 -6.63136,-8.28155 -10.86418,8.69939 q -1.87829,1.50402 -2.87714,2.44395 -0.9775,0.92284 -1.48511,2.17002 -0.47776,1.15322 -0.23384,2.28903 0.28236,1.14006 1.63256,2.82625 0.78619,0.98183 1.91822,1.82686 1.15338,0.82793 1.72148,1.14368 l 0.17091,0.21344 z"
       id="path3339" /><path
       d="m 597.19466,247.75444 q -2.31705,-1.65887 -4.03633,-3.36573 -1.7061,-1.68291 -2.95825,-3.95886 -1.59484,-2.89884 -2.08756,-5.77985 -0.46877,-2.89419 0.30716,-5.56811 0.76275,-2.69789 2.87084,-5.10604 2.10809,-2.40815 5.62982,-4.34569 6.56431,-3.61146 12.27873,-2.07402 5.72761,1.5614 8.9832,7.47887 1.26533,2.2999 1.83109,4.85985 0.57894,2.58391 0.6595,4.94267 l -5.00709,2.75473 -0.1318,-0.23958 q 0.47162,-2.94342 0.12147,-5.622 -0.33696,-2.65462 -1.48366,-4.73891 -2.10889,-3.83317 -5.92207,-4.63771 -3.77604,-0.79376 -8.75917,1.94779 -4.83939,2.66246 -6.26449,6.2553 -1.38797,3.60362 0.77364,7.53262 0.75129,1.36557 1.8883,2.58135 1.13701,1.21577 2.33147,2.02543 1.04351,0.70546 2.06902,1.26478 1.04948,0.54613 1.73354,0.82516 l 0.13181,0.23958 z"
       id="path3341" /><path
       d="m 622.14641,273.15904 q -6.92758,2.78075 -12.36297,0.83751 -5.43539,-1.94323 -7.82908,-7.90653 -2.41405,-6.01406 0.1693,-11.17603 2.59353,-5.1366 9.52111,-7.91734 6.92757,-2.78075 12.35278,-0.86289 5.46077,1.93305 7.87482,7.9471 2.39368,5.96331 -0.21504,11.13546 -2.58334,5.16198 -9.51092,7.94272 z m -1.97606,-4.92289 q 5.50653,-2.21034 7.30519,-5.43679 1.82403,-3.23665 0.28596,-7.06838 -1.55844,-3.88249 -5.11407,-4.95973 -3.52007,-1.06204 -9.0266,1.14829 -5.32891,2.13904 -7.22907,5.40624 -1.87478,3.25701 -0.32652,7.11412 1.52788,3.80637 5.10888,4.87342 3.61657,1.08223 8.99623,-1.07717 z"
       id="path3343" /><path
       d="m 616.64864,311.22568 -1.26361,-4.9829 16.85706,-4.27475 q 2.04087,-0.51754 3.7562,-1.20641 1.74184,-0.69559 2.58771,-1.58712 0.94517,-0.94491 1.15936,-2.32506 0.2407,-1.38688 -0.2634,-3.37474 -0.51754,-2.04087 -2.08931,-4.01186 -1.57177,-1.971 -3.65309,-3.61531 l -22.10501,5.60557 -1.26361,-4.98291 29.60587,-7.50769 1.26361,4.9829 -3.2866,0.83344 q 2.52633,1.84177 4.24483,4.05765 1.71849,2.21588 2.3839,4.83986 1.21656,4.79737 -1.03394,8.04794 -2.2505,3.25058 -7.68399,4.62845 z"
       id="path3345" /><path
       d="m 629.72839,341.57141 q -4.15121,0.51946 -7.24135,-2.5936 -3.08674,-3.08593 -3.83027,-9.02787 -0.421,-3.36438 0.0127,-6.28459 0.46426,-2.89646 1.17623,-4.91454 l 5.72488,-0.71638 0.034,0.27132 q -1.51568,2.64224 -2.2309,5.73545 -0.68808,3.08981 -0.34857,5.80303 0.421,3.36439 1.74395,5.12783 1.32294,1.76345 3.65631,1.47146 1.79072,-0.22407 2.5842,-1.37053 0.79347,-1.14646 1.07797,-4.15821 0.10838,-1.11585 0.21329,-2.92018 0.10829,-1.7772 0.3082,-3.26273 0.55907,-4.12084 2.38348,-6.05767 1.85494,-1.91309 4.83948,-2.28656 1.87212,-0.23426 3.62224,0.31834 1.75352,0.57972 3.25278,1.99042 1.46534,1.35983 2.48989,3.60153 1.05508,2.26543 1.41836,5.16857 0.33951,2.71322 0.008,5.56557 -0.30148,2.8761 -1.02023,4.83992 l -5.45357,0.68242 -0.034,-0.27132 q 1.19356,-2.13346 1.82062,-5.0503 0.65419,-2.92023 0.31807,-5.60631 -0.3497,-2.79461 -1.67604,-4.58519 -1.29921,-1.79397 -3.41552,-1.52915 -1.87212,0.23426 -2.67575,1.51978 -0.80703,1.25838 -1.0848,3.88349 -0.14904,1.45161 -0.25733,3.22881 -0.1049,1.80434 -0.23023,3.00497 -0.36921,3.65617 -2.1088,5.83039 -1.76672,2.17763 -5.07685,2.59183 z"
       id="path3347" /><path
       d="m 636.79311,376.00812 q -7.4648,0.0266 -11.79873,-3.78608 -4.33393,-3.8127 -4.35684,-10.23844 -0.0231,-6.48043 4.28354,-10.32393 4.30673,-3.81616 11.77153,-3.84277 7.4648,-0.0266 11.79863,3.75874 4.36128,3.8126 4.38438,10.29303 0.0229,6.42574 -4.31108,10.26934 -4.30664,3.8435 -11.77143,3.87011 z m -0.0189,-5.30465 q 5.93355,-0.0211 8.79634,-2.35559 2.89014,-2.33454 2.87542,-6.46342 -0.0149,-4.18357 -2.92162,-6.49744 -2.87926,-2.28662 -8.81282,-2.26547 -5.74215,0.0205 -8.71432,2.3553 -2.94482,2.33473 -2.93,6.49095 0.0146,4.10154 2.94867,6.41532 2.96149,2.34101 8.75833,2.32035 z"
       id="path3349" /><path
       d="m 617.63968,409.35653 0.66412,-5.09754 17.24489,2.24669 q 2.08782,0.272 3.9363,0.26465 1.87558,-0.004 2.99072,-0.52033 1.22712,-0.5295 1.93545,-1.73323 0.73543,-1.20021 1.00037,-3.2338 0.27201,-2.08783 -0.46161,-4.49969 -0.73363,-2.41186 -2.06138,-4.70811 l -22.61359,-2.94613 0.66412,-5.09755 30.28702,3.94584 -0.66412,5.09755 -3.36221,-0.43804 q 1.6685,2.64396 2.44814,5.33757 0.77964,2.69361 0.42992,5.37795 -0.63939,4.90775 -3.93047,7.09859 -3.29108,2.19084 -8.84958,1.46667 z"
       id="path3351" /><path
       d="m 609.47285,442.00024 1.32775,-4.93788 3.14229,0.84492 q -0.27139,-0.78085 -0.78466,-2.1364 -0.49397,-1.32206 -0.68526,-2.50609 -0.27363,-1.40438 -0.2366,-3.12164 0.0106,-1.72436 0.59284,-3.88964 1.07214,-3.98727 4.45824,-6.04986 3.38611,-2.06259 7.47901,-0.96205 3.35354,0.90173 5.02978,2.88146 1.69555,2.01324 2.16669,4.99974 0.46403,3.0129 -0.12881,6.90254 -0.59284,3.88963 -1.54603,8.27699 l 0.76577,0.20591 q 1.68997,0.45441 2.96232,0.14529 1.26525,-0.28272 2.1972,-1.22136 0.89134,-0.89292 1.5002,-2.31485 0.60886,-1.42192 1.04198,-3.03268 0.52542,-1.95403 0.64342,-4.49896 0.14441,-2.53784 -0.14388,-5.36191 l 0.071,-0.26406 5.04351,1.35615 q 0.006,1.55882 -0.25754,4.43283 -0.26312,2.87401 -0.98025,5.541 -0.83782,3.11588 -1.98366,5.27119 -1.12653,2.1888 -2.82202,3.54506 -1.66198,1.33696 -3.82392,1.69003 -2.16193,0.35308 -5.01376,-0.41375 z m 8.58935,-2.98532 8.21221,2.20817 q 0.47859,-2.3064 1.04526,-5.46688 0.55957,-3.13408 0.54067,-5.06458 -0.0322,-2.30217 -0.97109,-3.97038 -0.91246,-1.6611 -3.15696,-2.26462 -2.53496,-0.68162 -4.24066,0.502 -1.67929,1.19073 -2.52422,4.33302 -0.70292,2.61418 -0.28172,5.04926 0.44761,2.44219 1.37651,4.67401 z"
       id="path3353" /><path
       d="m 596.43561,474.96431 1.98671,-4.74121 16.0394,6.72099 q 1.94187,0.8137 3.72667,1.29476 1.81001,0.49162 3.02196,0.28793 1.32339,-0.18664 2.32445,-1.16059 1.02628,-0.96339 1.81885,-2.85482 0.81371,-1.94188 0.74305,-4.46186 -0.0707,-2.51998 -0.74487,-5.08534 l -21.0328,-8.81337 1.98671,-4.7412 28.16982,11.80399 -1.98671,4.7412 -3.12718,-1.31038 q 0.91106,2.99072 0.95169,5.7946 0.0406,2.80387 -1.00556,5.30057 -1.91273,4.56467 -5.66554,5.80863 -3.75281,1.24395 -8.92274,-0.9224 z"
       id="path3355" /><path
       d="m 584.25922,497.6902 q 0.3721,-1.45201 0.99685,-3.07613 0.61143,-1.60025 1.26448,-2.77017 2.27902,-4.08277 5.66175,-4.98158 3.38274,-0.89882 8.22953,1.80669 l 14.18226,7.91658 1.6926,-3.03223 3.77238,2.10576 -1.6926,3.03223 7.66415,4.27816 -2.50559,4.48866 -7.66415,-4.27816 -5.1711,9.26383 -3.77238,-2.10576 5.1711,-9.26383 -12.15281,-6.78374 q -2.10107,-1.17283 -3.34817,-1.7437 -1.22323,-0.55755 -2.56975,-0.55762 -1.24824,-0.008 -2.20833,0.64622 -0.94954,0.69127 -2.00242,2.57746 -0.61307,1.09829 -0.96907,2.46534 -0.33211,1.38038 -0.41044,2.02559 l -0.13327,0.23876 z"
       id="path3357" /><path
       d="m 575.43525,525.75244 q -3.43054,-2.39455 -3.64025,-6.77588 -0.22536,-4.35891 3.20212,-9.26929 1.94068,-2.78031 4.21858,-4.65832 2.28466,-1.83993 4.16497,-2.86168 l 4.73101,3.30228 -0.15651,0.22421 q -2.89516,0.94696 -5.49796,2.76491 -2.58036,1.83361 -4.14543,4.07579 -1.94067,2.78031 -2.13934,4.97586 -0.19867,2.19556 1.72961,3.54151 1.47984,1.03294 2.8369,0.71303 1.35707,-0.31991 3.58546,-2.36585 0.82782,-0.75602 2.11417,-2.02563 1.27071,-1.24719 2.41409,-2.21644 3.1751,-2.68564 5.82707,-2.90199 2.65875,-0.17829 5.12515,1.54328 1.54711,1.07989 2.47662,2.66239 0.91387,1.60492 1.08238,3.65662 0.17739,1.9912 -0.56317,4.34204 -0.73379,2.38892 -2.40841,4.78806 -1.56506,2.24218 -3.72197,4.13794 -2.15014,1.93384 -3.99914,2.91075 l -4.50679,-3.14577 0.1565,-0.22422 q 2.31521,-0.78489 4.73441,-2.53092 2.44162,-1.73037 3.99103,-3.95014 1.61201,-2.30945 1.82633,-4.52742 0.23674,-2.20233 -1.51216,-3.42307 -1.54711,-1.0799 -3.00485,-0.66353 -1.44209,0.39395 -3.40653,2.15729 -1.08289,0.97812 -2.35359,2.22532 -1.28635,1.26961 -2.18355,2.07724 -2.72288,2.46774 -5.47087,2.9172 -2.77041,0.4338 -5.50588,-1.47557 z"
       id="path3359" /></g></g><g
   inkscape:groupmode="layer"
   id="layer2"
   inkscape:label="white"
   style="display:none"><g
     class="st20"
     id="g1478">
	<g
   id="g1414">
		
			<linearGradient
   id="path3302_5_"
   gradientUnits="userSpaceOnUse"
   x1="396.25711"
   y1="-13.6055"
   x2="322.9931"
   y2="-18.4254"
   gradientTransform="translate(0,252.6096)">
			<stop
   offset="0"
   style="stop-color:#FFFFFF"
   id="stop1354" />
			<stop
   offset="1"
   style="stop-color:#D8D8D8"
   id="stop1356" />
		</linearGradient>
		<path
   id="path3302_2_"
   class="st21"
   d="m 331.5,114.8 c 34.3,-12.7 47.3,10.7 76.8,4.7 l -50.1,242.2 z" />
		
			<linearGradient
   id="path3304_5_"
   gradientUnits="userSpaceOnUse"
   x1="468.2041"
   y1="31.6611"
   x2="408.6066"
   y2="-17.363001"
   gradientTransform="translate(0,252.6096)">
			<stop
   offset="0"
   style="stop-color:#FFFFFF"
   id="stop1360" />
			<stop
   offset="1"
   style="stop-color:#D8D8D8"
   id="stop1362" />
		</linearGradient>
		<path
   id="path3304_2_"
   class="st22"
   d="m 485.4,142.4 c 35.2,9.8 32.3,37.5 59.7,49.8 L 361.2,358.8 Z" />
		
			<linearGradient
   id="path3306_5_"
   gradientUnits="userSpaceOnUse"
   x1="490.23071"
   y1="107.4641"
   x2="472.0347"
   y2="35.6376"
   gradientTransform="translate(0,252.6096)">
			<stop
   offset="0"
   style="stop-color:#FFFFFF"
   id="stop1366" />
			<stop
   offset="1"
   style="stop-color:#D8D8D8"
   id="stop1368" />
		</linearGradient>
		<path
   id="path3306_2_"
   class="st23"
   d="m 587.4,257.4 c 22.7,28.4 6.2,48.3 21,74.1 L 361,359 Z" />
		
			<linearGradient
   id="path3310_5_"
   gradientUnits="userSpaceOnUse"
   x1="465.13171"
   y1="180.78439"
   x2="493.8765"
   y2="111.7968"
   gradientTransform="translate(0,252.6096)">
			<stop
   offset="0"
   style="stop-color:#FFFFFF"
   id="stop1372" />
			<stop
   offset="1"
   style="stop-color:#D8D8D8"
   id="stop1374" />
		</linearGradient>
		<path
   id="path3310_2_"
   class="st24"
   d="m 604.7,408.8 c 1.5,36.3 -24.2,42.7 -27.7,72.4 L 360.6,359 Z" />
		
			<linearGradient
   id="path3312_5_"
   gradientUnits="userSpaceOnUse"
   x1="397.4299"
   y1="231.8116"
   x2="458.02921"
   y2="190.4502"
   gradientTransform="translate(0,252.6096)">
			<stop
   offset="0"
   style="stop-color:#FFFFFF"
   id="stop1378" />
			<stop
   offset="1"
   style="stop-color:#D8D8D8"
   id="stop1380" />
		</linearGradient>
		<path
   id="path3312_2_"
   class="st25"
   d="m 527.8,540.9 c -20.3,30.2 -44.4,21 -64.7,43.1 L 360.2,358.8 Z" />
		
			<linearGradient
   id="path3314_5_"
   gradientUnits="userSpaceOnUse"
   x1="323.90659"
   y1="227.9371"
   x2="399.09619"
   y2="235.6488"
   gradientTransform="translate(0,252.6096)">
			<stop
   offset="0"
   style="stop-color:#FFFFFF"
   id="stop1384" />
			<stop
   offset="1"
   style="stop-color:#D8D8D8"
   id="stop1386" />
		</linearGradient>
		<path
   id="path3314_2_"
   class="st26"
   d="m 387.7,607 c -34.3,12.7 -48.2,-12.3 -77.6,-6.3 l 50.1,-242.2 z" />
		
			<linearGradient
   id="path3316_5_"
   gradientUnits="userSpaceOnUse"
   x1="259.379"
   y1="183.4431"
   x2="314.16089"
   y2="232.4586"
   gradientTransform="translate(0,252.6096)">
			<stop
   offset="0"
   style="stop-color:#FFFFFF"
   id="stop1390" />
			<stop
   offset="1"
   style="stop-color:#D8D8D8"
   id="stop1392" />
		</linearGradient>
		<path
   id="path3316_2_"
   class="st27"
   d="m 235.5,574.8 c -35.2,-9.8 -31.8,-37.7 -59.2,-50 L 360.2,358.2 Z" />
		
			<linearGradient
   id="path3318_5_"
   gradientUnits="userSpaceOnUse"
   x1="229.8683"
   y1="101.032"
   x2="249.9808"
   y2="173.8203"
   gradientTransform="translate(0,252.6096)">
			<stop
   offset="0"
   style="stop-color:#FFFFFF"
   id="stop1396" />
			<stop
   offset="1"
   style="stop-color:#D8D8D8"
   id="stop1398" />
		</linearGradient>
		<path
   id="path3318_2_"
   class="st28"
   d="m 134.9,459.1 c -22.7,-28.4 -6.8,-47.7 -21.7,-73.7 L 360.6,358 Z" />
		
			<linearGradient
   id="path3320_5_"
   gradientUnits="userSpaceOnUse"
   x1="257.0575"
   y1="26.767599"
   x2="229.2776"
   y2="99.57"
   gradientTransform="translate(0,252.6096)">
			<stop
   offset="0"
   style="stop-color:#FFFFFF"
   id="stop1402" />
			<stop
   offset="1"
   style="stop-color:#D8D8D8"
   id="stop1404" />
		</linearGradient>
		<path
   id="path3320_2_"
   class="st29"
   d="m 117.5,308.7 c -1.5,-36.3 23.7,-43.3 27,-73.1 L 361,357.8 Z" />
		
			<linearGradient
   id="path3322_5_"
   gradientUnits="userSpaceOnUse"
   x1="321.81561"
   y1="-18.138"
   x2="256.3974"
   y2="24.191601"
   gradientTransform="translate(0,252.6096)">
			<stop
   offset="0"
   style="stop-color:#FFFFFF"
   id="stop1408" />
			<stop
   offset="1"
   style="stop-color:#D8D8D8"
   id="stop1410" />
		</linearGradient>
		<path
   id="path3322_2_"
   class="st30"
   d="m 192.2,175.1 c 20.3,-30.2 46.1,-20.2 66.3,-42.3 L 361.3,358 Z" />
	</g>
	<g
   id="g1476">
		
			<linearGradient
   id="path3308_5_"
   gradientUnits="userSpaceOnUse"
   x1="361"
   y1="579.33002"
   x2="587.70001"
   y2="579.33002"
   gradientTransform="matrix(1,0,0,-1,0,847.28)">
			<stop
   offset="0"
   style="stop-color:#FFFFFF"
   id="stop1416" />
			<stop
   offset="1"
   style="stop-color:#D8D8D8"
   id="stop1418" />
		</linearGradient>
		<path
   id="path3308_2_"
   class="st31"
   d="m 527.9,176.2 c 30.4,20.1 37.6,61.3 59.8,81.3 L 361,359.7 Z" />
		
			<linearGradient
   id="path3324_5_"
   gradientUnits="userSpaceOnUse"
   x1="237"
   y1="611.13"
   x2="361.10001"
   y2="611.13"
   gradientTransform="matrix(1,0,0,-1,0,847.28)">
			<stop
   offset="0"
   style="stop-color:#FFFFFF"
   id="stop1422" />
			<stop
   offset="1"
   style="stop-color:#D8D8D8"
   id="stop1424" />
		</linearGradient>
		<path
   id="path3324_2_"
   class="st32"
   d="m 237,144.7 c 28.7,-22.5 70.4,-16.5 96.4,-31.4 L 361.1,359 Z" />
		
			<linearGradient
   id="path3326_5_"
   gradientUnits="userSpaceOnUse"
   x1="361.10001"
   y1="610.75787"
   x2="484.10001"
   y2="610.75787"
   gradientTransform="matrix(1,0,0,-1,0,847.28)">
			<stop
   offset="0"
   style="stop-color:#FFFFFF"
   id="stop1428" />
			<stop
   offset="1"
   style="stop-color:#D8D8D8"
   id="stop1430" />
		</linearGradient>
		<path
   id="path3326_2_"
   class="st33"
   d="m 387.6,113.6 c 36.6,-1.5 66.7,27.7 96.5,31 l -123,214.9 z" />
		
			<linearGradient
   id="path3328_5_"
   gradientUnits="userSpaceOnUse"
   x1="360.60001"
   y1="488.03"
   x2="609.17572"
   y2="488.03"
   gradientTransform="matrix(1,0,0,-1,0,847.28)">
			<stop
   offset="0"
   style="stop-color:#FFFFFF"
   id="stop1434" />
			<stop
   offset="1"
   style="stop-color:#D8D8D8"
   id="stop1436" />
		</linearGradient>
		<path
   id="path3328_2_"
   class="st34"
   d="m 604.7,308.9 c 12.7,33.9 -6.3,71.4 -0.2,100.7 L 360.6,359.8 Z" />
		
			<linearGradient
   id="path3330_5_"
   gradientUnits="userSpaceOnUse"
   x1="360.20001"
   y1="396.28"
   x2="587.5"
   y2="396.28"
   gradientTransform="matrix(1,0,0,-1,0,847.28)">
			<stop
   offset="0"
   style="stop-color:#FFFFFF"
   id="stop1440" />
			<stop
   offset="1"
   style="stop-color:#D8D8D8"
   id="stop1442" />
		</linearGradient>
		<path
   id="path3330_2_"
   class="st35"
   d="M 587.5,460.6 C 577.7,495.5 540.4,515 528,542.3 L 360.2,359.7 Z" />
		
			<linearGradient
   id="path3332_5_"
   gradientUnits="userSpaceOnUse"
   x1="360"
   y1="365.03"
   x2="484.20001"
   y2="365.03"
   gradientTransform="matrix(1,0,0,-1,0,847.28)">
			<stop
   offset="0"
   style="stop-color:#FFFFFF"
   id="stop1446" />
			<stop
   offset="1"
   style="stop-color:#D8D8D8"
   id="stop1448" />
		</linearGradient>
		<path
   id="path3332_2_"
   class="st36"
   d="m 484.2,573.7 c -28.7,22.5 -70.4,16.5 -96.4,31.4 L 360,359.4 Z" />
		
			<linearGradient
   id="path3334_5_"
   gradientUnits="userSpaceOnUse"
   x1="237.10001"
   y1="365.45209"
   x2="360.10001"
   y2="365.45209"
   gradientTransform="matrix(1,0,0,-1,0,847.28)">
			<stop
   offset="0"
   style="stop-color:#FFFFFF"
   id="stop1452" />
			<stop
   offset="1"
   style="stop-color:#D8D8D8"
   id="stop1454" />
		</linearGradient>
		<path
   id="path3334_2_"
   class="st37"
   d="m 333.6,604.8 c -36.6,1.5 -66.7,-27.7 -96.5,-31 l 123,-215 z" />
		
			<linearGradient
   id="path3336_5_"
   gradientUnits="userSpaceOnUse"
   x1="133.5"
   y1="396.92999"
   x2="360.20001"
   y2="396.92999"
   gradientTransform="matrix(1,0,0,-1,0,847.28)">
			<stop
   offset="0"
   style="stop-color:#FFFFFF"
   id="stop1458" />
			<stop
   offset="1"
   style="stop-color:#D8D8D8"
   id="stop1460" />
		</linearGradient>
		<path
   id="path3336_2_"
   class="st38"
   d="M 193.3,542.1 C 162.9,522 155.7,480.8 133.5,460.8 L 360.2,358.6 Z" />
		
			<linearGradient
   id="path3338_5_"
   gradientUnits="userSpaceOnUse"
   x1="112.4378"
   y1="488.17999"
   x2="360.60001"
   y2="488.17999"
   gradientTransform="matrix(1,0,0,-1,0,847.28)">
			<stop
   offset="0"
   style="stop-color:#FFFFFF"
   id="stop1464" />
			<stop
   offset="1"
   style="stop-color:#D8D8D8"
   id="stop1466" />
		</linearGradient>
		<path
   id="path3338_2_"
   class="st39"
   d="m 117,409.5 c -12.7,-33.9 5.8,-71.6 -0.3,-100.8 l 243.9,49.8 z" />
		
			<linearGradient
   id="path3340_5_"
   gradientUnits="userSpaceOnUse"
   x1="133.7"
   y1="579.88"
   x2="361"
   y2="579.88"
   gradientTransform="matrix(1,0,0,-1,0,847.28)">
			<stop
   offset="0"
   style="stop-color:#FFFFFF"
   id="stop1470" />
			<stop
   offset="1"
   style="stop-color:#D8D8D8"
   id="stop1472" />
		</linearGradient>
		<path
   id="path3340_2_"
   class="st40"
   d="m 133.7,257.8 c 9.8,-34.9 47.1,-54.4 59.5,-81.7 L 361,358.7 Z" />
	</g>
</g><g
     aria-label="won a race "
     id="text69141"
     style="font-size:40px;line-height:1.25"><path
       d="m 276.28545,202.0325 7.08322,21.40296 -2.85296,1.84663 -13.84337,-11.0713 4.46471,17.14184 -2.83655,1.83602 -16.67504,-15.19446 3.21367,-2.08011 12.54133,12.00714 -4.60554,-17.14375 2.54142,-1.64499 13.86944,11.1475 -5.99923,-16.24166 z"
       id="path92791" /><path
       d="m 306.1023,201.12935 q 2.04952,4.9224 0.71139,8.82229 -1.33813,3.8999 -5.57536,5.66415 -4.27329,1.77926 -7.98377,-0.0186 -3.69245,-1.80533 -5.74198,-6.72773 -2.04952,-4.92239 -0.72942,-8.81478 1.33062,-3.91793 5.60391,-5.6972 4.23723,-1.76424 7.95522,0.0516 3.71048,1.79782 5.76001,6.72022 z m -3.49797,1.45644 q -1.62911,-3.91268 -3.95001,-5.16777 -2.3284,-1.27313 -5.05104,-0.13951 -2.75871,1.14863 -3.49554,3.69803 -0.7263,2.52385 0.90281,6.43652 1.57656,3.78646 3.92748,5.11368 2.34342,1.3092 5.0841,0.16807 2.70461,-1.12612 3.43393,-3.69354 0.73984,-2.59296 -0.85173,-6.41548 z"
       id="path92793" /><path
       d="m 333.48294,205.20751 -3.56917,0.86237 -2.91737,-12.07444 q -0.3532,-1.46184 -0.8314,-2.69255 -0.48278,-1.24969 -1.11273,-1.86103 -0.66728,-0.68269 -1.65131,-0.8468 -0.98863,-0.18309 -2.4125,0.16094 -1.46184,0.3532 -2.88227,1.45994 -1.42043,1.10674 -2.61163,2.58006 l 3.8256,15.83345 -3.56917,0.86237 -5.12374,-21.2062 3.56917,-0.86237 0.5688,2.35414 q 1.33582,-1.78956 2.93233,-2.99913 1.59652,-1.20957 3.47603,-1.66368 3.43628,-0.83026 5.73984,0.80333 2.30356,1.63359 3.24391,5.52551 z"
       id="path92795" /><path
       d="m 371.47661,203.02637 -3.65223,-0.0292 0.0186,-2.32414 q -0.49093,0.32811 -1.33559,0.92684 -0.82498,0.57935 -1.60902,0.92464 -0.92153,0.44186 -2.11525,0.72528 -1.19387,0.30295 -2.79538,0.29012 -2.94912,-0.0236 -4.9842,-1.99309 -2.03508,-1.96949 -2.01084,-4.99673 0.0199,-2.48039 1.08671,-3.99534 1.08654,-1.53431 3.06617,-2.3974 1.99916,-0.86292 4.79455,-1.15305 2.79538,-0.29013 5.99965,-0.42073 l 0.005,-0.56638 q 0.01,-1.24996 -0.43263,-2.07385 -0.42311,-0.82372 -1.23964,-1.29903 -0.77763,-0.45546 -1.87009,-0.62046 -1.09247,-0.165 -2.28383,-0.17454 -1.44527,-0.0116 -3.22568,0.36481 -1.78026,0.35685 -3.68052,1.06431 l -0.19531,-0.002 0.0299,-3.73035 q 1.07653,-0.28436 3.11053,-0.61965 2.034,-0.33528 4.0066,-0.31949 2.30461,0.0185 4.00065,0.42267 1.71572,0.38485 2.95833,1.31279 1.22324,0.90827 1.85633,2.33916 0.6331,1.4309 0.61621,3.54021 z m -3.60923,-5.40017 0.0486,-6.07402 q -1.68042,0.0842 -3.96706,0.26121 -2.26712,0.17717 -3.59817,0.53761 -1.58558,0.43654 -2.56977,1.38572 -0.98404,0.92965 -0.99733,2.58976 -0.015,1.87494 1.1101,2.84101 1.12527,0.94654 3.44941,0.96515 1.93353,0.0155 3.54099,-0.71386 1.60761,-0.74887 2.98319,-1.79258 z"
       id="path92797" /><path
       d="m 409.66468,191.56985 -0.19041,-0.0435 q -0.75623,-0.37306 -1.50047,-0.62317 -0.72085,-0.26481 -1.74907,-0.49964 -1.65656,-0.37834 -3.36848,0.012 -1.70757,0.37131 -3.40092,1.20665 l -3.44857,15.09947 -3.5797,-0.81757 4.85758,-21.26874 3.5797,0.81757 -0.71755,3.14176 q 2.52398,-1.22663 4.30336,-1.5615 1.80278,-0.34956 3.49742,0.0375 0.93301,0.21309 1.33886,0.36589 0.41021,0.13375 1.21757,0.45839 z"
       id="path92799" /><path
       d="m 424.25642,215.62386 -3.42717,-1.26259 0.80347,-2.18092 q -0.57296,0.14276 -1.57033,0.42058 -0.9723,0.26623 -1.82691,0.32605 -1.01667,0.10419 -2.2359,-0.0328 -1.22598,-0.11862 -2.72881,-0.67227 -2.76739,-1.01953 -4.01655,-3.56118 -1.24917,-2.54165 -0.20264,-5.38235 0.85748,-2.32754 2.37379,-3.39246 1.54138,-1.07649 3.69625,-1.21927 2.1732,-0.13604 4.902,0.53624 2.72881,0.67227 5.78847,1.63295 l 0.1958,-0.53148 q 0.43212,-1.17294 0.29417,-2.09797 -0.11962,-0.91828 -0.72732,-1.6417 -0.57779,-0.6916 -1.55009,-1.21632 -0.97231,-0.52472 -2.09026,-0.93658 -1.35621,-0.49963 -3.15901,-0.7475 -1.79605,-0.2662 -3.8236,-0.24303 l -0.18327,-0.0675 1.2896,-3.50048 q 1.10927,0.0964 3.13682,0.46874 2.02755,0.3723 3.87859,1.05424 2.1626,0.79671 3.62202,1.75066 1.4845,0.94237 2.3401,2.23586 0.84402,1.26841 0.95594,2.8291 0.11191,1.56069 -0.61729,3.54002 z m -1.57042,-6.30254 2.09981,-5.69973 q -1.60989,-0.48902 -3.82168,-1.09571 -2.19346,-0.59994 -3.56799,-0.71085 -1.63978,-0.12537 -2.88698,0.43507 -1.24044,0.54211 -1.81435,2.09991 -0.64817,1.7594 0.084,3.04904 0.73889,1.2713 2.91981,2.07477 1.81439,0.66843 3.57378,0.52565 1.76614,-0.16111 3.41364,-0.67815 z"
       id="path92801" /><path
       d="m 445.50191,225.14197 q -2.03292,-0.10195 -3.72518,-0.46361 -1.67509,-0.35235 -3.30644,-1.23635 -2.07782,-1.12595 -3.48651,-2.66681 -1.39939,-1.55804 -1.96579,-3.46441 -0.58358,-1.91568 -0.24687,-4.17683 0.3367,-2.26114 1.70459,-4.78543 2.54967,-4.70515 6.57711,-5.98819 4.04462,-1.27374 8.28612,1.02468 1.64852,0.89332 2.97711,2.21305 1.34576,1.32905 2.3051,2.71527 l -1.94482,3.58896 -0.17172,-0.0931 q -0.85334,-1.95079 -2.09818,-3.42507 -1.22766,-1.46499 -2.72163,-2.27455 -2.74754,-1.48886 -5.34952,-0.49967 -2.5755,0.98132 -4.51101,4.55311 -1.87968,3.46876 -1.34848,6.178 0.55768,2.70137 3.3739,4.22745 0.97881,0.5304 2.13154,0.82183 1.15273,0.29144 2.18315,0.31666 0.89947,0.0209 1.73168,-0.0391 0.84153,-0.0771 1.36033,-0.17365 l 0.17172,0.0931 z"
       id="path92803" /><path
       d="m 469.73403,231.42069 -12.89065,-9.60268 q -1.2018,1.61329 -1.61467,3.18104 -0.40121,1.5521 -0.12713,2.94965 0.25441,1.35856 1.08646,2.56289 0.8477,1.216 2.19472,2.21944 1.78558,1.33014 4.11189,1.96711 2.35363,0.63298 3.6345,0.51554 l 0.15663,0.11668 -2.39192,3.21091 q -1.9547,-0.48193 -3.82037,-1.21415 -1.86567,-0.73222 -3.57294,-2.00402 -4.35431,-3.24368 -5.04756,-7.41332 -0.68157,-4.18531 2.55044,-8.52396 3.197,-4.29167 7.40932,-5.07489 4.22799,-0.77156 8.04976,2.07541 3.53984,2.63695 3.91056,6.12795 0.38639,3.50267 -2.44891,7.30878 z m -1.18615,-4.3907 q 1.71119,-2.32979 1.49723,-4.46192 -0.1983,-2.12046 -2.54775,-3.87064 -2.36512,-1.76186 -4.81323,-1.41796 -2.43245,0.35556 -4.16057,2.28306 z"
       id="path92805" /></g></g><g
   inkscape:groupmode="layer"
   id="layer3"
   inkscape:label="blue"
   style="display:none"><g
     id="g1540"
     style="display:inline">
	<linearGradient
   id="path3302_6_"
   gradientUnits="userSpaceOnUse"
   x1="344.70001"
   y1="297.9892"
   x2="383.89999"
   y2="297.9892">
		<stop
   offset="0.3541"
   style="stop-color:#004C99"
   id="stop1480" />
		<stop
   offset="0.7081"
   style="stop-color:#003D7C"
   id="stop1482" />
	</linearGradient>
	<path
   id="path3302_1_"
   class="st41"
   d="m 344.7,236 c 17.5,-6.4 24.1,5.5 39.2,2.4 l -25.6,123.5 z" />
	<linearGradient
   id="path3304_6_"
   gradientUnits="userSpaceOnUse"
   x1="361"
   y1="304"
   x2="454.89999"
   y2="304">
		<stop
   offset="0.3541"
   style="stop-color:#004C99"
   id="stop1486" />
		<stop
   offset="0.7081"
   style="stop-color:#003D7C"
   id="stop1488" />
	</linearGradient>
	<path
   id="path3304_1_"
   class="st42"
   d="m 424.4,248.8 c 17.9,5 16.5,19.1 30.5,25.4 l -93.9,85 z" />
	<linearGradient
   id="path3306_6_"
   gradientUnits="userSpaceOnUse"
   x1="360.89999"
   y1="333.45001"
   x2="487.10001"
   y2="333.45001">
		<stop
   offset="0.3541"
   style="stop-color:#004C99"
   id="stop1492" />
		<stop
   offset="0.7081"
   style="stop-color:#003D7C"
   id="stop1494" />
	</linearGradient>
	<path
   id="path3306_1_"
   class="st43"
   d="m 476.4,307.5 c 11.6,14.5 3.1,24.6 10.7,37.8 l -126.2,14.1 z" />
	<linearGradient
   id="path3310_6_"
   gradientUnits="userSpaceOnUse"
   x1="360.70001"
   y1="390.45001"
   x2="485.23489"
   y2="390.45001">
		<stop
   offset="0.3541"
   style="stop-color:#004C99"
   id="stop1498" />
		<stop
   offset="0.7081"
   style="stop-color:#003D7C"
   id="stop1500" />
	</linearGradient>
	<path
   id="path3310_1_"
   class="st44"
   d="m 485.2,384.7 c 0.8,18.5 -12.4,21.8 -14.1,36.9 L 360.7,359.3 Z" />
	<linearGradient
   id="path3312_6_"
   gradientUnits="userSpaceOnUse"
   x1="360.5"
   y1="416.70001"
   x2="445.89999"
   y2="416.70001">
		<stop
   offset="0.3541"
   style="stop-color:#004C99"
   id="stop1504" />
		<stop
   offset="0.7081"
   style="stop-color:#003D7C"
   id="stop1506" />
	</linearGradient>
	<path
   id="path3312_1_"
   class="st45"
   d="m 445.9,452.1 c -10.3,15.4 -22.7,10.7 -33,22 L 360.5,359.3 Z" />
	<linearGradient
   id="path3314_6_"
   gradientUnits="userSpaceOnUse"
   x1="334.89999"
   y1="423.3143"
   x2="374.5"
   y2="423.3143">
		<stop
   offset="0.3541"
   style="stop-color:#004C99"
   id="stop1510" />
		<stop
   offset="0.7081"
   style="stop-color:#003D7C"
   id="stop1512" />
	</linearGradient>
	<path
   id="path3314_1_"
   class="st46"
   d="m 374.5,485.8 c -17.5,6.4 -24.6,-6.3 -39.6,-3.2 L 360.5,359 Z" />
	<linearGradient
   id="path3316_6_"
   gradientUnits="userSpaceOnUse"
   x1="266.70001"
   y1="414.14999"
   x2="360.5"
   y2="414.14999">
		<stop
   offset="0.3541"
   style="stop-color:#004C99"
   id="stop1516" />
		<stop
   offset="0.7081"
   style="stop-color:#003D7C"
   id="stop1518" />
	</linearGradient>
	<path
   id="path3316_1_"
   class="st47"
   d="m 296.9,469.4 c -17.9,-5 -16.2,-19.2 -30.2,-25.5 l 93.8,-85 z" />
	<linearGradient
   id="path3318_6_"
   gradientUnits="userSpaceOnUse"
   x1="234.5"
   y1="384.5"
   x2="360.70001"
   y2="384.5">
		<stop
   offset="0.3541"
   style="stop-color:#004C99"
   id="stop1522" />
		<stop
   offset="0.7081"
   style="stop-color:#003D7C"
   id="stop1524" />
	</linearGradient>
	<path
   id="path3318_1_"
   class="st48"
   d="M 245.6,410.3 C 234,395.8 242.1,385.9 234.5,372.7 l 126.2,-14 z" />
	<linearGradient
   id="path3320_6_"
   gradientUnits="userSpaceOnUse"
   x1="236.66431"
   y1="327.45001"
   x2="360.89999"
   y2="327.45001">
		<stop
   offset="0.3541"
   style="stop-color:#004C99"
   id="stop1528" />
		<stop
   offset="0.7081"
   style="stop-color:#003D7C"
   id="stop1530" />
	</linearGradient>
	<path
   id="path3320_1_"
   class="st49"
   d="m 236.7,333.6 c -0.8,-18.5 12.1,-22.1 13.8,-37.3 l 110.4,62.3 z" />
	<linearGradient
   id="path3322_6_"
   gradientUnits="userSpaceOnUse"
   x1="274.79999"
   y1="301.29999"
   x2="361.10001"
   y2="301.29999">
		<stop
   offset="0.3541"
   style="stop-color:#004C99"
   id="stop1534" />
		<stop
   offset="0.7081"
   style="stop-color:#003D7C"
   id="stop1536" />
	</linearGradient>
	<path
   id="path3322_1_"
   class="st50"
   d="m 274.8,265.5 c 10.3,-15.4 23.5,-10.3 33.8,-21.6 l 52.5,114.8 z" />
</g><g
     id="g1602"
     style="display:inline">
	<linearGradient
   id="path3308_6_"
   gradientUnits="userSpaceOnUse"
   x1="374.64999"
   y1="373.35001"
   x2="464.49081"
   y2="283.50909">
		<stop
   offset="0.3541"
   style="stop-color:#004C99"
   id="stop1542" />
		<stop
   offset="0.7081"
   style="stop-color:#003D7C"
   id="stop1544" />
	</linearGradient>
	<path
   id="path3308_1_"
   class="st51"
   d="m 446,266 c 15.5,10.3 19.2,31.2 30.5,41.5 l -115.6,52.1 z" />
	<linearGradient
   id="path3324_6_"
   gradientUnits="userSpaceOnUse"
   x1="317.85001"
   y1="316.14999"
   x2="373.45001"
   y2="260.54999">
		<stop
   offset="0.3541"
   style="stop-color:#004C99"
   id="stop1548" />
		<stop
   offset="0.7081"
   style="stop-color:#003D7C"
   id="stop1550" />
	</linearGradient>
	<path
   id="path3324_1_"
   class="st52"
   d="m 297.7,250 c 14.6,-11.5 35.9,-8.4 49.2,-16 L 361,359.3 Z" />
	<linearGradient
   id="path3326_6_"
   gradientUnits="userSpaceOnUse"
   x1="333.02499"
   y1="331.52499"
   x2="419.22501"
   y2="245.325">
		<stop
   offset="0.3541"
   style="stop-color:#004C99"
   id="stop1554" />
		<stop
   offset="0.7081"
   style="stop-color:#003D7C"
   id="stop1556" />
	</linearGradient>
	<path
   id="path3326_1_"
   class="st53"
   d="m 374.5,234.1 c 18.6,-0.8 34,14.1 49.3,15.8 L 361,359.5 Z" />
	<linearGradient
   id="path3328_6_"
   gradientUnits="userSpaceOnUse"
   x1="398.14999"
   y1="397.25"
   x2="473.39999"
   y2="322">
		<stop
   offset="0.3541"
   style="stop-color:#004C99"
   id="stop1560" />
		<stop
   offset="0.7081"
   style="stop-color:#003D7C"
   id="stop1562" />
	</linearGradient>
	<path
   id="path3328_1_"
   class="st54"
   d="m 485.2,333.8 c 6.5,17.3 -3.2,36.4 -0.1,51.4 L 360.7,359.8 Z" />
	<linearGradient
   id="path3330_6_"
   gradientUnits="userSpaceOnUse"
   x1="401.39999"
   y1="408.10001"
   x2="437.35001"
   y2="372.14999">
		<stop
   offset="0.3541"
   style="stop-color:#004C99"
   id="stop1566" />
		<stop
   offset="0.7081"
   style="stop-color:#003D7C"
   id="stop1568" />
	</linearGradient>
	<path
   id="path3330_1_"
   class="st55"
   d="m 476.4,411.2 c -5,17.8 -24,27.8 -30.3,41.6 l -85.6,-93.2 z" />
	<linearGradient
   id="path3332_6_"
   gradientUnits="userSpaceOnUse"
   x1="347.92499"
   y1="458.22501"
   x2="403.47501"
   y2="402.67499">
		<stop
   offset="0.3541"
   style="stop-color:#004C99"
   id="stop1572" />
		<stop
   offset="0.7081"
   style="stop-color:#003D7C"
   id="stop1574" />
	</linearGradient>
	<path
   id="path3332_1_"
   class="st56"
   d="m 423.7,468.8 c -14.6,11.5 -35.9,8.4 -49.2,16 L 360.3,359.5 Z" />
	<linearGradient
   id="path3334_6_"
   gradientUnits="userSpaceOnUse"
   x1="302.125"
   y1="473.42499"
   x2="388.32501"
   y2="387.22501">
		<stop
   offset="0.3541"
   style="stop-color:#004C99"
   id="stop1578" />
		<stop
   offset="0.7081"
   style="stop-color:#003D7C"
   id="stop1580" />
	</linearGradient>
	<path
   id="path3334_1_"
   class="st57"
   d="m 346.9,484.7 c -18.6,0.8 -34,-14.1 -49.3,-15.8 l 62.7,-109.7 z" />
	<linearGradient
   id="path3336_6_"
   gradientUnits="userSpaceOnUse"
   x1="256.90909"
   y1="435.1908"
   x2="346.75"
   y2="345.35001">
		<stop
   offset="0.3541"
   style="stop-color:#004C99"
   id="stop1584" />
		<stop
   offset="0.7081"
   style="stop-color:#003D7C"
   id="stop1586" />
	</linearGradient>
	<path
   id="path3336_1_"
   class="st58"
   d="M 275.4,452.7 C 259.9,442.4 256.2,421.5 244.9,411.2 L 360.5,359.1 Z" />
	<linearGradient
   id="path3338_6_"
   gradientUnits="userSpaceOnUse"
   x1="248.10001"
   y1="396.79999"
   x2="323.25"
   y2="321.64999">
		<stop
   offset="0.3541"
   style="stop-color:#004C99"
   id="stop1590" />
		<stop
   offset="0.7081"
   style="stop-color:#003D7C"
   id="stop1592" />
	</linearGradient>
	<path
   id="path3338_1_"
   class="st59"
   d="m 236.4,385.1 c -6.5,-17.3 3,-36.5 -0.1,-51.4 l 124.4,25.4 z" />
	<linearGradient
   id="path3340_6_"
   gradientUnits="userSpaceOnUse"
   x1="283.95001"
   y1="346.64999"
   x2="319.89999"
   y2="310.70001">
		<stop
   offset="0.3541"
   style="stop-color:#004C99"
   id="stop1596" />
		<stop
   offset="0.7081"
   style="stop-color:#003D7C"
   id="stop1598" />
	</linearGradient>
	<path
   id="path3340_1_"
   class="st60"
   d="m 244.9,307.6 c 5,-17.8 24,-27.8 30.3,-41.6 l 85.6,93.2 z" />
</g><g
     id="path3912_1_"
     class="st20"
     style="display:inline">
	<g
   id="g1616">
		<g
   id="g1612">
			<g
   id="g1606">
				<path
   class="st61"
   d="m 425.1,360.8 c 0,35.2 -28.8,63.8 -64.3,63.8 -35.5,0 -64.3,-28.6 -64.3,-63.8 0,-35.2 28.8,-63.8 64.3,-63.8 35.5,0 64.3,28.6 64.3,63.8 z"
   id="path1604" />
			</g>
			<g
   class="st62"
   id="g1610">
				<path
   class="st61"
   d="m 425.1,360.8 c 0,35.2 -28.8,63.8 -64.3,63.8 -35.5,0 -64.3,-28.6 -64.3,-63.8 0,-35.2 28.8,-63.8 64.3,-63.8 35.5,0 64.3,28.6 64.3,63.8 z"
   id="path1608" />
			</g>
		</g>
		<path
   class="st61"
   d="m 425.1,360.8 c 0,35.2 -28.8,63.8 -64.3,63.8 -35.5,0 -64.3,-28.6 -64.3,-63.8 0,-35.2 28.8,-63.8 64.3,-63.8 35.5,0 64.3,28.6 64.3,63.8 z"
   id="path1614" />
	</g>
	<g
   class="st62"
   id="g1620">
		<path
   class="st61"
   d="m 425.1,360.8 c 0,35.2 -28.8,63.8 -64.3,63.8 -35.5,0 -64.3,-28.6 -64.3,-63.8 0,-35.2 28.8,-63.8 64.3,-63.8 35.5,0 64.3,28.6 64.3,63.8 z"
   id="path1618" />
	</g>
</g><path
     id="path15964"
     style="fill-opacity:0;fill-rule:evenodd;stroke:#000000;stroke-width:2.007;stroke-linecap:round;paint-order:fill markers stroke"
     d="m 280.9423,363.33669 a 79.79641,79.79641 0 0 1 76.53017,-82.46446 79.79641,79.79641 0 0 1 82.92974,76.02572 79.79641,79.79641 0 0 1 -75.51844,83.39195 79.79641,79.79641 0 0 1 -83.85105,-75.00836" /><g
     aria-label="antarctic program (3)"
     id="text17098"
     style="font-size:13.3333px;line-height:1.25;-inkscape-font-specification:'sans-serif, Normal';fill:#000000;fill-opacity:1"><path
       d="m 281.29864,351.00726 -0.12072,2.18808 -1.39241,-0.0768 q 0.18277,0.3035 0.51774,0.82665 0.32392,0.51081 0.50871,0.99047 0.23879,0.56479 0.37492,1.28823 0.14784,0.72409 0.0949,1.68357 -0.0975,1.76684 -1.33536,2.93089 -1.23788,1.16404 -3.05153,1.06398 -1.48602,-0.082 -2.36383,-0.76419 -0.88887,-0.69455 -1.35021,-1.9054 -0.4607,-1.22255 -0.5556,-2.90611 -0.0949,-1.68357 -0.0826,-3.60769 l -0.33933,-0.0187 q -0.74886,-0.0413 -1.25515,0.20069 -0.50564,0.23031 -0.81358,0.70625 -0.29494,0.45319 -0.4247,1.10328 -0.12976,0.65009 -0.16914,1.36385 -0.0478,0.86587 0.1275,1.94357 0.16357,1.07705 0.53389,2.23593 l -0.006,0.11701 -2.23488,-0.1233 q -0.14001,-0.65324 -0.28349,-1.88176 -0.14348,-1.22852 -0.0783,-2.41031 0.0762,-1.38072 0.36635,-2.38579 0.27913,-1.01742 0.87039,-1.73594 0.57892,-0.70746 1.45439,-1.04647 0.87547,-0.339 2.13918,-0.26928 z m -3.33848,2.01055 -3.639,-0.20077 q 0.003,1.00951 0.0445,2.38498 0.0421,1.36377 0.22054,2.1717 0.21683,0.96262 0.7579,1.5793 0.52937,0.61604 1.52395,0.67091 1.12329,0.062 1.73408,-0.58505 0.59909,-0.64767 0.67591,-2.04008 0.0639,-1.1584 -0.32779,-2.1424 -0.4034,-0.98466 -0.99006,-1.83859 z"
       style="font-size:24px;fill:#000000;fill-opacity:1"
       id="path67852" /><path
       d="m 284.5095,336.15395 -0.5259,2.13943 -7.23767,-1.77909 q -0.87626,-0.21539 -1.66389,-0.30039 -0.79902,-0.0878 -1.29859,0.079 -0.5479,0.16702 -0.90697,0.64593 -0.37045,0.47611 -0.58025,1.32961 -0.2154,0.87626 -0.0179,1.93848 0.19747,1.06222 0.65349,2.10352 l 9.49091,2.33296 -0.52589,2.13944 -12.71145,-3.12461 0.52589,-2.13943 1.41112,0.34686 q -0.58457,-1.20564 -0.7882,-2.39005 -0.20364,-1.18441 0.0733,-2.31103 0.50631,-2.05977 2.01248,-2.83596 1.50616,-0.7762 3.83906,-0.20275 z"
       style="font-size:24px;fill:#000000;fill-opacity:1"
       id="path67854" /><path
       d="m 288.57815,325.87123 q -0.0885,0.63627 -0.27635,1.35801 -0.1833,0.71093 -0.40506,1.2406 -0.77388,1.84844 -2.17114,2.39414 -1.39727,0.5457 -3.59162,-0.37299 l -6.42092,-2.68822 -0.57475,1.37282 -1.70792,-0.71504 0.57475,-1.37282 -3.46989,-1.45273 0.85082,-2.0322 3.46989,1.45272 1.75594,-4.19414 1.70792,0.71505 -1.75594,4.19413 5.5021,2.30354 q 0.95124,0.39825 1.50983,0.5813 0.54777,0.17851 1.1212,0.11368 0.53195,-0.0568 0.9093,-0.38156 0.37108,-0.34012 0.7286,-1.19408 0.20818,-0.49724 0.29393,-1.09656 0.075,-0.60384 0.0772,-0.88238 l 0.0453,-0.10809 z"
       style="font-size:24px;fill:#000000;fill-opacity:1"
       id="path67856" /><path
       d="m 295.13337,314.81525 -1.13849,1.87246 -1.19157,-0.7245 q 0.018,0.35382 0.0666,0.97312 0.0447,0.6032 -0.0186,1.11331 -0.0558,0.61065 -0.27703,1.31277 -0.21117,0.70822 -0.71041,1.52929 -0.91932,1.51198 -2.55989,1.95454 -1.64058,0.44256 -3.19261,-0.50112 -1.27167,-0.7732 -1.72393,-1.78879 -0.45618,-1.0317 -0.29186,-2.31699 0.17041,-1.29531 0.88081,-2.8246 0.71041,-1.52929 1.62877,-3.22014 l -0.29038,-0.17656 q -0.64084,-0.38965 -1.20142,-0.41505 -0.55449,-0.0354 -1.05051,0.23901 -0.47383,0.2605 -0.89488,0.77253 -0.42104,0.51203 -0.79243,1.12283 -0.45052,0.74097 -0.80429,1.77393 -0.36378,1.02687 -0.58385,2.22341 l -0.0609,0.10013 -1.91251,-1.16285 q 0.18466,-0.64205 0.63759,-1.793 0.45294,-1.15095 1.06785,-2.16228 0.71842,-1.18155 1.44835,-1.93093 0.72602,-0.76547 1.58628,-1.12017 0.84416,-0.35077 1.77603,-0.23676 0.93187,0.11401 2.01329,0.77154 z m -3.8921,0.19819 -3.11408,-1.89343 q -0.47353,0.89157 -1.08572,2.12398 -0.6061,1.22241 -0.82985,2.01898 -0.26284,0.95109 -0.0766,1.75007 0.17622,0.79289 1.02733,1.31039 0.96126,0.58447 1.80502,0.30203 0.83375,-0.28853 1.55825,-1.48009 0.60273,-0.9913 0.72147,-2.04373 0.10872,-1.05851 -0.006,-2.0882 z"
       style="font-size:24px;fill:#000000;fill-opacity:1"
       id="path67858" /><path
       d="m 294.84384,298.32658 -0.0755,0.0896 q -0.40677,0.30087 -0.74467,0.62912 -0.33931,0.31173 -0.74709,0.79565 -0.65696,0.77964 -0.91913,1.80001 -0.27113,1.01282 -0.29083,2.14556 l 7.10637,5.98822 -1.41966,1.68474 -10.00985,-8.43486 1.41965,-1.68474 1.47863,1.24597 q 0.0392,-1.68329 0.34952,-2.72441 0.30888,-1.05763 0.98095,-1.85519 0.37002,-0.43911 0.56303,-0.6136 0.18406,-0.18205 0.57904,-0.52349 z"
       style="font-size:24px;fill:#000000;fill-opacity:1"
       id="path67860" /><path
       d="m 311.20318,296.71281 q -0.47047,1.12702 -1.01837,2.00898 -0.53916,0.87414 -1.36959,1.61561 -1.05771,0.9444 -2.21377,1.42675 -1.16385,0.4736 -2.35519,0.40618 -1.20008,-0.0596 -2.40828,-0.70898 -1.2082,-0.64936 -2.35552,-1.93435 -2.13855,-2.39514 -2.04491,-4.92954 0.10239,-2.54221 2.26152,-4.47002 0.83917,-0.74928 1.85411,-1.23131 1.02369,-0.48984 2.00117,-0.74991 l 1.63123,1.82696 -0.0874,0.078 q -1.27469,0.0856 -2.35987,0.48891 -1.07645,0.39556 -1.83695,1.07459 -1.39863,1.24878 -1.36865,2.91872 0.0309,1.65338 1.65435,3.47159 1.57659,1.76577 3.21405,2.01614 1.6384,0.23382 3.072,-1.04619 0.49826,-0.44488 0.89693,-1.03649 0.39866,-0.59161 0.62219,-1.16824 0.1945,-0.50357 0.32967,-0.9856 0.12738,-0.49077 0.17826,-0.80328 l 0.0874,-0.0781 z"
       style="font-size:24px;fill:#000000;fill-opacity:1"
       id="path67862" /><path
       d="m 319.69181,291.86162 q -0.42401,0.48258 -0.97798,0.98188 -0.54424,0.49277 -1.02085,0.81303 -1.66329,1.11764 -3.13028,0.80447 -1.46699,-0.31317 -2.79378,-2.28771 l -3.88234,-5.77773 -1.2353,0.83006 -1.03268,-1.53683 1.23531,-0.83007 -2.09803,-3.1223 1.82864,-1.22875 2.09803,3.1223 3.774,-2.53593 1.03268,1.53683 -3.77401,2.53594 3.32679,4.95095 q 0.57516,0.85596 0.94086,1.31615 0.35917,0.45047 0.87366,0.71186 0.47542,0.24529 0.96922,0.18173 0.497,-0.0798 1.26541,-0.59616 0.44744,-0.30065 0.84881,-0.75389 0.39484,-0.46297 0.55001,-0.69431 l 0.0973,-0.0654 z"
       style="font-size:24px;fill:#000000;fill-opacity:1"
       id="path67864" /><path
       d="m 317.00361,276.1279 -2.19094,1.17127 -1.07735,-2.01526 2.19094,-1.17127 z m 7.08041,13.54268 -1.94291,1.03867 -6.17128,-11.5438 1.94292,-1.03868 z"
       style="font-size:24px;fill:#000000;fill-opacity:1"
       id="path67866" /><path
       d="m 336.69891,283.41518 q -0.83581,0.89048 -1.65818,1.5243 -0.81146,0.62958 -1.84917,1.03276 -1.32171,0.51352 -2.5735,0.55985 -1.25603,0.0354 -2.34808,-0.4455 -1.10296,-0.47666 -2.00673,-1.50846 -0.90377,-1.0318 -1.52764,-2.63752 -1.16285,-2.99297 -0.18643,-5.3336 0.98735,-2.34487 3.68539,-3.39314 1.04864,-0.40742 2.16816,-0.50294 1.13046,-0.0998 2.13706,-5.4e-4 l 0.887,2.28296 -0.10923,0.0424 q -1.22375,-0.36688 -2.38148,-0.36967 -1.1468,-0.007 -2.09712,0.3622 -1.74772,0.67904 -2.30523,2.25344 -0.55084,1.55924 0.33192,3.83127 0.85728,2.2065 2.30297,3.01518 1.45237,0.79351 3.24379,0.0975 0.62262,-0.24191 1.20343,-0.65615 0.58082,-0.41425 0.99235,-0.87587 0.35873,-0.40339 0.65436,-0.80741 0.29138,-0.41495 0.44862,-0.68977 l 0.10923,-0.0424 z"
       style="font-size:24px;fill:#000000;fill-opacity:1"
       id="path67868" /><path
       d="m 358.85482,273.90247 q 0.14689,1.58697 -0.18614,2.94767 -0.33411,1.34904 -1.07835,2.3359 -0.69021,0.93479 -1.69613,1.51042 -0.99532,0.56289 -2.16221,0.6709 -1.01519,0.094 -1.8642,-0.0511 -0.83734,-0.1461 -1.73238,-0.534 l 0.5055,5.46103 -2.19374,0.20306 -1.65152,-17.84169 2.19375,-0.20307 0.12637,1.36526 q 0.80712,-0.81615 1.84696,-1.40669 1.05043,-0.6033 2.28733,-0.71779 2.35711,-0.21819 3.82928,1.44618 1.48276,1.65161 1.77548,4.81387 z m -2.25836,0.26789 q -0.21819,-2.35711 -1.13135,-3.44947 -0.91317,-1.09235 -2.58182,-0.9379 -0.94517,0.0875 -1.86422,0.58448 -0.91904,0.49698 -1.73264,1.24311 l 0.68372,7.38639 q 0.9724,0.33367 1.65157,0.4238 0.69083,0.089 1.54266,0.0102 1.83201,-0.16958 2.74438,-1.50153 0.91236,-1.33195 0.6877,-3.75908 z"
       style="font-size:24px;fill:#000000;fill-opacity:1"
       id="path67870" /><path
       d="m 371.75842,270.63625 -0.11695,-0.007 q -0.4837,-0.14836 -0.94851,-0.22505 -0.45236,-0.0876 -1.08388,-0.12801 -1.01745,-0.0651 -1.9939,0.33047 -0.9757,0.38384 -1.89843,1.04115 l -0.59297,9.27403 -2.19863,-0.14058 0.83524,-13.06317 2.19863,0.14058 -0.12338,1.92965 q 1.37713,-0.96879 2.39886,-1.33794 1.03417,-0.3801 2.07502,-0.31355 0.57304,0.0366 0.82809,0.0882 0.25579,0.0398 0.76513,0.1546 z"
       style="font-size:24px;fill:#000000;fill-opacity:1"
       id="path67872" /><path
       d="m 385.46126,277.65371 q -0.69752,3.12226 -2.70236,4.57158 -2.00485,1.44932 -4.69251,0.84889 -2.71052,-0.60553 -3.90799,-2.77025 -1.18603,-2.16216 -0.48852,-5.28442 0.69752,-3.12225 2.69093,-4.57413 2.0074,-1.46076 4.71793,-0.85522 2.68765,0.60042 3.88256,2.77658 1.19747,2.16472 0.49996,5.28697 z m -2.21875,-0.49567 q 0.55443,-2.48179 -0.14942,-3.89983 -0.7013,-1.42948 -2.42826,-1.81528 -1.74984,-0.39092 -2.9928,0.60421 -1.22897,0.98625 -1.7834,3.46804 -0.53655,2.40173 0.15708,3.86552 0.6962,1.45236 2.43459,1.84072 1.71553,0.38324 2.96104,-0.62332 1.25951,-1.01545 1.80117,-3.44006 z"
       style="font-size:24px;fill:#000000;fill-opacity:1"
       id="path67874" /><path
       d="m 397.6274,287.98454 q -1.31423,3.05766 -3.31855,3.89263 -2.00433,0.83498 -4.88972,-0.40521 -0.95821,-0.41185 -1.81319,-0.94515 -0.84885,-0.51791 -1.62525,-1.145 l 0.88848,-2.06714 0.10767,0.0463 q 0.41196,0.40666 1.36828,1.14935 0.95169,0.75344 2.02833,1.2162 1.03357,0.44424 1.81829,0.48815 0.78471,0.0439 1.35127,-0.23555 0.55729,-0.25792 0.9733,-0.78066 0.41601,-0.52274 0.73069,-1.25485 l 0.47201,-1.09817 q -1.22982,0.33877 -2.22693,0.34388 -0.98172,-0.001 -2.27369,-0.55634 -2.15327,-0.92551 -2.75734,-3.02192 -0.58867,-2.10254 0.62837,-4.9341 0.66637,-1.55036 1.57829,-2.48496 0.92731,-0.94074 2.03265,-1.43506 1.02837,-0.46362 2.21012,-0.45315 1.18637,-2.9e-4 2.17688,0.42544 1.04434,0.44887 1.6516,0.96499 0.62266,0.50998 1.22351,1.27845 l 0.35131,-0.46126 1.89489,0.81445 z m -1.19112,-2.80792 2.81817,-6.55673 q -0.65014,-0.71312 -1.28517,-1.16464 -0.61964,-0.45766 -1.30868,-0.75382 -1.66879,-0.71727 -3.10826,-0.009 -1.43948,0.70785 -2.35573,2.8396 -0.86998,2.02407 -0.60827,3.37383 0.26171,1.34976 1.90897,2.05777 0.88284,0.37946 1.90914,0.42516 1.04169,0.0396 2.02983,-0.21175 z"
       style="font-size:24px;fill:#000000;fill-opacity:1"
       id="path67876" /><path
       d="m 413.39925,286.85224 -0.0992,-0.0624 q -0.35427,-0.36121 -0.72613,-0.65043 -0.3557,-0.29289 -0.8914,-0.62976 -0.86307,-0.54273 -1.90991,-0.66114 -1.0406,-0.12833 -2.16516,0.009 l -4.94696,7.86681 -1.86503,-1.1728 6.96818,-11.081 1.86502,1.1728 -1.02932,1.63686 q 1.67252,-0.19414 2.74657,-0.0309 1.0902,0.15952 1.97311,0.71473 0.48609,0.30567 0.68563,0.47268 0.20577,0.15708 0.59859,0.50101 z"
       style="font-size:24px;fill:#000000;fill-opacity:1"
       id="path67878" /><path
       d="m 416.73244,303.56717 -1.65827,-1.43263 0.91167,-1.05526 q -0.35193,-0.0408 -0.97074,-0.0953 -0.60227,-0.0557 -1.09488,-0.20256 -0.59299,-0.15612 -1.24884,-0.49043 -0.66351,-0.32544 -1.39066,-0.95365 -1.33903,-1.15683 -1.50403,-2.84801 -0.16501,-1.69119 1.02246,-3.06569 0.97296,-1.1262 2.04939,-1.40419 1.09295,-0.27919 2.33334,0.0955 1.24926,0.38238 2.63992,1.33603 1.39066,0.95366 2.90626,2.13913 l 0.22217,-0.25716 q 0.49031,-0.56753 0.60812,-1.11618 0.12668,-0.54099 -0.0619,-1.07559 -0.17851,-0.5104 -0.61381,-1.01036 -0.4353,-0.49996 -0.97624,-0.96729 -0.65621,-0.56692 -1.61639,-1.08673 -0.95253,-0.52867 -2.09616,-0.94369 l -0.0887,-0.0766 1.46327,-1.69374 q 0.60265,0.28835 1.66279,0.92548 1.06014,0.63714 1.95578,1.41091 1.0464,0.90401 1.66467,1.74788 0.6348,0.84266 0.84226,1.74975 0.20626,0.89057 -0.0604,1.79073 -0.26662,0.90016 -1.09402,1.85788 z m 0.44853,-3.87126 2.3826,-2.75786 q -0.80093,-0.61452 -1.91506,-1.42219 -1.10527,-0.80001 -1.85384,-1.15247 -0.89449,-0.4166 -1.71327,-0.36513 -0.81112,0.0426 -1.46231,0.79635 -0.73547,0.8513 -0.59653,1.73017 0.14659,0.86999 1.20185,1.78166 0.87791,0.75845 1.89619,1.04969 1.02593,0.28237 2.06037,0.33978 z"
       style="font-size:24px;fill:#000000;fill-opacity:1"
       id="path67880" /><path
       d="m 431.15451,321.90973 -1.28481,-1.7897 6.05451,-4.34649 q 0.68542,-0.49206 1.2754,-1.01658 0.59681,-0.515 0.83408,-0.98828 0.25216,-0.51282 0.16773,-1.07251 -0.0844,-0.5597 -0.638,-1.33079 -0.53989,-0.75206 -1.46058,-1.23075 -0.91116,-0.48552 -2.03175,-0.82069 -0.19845,0.18574 -0.47989,0.41664 -0.27192,0.22406 -0.55751,0.42908 l -6.80657,4.88639 -1.28481,-1.7897 6.05451,-4.34649 q 0.70446,-0.50572 1.28491,-1.02341 0.59682,-0.51501 0.83409,-0.98828 0.25216,-0.51282 0.15821,-1.06568 -0.0844,-0.5597 -0.638,-1.33079 -0.52623,-0.73302 -1.42103,-1.21586 -0.88798,-0.47331 -1.97586,-0.80312 l -7.93941,5.69965 -1.28481,-1.7897 10.63347,-7.6337 1.28481,1.7897 -1.18044,0.84743 q 1.29634,0.33884 2.28121,0.88685 0.99171,0.55754 1.66829,1.49998 0.77909,1.08525 0.86204,2.16534 0.0898,1.08961 -0.45286,2.04177 1.69298,0.42917 2.73521,1.03699 1.05175,0.60098 1.783,1.61958 1.25747,1.75162 0.78584,3.34526 -0.45528,1.59631 -2.35922,2.96313 z"
       style="font-size:24px;fill:#000000;fill-opacity:1"
       id="path67882" /><path
       d="m 433.39761,341.88245 -0.79559,-2.56295 q 1.65703,-2.68623 4.00262,-4.61685 2.34559,-1.93061 5.71436,-2.97634 3.36877,-1.04573 6.3953,-0.78273 3.02653,0.263 5.91342,1.53871 l 0.79559,2.56295 -0.11192,0.0347 q -1.09842,-0.65293 -2.42993,-1.14761 -1.31685,-0.48696 -2.9571,-0.75083 -1.58506,-0.24419 -3.37348,-0.1553 -1.78495,0.10008 -3.62042,0.66984 -1.91382,0.59409 -3.378,1.49034 -1.46071,0.90743 -2.67788,2.04603 -1.16815,1.09884 -2.00864,2.30456 -0.85168,1.2092 -1.35641,2.31069 z"
       style="font-size:24px;fill:#000000;fill-opacity:1"
       id="path67884" /><path
       d="m 448.67969,352.99121 q -0.42247,0.62597 -1.12751,1.08976 -0.70505,0.46379 -1.9008,0.62844 -1.18414,0.16305 -2.23007,-0.13062 -1.04593,-0.29367 -1.88441,-0.97078 -0.93253,-0.75879 -1.49029,-1.88858 -0.54455,-1.11978 -0.73798,-2.5245 -0.19821,-1.43954 -0.0418,-2.8806 0.14485,-1.43946 0.42809,-2.38932 l 2.42632,-0.33409 0.024,0.17414 q -0.51424,1.0763 -0.75995,2.4705 -0.24572,1.39421 -0.0747,2.63639 0.10071,0.73138 0.458,1.52207 0.35729,0.79068 0.9036,1.23595 0.58434,0.46369 1.23479,0.63437 0.65206,0.18229 1.5924,0.0528 0.92874,-0.12788 1.49086,-0.51284 0.57532,-0.37495 0.85167,-0.94532 0.28795,-0.57197 0.31335,-1.33255 0.037,-0.76217 -0.0813,-1.62125 l -0.14386,-1.04483 1.92712,-0.26535 0.1119,0.81264 q 0.24297,1.7646 1.11822,2.70873 0.88846,0.95413 2.30478,0.75911 0.6269,-0.0863 1.0545,-0.41727 0.43921,-0.33255 0.67551,-0.85009 0.23311,-0.54076 0.27087,-1.12559 0.0378,-0.58484 -0.0613,-1.30461 -0.15186,-1.10288 -0.71761,-2.29071 -0.56576,-1.18784 -1.43739,-2.19161 l -0.016,-0.11609 2.42632,-0.33409 q 0.51982,0.76831 1.04511,2.09184 0.5385,1.33354 0.71594,2.62216 0.17423,1.26541 0.0747,2.26094 -0.0995,0.99554 -0.50322,1.84369 -0.44215,0.91259 -1.17243,1.45083 -0.73028,0.53824 -1.78672,0.6837 -1.43954,0.19822 -2.65987,-0.67473 -1.20712,-0.86294 -1.67596,-2.20607 l -0.16253,0.0224 q -0.0161,0.57003 -0.21888,1.33136 -0.19112,0.75974 -0.56353,1.31968 z"
       style="font-size:24px;fill:#000000;fill-opacity:1"
       id="path67886" /><path
       d="m 447.08152,366.18496 q -3.52622,-0.089 -6.30886,-1.30801 -2.78263,-1.21903 -5.10845,-3.3526 l 0.0677,-2.68274 0.11715,0.003 q 0.78557,0.92246 1.93431,1.85408 1.13673,0.94304 2.56023,1.67059 1.4812,0.76417 3.13409,1.22789 1.65259,0.47544 3.65586,0.52599 1.92126,0.0485 3.66603,-0.34121 1.74476,-0.3897 3.20374,-1.06796 1.50643,-0.7005 2.64124,-1.53932 1.14622,-0.82682 2.02536,-1.75415 l 0.11715,0.003 -0.0677,2.68274 q -2.43048,2.01355 -5.27105,3.09067 -2.84058,1.07711 -6.3668,0.98813 z"
       style="font-size:24px;fill:#000000;fill-opacity:1"
       id="path67888" /></g></g></svg>
