<?xml version="1.0" encoding="UTF-8" standalone="no"?>
<!-- Generator: Adobe Illustrator 20.0.0, SVG Export Plug-In . SVG Version: 6.00 Build 0)  -->

<svg
   version="1.1"
   id="svg2"
   x="0px"
   y="0px"
   viewBox="0 0 721.6 721.6"
   style="enable-background:new 0 0 721.6 721.6;"
   xml:space="preserve"
   sodipodi:docname="red4.svg"
   inkscape:version="1.1 (c68e22c387, 2021-05-23)"
   xmlns:inkscape="http://www.inkscape.org/namespaces/inkscape"
   xmlns:sodipodi="http://sodipodi.sourceforge.net/DTD/sodipodi-0.dtd"
   xmlns="http://www.w3.org/2000/svg"
   xmlns:svg="http://www.w3.org/2000/svg"><defs
   id="defs1626"><inkscape:path-effect
     effect="bspline"
     id="path-effect11541"
     is_visible="true"
     lpeversion="1"
     weight="33.333333"
     steps="2"
     helper_size="0"
     apply_no_weight="true"
     apply_with_weight="true"
     only_selected="false" /><inkscape:path-effect
     effect="fill_between_many"
     method="originald"
     linkedpaths="#g12224,0,1"
     id="path-effect12573" /></defs><sodipodi:namedview
   id="namedview1624"
   pagecolor="#ffffff"
   bordercolor="#666666"
   borderopacity="1.0"
   inkscape:pageshadow="2"
   inkscape:pageopacity="0.0"
   inkscape:pagecheckerboard="0"
   showgrid="false"
   showguides="false"
   inkscape:zoom="0.76727357"
   inkscape:cx="470.49711"
   inkscape:cy="407.28628"
   inkscape:window-width="1920"
   inkscape:window-height="1001"
   inkscape:window-x="-9"
   inkscape:window-y="-9"
   inkscape:window-maximized="1"
   inkscape:current-layer="layer1" />
<style
   type="text/css"
   id="style1226">
	
		.st0{opacity:0.9895;fill:url(#path3302_3_);stroke:#5A5A59;stroke-width:0.9965;stroke-linecap:round;stroke-linejoin:round;enable-background:new    ;}
	
		.st1{opacity:0.9895;fill:url(#path3304_3_);stroke:#5A5A59;stroke-width:0.9965;stroke-linecap:round;stroke-linejoin:round;enable-background:new    ;}
	
		.st2{opacity:0.9895;fill:url(#path3306_3_);stroke:#5A5A59;stroke-width:0.9965;stroke-linecap:round;stroke-linejoin:round;enable-background:new    ;}
	
		.st3{opacity:0.9895;fill:url(#path3310_3_);stroke:#5A5A59;stroke-width:0.9965;stroke-linecap:round;stroke-linejoin:round;enable-background:new    ;}
	
		.st4{opacity:0.9895;fill:url(#path3312_3_);stroke:#5A5A59;stroke-width:0.9965;stroke-linecap:round;stroke-linejoin:round;enable-background:new    ;}
	
		.st5{opacity:0.9895;fill:url(#path3314_3_);stroke:#5A5A59;stroke-width:0.9965;stroke-linecap:round;stroke-linejoin:round;enable-background:new    ;}
	
		.st6{opacity:0.9895;fill:url(#path3316_3_);stroke:#5A5A59;stroke-width:0.9965;stroke-linecap:round;stroke-linejoin:round;enable-background:new    ;}
	
		.st7{opacity:0.9895;fill:url(#path3318_3_);stroke:#5A5A59;stroke-width:0.9965;stroke-linecap:round;stroke-linejoin:round;enable-background:new    ;}
	
		.st8{opacity:0.9895;fill:url(#path3320_3_);stroke:#5A5A59;stroke-width:0.9965;stroke-linecap:round;stroke-linejoin:round;enable-background:new    ;}
	
		.st9{opacity:0.9895;fill:url(#path3322_3_);stroke:#5A5A59;stroke-width:0.9965;stroke-linecap:round;stroke-linejoin:round;enable-background:new    ;}
	
		.st10{opacity:0.9895;fill:url(#path3308_3_);stroke:#5A5A59;stroke-width:0.9965;stroke-linecap:round;stroke-linejoin:round;enable-background:new    ;}
	
		.st11{opacity:0.9895;fill:url(#path3324_3_);stroke:#5A5A59;stroke-width:0.9965;stroke-linecap:round;stroke-linejoin:round;enable-background:new    ;}
	
		.st12{opacity:0.9895;fill:url(#path3326_3_);stroke:#5A5A59;stroke-width:0.9965;stroke-linecap:round;stroke-linejoin:round;enable-background:new    ;}
	
		.st13{opacity:0.9895;fill:url(#path3328_3_);stroke:#5A5A59;stroke-width:0.9965;stroke-linecap:round;stroke-linejoin:round;enable-background:new    ;}
	
		.st14{opacity:0.9895;fill:url(#path3330_3_);stroke:#5A5A59;stroke-width:0.9965;stroke-linecap:round;stroke-linejoin:round;enable-background:new    ;}
	
		.st15{opacity:0.9895;fill:url(#path3332_3_);stroke:#5A5A59;stroke-width:0.9965;stroke-linecap:round;stroke-linejoin:round;enable-background:new    ;}
	
		.st16{opacity:0.9895;fill:url(#path3334_3_);stroke:#5A5A59;stroke-width:0.9965;stroke-linecap:round;stroke-linejoin:round;enable-background:new    ;}
	
		.st17{opacity:0.9895;fill:url(#path3336_3_);stroke:#5A5A59;stroke-width:0.9965;stroke-linecap:round;stroke-linejoin:round;enable-background:new    ;}
	
		.st18{opacity:0.9895;fill:url(#path3338_3_);stroke:#5A5A59;stroke-width:0.9965;stroke-linecap:round;stroke-linejoin:round;enable-background:new    ;}
	
		.st19{opacity:0.9895;fill:url(#path3340_3_);stroke:#5A5A59;stroke-width:0.9965;stroke-linecap:round;stroke-linejoin:round;enable-background:new    ;}
	.st20{opacity:0.9895;enable-background:new    ;}
	
		.st21{opacity:0.9895;fill:url(#path3302_5_);stroke:#5A5A59;stroke-width:0.9965;stroke-linecap:round;stroke-linejoin:round;enable-background:new    ;}
	
		.st22{opacity:0.9895;fill:url(#path3304_5_);stroke:#5A5A59;stroke-width:0.9965;stroke-linecap:round;stroke-linejoin:round;enable-background:new    ;}
	
		.st23{opacity:0.9895;fill:url(#path3306_5_);stroke:#5A5A59;stroke-width:0.9965;stroke-linecap:round;stroke-linejoin:round;enable-background:new    ;}
	
		.st24{opacity:0.9895;fill:url(#path3310_5_);stroke:#5A5A59;stroke-width:0.9965;stroke-linecap:round;stroke-linejoin:round;enable-background:new    ;}
	
		.st25{opacity:0.9895;fill:url(#path3312_5_);stroke:#5A5A59;stroke-width:0.9965;stroke-linecap:round;stroke-linejoin:round;enable-background:new    ;}
	
		.st26{opacity:0.9895;fill:url(#path3314_5_);stroke:#5A5A59;stroke-width:0.9965;stroke-linecap:round;stroke-linejoin:round;enable-background:new    ;}
	
		.st27{opacity:0.9895;fill:url(#path3316_5_);stroke:#5A5A59;stroke-width:0.9965;stroke-linecap:round;stroke-linejoin:round;enable-background:new    ;}
	
		.st28{opacity:0.9895;fill:url(#path3318_5_);stroke:#5A5A59;stroke-width:0.9965;stroke-linecap:round;stroke-linejoin:round;enable-background:new    ;}
	
		.st29{opacity:0.9895;fill:url(#path3320_5_);stroke:#5A5A59;stroke-width:0.9965;stroke-linecap:round;stroke-linejoin:round;enable-background:new    ;}
	
		.st30{opacity:0.9895;fill:url(#path3322_5_);stroke:#5A5A59;stroke-width:0.9965;stroke-linecap:round;stroke-linejoin:round;enable-background:new    ;}
	
		.st31{opacity:0.9895;fill:url(#path3308_5_);stroke:#5A5A59;stroke-width:0.9965;stroke-linecap:round;stroke-linejoin:round;enable-background:new    ;}
	
		.st32{opacity:0.9895;fill:url(#path3324_5_);stroke:#5A5A59;stroke-width:0.9965;stroke-linecap:round;stroke-linejoin:round;enable-background:new    ;}
	
		.st33{opacity:0.9895;fill:url(#path3326_5_);stroke:#5A5A59;stroke-width:0.9965;stroke-linecap:round;stroke-linejoin:round;enable-background:new    ;}
	
		.st34{opacity:0.9895;fill:url(#path3328_5_);stroke:#5A5A59;stroke-width:0.9965;stroke-linecap:round;stroke-linejoin:round;enable-background:new    ;}
	
		.st35{opacity:0.9895;fill:url(#path3330_5_);stroke:#5A5A59;stroke-width:0.9965;stroke-linecap:round;stroke-linejoin:round;enable-background:new    ;}
	
		.st36{opacity:0.9895;fill:url(#path3332_5_);stroke:#5A5A59;stroke-width:0.9965;stroke-linecap:round;stroke-linejoin:round;enable-background:new    ;}
	
		.st37{opacity:0.9895;fill:url(#path3334_5_);stroke:#5A5A59;stroke-width:0.9965;stroke-linecap:round;stroke-linejoin:round;enable-background:new    ;}
	
		.st38{opacity:0.9895;fill:url(#path3336_5_);stroke:#5A5A59;stroke-width:0.9965;stroke-linecap:round;stroke-linejoin:round;enable-background:new    ;}
	
		.st39{opacity:0.9895;fill:url(#path3338_5_);stroke:#5A5A59;stroke-width:0.9965;stroke-linecap:round;stroke-linejoin:round;enable-background:new    ;}
	
		.st40{opacity:0.9895;fill:url(#path3340_5_);stroke:#5A5A59;stroke-width:0.9965;stroke-linecap:round;stroke-linejoin:round;enable-background:new    ;}
	
		.st41{opacity:0.9895;fill:url(#path3302_6_);stroke:#5A5A59;stroke-width:0.9965;stroke-linecap:round;stroke-linejoin:round;enable-background:new    ;}
	
		.st42{opacity:0.9895;fill:url(#path3304_6_);stroke:#5A5A59;stroke-width:0.9965;stroke-linecap:round;stroke-linejoin:round;enable-background:new    ;}
	
		.st43{opacity:0.9895;fill:url(#path3306_6_);stroke:#5A5A59;stroke-width:0.9965;stroke-linecap:round;stroke-linejoin:round;enable-background:new    ;}
	
		.st44{opacity:0.9895;fill:url(#path3310_6_);stroke:#5A5A59;stroke-width:0.9965;stroke-linecap:round;stroke-linejoin:round;enable-background:new    ;}
	
		.st45{opacity:0.9895;fill:url(#path3312_6_);stroke:#5A5A59;stroke-width:0.9965;stroke-linecap:round;stroke-linejoin:round;enable-background:new    ;}
	
		.st46{opacity:0.9895;fill:url(#path3314_6_);stroke:#5A5A59;stroke-width:0.9965;stroke-linecap:round;stroke-linejoin:round;enable-background:new    ;}
	
		.st47{opacity:0.9895;fill:url(#path3316_6_);stroke:#5A5A59;stroke-width:0.9965;stroke-linecap:round;stroke-linejoin:round;enable-background:new    ;}
	
		.st48{opacity:0.9895;fill:url(#path3318_6_);stroke:#5A5A59;stroke-width:0.9965;stroke-linecap:round;stroke-linejoin:round;enable-background:new    ;}
	
		.st49{opacity:0.9895;fill:url(#path3320_6_);stroke:#5A5A59;stroke-width:0.9965;stroke-linecap:round;stroke-linejoin:round;enable-background:new    ;}
	
		.st50{opacity:0.9895;fill:url(#path3322_6_);stroke:#5A5A59;stroke-width:0.9965;stroke-linecap:round;stroke-linejoin:round;enable-background:new    ;}
	
		.st51{opacity:0.9895;fill:url(#path3308_6_);stroke:#5A5A59;stroke-width:0.9965;stroke-linecap:round;stroke-linejoin:round;enable-background:new    ;}
	
		.st52{opacity:0.9895;fill:url(#path3324_6_);stroke:#5A5A59;stroke-width:0.9965;stroke-linecap:round;stroke-linejoin:round;enable-background:new    ;}
	
		.st53{opacity:0.9895;fill:url(#path3326_6_);stroke:#5A5A59;stroke-width:0.9965;stroke-linecap:round;stroke-linejoin:round;enable-background:new    ;}
	
		.st54{opacity:0.9895;fill:url(#path3328_6_);stroke:#5A5A59;stroke-width:0.9965;stroke-linecap:round;stroke-linejoin:round;enable-background:new    ;}
	
		.st55{opacity:0.9895;fill:url(#path3330_6_);stroke:#5A5A59;stroke-width:0.9965;stroke-linecap:round;stroke-linejoin:round;enable-background:new    ;}
	
		.st56{opacity:0.9895;fill:url(#path3332_6_);stroke:#5A5A59;stroke-width:0.9965;stroke-linecap:round;stroke-linejoin:round;enable-background:new    ;}
	
		.st57{opacity:0.9895;fill:url(#path3334_6_);stroke:#5A5A59;stroke-width:0.9965;stroke-linecap:round;stroke-linejoin:round;enable-background:new    ;}
	
		.st58{opacity:0.9895;fill:url(#path3336_6_);stroke:#5A5A59;stroke-width:0.9965;stroke-linecap:round;stroke-linejoin:round;enable-background:new    ;}
	
		.st59{opacity:0.9895;fill:url(#path3338_6_);stroke:#5A5A59;stroke-width:0.9965;stroke-linecap:round;stroke-linejoin:round;enable-background:new    ;}
	
		.st60{opacity:0.9895;fill:url(#path3340_6_);stroke:#5A5A59;stroke-width:0.9965;stroke-linecap:round;stroke-linejoin:round;enable-background:new    ;}
	.st61{fill:#004C99;stroke:#5A5A59;stroke-width:0.9965;stroke-linecap:round;stroke-linejoin:round;}
	.st62{opacity:0.3;}
</style>





<g
   inkscape:groupmode="layer"
   id="layer1"
   inkscape:label="red"
   style="display:inline"><g
     id="g1352">
	<g
   id="g1288">
		<linearGradient
   id="path3302_3_"
   gradientUnits="userSpaceOnUse"
   x1="261.125"
   y1="263.52499"
   x2="469.875"
   y2="54.775002">
			<stop
   offset="0.3254"
   style="stop-color:#E63329"
   id="stop1228" />
			<stop
   offset="0.6124"
   style="stop-color:#B92D1F"
   id="stop1230" />
		</linearGradient>
		<path
   id="path3302_4_"
   class="st0"
   d="m 320.7,8.6 c 48.9,-18 67.6,15.3 109.7,6.7 l -71.6,345.9 z" />
		<linearGradient
   id="path3304_3_"
   gradientUnits="userSpaceOnUse"
   x1="334.72501"
   y1="332.22491"
   x2="585.56543"
   y2="81.384598">
			<stop
   offset="0.3254"
   style="stop-color:#E63329"
   id="stop1234" />
			<stop
   offset="0.6124"
   style="stop-color:#B92D1F"
   id="stop1236" />
		</linearGradient>
		<path
   id="path3304_4_"
   class="st1"
   d="m 538.9,49.8 c 50.3,13.9 46.1,53.5 85.4,71.1 l -262.9,238 z" />
		<linearGradient
   id="path3306_3_"
   gradientUnits="userSpaceOnUse"
   x1="439.5"
   y1="437.70001"
   x2="673.79999"
   y2="203.39999">
			<stop
   offset="0.3254"
   style="stop-color:#E63329"
   id="stop1240" />
			<stop
   offset="0.6124"
   style="stop-color:#B92D1F"
   id="stop1242" />
		</linearGradient>
		<path
   id="path3306_4_"
   class="st2"
   d="m 684.4,214 c 32.4,40.6 8.8,68.9 30,105.8 L 361,359.2 Z" />
		<linearGradient
   id="path3310_3_"
   gradientUnits="userSpaceOnUse"
   x1="481.39999"
   y1="480.10001"
   x2="620.15002"
   y2="341.35001">
			<stop
   offset="0.3254"
   style="stop-color:#E63329"
   id="stop1246" />
			<stop
   offset="0.6124"
   style="stop-color:#B92D1F"
   id="stop1248" />
		</linearGradient>
		<path
   id="path3310_4_"
   class="st3"
   d="m 709.1,430.3 c 2.2,51.8 -34.7,61 -39.5,103.4 L 360.5,359.2 Z" />
		<linearGradient
   id="path3312_3_"
   gradientUnits="userSpaceOnUse"
   x1="398.09509"
   y1="571.79498"
   x2="485.49509"
   y2="484.39499">
			<stop
   offset="0.3254"
   style="stop-color:#E63329"
   id="stop1252" />
			<stop
   offset="0.6124"
   style="stop-color:#B92D1F"
   id="stop1254" />
		</linearGradient>
		<path
   id="path3312_4_"
   class="st4"
   d="m 599.2,619 c -28.9,43.2 -63.5,30.1 -92.4,61.5 L 360,358.9 Z" />
		<linearGradient
   id="path3314_3_"
   gradientUnits="userSpaceOnUse"
   x1="249.675"
   y1="665.67499"
   x2="458.42499"
   y2="456.92499">
			<stop
   offset="0.3254"
   style="stop-color:#E63329"
   id="stop1258" />
			<stop
   offset="0.6124"
   style="stop-color:#B92D1F"
   id="stop1260" />
		</linearGradient>
		<path
   id="path3314_4_"
   class="st5"
   d="m 399.1,713.3 c -48.9,18 -68.8,-17.6 -110.8,-9 l 71.6,-345.9 z" />
		<linearGradient
   id="path3316_3_"
   gradientUnits="userSpaceOnUse"
   x1="135.493"
   y1="635.80701"
   x2="386.75"
   y2="384.54999">
			<stop
   offset="0.3254"
   style="stop-color:#E63329"
   id="stop1264" />
			<stop
   offset="0.6124"
   style="stop-color:#B92D1F"
   id="stop1266" />
		</linearGradient>
		<path
   id="path3316_4_"
   class="st6"
   d="M 181.9,667.4 C 131.6,653.5 136.5,613.5 97.4,595.9 l 262.7,-238 z" />
		<linearGradient
   id="path3318_3_"
   gradientUnits="userSpaceOnUse"
   x1="48.525002"
   y1="512.52502"
   x2="282.02499"
   y2="279.0249">
			<stop
   offset="0.3254"
   style="stop-color:#E63329"
   id="stop1270" />
			<stop
   offset="0.6124"
   style="stop-color:#B92D1F"
   id="stop1272" />
		</linearGradient>
		<path
   id="path3318_4_"
   class="st7"
   d="M 38.1,502.1 C 5.7,461.5 28.3,433.9 7.1,396.8 l 353.5,-39.2 z" />
		<linearGradient
   id="path3320_3_"
   gradientUnits="userSpaceOnUse"
   x1="101.275"
   y1="375.375"
   x2="240.075"
   y2="236.575">
			<stop
   offset="0.3254"
   style="stop-color:#E63329"
   id="stop1276" />
			<stop
   offset="0.6124"
   style="stop-color:#B92D1F"
   id="stop1278" />
		</linearGradient>
		<path
   id="path3320_4_"
   class="st8"
   d="M 13.2,287.3 C 11,235.5 47.1,225.4 51.8,183 L 361,357.5 Z" />
		<linearGradient
   id="path3322_3_"
   gradientUnits="userSpaceOnUse"
   x1="235.16949"
   y1="231.36951"
   x2="322.5195"
   y2="144.0195">
			<stop
   offset="0.3254"
   style="stop-color:#E63329"
   id="stop1282" />
			<stop
   offset="0.6124"
   style="stop-color:#B92D1F"
   id="stop1284" />
		</linearGradient>
		<path
   id="path3322_4_"
   class="st9"
   d="M 119.9,96.5 C 148.8,53.3 185.7,67.7 214.6,36.1 L 361.5,357.7 Z" />
	</g>
	<g
   id="g1350">
		<linearGradient
   id="path3308_3_"
   gradientUnits="userSpaceOnUse"
   x1="399.625"
   y1="398.625"
   x2="651.23077"
   y2="147.0192">
			<stop
   offset="0.3254"
   style="stop-color:#E63329"
   id="stop1290" />
			<stop
   offset="0.6124"
   style="stop-color:#B92D1F"
   id="stop1292" />
		</linearGradient>
		<path
   id="path3308_4_"
   class="st10"
   d="m 599.4,98 c 43.5,28.7 53.7,87.5 85.5,116.2 L 361.1,360.1 Z" />
		<linearGradient
   id="path3324_3_"
   gradientUnits="userSpaceOnUse"
   x1="240.35001"
   y1="238.35001"
   x2="396.10001"
   y2="82.599998">
			<stop
   offset="0.3254"
   style="stop-color:#E63329"
   id="stop1296" />
			<stop
   offset="0.6124"
   style="stop-color:#B92D1F"
   id="stop1298" />
		</linearGradient>
		<path
   id="path3324_4_"
   class="st11"
   d="M 184,53 C 224.9,20.9 284.5,29.3 321.7,8.2 l 39.5,351 z" />
		<linearGradient
   id="path3326_3_"
   gradientUnits="userSpaceOnUse"
   x1="282.97501"
   y1="281.375"
   x2="524.32501"
   y2="40.025002">
			<stop
   offset="0.3254"
   style="stop-color:#E63329"
   id="stop1302" />
			<stop
   offset="0.6124"
   style="stop-color:#B92D1F"
   id="stop1304" />
		</linearGradient>
		<path
   id="path3326_4_"
   class="st12"
   d="m 399.1,8.6 c 52.2,-2.2 95.3,39.5 138,44.2 L 361.3,359.7 Z" />
		<linearGradient
   id="path3328_3_"
   gradientUnits="userSpaceOnUse"
   x1="465.27499"
   y1="465.17499"
   x2="675.97498"
   y2="254.47501">
			<stop
   offset="0.3254"
   style="stop-color:#E63329"
   id="stop1308" />
			<stop
   offset="0.6124"
   style="stop-color:#B92D1F"
   id="stop1310" />
		</linearGradient>
		<path
   id="path3328_4_"
   class="st13"
   d="m 709.1,287.6 c 18.2,48.5 -9,102 -0.3,143.8 L 360.4,360.3 Z" />
		<linearGradient
   id="path3330_3_"
   gradientUnits="userSpaceOnUse"
   x1="474.5"
   y1="495.79999"
   x2="575.29999"
   y2="395">
			<stop
   offset="0.3254"
   style="stop-color:#E63329"
   id="stop1314" />
			<stop
   offset="0.6124"
   style="stop-color:#B92D1F"
   id="stop1316" />
		</linearGradient>
		<path
   id="path3330_4_"
   class="st14"
   d="m 684.6,504.3 c -14,49.9 -67.2,77.8 -85,116.6 L 360,360.1 Z" />
		<linearGradient
   id="path3332_3_"
   gradientUnits="userSpaceOnUse"
   x1="324.85001"
   y1="636.15002"
   x2="480.5"
   y2="480.5">
			<stop
   offset="0.3254"
   style="stop-color:#E63329"
   id="stop1320" />
			<stop
   offset="0.6124"
   style="stop-color:#B92D1F"
   id="stop1322" />
		</linearGradient>
		<path
   id="path3332_4_"
   class="st15"
   d="m 537,665.8 c -40.9,32.1 -100.5,23.7 -137.7,44.8 l -39.7,-351 z" />
		<linearGradient
   id="path3334_3_"
   gradientUnits="userSpaceOnUse"
   x1="196.72501"
   y1="678.72498"
   x2="438.07501"
   y2="437.375">
			<stop
   offset="0.3254"
   style="stop-color:#E63329"
   id="stop1326" />
			<stop
   offset="0.6124"
   style="stop-color:#B92D1F"
   id="stop1328" />
		</linearGradient>
		<path
   id="path3334_4_"
   class="st16"
   d="M 322,710.2 C 269.8,712.4 226.7,670.7 184,666 L 359.7,359 Z" />
		<linearGradient
   id="path3336_3_"
   gradientUnits="userSpaceOnUse"
   x1="69.769203"
   y1="571.68073"
   x2="321.42499"
   y2="320.02499">
			<stop
   offset="0.3254"
   style="stop-color:#E63329"
   id="stop1332" />
			<stop
   offset="0.6124"
   style="stop-color:#B92D1F"
   id="stop1334" />
		</linearGradient>
		<path
   id="path3336_4_"
   class="st17"
   d="M 121.6,620.7 C 78.1,592 67.9,533.2 36.1,504.5 L 360,358.6 Z" />
		<linearGradient
   id="path3338_3_"
   gradientUnits="userSpaceOnUse"
   x1="45.275002"
   y1="463.97501"
   x2="255.72501"
   y2="253.52499">
			<stop
   offset="0.3254"
   style="stop-color:#E63329"
   id="stop1338" />
			<stop
   offset="0.6124"
   style="stop-color:#B92D1F"
   id="stop1340" />
		</linearGradient>
		<path
   id="path3338_4_"
   class="st18"
   d="M 12.6,431.3 C -5.6,382.8 21,329 12.2,287.3 l 348.4,71.1 z" />
		<linearGradient
   id="path3340_3_"
   gradientUnits="userSpaceOnUse"
   x1="145.75"
   y1="323.85001"
   x2="246.55"
   y2="223.05">
			<stop
   offset="0.3254"
   style="stop-color:#E63329"
   id="stop1344" />
			<stop
   offset="0.6124"
   style="stop-color:#B92D1F"
   id="stop1346" />
		</linearGradient>
		<path
   id="path3340_4_"
   class="st19"
   d="m 36.4,214.5 c 14,-49.9 67.2,-77.8 85,-116.6 l 239.7,260.9 z" />
	</g>
</g><g
     aria-label="4. Flag contains a cross with an image at its center"
     id="text94680"
     style="font-size:56px;line-height:1.25;-inkscape-font-specification:'sans-serif, Normal'"><path
       d="m 238.04916,603.26181 5.54751,2.39637 4.54334,-10.51768 4.81956,2.08192 -4.54335,10.51768 17.89763,7.73128 -2.49396,5.77343 -27.20682,13.26753 -4.61874,-1.99517 9.86741,-22.84269 -5.54751,-2.39637 z m 8.63213,8.49459 -7.2867,16.86844 21.77048,-10.61185 z"
       id="path98257" /><path
       d="m 228.54524,584.68968 5.69121,3.21223 -3.83049,6.78659 -5.6912,-3.21224 z"
       id="path98259" /><path
       d="m 158.8341,578.19724 15.87761,13.10889 7.31174,-8.85604 -13.64252,-11.26355 3.06396,-3.7111 13.64252,11.26355 12.48217,-15.11853 4.17499,3.44696 -25.92183,31.39677 -20.0526,-16.55585 z"
       id="path98261" /><path
       d="m 174.11108,542.54021 3.64886,3.62102 -29.96978,30.20015 -3.64887,-3.62103 z"
       id="path98263" /><path
       d="m 151.71089,517.10366 3.27517,3.92669 -2.4988,2.0842 q 0.79483,0.22721 2.19889,0.5872 1.36555,0.3565 2.44409,0.88118 1.30614,0.58409 2.68949,1.60227 1.40434,1.00067 2.84051,2.72254 2.64466,3.17074 2.38383,7.127 -0.26083,3.95625 -3.51558,6.67097 -2.66678,2.22432 -5.25043,2.45652 -2.62215,0.22872 -5.33602,-1.10397 -2.73138,-1.35368 -5.5719,-4.07622 -2.84052,-2.72253 -5.88085,-6.02614 l -0.60895,0.50791 q -1.34389,1.12092 -1.823,2.33948 -0.49661,1.19756 -0.26497,2.49984 0.21761,1.24276 1.03042,2.55878 0.81282,1.31602 1.88119,2.59692 1.29606,1.55388 3.30982,3.11444 1.99277,1.57808 4.4686,2.96688 l 0.17514,0.20999 -4.01068,3.34523 q -1.27826,-0.8922 -3.47772,-2.76076 -2.19946,-1.86857 -3.9684,-3.98941 -2.06669,-2.4778 -3.17046,-4.65494 -1.14229,-2.18063 -1.27629,-4.34769 -0.13747,-2.12855 0.81743,-4.10004 0.95491,-1.97149 3.22273,-3.86304 z m -2.49937,8.74312 -6.53048,5.44694 q 1.61122,1.71829 3.87037,3.99995 2.24165,2.26067 3.83159,3.35578 1.90162,1.29804 3.80625,1.48975 1.88363,0.20923 3.66849,-1.27948 2.01584,-1.68137 2.02893,-3.75748 -0.008,-2.05859 -2.09211,-4.55739 -1.73391,-2.07883 -3.96802,-3.13515 -2.25511,-1.03881 -4.61502,-1.56292 z"
       id="path98265" /><path
       d="m 129.66964,490.01348 q 6.56337,-4.15056 11.52235,-3.11307 4.95898,1.0375 8.8757,7.2311 1.30071,2.05683 2.24252,4.21121 0.9503,2.11665 1.61716,4.34785 l -4.4372,2.80601 -0.14615,-0.2311 q -0.25628,-1.32615 -1.11688,-4.01717 -0.83748,-2.70564 -2.29895,-5.01669 -1.403,-2.2186 -2.85527,-3.33842 -1.45226,-1.11982 -2.9113,-1.32949 -1.41282,-0.23889 -2.90311,0.21826 -1.4903,0.45715 -3.06181,1.45094 l -2.35726,1.4907 q 2.81375,0.97059 4.73945,2.27631 1.88797,1.29722 3.64173,4.07047 2.92293,4.62209 1.31956,9.45363 -1.6411,4.82305 -7.71915,8.6667 -3.3279,2.10451 -6.31598,2.70002 -3.02579,0.58701 -5.80521,0.08 -2.5908,-0.46454 -4.85127,-2.04384 -2.28358,-1.56468 -3.62812,-3.69085 -1.41763,-2.24171 -1.90537,-4.03618 -0.52547,-1.80297 -0.66792,-4.07462 l -1.28468,0.42418 -2.57218,-4.06744 z m -1.41232,6.9754 -14.07426,8.90032 q 0.31034,2.23018 0.93675,3.93697 0.58868,1.69829 1.52402,3.17735 2.26527,3.58212 5.96946,4.11903 3.70419,0.5369 8.28006,-2.3568 4.34476,-2.74755 5.62191,-5.69046 1.27714,-2.94291 -0.9589,-6.47881 -1.1984,-1.89506 -3.11323,-3.33706 -1.95255,-1.4505 -4.18581,-2.27054 z"
       id="path98267" /><path
       d="m 109.62337,440.9593 q 2.06805,1.96054 3.53739,3.88677 1.45957,1.90068 2.38825,4.32666 1.18284,3.08993 1.27639,6.01127 0.068,2.93112 -1.06678,5.4736 -1.12501,2.56802 -3.54302,4.66479 -2.418,2.09678 -6.17189,3.53379 -6.997028,2.67851 -12.447077,0.37301 -5.459825,-2.33104 -7.874393,-8.63858 -0.938456,-2.45152 -1.148321,-5.06483 -0.21964,-2.63884 0.02357,-4.98641 l 5.337152,-2.04309 0.09776,0.25536 q -0.870253,2.85111 -0.890218,5.5524 -0.02974,2.67576 0.820736,4.89744 1.564093,4.08586 5.231176,5.405 3.631771,1.30338 8.943391,-0.72994 5.15839,-1.97466 7.06208,-5.3385 1.86838,-3.37959 0.26518,-7.5676 -0.55721,-1.45558 -1.51701,-2.81561 -0.95981,-1.36003 -2.03214,-2.32563 -0.93707,-0.84172 -1.87633,-1.5362 -0.9648,-0.6847 -1.60421,-1.05479 l -0.0978,-0.25536 z"
       id="path98269" /><path
       d="m 88.397013,412.36589 q 7.244036,-1.80217 12.360747,0.8697 5.11671,2.67187 6.66803,8.90758 1.56453,6.28878 -1.7038,11.04669 -3.27492,4.73137 -10.51896,6.53354 -7.244036,1.80218 -12.354146,-0.84316 -5.143246,-2.66527 -6.707772,-8.95405 -1.551323,-6.23571 1.743539,-11.00022 3.268326,-4.7579 10.512362,-6.56008 z m 1.280667,5.14778 q -5.75808,1.43249 -7.983131,4.38111 -2.251586,2.95521 -1.254778,6.96199 1.01001,4.05984 4.383829,5.61557 3.340683,1.53579 9.098763,0.10329 5.572336,-1.38629 7.903527,-4.36131 2.30465,-2.96842 1.30125,-7.00173 -0.99021,-3.98024 -4.390564,-5.52936 -3.433491,-1.56905 -9.058896,-0.16956 z"
       id="path98271" /><path
       d="m 99.11216,375.41135 0.559452,5.11009 -17.287332,1.89262 q -2.092963,0.22914 -3.88733,0.67315 -1.821549,0.44699 -2.78302,1.21242 -1.067221,0.80452 -1.470985,2.14156 -0.430945,1.34001 -0.207759,3.37861 0.229137,2.09296 1.511996,4.26312 1.28286,2.17015 3.115696,4.08754 l 22.669242,-2.48183 0.55945,5.11009 -30.361558,3.32398 -0.559453,-5.11009 3.370486,-0.369 q -2.246109,-2.17472 -3.64027,-4.60776 -1.394162,-2.43304 -1.688767,-5.12399 -0.538622,-4.91982 2.141442,-7.82641 2.680064,-2.90659 8.252239,-3.51663 z"
       id="path98273" /><path
       d="m 98.751367,349.63154 q 0.378093,1.45046 0.618578,3.17391 0.240574,1.6961 0.236212,3.03594 -0.01522,4.67576 -2.538754,7.10115 -2.523533,2.42539 -8.074285,2.40732 l -16.242102,-0.0529 -0.0113,3.47264 -4.32029,-0.0141 0.01131,-3.47264 -8.777298,-0.0286 0.01673,-5.1406 8.777297,0.0286 0.03454,-10.60932 4.32029,0.0141 -0.03454,10.60931 13.917895,0.0453 q 2.406237,0.008 3.773774,-0.0971 1.340192,-0.10501 2.518104,-0.75743 1.095702,-0.598 1.618613,-1.63537 0.495656,-1.0648 0.502688,-3.22494 0.0041,-1.25781 -0.346922,-2.62614 -0.37836,-1.36843 -0.622494,-1.97079 l 8.9e-4,-0.27344 z"
       id="path98275" /><path
       d="m 101.94112,319.82659 -0.57272,5.08111 -3.233427,-0.36446 q 0.385353,0.73136 1.095982,1.99469 0.68652,1.23309 1.053105,2.37508 0.481,1.34751 0.70176,3.05093 0.24792,1.70647 -0.003,3.93455 -0.46246,4.10293 -3.501208,6.64969 -3.038747,2.54676 -7.25036,2.07205 -3.450805,-0.38895 -5.404814,-2.09511 -1.978118,-1.73639 -2.891517,-4.61855 -0.910337,-2.90933 -0.907126,-6.84389 0.0032,-3.93455 0.288111,-8.41521 l -0.787979,-0.0888 q -1.738989,-0.19601 -2.950641,0.30031 -1.208589,0.46915 -1.989341,1.53685 -0.747454,1.01643 -1.136336,2.51355 -0.388881,1.49711 -0.575703,3.15458 -0.226635,2.01071 0.0381,4.54458 0.237562,2.53082 0.945838,5.27979 l -0.03063,0.27172 -5.189794,-0.58497 q -0.23913,-1.54038 -0.409705,-4.42136 -0.170576,-2.88099 0.138751,-5.62533 0.361392,-3.20626 1.171276,-5.50894 0.785775,-2.33292 2.258853,-3.92797 1.442845,-1.57093 3.527445,-2.24402 2.084601,-0.6731 5.019144,-0.34233 z m -8.044931,4.23888 -8.450396,-0.95248 q -0.127529,2.35208 -0.214141,5.56179 -0.08355,3.18255 0.224453,5.08841 0.376874,2.27135 1.555155,3.78 1.151109,1.5056 3.460703,1.76592 2.608483,0.29401 4.117529,-1.13188 1.481874,-1.42895 1.846329,-4.66238 0.303202,-2.69 -0.478186,-5.03445 -0.808559,-2.34753 -2.061446,-4.41493 z"
       id="path98277" /><path
       d="m 70.212557,297.35817 -1.195928,5.67217 -5.217326,-1.10003 1.195927,-5.67217 z m 34.821503,7.67714 -1.06054,5.03004 -29.885914,-6.30118 1.060539,-5.03004 z"
       id="path98279" /><path
       d="m 114.83253,270.70976 -1.5471,4.9023 -16.584361,-5.23381 q -2.007856,-0.63365 -3.829014,-0.95033 -1.847234,-0.3249 -3.035626,-0.0118 -1.300925,0.30627 -2.209221,1.36726 -0.934372,1.05276 -1.551566,3.00847 -0.633653,2.00785 -0.334021,4.51095 0.299632,2.5031 1.204466,4.99648 l 21.747423,6.8632 -1.5471,4.9023 -29.126944,-9.19208 1.547101,-4.9023 3.233429,1.02043 q -1.179377,-2.89543 -1.474944,-5.68398 -0.295568,-2.78854 0.519129,-5.37007 1.489495,-4.71977 5.113563,-6.3 3.624068,-1.58024 8.969657,0.10676 z"
       id="path98281" /><path
       d="m 119.67031,238.01979 q 3.80357,1.74222 4.79368,6.01536 1.0015,4.24828 -1.49227,9.6926 -1.41199,3.08263 -3.31719,5.33784 -1.91866,2.21896 -3.58585,3.5606 l -5.24545,-2.40267 0.11388,-0.2486 q 2.67906,-1.4496 4.91465,-3.70384 2.21072,-2.26564 3.34943,-4.75163 1.412,-3.08263 1.2147,-5.27831 -0.19731,-2.19567 -2.33526,-3.17496 -1.64075,-0.75155 -2.9187,-0.19403 -1.27794,0.55752 -3.10439,2.9691 -0.67922,0.89191 -1.7177,2.37116 -1.02709,1.45439 -1.97864,2.61254 -2.64344,3.21032 -5.21393,3.8976 -2.58396,0.65104 -5.318555,-0.60154 -1.715334,-0.78571 -2.91295,-2.1764 -1.18623,-1.41555 -1.719056,-3.404 -0.530739,-1.92735 -0.222669,-4.37275 0.294598,-2.48165 1.513014,-5.14166 1.138707,-2.48599 2.921687,-4.73703 1.769506,-2.28728 3.413919,-3.57921 l 4.99685,2.28881 -0.11387,0.24859 q -2.13745,1.1864 -4.20527,3.33704 -2.092688,2.13925 -3.220009,4.60038 -1.172868,2.56057 -0.986953,4.78111 0.161054,2.20915 2.100127,3.09734 1.715335,0.78571 3.075075,0.11528 1.34835,-0.64557 2.96566,-2.73189 0.89044,-1.15607 1.91754,-2.61046 1.03847,-1.47925 1.77672,-2.43435 2.2375,-2.91504 4.86076,-3.84884 2.64811,-0.92241 5.68102,0.46682 z"
       id="path98283" /><path
       d="m 155.31624,199.12268 -3.00408,4.13777 -2.63313,-1.91169 q -0.0255,0.82628 -0.0303,2.27575 -0.0109,1.41127 -0.2552,2.58552 -0.24611,1.40946 -0.89415,3.00019 -0.6259,1.60678 -1.9432,3.42121 -2.42576,3.34119 -6.32525,4.05808 -3.8995,0.71688 -7.3292,-1.77313 -2.81014,-2.04021 -3.66857,-4.48811 -0.86449,-2.48609 -0.23768,-5.44384 0.64287,-2.97987 2.58607,-6.40108 1.94321,-3.42121 4.40079,-7.17858 l -0.64169,-0.46587 q -1.41614,-1.02814 -2.71496,-1.19393 -1.28276,-0.18791 -2.48852,0.35588 -1.15151,0.51559 -2.22815,1.6262 -1.07663,1.1106 -2.05657,2.46035 -1.18878,1.63741 -2.20812,3.97227 -1.04146,2.31879 -1.78103,5.05951 l -0.16064,0.22127 -4.22628,-3.06834 q 0.55164,-1.45796 1.82408,-4.04834 1.27243,-2.59038 2.89495,-4.82522 1.89562,-2.611 3.73579,-4.21477 1.8341,-1.64195 3.90221,-2.30305 2.02991,-0.65504 4.17533,-0.21252 2.14541,0.44252 4.53514,2.1775 z m -9.08904,-0.28 -6.88153,-4.99609 q -1.27092,1.98326 -2.92921,4.73278 -1.64222,2.72739 -2.3142,4.53726 -0.79231,2.16178 -0.51131,4.0553 0.25887,1.87746 2.13967,3.24295 2.12421,1.5422 4.14018,1.04599 1.99385,-0.51227 3.90554,-3.14539 1.59039,-2.19059 2.06686,-4.61547 0.45434,-2.44094 0.384,-4.85733 z"
       id="path98285" /><path
       d="m 190.49513,160.45498 q -1.05615,2.64671 -2.30195,4.72452 -1.2257,2.05927 -3.13584,3.81971 -2.43292,2.24225 -5.11229,3.41014 -2.69791,1.14779 -5.47983,1.03433 -2.80202,-0.0949 -5.6447,-1.56544 -2.84268,-1.47051 -5.56674,-4.42621 -5.07749,-5.50926 -4.9523,-11.42557 0.14529,-5.93484 5.11167,-10.51199 1.93025,-1.77897 4.28042,-2.94094 2.37027,-1.1805 4.6412,-1.82322 l 3.87297,4.20232 -0.20107,0.18531 q -2.97076,0.24651 -5.4877,1.22752 -2.49683,0.96247 -4.24612,2.57467 -3.21709,2.96496 -3.08568,6.85987 0.13299,3.85628 3.98744,8.03849 3.74326,4.06158 7.57274,4.58543 3.83107,0.48521 7.12858,-2.55387 1.14609,-1.05626 2.05443,-2.45119 0.90833,-1.39493 1.40861,-2.74845 0.43523,-1.18202 0.73286,-2.31159 0.2791,-1.14968 0.38632,-1.88064 l 0.20107,-0.18531 z"
       id="path98287" /><path
       d="m 197.38527,126.49881 -0.21889,0.16387 q -1.08323,0.46935 -2.02436,1.03727 -0.93563,0.52963 -2.11766,1.41452 -1.90439,1.42566 -3.03835,3.60669 -1.15036,2.15914 -1.79247,4.72341 l 12.99477,17.3584 -4.11523,3.08073 -18.30412,-24.45061 4.11524,-3.08073 2.70383,3.61177 q 0.97681,-3.80538 2.2311,-6.00818 1.2598,-2.24107 3.20797,-3.6995 1.07259,-0.80295 1.60332,-1.0978 0.51434,-0.31673 1.59219,-0.88452 z"
       id="path98289" /><path
       d="m 231.07658,117.42514 q 3.78733,6.43273 2.68043,12.09792 -1.10691,5.6652 -6.64424,8.92535 -5.58446,3.2879 -11.07523,1.50714 -5.46721,-1.79462 -9.25453,-8.22736 -3.78733,-6.43273 -2.70399,-12.08405 1.09303,-5.68875 6.67749,-8.97665 5.53734,-3.26015 11.04198,-1.45584 5.49077,1.78076 9.27809,8.21349 z m -4.57124,2.69136 q -3.01044,-5.1132 -6.46997,-6.40812 -3.4734,-1.31849 -7.03143,0.77633 -3.60516,2.12257 -4.13749,5.79947 -0.52264,3.63946 2.4878,8.75265 2.91333,4.94826 6.42835,6.33744 3.50115,1.36561 7.08274,-0.74309 3.53447,-2.08094 4.05293,-5.7814 0.52814,-3.7379 -2.41293,-8.73328 z"
       id="path98291" /><path
       d="m 262.51761,110.38204 q 1.67569,3.83334 -0.43292,7.67962 -2.08356,3.83532 -7.57051,6.23385 -3.10676,1.35807 -6.03005,1.77052 -2.90918,0.37644 -5.04632,0.26618 l -2.31092,-5.28651 0.25055,-0.10952 q 2.96365,0.70391 6.13268,0.5123 3.15808,-0.21666 5.66354,-1.31188 3.10676,-1.35807 4.42249,-3.12691 1.31573,-1.76883 0.37384,-3.92352 -0.72284,-1.6536 -2.04729,-2.08927 -1.32445,-0.43567 -4.29319,0.14585 -1.10075,0.2126 -2.86072,0.62384 -1.73492,0.40028 -3.21614,0.62999 -4.11015,0.63284 -6.48495,-0.56721 -2.36069,-1.23606 -3.56544,-3.99206 -0.7557,-1.72877 -0.72225,-3.56376 0.0585,-1.84594 0.98595,-3.68378 0.8883,-1.790888 2.74728,-3.409249 1.87309,-1.654368 4.55392,-2.826253 2.50546,-1.095219 5.33483,-1.58598 2.84347,-0.526767 4.9305,-0.394607 l 2.20139,5.035963 -0.25054,0.109522 q -2.38439,-0.539333 -5.35929,-0.31322 -2.98585,0.201058 -5.46625,1.285325 -2.58062,1.128076 -3.9214,2.907859 -1.35174,1.75474 -0.49747,3.70899 0.7557,1.72877 2.21637,2.13473 1.43562,0.41692 4.0317,-0.0614 1.43426,-0.26886 3.16918,-0.66915 1.75997,-0.41123 2.94684,-0.63163 3.61071,-0.6831 6.18909,0.36827 2.58933,1.07643 3.9255,4.13309 z"
       id="path98293" /><path
       d="m 291.22983,101.13161 q 1.24202,3.99498 -1.27852,7.58481 -2.49444,3.58172 -8.21274,5.35952 -3.23775,1.00661 -6.18871,1.09365 -2.93296,0.0528 -5.04485,-0.29283 l -1.71286,-5.50941 0.26111,-0.0812 q 2.86777,1.02695 6.03857,1.18654 3.16269,0.13349 5.77379,-0.67829 3.23775,-1.00661 4.74081,-2.6193 1.50305,-1.61268 0.80492,-3.85822 -0.53577,-1.72333 -1.804,-2.30262 -1.26822,-0.5793 -4.28303,-0.32924 -1.1175,0.0897 -2.91212,0.30404 -1.76852,0.20621 -3.26605,0.2709 -4.1549,0.17499 -6.38262,-1.280022 -2.20972,-1.489246 -3.10268,-4.361451 -0.56013,-1.801655 -0.32421,-3.621722 0.26203,-1.828185 1.38681,-3.552343 1.08068,-1.681813 3.10704,-3.08494 2.04436,-1.437357 4.83823,-2.305963 2.61109,-0.811781 5.47735,-0.987024 2.88426,-0.209472 4.94393,0.1524 l 1.63168,5.248301 -0.26111,0.08118 q -2.31023,-0.799398 -5.2919,-0.903257 -2.98979,-0.12997 -5.57477,0.673693 -2.68943,0.836135 -4.2186,2.456938 -1.53728,1.594691 -0.90409,3.631346 0.56013,1.801655 1.96702,2.366473 1.38079,0.572935 4.01381,0.384301 1.45518,-0.108795 3.2237,-0.315003 1.79462,-0.214327 2.99857,-0.302283 3.66407,-0.280105 6.11055,1.04963 2.45459,1.355845 3.44497,4.541378 z"
       id="path98295" /><path
       d="m 356.05977,70.097287 -5.37189,31.101933 -4.74111,0.39834 -9.79123,-22.803261 -5.79448,24.112771 -4.71386,0.39606 -10.56804,-29.762663 5.34056,-0.448713 7.56608,23.099982 5.62183,-24.208026 4.2234,-0.354849 9.77314,22.914545 3.30578,-24.013432 z"
       id="path98297" /><path
       d="m 372.77151,65.936154 -5.79371,-0.191462 0.1761,-5.329122 5.79372,0.191462 z m -1.50562,35.625956 -5.13782,-0.16978 1.00879,-30.526309 5.13782,0.169787 z"
       id="path98299" /><path
       d="m 397.22502,103.52273 q -1.48124,0.22953 -3.22017,0.29457 -1.71174,0.0679 -3.04427,-0.0719 -4.65027,-0.4878 -6.80814,-3.24358 -2.15788,-2.755775 -1.57881,-8.276268 l 1.69444,-16.153561 -3.4537,-0.362279 0.45071,-4.296738 3.4537,0.362279 0.91568,-8.72945 5.11258,0.536287 -0.91568,8.72945 10.55148,1.106805 -0.45071,4.296738 -10.55148,-1.106805 -1.45197,13.842025 q -0.25103,2.39312 -0.28488,3.764257 -0.031,1.343944 0.49901,2.581771 0.48418,1.150539 1.46337,1.775634 1.00924,0.600753 3.15761,0.826108 1.25095,0.131219 2.64776,-0.07968 1.39966,-0.238094 2.02362,-0.420088 l 0.27194,0.02853 z"
       id="path98301" /><path
       d="m 428.32516,110.0534 -5.02361,-1.0906 3.68948,-16.99475 q 0.44668,-2.05754 0.59486,-3.900078 0.15398,-1.869258 -0.26689,-3.023893 -0.42439,-1.267322 -1.56427,-2.074398 -1.13408,-0.833798 -3.13818,-1.268877 -2.05754,-0.446682 -4.52257,0.08144 -2.46503,0.52812 -4.86483,1.657996 l -4.83809,22.285572 -5.02361,-1.0906 9.02646,-41.578357 5.02361,1.0906 -3.266,15.044096 q 2.77495,-1.440161 5.5246,-1.990435 2.74964,-0.550274 5.39505,0.02403 4.83656,1.049992 6.74277,4.513716 1.9062,3.463724 0.71699,8.941592 z"
       id="path98303" /><path
       d="m 478.14391,128.97899 -4.67436,-2.07266 1.31897,-2.9746 q -0.81334,0.14785 -2.23179,0.44614 -1.38238,0.28438 -2.58175,0.29097 -1.42977,0.054 -3.12082,-0.24717 -1.70213,-0.27617 -3.75185,-1.18504 -3.77449,-1.67365 -5.29076,-5.3371 -1.51627,-3.66346 0.20172,-7.53794 1.40764,-3.17457 3.62199,-4.52578 2.25043,-1.36512 5.27386,-1.37051 3.04842,0.006 6.80028,1.19073 3.75185,1.18503 7.93997,2.8028 l 0.32143,-0.7249 q 0.70936,-1.59979 0.59996,-2.90457 -0.0844,-1.2937 -0.86826,-2.35914 -0.74494,-1.01827 -2.05608,-1.83894 -1.31114,-0.82066 -2.83593,-1.49677 -1.84975,-0.820199 -4.34612,-1.32889 -2.48528,-0.533687 -5.32005,-0.683938 l -0.24997,-0.110838 2.117,-4.774353 q 1.54107,0.234658 4.34023,0.937431 2.79915,0.702773 5.32381,1.822234 2.9496,1.307884 4.90263,2.772105 1.98911,1.450307 3.06796,3.334509 1.06493,1.84812 1.08071,4.03864 0.0158,2.19052 -1.18128,4.89015 z m -1.62633,-8.94673 3.44706,-7.77395 q -2.20513,-0.82822 -5.24057,-1.87505 -3.01045,-1.03575 -4.92081,-1.31451 -2.27965,-0.32287 -4.07259,0.34778 -1.78185,0.64565 -2.72397,2.77036 -1.06404,2.39967 -0.15734,4.26737 0.91778,1.84269 3.89238,3.16166 2.47466,1.09729 4.94557,1.05629 2.48199,-0.066 4.83027,-0.63995 z"
       id="path98305" /><path
       d="m 508.74757,146.86688 -4.38567,-2.68177 9.07238,-14.83663 q 1.09839,-1.79626 1.84418,-3.48762 0.76005,-1.71469 0.74224,-2.94351 0.0159,-1.3364 -0.79521,-2.4734 -0.79686,-1.16033 -2.54646,-2.23019 -1.79626,-1.09839 -4.29787,-1.41016 -2.50162,-0.31178 -5.1395,-0.0338 l -11.89681,19.45558 -4.38567,-2.68177 15.93374,-26.05742 4.38567,2.68178 -1.76883,2.89267 q 3.09419,-0.44764 5.87188,-0.0632 2.77769,0.38444 5.08717,1.79665 4.22237,2.58192 4.88368,6.47983 0.6613,3.89791 -2.26297,8.68016 z"
       id="path98307" /><path
       d="m 559.7457,142.02764 -4.35063,-3.8309 3.5237,-4.00176 4.35063,3.8309 z m -23.8099,26.54363 -3.8581,-3.39721 20.18449,-22.92289 3.85811,3.39721 z"
       id="path98309" /><path
       d="m 573.26806,208.54726 -3.36948,-3.88235 13.13392,-11.39886 q 1.48686,-1.29044 2.745,-2.63582 1.27607,-1.32473 1.72572,-2.47531 0.47577,-1.24564 0.15941,-2.52793 -0.31636,-1.28228 -1.76811,-2.955 -1.41589,-1.63141 -3.65782,-2.54592 -2.22128,-0.93242 -4.89688,-1.47055 -0.4212,0.47417 -1.02553,1.07108 -0.58368,0.57898 -1.2032,1.11667 l -14.76533,12.81476 -3.36947,-3.88236 13.13391,-11.39886 q 1.52816,-1.32628 2.76566,-2.65374 1.27606,-1.32473 1.72572,-2.4753 0.47576,-1.24565 0.13875,-2.51001 -0.31636,-1.28229 -1.7681,-2.955 -1.38005,-1.59012 -3.56276,-2.51982 -2.16478,-0.90904 -4.76323,-1.44171 l -17.22278,14.94756 -3.36947,-3.88235 23.06695,-20.0197 3.36948,3.88235 -2.5607,2.22242 q 3.08471,0.50891 5.49067,1.5707 2.42389,1.08244 4.19824,3.12687 2.04319,2.35419 2.46785,4.8459 0.44258,2.51235 -0.61375,4.84117 4.02567,0.63361 6.57774,1.82203 2.57272,1.1705 4.49045,3.38013 3.29779,3.79975 2.54418,7.60372 -0.71504,3.8067 -4.8452,7.39124 z"
       id="path98311" /><path
       d="m 590.74342,237.41179 -2.65533,-4.36976 2.78076,-1.68976 q -0.75224,-0.3428 -2.08723,-0.90742 -1.29742,-0.55546 -2.28602,-1.23457 -1.20484,-0.7717 -2.42154,-1.98413 -1.24006,-1.19824 -2.40443,-3.11439 -2.14414,-3.52853 -1.29833,-7.40211 0.84581,-3.87357 4.46781,-6.07452 2.9677,-1.80335 5.55716,-1.64907 2.62703,0.16346 5.11274,1.88461 2.49992,1.74453 4.90435,4.85892 2.40443,3.11439 4.92011,6.8331 l 0.67767,-0.41179 q 1.49553,-0.90877 2.15039,-2.04262 0.66905,-1.11047 0.63349,-2.43271 -0.0305,-1.2613 -0.63877,-2.68349 -0.60824,-1.42219 -1.47441,-2.84762 -1.05078,-1.72921 -2.8103,-3.57168 -1.73615,-1.85667 -3.97812,-3.59796 l -0.142,-0.23367 4.46324,-2.71214 q 1.13149,1.07224 3.02887,3.24689 1.89739,2.17465 3.33155,4.53479 1.67556,2.75739 2.44357,5.07438 0.80558,2.32615 0.61608,4.48907 -0.18034,2.12535 -1.4176,3.93306 -1.23725,1.8077 -3.76097,3.34127 z m 3.77079,-8.27466 7.26737,-4.41609 q -1.33801,-1.93863 -3.23304,-4.53066 -1.88084,-2.56866 -3.2904,-3.88787 -1.68763,-1.56619 -3.54263,-2.0388 -1.83164,-0.4868 -3.81789,0.72017 -2.24331,1.36316 -2.56474,3.41427 -0.29808,2.03692 1.39168,4.81768 1.40576,2.3134 3.45811,3.68997 2.07571,1.36237 4.33154,2.23133 z"
       id="path98313" /><path
       d="m 608.51649,267.47542 q -7.10725,3.12918 -11.85701,1.36632 -4.74975,-1.76287 -7.70265,-8.46972 -0.98063,-2.22728 -1.59185,-4.49769 -0.62522,-2.23436 -0.95313,-4.53988 l 4.8049,-2.1155 0.11019,0.25025 q 0.0564,1.34951 0.50754,4.13854 0.42614,2.80005 1.52796,5.3026 1.05776,2.40246 2.32749,3.72565 1.26974,1.32319 2.68143,1.74733 1.36164,0.44618 2.90331,0.21556 1.54168,-0.23062 3.24342,-0.97986 l 2.55261,-1.12386 q -2.63829,-1.37793 -4.34858,-2.95531 -1.67425,-1.56336 -2.99645,-4.56643 -2.20365,-5.00511 0.0999,-9.54476 2.33956,-4.52564 8.92129,-7.42344 3.60368,-1.58663 6.64707,-1.73151 3.07943,-0.13087 5.75265,0.78354 2.493,0.84436 4.4937,2.74202 2.02572,1.88665 3.0394,4.189 1.06877,2.42748 1.28444,4.27451 0.25172,1.86103 0.055,4.12863 l 1.33344,-0.22857 1.93922,4.4045 z m 2.43317,-6.6881 15.24056,-6.71012 q 0.0245,-2.25154 -0.34133,-4.03245 -0.32978,-1.76691 -1.03495,-3.36855 -1.70783,-3.87896 -5.29111,-4.96033 -3.58329,-1.08138 -8.53835,1.10024 -4.7048,2.07143 -6.40508,4.79189 -1.70027,2.72046 -0.0145,6.54937 0.9035,2.05209 2.58279,3.76262 1.71534,1.72454 3.80195,2.86733 z"
       id="path98315" /><path
       d="m 630.06352,298.8485 -6.29289,-21.60614 q -2.70405,0.78756 -4.48849,2.19017 -1.75819,1.39496 -2.63168,3.18728 -0.86253,1.73217 -0.94972,3.77964 -0.0795,2.07372 0.57804,4.33147 0.87168,2.99283 2.93238,5.66783 2.09461,2.69361 3.6244,3.64357 l 0.0765,0.26253 -5.38184,1.56748 q -1.77651,-2.18817 -3.24232,-4.58076 -1.46581,-2.39259 -2.29926,-5.25415 -2.12567,-7.29831 0.61945,-12.54071 2.77137,-5.25004 10.04342,-7.36806 7.1933,-2.09508 12.55931,0.58555 5.37366,2.70689 7.23936,9.1126 1.72806,5.93315 -0.80448,10.14532 -2.52489,4.23841 -8.90435,6.09646 z m 2.38114,-5.90535 q 3.87779,-1.1579 5.43845,-3.71996 1.56831,-2.53581 0.42136,-6.47375 -1.15458,-3.96419 -4.17926,-5.64643 -3.01703,-1.65599 -6.57416,-0.96172 z"
       id="path98317" /><path
       d="m 622.45748,353.74988 -0.39265,-5.09818 3.2443,-0.24987 q -0.51596,-0.64588 -1.4514,-1.7531 -0.90608,-1.08205 -1.48081,-2.13478 -0.72573,-1.23306 -1.26276,-2.86461 -0.5643,-1.62945 -0.73647,-3.86502 -0.31707,-4.11671 2.18876,-7.1893 2.50583,-3.07259 6.7316,-3.39805 3.4624,-0.26667 5.7023,1.04176 2.26926,1.33358 3.70817,3.99266 1.44101,2.68634 2.17748,6.55135 0.73647,3.86502 1.29894,8.31935 l 0.79062,-0.0609 q 1.74484,-0.13438 2.84159,-0.84962 1.09885,-0.68798 1.66497,-1.88342 0.54306,-1.13881 0.64358,-2.68234 0.10052,-1.54353 -0.0276,-3.20657 -0.15538,-2.01746 -0.89172,-4.4564 -0.70907,-2.44104 -1.92148,-5.00786 l -0.021,-0.27263 5.20724,-0.40105 q 0.52443,1.46797 1.23354,4.26553 0.7091,2.79755 0.92118,5.55112 0.24777,3.21703 -0.11482,5.63091 -0.33322,2.43904 -1.4802,4.28256 -1.12181,1.81416 -3.04272,2.86712 -1.92091,1.05296 -4.86531,1.27973 z m 7.10468,-5.67561 8.4788,-0.65302 q -0.31689,-2.33412 -0.83519,-5.50289 -0.5162,-3.14152 -1.17698,-4.9555 -0.79713,-2.16001 -2.23801,-3.42028 -1.41361,-1.26236 -3.73096,-1.08388 -2.61725,0.20157 -3.83136,1.88571 -1.18683,1.68205 -0.93697,4.92634 0.20788,2.69904 1.41605,4.85482 1.23544,2.15368 2.85462,3.9487 z"
       id="path98319" /><path
       d="m 622.1192,379.52594 q -0.33618,-1.46074 -0.52695,-3.19039 -0.19164,-1.70233 -0.14871,-3.04149 0.14983,-4.67338 2.74214,-7.02511 2.59231,-2.35174 8.14024,-2.17388 l 16.23385,0.52045 0.11127,-3.47087 4.3181,0.13843 -0.11128,3.47088 8.77284,0.28125 -0.16472,5.13798 -8.77284,-0.28125 -0.33995,10.60393 -4.3181,-0.13844 0.33996,-10.60392 -13.91082,-0.44598 q -2.40502,-0.0771 -3.77501,-0.0116 -1.34266,0.0664 -2.53886,0.68462 -1.11247,0.56621 -1.66503,1.58809 -0.5261,1.05009 -0.59532,3.20914 -0.0403,1.25716 0.27117,2.63504 0.33881,1.37875 0.5655,1.98789 l -0.009,0.2733 z"
       id="path98321" /><path
       d="m 652.6008,417.09318 1.04976,-5.70103 5.24387,0.96558 -1.04976,5.70103 z m -35.00731,-6.77971 0.93092,-5.05563 30.03799,5.53104 -0.93092,5.05563 z"
       id="path98323" /><path
       d="m 611.77972,435.6889 q -0.006,-1.49892 0.19009,-3.22803 0.18875,-1.70265 0.52614,-2.99932 1.17744,-4.5251 4.22482,-6.2468 3.04738,-1.72169 8.41929,-0.32391 l 15.71878,4.09006 0.87447,-3.36075 4.18109,1.08793 -0.87447,3.36075 8.49449,2.21028 -1.29449,4.97497 -8.4945,-2.21029 -2.67162,10.26749 -4.18109,-1.08793 2.67162,-10.26748 -13.46946,-3.50478 q -2.32871,-0.60594 -3.67938,-0.84437 -1.32421,-0.23154 -2.62735,0.10748 -1.20999,0.30675 -1.97443,1.1815 -0.74487,0.9081 -1.28883,2.99865 -0.31674,1.21728 -0.31701,2.62992 0.0262,1.41953 0.11288,2.06367 l -0.0689,0.26463 z"
       id="path98325" /><path
       d="m 610.3629,465.06875 q -3.92613,-1.44498 -5.24147,-5.62947 -1.32479,-4.15882 0.74352,-9.77858 1.1711,-3.18196 2.89748,-5.57681 1.74259,-2.35975 3.30183,-3.82547 l 5.41446,1.99276 -0.0944,0.25661 q -2.55983,1.65105 -4.6157,4.07033 -2.03021,2.42871 -2.97465,4.99481 -1.17109,3.18196 -0.80576,5.356 0.36534,2.17404 2.57218,2.98625 1.69362,0.62333 2.92498,-0.0307 1.23136,-0.65401 2.86721,-3.19873 0.60872,-0.94144 1.53053,-2.49607 0.91237,-1.52897 1.77218,-2.75678 2.38909,-3.40383 4.89921,-4.28649 2.52634,-0.84755 5.34905,0.19133 1.7706,0.65166 3.07148,1.94627 1.29143,1.32027 1.97539,3.26194 0.67718,1.8809 0.55782,4.34274 -0.10315,2.49694 -1.1137,5.24266 -0.94443,2.5661 -2.54928,4.94741 -1.58863,2.41642 -3.12898,3.83081 l -5.15785,-1.89831 0.0944,-0.25661 q 2.04003,-1.34704 3.93659,-3.65012 1.92222,-2.29364 2.85721,-4.83408 0.97277,-2.64308 0.61687,-4.84278 -0.33023,-2.19026 -2.33178,-2.92692 -1.77061,-0.65165 -3.07485,0.12122 -1.29479,0.7472 -2.7471,2.95156 -0.79904,1.22104 -1.71141,2.75001 -0.92181,1.55463 -1.58453,2.56361 -2.00704,3.07825 -4.55083,4.21075 -2.56946,1.12304 -5.7001,-0.0292 z"
       id="path98327" /><path
       d="m 580.1755,506.66992 q 0.2705,-2.83679 0.88278,-5.18081 0.59818,-2.32059 1.93718,-4.54655 1.70546,-2.83517 3.94912,-4.7084 2.26709,-1.85914 4.96895,-2.53136 2.71596,-0.69565 5.85718,-0.0825 3.14121,0.61318 6.58559,2.6851 6.42014,3.86196 7.96119,9.57541 1.52696,5.73688 -1.95444,11.52438 -1.35309,2.24939 -3.28245,4.0245 -1.94345,1.79854 -3.94256,3.05304 l -4.89711,-2.94579 0.14094,-0.23432 q 2.78204,-1.07073 4.92227,-2.71898 2.12615,-1.62483 3.35239,-3.66334 2.25516,-3.74899 1.0354,-7.45031 -1.21042,-3.66381 -6.0841,-6.59551 -4.73309,-2.84714 -8.55562,-2.27466 -3.81318,0.61001 -6.12472,4.45272 -0.8034,1.33557 -1.28352,2.92943 -0.48012,1.59386 -0.58022,3.0334 -0.0858,1.25666 -0.0543,2.42437 0.0549,1.18179 0.15728,1.91346 l -0.14095,0.23431 z"
       id="path98329" /><path
       d="m 570.58525,540.30519 13.85621,-17.73221 q -2.21922,-1.73413 -4.40017,-2.3626 -2.15941,-0.61163 -4.12431,-0.27313 -1.90968,0.31225 -3.62215,1.43793 -1.72931,1.14723 -3.17723,3.00017 -1.91932,2.45623 -2.88593,5.69162 -0.96189,3.27379 -0.83885,5.07033 l -0.16836,0.21545 -4.41689,-3.45142 q 0.7376,-2.7203 1.82265,-5.30792 1.08505,-2.58761 2.9202,-4.93611 4.68046,-5.98974 10.53879,-6.82545 5.87987,-0.81888 11.84806,3.84475 5.90356,4.61312 6.86384,10.53408 0.94344,5.9425 -3.16459,11.19969 -3.80499,4.86935 -8.70305,5.27556 -4.91491,0.42776 -10.15054,-3.66344 z m 6.18363,-1.51847 q 3.20562,2.47022 6.19671,2.23956 2.97425,-0.20911 5.49969,-3.44099 2.54226,-3.25342 2.13995,-6.69096 -0.41916,-3.416 -3.06117,-5.89693 z"
       id="path98331" /><path
       d="m 535.42422,554.8566 3.67579,-3.59369 12.15738,12.43511 q 1.47188,1.50551 2.92858,2.64346 1.47581,1.1575 2.67145,1.44171 1.29164,0.3433 2.5929,-0.16408 1.32037,-0.48783 2.78677,-1.92149 1.50551,-1.47188 2.4215,-3.82055 0.91599,-2.34867 1.29369,-4.97412 l -15.94222,-16.30642 3.67579,-3.59369 21.35187,21.83965 -3.67579,3.59369 -2.3703,-2.42446 q -0.32516,3.10946 -1.37933,5.70794 -1.05416,2.59848 -2.98981,4.4909 -3.53893,3.45988 -7.47995,3.14467 -3.94102,-0.31522 -7.85967,-4.32339 z"
       id="path98333" /><path
       d="m 515.38324,571.0758 q 0.90608,-1.19407 2.1118,-2.4488 1.18417,-1.23789 2.23982,-2.06299 3.68401,-2.87941 7.15057,-2.39602 3.46657,0.48339 6.88482,4.8568 l 10.00219,12.79707 2.73607,-2.13851 2.66051,3.40393 -2.73607,2.13851 5.40522,6.91559 -4.05025,3.16568 -5.40522,-6.91559 -8.35903,6.53341 -2.66051,-3.40393 8.35903,-6.53342 -8.5709,-10.96583 q -1.4818,-1.89587 -2.40991,-2.90571 -0.91128,-0.98829 -2.15239,-1.51055 -1.14752,-0.4913 -2.28612,-0.26077 -1.14331,0.26892 -2.84527,1.59918 -0.99102,0.77458 -1.84931,1.89658 -0.84146,1.14355 -1.16387,1.7079 l -0.21544,0.16839 z"
       id="path98335" /><path
       d="m 496.26923,600.53514 19.09609,-11.90651 q -1.49012,-2.38991 -3.32339,-3.72806 -1.8188,-1.31495 -3.78066,-1.67067 -1.90098,-0.36145 -3.89561,0.10885 -2.01783,0.48477 -4.01329,1.72895 -2.64515,1.64926 -4.66247,4.35712 -2.02606,2.74554 -2.52645,4.47536 l -0.23203,0.14468 -2.96578,-4.75663 q 1.6256,-2.3025 3.53209,-4.36124 1.90648,-2.05873 4.43561,-3.63566 6.45045,-4.02188 12.2402,-2.79831 5.80422,1.24678 9.81164,7.67402 3.96401,6.35763 2.83598,12.24893 -1.15124,5.90577 -6.81278,9.43577 -5.24388,3.26958 -9.98432,1.97178 -4.76365,-1.28333 -8.27918,-6.92167 z m 6.32943,0.69374 q 2.16435,3.41958 5.05322,4.22845 2.86566,0.82334 6.34612,-1.34674 3.50365,-2.18454 4.30435,-5.55166 0.77748,-3.35265 -0.85375,-6.58906 z"
       id="path98337" /><path
       d="m 475.08731,622.19243 0.24638,-0.1186 q 1.15338,-0.25175 2.18634,-0.6276 1.02017,-0.33935 2.35061,-0.9798 2.14348,-1.03182 3.6766,-2.95336 1.54498,-1.8969 2.66934,-4.28931 l -9.40503,-19.53775 4.6319,-2.22969 13.2477,27.52038 -4.6319,2.2297 -1.95692,-4.06524 q -1.69202,3.54573 -3.34741,5.46543 -1.66816,1.95621 -3.86092,3.01175 -1.20725,0.58114 -1.78486,0.76815 -0.56575,0.21165 -1.73284,0.56103 z"
       id="path98339" /></g></g><g
   inkscape:groupmode="layer"
   id="layer2"
   inkscape:label="white"
   style="display:none"><g
     class="st20"
     id="g1478">
	<g
   id="g1414">
		
			<linearGradient
   id="path3302_5_"
   gradientUnits="userSpaceOnUse"
   x1="396.25711"
   y1="-13.6055"
   x2="322.9931"
   y2="-18.4254"
   gradientTransform="translate(0,252.6096)">
			<stop
   offset="0"
   style="stop-color:#FFFFFF"
   id="stop1354" />
			<stop
   offset="1"
   style="stop-color:#D8D8D8"
   id="stop1356" />
		</linearGradient>
		<path
   id="path3302_2_"
   class="st21"
   d="m 331.5,114.8 c 34.3,-12.7 47.3,10.7 76.8,4.7 l -50.1,242.2 z" />
		
			<linearGradient
   id="path3304_5_"
   gradientUnits="userSpaceOnUse"
   x1="468.2041"
   y1="31.6611"
   x2="408.6066"
   y2="-17.363001"
   gradientTransform="translate(0,252.6096)">
			<stop
   offset="0"
   style="stop-color:#FFFFFF"
   id="stop1360" />
			<stop
   offset="1"
   style="stop-color:#D8D8D8"
   id="stop1362" />
		</linearGradient>
		<path
   id="path3304_2_"
   class="st22"
   d="m 485.4,142.4 c 35.2,9.8 32.3,37.5 59.7,49.8 L 361.2,358.8 Z" />
		
			<linearGradient
   id="path3306_5_"
   gradientUnits="userSpaceOnUse"
   x1="490.23071"
   y1="107.4641"
   x2="472.0347"
   y2="35.6376"
   gradientTransform="translate(0,252.6096)">
			<stop
   offset="0"
   style="stop-color:#FFFFFF"
   id="stop1366" />
			<stop
   offset="1"
   style="stop-color:#D8D8D8"
   id="stop1368" />
		</linearGradient>
		<path
   id="path3306_2_"
   class="st23"
   d="m 587.4,257.4 c 22.7,28.4 6.2,48.3 21,74.1 L 361,359 Z" />
		
			<linearGradient
   id="path3310_5_"
   gradientUnits="userSpaceOnUse"
   x1="465.13171"
   y1="180.78439"
   x2="493.8765"
   y2="111.7968"
   gradientTransform="translate(0,252.6096)">
			<stop
   offset="0"
   style="stop-color:#FFFFFF"
   id="stop1372" />
			<stop
   offset="1"
   style="stop-color:#D8D8D8"
   id="stop1374" />
		</linearGradient>
		<path
   id="path3310_2_"
   class="st24"
   d="m 604.7,408.8 c 1.5,36.3 -24.2,42.7 -27.7,72.4 L 360.6,359 Z" />
		
			<linearGradient
   id="path3312_5_"
   gradientUnits="userSpaceOnUse"
   x1="397.4299"
   y1="231.8116"
   x2="458.02921"
   y2="190.4502"
   gradientTransform="translate(0,252.6096)">
			<stop
   offset="0"
   style="stop-color:#FFFFFF"
   id="stop1378" />
			<stop
   offset="1"
   style="stop-color:#D8D8D8"
   id="stop1380" />
		</linearGradient>
		<path
   id="path3312_2_"
   class="st25"
   d="m 527.8,540.9 c -20.3,30.2 -44.4,21 -64.7,43.1 L 360.2,358.8 Z" />
		
			<linearGradient
   id="path3314_5_"
   gradientUnits="userSpaceOnUse"
   x1="323.90659"
   y1="227.9371"
   x2="399.09619"
   y2="235.6488"
   gradientTransform="translate(0,252.6096)">
			<stop
   offset="0"
   style="stop-color:#FFFFFF"
   id="stop1384" />
			<stop
   offset="1"
   style="stop-color:#D8D8D8"
   id="stop1386" />
		</linearGradient>
		<path
   id="path3314_2_"
   class="st26"
   d="m 387.7,607 c -34.3,12.7 -48.2,-12.3 -77.6,-6.3 l 50.1,-242.2 z" />
		
			<linearGradient
   id="path3316_5_"
   gradientUnits="userSpaceOnUse"
   x1="259.379"
   y1="183.4431"
   x2="314.16089"
   y2="232.4586"
   gradientTransform="translate(0,252.6096)">
			<stop
   offset="0"
   style="stop-color:#FFFFFF"
   id="stop1390" />
			<stop
   offset="1"
   style="stop-color:#D8D8D8"
   id="stop1392" />
		</linearGradient>
		<path
   id="path3316_2_"
   class="st27"
   d="m 235.5,574.8 c -35.2,-9.8 -31.8,-37.7 -59.2,-50 L 360.2,358.2 Z" />
		
			<linearGradient
   id="path3318_5_"
   gradientUnits="userSpaceOnUse"
   x1="229.8683"
   y1="101.032"
   x2="249.9808"
   y2="173.8203"
   gradientTransform="translate(0,252.6096)">
			<stop
   offset="0"
   style="stop-color:#FFFFFF"
   id="stop1396" />
			<stop
   offset="1"
   style="stop-color:#D8D8D8"
   id="stop1398" />
		</linearGradient>
		<path
   id="path3318_2_"
   class="st28"
   d="m 134.9,459.1 c -22.7,-28.4 -6.8,-47.7 -21.7,-73.7 L 360.6,358 Z" />
		
			<linearGradient
   id="path3320_5_"
   gradientUnits="userSpaceOnUse"
   x1="257.0575"
   y1="26.767599"
   x2="229.2776"
   y2="99.57"
   gradientTransform="translate(0,252.6096)">
			<stop
   offset="0"
   style="stop-color:#FFFFFF"
   id="stop1402" />
			<stop
   offset="1"
   style="stop-color:#D8D8D8"
   id="stop1404" />
		</linearGradient>
		<path
   id="path3320_2_"
   class="st29"
   d="m 117.5,308.7 c -1.5,-36.3 23.7,-43.3 27,-73.1 L 361,357.8 Z" />
		
			<linearGradient
   id="path3322_5_"
   gradientUnits="userSpaceOnUse"
   x1="321.81561"
   y1="-18.138"
   x2="256.3974"
   y2="24.191601"
   gradientTransform="translate(0,252.6096)">
			<stop
   offset="0"
   style="stop-color:#FFFFFF"
   id="stop1408" />
			<stop
   offset="1"
   style="stop-color:#D8D8D8"
   id="stop1410" />
		</linearGradient>
		<path
   id="path3322_2_"
   class="st30"
   d="m 192.2,175.1 c 20.3,-30.2 46.1,-20.2 66.3,-42.3 L 361.3,358 Z" />
	</g>
	<g
   id="g1476">
		
			<linearGradient
   id="path3308_5_"
   gradientUnits="userSpaceOnUse"
   x1="361"
   y1="579.33002"
   x2="587.70001"
   y2="579.33002"
   gradientTransform="matrix(1,0,0,-1,0,847.28)">
			<stop
   offset="0"
   style="stop-color:#FFFFFF"
   id="stop1416" />
			<stop
   offset="1"
   style="stop-color:#D8D8D8"
   id="stop1418" />
		</linearGradient>
		<path
   id="path3308_2_"
   class="st31"
   d="m 527.9,176.2 c 30.4,20.1 37.6,61.3 59.8,81.3 L 361,359.7 Z" />
		
			<linearGradient
   id="path3324_5_"
   gradientUnits="userSpaceOnUse"
   x1="237"
   y1="611.13"
   x2="361.10001"
   y2="611.13"
   gradientTransform="matrix(1,0,0,-1,0,847.28)">
			<stop
   offset="0"
   style="stop-color:#FFFFFF"
   id="stop1422" />
			<stop
   offset="1"
   style="stop-color:#D8D8D8"
   id="stop1424" />
		</linearGradient>
		<path
   id="path3324_2_"
   class="st32"
   d="m 237,144.7 c 28.7,-22.5 70.4,-16.5 96.4,-31.4 L 361.1,359 Z" />
		
			<linearGradient
   id="path3326_5_"
   gradientUnits="userSpaceOnUse"
   x1="361.10001"
   y1="610.75787"
   x2="484.10001"
   y2="610.75787"
   gradientTransform="matrix(1,0,0,-1,0,847.28)">
			<stop
   offset="0"
   style="stop-color:#FFFFFF"
   id="stop1428" />
			<stop
   offset="1"
   style="stop-color:#D8D8D8"
   id="stop1430" />
		</linearGradient>
		<path
   id="path3326_2_"
   class="st33"
   d="m 387.6,113.6 c 36.6,-1.5 66.7,27.7 96.5,31 l -123,214.9 z" />
		
			<linearGradient
   id="path3328_5_"
   gradientUnits="userSpaceOnUse"
   x1="360.60001"
   y1="488.03"
   x2="609.17572"
   y2="488.03"
   gradientTransform="matrix(1,0,0,-1,0,847.28)">
			<stop
   offset="0"
   style="stop-color:#FFFFFF"
   id="stop1434" />
			<stop
   offset="1"
   style="stop-color:#D8D8D8"
   id="stop1436" />
		</linearGradient>
		<path
   id="path3328_2_"
   class="st34"
   d="m 604.7,308.9 c 12.7,33.9 -6.3,71.4 -0.2,100.7 L 360.6,359.8 Z" />
		
			<linearGradient
   id="path3330_5_"
   gradientUnits="userSpaceOnUse"
   x1="360.20001"
   y1="396.28"
   x2="587.5"
   y2="396.28"
   gradientTransform="matrix(1,0,0,-1,0,847.28)">
			<stop
   offset="0"
   style="stop-color:#FFFFFF"
   id="stop1440" />
			<stop
   offset="1"
   style="stop-color:#D8D8D8"
   id="stop1442" />
		</linearGradient>
		<path
   id="path3330_2_"
   class="st35"
   d="M 587.5,460.6 C 577.7,495.5 540.4,515 528,542.3 L 360.2,359.7 Z" />
		
			<linearGradient
   id="path3332_5_"
   gradientUnits="userSpaceOnUse"
   x1="360"
   y1="365.03"
   x2="484.20001"
   y2="365.03"
   gradientTransform="matrix(1,0,0,-1,0,847.28)">
			<stop
   offset="0"
   style="stop-color:#FFFFFF"
   id="stop1446" />
			<stop
   offset="1"
   style="stop-color:#D8D8D8"
   id="stop1448" />
		</linearGradient>
		<path
   id="path3332_2_"
   class="st36"
   d="m 484.2,573.7 c -28.7,22.5 -70.4,16.5 -96.4,31.4 L 360,359.4 Z" />
		
			<linearGradient
   id="path3334_5_"
   gradientUnits="userSpaceOnUse"
   x1="237.10001"
   y1="365.45209"
   x2="360.10001"
   y2="365.45209"
   gradientTransform="matrix(1,0,0,-1,0,847.28)">
			<stop
   offset="0"
   style="stop-color:#FFFFFF"
   id="stop1452" />
			<stop
   offset="1"
   style="stop-color:#D8D8D8"
   id="stop1454" />
		</linearGradient>
		<path
   id="path3334_2_"
   class="st37"
   d="m 333.6,604.8 c -36.6,1.5 -66.7,-27.7 -96.5,-31 l 123,-215 z" />
		
			<linearGradient
   id="path3336_5_"
   gradientUnits="userSpaceOnUse"
   x1="133.5"
   y1="396.92999"
   x2="360.20001"
   y2="396.92999"
   gradientTransform="matrix(1,0,0,-1,0,847.28)">
			<stop
   offset="0"
   style="stop-color:#FFFFFF"
   id="stop1458" />
			<stop
   offset="1"
   style="stop-color:#D8D8D8"
   id="stop1460" />
		</linearGradient>
		<path
   id="path3336_2_"
   class="st38"
   d="M 193.3,542.1 C 162.9,522 155.7,480.8 133.5,460.8 L 360.2,358.6 Z" />
		
			<linearGradient
   id="path3338_5_"
   gradientUnits="userSpaceOnUse"
   x1="112.4378"
   y1="488.17999"
   x2="360.60001"
   y2="488.17999"
   gradientTransform="matrix(1,0,0,-1,0,847.28)">
			<stop
   offset="0"
   style="stop-color:#FFFFFF"
   id="stop1464" />
			<stop
   offset="1"
   style="stop-color:#D8D8D8"
   id="stop1466" />
		</linearGradient>
		<path
   id="path3338_2_"
   class="st39"
   d="m 117,409.5 c -12.7,-33.9 5.8,-71.6 -0.3,-100.8 l 243.9,49.8 z" />
		
			<linearGradient
   id="path3340_5_"
   gradientUnits="userSpaceOnUse"
   x1="133.7"
   y1="579.88"
   x2="361"
   y2="579.88"
   gradientTransform="matrix(1,0,0,-1,0,847.28)">
			<stop
   offset="0"
   style="stop-color:#FFFFFF"
   id="stop1470" />
			<stop
   offset="1"
   style="stop-color:#D8D8D8"
   id="stop1472" />
		</linearGradient>
		<path
   id="path3340_2_"
   class="st40"
   d="m 133.7,257.8 c 9.8,-34.9 47.1,-54.4 59.5,-81.7 L 361,358.7 Z" />
	</g>
</g><g
     aria-label="won a race "
     id="text69141"
     style="font-size:40px;line-height:1.25"><path
       d="m 276.28545,202.0325 7.08322,21.40296 -2.85296,1.84663 -13.84337,-11.0713 4.46471,17.14184 -2.83655,1.83602 -16.67504,-15.19446 3.21367,-2.08011 12.54133,12.00714 -4.60554,-17.14375 2.54142,-1.64499 13.86944,11.1475 -5.99923,-16.24166 z"
       id="path92791" /><path
       d="m 306.1023,201.12935 q 2.04952,4.9224 0.71139,8.82229 -1.33813,3.8999 -5.57536,5.66415 -4.27329,1.77926 -7.98377,-0.0186 -3.69245,-1.80533 -5.74198,-6.72773 -2.04952,-4.92239 -0.72942,-8.81478 1.33062,-3.91793 5.60391,-5.6972 4.23723,-1.76424 7.95522,0.0516 3.71048,1.79782 5.76001,6.72022 z m -3.49797,1.45644 q -1.62911,-3.91268 -3.95001,-5.16777 -2.3284,-1.27313 -5.05104,-0.13951 -2.75871,1.14863 -3.49554,3.69803 -0.7263,2.52385 0.90281,6.43652 1.57656,3.78646 3.92748,5.11368 2.34342,1.3092 5.0841,0.16807 2.70461,-1.12612 3.43393,-3.69354 0.73984,-2.59296 -0.85173,-6.41548 z"
       id="path92793" /><path
       d="m 333.48294,205.20751 -3.56917,0.86237 -2.91737,-12.07444 q -0.3532,-1.46184 -0.8314,-2.69255 -0.48278,-1.24969 -1.11273,-1.86103 -0.66728,-0.68269 -1.65131,-0.8468 -0.98863,-0.18309 -2.4125,0.16094 -1.46184,0.3532 -2.88227,1.45994 -1.42043,1.10674 -2.61163,2.58006 l 3.8256,15.83345 -3.56917,0.86237 -5.12374,-21.2062 3.56917,-0.86237 0.5688,2.35414 q 1.33582,-1.78956 2.93233,-2.99913 1.59652,-1.20957 3.47603,-1.66368 3.43628,-0.83026 5.73984,0.80333 2.30356,1.63359 3.24391,5.52551 z"
       id="path92795" /><path
       d="m 371.47661,203.02637 -3.65223,-0.0292 0.0186,-2.32414 q -0.49093,0.32811 -1.33559,0.92684 -0.82498,0.57935 -1.60902,0.92464 -0.92153,0.44186 -2.11525,0.72528 -1.19387,0.30295 -2.79538,0.29012 -2.94912,-0.0236 -4.9842,-1.99309 -2.03508,-1.96949 -2.01084,-4.99673 0.0199,-2.48039 1.08671,-3.99534 1.08654,-1.53431 3.06617,-2.3974 1.99916,-0.86292 4.79455,-1.15305 2.79538,-0.29013 5.99965,-0.42073 l 0.005,-0.56638 q 0.01,-1.24996 -0.43263,-2.07385 -0.42311,-0.82372 -1.23964,-1.29903 -0.77763,-0.45546 -1.87009,-0.62046 -1.09247,-0.165 -2.28383,-0.17454 -1.44527,-0.0116 -3.22568,0.36481 -1.78026,0.35685 -3.68052,1.06431 l -0.19531,-0.002 0.0299,-3.73035 q 1.07653,-0.28436 3.11053,-0.61965 2.034,-0.33528 4.0066,-0.31949 2.30461,0.0185 4.00065,0.42267 1.71572,0.38485 2.95833,1.31279 1.22324,0.90827 1.85633,2.33916 0.6331,1.4309 0.61621,3.54021 z m -3.60923,-5.40017 0.0486,-6.07402 q -1.68042,0.0842 -3.96706,0.26121 -2.26712,0.17717 -3.59817,0.53761 -1.58558,0.43654 -2.56977,1.38572 -0.98404,0.92965 -0.99733,2.58976 -0.015,1.87494 1.1101,2.84101 1.12527,0.94654 3.44941,0.96515 1.93353,0.0155 3.54099,-0.71386 1.60761,-0.74887 2.98319,-1.79258 z"
       id="path92797" /><path
       d="m 409.66468,191.56985 -0.19041,-0.0435 q -0.75623,-0.37306 -1.50047,-0.62317 -0.72085,-0.26481 -1.74907,-0.49964 -1.65656,-0.37834 -3.36848,0.012 -1.70757,0.37131 -3.40092,1.20665 l -3.44857,15.09947 -3.5797,-0.81757 4.85758,-21.26874 3.5797,0.81757 -0.71755,3.14176 q 2.52398,-1.22663 4.30336,-1.5615 1.80278,-0.34956 3.49742,0.0375 0.93301,0.21309 1.33886,0.36589 0.41021,0.13375 1.21757,0.45839 z"
       id="path92799" /><path
       d="m 424.25642,215.62386 -3.42717,-1.26259 0.80347,-2.18092 q -0.57296,0.14276 -1.57033,0.42058 -0.9723,0.26623 -1.82691,0.32605 -1.01667,0.10419 -2.2359,-0.0328 -1.22598,-0.11862 -2.72881,-0.67227 -2.76739,-1.01953 -4.01655,-3.56118 -1.24917,-2.54165 -0.20264,-5.38235 0.85748,-2.32754 2.37379,-3.39246 1.54138,-1.07649 3.69625,-1.21927 2.1732,-0.13604 4.902,0.53624 2.72881,0.67227 5.78847,1.63295 l 0.1958,-0.53148 q 0.43212,-1.17294 0.29417,-2.09797 -0.11962,-0.91828 -0.72732,-1.6417 -0.57779,-0.6916 -1.55009,-1.21632 -0.97231,-0.52472 -2.09026,-0.93658 -1.35621,-0.49963 -3.15901,-0.7475 -1.79605,-0.2662 -3.8236,-0.24303 l -0.18327,-0.0675 1.2896,-3.50048 q 1.10927,0.0964 3.13682,0.46874 2.02755,0.3723 3.87859,1.05424 2.1626,0.79671 3.62202,1.75066 1.4845,0.94237 2.3401,2.23586 0.84402,1.26841 0.95594,2.8291 0.11191,1.56069 -0.61729,3.54002 z m -1.57042,-6.30254 2.09981,-5.69973 q -1.60989,-0.48902 -3.82168,-1.09571 -2.19346,-0.59994 -3.56799,-0.71085 -1.63978,-0.12537 -2.88698,0.43507 -1.24044,0.54211 -1.81435,2.09991 -0.64817,1.7594 0.084,3.04904 0.73889,1.2713 2.91981,2.07477 1.81439,0.66843 3.57378,0.52565 1.76614,-0.16111 3.41364,-0.67815 z"
       id="path92801" /><path
       d="m 445.50191,225.14197 q -2.03292,-0.10195 -3.72518,-0.46361 -1.67509,-0.35235 -3.30644,-1.23635 -2.07782,-1.12595 -3.48651,-2.66681 -1.39939,-1.55804 -1.96579,-3.46441 -0.58358,-1.91568 -0.24687,-4.17683 0.3367,-2.26114 1.70459,-4.78543 2.54967,-4.70515 6.57711,-5.98819 4.04462,-1.27374 8.28612,1.02468 1.64852,0.89332 2.97711,2.21305 1.34576,1.32905 2.3051,2.71527 l -1.94482,3.58896 -0.17172,-0.0931 q -0.85334,-1.95079 -2.09818,-3.42507 -1.22766,-1.46499 -2.72163,-2.27455 -2.74754,-1.48886 -5.34952,-0.49967 -2.5755,0.98132 -4.51101,4.55311 -1.87968,3.46876 -1.34848,6.178 0.55768,2.70137 3.3739,4.22745 0.97881,0.5304 2.13154,0.82183 1.15273,0.29144 2.18315,0.31666 0.89947,0.0209 1.73168,-0.0391 0.84153,-0.0771 1.36033,-0.17365 l 0.17172,0.0931 z"
       id="path92803" /><path
       d="m 469.73403,231.42069 -12.89065,-9.60268 q -1.2018,1.61329 -1.61467,3.18104 -0.40121,1.5521 -0.12713,2.94965 0.25441,1.35856 1.08646,2.56289 0.8477,1.216 2.19472,2.21944 1.78558,1.33014 4.11189,1.96711 2.35363,0.63298 3.6345,0.51554 l 0.15663,0.11668 -2.39192,3.21091 q -1.9547,-0.48193 -3.82037,-1.21415 -1.86567,-0.73222 -3.57294,-2.00402 -4.35431,-3.24368 -5.04756,-7.41332 -0.68157,-4.18531 2.55044,-8.52396 3.197,-4.29167 7.40932,-5.07489 4.22799,-0.77156 8.04976,2.07541 3.53984,2.63695 3.91056,6.12795 0.38639,3.50267 -2.44891,7.30878 z m -1.18615,-4.3907 q 1.71119,-2.32979 1.49723,-4.46192 -0.1983,-2.12046 -2.54775,-3.87064 -2.36512,-1.76186 -4.81323,-1.41796 -2.43245,0.35556 -4.16057,2.28306 z"
       id="path92805" /></g></g><g
   inkscape:groupmode="layer"
   id="layer3"
   inkscape:label="blue"
   style="display:none"><g
     id="g1540"
     style="display:inline">
	<linearGradient
   id="path3302_6_"
   gradientUnits="userSpaceOnUse"
   x1="344.70001"
   y1="297.9892"
   x2="383.89999"
   y2="297.9892">
		<stop
   offset="0.3541"
   style="stop-color:#004C99"
   id="stop1480" />
		<stop
   offset="0.7081"
   style="stop-color:#003D7C"
   id="stop1482" />
	</linearGradient>
	<path
   id="path3302_1_"
   class="st41"
   d="m 344.7,236 c 17.5,-6.4 24.1,5.5 39.2,2.4 l -25.6,123.5 z" />
	<linearGradient
   id="path3304_6_"
   gradientUnits="userSpaceOnUse"
   x1="361"
   y1="304"
   x2="454.89999"
   y2="304">
		<stop
   offset="0.3541"
   style="stop-color:#004C99"
   id="stop1486" />
		<stop
   offset="0.7081"
   style="stop-color:#003D7C"
   id="stop1488" />
	</linearGradient>
	<path
   id="path3304_1_"
   class="st42"
   d="m 424.4,248.8 c 17.9,5 16.5,19.1 30.5,25.4 l -93.9,85 z" />
	<linearGradient
   id="path3306_6_"
   gradientUnits="userSpaceOnUse"
   x1="360.89999"
   y1="333.45001"
   x2="487.10001"
   y2="333.45001">
		<stop
   offset="0.3541"
   style="stop-color:#004C99"
   id="stop1492" />
		<stop
   offset="0.7081"
   style="stop-color:#003D7C"
   id="stop1494" />
	</linearGradient>
	<path
   id="path3306_1_"
   class="st43"
   d="m 476.4,307.5 c 11.6,14.5 3.1,24.6 10.7,37.8 l -126.2,14.1 z" />
	<linearGradient
   id="path3310_6_"
   gradientUnits="userSpaceOnUse"
   x1="360.70001"
   y1="390.45001"
   x2="485.23489"
   y2="390.45001">
		<stop
   offset="0.3541"
   style="stop-color:#004C99"
   id="stop1498" />
		<stop
   offset="0.7081"
   style="stop-color:#003D7C"
   id="stop1500" />
	</linearGradient>
	<path
   id="path3310_1_"
   class="st44"
   d="m 485.2,384.7 c 0.8,18.5 -12.4,21.8 -14.1,36.9 L 360.7,359.3 Z" />
	<linearGradient
   id="path3312_6_"
   gradientUnits="userSpaceOnUse"
   x1="360.5"
   y1="416.70001"
   x2="445.89999"
   y2="416.70001">
		<stop
   offset="0.3541"
   style="stop-color:#004C99"
   id="stop1504" />
		<stop
   offset="0.7081"
   style="stop-color:#003D7C"
   id="stop1506" />
	</linearGradient>
	<path
   id="path3312_1_"
   class="st45"
   d="m 445.9,452.1 c -10.3,15.4 -22.7,10.7 -33,22 L 360.5,359.3 Z" />
	<linearGradient
   id="path3314_6_"
   gradientUnits="userSpaceOnUse"
   x1="334.89999"
   y1="423.3143"
   x2="374.5"
   y2="423.3143">
		<stop
   offset="0.3541"
   style="stop-color:#004C99"
   id="stop1510" />
		<stop
   offset="0.7081"
   style="stop-color:#003D7C"
   id="stop1512" />
	</linearGradient>
	<path
   id="path3314_1_"
   class="st46"
   d="m 374.5,485.8 c -17.5,6.4 -24.6,-6.3 -39.6,-3.2 L 360.5,359 Z" />
	<linearGradient
   id="path3316_6_"
   gradientUnits="userSpaceOnUse"
   x1="266.70001"
   y1="414.14999"
   x2="360.5"
   y2="414.14999">
		<stop
   offset="0.3541"
   style="stop-color:#004C99"
   id="stop1516" />
		<stop
   offset="0.7081"
   style="stop-color:#003D7C"
   id="stop1518" />
	</linearGradient>
	<path
   id="path3316_1_"
   class="st47"
   d="m 296.9,469.4 c -17.9,-5 -16.2,-19.2 -30.2,-25.5 l 93.8,-85 z" />
	<linearGradient
   id="path3318_6_"
   gradientUnits="userSpaceOnUse"
   x1="234.5"
   y1="384.5"
   x2="360.70001"
   y2="384.5">
		<stop
   offset="0.3541"
   style="stop-color:#004C99"
   id="stop1522" />
		<stop
   offset="0.7081"
   style="stop-color:#003D7C"
   id="stop1524" />
	</linearGradient>
	<path
   id="path3318_1_"
   class="st48"
   d="M 245.6,410.3 C 234,395.8 242.1,385.9 234.5,372.7 l 126.2,-14 z" />
	<linearGradient
   id="path3320_6_"
   gradientUnits="userSpaceOnUse"
   x1="236.66431"
   y1="327.45001"
   x2="360.89999"
   y2="327.45001">
		<stop
   offset="0.3541"
   style="stop-color:#004C99"
   id="stop1528" />
		<stop
   offset="0.7081"
   style="stop-color:#003D7C"
   id="stop1530" />
	</linearGradient>
	<path
   id="path3320_1_"
   class="st49"
   d="m 236.7,333.6 c -0.8,-18.5 12.1,-22.1 13.8,-37.3 l 110.4,62.3 z" />
	<linearGradient
   id="path3322_6_"
   gradientUnits="userSpaceOnUse"
   x1="274.79999"
   y1="301.29999"
   x2="361.10001"
   y2="301.29999">
		<stop
   offset="0.3541"
   style="stop-color:#004C99"
   id="stop1534" />
		<stop
   offset="0.7081"
   style="stop-color:#003D7C"
   id="stop1536" />
	</linearGradient>
	<path
   id="path3322_1_"
   class="st50"
   d="m 274.8,265.5 c 10.3,-15.4 23.5,-10.3 33.8,-21.6 l 52.5,114.8 z" />
</g><g
     id="g1602"
     style="display:inline">
	<linearGradient
   id="path3308_6_"
   gradientUnits="userSpaceOnUse"
   x1="374.64999"
   y1="373.35001"
   x2="464.49081"
   y2="283.50909">
		<stop
   offset="0.3541"
   style="stop-color:#004C99"
   id="stop1542" />
		<stop
   offset="0.7081"
   style="stop-color:#003D7C"
   id="stop1544" />
	</linearGradient>
	<path
   id="path3308_1_"
   class="st51"
   d="m 446,266 c 15.5,10.3 19.2,31.2 30.5,41.5 l -115.6,52.1 z" />
	<linearGradient
   id="path3324_6_"
   gradientUnits="userSpaceOnUse"
   x1="317.85001"
   y1="316.14999"
   x2="373.45001"
   y2="260.54999">
		<stop
   offset="0.3541"
   style="stop-color:#004C99"
   id="stop1548" />
		<stop
   offset="0.7081"
   style="stop-color:#003D7C"
   id="stop1550" />
	</linearGradient>
	<path
   id="path3324_1_"
   class="st52"
   d="m 297.7,250 c 14.6,-11.5 35.9,-8.4 49.2,-16 L 361,359.3 Z" />
	<linearGradient
   id="path3326_6_"
   gradientUnits="userSpaceOnUse"
   x1="333.02499"
   y1="331.52499"
   x2="419.22501"
   y2="245.325">
		<stop
   offset="0.3541"
   style="stop-color:#004C99"
   id="stop1554" />
		<stop
   offset="0.7081"
   style="stop-color:#003D7C"
   id="stop1556" />
	</linearGradient>
	<path
   id="path3326_1_"
   class="st53"
   d="m 374.5,234.1 c 18.6,-0.8 34,14.1 49.3,15.8 L 361,359.5 Z" />
	<linearGradient
   id="path3328_6_"
   gradientUnits="userSpaceOnUse"
   x1="398.14999"
   y1="397.25"
   x2="473.39999"
   y2="322">
		<stop
   offset="0.3541"
   style="stop-color:#004C99"
   id="stop1560" />
		<stop
   offset="0.7081"
   style="stop-color:#003D7C"
   id="stop1562" />
	</linearGradient>
	<path
   id="path3328_1_"
   class="st54"
   d="m 485.2,333.8 c 6.5,17.3 -3.2,36.4 -0.1,51.4 L 360.7,359.8 Z" />
	<linearGradient
   id="path3330_6_"
   gradientUnits="userSpaceOnUse"
   x1="401.39999"
   y1="408.10001"
   x2="437.35001"
   y2="372.14999">
		<stop
   offset="0.3541"
   style="stop-color:#004C99"
   id="stop1566" />
		<stop
   offset="0.7081"
   style="stop-color:#003D7C"
   id="stop1568" />
	</linearGradient>
	<path
   id="path3330_1_"
   class="st55"
   d="m 476.4,411.2 c -5,17.8 -24,27.8 -30.3,41.6 l -85.6,-93.2 z" />
	<linearGradient
   id="path3332_6_"
   gradientUnits="userSpaceOnUse"
   x1="347.92499"
   y1="458.22501"
   x2="403.47501"
   y2="402.67499">
		<stop
   offset="0.3541"
   style="stop-color:#004C99"
   id="stop1572" />
		<stop
   offset="0.7081"
   style="stop-color:#003D7C"
   id="stop1574" />
	</linearGradient>
	<path
   id="path3332_1_"
   class="st56"
   d="m 423.7,468.8 c -14.6,11.5 -35.9,8.4 -49.2,16 L 360.3,359.5 Z" />
	<linearGradient
   id="path3334_6_"
   gradientUnits="userSpaceOnUse"
   x1="302.125"
   y1="473.42499"
   x2="388.32501"
   y2="387.22501">
		<stop
   offset="0.3541"
   style="stop-color:#004C99"
   id="stop1578" />
		<stop
   offset="0.7081"
   style="stop-color:#003D7C"
   id="stop1580" />
	</linearGradient>
	<path
   id="path3334_1_"
   class="st57"
   d="m 346.9,484.7 c -18.6,0.8 -34,-14.1 -49.3,-15.8 l 62.7,-109.7 z" />
	<linearGradient
   id="path3336_6_"
   gradientUnits="userSpaceOnUse"
   x1="256.90909"
   y1="435.1908"
   x2="346.75"
   y2="345.35001">
		<stop
   offset="0.3541"
   style="stop-color:#004C99"
   id="stop1584" />
		<stop
   offset="0.7081"
   style="stop-color:#003D7C"
   id="stop1586" />
	</linearGradient>
	<path
   id="path3336_1_"
   class="st58"
   d="M 275.4,452.7 C 259.9,442.4 256.2,421.5 244.9,411.2 L 360.5,359.1 Z" />
	<linearGradient
   id="path3338_6_"
   gradientUnits="userSpaceOnUse"
   x1="248.10001"
   y1="396.79999"
   x2="323.25"
   y2="321.64999">
		<stop
   offset="0.3541"
   style="stop-color:#004C99"
   id="stop1590" />
		<stop
   offset="0.7081"
   style="stop-color:#003D7C"
   id="stop1592" />
	</linearGradient>
	<path
   id="path3338_1_"
   class="st59"
   d="m 236.4,385.1 c -6.5,-17.3 3,-36.5 -0.1,-51.4 l 124.4,25.4 z" />
	<linearGradient
   id="path3340_6_"
   gradientUnits="userSpaceOnUse"
   x1="283.95001"
   y1="346.64999"
   x2="319.89999"
   y2="310.70001">
		<stop
   offset="0.3541"
   style="stop-color:#004C99"
   id="stop1596" />
		<stop
   offset="0.7081"
   style="stop-color:#003D7C"
   id="stop1598" />
	</linearGradient>
	<path
   id="path3340_1_"
   class="st60"
   d="m 244.9,307.6 c 5,-17.8 24,-27.8 30.3,-41.6 l 85.6,93.2 z" />
</g><g
     id="path3912_1_"
     class="st20"
     style="display:inline">
	<g
   id="g1616">
		<g
   id="g1612">
			<g
   id="g1606">
				<path
   class="st61"
   d="m 425.1,360.8 c 0,35.2 -28.8,63.8 -64.3,63.8 -35.5,0 -64.3,-28.6 -64.3,-63.8 0,-35.2 28.8,-63.8 64.3,-63.8 35.5,0 64.3,28.6 64.3,63.8 z"
   id="path1604" />
			</g>
			<g
   class="st62"
   id="g1610">
				<path
   class="st61"
   d="m 425.1,360.8 c 0,35.2 -28.8,63.8 -64.3,63.8 -35.5,0 -64.3,-28.6 -64.3,-63.8 0,-35.2 28.8,-63.8 64.3,-63.8 35.5,0 64.3,28.6 64.3,63.8 z"
   id="path1608" />
			</g>
		</g>
		<path
   class="st61"
   d="m 425.1,360.8 c 0,35.2 -28.8,63.8 -64.3,63.8 -35.5,0 -64.3,-28.6 -64.3,-63.8 0,-35.2 28.8,-63.8 64.3,-63.8 35.5,0 64.3,28.6 64.3,63.8 z"
   id="path1614" />
	</g>
	<g
   class="st62"
   id="g1620">
		<path
   class="st61"
   d="m 425.1,360.8 c 0,35.2 -28.8,63.8 -64.3,63.8 -35.5,0 -64.3,-28.6 -64.3,-63.8 0,-35.2 28.8,-63.8 64.3,-63.8 35.5,0 64.3,28.6 64.3,63.8 z"
   id="path1618" />
	</g>
</g><path
     id="path15964"
     style="fill-opacity:0;fill-rule:evenodd;stroke:#000000;stroke-width:2.007;stroke-linecap:round;paint-order:fill markers stroke"
     d="m 280.9423,363.33669 a 79.79641,79.79641 0 0 1 76.53017,-82.46446 79.79641,79.79641 0 0 1 82.92974,76.02572 79.79641,79.79641 0 0 1 -75.51844,83.39195 79.79641,79.79641 0 0 1 -83.85105,-75.00836" /><g
     aria-label="antarctic program (3)"
     id="text17098"
     style="font-size:13.3333px;line-height:1.25;-inkscape-font-specification:'sans-serif, Normal';fill:#000000;fill-opacity:1"><path
       d="m 281.29864,351.00726 -0.12072,2.18808 -1.39241,-0.0768 q 0.18277,0.3035 0.51774,0.82665 0.32392,0.51081 0.50871,0.99047 0.23879,0.56479 0.37492,1.28823 0.14784,0.72409 0.0949,1.68357 -0.0975,1.76684 -1.33536,2.93089 -1.23788,1.16404 -3.05153,1.06398 -1.48602,-0.082 -2.36383,-0.76419 -0.88887,-0.69455 -1.35021,-1.9054 -0.4607,-1.22255 -0.5556,-2.90611 -0.0949,-1.68357 -0.0826,-3.60769 l -0.33933,-0.0187 q -0.74886,-0.0413 -1.25515,0.20069 -0.50564,0.23031 -0.81358,0.70625 -0.29494,0.45319 -0.4247,1.10328 -0.12976,0.65009 -0.16914,1.36385 -0.0478,0.86587 0.1275,1.94357 0.16357,1.07705 0.53389,2.23593 l -0.006,0.11701 -2.23488,-0.1233 q -0.14001,-0.65324 -0.28349,-1.88176 -0.14348,-1.22852 -0.0783,-2.41031 0.0762,-1.38072 0.36635,-2.38579 0.27913,-1.01742 0.87039,-1.73594 0.57892,-0.70746 1.45439,-1.04647 0.87547,-0.339 2.13918,-0.26928 z m -3.33848,2.01055 -3.639,-0.20077 q 0.003,1.00951 0.0445,2.38498 0.0421,1.36377 0.22054,2.1717 0.21683,0.96262 0.7579,1.5793 0.52937,0.61604 1.52395,0.67091 1.12329,0.062 1.73408,-0.58505 0.59909,-0.64767 0.67591,-2.04008 0.0639,-1.1584 -0.32779,-2.1424 -0.4034,-0.98466 -0.99006,-1.83859 z"
       style="font-size:24px;fill:#000000;fill-opacity:1"
       id="path67852" /><path
       d="m 284.5095,336.15395 -0.5259,2.13943 -7.23767,-1.77909 q -0.87626,-0.21539 -1.66389,-0.30039 -0.79902,-0.0878 -1.29859,0.079 -0.5479,0.16702 -0.90697,0.64593 -0.37045,0.47611 -0.58025,1.32961 -0.2154,0.87626 -0.0179,1.93848 0.19747,1.06222 0.65349,2.10352 l 9.49091,2.33296 -0.52589,2.13944 -12.71145,-3.12461 0.52589,-2.13943 1.41112,0.34686 q -0.58457,-1.20564 -0.7882,-2.39005 -0.20364,-1.18441 0.0733,-2.31103 0.50631,-2.05977 2.01248,-2.83596 1.50616,-0.7762 3.83906,-0.20275 z"
       style="font-size:24px;fill:#000000;fill-opacity:1"
       id="path67854" /><path
       d="m 288.57815,325.87123 q -0.0885,0.63627 -0.27635,1.35801 -0.1833,0.71093 -0.40506,1.2406 -0.77388,1.84844 -2.17114,2.39414 -1.39727,0.5457 -3.59162,-0.37299 l -6.42092,-2.68822 -0.57475,1.37282 -1.70792,-0.71504 0.57475,-1.37282 -3.46989,-1.45273 0.85082,-2.0322 3.46989,1.45272 1.75594,-4.19414 1.70792,0.71505 -1.75594,4.19413 5.5021,2.30354 q 0.95124,0.39825 1.50983,0.5813 0.54777,0.17851 1.1212,0.11368 0.53195,-0.0568 0.9093,-0.38156 0.37108,-0.34012 0.7286,-1.19408 0.20818,-0.49724 0.29393,-1.09656 0.075,-0.60384 0.0772,-0.88238 l 0.0453,-0.10809 z"
       style="font-size:24px;fill:#000000;fill-opacity:1"
       id="path67856" /><path
       d="m 295.13337,314.81525 -1.13849,1.87246 -1.19157,-0.7245 q 0.018,0.35382 0.0666,0.97312 0.0447,0.6032 -0.0186,1.11331 -0.0558,0.61065 -0.27703,1.31277 -0.21117,0.70822 -0.71041,1.52929 -0.91932,1.51198 -2.55989,1.95454 -1.64058,0.44256 -3.19261,-0.50112 -1.27167,-0.7732 -1.72393,-1.78879 -0.45618,-1.0317 -0.29186,-2.31699 0.17041,-1.29531 0.88081,-2.8246 0.71041,-1.52929 1.62877,-3.22014 l -0.29038,-0.17656 q -0.64084,-0.38965 -1.20142,-0.41505 -0.55449,-0.0354 -1.05051,0.23901 -0.47383,0.2605 -0.89488,0.77253 -0.42104,0.51203 -0.79243,1.12283 -0.45052,0.74097 -0.80429,1.77393 -0.36378,1.02687 -0.58385,2.22341 l -0.0609,0.10013 -1.91251,-1.16285 q 0.18466,-0.64205 0.63759,-1.793 0.45294,-1.15095 1.06785,-2.16228 0.71842,-1.18155 1.44835,-1.93093 0.72602,-0.76547 1.58628,-1.12017 0.84416,-0.35077 1.77603,-0.23676 0.93187,0.11401 2.01329,0.77154 z m -3.8921,0.19819 -3.11408,-1.89343 q -0.47353,0.89157 -1.08572,2.12398 -0.6061,1.22241 -0.82985,2.01898 -0.26284,0.95109 -0.0766,1.75007 0.17622,0.79289 1.02733,1.31039 0.96126,0.58447 1.80502,0.30203 0.83375,-0.28853 1.55825,-1.48009 0.60273,-0.9913 0.72147,-2.04373 0.10872,-1.05851 -0.006,-2.0882 z"
       style="font-size:24px;fill:#000000;fill-opacity:1"
       id="path67858" /><path
       d="m 294.84384,298.32658 -0.0755,0.0896 q -0.40677,0.30087 -0.74467,0.62912 -0.33931,0.31173 -0.74709,0.79565 -0.65696,0.77964 -0.91913,1.80001 -0.27113,1.01282 -0.29083,2.14556 l 7.10637,5.98822 -1.41966,1.68474 -10.00985,-8.43486 1.41965,-1.68474 1.47863,1.24597 q 0.0392,-1.68329 0.34952,-2.72441 0.30888,-1.05763 0.98095,-1.85519 0.37002,-0.43911 0.56303,-0.6136 0.18406,-0.18205 0.57904,-0.52349 z"
       style="font-size:24px;fill:#000000;fill-opacity:1"
       id="path67860" /><path
       d="m 311.20318,296.71281 q -0.47047,1.12702 -1.01837,2.00898 -0.53916,0.87414 -1.36959,1.61561 -1.05771,0.9444 -2.21377,1.42675 -1.16385,0.4736 -2.35519,0.40618 -1.20008,-0.0596 -2.40828,-0.70898 -1.2082,-0.64936 -2.35552,-1.93435 -2.13855,-2.39514 -2.04491,-4.92954 0.10239,-2.54221 2.26152,-4.47002 0.83917,-0.74928 1.85411,-1.23131 1.02369,-0.48984 2.00117,-0.74991 l 1.63123,1.82696 -0.0874,0.078 q -1.27469,0.0856 -2.35987,0.48891 -1.07645,0.39556 -1.83695,1.07459 -1.39863,1.24878 -1.36865,2.91872 0.0309,1.65338 1.65435,3.47159 1.57659,1.76577 3.21405,2.01614 1.6384,0.23382 3.072,-1.04619 0.49826,-0.44488 0.89693,-1.03649 0.39866,-0.59161 0.62219,-1.16824 0.1945,-0.50357 0.32967,-0.9856 0.12738,-0.49077 0.17826,-0.80328 l 0.0874,-0.0781 z"
       style="font-size:24px;fill:#000000;fill-opacity:1"
       id="path67862" /><path
       d="m 319.69181,291.86162 q -0.42401,0.48258 -0.97798,0.98188 -0.54424,0.49277 -1.02085,0.81303 -1.66329,1.11764 -3.13028,0.80447 -1.46699,-0.31317 -2.79378,-2.28771 l -3.88234,-5.77773 -1.2353,0.83006 -1.03268,-1.53683 1.23531,-0.83007 -2.09803,-3.1223 1.82864,-1.22875 2.09803,3.1223 3.774,-2.53593 1.03268,1.53683 -3.77401,2.53594 3.32679,4.95095 q 0.57516,0.85596 0.94086,1.31615 0.35917,0.45047 0.87366,0.71186 0.47542,0.24529 0.96922,0.18173 0.497,-0.0798 1.26541,-0.59616 0.44744,-0.30065 0.84881,-0.75389 0.39484,-0.46297 0.55001,-0.69431 l 0.0973,-0.0654 z"
       style="font-size:24px;fill:#000000;fill-opacity:1"
       id="path67864" /><path
       d="m 317.00361,276.1279 -2.19094,1.17127 -1.07735,-2.01526 2.19094,-1.17127 z m 7.08041,13.54268 -1.94291,1.03867 -6.17128,-11.5438 1.94292,-1.03868 z"
       style="font-size:24px;fill:#000000;fill-opacity:1"
       id="path67866" /><path
       d="m 336.69891,283.41518 q -0.83581,0.89048 -1.65818,1.5243 -0.81146,0.62958 -1.84917,1.03276 -1.32171,0.51352 -2.5735,0.55985 -1.25603,0.0354 -2.34808,-0.4455 -1.10296,-0.47666 -2.00673,-1.50846 -0.90377,-1.0318 -1.52764,-2.63752 -1.16285,-2.99297 -0.18643,-5.3336 0.98735,-2.34487 3.68539,-3.39314 1.04864,-0.40742 2.16816,-0.50294 1.13046,-0.0998 2.13706,-5.4e-4 l 0.887,2.28296 -0.10923,0.0424 q -1.22375,-0.36688 -2.38148,-0.36967 -1.1468,-0.007 -2.09712,0.3622 -1.74772,0.67904 -2.30523,2.25344 -0.55084,1.55924 0.33192,3.83127 0.85728,2.2065 2.30297,3.01518 1.45237,0.79351 3.24379,0.0975 0.62262,-0.24191 1.20343,-0.65615 0.58082,-0.41425 0.99235,-0.87587 0.35873,-0.40339 0.65436,-0.80741 0.29138,-0.41495 0.44862,-0.68977 l 0.10923,-0.0424 z"
       style="font-size:24px;fill:#000000;fill-opacity:1"
       id="path67868" /><path
       d="m 358.85482,273.90247 q 0.14689,1.58697 -0.18614,2.94767 -0.33411,1.34904 -1.07835,2.3359 -0.69021,0.93479 -1.69613,1.51042 -0.99532,0.56289 -2.16221,0.6709 -1.01519,0.094 -1.8642,-0.0511 -0.83734,-0.1461 -1.73238,-0.534 l 0.5055,5.46103 -2.19374,0.20306 -1.65152,-17.84169 2.19375,-0.20307 0.12637,1.36526 q 0.80712,-0.81615 1.84696,-1.40669 1.05043,-0.6033 2.28733,-0.71779 2.35711,-0.21819 3.82928,1.44618 1.48276,1.65161 1.77548,4.81387 z m -2.25836,0.26789 q -0.21819,-2.35711 -1.13135,-3.44947 -0.91317,-1.09235 -2.58182,-0.9379 -0.94517,0.0875 -1.86422,0.58448 -0.91904,0.49698 -1.73264,1.24311 l 0.68372,7.38639 q 0.9724,0.33367 1.65157,0.4238 0.69083,0.089 1.54266,0.0102 1.83201,-0.16958 2.74438,-1.50153 0.91236,-1.33195 0.6877,-3.75908 z"
       style="font-size:24px;fill:#000000;fill-opacity:1"
       id="path67870" /><path
       d="m 371.75842,270.63625 -0.11695,-0.007 q -0.4837,-0.14836 -0.94851,-0.22505 -0.45236,-0.0876 -1.08388,-0.12801 -1.01745,-0.0651 -1.9939,0.33047 -0.9757,0.38384 -1.89843,1.04115 l -0.59297,9.27403 -2.19863,-0.14058 0.83524,-13.06317 2.19863,0.14058 -0.12338,1.92965 q 1.37713,-0.96879 2.39886,-1.33794 1.03417,-0.3801 2.07502,-0.31355 0.57304,0.0366 0.82809,0.0882 0.25579,0.0398 0.76513,0.1546 z"
       style="font-size:24px;fill:#000000;fill-opacity:1"
       id="path67872" /><path
       d="m 385.46126,277.65371 q -0.69752,3.12226 -2.70236,4.57158 -2.00485,1.44932 -4.69251,0.84889 -2.71052,-0.60553 -3.90799,-2.77025 -1.18603,-2.16216 -0.48852,-5.28442 0.69752,-3.12225 2.69093,-4.57413 2.0074,-1.46076 4.71793,-0.85522 2.68765,0.60042 3.88256,2.77658 1.19747,2.16472 0.49996,5.28697 z m -2.21875,-0.49567 q 0.55443,-2.48179 -0.14942,-3.89983 -0.7013,-1.42948 -2.42826,-1.81528 -1.74984,-0.39092 -2.9928,0.60421 -1.22897,0.98625 -1.7834,3.46804 -0.53655,2.40173 0.15708,3.86552 0.6962,1.45236 2.43459,1.84072 1.71553,0.38324 2.96104,-0.62332 1.25951,-1.01545 1.80117,-3.44006 z"
       style="font-size:24px;fill:#000000;fill-opacity:1"
       id="path67874" /><path
       d="m 397.6274,287.98454 q -1.31423,3.05766 -3.31855,3.89263 -2.00433,0.83498 -4.88972,-0.40521 -0.95821,-0.41185 -1.81319,-0.94515 -0.84885,-0.51791 -1.62525,-1.145 l 0.88848,-2.06714 0.10767,0.0463 q 0.41196,0.40666 1.36828,1.14935 0.95169,0.75344 2.02833,1.2162 1.03357,0.44424 1.81829,0.48815 0.78471,0.0439 1.35127,-0.23555 0.55729,-0.25792 0.9733,-0.78066 0.41601,-0.52274 0.73069,-1.25485 l 0.47201,-1.09817 q -1.22982,0.33877 -2.22693,0.34388 -0.98172,-0.001 -2.27369,-0.55634 -2.15327,-0.92551 -2.75734,-3.02192 -0.58867,-2.10254 0.62837,-4.9341 0.66637,-1.55036 1.57829,-2.48496 0.92731,-0.94074 2.03265,-1.43506 1.02837,-0.46362 2.21012,-0.45315 1.18637,-2.9e-4 2.17688,0.42544 1.04434,0.44887 1.6516,0.96499 0.62266,0.50998 1.22351,1.27845 l 0.35131,-0.46126 1.89489,0.81445 z m -1.19112,-2.80792 2.81817,-6.55673 q -0.65014,-0.71312 -1.28517,-1.16464 -0.61964,-0.45766 -1.30868,-0.75382 -1.66879,-0.71727 -3.10826,-0.009 -1.43948,0.70785 -2.35573,2.8396 -0.86998,2.02407 -0.60827,3.37383 0.26171,1.34976 1.90897,2.05777 0.88284,0.37946 1.90914,0.42516 1.04169,0.0396 2.02983,-0.21175 z"
       style="font-size:24px;fill:#000000;fill-opacity:1"
       id="path67876" /><path
       d="m 413.39925,286.85224 -0.0992,-0.0624 q -0.35427,-0.36121 -0.72613,-0.65043 -0.3557,-0.29289 -0.8914,-0.62976 -0.86307,-0.54273 -1.90991,-0.66114 -1.0406,-0.12833 -2.16516,0.009 l -4.94696,7.86681 -1.86503,-1.1728 6.96818,-11.081 1.86502,1.1728 -1.02932,1.63686 q 1.67252,-0.19414 2.74657,-0.0309 1.0902,0.15952 1.97311,0.71473 0.48609,0.30567 0.68563,0.47268 0.20577,0.15708 0.59859,0.50101 z"
       style="font-size:24px;fill:#000000;fill-opacity:1"
       id="path67878" /><path
       d="m 416.73244,303.56717 -1.65827,-1.43263 0.91167,-1.05526 q -0.35193,-0.0408 -0.97074,-0.0953 -0.60227,-0.0557 -1.09488,-0.20256 -0.59299,-0.15612 -1.24884,-0.49043 -0.66351,-0.32544 -1.39066,-0.95365 -1.33903,-1.15683 -1.50403,-2.84801 -0.16501,-1.69119 1.02246,-3.06569 0.97296,-1.1262 2.04939,-1.40419 1.09295,-0.27919 2.33334,0.0955 1.24926,0.38238 2.63992,1.33603 1.39066,0.95366 2.90626,2.13913 l 0.22217,-0.25716 q 0.49031,-0.56753 0.60812,-1.11618 0.12668,-0.54099 -0.0619,-1.07559 -0.17851,-0.5104 -0.61381,-1.01036 -0.4353,-0.49996 -0.97624,-0.96729 -0.65621,-0.56692 -1.61639,-1.08673 -0.95253,-0.52867 -2.09616,-0.94369 l -0.0887,-0.0766 1.46327,-1.69374 q 0.60265,0.28835 1.66279,0.92548 1.06014,0.63714 1.95578,1.41091 1.0464,0.90401 1.66467,1.74788 0.6348,0.84266 0.84226,1.74975 0.20626,0.89057 -0.0604,1.79073 -0.26662,0.90016 -1.09402,1.85788 z m 0.44853,-3.87126 2.3826,-2.75786 q -0.80093,-0.61452 -1.91506,-1.42219 -1.10527,-0.80001 -1.85384,-1.15247 -0.89449,-0.4166 -1.71327,-0.36513 -0.81112,0.0426 -1.46231,0.79635 -0.73547,0.8513 -0.59653,1.73017 0.14659,0.86999 1.20185,1.78166 0.87791,0.75845 1.89619,1.04969 1.02593,0.28237 2.06037,0.33978 z"
       style="font-size:24px;fill:#000000;fill-opacity:1"
       id="path67880" /><path
       d="m 431.15451,321.90973 -1.28481,-1.7897 6.05451,-4.34649 q 0.68542,-0.49206 1.2754,-1.01658 0.59681,-0.515 0.83408,-0.98828 0.25216,-0.51282 0.16773,-1.07251 -0.0844,-0.5597 -0.638,-1.33079 -0.53989,-0.75206 -1.46058,-1.23075 -0.91116,-0.48552 -2.03175,-0.82069 -0.19845,0.18574 -0.47989,0.41664 -0.27192,0.22406 -0.55751,0.42908 l -6.80657,4.88639 -1.28481,-1.7897 6.05451,-4.34649 q 0.70446,-0.50572 1.28491,-1.02341 0.59682,-0.51501 0.83409,-0.98828 0.25216,-0.51282 0.15821,-1.06568 -0.0844,-0.5597 -0.638,-1.33079 -0.52623,-0.73302 -1.42103,-1.21586 -0.88798,-0.47331 -1.97586,-0.80312 l -7.93941,5.69965 -1.28481,-1.7897 10.63347,-7.6337 1.28481,1.7897 -1.18044,0.84743 q 1.29634,0.33884 2.28121,0.88685 0.99171,0.55754 1.66829,1.49998 0.77909,1.08525 0.86204,2.16534 0.0898,1.08961 -0.45286,2.04177 1.69298,0.42917 2.73521,1.03699 1.05175,0.60098 1.783,1.61958 1.25747,1.75162 0.78584,3.34526 -0.45528,1.59631 -2.35922,2.96313 z"
       style="font-size:24px;fill:#000000;fill-opacity:1"
       id="path67882" /><path
       d="m 433.39761,341.88245 -0.79559,-2.56295 q 1.65703,-2.68623 4.00262,-4.61685 2.34559,-1.93061 5.71436,-2.97634 3.36877,-1.04573 6.3953,-0.78273 3.02653,0.263 5.91342,1.53871 l 0.79559,2.56295 -0.11192,0.0347 q -1.09842,-0.65293 -2.42993,-1.14761 -1.31685,-0.48696 -2.9571,-0.75083 -1.58506,-0.24419 -3.37348,-0.1553 -1.78495,0.10008 -3.62042,0.66984 -1.91382,0.59409 -3.378,1.49034 -1.46071,0.90743 -2.67788,2.04603 -1.16815,1.09884 -2.00864,2.30456 -0.85168,1.2092 -1.35641,2.31069 z"
       style="font-size:24px;fill:#000000;fill-opacity:1"
       id="path67884" /><path
       d="m 448.67969,352.99121 q -0.42247,0.62597 -1.12751,1.08976 -0.70505,0.46379 -1.9008,0.62844 -1.18414,0.16305 -2.23007,-0.13062 -1.04593,-0.29367 -1.88441,-0.97078 -0.93253,-0.75879 -1.49029,-1.88858 -0.54455,-1.11978 -0.73798,-2.5245 -0.19821,-1.43954 -0.0418,-2.8806 0.14485,-1.43946 0.42809,-2.38932 l 2.42632,-0.33409 0.024,0.17414 q -0.51424,1.0763 -0.75995,2.4705 -0.24572,1.39421 -0.0747,2.63639 0.10071,0.73138 0.458,1.52207 0.35729,0.79068 0.9036,1.23595 0.58434,0.46369 1.23479,0.63437 0.65206,0.18229 1.5924,0.0528 0.92874,-0.12788 1.49086,-0.51284 0.57532,-0.37495 0.85167,-0.94532 0.28795,-0.57197 0.31335,-1.33255 0.037,-0.76217 -0.0813,-1.62125 l -0.14386,-1.04483 1.92712,-0.26535 0.1119,0.81264 q 0.24297,1.7646 1.11822,2.70873 0.88846,0.95413 2.30478,0.75911 0.6269,-0.0863 1.0545,-0.41727 0.43921,-0.33255 0.67551,-0.85009 0.23311,-0.54076 0.27087,-1.12559 0.0378,-0.58484 -0.0613,-1.30461 -0.15186,-1.10288 -0.71761,-2.29071 -0.56576,-1.18784 -1.43739,-2.19161 l -0.016,-0.11609 2.42632,-0.33409 q 0.51982,0.76831 1.04511,2.09184 0.5385,1.33354 0.71594,2.62216 0.17423,1.26541 0.0747,2.26094 -0.0995,0.99554 -0.50322,1.84369 -0.44215,0.91259 -1.17243,1.45083 -0.73028,0.53824 -1.78672,0.6837 -1.43954,0.19822 -2.65987,-0.67473 -1.20712,-0.86294 -1.67596,-2.20607 l -0.16253,0.0224 q -0.0161,0.57003 -0.21888,1.33136 -0.19112,0.75974 -0.56353,1.31968 z"
       style="font-size:24px;fill:#000000;fill-opacity:1"
       id="path67886" /><path
       d="m 447.08152,366.18496 q -3.52622,-0.089 -6.30886,-1.30801 -2.78263,-1.21903 -5.10845,-3.3526 l 0.0677,-2.68274 0.11715,0.003 q 0.78557,0.92246 1.93431,1.85408 1.13673,0.94304 2.56023,1.67059 1.4812,0.76417 3.13409,1.22789 1.65259,0.47544 3.65586,0.52599 1.92126,0.0485 3.66603,-0.34121 1.74476,-0.3897 3.20374,-1.06796 1.50643,-0.7005 2.64124,-1.53932 1.14622,-0.82682 2.02536,-1.75415 l 0.11715,0.003 -0.0677,2.68274 q -2.43048,2.01355 -5.27105,3.09067 -2.84058,1.07711 -6.3668,0.98813 z"
       style="font-size:24px;fill:#000000;fill-opacity:1"
       id="path67888" /></g></g></svg>
