<?xml version="1.0" encoding="UTF-8" standalone="no"?>
<!-- Generator: Adobe Illustrator 20.0.0, SVG Export Plug-In . SVG Version: 6.00 Build 0)  -->

<svg
   version="1.1"
   id="svg2"
   x="0px"
   y="0px"
   viewBox="0 0 721.6 721.6"
   style="enable-background:new 0 0 721.6 721.6;"
   xml:space="preserve"
   sodipodi:docname="red5.svg"
   inkscape:version="1.1 (c68e22c387, 2021-05-23)"
   xmlns:inkscape="http://www.inkscape.org/namespaces/inkscape"
   xmlns:sodipodi="http://sodipodi.sourceforge.net/DTD/sodipodi-0.dtd"
   xmlns="http://www.w3.org/2000/svg"
   xmlns:svg="http://www.w3.org/2000/svg"><defs
   id="defs1626"><inkscape:path-effect
     effect="bspline"
     id="path-effect11541"
     is_visible="true"
     lpeversion="1"
     weight="33.333333"
     steps="2"
     helper_size="0"
     apply_no_weight="true"
     apply_with_weight="true"
     only_selected="false" /><inkscape:path-effect
     effect="fill_between_many"
     method="originald"
     linkedpaths="#g12224,0,1"
     id="path-effect12573" /></defs><sodipodi:namedview
   id="namedview1624"
   pagecolor="#ffffff"
   bordercolor="#666666"
   borderopacity="1.0"
   inkscape:pageshadow="2"
   inkscape:pageopacity="0.0"
   inkscape:pagecheckerboard="0"
   showgrid="false"
   showguides="false"
   inkscape:zoom="0.76727357"
   inkscape:cx="351.89535"
   inkscape:cy="407.28628"
   inkscape:window-width="1920"
   inkscape:window-height="1001"
   inkscape:window-x="-9"
   inkscape:window-y="-9"
   inkscape:window-maximized="1"
   inkscape:current-layer="layer1" />
<style
   type="text/css"
   id="style1226">
	
		.st0{opacity:0.9895;fill:url(#path3302_3_);stroke:#5A5A59;stroke-width:0.9965;stroke-linecap:round;stroke-linejoin:round;enable-background:new    ;}
	
		.st1{opacity:0.9895;fill:url(#path3304_3_);stroke:#5A5A59;stroke-width:0.9965;stroke-linecap:round;stroke-linejoin:round;enable-background:new    ;}
	
		.st2{opacity:0.9895;fill:url(#path3306_3_);stroke:#5A5A59;stroke-width:0.9965;stroke-linecap:round;stroke-linejoin:round;enable-background:new    ;}
	
		.st3{opacity:0.9895;fill:url(#path3310_3_);stroke:#5A5A59;stroke-width:0.9965;stroke-linecap:round;stroke-linejoin:round;enable-background:new    ;}
	
		.st4{opacity:0.9895;fill:url(#path3312_3_);stroke:#5A5A59;stroke-width:0.9965;stroke-linecap:round;stroke-linejoin:round;enable-background:new    ;}
	
		.st5{opacity:0.9895;fill:url(#path3314_3_);stroke:#5A5A59;stroke-width:0.9965;stroke-linecap:round;stroke-linejoin:round;enable-background:new    ;}
	
		.st6{opacity:0.9895;fill:url(#path3316_3_);stroke:#5A5A59;stroke-width:0.9965;stroke-linecap:round;stroke-linejoin:round;enable-background:new    ;}
	
		.st7{opacity:0.9895;fill:url(#path3318_3_);stroke:#5A5A59;stroke-width:0.9965;stroke-linecap:round;stroke-linejoin:round;enable-background:new    ;}
	
		.st8{opacity:0.9895;fill:url(#path3320_3_);stroke:#5A5A59;stroke-width:0.9965;stroke-linecap:round;stroke-linejoin:round;enable-background:new    ;}
	
		.st9{opacity:0.9895;fill:url(#path3322_3_);stroke:#5A5A59;stroke-width:0.9965;stroke-linecap:round;stroke-linejoin:round;enable-background:new    ;}
	
		.st10{opacity:0.9895;fill:url(#path3308_3_);stroke:#5A5A59;stroke-width:0.9965;stroke-linecap:round;stroke-linejoin:round;enable-background:new    ;}
	
		.st11{opacity:0.9895;fill:url(#path3324_3_);stroke:#5A5A59;stroke-width:0.9965;stroke-linecap:round;stroke-linejoin:round;enable-background:new    ;}
	
		.st12{opacity:0.9895;fill:url(#path3326_3_);stroke:#5A5A59;stroke-width:0.9965;stroke-linecap:round;stroke-linejoin:round;enable-background:new    ;}
	
		.st13{opacity:0.9895;fill:url(#path3328_3_);stroke:#5A5A59;stroke-width:0.9965;stroke-linecap:round;stroke-linejoin:round;enable-background:new    ;}
	
		.st14{opacity:0.9895;fill:url(#path3330_3_);stroke:#5A5A59;stroke-width:0.9965;stroke-linecap:round;stroke-linejoin:round;enable-background:new    ;}
	
		.st15{opacity:0.9895;fill:url(#path3332_3_);stroke:#5A5A59;stroke-width:0.9965;stroke-linecap:round;stroke-linejoin:round;enable-background:new    ;}
	
		.st16{opacity:0.9895;fill:url(#path3334_3_);stroke:#5A5A59;stroke-width:0.9965;stroke-linecap:round;stroke-linejoin:round;enable-background:new    ;}
	
		.st17{opacity:0.9895;fill:url(#path3336_3_);stroke:#5A5A59;stroke-width:0.9965;stroke-linecap:round;stroke-linejoin:round;enable-background:new    ;}
	
		.st18{opacity:0.9895;fill:url(#path3338_3_);stroke:#5A5A59;stroke-width:0.9965;stroke-linecap:round;stroke-linejoin:round;enable-background:new    ;}
	
		.st19{opacity:0.9895;fill:url(#path3340_3_);stroke:#5A5A59;stroke-width:0.9965;stroke-linecap:round;stroke-linejoin:round;enable-background:new    ;}
	.st20{opacity:0.9895;enable-background:new    ;}
	
		.st21{opacity:0.9895;fill:url(#path3302_5_);stroke:#5A5A59;stroke-width:0.9965;stroke-linecap:round;stroke-linejoin:round;enable-background:new    ;}
	
		.st22{opacity:0.9895;fill:url(#path3304_5_);stroke:#5A5A59;stroke-width:0.9965;stroke-linecap:round;stroke-linejoin:round;enable-background:new    ;}
	
		.st23{opacity:0.9895;fill:url(#path3306_5_);stroke:#5A5A59;stroke-width:0.9965;stroke-linecap:round;stroke-linejoin:round;enable-background:new    ;}
	
		.st24{opacity:0.9895;fill:url(#path3310_5_);stroke:#5A5A59;stroke-width:0.9965;stroke-linecap:round;stroke-linejoin:round;enable-background:new    ;}
	
		.st25{opacity:0.9895;fill:url(#path3312_5_);stroke:#5A5A59;stroke-width:0.9965;stroke-linecap:round;stroke-linejoin:round;enable-background:new    ;}
	
		.st26{opacity:0.9895;fill:url(#path3314_5_);stroke:#5A5A59;stroke-width:0.9965;stroke-linecap:round;stroke-linejoin:round;enable-background:new    ;}
	
		.st27{opacity:0.9895;fill:url(#path3316_5_);stroke:#5A5A59;stroke-width:0.9965;stroke-linecap:round;stroke-linejoin:round;enable-background:new    ;}
	
		.st28{opacity:0.9895;fill:url(#path3318_5_);stroke:#5A5A59;stroke-width:0.9965;stroke-linecap:round;stroke-linejoin:round;enable-background:new    ;}
	
		.st29{opacity:0.9895;fill:url(#path3320_5_);stroke:#5A5A59;stroke-width:0.9965;stroke-linecap:round;stroke-linejoin:round;enable-background:new    ;}
	
		.st30{opacity:0.9895;fill:url(#path3322_5_);stroke:#5A5A59;stroke-width:0.9965;stroke-linecap:round;stroke-linejoin:round;enable-background:new    ;}
	
		.st31{opacity:0.9895;fill:url(#path3308_5_);stroke:#5A5A59;stroke-width:0.9965;stroke-linecap:round;stroke-linejoin:round;enable-background:new    ;}
	
		.st32{opacity:0.9895;fill:url(#path3324_5_);stroke:#5A5A59;stroke-width:0.9965;stroke-linecap:round;stroke-linejoin:round;enable-background:new    ;}
	
		.st33{opacity:0.9895;fill:url(#path3326_5_);stroke:#5A5A59;stroke-width:0.9965;stroke-linecap:round;stroke-linejoin:round;enable-background:new    ;}
	
		.st34{opacity:0.9895;fill:url(#path3328_5_);stroke:#5A5A59;stroke-width:0.9965;stroke-linecap:round;stroke-linejoin:round;enable-background:new    ;}
	
		.st35{opacity:0.9895;fill:url(#path3330_5_);stroke:#5A5A59;stroke-width:0.9965;stroke-linecap:round;stroke-linejoin:round;enable-background:new    ;}
	
		.st36{opacity:0.9895;fill:url(#path3332_5_);stroke:#5A5A59;stroke-width:0.9965;stroke-linecap:round;stroke-linejoin:round;enable-background:new    ;}
	
		.st37{opacity:0.9895;fill:url(#path3334_5_);stroke:#5A5A59;stroke-width:0.9965;stroke-linecap:round;stroke-linejoin:round;enable-background:new    ;}
	
		.st38{opacity:0.9895;fill:url(#path3336_5_);stroke:#5A5A59;stroke-width:0.9965;stroke-linecap:round;stroke-linejoin:round;enable-background:new    ;}
	
		.st39{opacity:0.9895;fill:url(#path3338_5_);stroke:#5A5A59;stroke-width:0.9965;stroke-linecap:round;stroke-linejoin:round;enable-background:new    ;}
	
		.st40{opacity:0.9895;fill:url(#path3340_5_);stroke:#5A5A59;stroke-width:0.9965;stroke-linecap:round;stroke-linejoin:round;enable-background:new    ;}
	
		.st41{opacity:0.9895;fill:url(#path3302_6_);stroke:#5A5A59;stroke-width:0.9965;stroke-linecap:round;stroke-linejoin:round;enable-background:new    ;}
	
		.st42{opacity:0.9895;fill:url(#path3304_6_);stroke:#5A5A59;stroke-width:0.9965;stroke-linecap:round;stroke-linejoin:round;enable-background:new    ;}
	
		.st43{opacity:0.9895;fill:url(#path3306_6_);stroke:#5A5A59;stroke-width:0.9965;stroke-linecap:round;stroke-linejoin:round;enable-background:new    ;}
	
		.st44{opacity:0.9895;fill:url(#path3310_6_);stroke:#5A5A59;stroke-width:0.9965;stroke-linecap:round;stroke-linejoin:round;enable-background:new    ;}
	
		.st45{opacity:0.9895;fill:url(#path3312_6_);stroke:#5A5A59;stroke-width:0.9965;stroke-linecap:round;stroke-linejoin:round;enable-background:new    ;}
	
		.st46{opacity:0.9895;fill:url(#path3314_6_);stroke:#5A5A59;stroke-width:0.9965;stroke-linecap:round;stroke-linejoin:round;enable-background:new    ;}
	
		.st47{opacity:0.9895;fill:url(#path3316_6_);stroke:#5A5A59;stroke-width:0.9965;stroke-linecap:round;stroke-linejoin:round;enable-background:new    ;}
	
		.st48{opacity:0.9895;fill:url(#path3318_6_);stroke:#5A5A59;stroke-width:0.9965;stroke-linecap:round;stroke-linejoin:round;enable-background:new    ;}
	
		.st49{opacity:0.9895;fill:url(#path3320_6_);stroke:#5A5A59;stroke-width:0.9965;stroke-linecap:round;stroke-linejoin:round;enable-background:new    ;}
	
		.st50{opacity:0.9895;fill:url(#path3322_6_);stroke:#5A5A59;stroke-width:0.9965;stroke-linecap:round;stroke-linejoin:round;enable-background:new    ;}
	
		.st51{opacity:0.9895;fill:url(#path3308_6_);stroke:#5A5A59;stroke-width:0.9965;stroke-linecap:round;stroke-linejoin:round;enable-background:new    ;}
	
		.st52{opacity:0.9895;fill:url(#path3324_6_);stroke:#5A5A59;stroke-width:0.9965;stroke-linecap:round;stroke-linejoin:round;enable-background:new    ;}
	
		.st53{opacity:0.9895;fill:url(#path3326_6_);stroke:#5A5A59;stroke-width:0.9965;stroke-linecap:round;stroke-linejoin:round;enable-background:new    ;}
	
		.st54{opacity:0.9895;fill:url(#path3328_6_);stroke:#5A5A59;stroke-width:0.9965;stroke-linecap:round;stroke-linejoin:round;enable-background:new    ;}
	
		.st55{opacity:0.9895;fill:url(#path3330_6_);stroke:#5A5A59;stroke-width:0.9965;stroke-linecap:round;stroke-linejoin:round;enable-background:new    ;}
	
		.st56{opacity:0.9895;fill:url(#path3332_6_);stroke:#5A5A59;stroke-width:0.9965;stroke-linecap:round;stroke-linejoin:round;enable-background:new    ;}
	
		.st57{opacity:0.9895;fill:url(#path3334_6_);stroke:#5A5A59;stroke-width:0.9965;stroke-linecap:round;stroke-linejoin:round;enable-background:new    ;}
	
		.st58{opacity:0.9895;fill:url(#path3336_6_);stroke:#5A5A59;stroke-width:0.9965;stroke-linecap:round;stroke-linejoin:round;enable-background:new    ;}
	
		.st59{opacity:0.9895;fill:url(#path3338_6_);stroke:#5A5A59;stroke-width:0.9965;stroke-linecap:round;stroke-linejoin:round;enable-background:new    ;}
	
		.st60{opacity:0.9895;fill:url(#path3340_6_);stroke:#5A5A59;stroke-width:0.9965;stroke-linecap:round;stroke-linejoin:round;enable-background:new    ;}
	.st61{fill:#004C99;stroke:#5A5A59;stroke-width:0.9965;stroke-linecap:round;stroke-linejoin:round;}
	.st62{opacity:0.3;}
</style>





<g
   inkscape:groupmode="layer"
   id="layer1"
   inkscape:label="red"
   style="display:inline"><g
     id="g1352">
	<g
   id="g1288">
		<linearGradient
   id="path3302_3_"
   gradientUnits="userSpaceOnUse"
   x1="261.125"
   y1="263.52499"
   x2="469.875"
   y2="54.775002">
			<stop
   offset="0.3254"
   style="stop-color:#E63329"
   id="stop1228" />
			<stop
   offset="0.6124"
   style="stop-color:#B92D1F"
   id="stop1230" />
		</linearGradient>
		<path
   id="path3302_4_"
   class="st0"
   d="m 320.7,8.6 c 48.9,-18 67.6,15.3 109.7,6.7 l -71.6,345.9 z" />
		<linearGradient
   id="path3304_3_"
   gradientUnits="userSpaceOnUse"
   x1="334.72501"
   y1="332.22491"
   x2="585.56543"
   y2="81.384598">
			<stop
   offset="0.3254"
   style="stop-color:#E63329"
   id="stop1234" />
			<stop
   offset="0.6124"
   style="stop-color:#B92D1F"
   id="stop1236" />
		</linearGradient>
		<path
   id="path3304_4_"
   class="st1"
   d="m 538.9,49.8 c 50.3,13.9 46.1,53.5 85.4,71.1 l -262.9,238 z" />
		<linearGradient
   id="path3306_3_"
   gradientUnits="userSpaceOnUse"
   x1="439.5"
   y1="437.70001"
   x2="673.79999"
   y2="203.39999">
			<stop
   offset="0.3254"
   style="stop-color:#E63329"
   id="stop1240" />
			<stop
   offset="0.6124"
   style="stop-color:#B92D1F"
   id="stop1242" />
		</linearGradient>
		<path
   id="path3306_4_"
   class="st2"
   d="m 684.4,214 c 32.4,40.6 8.8,68.9 30,105.8 L 361,359.2 Z" />
		<linearGradient
   id="path3310_3_"
   gradientUnits="userSpaceOnUse"
   x1="481.39999"
   y1="480.10001"
   x2="620.15002"
   y2="341.35001">
			<stop
   offset="0.3254"
   style="stop-color:#E63329"
   id="stop1246" />
			<stop
   offset="0.6124"
   style="stop-color:#B92D1F"
   id="stop1248" />
		</linearGradient>
		<path
   id="path3310_4_"
   class="st3"
   d="m 709.1,430.3 c 2.2,51.8 -34.7,61 -39.5,103.4 L 360.5,359.2 Z" />
		<linearGradient
   id="path3312_3_"
   gradientUnits="userSpaceOnUse"
   x1="398.09509"
   y1="571.79498"
   x2="485.49509"
   y2="484.39499">
			<stop
   offset="0.3254"
   style="stop-color:#E63329"
   id="stop1252" />
			<stop
   offset="0.6124"
   style="stop-color:#B92D1F"
   id="stop1254" />
		</linearGradient>
		<path
   id="path3312_4_"
   class="st4"
   d="m 599.2,619 c -28.9,43.2 -63.5,30.1 -92.4,61.5 L 360,358.9 Z" />
		<linearGradient
   id="path3314_3_"
   gradientUnits="userSpaceOnUse"
   x1="249.675"
   y1="665.67499"
   x2="458.42499"
   y2="456.92499">
			<stop
   offset="0.3254"
   style="stop-color:#E63329"
   id="stop1258" />
			<stop
   offset="0.6124"
   style="stop-color:#B92D1F"
   id="stop1260" />
		</linearGradient>
		<path
   id="path3314_4_"
   class="st5"
   d="m 399.1,713.3 c -48.9,18 -68.8,-17.6 -110.8,-9 l 71.6,-345.9 z" />
		<linearGradient
   id="path3316_3_"
   gradientUnits="userSpaceOnUse"
   x1="135.493"
   y1="635.80701"
   x2="386.75"
   y2="384.54999">
			<stop
   offset="0.3254"
   style="stop-color:#E63329"
   id="stop1264" />
			<stop
   offset="0.6124"
   style="stop-color:#B92D1F"
   id="stop1266" />
		</linearGradient>
		<path
   id="path3316_4_"
   class="st6"
   d="M 181.9,667.4 C 131.6,653.5 136.5,613.5 97.4,595.9 l 262.7,-238 z" />
		<linearGradient
   id="path3318_3_"
   gradientUnits="userSpaceOnUse"
   x1="48.525002"
   y1="512.52502"
   x2="282.02499"
   y2="279.0249">
			<stop
   offset="0.3254"
   style="stop-color:#E63329"
   id="stop1270" />
			<stop
   offset="0.6124"
   style="stop-color:#B92D1F"
   id="stop1272" />
		</linearGradient>
		<path
   id="path3318_4_"
   class="st7"
   d="M 38.1,502.1 C 5.7,461.5 28.3,433.9 7.1,396.8 l 353.5,-39.2 z" />
		<linearGradient
   id="path3320_3_"
   gradientUnits="userSpaceOnUse"
   x1="101.275"
   y1="375.375"
   x2="240.075"
   y2="236.575">
			<stop
   offset="0.3254"
   style="stop-color:#E63329"
   id="stop1276" />
			<stop
   offset="0.6124"
   style="stop-color:#B92D1F"
   id="stop1278" />
		</linearGradient>
		<path
   id="path3320_4_"
   class="st8"
   d="M 13.2,287.3 C 11,235.5 47.1,225.4 51.8,183 L 361,357.5 Z" />
		<linearGradient
   id="path3322_3_"
   gradientUnits="userSpaceOnUse"
   x1="235.16949"
   y1="231.36951"
   x2="322.5195"
   y2="144.0195">
			<stop
   offset="0.3254"
   style="stop-color:#E63329"
   id="stop1282" />
			<stop
   offset="0.6124"
   style="stop-color:#B92D1F"
   id="stop1284" />
		</linearGradient>
		<path
   id="path3322_4_"
   class="st9"
   d="M 119.9,96.5 C 148.8,53.3 185.7,67.7 214.6,36.1 L 361.5,357.7 Z" />
	</g>
	<g
   id="g1350">
		<linearGradient
   id="path3308_3_"
   gradientUnits="userSpaceOnUse"
   x1="399.625"
   y1="398.625"
   x2="651.23077"
   y2="147.0192">
			<stop
   offset="0.3254"
   style="stop-color:#E63329"
   id="stop1290" />
			<stop
   offset="0.6124"
   style="stop-color:#B92D1F"
   id="stop1292" />
		</linearGradient>
		<path
   id="path3308_4_"
   class="st10"
   d="m 599.4,98 c 43.5,28.7 53.7,87.5 85.5,116.2 L 361.1,360.1 Z" />
		<linearGradient
   id="path3324_3_"
   gradientUnits="userSpaceOnUse"
   x1="240.35001"
   y1="238.35001"
   x2="396.10001"
   y2="82.599998">
			<stop
   offset="0.3254"
   style="stop-color:#E63329"
   id="stop1296" />
			<stop
   offset="0.6124"
   style="stop-color:#B92D1F"
   id="stop1298" />
		</linearGradient>
		<path
   id="path3324_4_"
   class="st11"
   d="M 184,53 C 224.9,20.9 284.5,29.3 321.7,8.2 l 39.5,351 z" />
		<linearGradient
   id="path3326_3_"
   gradientUnits="userSpaceOnUse"
   x1="282.97501"
   y1="281.375"
   x2="524.32501"
   y2="40.025002">
			<stop
   offset="0.3254"
   style="stop-color:#E63329"
   id="stop1302" />
			<stop
   offset="0.6124"
   style="stop-color:#B92D1F"
   id="stop1304" />
		</linearGradient>
		<path
   id="path3326_4_"
   class="st12"
   d="m 399.1,8.6 c 52.2,-2.2 95.3,39.5 138,44.2 L 361.3,359.7 Z" />
		<linearGradient
   id="path3328_3_"
   gradientUnits="userSpaceOnUse"
   x1="465.27499"
   y1="465.17499"
   x2="675.97498"
   y2="254.47501">
			<stop
   offset="0.3254"
   style="stop-color:#E63329"
   id="stop1308" />
			<stop
   offset="0.6124"
   style="stop-color:#B92D1F"
   id="stop1310" />
		</linearGradient>
		<path
   id="path3328_4_"
   class="st13"
   d="m 709.1,287.6 c 18.2,48.5 -9,102 -0.3,143.8 L 360.4,360.3 Z" />
		<linearGradient
   id="path3330_3_"
   gradientUnits="userSpaceOnUse"
   x1="474.5"
   y1="495.79999"
   x2="575.29999"
   y2="395">
			<stop
   offset="0.3254"
   style="stop-color:#E63329"
   id="stop1314" />
			<stop
   offset="0.6124"
   style="stop-color:#B92D1F"
   id="stop1316" />
		</linearGradient>
		<path
   id="path3330_4_"
   class="st14"
   d="m 684.6,504.3 c -14,49.9 -67.2,77.8 -85,116.6 L 360,360.1 Z" />
		<linearGradient
   id="path3332_3_"
   gradientUnits="userSpaceOnUse"
   x1="324.85001"
   y1="636.15002"
   x2="480.5"
   y2="480.5">
			<stop
   offset="0.3254"
   style="stop-color:#E63329"
   id="stop1320" />
			<stop
   offset="0.6124"
   style="stop-color:#B92D1F"
   id="stop1322" />
		</linearGradient>
		<path
   id="path3332_4_"
   class="st15"
   d="m 537,665.8 c -40.9,32.1 -100.5,23.7 -137.7,44.8 l -39.7,-351 z" />
		<linearGradient
   id="path3334_3_"
   gradientUnits="userSpaceOnUse"
   x1="196.72501"
   y1="678.72498"
   x2="438.07501"
   y2="437.375">
			<stop
   offset="0.3254"
   style="stop-color:#E63329"
   id="stop1326" />
			<stop
   offset="0.6124"
   style="stop-color:#B92D1F"
   id="stop1328" />
		</linearGradient>
		<path
   id="path3334_4_"
   class="st16"
   d="M 322,710.2 C 269.8,712.4 226.7,670.7 184,666 L 359.7,359 Z" />
		<linearGradient
   id="path3336_3_"
   gradientUnits="userSpaceOnUse"
   x1="69.769203"
   y1="571.68073"
   x2="321.42499"
   y2="320.02499">
			<stop
   offset="0.3254"
   style="stop-color:#E63329"
   id="stop1332" />
			<stop
   offset="0.6124"
   style="stop-color:#B92D1F"
   id="stop1334" />
		</linearGradient>
		<path
   id="path3336_4_"
   class="st17"
   d="M 121.6,620.7 C 78.1,592 67.9,533.2 36.1,504.5 L 360,358.6 Z" />
		<linearGradient
   id="path3338_3_"
   gradientUnits="userSpaceOnUse"
   x1="45.275002"
   y1="463.97501"
   x2="255.72501"
   y2="253.52499">
			<stop
   offset="0.3254"
   style="stop-color:#E63329"
   id="stop1338" />
			<stop
   offset="0.6124"
   style="stop-color:#B92D1F"
   id="stop1340" />
		</linearGradient>
		<path
   id="path3338_4_"
   class="st18"
   d="M 12.6,431.3 C -5.6,382.8 21,329 12.2,287.3 l 348.4,71.1 z" />
		<linearGradient
   id="path3340_3_"
   gradientUnits="userSpaceOnUse"
   x1="145.75"
   y1="323.85001"
   x2="246.55"
   y2="223.05">
			<stop
   offset="0.3254"
   style="stop-color:#E63329"
   id="stop1344" />
			<stop
   offset="0.6124"
   style="stop-color:#B92D1F"
   id="stop1346" />
		</linearGradient>
		<path
   id="path3340_4_"
   class="st19"
   d="m 36.4,214.5 c 14,-49.9 67.2,-77.8 85,-116.6 l 239.7,260.9 z" />
	</g>
</g><g
     aria-label="5. Occupies the greatest"
     id="text94680"
     style="font-size:56px;line-height:1.25;-inkscape-font-specification:'sans-serif, Normal'"><path
       d="m 108.28595,256.78317 q 2.685,0.93686 4.79532,2.77371 2.11033,1.83684 3.19391,4.12632 1.15861,2.48942 1.23884,5.41346 0.0634,2.88922 -1.11666,6.27128 -1.09901,3.14971 -2.7882,5.83284 -1.66336,2.69215 -3.29543,4.3816 l -5.44744,-1.90075 0.12611,-0.36144 q 2.08118,-1.64858 4.02733,-4.15518 1.92033,-2.5156 2.87521,-5.25223 0.63958,-1.83303 0.71778,-3.71713 0.0872,-1.90993 -0.73522,-3.70284 -0.71378,-1.52332 -2.06464,-2.63179 -1.34184,-1.1343 -3.38141,-1.84595 -1.98793,-0.69364 -3.59947,-0.47401 -1.60253,0.19381 -2.852068,1.11896 -1.449486,1.00018 -2.512366,2.80136 -1.079688,1.76634 -1.908449,4.14153 -0.792728,2.27192 -1.221599,4.49704 -0.419863,2.1993 -0.641543,3.83061 l -19.801851,-6.90934 8.071412,-23.13228 4.518023,1.57645 -6.332815,18.14954 10.223641,3.56728 q 0.284087,-1.14618 0.637824,-2.32597 0.353738,-1.17979 0.651011,-2.03176 1.090001,-3.12389 2.451916,-5.28409 1.336099,-2.16921 3.363225,-3.66289 2.140612,-1.56993 4.783079,-1.92217 2.64247,-0.35224 6.02453,0.82784 z"
       id="path99137" /><path
       d="m 127.93429,245.26588 -2.79423,5.90767 -7.04471,-3.33203 2.79423,-5.90767 z"
       id="path99139" /><path
       d="m 132.59484,171.20521 q 3.67958,-0.35925 7.64228,0.9597 3.97905,1.29704 8.01163,4.30566 4.03257,3.00863 6.41477,6.49171 2.37663,3.44482 3.04724,6.98143 0.70922,3.66776 -0.23331,7.26311 -0.92618,3.57343 -3.55872,7.10193 -2.56714,3.44084 -5.81609,5.41776 -3.2326,1.95501 -6.87391,2.30869 -3.64131,0.35369 -7.59845,-0.927 -3.94078,-1.3026 -7.99527,-4.32757 -3.98875,-2.97593 -6.35981,-6.38248 -2.39299,-3.4229 -3.14604,-7.12336 -0.70888,-3.53105 0.27714,-7.23041 1.00237,-3.72128 3.52046,-7.09637 2.61619,-3.50659 5.85436,-5.42333 3.23259,-1.955 6.81372,-2.31947 z m 12.28555,9.78009 q -6.35568,-4.74185 -11.92218,-4.45989 -5.58841,0.2656 -9.26744,5.19674 -3.71172,4.97497 -2.37463,10.40756 1.33153,5.39433 7.68722,10.13619 6.42143,4.7909 11.99872,4.44876 5.55536,-0.35849 9.18533,-5.22388 3.62998,-4.86539 2.37498,-10.27085 -1.26056,-5.44372 -7.682,-10.23463 z"
       id="path99141" /><path
       d="m 184.97242,165.46618 q -0.93747,2.69105 -2.0897,4.82216 -1.13297,2.11171 -2.96299,3.95531 -2.33087,2.34816 -4.95569,3.63397 -2.64422,1.26655 -5.42844,1.27684 -2.80348,0.0297 -5.7087,-1.31302 -2.90522,-1.34272 -5.75795,-4.17444 -5.31731,-5.27816 -5.45518,-11.19419 -0.11861,-5.93543 4.63944,-10.72878 1.84928,-1.863 4.14548,-3.12827 2.31547,-1.28467 4.55559,-2.02768 l 4.05591,4.02605 -0.19263,0.19406 q -2.95687,0.37829 -5.42773,1.47019 -2.45159,1.07249 -4.12751,2.76083 -3.08214,3.105 -2.77775,6.99023 0.30424,3.84656 4.34074,7.85334 3.92007,3.8912 7.76905,4.24434 3.84885,0.31448 7.00804,-2.86815 1.09801,-1.10616 1.94346,-2.54008 0.84544,-1.43392 1.28507,-2.80833 0.38227,-1.20019 0.6294,-2.34187 0.22774,-1.16095 0.30236,-1.89596 l 0.19263,-0.19406 z"
       id="path99143" /><path
       d="m 207.77664,146.89296 q -1.23197,2.5696 -2.61486,4.5588 -1.36158,1.97206 -3.38593,3.59988 -2.57839,2.07334 -5.33032,3.05816 -2.76907,0.96351 -5.53703,0.66298 -2.78928,-0.28339 -5.52649,-1.94198 -2.7372,-1.65859 -5.25605,-4.79101 -4.69499,-5.83866 -4.1717,-11.73311 0.5446,-5.91158 5.80792,-10.14393 2.04566,-1.64496 4.46873,-2.64603 2.44438,-1.01822 4.75344,-1.50656 l 3.58121,4.45358 -0.21309,0.17135 q -2.98062,0.0459 -5.5579,0.8552 -2.55598,0.79216 -4.40986,2.28291 -3.40944,2.7416 -3.54059,6.63652 -0.12699,3.85648 3.43709,8.28875 3.46127,4.30441 7.24679,5.08494 3.7897,0.74209 7.28437,-2.06805 1.21462,-0.9767 2.21482,-2.30729 1.00021,-1.3306 1.59049,-2.64736 0.51383,-1.15003 0.88685,-2.25699 0.35588,-1.12828 0.51208,-1.85037 l 0.21309,-0.17135 z"
       id="path99145" /><path
       d="m 235.93405,131.27346 -4.37304,2.70232 -1.78238,-2.88435 q -1.13173,3.1101 -2.58046,5.29107 -1.44874,2.18098 -3.89113,3.69025 -4.09391,2.52983 -7.9115,1.44958 -3.83196,-1.10352 -6.82176,-5.94178 l -10.42117,-16.86413 4.37304,-2.70232 9.14189,14.79391 q 1.22179,1.97718 2.28469,3.2811 1.04853,1.28066 2.2714,1.90715 1.2605,0.63538 2.5482,0.48251 1.28769,-0.15286 3.19508,-1.33154 1.69805,-1.0493 3.15227,-3.16938 1.47748,-2.13445 2.37398,-4.5849 l -11.98795,-19.39956 4.37304,-2.70232 z"
       id="path99147" /><path
       d="m 263.1158,101.33247 q 1.51143,3.39775 1.79289,6.6543 0.27034,3.23157 -0.63663,5.96933 -0.82652,2.58226 -2.61938,4.60679 -1.77899,1.98843 -4.27733,3.09977 -2.17356,0.96687 -4.15854,1.28124 -1.96,0.30325 -4.22833,0.11519 l 5.20108,11.69226 -4.69689,2.08932 -16.99241,-38.199693 4.69689,-2.089322 1.30027,2.923063 q 1.17361,-2.407463 3.03031,-4.490316 1.87057,-2.118949 4.51881,-3.296971 5.04666,-2.24491 9.54516,0.332855 4.51237,2.541668 7.5241,9.312184 z m -4.79122,2.28092 q -2.24491,-5.046658 -5.08011,-6.778177 -2.8352,-1.731519 -6.40783,-0.142301 -2.02366,0.900187 -3.68334,2.685907 -1.65967,1.785721 -2.89996,4.043281 l 7.03479,15.81453 q 2.39876,0.0103 3.96729,-0.29835 1.59351,-0.3198 3.41731,-1.13108 3.9224,-1.7448 4.94292,-5.37103 1.02052,-3.62622 -1.29107,-8.82278 z"
       id="path99149" /><path
       d="m 271.12604,77.681925 -5.49954,1.8327 -1.68574,-5.058541 5.49955,-1.832701 z m 10.96154,33.931115 -4.87695,1.62522 -9.65625,-28.976361 4.87695,-1.625225 z"
       id="path99151" /><path
       d="m 313.35905,88.323624 -21.92566,5.068627 q 0.63434,2.744039 1.93444,4.604487 1.29394,1.833807 3.03434,2.806652 1.68096,0.95852 3.72029,1.16064 2.06597,0.19596 4.35711,-0.33369 3.03709,-0.70209 5.82368,-2.609199 2.80707,-1.939904 3.8415,-3.413892 l 0.26642,-0.06159 1.26253,5.461438 q -2.28456,1.65072 -4.75574,2.97975 -2.47119,1.32902 -5.37508,2.00032 -7.40624,1.71213 -12.48607,-1.32329 -5.08598,-3.06205 -6.79195,-10.441648 -1.68749,-7.299675 1.29049,-12.506549 3.00462,-5.213033 9.50506,-6.715761 6.0209,-1.391871 10.08407,1.373397 4.08981,2.759109 5.58638,9.232908 z m -5.76218,-2.709279 q -0.93814,-3.936732 -3.40844,-5.638919 -2.44366,-1.708347 -6.43983,-0.784539 -4.02281,0.929967 -5.87239,3.855314 -1.82294,2.919189 -1.32968,6.509725 z"
       id="path99153" /><path
       d="m 345.20663,90.603923 q 0.43955,4.16044 -2.73235,7.190149 -3.1447,3.026838 -9.09984,3.655988 -3.37186,0.35624 -6.28318,-0.13356 -2.88701,-0.51987 -4.89103,-1.27051 l -0.60617,-5.737596 0.27193,-0.02873 q 2.6126,1.566208 5.69149,2.340763 3.07601,0.747362 5.79526,0.460077 3.37185,-0.356235 5.16041,-1.645031 1.78855,-1.288797 1.54149,-3.627344 -0.18961,-1.794699 -1.3206,-2.610073 -1.13099,-0.815373 -4.13672,-1.157723 -1.11355,-0.129817 -2.91553,-0.269391 -1.77479,-0.142446 -3.25621,-0.370878 -4.10932,-0.638194 -6.01072,-2.499508 -1.87707,-1.891379 -2.19309,-4.882545 -0.19822,-1.876276 0.38792,-3.615453 0.61334,-1.742051 2.0526,-3.213912 1.38775,-1.438924 3.64873,-2.420184 2.2853,-1.011327 5.19489,-1.318722 2.71924,-0.287286 5.56469,0.09949 2.86976,0.356714 4.8194,1.113094 l 0.57744,5.465675 -0.27192,0.02873 q -2.11012,-1.234353 -5.01436,-1.917375 -2.90711,-0.710215 -5.59916,-0.425802 -2.80082,0.295904 -4.61657,1.587573 -1.81862,1.264477 -1.59453,3.385485 0.19822,1.876277 1.46805,2.704479 1.24263,0.831074 3.86192,1.159259 1.44848,0.17692 3.22327,0.319366 1.80198,0.139573 2.99998,0.287965 3.64839,0.439428 5.78877,2.220501 2.14325,1.808266 2.49374,5.12574 z"
       id="path99155" /><path
       d="m 389.03045,100.33788 q -1.473,0.27757 -3.2089,0.39911 -1.70862,0.1235 -3.04499,0.0271 -4.66367,-0.33635 -6.91,-3.020517 -2.24633,-2.684168 -1.84703,-8.220569 l 1.16837,-16.20011 -3.46366,-0.249804 0.31078,-4.30912 3.46366,0.249804 0.6314,-8.754604 5.1273,0.369789 -0.63139,8.754604 10.58189,0.763182 -0.31078,4.30912 -10.58189,-0.763181 -1.00119,13.881912 q -0.17309,2.400016 -0.16234,3.771529 0.0127,1.344241 0.58268,2.564183 0.52132,1.13419 1.52032,1.72712 1.02824,0.567624 3.1828,0.723014 1.25455,0.09048 2.64377,-0.16572 1.39118,-0.283472 2.00889,-0.485655 l 0.27273,0.01967 z"
       id="path99157" /><path
       d="m 420.31617,105.91906 -5.0542,-0.93865 3.17542,-17.098257 q 0.38445,-2.070072 0.47701,-3.91624 0.0976,-1.873051 -0.35794,-3.014472 -0.4624,-1.253951 -1.6261,-2.026294 -1.1587,-0.799227 -3.175,-1.173687 -2.07008,-0.384445 -4.51806,0.217753 -2.44799,0.602199 -4.81264,1.803913 l -4.164,22.421304 -5.0542,-0.93865 7.7688,-41.831591 5.0542,0.938647 -2.81094,15.135725 q 2.73027,-1.52317 5.46207,-2.156093 2.73181,-0.632923 5.39333,-0.138636 4.86602,0.903698 6.87579,4.308376 2.00977,3.404679 0.98624,8.915911 z"
       id="path99159" /><path
       d="m 458.79204,102.37707 -21.39317,-6.982696 q -0.8739,2.677396 -0.72138,4.941966 0.161,2.23857 1.14895,3.97044 0.94444,1.68891 2.58639,2.91516 1.66795,1.23474 3.90345,1.96441 2.96333,0.96722 6.33446,0.7732 3.4056,-0.21154 5.05263,-0.93954 l 0.25994,0.0848 -1.73931,5.3288 q -2.80882,0.23374 -5.61132,0.0956 -2.8025,-0.13812 -5.63586,-1.06293 -7.22637,-2.35867 -10.00879,-7.58137 -2.77393,-5.24868 -0.42374,-12.449059 2.32474,-7.122392 7.56386,-10.043264 5.26512,-2.912388 11.60768,-0.842184 5.87468,1.917485 7.92601,6.383813 2.07734,4.474812 0.0156,10.791386 z m -3.53516,-5.295805 q 1.2297,-3.855616 -0.007,-6.58899 -1.21033,-2.724889 -5.10945,-3.997556 -3.92511,-1.281151 -7.0197,0.268726 -3.06859,1.558362 -4.50047,4.887774 z"
       id="path99161" /><path
       d="m 502.48339,137.12584 q -3.8854,6.72374 -8.75906,8.10768 -4.87366,1.38395 -11.21859,-2.28256 -2.10709,-1.21761 -3.94162,-2.68827 -1.82454,-1.4333 -3.45124,-3.09967 l 2.62675,-4.54562 0.23675,0.13681 q 0.8428,1.05547 2.85461,3.03913 1.99812,2.00732 4.36563,3.37542 2.27282,1.31338 4.07901,1.63075 1.8062,0.31737 3.19575,-0.17447 1.36218,-0.4445 2.46976,-1.54141 1.10759,-1.09692 2.03789,-2.70683 l 1.39546,-2.41486 q -2.94269,0.44703 -5.2545,0.18486 -2.27446,-0.27215 -5.11547,-1.91387 -4.73503,-2.7362 -5.55863,-7.75977 -0.78624,-5.03357 2.81186,-11.26013 1.97006,-3.40922 4.33989,-5.32419 2.40718,-1.92497 5.10419,-2.76661 2.51024,-0.79166 5.24558,-0.44266 2.74903,0.32533 4.92714,1.58398 2.29648,1.32705 3.56175,2.68982 1.30262,1.35277 2.48366,3.29849 l 0.94079,-0.97224 4.16682,2.40786 z m -1.98834,-6.83354 8.33172,-14.41815 q -1.31048,-1.83103 -2.65783,-3.05174 -1.30999,-1.23071 -2.8252,-2.1063 -3.66964,-2.12055 -7.19955,-0.87595 -3.52991,1.24461 -6.23875,5.93228 -2.57202,4.45092 -2.33652,7.65036 0.2355,3.19943 3.85779,5.29262 1.94136,1.12184 4.30683,1.50975 2.40283,0.37792 4.76151,0.0671 z"
       id="path99163" /><path
       d="m 539.20722,137.28917 -0.21959,-0.16294 q -0.75934,-0.90393 -1.57252,-1.64351 -0.77493,-0.74525 -1.96072,-1.62511 -1.91042,-1.41756 -4.32455,-1.88095 -2.39784,-0.48535 -5.03868,-0.36789 l -12.92092,17.41345 -4.12828,-3.06322 18.20009,-24.52814 4.12828,3.06322 -2.68846,3.62322 q 3.92583,-0.15141 6.39521,0.42108 2.50763,0.56682 4.46198,2.01696 1.07599,0.7984 1.5102,1.22273 0.45051,0.40238 1.30265,1.27302 z"
       id="path99165" /><path
       d="m 556.82228,167.07005 -16.47815,-15.32632 q -1.91812,2.06227 -2.73137,4.18127 -0.79462,2.09897 -0.62594,4.08567 0.14727,1.92943 1.1219,3.73215 0.99464,1.82135 2.71654,3.42289 2.28251,2.12297 5.42306,3.36356 3.1792,1.2392 4.97967,1.27073 l 0.20022,0.18623 -3.81761,4.10452 q -2.647,-0.96826 -5.13199,-2.27129 -2.48499,-1.30304 -4.6674,-3.33289 -5.56613,-5.17706 -5.89619,-11.08548 -0.31145,-5.92844 4.84699,-11.47455 5.10257,-5.48604 11.08408,-5.93484 6.00153,-0.43017 10.88691,4.11372 4.52499,4.20869 4.50951,9.12354 0.005,4.93348 -4.52073,9.79884 z m -0.98239,-6.29109 q 2.73611,-2.98189 2.7629,-5.98174 0.0468,-2.98123 -2.9565,-5.77461 -3.02333,-2.812 -6.48272,-2.70606 -3.43936,0.12456 -6.1378,2.544 z"
       id="path99167" /><path
       d="m 567.21401,201.908 -3.26625,-3.93412 2.50353,-2.07852 q -0.79431,-0.22902 -2.19755,-0.59219 -1.36474,-0.3596 -2.44209,-0.88672 -1.3048,-0.58706 -2.68583,-1.60839 -1.40207,-1.00385 -2.83433,-2.72897 -2.63745,-3.17675 -2.36764,-7.1324 0.26982,-3.95565 3.53072,-6.66297 2.67183,-2.21825 5.25599,-2.44459 2.62267,-0.22277 5.33351,1.11608 2.7283,1.35989 5.56263,4.08886 2.83433,2.72898 5.86715,6.03949 l 0.6101,-0.50653 q 1.34644,-1.11786 1.8283,-2.33533 0.49934,-1.19643 0.27065,-2.49923 -0.21478,-1.24325 -1.02461,-2.56112 -0.80982,-1.31786 -1.87528,-2.60118 -1.29253,-1.55682 -3.30274,-3.12195 -1.98918,-1.5826 -4.46185,-2.97703 l -0.17467,-0.21038 4.01827,-3.33611 q 1.27624,0.89509 3.47144,2.76865 2.19521,1.87356 3.95933,3.99841 2.06106,2.48249 3.15989,4.66213 1.13733,2.18321 1.2664,4.35058 0.13265,2.12886 -0.82673,4.09817 -0.95938,1.96932 -3.23149,3.8557 z m 2.51922,-8.73742 6.54283,-5.4321 q -1.60731,-1.72194 -3.86128,-4.00873 -2.2365,-2.26575 -3.82395,-3.36447 -1.89867,-1.30235 -3.80286,-1.49839 -1.88316,-0.21351 -3.67139,1.27115 -2.01966,1.67679 -2.03746,3.75286 0.003,2.0586 2.08176,4.56213 1.72919,2.08276 3.96089,3.14416 2.25274,1.04392 4.61146,1.57339 z"
       id="path99169" /><path
       d="m 581.88067,223.10642 q -1.12107,-0.99499 -2.27964,-2.29338 -1.14344,-1.27561 -1.88515,-2.39143 -2.58842,-3.89397 -1.8406,-7.31326 0.74781,-3.41929 5.37048,-6.49209 l 13.52643,-8.99135 -1.92239,-2.89201 3.59793,-2.39164 1.9224,2.89201 7.30973,-4.85896 2.84575,4.28109 -7.30974,4.85897 5.87314,8.83544 -3.59794,2.39164 -5.87313,-8.83544 -11.59083,7.7047 q -2.00392,1.33206 -3.08196,2.17999 -1.05527,0.8328 -1.67117,2.03021 -0.57785,1.10646 -0.43531,2.25939 0.18045,1.16056 1.37626,2.95953 0.6963,1.0475 1.74919,1.98931 1.07565,0.92667 1.61361,1.29142 l 0.15137,0.22771 z"
       id="path99171" /><path
       d="m 609.79985,244.40577 -10.4198,-19.94627 q -2.49631,1.30406 -3.97,3.03026 -1.44946,1.71353 -1.95335,3.64265 -0.50497,1.86799 -0.18772,3.89261 0.32991,2.04886 1.41873,4.13316 1.44333,2.76291 3.98994,4.98032 2.5835,2.22899 4.27027,2.85948 l 0.1266,0.24236 -4.96839,2.59545 q -2.17221,-1.79599 -4.08,-3.85352 -1.90779,-2.05753 -3.28781,-4.69926 -3.51968,-6.73762 -1.85935,-12.41756 1.68456,-5.69259 8.39795,-9.19962 6.64068,-3.46905 12.42913,-1.89626 5.80112,1.59703 8.89034,7.51063 2.86133,5.47735 1.20678,10.10536 -1.64188,4.65226 -7.53124,7.72882 z m 1.17307,-6.25834 q 3.57428,-1.89803 4.6005,-4.71702 1.03889,-2.79475 -0.86022,-6.43016 -1.91178,-3.65964 -5.20825,-4.71408 -3.28382,-1.0302 -6.63491,0.35019 z"
       id="path99173" /><path
       d="m 615.67501,275.74262 q -3.9113,1.48465 -7.64894,-0.81102 -3.72793,-2.27012 -5.85302,-7.86864 -1.20325,-3.16995 -1.47107,-6.11001 -0.23255,-2.92421 -0.0171,-5.05332 l 5.39402,-2.04746 0.097,0.25564 q -0.84917,2.92534 -0.81403,6.09997 0.0607,3.16492 1.03106,5.72132 1.20325,3.16995 2.90506,4.57128 1.70182,1.40134 3.90033,0.56683 1.68722,-0.64044 2.18766,-1.9418 0.50044,-1.30135 0.066,-4.29516 -0.15807,-1.10989 -0.48204,-2.888 -0.31426,-1.75254 -0.47066,-3.24328 -0.42943,-4.13636 0.88625,-6.4491 1.35094,-2.29688 4.16299,-3.36428 1.76392,-0.66955 3.59503,-0.54568 1.84081,0.14944 3.63069,1.16638 1.74491,0.97551 3.26966,2.91202 1.56,1.95237 2.59829,4.68773 0.97036,2.5564 1.32103,5.40652 0.38594,2.86599 0.15104,4.94397 l -5.13837,1.95043 -0.097,-0.25564 q 0.65624,-2.35491 0.57707,-5.33733 -0.0536,-2.99213 -1.01426,-5.52297 -0.99948,-2.6331 -2.71099,-4.06 -1.68596,-1.43661 -3.67995,-0.67973 -1.76392,0.66955 -2.24141,2.10843 -0.48719,1.41332 -0.13746,4.02982 0.19782,1.44577 0.51209,3.19832 0.32396,1.7781 0.48558,2.97439 0.50425,3.64 -0.67297,6.16341 -1.20278,2.53312 -4.32159,3.71696 z"
       id="path99175" /><path
       d="m 613.85239,301.20067 q -0.74959,-1.29803 -1.43899,-2.89579 -0.68222,-1.57138 -1.03371,-2.8643 -1.22663,-4.51201 0.56246,-7.52032 1.7891,-3.0083 7.14547,-4.46448 l 15.67332,-4.26094 -0.91101,-3.35103 4.169,-1.13338 0.91101,3.35103 8.46993,-2.30263 1.34858,4.96058 -8.46993,2.30263 2.78324,10.23779 -4.169,1.13338 -2.78324,-10.23779 -13.43051,3.65121 q -2.32197,0.63125 -3.61258,1.09546 -1.26422,0.45703 -2.22666,1.39875 -0.89763,0.86743 -1.12638,2.00639 -0.1952,1.15818 0.3715,3.24268 0.32997,1.21375 1.03165,2.43981 0.72807,1.21887 1.12336,1.73481 l 0.0717,0.26386 z"
       id="path99177" /></g></g><g
   inkscape:groupmode="layer"
   id="layer2"
   inkscape:label="white"
   style="display:none"><g
     class="st20"
     id="g1478">
	<g
   id="g1414">
		
			<linearGradient
   id="path3302_5_"
   gradientUnits="userSpaceOnUse"
   x1="396.25711"
   y1="-13.6055"
   x2="322.9931"
   y2="-18.4254"
   gradientTransform="translate(0,252.6096)">
			<stop
   offset="0"
   style="stop-color:#FFFFFF"
   id="stop1354" />
			<stop
   offset="1"
   style="stop-color:#D8D8D8"
   id="stop1356" />
		</linearGradient>
		<path
   id="path3302_2_"
   class="st21"
   d="m 331.5,114.8 c 34.3,-12.7 47.3,10.7 76.8,4.7 l -50.1,242.2 z" />
		
			<linearGradient
   id="path3304_5_"
   gradientUnits="userSpaceOnUse"
   x1="468.2041"
   y1="31.6611"
   x2="408.6066"
   y2="-17.363001"
   gradientTransform="translate(0,252.6096)">
			<stop
   offset="0"
   style="stop-color:#FFFFFF"
   id="stop1360" />
			<stop
   offset="1"
   style="stop-color:#D8D8D8"
   id="stop1362" />
		</linearGradient>
		<path
   id="path3304_2_"
   class="st22"
   d="m 485.4,142.4 c 35.2,9.8 32.3,37.5 59.7,49.8 L 361.2,358.8 Z" />
		
			<linearGradient
   id="path3306_5_"
   gradientUnits="userSpaceOnUse"
   x1="490.23071"
   y1="107.4641"
   x2="472.0347"
   y2="35.6376"
   gradientTransform="translate(0,252.6096)">
			<stop
   offset="0"
   style="stop-color:#FFFFFF"
   id="stop1366" />
			<stop
   offset="1"
   style="stop-color:#D8D8D8"
   id="stop1368" />
		</linearGradient>
		<path
   id="path3306_2_"
   class="st23"
   d="m 587.4,257.4 c 22.7,28.4 6.2,48.3 21,74.1 L 361,359 Z" />
		
			<linearGradient
   id="path3310_5_"
   gradientUnits="userSpaceOnUse"
   x1="465.13171"
   y1="180.78439"
   x2="493.8765"
   y2="111.7968"
   gradientTransform="translate(0,252.6096)">
			<stop
   offset="0"
   style="stop-color:#FFFFFF"
   id="stop1372" />
			<stop
   offset="1"
   style="stop-color:#D8D8D8"
   id="stop1374" />
		</linearGradient>
		<path
   id="path3310_2_"
   class="st24"
   d="m 604.7,408.8 c 1.5,36.3 -24.2,42.7 -27.7,72.4 L 360.6,359 Z" />
		
			<linearGradient
   id="path3312_5_"
   gradientUnits="userSpaceOnUse"
   x1="397.4299"
   y1="231.8116"
   x2="458.02921"
   y2="190.4502"
   gradientTransform="translate(0,252.6096)">
			<stop
   offset="0"
   style="stop-color:#FFFFFF"
   id="stop1378" />
			<stop
   offset="1"
   style="stop-color:#D8D8D8"
   id="stop1380" />
		</linearGradient>
		<path
   id="path3312_2_"
   class="st25"
   d="m 527.8,540.9 c -20.3,30.2 -44.4,21 -64.7,43.1 L 360.2,358.8 Z" />
		
			<linearGradient
   id="path3314_5_"
   gradientUnits="userSpaceOnUse"
   x1="323.90659"
   y1="227.9371"
   x2="399.09619"
   y2="235.6488"
   gradientTransform="translate(0,252.6096)">
			<stop
   offset="0"
   style="stop-color:#FFFFFF"
   id="stop1384" />
			<stop
   offset="1"
   style="stop-color:#D8D8D8"
   id="stop1386" />
		</linearGradient>
		<path
   id="path3314_2_"
   class="st26"
   d="m 387.7,607 c -34.3,12.7 -48.2,-12.3 -77.6,-6.3 l 50.1,-242.2 z" />
		
			<linearGradient
   id="path3316_5_"
   gradientUnits="userSpaceOnUse"
   x1="259.379"
   y1="183.4431"
   x2="314.16089"
   y2="232.4586"
   gradientTransform="translate(0,252.6096)">
			<stop
   offset="0"
   style="stop-color:#FFFFFF"
   id="stop1390" />
			<stop
   offset="1"
   style="stop-color:#D8D8D8"
   id="stop1392" />
		</linearGradient>
		<path
   id="path3316_2_"
   class="st27"
   d="m 235.5,574.8 c -35.2,-9.8 -31.8,-37.7 -59.2,-50 L 360.2,358.2 Z" />
		
			<linearGradient
   id="path3318_5_"
   gradientUnits="userSpaceOnUse"
   x1="229.8683"
   y1="101.032"
   x2="249.9808"
   y2="173.8203"
   gradientTransform="translate(0,252.6096)">
			<stop
   offset="0"
   style="stop-color:#FFFFFF"
   id="stop1396" />
			<stop
   offset="1"
   style="stop-color:#D8D8D8"
   id="stop1398" />
		</linearGradient>
		<path
   id="path3318_2_"
   class="st28"
   d="m 134.9,459.1 c -22.7,-28.4 -6.8,-47.7 -21.7,-73.7 L 360.6,358 Z" />
		
			<linearGradient
   id="path3320_5_"
   gradientUnits="userSpaceOnUse"
   x1="257.0575"
   y1="26.767599"
   x2="229.2776"
   y2="99.57"
   gradientTransform="translate(0,252.6096)">
			<stop
   offset="0"
   style="stop-color:#FFFFFF"
   id="stop1402" />
			<stop
   offset="1"
   style="stop-color:#D8D8D8"
   id="stop1404" />
		</linearGradient>
		<path
   id="path3320_2_"
   class="st29"
   d="m 117.5,308.7 c -1.5,-36.3 23.7,-43.3 27,-73.1 L 361,357.8 Z" />
		
			<linearGradient
   id="path3322_5_"
   gradientUnits="userSpaceOnUse"
   x1="321.81561"
   y1="-18.138"
   x2="256.3974"
   y2="24.191601"
   gradientTransform="translate(0,252.6096)">
			<stop
   offset="0"
   style="stop-color:#FFFFFF"
   id="stop1408" />
			<stop
   offset="1"
   style="stop-color:#D8D8D8"
   id="stop1410" />
		</linearGradient>
		<path
   id="path3322_2_"
   class="st30"
   d="m 192.2,175.1 c 20.3,-30.2 46.1,-20.2 66.3,-42.3 L 361.3,358 Z" />
	</g>
	<g
   id="g1476">
		
			<linearGradient
   id="path3308_5_"
   gradientUnits="userSpaceOnUse"
   x1="361"
   y1="579.33002"
   x2="587.70001"
   y2="579.33002"
   gradientTransform="matrix(1,0,0,-1,0,847.28)">
			<stop
   offset="0"
   style="stop-color:#FFFFFF"
   id="stop1416" />
			<stop
   offset="1"
   style="stop-color:#D8D8D8"
   id="stop1418" />
		</linearGradient>
		<path
   id="path3308_2_"
   class="st31"
   d="m 527.9,176.2 c 30.4,20.1 37.6,61.3 59.8,81.3 L 361,359.7 Z" />
		
			<linearGradient
   id="path3324_5_"
   gradientUnits="userSpaceOnUse"
   x1="237"
   y1="611.13"
   x2="361.10001"
   y2="611.13"
   gradientTransform="matrix(1,0,0,-1,0,847.28)">
			<stop
   offset="0"
   style="stop-color:#FFFFFF"
   id="stop1422" />
			<stop
   offset="1"
   style="stop-color:#D8D8D8"
   id="stop1424" />
		</linearGradient>
		<path
   id="path3324_2_"
   class="st32"
   d="m 237,144.7 c 28.7,-22.5 70.4,-16.5 96.4,-31.4 L 361.1,359 Z" />
		
			<linearGradient
   id="path3326_5_"
   gradientUnits="userSpaceOnUse"
   x1="361.10001"
   y1="610.75787"
   x2="484.10001"
   y2="610.75787"
   gradientTransform="matrix(1,0,0,-1,0,847.28)">
			<stop
   offset="0"
   style="stop-color:#FFFFFF"
   id="stop1428" />
			<stop
   offset="1"
   style="stop-color:#D8D8D8"
   id="stop1430" />
		</linearGradient>
		<path
   id="path3326_2_"
   class="st33"
   d="m 387.6,113.6 c 36.6,-1.5 66.7,27.7 96.5,31 l -123,214.9 z" />
		
			<linearGradient
   id="path3328_5_"
   gradientUnits="userSpaceOnUse"
   x1="360.60001"
   y1="488.03"
   x2="609.17572"
   y2="488.03"
   gradientTransform="matrix(1,0,0,-1,0,847.28)">
			<stop
   offset="0"
   style="stop-color:#FFFFFF"
   id="stop1434" />
			<stop
   offset="1"
   style="stop-color:#D8D8D8"
   id="stop1436" />
		</linearGradient>
		<path
   id="path3328_2_"
   class="st34"
   d="m 604.7,308.9 c 12.7,33.9 -6.3,71.4 -0.2,100.7 L 360.6,359.8 Z" />
		
			<linearGradient
   id="path3330_5_"
   gradientUnits="userSpaceOnUse"
   x1="360.20001"
   y1="396.28"
   x2="587.5"
   y2="396.28"
   gradientTransform="matrix(1,0,0,-1,0,847.28)">
			<stop
   offset="0"
   style="stop-color:#FFFFFF"
   id="stop1440" />
			<stop
   offset="1"
   style="stop-color:#D8D8D8"
   id="stop1442" />
		</linearGradient>
		<path
   id="path3330_2_"
   class="st35"
   d="M 587.5,460.6 C 577.7,495.5 540.4,515 528,542.3 L 360.2,359.7 Z" />
		
			<linearGradient
   id="path3332_5_"
   gradientUnits="userSpaceOnUse"
   x1="360"
   y1="365.03"
   x2="484.20001"
   y2="365.03"
   gradientTransform="matrix(1,0,0,-1,0,847.28)">
			<stop
   offset="0"
   style="stop-color:#FFFFFF"
   id="stop1446" />
			<stop
   offset="1"
   style="stop-color:#D8D8D8"
   id="stop1448" />
		</linearGradient>
		<path
   id="path3332_2_"
   class="st36"
   d="m 484.2,573.7 c -28.7,22.5 -70.4,16.5 -96.4,31.4 L 360,359.4 Z" />
		
			<linearGradient
   id="path3334_5_"
   gradientUnits="userSpaceOnUse"
   x1="237.10001"
   y1="365.45209"
   x2="360.10001"
   y2="365.45209"
   gradientTransform="matrix(1,0,0,-1,0,847.28)">
			<stop
   offset="0"
   style="stop-color:#FFFFFF"
   id="stop1452" />
			<stop
   offset="1"
   style="stop-color:#D8D8D8"
   id="stop1454" />
		</linearGradient>
		<path
   id="path3334_2_"
   class="st37"
   d="m 333.6,604.8 c -36.6,1.5 -66.7,-27.7 -96.5,-31 l 123,-215 z" />
		
			<linearGradient
   id="path3336_5_"
   gradientUnits="userSpaceOnUse"
   x1="133.5"
   y1="396.92999"
   x2="360.20001"
   y2="396.92999"
   gradientTransform="matrix(1,0,0,-1,0,847.28)">
			<stop
   offset="0"
   style="stop-color:#FFFFFF"
   id="stop1458" />
			<stop
   offset="1"
   style="stop-color:#D8D8D8"
   id="stop1460" />
		</linearGradient>
		<path
   id="path3336_2_"
   class="st38"
   d="M 193.3,542.1 C 162.9,522 155.7,480.8 133.5,460.8 L 360.2,358.6 Z" />
		
			<linearGradient
   id="path3338_5_"
   gradientUnits="userSpaceOnUse"
   x1="112.4378"
   y1="488.17999"
   x2="360.60001"
   y2="488.17999"
   gradientTransform="matrix(1,0,0,-1,0,847.28)">
			<stop
   offset="0"
   style="stop-color:#FFFFFF"
   id="stop1464" />
			<stop
   offset="1"
   style="stop-color:#D8D8D8"
   id="stop1466" />
		</linearGradient>
		<path
   id="path3338_2_"
   class="st39"
   d="m 117,409.5 c -12.7,-33.9 5.8,-71.6 -0.3,-100.8 l 243.9,49.8 z" />
		
			<linearGradient
   id="path3340_5_"
   gradientUnits="userSpaceOnUse"
   x1="133.7"
   y1="579.88"
   x2="361"
   y2="579.88"
   gradientTransform="matrix(1,0,0,-1,0,847.28)">
			<stop
   offset="0"
   style="stop-color:#FFFFFF"
   id="stop1470" />
			<stop
   offset="1"
   style="stop-color:#D8D8D8"
   id="stop1472" />
		</linearGradient>
		<path
   id="path3340_2_"
   class="st40"
   d="m 133.7,257.8 c 9.8,-34.9 47.1,-54.4 59.5,-81.7 L 361,358.7 Z" />
	</g>
</g><g
     aria-label="won a race "
     id="text69141"
     style="font-size:40px;line-height:1.25"><path
       d="m 276.28545,202.0325 7.08322,21.40296 -2.85296,1.84663 -13.84337,-11.0713 4.46471,17.14184 -2.83655,1.83602 -16.67504,-15.19446 3.21367,-2.08011 12.54133,12.00714 -4.60554,-17.14375 2.54142,-1.64499 13.86944,11.1475 -5.99923,-16.24166 z"
       id="path92791" /><path
       d="m 306.1023,201.12935 q 2.04952,4.9224 0.71139,8.82229 -1.33813,3.8999 -5.57536,5.66415 -4.27329,1.77926 -7.98377,-0.0186 -3.69245,-1.80533 -5.74198,-6.72773 -2.04952,-4.92239 -0.72942,-8.81478 1.33062,-3.91793 5.60391,-5.6972 4.23723,-1.76424 7.95522,0.0516 3.71048,1.79782 5.76001,6.72022 z m -3.49797,1.45644 q -1.62911,-3.91268 -3.95001,-5.16777 -2.3284,-1.27313 -5.05104,-0.13951 -2.75871,1.14863 -3.49554,3.69803 -0.7263,2.52385 0.90281,6.43652 1.57656,3.78646 3.92748,5.11368 2.34342,1.3092 5.0841,0.16807 2.70461,-1.12612 3.43393,-3.69354 0.73984,-2.59296 -0.85173,-6.41548 z"
       id="path92793" /><path
       d="m 333.48294,205.20751 -3.56917,0.86237 -2.91737,-12.07444 q -0.3532,-1.46184 -0.8314,-2.69255 -0.48278,-1.24969 -1.11273,-1.86103 -0.66728,-0.68269 -1.65131,-0.8468 -0.98863,-0.18309 -2.4125,0.16094 -1.46184,0.3532 -2.88227,1.45994 -1.42043,1.10674 -2.61163,2.58006 l 3.8256,15.83345 -3.56917,0.86237 -5.12374,-21.2062 3.56917,-0.86237 0.5688,2.35414 q 1.33582,-1.78956 2.93233,-2.99913 1.59652,-1.20957 3.47603,-1.66368 3.43628,-0.83026 5.73984,0.80333 2.30356,1.63359 3.24391,5.52551 z"
       id="path92795" /><path
       d="m 371.47661,203.02637 -3.65223,-0.0292 0.0186,-2.32414 q -0.49093,0.32811 -1.33559,0.92684 -0.82498,0.57935 -1.60902,0.92464 -0.92153,0.44186 -2.11525,0.72528 -1.19387,0.30295 -2.79538,0.29012 -2.94912,-0.0236 -4.9842,-1.99309 -2.03508,-1.96949 -2.01084,-4.99673 0.0199,-2.48039 1.08671,-3.99534 1.08654,-1.53431 3.06617,-2.3974 1.99916,-0.86292 4.79455,-1.15305 2.79538,-0.29013 5.99965,-0.42073 l 0.005,-0.56638 q 0.01,-1.24996 -0.43263,-2.07385 -0.42311,-0.82372 -1.23964,-1.29903 -0.77763,-0.45546 -1.87009,-0.62046 -1.09247,-0.165 -2.28383,-0.17454 -1.44527,-0.0116 -3.22568,0.36481 -1.78026,0.35685 -3.68052,1.06431 l -0.19531,-0.002 0.0299,-3.73035 q 1.07653,-0.28436 3.11053,-0.61965 2.034,-0.33528 4.0066,-0.31949 2.30461,0.0185 4.00065,0.42267 1.71572,0.38485 2.95833,1.31279 1.22324,0.90827 1.85633,2.33916 0.6331,1.4309 0.61621,3.54021 z m -3.60923,-5.40017 0.0486,-6.07402 q -1.68042,0.0842 -3.96706,0.26121 -2.26712,0.17717 -3.59817,0.53761 -1.58558,0.43654 -2.56977,1.38572 -0.98404,0.92965 -0.99733,2.58976 -0.015,1.87494 1.1101,2.84101 1.12527,0.94654 3.44941,0.96515 1.93353,0.0155 3.54099,-0.71386 1.60761,-0.74887 2.98319,-1.79258 z"
       id="path92797" /><path
       d="m 409.66468,191.56985 -0.19041,-0.0435 q -0.75623,-0.37306 -1.50047,-0.62317 -0.72085,-0.26481 -1.74907,-0.49964 -1.65656,-0.37834 -3.36848,0.012 -1.70757,0.37131 -3.40092,1.20665 l -3.44857,15.09947 -3.5797,-0.81757 4.85758,-21.26874 3.5797,0.81757 -0.71755,3.14176 q 2.52398,-1.22663 4.30336,-1.5615 1.80278,-0.34956 3.49742,0.0375 0.93301,0.21309 1.33886,0.36589 0.41021,0.13375 1.21757,0.45839 z"
       id="path92799" /><path
       d="m 424.25642,215.62386 -3.42717,-1.26259 0.80347,-2.18092 q -0.57296,0.14276 -1.57033,0.42058 -0.9723,0.26623 -1.82691,0.32605 -1.01667,0.10419 -2.2359,-0.0328 -1.22598,-0.11862 -2.72881,-0.67227 -2.76739,-1.01953 -4.01655,-3.56118 -1.24917,-2.54165 -0.20264,-5.38235 0.85748,-2.32754 2.37379,-3.39246 1.54138,-1.07649 3.69625,-1.21927 2.1732,-0.13604 4.902,0.53624 2.72881,0.67227 5.78847,1.63295 l 0.1958,-0.53148 q 0.43212,-1.17294 0.29417,-2.09797 -0.11962,-0.91828 -0.72732,-1.6417 -0.57779,-0.6916 -1.55009,-1.21632 -0.97231,-0.52472 -2.09026,-0.93658 -1.35621,-0.49963 -3.15901,-0.7475 -1.79605,-0.2662 -3.8236,-0.24303 l -0.18327,-0.0675 1.2896,-3.50048 q 1.10927,0.0964 3.13682,0.46874 2.02755,0.3723 3.87859,1.05424 2.1626,0.79671 3.62202,1.75066 1.4845,0.94237 2.3401,2.23586 0.84402,1.26841 0.95594,2.8291 0.11191,1.56069 -0.61729,3.54002 z m -1.57042,-6.30254 2.09981,-5.69973 q -1.60989,-0.48902 -3.82168,-1.09571 -2.19346,-0.59994 -3.56799,-0.71085 -1.63978,-0.12537 -2.88698,0.43507 -1.24044,0.54211 -1.81435,2.09991 -0.64817,1.7594 0.084,3.04904 0.73889,1.2713 2.91981,2.07477 1.81439,0.66843 3.57378,0.52565 1.76614,-0.16111 3.41364,-0.67815 z"
       id="path92801" /><path
       d="m 445.50191,225.14197 q -2.03292,-0.10195 -3.72518,-0.46361 -1.67509,-0.35235 -3.30644,-1.23635 -2.07782,-1.12595 -3.48651,-2.66681 -1.39939,-1.55804 -1.96579,-3.46441 -0.58358,-1.91568 -0.24687,-4.17683 0.3367,-2.26114 1.70459,-4.78543 2.54967,-4.70515 6.57711,-5.98819 4.04462,-1.27374 8.28612,1.02468 1.64852,0.89332 2.97711,2.21305 1.34576,1.32905 2.3051,2.71527 l -1.94482,3.58896 -0.17172,-0.0931 q -0.85334,-1.95079 -2.09818,-3.42507 -1.22766,-1.46499 -2.72163,-2.27455 -2.74754,-1.48886 -5.34952,-0.49967 -2.5755,0.98132 -4.51101,4.55311 -1.87968,3.46876 -1.34848,6.178 0.55768,2.70137 3.3739,4.22745 0.97881,0.5304 2.13154,0.82183 1.15273,0.29144 2.18315,0.31666 0.89947,0.0209 1.73168,-0.0391 0.84153,-0.0771 1.36033,-0.17365 l 0.17172,0.0931 z"
       id="path92803" /><path
       d="m 469.73403,231.42069 -12.89065,-9.60268 q -1.2018,1.61329 -1.61467,3.18104 -0.40121,1.5521 -0.12713,2.94965 0.25441,1.35856 1.08646,2.56289 0.8477,1.216 2.19472,2.21944 1.78558,1.33014 4.11189,1.96711 2.35363,0.63298 3.6345,0.51554 l 0.15663,0.11668 -2.39192,3.21091 q -1.9547,-0.48193 -3.82037,-1.21415 -1.86567,-0.73222 -3.57294,-2.00402 -4.35431,-3.24368 -5.04756,-7.41332 -0.68157,-4.18531 2.55044,-8.52396 3.197,-4.29167 7.40932,-5.07489 4.22799,-0.77156 8.04976,2.07541 3.53984,2.63695 3.91056,6.12795 0.38639,3.50267 -2.44891,7.30878 z m -1.18615,-4.3907 q 1.71119,-2.32979 1.49723,-4.46192 -0.1983,-2.12046 -2.54775,-3.87064 -2.36512,-1.76186 -4.81323,-1.41796 -2.43245,0.35556 -4.16057,2.28306 z"
       id="path92805" /></g></g><g
   inkscape:groupmode="layer"
   id="layer3"
   inkscape:label="blue"
   style="display:none"><g
     id="g1540"
     style="display:inline">
	<linearGradient
   id="path3302_6_"
   gradientUnits="userSpaceOnUse"
   x1="344.70001"
   y1="297.9892"
   x2="383.89999"
   y2="297.9892">
		<stop
   offset="0.3541"
   style="stop-color:#004C99"
   id="stop1480" />
		<stop
   offset="0.7081"
   style="stop-color:#003D7C"
   id="stop1482" />
	</linearGradient>
	<path
   id="path3302_1_"
   class="st41"
   d="m 344.7,236 c 17.5,-6.4 24.1,5.5 39.2,2.4 l -25.6,123.5 z" />
	<linearGradient
   id="path3304_6_"
   gradientUnits="userSpaceOnUse"
   x1="361"
   y1="304"
   x2="454.89999"
   y2="304">
		<stop
   offset="0.3541"
   style="stop-color:#004C99"
   id="stop1486" />
		<stop
   offset="0.7081"
   style="stop-color:#003D7C"
   id="stop1488" />
	</linearGradient>
	<path
   id="path3304_1_"
   class="st42"
   d="m 424.4,248.8 c 17.9,5 16.5,19.1 30.5,25.4 l -93.9,85 z" />
	<linearGradient
   id="path3306_6_"
   gradientUnits="userSpaceOnUse"
   x1="360.89999"
   y1="333.45001"
   x2="487.10001"
   y2="333.45001">
		<stop
   offset="0.3541"
   style="stop-color:#004C99"
   id="stop1492" />
		<stop
   offset="0.7081"
   style="stop-color:#003D7C"
   id="stop1494" />
	</linearGradient>
	<path
   id="path3306_1_"
   class="st43"
   d="m 476.4,307.5 c 11.6,14.5 3.1,24.6 10.7,37.8 l -126.2,14.1 z" />
	<linearGradient
   id="path3310_6_"
   gradientUnits="userSpaceOnUse"
   x1="360.70001"
   y1="390.45001"
   x2="485.23489"
   y2="390.45001">
		<stop
   offset="0.3541"
   style="stop-color:#004C99"
   id="stop1498" />
		<stop
   offset="0.7081"
   style="stop-color:#003D7C"
   id="stop1500" />
	</linearGradient>
	<path
   id="path3310_1_"
   class="st44"
   d="m 485.2,384.7 c 0.8,18.5 -12.4,21.8 -14.1,36.9 L 360.7,359.3 Z" />
	<linearGradient
   id="path3312_6_"
   gradientUnits="userSpaceOnUse"
   x1="360.5"
   y1="416.70001"
   x2="445.89999"
   y2="416.70001">
		<stop
   offset="0.3541"
   style="stop-color:#004C99"
   id="stop1504" />
		<stop
   offset="0.7081"
   style="stop-color:#003D7C"
   id="stop1506" />
	</linearGradient>
	<path
   id="path3312_1_"
   class="st45"
   d="m 445.9,452.1 c -10.3,15.4 -22.7,10.7 -33,22 L 360.5,359.3 Z" />
	<linearGradient
   id="path3314_6_"
   gradientUnits="userSpaceOnUse"
   x1="334.89999"
   y1="423.3143"
   x2="374.5"
   y2="423.3143">
		<stop
   offset="0.3541"
   style="stop-color:#004C99"
   id="stop1510" />
		<stop
   offset="0.7081"
   style="stop-color:#003D7C"
   id="stop1512" />
	</linearGradient>
	<path
   id="path3314_1_"
   class="st46"
   d="m 374.5,485.8 c -17.5,6.4 -24.6,-6.3 -39.6,-3.2 L 360.5,359 Z" />
	<linearGradient
   id="path3316_6_"
   gradientUnits="userSpaceOnUse"
   x1="266.70001"
   y1="414.14999"
   x2="360.5"
   y2="414.14999">
		<stop
   offset="0.3541"
   style="stop-color:#004C99"
   id="stop1516" />
		<stop
   offset="0.7081"
   style="stop-color:#003D7C"
   id="stop1518" />
	</linearGradient>
	<path
   id="path3316_1_"
   class="st47"
   d="m 296.9,469.4 c -17.9,-5 -16.2,-19.2 -30.2,-25.5 l 93.8,-85 z" />
	<linearGradient
   id="path3318_6_"
   gradientUnits="userSpaceOnUse"
   x1="234.5"
   y1="384.5"
   x2="360.70001"
   y2="384.5">
		<stop
   offset="0.3541"
   style="stop-color:#004C99"
   id="stop1522" />
		<stop
   offset="0.7081"
   style="stop-color:#003D7C"
   id="stop1524" />
	</linearGradient>
	<path
   id="path3318_1_"
   class="st48"
   d="M 245.6,410.3 C 234,395.8 242.1,385.9 234.5,372.7 l 126.2,-14 z" />
	<linearGradient
   id="path3320_6_"
   gradientUnits="userSpaceOnUse"
   x1="236.66431"
   y1="327.45001"
   x2="360.89999"
   y2="327.45001">
		<stop
   offset="0.3541"
   style="stop-color:#004C99"
   id="stop1528" />
		<stop
   offset="0.7081"
   style="stop-color:#003D7C"
   id="stop1530" />
	</linearGradient>
	<path
   id="path3320_1_"
   class="st49"
   d="m 236.7,333.6 c -0.8,-18.5 12.1,-22.1 13.8,-37.3 l 110.4,62.3 z" />
	<linearGradient
   id="path3322_6_"
   gradientUnits="userSpaceOnUse"
   x1="274.79999"
   y1="301.29999"
   x2="361.10001"
   y2="301.29999">
		<stop
   offset="0.3541"
   style="stop-color:#004C99"
   id="stop1534" />
		<stop
   offset="0.7081"
   style="stop-color:#003D7C"
   id="stop1536" />
	</linearGradient>
	<path
   id="path3322_1_"
   class="st50"
   d="m 274.8,265.5 c 10.3,-15.4 23.5,-10.3 33.8,-21.6 l 52.5,114.8 z" />
</g><g
     id="g1602"
     style="display:inline">
	<linearGradient
   id="path3308_6_"
   gradientUnits="userSpaceOnUse"
   x1="374.64999"
   y1="373.35001"
   x2="464.49081"
   y2="283.50909">
		<stop
   offset="0.3541"
   style="stop-color:#004C99"
   id="stop1542" />
		<stop
   offset="0.7081"
   style="stop-color:#003D7C"
   id="stop1544" />
	</linearGradient>
	<path
   id="path3308_1_"
   class="st51"
   d="m 446,266 c 15.5,10.3 19.2,31.2 30.5,41.5 l -115.6,52.1 z" />
	<linearGradient
   id="path3324_6_"
   gradientUnits="userSpaceOnUse"
   x1="317.85001"
   y1="316.14999"
   x2="373.45001"
   y2="260.54999">
		<stop
   offset="0.3541"
   style="stop-color:#004C99"
   id="stop1548" />
		<stop
   offset="0.7081"
   style="stop-color:#003D7C"
   id="stop1550" />
	</linearGradient>
	<path
   id="path3324_1_"
   class="st52"
   d="m 297.7,250 c 14.6,-11.5 35.9,-8.4 49.2,-16 L 361,359.3 Z" />
	<linearGradient
   id="path3326_6_"
   gradientUnits="userSpaceOnUse"
   x1="333.02499"
   y1="331.52499"
   x2="419.22501"
   y2="245.325">
		<stop
   offset="0.3541"
   style="stop-color:#004C99"
   id="stop1554" />
		<stop
   offset="0.7081"
   style="stop-color:#003D7C"
   id="stop1556" />
	</linearGradient>
	<path
   id="path3326_1_"
   class="st53"
   d="m 374.5,234.1 c 18.6,-0.8 34,14.1 49.3,15.8 L 361,359.5 Z" />
	<linearGradient
   id="path3328_6_"
   gradientUnits="userSpaceOnUse"
   x1="398.14999"
   y1="397.25"
   x2="473.39999"
   y2="322">
		<stop
   offset="0.3541"
   style="stop-color:#004C99"
   id="stop1560" />
		<stop
   offset="0.7081"
   style="stop-color:#003D7C"
   id="stop1562" />
	</linearGradient>
	<path
   id="path3328_1_"
   class="st54"
   d="m 485.2,333.8 c 6.5,17.3 -3.2,36.4 -0.1,51.4 L 360.7,359.8 Z" />
	<linearGradient
   id="path3330_6_"
   gradientUnits="userSpaceOnUse"
   x1="401.39999"
   y1="408.10001"
   x2="437.35001"
   y2="372.14999">
		<stop
   offset="0.3541"
   style="stop-color:#004C99"
   id="stop1566" />
		<stop
   offset="0.7081"
   style="stop-color:#003D7C"
   id="stop1568" />
	</linearGradient>
	<path
   id="path3330_1_"
   class="st55"
   d="m 476.4,411.2 c -5,17.8 -24,27.8 -30.3,41.6 l -85.6,-93.2 z" />
	<linearGradient
   id="path3332_6_"
   gradientUnits="userSpaceOnUse"
   x1="347.92499"
   y1="458.22501"
   x2="403.47501"
   y2="402.67499">
		<stop
   offset="0.3541"
   style="stop-color:#004C99"
   id="stop1572" />
		<stop
   offset="0.7081"
   style="stop-color:#003D7C"
   id="stop1574" />
	</linearGradient>
	<path
   id="path3332_1_"
   class="st56"
   d="m 423.7,468.8 c -14.6,11.5 -35.9,8.4 -49.2,16 L 360.3,359.5 Z" />
	<linearGradient
   id="path3334_6_"
   gradientUnits="userSpaceOnUse"
   x1="302.125"
   y1="473.42499"
   x2="388.32501"
   y2="387.22501">
		<stop
   offset="0.3541"
   style="stop-color:#004C99"
   id="stop1578" />
		<stop
   offset="0.7081"
   style="stop-color:#003D7C"
   id="stop1580" />
	</linearGradient>
	<path
   id="path3334_1_"
   class="st57"
   d="m 346.9,484.7 c -18.6,0.8 -34,-14.1 -49.3,-15.8 l 62.7,-109.7 z" />
	<linearGradient
   id="path3336_6_"
   gradientUnits="userSpaceOnUse"
   x1="256.90909"
   y1="435.1908"
   x2="346.75"
   y2="345.35001">
		<stop
   offset="0.3541"
   style="stop-color:#004C99"
   id="stop1584" />
		<stop
   offset="0.7081"
   style="stop-color:#003D7C"
   id="stop1586" />
	</linearGradient>
	<path
   id="path3336_1_"
   class="st58"
   d="M 275.4,452.7 C 259.9,442.4 256.2,421.5 244.9,411.2 L 360.5,359.1 Z" />
	<linearGradient
   id="path3338_6_"
   gradientUnits="userSpaceOnUse"
   x1="248.10001"
   y1="396.79999"
   x2="323.25"
   y2="321.64999">
		<stop
   offset="0.3541"
   style="stop-color:#004C99"
   id="stop1590" />
		<stop
   offset="0.7081"
   style="stop-color:#003D7C"
   id="stop1592" />
	</linearGradient>
	<path
   id="path3338_1_"
   class="st59"
   d="m 236.4,385.1 c -6.5,-17.3 3,-36.5 -0.1,-51.4 l 124.4,25.4 z" />
	<linearGradient
   id="path3340_6_"
   gradientUnits="userSpaceOnUse"
   x1="283.95001"
   y1="346.64999"
   x2="319.89999"
   y2="310.70001">
		<stop
   offset="0.3541"
   style="stop-color:#004C99"
   id="stop1596" />
		<stop
   offset="0.7081"
   style="stop-color:#003D7C"
   id="stop1598" />
	</linearGradient>
	<path
   id="path3340_1_"
   class="st60"
   d="m 244.9,307.6 c 5,-17.8 24,-27.8 30.3,-41.6 l 85.6,93.2 z" />
</g><g
     id="path3912_1_"
     class="st20"
     style="display:inline">
	<g
   id="g1616">
		<g
   id="g1612">
			<g
   id="g1606">
				<path
   class="st61"
   d="m 425.1,360.8 c 0,35.2 -28.8,63.8 -64.3,63.8 -35.5,0 -64.3,-28.6 -64.3,-63.8 0,-35.2 28.8,-63.8 64.3,-63.8 35.5,0 64.3,28.6 64.3,63.8 z"
   id="path1604" />
			</g>
			<g
   class="st62"
   id="g1610">
				<path
   class="st61"
   d="m 425.1,360.8 c 0,35.2 -28.8,63.8 -64.3,63.8 -35.5,0 -64.3,-28.6 -64.3,-63.8 0,-35.2 28.8,-63.8 64.3,-63.8 35.5,0 64.3,28.6 64.3,63.8 z"
   id="path1608" />
			</g>
		</g>
		<path
   class="st61"
   d="m 425.1,360.8 c 0,35.2 -28.8,63.8 -64.3,63.8 -35.5,0 -64.3,-28.6 -64.3,-63.8 0,-35.2 28.8,-63.8 64.3,-63.8 35.5,0 64.3,28.6 64.3,63.8 z"
   id="path1614" />
	</g>
	<g
   class="st62"
   id="g1620">
		<path
   class="st61"
   d="m 425.1,360.8 c 0,35.2 -28.8,63.8 -64.3,63.8 -35.5,0 -64.3,-28.6 -64.3,-63.8 0,-35.2 28.8,-63.8 64.3,-63.8 35.5,0 64.3,28.6 64.3,63.8 z"
   id="path1618" />
	</g>
</g><path
     id="path15964"
     style="fill-opacity:0;fill-rule:evenodd;stroke:#000000;stroke-width:2.007;stroke-linecap:round;paint-order:fill markers stroke"
     d="m 280.9423,363.33669 a 79.79641,79.79641 0 0 1 76.53017,-82.46446 79.79641,79.79641 0 0 1 82.92974,76.02572 79.79641,79.79641 0 0 1 -75.51844,83.39195 79.79641,79.79641 0 0 1 -83.85105,-75.00836" /><g
     aria-label="antarctic program (3)"
     id="text17098"
     style="font-size:13.3333px;line-height:1.25;-inkscape-font-specification:'sans-serif, Normal';fill:#000000;fill-opacity:1"><path
       d="m 281.29864,351.00726 -0.12072,2.18808 -1.39241,-0.0768 q 0.18277,0.3035 0.51774,0.82665 0.32392,0.51081 0.50871,0.99047 0.23879,0.56479 0.37492,1.28823 0.14784,0.72409 0.0949,1.68357 -0.0975,1.76684 -1.33536,2.93089 -1.23788,1.16404 -3.05153,1.06398 -1.48602,-0.082 -2.36383,-0.76419 -0.88887,-0.69455 -1.35021,-1.9054 -0.4607,-1.22255 -0.5556,-2.90611 -0.0949,-1.68357 -0.0826,-3.60769 l -0.33933,-0.0187 q -0.74886,-0.0413 -1.25515,0.20069 -0.50564,0.23031 -0.81358,0.70625 -0.29494,0.45319 -0.4247,1.10328 -0.12976,0.65009 -0.16914,1.36385 -0.0478,0.86587 0.1275,1.94357 0.16357,1.07705 0.53389,2.23593 l -0.006,0.11701 -2.23488,-0.1233 q -0.14001,-0.65324 -0.28349,-1.88176 -0.14348,-1.22852 -0.0783,-2.41031 0.0762,-1.38072 0.36635,-2.38579 0.27913,-1.01742 0.87039,-1.73594 0.57892,-0.70746 1.45439,-1.04647 0.87547,-0.339 2.13918,-0.26928 z m -3.33848,2.01055 -3.639,-0.20077 q 0.003,1.00951 0.0445,2.38498 0.0421,1.36377 0.22054,2.1717 0.21683,0.96262 0.7579,1.5793 0.52937,0.61604 1.52395,0.67091 1.12329,0.062 1.73408,-0.58505 0.59909,-0.64767 0.67591,-2.04008 0.0639,-1.1584 -0.32779,-2.1424 -0.4034,-0.98466 -0.99006,-1.83859 z"
       style="font-size:24px;fill:#000000;fill-opacity:1"
       id="path67852" /><path
       d="m 284.5095,336.15395 -0.5259,2.13943 -7.23767,-1.77909 q -0.87626,-0.21539 -1.66389,-0.30039 -0.79902,-0.0878 -1.29859,0.079 -0.5479,0.16702 -0.90697,0.64593 -0.37045,0.47611 -0.58025,1.32961 -0.2154,0.87626 -0.0179,1.93848 0.19747,1.06222 0.65349,2.10352 l 9.49091,2.33296 -0.52589,2.13944 -12.71145,-3.12461 0.52589,-2.13943 1.41112,0.34686 q -0.58457,-1.20564 -0.7882,-2.39005 -0.20364,-1.18441 0.0733,-2.31103 0.50631,-2.05977 2.01248,-2.83596 1.50616,-0.7762 3.83906,-0.20275 z"
       style="font-size:24px;fill:#000000;fill-opacity:1"
       id="path67854" /><path
       d="m 288.57815,325.87123 q -0.0885,0.63627 -0.27635,1.35801 -0.1833,0.71093 -0.40506,1.2406 -0.77388,1.84844 -2.17114,2.39414 -1.39727,0.5457 -3.59162,-0.37299 l -6.42092,-2.68822 -0.57475,1.37282 -1.70792,-0.71504 0.57475,-1.37282 -3.46989,-1.45273 0.85082,-2.0322 3.46989,1.45272 1.75594,-4.19414 1.70792,0.71505 -1.75594,4.19413 5.5021,2.30354 q 0.95124,0.39825 1.50983,0.5813 0.54777,0.17851 1.1212,0.11368 0.53195,-0.0568 0.9093,-0.38156 0.37108,-0.34012 0.7286,-1.19408 0.20818,-0.49724 0.29393,-1.09656 0.075,-0.60384 0.0772,-0.88238 l 0.0453,-0.10809 z"
       style="font-size:24px;fill:#000000;fill-opacity:1"
       id="path67856" /><path
       d="m 295.13337,314.81525 -1.13849,1.87246 -1.19157,-0.7245 q 0.018,0.35382 0.0666,0.97312 0.0447,0.6032 -0.0186,1.11331 -0.0558,0.61065 -0.27703,1.31277 -0.21117,0.70822 -0.71041,1.52929 -0.91932,1.51198 -2.55989,1.95454 -1.64058,0.44256 -3.19261,-0.50112 -1.27167,-0.7732 -1.72393,-1.78879 -0.45618,-1.0317 -0.29186,-2.31699 0.17041,-1.29531 0.88081,-2.8246 0.71041,-1.52929 1.62877,-3.22014 l -0.29038,-0.17656 q -0.64084,-0.38965 -1.20142,-0.41505 -0.55449,-0.0354 -1.05051,0.23901 -0.47383,0.2605 -0.89488,0.77253 -0.42104,0.51203 -0.79243,1.12283 -0.45052,0.74097 -0.80429,1.77393 -0.36378,1.02687 -0.58385,2.22341 l -0.0609,0.10013 -1.91251,-1.16285 q 0.18466,-0.64205 0.63759,-1.793 0.45294,-1.15095 1.06785,-2.16228 0.71842,-1.18155 1.44835,-1.93093 0.72602,-0.76547 1.58628,-1.12017 0.84416,-0.35077 1.77603,-0.23676 0.93187,0.11401 2.01329,0.77154 z m -3.8921,0.19819 -3.11408,-1.89343 q -0.47353,0.89157 -1.08572,2.12398 -0.6061,1.22241 -0.82985,2.01898 -0.26284,0.95109 -0.0766,1.75007 0.17622,0.79289 1.02733,1.31039 0.96126,0.58447 1.80502,0.30203 0.83375,-0.28853 1.55825,-1.48009 0.60273,-0.9913 0.72147,-2.04373 0.10872,-1.05851 -0.006,-2.0882 z"
       style="font-size:24px;fill:#000000;fill-opacity:1"
       id="path67858" /><path
       d="m 294.84384,298.32658 -0.0755,0.0896 q -0.40677,0.30087 -0.74467,0.62912 -0.33931,0.31173 -0.74709,0.79565 -0.65696,0.77964 -0.91913,1.80001 -0.27113,1.01282 -0.29083,2.14556 l 7.10637,5.98822 -1.41966,1.68474 -10.00985,-8.43486 1.41965,-1.68474 1.47863,1.24597 q 0.0392,-1.68329 0.34952,-2.72441 0.30888,-1.05763 0.98095,-1.85519 0.37002,-0.43911 0.56303,-0.6136 0.18406,-0.18205 0.57904,-0.52349 z"
       style="font-size:24px;fill:#000000;fill-opacity:1"
       id="path67860" /><path
       d="m 311.20318,296.71281 q -0.47047,1.12702 -1.01837,2.00898 -0.53916,0.87414 -1.36959,1.61561 -1.05771,0.9444 -2.21377,1.42675 -1.16385,0.4736 -2.35519,0.40618 -1.20008,-0.0596 -2.40828,-0.70898 -1.2082,-0.64936 -2.35552,-1.93435 -2.13855,-2.39514 -2.04491,-4.92954 0.10239,-2.54221 2.26152,-4.47002 0.83917,-0.74928 1.85411,-1.23131 1.02369,-0.48984 2.00117,-0.74991 l 1.63123,1.82696 -0.0874,0.078 q -1.27469,0.0856 -2.35987,0.48891 -1.07645,0.39556 -1.83695,1.07459 -1.39863,1.24878 -1.36865,2.91872 0.0309,1.65338 1.65435,3.47159 1.57659,1.76577 3.21405,2.01614 1.6384,0.23382 3.072,-1.04619 0.49826,-0.44488 0.89693,-1.03649 0.39866,-0.59161 0.62219,-1.16824 0.1945,-0.50357 0.32967,-0.9856 0.12738,-0.49077 0.17826,-0.80328 l 0.0874,-0.0781 z"
       style="font-size:24px;fill:#000000;fill-opacity:1"
       id="path67862" /><path
       d="m 319.69181,291.86162 q -0.42401,0.48258 -0.97798,0.98188 -0.54424,0.49277 -1.02085,0.81303 -1.66329,1.11764 -3.13028,0.80447 -1.46699,-0.31317 -2.79378,-2.28771 l -3.88234,-5.77773 -1.2353,0.83006 -1.03268,-1.53683 1.23531,-0.83007 -2.09803,-3.1223 1.82864,-1.22875 2.09803,3.1223 3.774,-2.53593 1.03268,1.53683 -3.77401,2.53594 3.32679,4.95095 q 0.57516,0.85596 0.94086,1.31615 0.35917,0.45047 0.87366,0.71186 0.47542,0.24529 0.96922,0.18173 0.497,-0.0798 1.26541,-0.59616 0.44744,-0.30065 0.84881,-0.75389 0.39484,-0.46297 0.55001,-0.69431 l 0.0973,-0.0654 z"
       style="font-size:24px;fill:#000000;fill-opacity:1"
       id="path67864" /><path
       d="m 317.00361,276.1279 -2.19094,1.17127 -1.07735,-2.01526 2.19094,-1.17127 z m 7.08041,13.54268 -1.94291,1.03867 -6.17128,-11.5438 1.94292,-1.03868 z"
       style="font-size:24px;fill:#000000;fill-opacity:1"
       id="path67866" /><path
       d="m 336.69891,283.41518 q -0.83581,0.89048 -1.65818,1.5243 -0.81146,0.62958 -1.84917,1.03276 -1.32171,0.51352 -2.5735,0.55985 -1.25603,0.0354 -2.34808,-0.4455 -1.10296,-0.47666 -2.00673,-1.50846 -0.90377,-1.0318 -1.52764,-2.63752 -1.16285,-2.99297 -0.18643,-5.3336 0.98735,-2.34487 3.68539,-3.39314 1.04864,-0.40742 2.16816,-0.50294 1.13046,-0.0998 2.13706,-5.4e-4 l 0.887,2.28296 -0.10923,0.0424 q -1.22375,-0.36688 -2.38148,-0.36967 -1.1468,-0.007 -2.09712,0.3622 -1.74772,0.67904 -2.30523,2.25344 -0.55084,1.55924 0.33192,3.83127 0.85728,2.2065 2.30297,3.01518 1.45237,0.79351 3.24379,0.0975 0.62262,-0.24191 1.20343,-0.65615 0.58082,-0.41425 0.99235,-0.87587 0.35873,-0.40339 0.65436,-0.80741 0.29138,-0.41495 0.44862,-0.68977 l 0.10923,-0.0424 z"
       style="font-size:24px;fill:#000000;fill-opacity:1"
       id="path67868" /><path
       d="m 358.85482,273.90247 q 0.14689,1.58697 -0.18614,2.94767 -0.33411,1.34904 -1.07835,2.3359 -0.69021,0.93479 -1.69613,1.51042 -0.99532,0.56289 -2.16221,0.6709 -1.01519,0.094 -1.8642,-0.0511 -0.83734,-0.1461 -1.73238,-0.534 l 0.5055,5.46103 -2.19374,0.20306 -1.65152,-17.84169 2.19375,-0.20307 0.12637,1.36526 q 0.80712,-0.81615 1.84696,-1.40669 1.05043,-0.6033 2.28733,-0.71779 2.35711,-0.21819 3.82928,1.44618 1.48276,1.65161 1.77548,4.81387 z m -2.25836,0.26789 q -0.21819,-2.35711 -1.13135,-3.44947 -0.91317,-1.09235 -2.58182,-0.9379 -0.94517,0.0875 -1.86422,0.58448 -0.91904,0.49698 -1.73264,1.24311 l 0.68372,7.38639 q 0.9724,0.33367 1.65157,0.4238 0.69083,0.089 1.54266,0.0102 1.83201,-0.16958 2.74438,-1.50153 0.91236,-1.33195 0.6877,-3.75908 z"
       style="font-size:24px;fill:#000000;fill-opacity:1"
       id="path67870" /><path
       d="m 371.75842,270.63625 -0.11695,-0.007 q -0.4837,-0.14836 -0.94851,-0.22505 -0.45236,-0.0876 -1.08388,-0.12801 -1.01745,-0.0651 -1.9939,0.33047 -0.9757,0.38384 -1.89843,1.04115 l -0.59297,9.27403 -2.19863,-0.14058 0.83524,-13.06317 2.19863,0.14058 -0.12338,1.92965 q 1.37713,-0.96879 2.39886,-1.33794 1.03417,-0.3801 2.07502,-0.31355 0.57304,0.0366 0.82809,0.0882 0.25579,0.0398 0.76513,0.1546 z"
       style="font-size:24px;fill:#000000;fill-opacity:1"
       id="path67872" /><path
       d="m 385.46126,277.65371 q -0.69752,3.12226 -2.70236,4.57158 -2.00485,1.44932 -4.69251,0.84889 -2.71052,-0.60553 -3.90799,-2.77025 -1.18603,-2.16216 -0.48852,-5.28442 0.69752,-3.12225 2.69093,-4.57413 2.0074,-1.46076 4.71793,-0.85522 2.68765,0.60042 3.88256,2.77658 1.19747,2.16472 0.49996,5.28697 z m -2.21875,-0.49567 q 0.55443,-2.48179 -0.14942,-3.89983 -0.7013,-1.42948 -2.42826,-1.81528 -1.74984,-0.39092 -2.9928,0.60421 -1.22897,0.98625 -1.7834,3.46804 -0.53655,2.40173 0.15708,3.86552 0.6962,1.45236 2.43459,1.84072 1.71553,0.38324 2.96104,-0.62332 1.25951,-1.01545 1.80117,-3.44006 z"
       style="font-size:24px;fill:#000000;fill-opacity:1"
       id="path67874" /><path
       d="m 397.6274,287.98454 q -1.31423,3.05766 -3.31855,3.89263 -2.00433,0.83498 -4.88972,-0.40521 -0.95821,-0.41185 -1.81319,-0.94515 -0.84885,-0.51791 -1.62525,-1.145 l 0.88848,-2.06714 0.10767,0.0463 q 0.41196,0.40666 1.36828,1.14935 0.95169,0.75344 2.02833,1.2162 1.03357,0.44424 1.81829,0.48815 0.78471,0.0439 1.35127,-0.23555 0.55729,-0.25792 0.9733,-0.78066 0.41601,-0.52274 0.73069,-1.25485 l 0.47201,-1.09817 q -1.22982,0.33877 -2.22693,0.34388 -0.98172,-0.001 -2.27369,-0.55634 -2.15327,-0.92551 -2.75734,-3.02192 -0.58867,-2.10254 0.62837,-4.9341 0.66637,-1.55036 1.57829,-2.48496 0.92731,-0.94074 2.03265,-1.43506 1.02837,-0.46362 2.21012,-0.45315 1.18637,-2.9e-4 2.17688,0.42544 1.04434,0.44887 1.6516,0.96499 0.62266,0.50998 1.22351,1.27845 l 0.35131,-0.46126 1.89489,0.81445 z m -1.19112,-2.80792 2.81817,-6.55673 q -0.65014,-0.71312 -1.28517,-1.16464 -0.61964,-0.45766 -1.30868,-0.75382 -1.66879,-0.71727 -3.10826,-0.009 -1.43948,0.70785 -2.35573,2.8396 -0.86998,2.02407 -0.60827,3.37383 0.26171,1.34976 1.90897,2.05777 0.88284,0.37946 1.90914,0.42516 1.04169,0.0396 2.02983,-0.21175 z"
       style="font-size:24px;fill:#000000;fill-opacity:1"
       id="path67876" /><path
       d="m 413.39925,286.85224 -0.0992,-0.0624 q -0.35427,-0.36121 -0.72613,-0.65043 -0.3557,-0.29289 -0.8914,-0.62976 -0.86307,-0.54273 -1.90991,-0.66114 -1.0406,-0.12833 -2.16516,0.009 l -4.94696,7.86681 -1.86503,-1.1728 6.96818,-11.081 1.86502,1.1728 -1.02932,1.63686 q 1.67252,-0.19414 2.74657,-0.0309 1.0902,0.15952 1.97311,0.71473 0.48609,0.30567 0.68563,0.47268 0.20577,0.15708 0.59859,0.50101 z"
       style="font-size:24px;fill:#000000;fill-opacity:1"
       id="path67878" /><path
       d="m 416.73244,303.56717 -1.65827,-1.43263 0.91167,-1.05526 q -0.35193,-0.0408 -0.97074,-0.0953 -0.60227,-0.0557 -1.09488,-0.20256 -0.59299,-0.15612 -1.24884,-0.49043 -0.66351,-0.32544 -1.39066,-0.95365 -1.33903,-1.15683 -1.50403,-2.84801 -0.16501,-1.69119 1.02246,-3.06569 0.97296,-1.1262 2.04939,-1.40419 1.09295,-0.27919 2.33334,0.0955 1.24926,0.38238 2.63992,1.33603 1.39066,0.95366 2.90626,2.13913 l 0.22217,-0.25716 q 0.49031,-0.56753 0.60812,-1.11618 0.12668,-0.54099 -0.0619,-1.07559 -0.17851,-0.5104 -0.61381,-1.01036 -0.4353,-0.49996 -0.97624,-0.96729 -0.65621,-0.56692 -1.61639,-1.08673 -0.95253,-0.52867 -2.09616,-0.94369 l -0.0887,-0.0766 1.46327,-1.69374 q 0.60265,0.28835 1.66279,0.92548 1.06014,0.63714 1.95578,1.41091 1.0464,0.90401 1.66467,1.74788 0.6348,0.84266 0.84226,1.74975 0.20626,0.89057 -0.0604,1.79073 -0.26662,0.90016 -1.09402,1.85788 z m 0.44853,-3.87126 2.3826,-2.75786 q -0.80093,-0.61452 -1.91506,-1.42219 -1.10527,-0.80001 -1.85384,-1.15247 -0.89449,-0.4166 -1.71327,-0.36513 -0.81112,0.0426 -1.46231,0.79635 -0.73547,0.8513 -0.59653,1.73017 0.14659,0.86999 1.20185,1.78166 0.87791,0.75845 1.89619,1.04969 1.02593,0.28237 2.06037,0.33978 z"
       style="font-size:24px;fill:#000000;fill-opacity:1"
       id="path67880" /><path
       d="m 431.15451,321.90973 -1.28481,-1.7897 6.05451,-4.34649 q 0.68542,-0.49206 1.2754,-1.01658 0.59681,-0.515 0.83408,-0.98828 0.25216,-0.51282 0.16773,-1.07251 -0.0844,-0.5597 -0.638,-1.33079 -0.53989,-0.75206 -1.46058,-1.23075 -0.91116,-0.48552 -2.03175,-0.82069 -0.19845,0.18574 -0.47989,0.41664 -0.27192,0.22406 -0.55751,0.42908 l -6.80657,4.88639 -1.28481,-1.7897 6.05451,-4.34649 q 0.70446,-0.50572 1.28491,-1.02341 0.59682,-0.51501 0.83409,-0.98828 0.25216,-0.51282 0.15821,-1.06568 -0.0844,-0.5597 -0.638,-1.33079 -0.52623,-0.73302 -1.42103,-1.21586 -0.88798,-0.47331 -1.97586,-0.80312 l -7.93941,5.69965 -1.28481,-1.7897 10.63347,-7.6337 1.28481,1.7897 -1.18044,0.84743 q 1.29634,0.33884 2.28121,0.88685 0.99171,0.55754 1.66829,1.49998 0.77909,1.08525 0.86204,2.16534 0.0898,1.08961 -0.45286,2.04177 1.69298,0.42917 2.73521,1.03699 1.05175,0.60098 1.783,1.61958 1.25747,1.75162 0.78584,3.34526 -0.45528,1.59631 -2.35922,2.96313 z"
       style="font-size:24px;fill:#000000;fill-opacity:1"
       id="path67882" /><path
       d="m 433.39761,341.88245 -0.79559,-2.56295 q 1.65703,-2.68623 4.00262,-4.61685 2.34559,-1.93061 5.71436,-2.97634 3.36877,-1.04573 6.3953,-0.78273 3.02653,0.263 5.91342,1.53871 l 0.79559,2.56295 -0.11192,0.0347 q -1.09842,-0.65293 -2.42993,-1.14761 -1.31685,-0.48696 -2.9571,-0.75083 -1.58506,-0.24419 -3.37348,-0.1553 -1.78495,0.10008 -3.62042,0.66984 -1.91382,0.59409 -3.378,1.49034 -1.46071,0.90743 -2.67788,2.04603 -1.16815,1.09884 -2.00864,2.30456 -0.85168,1.2092 -1.35641,2.31069 z"
       style="font-size:24px;fill:#000000;fill-opacity:1"
       id="path67884" /><path
       d="m 448.67969,352.99121 q -0.42247,0.62597 -1.12751,1.08976 -0.70505,0.46379 -1.9008,0.62844 -1.18414,0.16305 -2.23007,-0.13062 -1.04593,-0.29367 -1.88441,-0.97078 -0.93253,-0.75879 -1.49029,-1.88858 -0.54455,-1.11978 -0.73798,-2.5245 -0.19821,-1.43954 -0.0418,-2.8806 0.14485,-1.43946 0.42809,-2.38932 l 2.42632,-0.33409 0.024,0.17414 q -0.51424,1.0763 -0.75995,2.4705 -0.24572,1.39421 -0.0747,2.63639 0.10071,0.73138 0.458,1.52207 0.35729,0.79068 0.9036,1.23595 0.58434,0.46369 1.23479,0.63437 0.65206,0.18229 1.5924,0.0528 0.92874,-0.12788 1.49086,-0.51284 0.57532,-0.37495 0.85167,-0.94532 0.28795,-0.57197 0.31335,-1.33255 0.037,-0.76217 -0.0813,-1.62125 l -0.14386,-1.04483 1.92712,-0.26535 0.1119,0.81264 q 0.24297,1.7646 1.11822,2.70873 0.88846,0.95413 2.30478,0.75911 0.6269,-0.0863 1.0545,-0.41727 0.43921,-0.33255 0.67551,-0.85009 0.23311,-0.54076 0.27087,-1.12559 0.0378,-0.58484 -0.0613,-1.30461 -0.15186,-1.10288 -0.71761,-2.29071 -0.56576,-1.18784 -1.43739,-2.19161 l -0.016,-0.11609 2.42632,-0.33409 q 0.51982,0.76831 1.04511,2.09184 0.5385,1.33354 0.71594,2.62216 0.17423,1.26541 0.0747,2.26094 -0.0995,0.99554 -0.50322,1.84369 -0.44215,0.91259 -1.17243,1.45083 -0.73028,0.53824 -1.78672,0.6837 -1.43954,0.19822 -2.65987,-0.67473 -1.20712,-0.86294 -1.67596,-2.20607 l -0.16253,0.0224 q -0.0161,0.57003 -0.21888,1.33136 -0.19112,0.75974 -0.56353,1.31968 z"
       style="font-size:24px;fill:#000000;fill-opacity:1"
       id="path67886" /><path
       d="m 447.08152,366.18496 q -3.52622,-0.089 -6.30886,-1.30801 -2.78263,-1.21903 -5.10845,-3.3526 l 0.0677,-2.68274 0.11715,0.003 q 0.78557,0.92246 1.93431,1.85408 1.13673,0.94304 2.56023,1.67059 1.4812,0.76417 3.13409,1.22789 1.65259,0.47544 3.65586,0.52599 1.92126,0.0485 3.66603,-0.34121 1.74476,-0.3897 3.20374,-1.06796 1.50643,-0.7005 2.64124,-1.53932 1.14622,-0.82682 2.02536,-1.75415 l 0.11715,0.003 -0.0677,2.68274 q -2.43048,2.01355 -5.27105,3.09067 -2.84058,1.07711 -6.3668,0.98813 z"
       style="font-size:24px;fill:#000000;fill-opacity:1"
       id="path67888" /></g></g></svg>
