<?xml version="1.0" encoding="UTF-8" standalone="no"?>
<!-- Generator: Adobe Illustrator 20.0.0, SVG Export Plug-In . SVG Version: 6.00 Build 0)  -->

<svg
   version="1.1"
   id="svg2"
   x="0px"
   y="0px"
   viewBox="0 0 721.6 721.6"
   style="enable-background:new 0 0 721.6 721.6;"
   xml:space="preserve"
   sodipodi:docname="red7.svg"
   inkscape:version="1.1 (c68e22c387, 2021-05-23)"
   xmlns:inkscape="http://www.inkscape.org/namespaces/inkscape"
   xmlns:sodipodi="http://sodipodi.sourceforge.net/DTD/sodipodi-0.dtd"
   xmlns="http://www.w3.org/2000/svg"
   xmlns:svg="http://www.w3.org/2000/svg"><defs
   id="defs1626"><inkscape:path-effect
     effect="bspline"
     id="path-effect11541"
     is_visible="true"
     lpeversion="1"
     weight="33.333333"
     steps="2"
     helper_size="0"
     apply_no_weight="true"
     apply_with_weight="true"
     only_selected="false" /><inkscape:path-effect
     effect="fill_between_many"
     method="originald"
     linkedpaths="#g12224,0,1"
     id="path-effect12573" /></defs><sodipodi:namedview
   id="namedview1624"
   pagecolor="#ffffff"
   bordercolor="#666666"
   borderopacity="1.0"
   inkscape:pageshadow="2"
   inkscape:pageopacity="0.0"
   inkscape:pagecheckerboard="0"
   showgrid="false"
   showguides="false"
   inkscape:zoom="0.76727357"
   inkscape:cx="351.89535"
   inkscape:cy="407.28628"
   inkscape:window-width="1920"
   inkscape:window-height="1001"
   inkscape:window-x="-9"
   inkscape:window-y="-9"
   inkscape:window-maximized="1"
   inkscape:current-layer="layer1" />
<style
   type="text/css"
   id="style1226">
	
		.st0{opacity:0.9895;fill:url(#path3302_3_);stroke:#5A5A59;stroke-width:0.9965;stroke-linecap:round;stroke-linejoin:round;enable-background:new    ;}
	
		.st1{opacity:0.9895;fill:url(#path3304_3_);stroke:#5A5A59;stroke-width:0.9965;stroke-linecap:round;stroke-linejoin:round;enable-background:new    ;}
	
		.st2{opacity:0.9895;fill:url(#path3306_3_);stroke:#5A5A59;stroke-width:0.9965;stroke-linecap:round;stroke-linejoin:round;enable-background:new    ;}
	
		.st3{opacity:0.9895;fill:url(#path3310_3_);stroke:#5A5A59;stroke-width:0.9965;stroke-linecap:round;stroke-linejoin:round;enable-background:new    ;}
	
		.st4{opacity:0.9895;fill:url(#path3312_3_);stroke:#5A5A59;stroke-width:0.9965;stroke-linecap:round;stroke-linejoin:round;enable-background:new    ;}
	
		.st5{opacity:0.9895;fill:url(#path3314_3_);stroke:#5A5A59;stroke-width:0.9965;stroke-linecap:round;stroke-linejoin:round;enable-background:new    ;}
	
		.st6{opacity:0.9895;fill:url(#path3316_3_);stroke:#5A5A59;stroke-width:0.9965;stroke-linecap:round;stroke-linejoin:round;enable-background:new    ;}
	
		.st7{opacity:0.9895;fill:url(#path3318_3_);stroke:#5A5A59;stroke-width:0.9965;stroke-linecap:round;stroke-linejoin:round;enable-background:new    ;}
	
		.st8{opacity:0.9895;fill:url(#path3320_3_);stroke:#5A5A59;stroke-width:0.9965;stroke-linecap:round;stroke-linejoin:round;enable-background:new    ;}
	
		.st9{opacity:0.9895;fill:url(#path3322_3_);stroke:#5A5A59;stroke-width:0.9965;stroke-linecap:round;stroke-linejoin:round;enable-background:new    ;}
	
		.st10{opacity:0.9895;fill:url(#path3308_3_);stroke:#5A5A59;stroke-width:0.9965;stroke-linecap:round;stroke-linejoin:round;enable-background:new    ;}
	
		.st11{opacity:0.9895;fill:url(#path3324_3_);stroke:#5A5A59;stroke-width:0.9965;stroke-linecap:round;stroke-linejoin:round;enable-background:new    ;}
	
		.st12{opacity:0.9895;fill:url(#path3326_3_);stroke:#5A5A59;stroke-width:0.9965;stroke-linecap:round;stroke-linejoin:round;enable-background:new    ;}
	
		.st13{opacity:0.9895;fill:url(#path3328_3_);stroke:#5A5A59;stroke-width:0.9965;stroke-linecap:round;stroke-linejoin:round;enable-background:new    ;}
	
		.st14{opacity:0.9895;fill:url(#path3330_3_);stroke:#5A5A59;stroke-width:0.9965;stroke-linecap:round;stroke-linejoin:round;enable-background:new    ;}
	
		.st15{opacity:0.9895;fill:url(#path3332_3_);stroke:#5A5A59;stroke-width:0.9965;stroke-linecap:round;stroke-linejoin:round;enable-background:new    ;}
	
		.st16{opacity:0.9895;fill:url(#path3334_3_);stroke:#5A5A59;stroke-width:0.9965;stroke-linecap:round;stroke-linejoin:round;enable-background:new    ;}
	
		.st17{opacity:0.9895;fill:url(#path3336_3_);stroke:#5A5A59;stroke-width:0.9965;stroke-linecap:round;stroke-linejoin:round;enable-background:new    ;}
	
		.st18{opacity:0.9895;fill:url(#path3338_3_);stroke:#5A5A59;stroke-width:0.9965;stroke-linecap:round;stroke-linejoin:round;enable-background:new    ;}
	
		.st19{opacity:0.9895;fill:url(#path3340_3_);stroke:#5A5A59;stroke-width:0.9965;stroke-linecap:round;stroke-linejoin:round;enable-background:new    ;}
	.st20{opacity:0.9895;enable-background:new    ;}
	
		.st21{opacity:0.9895;fill:url(#path3302_5_);stroke:#5A5A59;stroke-width:0.9965;stroke-linecap:round;stroke-linejoin:round;enable-background:new    ;}
	
		.st22{opacity:0.9895;fill:url(#path3304_5_);stroke:#5A5A59;stroke-width:0.9965;stroke-linecap:round;stroke-linejoin:round;enable-background:new    ;}
	
		.st23{opacity:0.9895;fill:url(#path3306_5_);stroke:#5A5A59;stroke-width:0.9965;stroke-linecap:round;stroke-linejoin:round;enable-background:new    ;}
	
		.st24{opacity:0.9895;fill:url(#path3310_5_);stroke:#5A5A59;stroke-width:0.9965;stroke-linecap:round;stroke-linejoin:round;enable-background:new    ;}
	
		.st25{opacity:0.9895;fill:url(#path3312_5_);stroke:#5A5A59;stroke-width:0.9965;stroke-linecap:round;stroke-linejoin:round;enable-background:new    ;}
	
		.st26{opacity:0.9895;fill:url(#path3314_5_);stroke:#5A5A59;stroke-width:0.9965;stroke-linecap:round;stroke-linejoin:round;enable-background:new    ;}
	
		.st27{opacity:0.9895;fill:url(#path3316_5_);stroke:#5A5A59;stroke-width:0.9965;stroke-linecap:round;stroke-linejoin:round;enable-background:new    ;}
	
		.st28{opacity:0.9895;fill:url(#path3318_5_);stroke:#5A5A59;stroke-width:0.9965;stroke-linecap:round;stroke-linejoin:round;enable-background:new    ;}
	
		.st29{opacity:0.9895;fill:url(#path3320_5_);stroke:#5A5A59;stroke-width:0.9965;stroke-linecap:round;stroke-linejoin:round;enable-background:new    ;}
	
		.st30{opacity:0.9895;fill:url(#path3322_5_);stroke:#5A5A59;stroke-width:0.9965;stroke-linecap:round;stroke-linejoin:round;enable-background:new    ;}
	
		.st31{opacity:0.9895;fill:url(#path3308_5_);stroke:#5A5A59;stroke-width:0.9965;stroke-linecap:round;stroke-linejoin:round;enable-background:new    ;}
	
		.st32{opacity:0.9895;fill:url(#path3324_5_);stroke:#5A5A59;stroke-width:0.9965;stroke-linecap:round;stroke-linejoin:round;enable-background:new    ;}
	
		.st33{opacity:0.9895;fill:url(#path3326_5_);stroke:#5A5A59;stroke-width:0.9965;stroke-linecap:round;stroke-linejoin:round;enable-background:new    ;}
	
		.st34{opacity:0.9895;fill:url(#path3328_5_);stroke:#5A5A59;stroke-width:0.9965;stroke-linecap:round;stroke-linejoin:round;enable-background:new    ;}
	
		.st35{opacity:0.9895;fill:url(#path3330_5_);stroke:#5A5A59;stroke-width:0.9965;stroke-linecap:round;stroke-linejoin:round;enable-background:new    ;}
	
		.st36{opacity:0.9895;fill:url(#path3332_5_);stroke:#5A5A59;stroke-width:0.9965;stroke-linecap:round;stroke-linejoin:round;enable-background:new    ;}
	
		.st37{opacity:0.9895;fill:url(#path3334_5_);stroke:#5A5A59;stroke-width:0.9965;stroke-linecap:round;stroke-linejoin:round;enable-background:new    ;}
	
		.st38{opacity:0.9895;fill:url(#path3336_5_);stroke:#5A5A59;stroke-width:0.9965;stroke-linecap:round;stroke-linejoin:round;enable-background:new    ;}
	
		.st39{opacity:0.9895;fill:url(#path3338_5_);stroke:#5A5A59;stroke-width:0.9965;stroke-linecap:round;stroke-linejoin:round;enable-background:new    ;}
	
		.st40{opacity:0.9895;fill:url(#path3340_5_);stroke:#5A5A59;stroke-width:0.9965;stroke-linecap:round;stroke-linejoin:round;enable-background:new    ;}
	
		.st41{opacity:0.9895;fill:url(#path3302_6_);stroke:#5A5A59;stroke-width:0.9965;stroke-linecap:round;stroke-linejoin:round;enable-background:new    ;}
	
		.st42{opacity:0.9895;fill:url(#path3304_6_);stroke:#5A5A59;stroke-width:0.9965;stroke-linecap:round;stroke-linejoin:round;enable-background:new    ;}
	
		.st43{opacity:0.9895;fill:url(#path3306_6_);stroke:#5A5A59;stroke-width:0.9965;stroke-linecap:round;stroke-linejoin:round;enable-background:new    ;}
	
		.st44{opacity:0.9895;fill:url(#path3310_6_);stroke:#5A5A59;stroke-width:0.9965;stroke-linecap:round;stroke-linejoin:round;enable-background:new    ;}
	
		.st45{opacity:0.9895;fill:url(#path3312_6_);stroke:#5A5A59;stroke-width:0.9965;stroke-linecap:round;stroke-linejoin:round;enable-background:new    ;}
	
		.st46{opacity:0.9895;fill:url(#path3314_6_);stroke:#5A5A59;stroke-width:0.9965;stroke-linecap:round;stroke-linejoin:round;enable-background:new    ;}
	
		.st47{opacity:0.9895;fill:url(#path3316_6_);stroke:#5A5A59;stroke-width:0.9965;stroke-linecap:round;stroke-linejoin:round;enable-background:new    ;}
	
		.st48{opacity:0.9895;fill:url(#path3318_6_);stroke:#5A5A59;stroke-width:0.9965;stroke-linecap:round;stroke-linejoin:round;enable-background:new    ;}
	
		.st49{opacity:0.9895;fill:url(#path3320_6_);stroke:#5A5A59;stroke-width:0.9965;stroke-linecap:round;stroke-linejoin:round;enable-background:new    ;}
	
		.st50{opacity:0.9895;fill:url(#path3322_6_);stroke:#5A5A59;stroke-width:0.9965;stroke-linecap:round;stroke-linejoin:round;enable-background:new    ;}
	
		.st51{opacity:0.9895;fill:url(#path3308_6_);stroke:#5A5A59;stroke-width:0.9965;stroke-linecap:round;stroke-linejoin:round;enable-background:new    ;}
	
		.st52{opacity:0.9895;fill:url(#path3324_6_);stroke:#5A5A59;stroke-width:0.9965;stroke-linecap:round;stroke-linejoin:round;enable-background:new    ;}
	
		.st53{opacity:0.9895;fill:url(#path3326_6_);stroke:#5A5A59;stroke-width:0.9965;stroke-linecap:round;stroke-linejoin:round;enable-background:new    ;}
	
		.st54{opacity:0.9895;fill:url(#path3328_6_);stroke:#5A5A59;stroke-width:0.9965;stroke-linecap:round;stroke-linejoin:round;enable-background:new    ;}
	
		.st55{opacity:0.9895;fill:url(#path3330_6_);stroke:#5A5A59;stroke-width:0.9965;stroke-linecap:round;stroke-linejoin:round;enable-background:new    ;}
	
		.st56{opacity:0.9895;fill:url(#path3332_6_);stroke:#5A5A59;stroke-width:0.9965;stroke-linecap:round;stroke-linejoin:round;enable-background:new    ;}
	
		.st57{opacity:0.9895;fill:url(#path3334_6_);stroke:#5A5A59;stroke-width:0.9965;stroke-linecap:round;stroke-linejoin:round;enable-background:new    ;}
	
		.st58{opacity:0.9895;fill:url(#path3336_6_);stroke:#5A5A59;stroke-width:0.9965;stroke-linecap:round;stroke-linejoin:round;enable-background:new    ;}
	
		.st59{opacity:0.9895;fill:url(#path3338_6_);stroke:#5A5A59;stroke-width:0.9965;stroke-linecap:round;stroke-linejoin:round;enable-background:new    ;}
	
		.st60{opacity:0.9895;fill:url(#path3340_6_);stroke:#5A5A59;stroke-width:0.9965;stroke-linecap:round;stroke-linejoin:round;enable-background:new    ;}
	.st61{fill:#004C99;stroke:#5A5A59;stroke-width:0.9965;stroke-linecap:round;stroke-linejoin:round;}
	.st62{opacity:0.3;}
</style>





<g
   inkscape:groupmode="layer"
   id="layer1"
   inkscape:label="red"
   style="display:inline"><g
     id="g1352">
	<g
   id="g1288">
		<linearGradient
   id="path3302_3_"
   gradientUnits="userSpaceOnUse"
   x1="261.125"
   y1="263.52499"
   x2="469.875"
   y2="54.775002">
			<stop
   offset="0.3254"
   style="stop-color:#E63329"
   id="stop1228" />
			<stop
   offset="0.6124"
   style="stop-color:#B92D1F"
   id="stop1230" />
		</linearGradient>
		<path
   id="path3302_4_"
   class="st0"
   d="m 320.7,8.6 c 48.9,-18 67.6,15.3 109.7,6.7 l -71.6,345.9 z" />
		<linearGradient
   id="path3304_3_"
   gradientUnits="userSpaceOnUse"
   x1="334.72501"
   y1="332.22491"
   x2="585.56543"
   y2="81.384598">
			<stop
   offset="0.3254"
   style="stop-color:#E63329"
   id="stop1234" />
			<stop
   offset="0.6124"
   style="stop-color:#B92D1F"
   id="stop1236" />
		</linearGradient>
		<path
   id="path3304_4_"
   class="st1"
   d="m 538.9,49.8 c 50.3,13.9 46.1,53.5 85.4,71.1 l -262.9,238 z" />
		<linearGradient
   id="path3306_3_"
   gradientUnits="userSpaceOnUse"
   x1="439.5"
   y1="437.70001"
   x2="673.79999"
   y2="203.39999">
			<stop
   offset="0.3254"
   style="stop-color:#E63329"
   id="stop1240" />
			<stop
   offset="0.6124"
   style="stop-color:#B92D1F"
   id="stop1242" />
		</linearGradient>
		<path
   id="path3306_4_"
   class="st2"
   d="m 684.4,214 c 32.4,40.6 8.8,68.9 30,105.8 L 361,359.2 Z" />
		<linearGradient
   id="path3310_3_"
   gradientUnits="userSpaceOnUse"
   x1="481.39999"
   y1="480.10001"
   x2="620.15002"
   y2="341.35001">
			<stop
   offset="0.3254"
   style="stop-color:#E63329"
   id="stop1246" />
			<stop
   offset="0.6124"
   style="stop-color:#B92D1F"
   id="stop1248" />
		</linearGradient>
		<path
   id="path3310_4_"
   class="st3"
   d="m 709.1,430.3 c 2.2,51.8 -34.7,61 -39.5,103.4 L 360.5,359.2 Z" />
		<linearGradient
   id="path3312_3_"
   gradientUnits="userSpaceOnUse"
   x1="398.09509"
   y1="571.79498"
   x2="485.49509"
   y2="484.39499">
			<stop
   offset="0.3254"
   style="stop-color:#E63329"
   id="stop1252" />
			<stop
   offset="0.6124"
   style="stop-color:#B92D1F"
   id="stop1254" />
		</linearGradient>
		<path
   id="path3312_4_"
   class="st4"
   d="m 599.2,619 c -28.9,43.2 -63.5,30.1 -92.4,61.5 L 360,358.9 Z" />
		<linearGradient
   id="path3314_3_"
   gradientUnits="userSpaceOnUse"
   x1="249.675"
   y1="665.67499"
   x2="458.42499"
   y2="456.92499">
			<stop
   offset="0.3254"
   style="stop-color:#E63329"
   id="stop1258" />
			<stop
   offset="0.6124"
   style="stop-color:#B92D1F"
   id="stop1260" />
		</linearGradient>
		<path
   id="path3314_4_"
   class="st5"
   d="m 399.1,713.3 c -48.9,18 -68.8,-17.6 -110.8,-9 l 71.6,-345.9 z" />
		<linearGradient
   id="path3316_3_"
   gradientUnits="userSpaceOnUse"
   x1="135.493"
   y1="635.80701"
   x2="386.75"
   y2="384.54999">
			<stop
   offset="0.3254"
   style="stop-color:#E63329"
   id="stop1264" />
			<stop
   offset="0.6124"
   style="stop-color:#B92D1F"
   id="stop1266" />
		</linearGradient>
		<path
   id="path3316_4_"
   class="st6"
   d="M 181.9,667.4 C 131.6,653.5 136.5,613.5 97.4,595.9 l 262.7,-238 z" />
		<linearGradient
   id="path3318_3_"
   gradientUnits="userSpaceOnUse"
   x1="48.525002"
   y1="512.52502"
   x2="282.02499"
   y2="279.0249">
			<stop
   offset="0.3254"
   style="stop-color:#E63329"
   id="stop1270" />
			<stop
   offset="0.6124"
   style="stop-color:#B92D1F"
   id="stop1272" />
		</linearGradient>
		<path
   id="path3318_4_"
   class="st7"
   d="M 38.1,502.1 C 5.7,461.5 28.3,433.9 7.1,396.8 l 353.5,-39.2 z" />
		<linearGradient
   id="path3320_3_"
   gradientUnits="userSpaceOnUse"
   x1="101.275"
   y1="375.375"
   x2="240.075"
   y2="236.575">
			<stop
   offset="0.3254"
   style="stop-color:#E63329"
   id="stop1276" />
			<stop
   offset="0.6124"
   style="stop-color:#B92D1F"
   id="stop1278" />
		</linearGradient>
		<path
   id="path3320_4_"
   class="st8"
   d="M 13.2,287.3 C 11,235.5 47.1,225.4 51.8,183 L 361,357.5 Z" />
		<linearGradient
   id="path3322_3_"
   gradientUnits="userSpaceOnUse"
   x1="235.16949"
   y1="231.36951"
   x2="322.5195"
   y2="144.0195">
			<stop
   offset="0.3254"
   style="stop-color:#E63329"
   id="stop1282" />
			<stop
   offset="0.6124"
   style="stop-color:#B92D1F"
   id="stop1284" />
		</linearGradient>
		<path
   id="path3322_4_"
   class="st9"
   d="M 119.9,96.5 C 148.8,53.3 185.7,67.7 214.6,36.1 L 361.5,357.7 Z" />
	</g>
	<g
   id="g1350">
		<linearGradient
   id="path3308_3_"
   gradientUnits="userSpaceOnUse"
   x1="399.625"
   y1="398.625"
   x2="651.23077"
   y2="147.0192">
			<stop
   offset="0.3254"
   style="stop-color:#E63329"
   id="stop1290" />
			<stop
   offset="0.6124"
   style="stop-color:#B92D1F"
   id="stop1292" />
		</linearGradient>
		<path
   id="path3308_4_"
   class="st10"
   d="m 599.4,98 c 43.5,28.7 53.7,87.5 85.5,116.2 L 361.1,360.1 Z" />
		<linearGradient
   id="path3324_3_"
   gradientUnits="userSpaceOnUse"
   x1="240.35001"
   y1="238.35001"
   x2="396.10001"
   y2="82.599998">
			<stop
   offset="0.3254"
   style="stop-color:#E63329"
   id="stop1296" />
			<stop
   offset="0.6124"
   style="stop-color:#B92D1F"
   id="stop1298" />
		</linearGradient>
		<path
   id="path3324_4_"
   class="st11"
   d="M 184,53 C 224.9,20.9 284.5,29.3 321.7,8.2 l 39.5,351 z" />
		<linearGradient
   id="path3326_3_"
   gradientUnits="userSpaceOnUse"
   x1="282.97501"
   y1="281.375"
   x2="524.32501"
   y2="40.025002">
			<stop
   offset="0.3254"
   style="stop-color:#E63329"
   id="stop1302" />
			<stop
   offset="0.6124"
   style="stop-color:#B92D1F"
   id="stop1304" />
		</linearGradient>
		<path
   id="path3326_4_"
   class="st12"
   d="m 399.1,8.6 c 52.2,-2.2 95.3,39.5 138,44.2 L 361.3,359.7 Z" />
		<linearGradient
   id="path3328_3_"
   gradientUnits="userSpaceOnUse"
   x1="465.27499"
   y1="465.17499"
   x2="675.97498"
   y2="254.47501">
			<stop
   offset="0.3254"
   style="stop-color:#E63329"
   id="stop1308" />
			<stop
   offset="0.6124"
   style="stop-color:#B92D1F"
   id="stop1310" />
		</linearGradient>
		<path
   id="path3328_4_"
   class="st13"
   d="m 709.1,287.6 c 18.2,48.5 -9,102 -0.3,143.8 L 360.4,360.3 Z" />
		<linearGradient
   id="path3330_3_"
   gradientUnits="userSpaceOnUse"
   x1="474.5"
   y1="495.79999"
   x2="575.29999"
   y2="395">
			<stop
   offset="0.3254"
   style="stop-color:#E63329"
   id="stop1314" />
			<stop
   offset="0.6124"
   style="stop-color:#B92D1F"
   id="stop1316" />
		</linearGradient>
		<path
   id="path3330_4_"
   class="st14"
   d="m 684.6,504.3 c -14,49.9 -67.2,77.8 -85,116.6 L 360,360.1 Z" />
		<linearGradient
   id="path3332_3_"
   gradientUnits="userSpaceOnUse"
   x1="324.85001"
   y1="636.15002"
   x2="480.5"
   y2="480.5">
			<stop
   offset="0.3254"
   style="stop-color:#E63329"
   id="stop1320" />
			<stop
   offset="0.6124"
   style="stop-color:#B92D1F"
   id="stop1322" />
		</linearGradient>
		<path
   id="path3332_4_"
   class="st15"
   d="m 537,665.8 c -40.9,32.1 -100.5,23.7 -137.7,44.8 l -39.7,-351 z" />
		<linearGradient
   id="path3334_3_"
   gradientUnits="userSpaceOnUse"
   x1="196.72501"
   y1="678.72498"
   x2="438.07501"
   y2="437.375">
			<stop
   offset="0.3254"
   style="stop-color:#E63329"
   id="stop1326" />
			<stop
   offset="0.6124"
   style="stop-color:#B92D1F"
   id="stop1328" />
		</linearGradient>
		<path
   id="path3334_4_"
   class="st16"
   d="M 322,710.2 C 269.8,712.4 226.7,670.7 184,666 L 359.7,359 Z" />
		<linearGradient
   id="path3336_3_"
   gradientUnits="userSpaceOnUse"
   x1="69.769203"
   y1="571.68073"
   x2="321.42499"
   y2="320.02499">
			<stop
   offset="0.3254"
   style="stop-color:#E63329"
   id="stop1332" />
			<stop
   offset="0.6124"
   style="stop-color:#B92D1F"
   id="stop1334" />
		</linearGradient>
		<path
   id="path3336_4_"
   class="st17"
   d="M 121.6,620.7 C 78.1,592 67.9,533.2 36.1,504.5 L 360,358.6 Z" />
		<linearGradient
   id="path3338_3_"
   gradientUnits="userSpaceOnUse"
   x1="45.275002"
   y1="463.97501"
   x2="255.72501"
   y2="253.52499">
			<stop
   offset="0.3254"
   style="stop-color:#E63329"
   id="stop1338" />
			<stop
   offset="0.6124"
   style="stop-color:#B92D1F"
   id="stop1340" />
		</linearGradient>
		<path
   id="path3338_4_"
   class="st18"
   d="M 12.6,431.3 C -5.6,382.8 21,329 12.2,287.3 l 348.4,71.1 z" />
		<linearGradient
   id="path3340_3_"
   gradientUnits="userSpaceOnUse"
   x1="145.75"
   y1="323.85001"
   x2="246.55"
   y2="223.05">
			<stop
   offset="0.3254"
   style="stop-color:#E63329"
   id="stop1344" />
			<stop
   offset="0.6124"
   style="stop-color:#B92D1F"
   id="stop1346" />
		</linearGradient>
		<path
   id="path3340_4_"
   class="st19"
   d="m 36.4,214.5 c 14,-49.9 67.2,-77.8 85,-116.6 l 239.7,260.9 z" />
	</g>
</g><g
     aria-label="7. Location of the headquarters"
     id="text94680"
     style="font-size:56px;line-height:1.25;-inkscape-font-specification:'sans-serif, Normal'"><path
       d="m 65.97618,362.52181 35.63522,16.37481 0.34202,5.84156 -37.014197,-17.47186 1.355308,23.14785 -4.776975,0.27969 -1.628608,-27.81564 z"
       id="path101973" /><path
       d="m 101.36624,343.51088 -0.31097,6.52775 -7.784143,-0.37082 0.310971,-6.52776 z"
       id="path101975" /><path
       d="m 110.75023,286.52775 -5.67086,25.12581 -39.715847,-8.96381 1.191965,-5.28122 35.021432,7.90429 4.47889,-19.84459 z"
       id="path101977" /><path
       d="m 106.89745,252.08922 q 7.01943,2.53998 9.77939,7.60972 2.75997,5.06973 0.57354,11.1121 -2.20505,6.09379 -7.57013,8.22346 -5.35578,2.10397 -12.375207,-0.43602 -7.019427,-2.53999 -9.788699,-7.58401 -2.78568,-5.07904 -0.580636,-11.17283 2.186436,-6.04236 7.577231,-8.16274 5.365083,-2.12967 12.384511,0.41032 z m -1.80497,4.98816 q -5.579548,-2.01896 -9.070166,-0.81035 -3.51633,1.19932 -4.921232,5.08186 -1.423509,3.93396 0.511144,7.10572 1.918245,3.13674 7.49779,5.15571 5.399564,1.95383 8.993024,0.78243 3.56776,-1.18071 4.98196,-5.08896 1.3956,-3.85683 -0.56477,-7.03789 -1.97677,-3.21608 -7.42775,-5.18852 z"
       id="path101979" /><path
       d="m 133.15205,229.04633 q -0.0623,2.84898 -0.50146,5.2315 -0.42684,2.35812 -1.59944,4.67606 -1.49352,2.95232 -3.59416,4.98464 -2.12503,2.01998 -4.77049,2.88803 -2.6578,0.89245 -5.83545,0.51067 -3.17765,-0.38177 -6.76435,-2.19621 -6.68542,-3.38202 -8.64025,-8.96745 -1.942481,-5.60983 1.10627,-11.63646 1.18494,-2.34234 2.9793,-4.25381 1.80669,-1.93588 3.70869,-3.33324 l 5.09946,2.57971 -0.12343,0.24399 q -2.69627,1.27136 -4.71022,3.07174 -2.0016,1.77599 -3.07545,3.89873 -1.9749,3.9039 -0.48769,7.50609 1.47517,3.56546 6.55023,6.13283 4.92866,2.49331 8.69907,1.64278 3.75836,-0.88728 5.78263,-4.88878 0.70356,-1.39076 1.06582,-3.01547 0.36225,-1.6247 0.35679,-3.06771 -0.006,-1.25958 -0.12315,-2.42184 -0.14123,-1.17462 -0.29681,-1.89684 l 0.12343,-0.24399 z"
       id="path101981" /><path
       d="m 151.44112,204.49655 -2.83897,4.25275 -2.7063,-1.80662 q 0.007,0.82664 0.0593,2.27518 0.0446,1.41061 -0.15328,2.59356 -0.19047,1.41805 -0.77542,3.03304 -0.56221,1.63017 -1.8071,3.49501 -2.29243,3.43404 -6.16071,4.30378 -3.86827,0.86975 -7.39328,-1.48341 -2.88823,-1.92807 -3.8423,-4.34031 -0.96162,-2.45016 -0.45166,-5.43027 0.52513,-3.00286 2.33224,-6.49787 1.8071,-3.49501 4.11496,-7.34615 l -0.65952,-0.44027 q -1.45548,-0.97162 -2.75983,-1.08619 -1.28916,-0.1373 -2.47259,0.4535 -1.13034,0.5605 -2.16244,1.7126 -1.03211,1.1521 -1.95819,2.53936 -1.12345,1.68291 -2.05014,4.05606 -0.94943,2.35797 -1.5806,5.12567 l -0.15181,0.22742 -4.34372,-2.8997 q 0.49386,-1.47853 1.66339,-4.11697 1.16954,-2.63844 2.70289,-4.93538 1.79143,-2.68355 3.56708,-4.35847 1.76808,-1.71285 3.80858,-2.45479 2.00258,-0.73439 4.16374,-0.37662 2.16115,0.35778 4.61729,1.9974 z m -9.09302,0.0778 -7.07276,-4.7215 q -1.19191,2.03172 -2.74074,4.84435 -1.53366,2.78989 -2.13391,4.62479 -0.70665,2.19128 -0.35137,4.07228 0.33253,1.86582 2.2656,3.15626 2.18323,1.45744 4.17812,0.88231 1.97215,-0.59032 3.77877,-3.29662 1.50298,-2.25145 1.88368,-4.6932 0.35796,-2.45693 0.19261,-4.86867 z"
       id="path101983" /><path
       d="m 167.58206,184.39788 q -0.63453,1.35799 -1.54922,2.83835 -0.89717,1.45936 -1.75556,2.48812 -2.9956,3.59016 -6.48627,3.84706 -3.49066,0.2569 -7.75267,-3.29929 l -12.4711,-10.40578 -2.22481,2.66638 -3.31723,-2.76787 2.22481,-2.66638 -6.73943,-5.62333 3.29341,-3.94708 6.73943,5.62333 6.79705,-8.14611 3.31723,2.76787 -6.79705,8.1461 10.68652,8.91674 q 1.84757,1.5416 2.9674,2.33353 1.09883,0.77441 2.42205,1.02381 1.22521,0.23883 2.28981,-0.22614 1.06112,-0.50348 2.44505,-2.1621 0.80583,-0.96577 1.40881,-2.24326 0.58197,-1.29501 0.77842,-1.91457 l 0.17518,-0.20995 z"
       id="path101985" /><path
       d="m 150.30291,151.39651 -4.02408,4.17259 -3.838,-3.70139 4.02408,-4.17259 z m 25.43761,24.98807 -3.56853,3.70023 -21.98484,-21.20235 3.56852,-3.70022 z"
       id="path101987" /><path
       d="m 192.68516,140.55476 q 4.85608,5.66943 4.75916,11.44093 -0.0969,5.7715 -4.97719,9.95164 -4.92181,4.21572 -10.63969,3.42481 -5.69711,-0.8087 -10.55319,-6.47812 -4.85607,-5.66943 -4.77992,-11.42315 0.0791,-5.79227 5.00094,-10.00798 4.88028,-4.18014 10.61594,-3.36847 5.71788,0.79091 10.57395,6.46034 z m -4.02882,3.45084 q -3.85996,-4.50647 -7.49289,-5.17505 -3.65071,-0.68935 -6.78655,1.99661 -3.17737,2.72154 -3.05707,6.43482 0.12329,3.67473 3.98325,8.1812 3.73544,4.36109 7.43952,5.11274 3.68629,0.73089 6.8429,-1.97286 3.11507,-2.66818 2.97698,-6.40223 -0.13512,-3.7726 -3.90614,-8.17523 z"
       id="path101989" /><path
       d="m 230.525,133.58217 -4.31822,2.78909 -9.43541,-14.60845 q -1.14234,-1.76863 -2.34305,-3.17405 -1.21554,-1.42839 -2.33055,-1.94517 -1.19733,-0.59382 -2.57359,-0.35593 -1.39111,0.21491 -3.1138,1.32758 -1.76863,1.14234 -3.1343,3.26136 -1.36567,2.11902 -2.259,4.61654 l 12.37286,19.15636 -4.31822,2.78909 -16.57133,-25.65666 4.31822,-2.78909 1.83961,2.84819 q 0.9383,-2.98229 2.48916,-5.31857 1.55085,-2.33628 3.8248,-3.805 4.15744,-2.68524 7.9566,-1.59097 3.79915,1.09427 6.84044,5.80297 z"
       id="path101991" /><path
       d="m 275.98695,96.86254 q 2.63521,6.98424 0.5787,12.37779 -2.05652,5.39354 -8.06859,7.66195 -6.06324,2.28771 -11.17004,-0.40306 -5.08122,-2.70042 -7.71643,-9.68465 -2.63521,-6.984237 -0.60428,-12.368134 2.04687,-5.419132 8.1101,-7.706844 6.01208,-2.268406 11.12853,0.447945 5.1068,2.690767 7.74201,9.675003 z m -4.96316,1.872642 q -2.09465,-5.551572 -5.28277,-7.417329 -3.19778,-1.891341 -7.06085,-0.433769 -3.91425,1.476877 -5.06563,5.009192 -1.13545,3.497079 0.95921,9.048654 2.02708,5.37249 5.25381,7.34058 3.21709,1.9425 7.10574,0.47528 3.8375,-1.44792 4.97923,-5.00582 1.15766,-3.59313 -0.88874,-9.016788 z"
       id="path101993" /><path
       d="m 295.49609,68.676677 -0.26452,0.06927 q -0.88235,-0.02333 -2.26728,0.08495 -1.39186,0.08183 -2.39703,0.345059 -3.20066,0.838168 -4.28145,2.64755 -1.06127,1.776003 -0.0915,5.479254 l 0.26323,1.005168 8.96715,-2.348255 1.09447,4.179383 -8.80845,2.306693 6.643,25.367266 -4.97293,1.30228 -6.643,-25.367269 -3.35938,0.879729 -1.09447,-4.179383 3.35938,-0.879729 -0.2563,-0.978717 q -1.37847,-5.263906 0.50599,-8.75357 1.87754,-3.516115 6.82403,-4.811465 1.66646,-0.436401 3.03061,-0.624041 1.3906,-0.194566 2.55699,-0.273886 z"
       id="path101995" /><path
       d="m 343.43735,99.538905 q -1.40362,0.525965 -3.09299,0.943265 -1.66216,0.41457 -2.99527,0.54869 -4.6523,0.46807 -7.32549,-1.791301 -2.6732,-2.259374 -3.22886,-7.782273 l -1.62592,-16.160601 -3.45522,0.34763 -0.43248,-4.298611 3.45521,-0.34763 -0.87865,-8.733255 5.1148,-0.514601 0.87866,8.733254 10.55608,-1.062051 0.43248,4.298611 -10.55608,1.062051 1.39326,13.848057 q 0.24088,2.394163 0.48656,3.743534 0.24295,1.322165 1.01361,2.426346 0.70803,1.028037 1.79388,1.440943 1.11032,0.382963 3.25963,0.16672 1.25149,-0.125913 2.57623,-0.616458 1.32199,-0.517752 1.8959,-0.822829 l 0.27206,-0.02737 z"
       id="path101997" /><path
       d="m 375.21575,99.641076 -5.14034,-0.05405 0.18283,-17.389664 q 0.0221,-2.105352 -0.20468,-3.939869 -0.22653,-1.86186 -0.87182,-2.907764 -0.67149,-1.155561 -1.95082,-1.715917 -1.27905,-0.587699 -3.32972,-0.60926 -2.10535,-0.02214 -4.41302,0.992722 -2.30767,1.014857 -4.42999,2.605913 l -0.23975,22.803427 -5.14034,-0.05405 0.44731,-42.544524 5.14034,0.05405 -0.16185,15.39368 q 2.4271,-1.970685 5.00906,-3.064694 2.58196,-1.094009 5.28884,-1.065549 4.94894,0.05203 7.51512,3.059648 2.56618,3.007614 2.50725,8.612773 z"
       id="path101999" /><path
       d="m 412.52701,89.579996 -22.27013,-3.235303 q -0.4049,2.787149 0.13126,4.99261 0.54008,2.178401 1.80868,3.716606 1.21841,1.503283 3.0453,2.431824 1.85395,0.932473 4.18109,1.270548 3.0848,0.448147 6.37357,-0.317462 3.31975,-0.788737 4.81865,-1.78674 l 0.27059,0.03931 -0.80587,5.547239 q -2.72792,0.70893 -5.51297,1.05036 -2.78505,0.34143 -5.73455,-0.0871 -7.5226,-1.09285 -11.15424,-5.765052 -3.62772,-4.699267 -2.5388,-12.194802 1.07712,-7.414357 5.74192,-11.185232 4.69187,-3.766944 11.29443,-2.807754 6.11549,0.888431 8.89787,4.939906 2.80944,4.055406 1.85418,10.630912 z m -4.38584,-4.615989 q 0.55474,-4.008765 -1.12925,-6.491503 -1.65694,-2.478806 -5.7159,-3.068472 -4.08601,-0.593598 -6.87125,1.460915 -2.75818,2.058444 -3.60181,5.58315 z"
       id="path102001" /><path
       d="m 461.00364,119.95211 -4.82161,-1.78273 6.03093,-16.31139 q 0.73016,-1.974812 1.13467,-3.778495 0.414,-1.829329 0.15881,-3.031492 -0.2429,-1.314232 -1.25865,-2.272851 -1.00627,-0.984266 -2.92978,-1.695461 -1.97481,-0.73016 -4.48948,-0.552117 -2.51468,0.178042 -5.04896,0.961046 l -7.90848,21.38948 -4.82161,-1.78273 14.75492,-39.906505 4.8216,1.782728 -5.3387,14.439178 q 2.94916,-1.037752 5.74875,-1.197909 2.79959,-0.160157 5.33862,0.77862 4.64209,1.71635 6.04493,5.412703 1.40285,3.696354 -0.54108,8.953955 z"
       id="path102003" /><path
       d="m 499.52144,123.00153 -19.89493,-10.51747 q -1.31629,2.48989 -1.55092,4.74742 -0.22185,2.23336 0.45733,4.10796 0.64362,1.82487 2.05325,3.31238 1.4338,1.50029 3.51273,2.59932 2.7558,1.45686 6.11085,1.83867 3.392,0.37043 5.1388,-0.067 l 0.24174,0.1278 -2.61978,4.9556 q -2.80768,-0.2471 -5.54592,-0.85958 -2.73824,-0.61247 -5.37317,-2.00543 -6.72028,-3.55268 -8.57446,-9.17233 -1.8414,-5.64381 1.69851,-12.33992 3.50156,-6.62359 9.16093,-8.61142 5.68354,-1.975042 11.58192,1.14314 5.46325,2.88815 6.72555,7.63817 1.28648,4.7628 -1.81893,10.637 z m -2.58354,-5.81964 q 1.86718,-3.59049 1.11346,-6.49423 -0.72954,-2.89097 -4.35559,-4.80788 -3.65023,-1.9297 -6.96323,-0.92839 -3.28883,1.01409 -5.2658,4.05166 z"
       id="path102005" /><path
       d="m 518.62628,153.91709 -4.17935,-2.94597 1.87471,-2.65958 q -0.82655,-0.0139 -2.27595,0.002 -1.41129,0.009 -2.58884,-0.21904 -1.41276,-0.22639 -3.01238,-0.85213 -1.61538,-0.60339 -3.44803,-1.89521 -3.37477,-2.37883 -4.14608,-6.26792 -0.77131,-3.8891 1.67054,-7.35326 2.00073,-2.83838 4.4364,-3.73093 2.47378,-0.89915 5.43999,-0.31373 2.98857,0.60116 6.4366,2.49637 3.44803,1.8952 7.23937,4.30004 l 0.45686,-0.64814 q 1.00824,-1.43036 1.15587,-2.73138 0.16997,-1.28526 -0.39061,-2.4833 -0.53164,-1.14419 -1.65718,-2.2052 -1.12554,-1.06101 -2.48886,-2.022 -1.65385,-1.16578 -4.00273,-2.15239 -2.33312,-1.00896 -5.08391,-1.71015 l -0.22349,-0.15754 3.00898,-4.26874 q 1.46552,0.53122 4.07344,1.76732 2.60791,1.23611 4.8652,2.82725 2.63723,1.85895 4.26656,3.67652 1.66743,1.81098 2.35736,3.86965 0.68334,2.02056 0.27084,4.17195 -0.4125,2.15139 -2.11391,4.56512 z m 0.15295,-9.09206 4.89945,-6.95068 q -2.00083,-1.24308 -4.77325,-2.86278 -2.75007,-1.60395 -4.56916,-2.25057 -2.17264,-0.76203 -4.06205,-0.4546 -1.87365,0.28509 -3.21273,2.18479 -1.51237,2.14554 -0.98804,4.15439 0.54009,1.98649 3.19967,3.8612 2.21259,1.55963 4.64389,2.00216 2.44706,0.42019 4.86222,0.31609 z"
       id="path102007" /><path
       d="m 544.59298,176.90947 -3.78212,-3.48161 2.16675,-2.35377 q -2.92587,-0.0918 -5.41847,-0.93693 -2.4926,-0.8451 -4.56472,-2.75258 -4.02352,-3.70385 -3.54544,-8.98723 0.4982,-5.26487 5.55396,-10.75698 2.62973,-2.8567 5.49007,-4.34898 2.88045,-1.47377 5.71307,-1.76512 2.77546,-0.26963 5.32682,0.5924 2.57147,0.88054 4.52288,2.67691 1.77035,1.62969 2.78648,3.27123 1.03465,1.62143 1.82122,3.79496 l 8.96331,-9.73693 3.78212,3.48162 z m 1.31067,-9.01396 11.87083,-12.89539 q -0.89928,-2.09146 -1.86559,-3.46415 -0.96631,-1.37268 -2.39466,-2.68755 -3.17858,-2.92603 -6.98605,-2.34279 -3.80746,0.58325 -7.54835,4.64701 -3.68533,4.0034 -4.24333,7.35494 -0.53948,3.33142 2.47816,6.10931 1.60941,1.48154 3.90723,2.296 2.31633,0.79434 4.78176,0.98262 z"
       id="path102009" /><path
       d="m 558.78115,210.50592 -3.28924,-3.95056 11.30534,-9.41281 q -3.09817,-0.51599 -5.38032,-1.67582 -2.26114,-1.17732 -4.01074,-3.27868 -3.48169,-4.18171 -2.34861,-9.35921 1.17158,-5.17399 6.84526,-9.89789 3.02596,-2.51941 6.0548,-3.58241 3.06734,-1.05947 5.83309,-0.94274 2.68872,0.1097 5.08641,1.28008 2.39768,1.17037 4.12978,3.25072 1.57463,1.89123 2.36158,3.69109 0.80444,1.82088 1.24461,4.0162 l 1.21861,-0.58764 3.07928,3.6984 z m 11.33626,-16.12773 13.28062,-11.05742 q -0.62921,-2.25143 -1.38477,-3.75719 -0.75557,-1.50576 -1.98028,-2.97671 -2.85184,-3.42523 -6.67151,-3.26934 -3.79865,0.13839 -7.8753,3.5326 -4.11867,3.42921 -5.15639,6.7127 -0.99922,3.28702 1.57268,6.37602 1.43467,1.72312 3.60481,2.83388 2.19116,1.09327 4.61014,1.60546 z"
       id="path102011" /><path
       d="m 586.87039,232.94765 -2.73241,-4.3543 2.87199,-1.80223 q -3.11783,-1.11026 -5.30874,-2.54392 -2.19091,-1.43366 -3.71699,-3.86558 -2.558,-4.07638 -1.50409,-7.90132 1.07707,-3.83948 5.89459,-6.86257 l 16.79187,-10.53721 2.73241,4.35431 -14.73052,9.24367 q -1.9687,1.2354 -3.26526,2.30727 -1.2734,1.05733 -1.89145,2.28449 -0.62667,1.26485 -0.46493,2.55147 0.16174,1.28661 1.35354,3.18583 1.06099,1.69077 3.19104,3.13033 2.14459,1.46273 4.60116,2.34231 l 19.31644,-12.12142 2.73241,4.3543 z"
       id="path102013" /><path
       d="m 601.49544,263.49403 -2.12466,-4.65097 2.9597,-1.35205 q -0.70686,-0.42864 -1.96643,-1.14589 -1.22334,-0.70375 -2.1255,-1.4941 -1.10605,-0.90763 -2.17219,-2.25436 -1.09102,-1.33537 -2.02269,-3.37483 -1.71564,-3.75559 -0.42148,-7.50328 1.29415,-3.74769 5.14923,-5.50877 3.15867,-1.44295 5.71218,-0.98612 2.58975,0.47035 4.85651,2.47108 2.27812,2.02561 4.30081,5.40044 2.02268,3.37483 4.085,7.36285 l 0.72127,-0.32949 q 1.59177,-0.72716 2.37505,-1.7764 0.79464,-1.02437 0.91436,-2.34165 0.11757,-1.25618 -0.31972,-2.73988 -0.43729,-1.4837 -1.13036,-3.00086 -0.84078,-1.84048 -2.37214,-3.87655 -1.50648,-2.04743 -3.52882,-4.03957 l -0.11362,-0.24872 4.75045,-2.17011 q 0.99797,1.19751 2.62729,3.57962 1.62931,2.38212 2.77686,4.89414 1.3407,2.93483 1.83175,5.32589 0.52728,2.40456 0.0855,4.53034 -0.42829,2.08954 -1.86897,3.73972 -1.44067,1.65017 -4.12679,2.87725 z m 4.71499,-7.77547 7.73503,-3.53353 q -1.10148,-2.08214 -2.67953,-4.87848 -1.56669,-2.77147 -2.81185,-4.24685 -1.49235,-1.75327 -3.27914,-2.44011 -1.76193,-0.69821 -3.876,0.26755 -2.38766,1.09073 -2.94737,3.09001 -0.53485,1.98791 0.81721,4.94762 1.12482,2.46227 3.00161,4.06998 1.90166,1.59635 4.04004,2.72381 z"
       id="path102015" /><path
       d="m 634.5063,283.10867 -0.0857,-0.25966 q -0.10023,-1.17628 -0.33912,-2.24921 -0.20436,-1.05554 -0.66708,-2.45773 -0.74549,-2.25907 -2.45227,-4.02816 -1.6808,-1.77766 -3.90742,-3.20244 l -20.59136,6.79515 -1.61096,-4.88169 29.00448,-9.57147 1.61095,4.88168 -4.28445,1.41387 q 3.29669,2.13704 4.98581,4.02713 1.72365,1.90749 2.48628,4.2185 0.41988,1.27236 0.53049,1.86933 0.13659,0.58839 0.33186,1.7909 z"
       id="path102017" /><path
       d="m 615.78729,311.03795 q -0.70523,-1.32266 -1.34015,-2.94284 -0.62864,-1.59356 -0.93617,-2.89764 -1.07322,-4.55094 0.81667,-7.49697 1.88988,-2.94603 7.29247,-4.22008 l 15.80856,-3.72803 -0.79707,-3.37994 4.20497,-0.99163 0.79707,3.37994 8.54301,-2.01464 1.17991,5.00338 -8.54301,2.01464 2.43514,10.32613 -4.20497,0.99163 -2.43514,-10.32613 -13.54639,3.19456 q -2.34201,0.5523 -3.64759,0.97256 -1.27897,0.41398 -2.27273,1.32259 -0.92647,0.83654 -1.19364,1.96711 -0.23428,1.15091 0.26154,3.25339 0.2887,1.22424 0.94848,2.47333 0.6864,1.24282 1.064,1.77184 l 0.0628,0.26614 z"
       id="path102019" /><path
       d="m 634.59304,340.68997 -2.86651,-22.32059 q -2.79346,0.35875 -4.77381,1.46769 -1.95322,1.10546 -3.09407,2.74066 -1.12069,1.57748 -1.5243,3.58666 -0.40013,2.0363 -0.10059,4.36871 0.39706,3.0918 2.01805,6.05398 1.65159,2.98582 3.01558,4.1615 l 0.0348,0.27121 -5.5598,0.71401 q -1.41573,-2.43718 -2.49281,-5.02811 -1.07709,-2.59094 -1.45674,-5.54713 -0.96827,-7.53965 2.55653,-12.29297 3.55193,-4.75682 11.06445,-5.72161 7.43116,-0.95434 12.31661,2.52593 4.88893,3.50739 5.73878,10.12492 0.78716,6.12934 -2.36789,9.89786 -3.15156,3.79564 -9.74197,4.64201 z m 3.26804,-5.4647 q 4.01042,-0.5426 5.94948,-2.83168 1.94255,-2.26196 1.4201,-6.33011 -0.52594,-4.09527 -3.25318,-6.22618 -2.72375,-2.10378 -6.34552,-1.96948 z"
       id="path102021" /><path
       d="m 645.49379,368.93741 -0.005,-0.27338 q 0.25035,-1.15369 0.33777,-2.24942 0.1153,-1.06893 0.0857,-2.5452 -0.0477,-2.37843 -1.15832,-4.57144 -1.08327,-2.19356 -2.79203,-4.21047 l -21.67924,0.43486 -0.10309,-5.13959 30.53682,-0.61254 0.1031,5.13959 -4.51081,0.0905 q 2.52186,3.01253 3.57999,5.31599 1.08601,2.33026 1.13482,4.76336 0.0269,1.33957 -0.0431,1.94266 -0.0426,0.60254 -0.20985,1.80926 z"
       id="path102023" /><path
       d="m 627.28967,396.74967 q -4.16982,-0.33912 -6.5592,-4.01756 -2.39159,-3.65119 -1.90619,-9.61976 0.27484,-3.37947 1.29572,-6.14959 1.04591,-2.74064 2.15494,-4.57083 l 5.75055,0.46768 -0.0222,0.27253 q -2.02327,2.27709 -3.35501,5.15909 -1.3045,2.88422 -1.52614,5.60959 -0.27484,3.37947 0.66015,5.37589 0.935,1.99643 3.27883,2.18704 1.79874,0.14629 2.8096,-0.81399 1.01085,-0.96029 1.90432,-3.8505 0.33394,-1.0702 0.80506,-2.8151 0.4689,-1.71764 0.96792,-3.13106 1.38872,-3.91986 3.57018,-5.44336 2.20649,-1.49403 5.2044,-1.25022 1.88051,0.15294 3.48093,1.05125 1.5982,0.92556 2.77783,2.61267 1.1568,1.63039 1.70204,4.03405 0.57027,2.43314 0.33311,5.3493 -0.22165,2.72537 -1.12907,5.44985 -0.88239,2.75394 -1.98699,4.52962 l -5.47801,-0.44551 0.0222,-0.27254 q 1.60403,-1.8448 2.81347,-4.57214 1.23668,-2.72513 1.45611,-5.42325 0.2283,-2.80714 -0.70448,-4.83082 -0.90553,-2.02146 -3.03133,-2.19434 -1.88051,-0.15294 -2.9297,0.9414 -1.04697,1.06708 -1.8549,3.58017 -0.4423,1.3906 -0.9112,3.10824 -0.47112,1.7449 -0.83896,2.89465 -1.10797,3.50375 -3.25487,5.27696 -2.17415,1.771 -5.49911,1.50059 z"
       id="path102025" /></g></g><g
   inkscape:groupmode="layer"
   id="layer2"
   inkscape:label="white"
   style="display:none"><g
     class="st20"
     id="g1478">
	<g
   id="g1414">
		
			<linearGradient
   id="path3302_5_"
   gradientUnits="userSpaceOnUse"
   x1="396.25711"
   y1="-13.6055"
   x2="322.9931"
   y2="-18.4254"
   gradientTransform="translate(0,252.6096)">
			<stop
   offset="0"
   style="stop-color:#FFFFFF"
   id="stop1354" />
			<stop
   offset="1"
   style="stop-color:#D8D8D8"
   id="stop1356" />
		</linearGradient>
		<path
   id="path3302_2_"
   class="st21"
   d="m 331.5,114.8 c 34.3,-12.7 47.3,10.7 76.8,4.7 l -50.1,242.2 z" />
		
			<linearGradient
   id="path3304_5_"
   gradientUnits="userSpaceOnUse"
   x1="468.2041"
   y1="31.6611"
   x2="408.6066"
   y2="-17.363001"
   gradientTransform="translate(0,252.6096)">
			<stop
   offset="0"
   style="stop-color:#FFFFFF"
   id="stop1360" />
			<stop
   offset="1"
   style="stop-color:#D8D8D8"
   id="stop1362" />
		</linearGradient>
		<path
   id="path3304_2_"
   class="st22"
   d="m 485.4,142.4 c 35.2,9.8 32.3,37.5 59.7,49.8 L 361.2,358.8 Z" />
		
			<linearGradient
   id="path3306_5_"
   gradientUnits="userSpaceOnUse"
   x1="490.23071"
   y1="107.4641"
   x2="472.0347"
   y2="35.6376"
   gradientTransform="translate(0,252.6096)">
			<stop
   offset="0"
   style="stop-color:#FFFFFF"
   id="stop1366" />
			<stop
   offset="1"
   style="stop-color:#D8D8D8"
   id="stop1368" />
		</linearGradient>
		<path
   id="path3306_2_"
   class="st23"
   d="m 587.4,257.4 c 22.7,28.4 6.2,48.3 21,74.1 L 361,359 Z" />
		
			<linearGradient
   id="path3310_5_"
   gradientUnits="userSpaceOnUse"
   x1="465.13171"
   y1="180.78439"
   x2="493.8765"
   y2="111.7968"
   gradientTransform="translate(0,252.6096)">
			<stop
   offset="0"
   style="stop-color:#FFFFFF"
   id="stop1372" />
			<stop
   offset="1"
   style="stop-color:#D8D8D8"
   id="stop1374" />
		</linearGradient>
		<path
   id="path3310_2_"
   class="st24"
   d="m 604.7,408.8 c 1.5,36.3 -24.2,42.7 -27.7,72.4 L 360.6,359 Z" />
		
			<linearGradient
   id="path3312_5_"
   gradientUnits="userSpaceOnUse"
   x1="397.4299"
   y1="231.8116"
   x2="458.02921"
   y2="190.4502"
   gradientTransform="translate(0,252.6096)">
			<stop
   offset="0"
   style="stop-color:#FFFFFF"
   id="stop1378" />
			<stop
   offset="1"
   style="stop-color:#D8D8D8"
   id="stop1380" />
		</linearGradient>
		<path
   id="path3312_2_"
   class="st25"
   d="m 527.8,540.9 c -20.3,30.2 -44.4,21 -64.7,43.1 L 360.2,358.8 Z" />
		
			<linearGradient
   id="path3314_5_"
   gradientUnits="userSpaceOnUse"
   x1="323.90659"
   y1="227.9371"
   x2="399.09619"
   y2="235.6488"
   gradientTransform="translate(0,252.6096)">
			<stop
   offset="0"
   style="stop-color:#FFFFFF"
   id="stop1384" />
			<stop
   offset="1"
   style="stop-color:#D8D8D8"
   id="stop1386" />
		</linearGradient>
		<path
   id="path3314_2_"
   class="st26"
   d="m 387.7,607 c -34.3,12.7 -48.2,-12.3 -77.6,-6.3 l 50.1,-242.2 z" />
		
			<linearGradient
   id="path3316_5_"
   gradientUnits="userSpaceOnUse"
   x1="259.379"
   y1="183.4431"
   x2="314.16089"
   y2="232.4586"
   gradientTransform="translate(0,252.6096)">
			<stop
   offset="0"
   style="stop-color:#FFFFFF"
   id="stop1390" />
			<stop
   offset="1"
   style="stop-color:#D8D8D8"
   id="stop1392" />
		</linearGradient>
		<path
   id="path3316_2_"
   class="st27"
   d="m 235.5,574.8 c -35.2,-9.8 -31.8,-37.7 -59.2,-50 L 360.2,358.2 Z" />
		
			<linearGradient
   id="path3318_5_"
   gradientUnits="userSpaceOnUse"
   x1="229.8683"
   y1="101.032"
   x2="249.9808"
   y2="173.8203"
   gradientTransform="translate(0,252.6096)">
			<stop
   offset="0"
   style="stop-color:#FFFFFF"
   id="stop1396" />
			<stop
   offset="1"
   style="stop-color:#D8D8D8"
   id="stop1398" />
		</linearGradient>
		<path
   id="path3318_2_"
   class="st28"
   d="m 134.9,459.1 c -22.7,-28.4 -6.8,-47.7 -21.7,-73.7 L 360.6,358 Z" />
		
			<linearGradient
   id="path3320_5_"
   gradientUnits="userSpaceOnUse"
   x1="257.0575"
   y1="26.767599"
   x2="229.2776"
   y2="99.57"
   gradientTransform="translate(0,252.6096)">
			<stop
   offset="0"
   style="stop-color:#FFFFFF"
   id="stop1402" />
			<stop
   offset="1"
   style="stop-color:#D8D8D8"
   id="stop1404" />
		</linearGradient>
		<path
   id="path3320_2_"
   class="st29"
   d="m 117.5,308.7 c -1.5,-36.3 23.7,-43.3 27,-73.1 L 361,357.8 Z" />
		
			<linearGradient
   id="path3322_5_"
   gradientUnits="userSpaceOnUse"
   x1="321.81561"
   y1="-18.138"
   x2="256.3974"
   y2="24.191601"
   gradientTransform="translate(0,252.6096)">
			<stop
   offset="0"
   style="stop-color:#FFFFFF"
   id="stop1408" />
			<stop
   offset="1"
   style="stop-color:#D8D8D8"
   id="stop1410" />
		</linearGradient>
		<path
   id="path3322_2_"
   class="st30"
   d="m 192.2,175.1 c 20.3,-30.2 46.1,-20.2 66.3,-42.3 L 361.3,358 Z" />
	</g>
	<g
   id="g1476">
		
			<linearGradient
   id="path3308_5_"
   gradientUnits="userSpaceOnUse"
   x1="361"
   y1="579.33002"
   x2="587.70001"
   y2="579.33002"
   gradientTransform="matrix(1,0,0,-1,0,847.28)">
			<stop
   offset="0"
   style="stop-color:#FFFFFF"
   id="stop1416" />
			<stop
   offset="1"
   style="stop-color:#D8D8D8"
   id="stop1418" />
		</linearGradient>
		<path
   id="path3308_2_"
   class="st31"
   d="m 527.9,176.2 c 30.4,20.1 37.6,61.3 59.8,81.3 L 361,359.7 Z" />
		
			<linearGradient
   id="path3324_5_"
   gradientUnits="userSpaceOnUse"
   x1="237"
   y1="611.13"
   x2="361.10001"
   y2="611.13"
   gradientTransform="matrix(1,0,0,-1,0,847.28)">
			<stop
   offset="0"
   style="stop-color:#FFFFFF"
   id="stop1422" />
			<stop
   offset="1"
   style="stop-color:#D8D8D8"
   id="stop1424" />
		</linearGradient>
		<path
   id="path3324_2_"
   class="st32"
   d="m 237,144.7 c 28.7,-22.5 70.4,-16.5 96.4,-31.4 L 361.1,359 Z" />
		
			<linearGradient
   id="path3326_5_"
   gradientUnits="userSpaceOnUse"
   x1="361.10001"
   y1="610.75787"
   x2="484.10001"
   y2="610.75787"
   gradientTransform="matrix(1,0,0,-1,0,847.28)">
			<stop
   offset="0"
   style="stop-color:#FFFFFF"
   id="stop1428" />
			<stop
   offset="1"
   style="stop-color:#D8D8D8"
   id="stop1430" />
		</linearGradient>
		<path
   id="path3326_2_"
   class="st33"
   d="m 387.6,113.6 c 36.6,-1.5 66.7,27.7 96.5,31 l -123,214.9 z" />
		
			<linearGradient
   id="path3328_5_"
   gradientUnits="userSpaceOnUse"
   x1="360.60001"
   y1="488.03"
   x2="609.17572"
   y2="488.03"
   gradientTransform="matrix(1,0,0,-1,0,847.28)">
			<stop
   offset="0"
   style="stop-color:#FFFFFF"
   id="stop1434" />
			<stop
   offset="1"
   style="stop-color:#D8D8D8"
   id="stop1436" />
		</linearGradient>
		<path
   id="path3328_2_"
   class="st34"
   d="m 604.7,308.9 c 12.7,33.9 -6.3,71.4 -0.2,100.7 L 360.6,359.8 Z" />
		
			<linearGradient
   id="path3330_5_"
   gradientUnits="userSpaceOnUse"
   x1="360.20001"
   y1="396.28"
   x2="587.5"
   y2="396.28"
   gradientTransform="matrix(1,0,0,-1,0,847.28)">
			<stop
   offset="0"
   style="stop-color:#FFFFFF"
   id="stop1440" />
			<stop
   offset="1"
   style="stop-color:#D8D8D8"
   id="stop1442" />
		</linearGradient>
		<path
   id="path3330_2_"
   class="st35"
   d="M 587.5,460.6 C 577.7,495.5 540.4,515 528,542.3 L 360.2,359.7 Z" />
		
			<linearGradient
   id="path3332_5_"
   gradientUnits="userSpaceOnUse"
   x1="360"
   y1="365.03"
   x2="484.20001"
   y2="365.03"
   gradientTransform="matrix(1,0,0,-1,0,847.28)">
			<stop
   offset="0"
   style="stop-color:#FFFFFF"
   id="stop1446" />
			<stop
   offset="1"
   style="stop-color:#D8D8D8"
   id="stop1448" />
		</linearGradient>
		<path
   id="path3332_2_"
   class="st36"
   d="m 484.2,573.7 c -28.7,22.5 -70.4,16.5 -96.4,31.4 L 360,359.4 Z" />
		
			<linearGradient
   id="path3334_5_"
   gradientUnits="userSpaceOnUse"
   x1="237.10001"
   y1="365.45209"
   x2="360.10001"
   y2="365.45209"
   gradientTransform="matrix(1,0,0,-1,0,847.28)">
			<stop
   offset="0"
   style="stop-color:#FFFFFF"
   id="stop1452" />
			<stop
   offset="1"
   style="stop-color:#D8D8D8"
   id="stop1454" />
		</linearGradient>
		<path
   id="path3334_2_"
   class="st37"
   d="m 333.6,604.8 c -36.6,1.5 -66.7,-27.7 -96.5,-31 l 123,-215 z" />
		
			<linearGradient
   id="path3336_5_"
   gradientUnits="userSpaceOnUse"
   x1="133.5"
   y1="396.92999"
   x2="360.20001"
   y2="396.92999"
   gradientTransform="matrix(1,0,0,-1,0,847.28)">
			<stop
   offset="0"
   style="stop-color:#FFFFFF"
   id="stop1458" />
			<stop
   offset="1"
   style="stop-color:#D8D8D8"
   id="stop1460" />
		</linearGradient>
		<path
   id="path3336_2_"
   class="st38"
   d="M 193.3,542.1 C 162.9,522 155.7,480.8 133.5,460.8 L 360.2,358.6 Z" />
		
			<linearGradient
   id="path3338_5_"
   gradientUnits="userSpaceOnUse"
   x1="112.4378"
   y1="488.17999"
   x2="360.60001"
   y2="488.17999"
   gradientTransform="matrix(1,0,0,-1,0,847.28)">
			<stop
   offset="0"
   style="stop-color:#FFFFFF"
   id="stop1464" />
			<stop
   offset="1"
   style="stop-color:#D8D8D8"
   id="stop1466" />
		</linearGradient>
		<path
   id="path3338_2_"
   class="st39"
   d="m 117,409.5 c -12.7,-33.9 5.8,-71.6 -0.3,-100.8 l 243.9,49.8 z" />
		
			<linearGradient
   id="path3340_5_"
   gradientUnits="userSpaceOnUse"
   x1="133.7"
   y1="579.88"
   x2="361"
   y2="579.88"
   gradientTransform="matrix(1,0,0,-1,0,847.28)">
			<stop
   offset="0"
   style="stop-color:#FFFFFF"
   id="stop1470" />
			<stop
   offset="1"
   style="stop-color:#D8D8D8"
   id="stop1472" />
		</linearGradient>
		<path
   id="path3340_2_"
   class="st40"
   d="m 133.7,257.8 c 9.8,-34.9 47.1,-54.4 59.5,-81.7 L 361,358.7 Z" />
	</g>
</g><g
     aria-label="won a race "
     id="text69141"
     style="font-size:40px;line-height:1.25"><path
       d="m 276.28545,202.0325 7.08322,21.40296 -2.85296,1.84663 -13.84337,-11.0713 4.46471,17.14184 -2.83655,1.83602 -16.67504,-15.19446 3.21367,-2.08011 12.54133,12.00714 -4.60554,-17.14375 2.54142,-1.64499 13.86944,11.1475 -5.99923,-16.24166 z"
       id="path92791" /><path
       d="m 306.1023,201.12935 q 2.04952,4.9224 0.71139,8.82229 -1.33813,3.8999 -5.57536,5.66415 -4.27329,1.77926 -7.98377,-0.0186 -3.69245,-1.80533 -5.74198,-6.72773 -2.04952,-4.92239 -0.72942,-8.81478 1.33062,-3.91793 5.60391,-5.6972 4.23723,-1.76424 7.95522,0.0516 3.71048,1.79782 5.76001,6.72022 z m -3.49797,1.45644 q -1.62911,-3.91268 -3.95001,-5.16777 -2.3284,-1.27313 -5.05104,-0.13951 -2.75871,1.14863 -3.49554,3.69803 -0.7263,2.52385 0.90281,6.43652 1.57656,3.78646 3.92748,5.11368 2.34342,1.3092 5.0841,0.16807 2.70461,-1.12612 3.43393,-3.69354 0.73984,-2.59296 -0.85173,-6.41548 z"
       id="path92793" /><path
       d="m 333.48294,205.20751 -3.56917,0.86237 -2.91737,-12.07444 q -0.3532,-1.46184 -0.8314,-2.69255 -0.48278,-1.24969 -1.11273,-1.86103 -0.66728,-0.68269 -1.65131,-0.8468 -0.98863,-0.18309 -2.4125,0.16094 -1.46184,0.3532 -2.88227,1.45994 -1.42043,1.10674 -2.61163,2.58006 l 3.8256,15.83345 -3.56917,0.86237 -5.12374,-21.2062 3.56917,-0.86237 0.5688,2.35414 q 1.33582,-1.78956 2.93233,-2.99913 1.59652,-1.20957 3.47603,-1.66368 3.43628,-0.83026 5.73984,0.80333 2.30356,1.63359 3.24391,5.52551 z"
       id="path92795" /><path
       d="m 371.47661,203.02637 -3.65223,-0.0292 0.0186,-2.32414 q -0.49093,0.32811 -1.33559,0.92684 -0.82498,0.57935 -1.60902,0.92464 -0.92153,0.44186 -2.11525,0.72528 -1.19387,0.30295 -2.79538,0.29012 -2.94912,-0.0236 -4.9842,-1.99309 -2.03508,-1.96949 -2.01084,-4.99673 0.0199,-2.48039 1.08671,-3.99534 1.08654,-1.53431 3.06617,-2.3974 1.99916,-0.86292 4.79455,-1.15305 2.79538,-0.29013 5.99965,-0.42073 l 0.005,-0.56638 q 0.01,-1.24996 -0.43263,-2.07385 -0.42311,-0.82372 -1.23964,-1.29903 -0.77763,-0.45546 -1.87009,-0.62046 -1.09247,-0.165 -2.28383,-0.17454 -1.44527,-0.0116 -3.22568,0.36481 -1.78026,0.35685 -3.68052,1.06431 l -0.19531,-0.002 0.0299,-3.73035 q 1.07653,-0.28436 3.11053,-0.61965 2.034,-0.33528 4.0066,-0.31949 2.30461,0.0185 4.00065,0.42267 1.71572,0.38485 2.95833,1.31279 1.22324,0.90827 1.85633,2.33916 0.6331,1.4309 0.61621,3.54021 z m -3.60923,-5.40017 0.0486,-6.07402 q -1.68042,0.0842 -3.96706,0.26121 -2.26712,0.17717 -3.59817,0.53761 -1.58558,0.43654 -2.56977,1.38572 -0.98404,0.92965 -0.99733,2.58976 -0.015,1.87494 1.1101,2.84101 1.12527,0.94654 3.44941,0.96515 1.93353,0.0155 3.54099,-0.71386 1.60761,-0.74887 2.98319,-1.79258 z"
       id="path92797" /><path
       d="m 409.66468,191.56985 -0.19041,-0.0435 q -0.75623,-0.37306 -1.50047,-0.62317 -0.72085,-0.26481 -1.74907,-0.49964 -1.65656,-0.37834 -3.36848,0.012 -1.70757,0.37131 -3.40092,1.20665 l -3.44857,15.09947 -3.5797,-0.81757 4.85758,-21.26874 3.5797,0.81757 -0.71755,3.14176 q 2.52398,-1.22663 4.30336,-1.5615 1.80278,-0.34956 3.49742,0.0375 0.93301,0.21309 1.33886,0.36589 0.41021,0.13375 1.21757,0.45839 z"
       id="path92799" /><path
       d="m 424.25642,215.62386 -3.42717,-1.26259 0.80347,-2.18092 q -0.57296,0.14276 -1.57033,0.42058 -0.9723,0.26623 -1.82691,0.32605 -1.01667,0.10419 -2.2359,-0.0328 -1.22598,-0.11862 -2.72881,-0.67227 -2.76739,-1.01953 -4.01655,-3.56118 -1.24917,-2.54165 -0.20264,-5.38235 0.85748,-2.32754 2.37379,-3.39246 1.54138,-1.07649 3.69625,-1.21927 2.1732,-0.13604 4.902,0.53624 2.72881,0.67227 5.78847,1.63295 l 0.1958,-0.53148 q 0.43212,-1.17294 0.29417,-2.09797 -0.11962,-0.91828 -0.72732,-1.6417 -0.57779,-0.6916 -1.55009,-1.21632 -0.97231,-0.52472 -2.09026,-0.93658 -1.35621,-0.49963 -3.15901,-0.7475 -1.79605,-0.2662 -3.8236,-0.24303 l -0.18327,-0.0675 1.2896,-3.50048 q 1.10927,0.0964 3.13682,0.46874 2.02755,0.3723 3.87859,1.05424 2.1626,0.79671 3.62202,1.75066 1.4845,0.94237 2.3401,2.23586 0.84402,1.26841 0.95594,2.8291 0.11191,1.56069 -0.61729,3.54002 z m -1.57042,-6.30254 2.09981,-5.69973 q -1.60989,-0.48902 -3.82168,-1.09571 -2.19346,-0.59994 -3.56799,-0.71085 -1.63978,-0.12537 -2.88698,0.43507 -1.24044,0.54211 -1.81435,2.09991 -0.64817,1.7594 0.084,3.04904 0.73889,1.2713 2.91981,2.07477 1.81439,0.66843 3.57378,0.52565 1.76614,-0.16111 3.41364,-0.67815 z"
       id="path92801" /><path
       d="m 445.50191,225.14197 q -2.03292,-0.10195 -3.72518,-0.46361 -1.67509,-0.35235 -3.30644,-1.23635 -2.07782,-1.12595 -3.48651,-2.66681 -1.39939,-1.55804 -1.96579,-3.46441 -0.58358,-1.91568 -0.24687,-4.17683 0.3367,-2.26114 1.70459,-4.78543 2.54967,-4.70515 6.57711,-5.98819 4.04462,-1.27374 8.28612,1.02468 1.64852,0.89332 2.97711,2.21305 1.34576,1.32905 2.3051,2.71527 l -1.94482,3.58896 -0.17172,-0.0931 q -0.85334,-1.95079 -2.09818,-3.42507 -1.22766,-1.46499 -2.72163,-2.27455 -2.74754,-1.48886 -5.34952,-0.49967 -2.5755,0.98132 -4.51101,4.55311 -1.87968,3.46876 -1.34848,6.178 0.55768,2.70137 3.3739,4.22745 0.97881,0.5304 2.13154,0.82183 1.15273,0.29144 2.18315,0.31666 0.89947,0.0209 1.73168,-0.0391 0.84153,-0.0771 1.36033,-0.17365 l 0.17172,0.0931 z"
       id="path92803" /><path
       d="m 469.73403,231.42069 -12.89065,-9.60268 q -1.2018,1.61329 -1.61467,3.18104 -0.40121,1.5521 -0.12713,2.94965 0.25441,1.35856 1.08646,2.56289 0.8477,1.216 2.19472,2.21944 1.78558,1.33014 4.11189,1.96711 2.35363,0.63298 3.6345,0.51554 l 0.15663,0.11668 -2.39192,3.21091 q -1.9547,-0.48193 -3.82037,-1.21415 -1.86567,-0.73222 -3.57294,-2.00402 -4.35431,-3.24368 -5.04756,-7.41332 -0.68157,-4.18531 2.55044,-8.52396 3.197,-4.29167 7.40932,-5.07489 4.22799,-0.77156 8.04976,2.07541 3.53984,2.63695 3.91056,6.12795 0.38639,3.50267 -2.44891,7.30878 z m -1.18615,-4.3907 q 1.71119,-2.32979 1.49723,-4.46192 -0.1983,-2.12046 -2.54775,-3.87064 -2.36512,-1.76186 -4.81323,-1.41796 -2.43245,0.35556 -4.16057,2.28306 z"
       id="path92805" /></g></g><g
   inkscape:groupmode="layer"
   id="layer3"
   inkscape:label="blue"
   style="display:none"><g
     id="g1540"
     style="display:inline">
	<linearGradient
   id="path3302_6_"
   gradientUnits="userSpaceOnUse"
   x1="344.70001"
   y1="297.9892"
   x2="383.89999"
   y2="297.9892">
		<stop
   offset="0.3541"
   style="stop-color:#004C99"
   id="stop1480" />
		<stop
   offset="0.7081"
   style="stop-color:#003D7C"
   id="stop1482" />
	</linearGradient>
	<path
   id="path3302_1_"
   class="st41"
   d="m 344.7,236 c 17.5,-6.4 24.1,5.5 39.2,2.4 l -25.6,123.5 z" />
	<linearGradient
   id="path3304_6_"
   gradientUnits="userSpaceOnUse"
   x1="361"
   y1="304"
   x2="454.89999"
   y2="304">
		<stop
   offset="0.3541"
   style="stop-color:#004C99"
   id="stop1486" />
		<stop
   offset="0.7081"
   style="stop-color:#003D7C"
   id="stop1488" />
	</linearGradient>
	<path
   id="path3304_1_"
   class="st42"
   d="m 424.4,248.8 c 17.9,5 16.5,19.1 30.5,25.4 l -93.9,85 z" />
	<linearGradient
   id="path3306_6_"
   gradientUnits="userSpaceOnUse"
   x1="360.89999"
   y1="333.45001"
   x2="487.10001"
   y2="333.45001">
		<stop
   offset="0.3541"
   style="stop-color:#004C99"
   id="stop1492" />
		<stop
   offset="0.7081"
   style="stop-color:#003D7C"
   id="stop1494" />
	</linearGradient>
	<path
   id="path3306_1_"
   class="st43"
   d="m 476.4,307.5 c 11.6,14.5 3.1,24.6 10.7,37.8 l -126.2,14.1 z" />
	<linearGradient
   id="path3310_6_"
   gradientUnits="userSpaceOnUse"
   x1="360.70001"
   y1="390.45001"
   x2="485.23489"
   y2="390.45001">
		<stop
   offset="0.3541"
   style="stop-color:#004C99"
   id="stop1498" />
		<stop
   offset="0.7081"
   style="stop-color:#003D7C"
   id="stop1500" />
	</linearGradient>
	<path
   id="path3310_1_"
   class="st44"
   d="m 485.2,384.7 c 0.8,18.5 -12.4,21.8 -14.1,36.9 L 360.7,359.3 Z" />
	<linearGradient
   id="path3312_6_"
   gradientUnits="userSpaceOnUse"
   x1="360.5"
   y1="416.70001"
   x2="445.89999"
   y2="416.70001">
		<stop
   offset="0.3541"
   style="stop-color:#004C99"
   id="stop1504" />
		<stop
   offset="0.7081"
   style="stop-color:#003D7C"
   id="stop1506" />
	</linearGradient>
	<path
   id="path3312_1_"
   class="st45"
   d="m 445.9,452.1 c -10.3,15.4 -22.7,10.7 -33,22 L 360.5,359.3 Z" />
	<linearGradient
   id="path3314_6_"
   gradientUnits="userSpaceOnUse"
   x1="334.89999"
   y1="423.3143"
   x2="374.5"
   y2="423.3143">
		<stop
   offset="0.3541"
   style="stop-color:#004C99"
   id="stop1510" />
		<stop
   offset="0.7081"
   style="stop-color:#003D7C"
   id="stop1512" />
	</linearGradient>
	<path
   id="path3314_1_"
   class="st46"
   d="m 374.5,485.8 c -17.5,6.4 -24.6,-6.3 -39.6,-3.2 L 360.5,359 Z" />
	<linearGradient
   id="path3316_6_"
   gradientUnits="userSpaceOnUse"
   x1="266.70001"
   y1="414.14999"
   x2="360.5"
   y2="414.14999">
		<stop
   offset="0.3541"
   style="stop-color:#004C99"
   id="stop1516" />
		<stop
   offset="0.7081"
   style="stop-color:#003D7C"
   id="stop1518" />
	</linearGradient>
	<path
   id="path3316_1_"
   class="st47"
   d="m 296.9,469.4 c -17.9,-5 -16.2,-19.2 -30.2,-25.5 l 93.8,-85 z" />
	<linearGradient
   id="path3318_6_"
   gradientUnits="userSpaceOnUse"
   x1="234.5"
   y1="384.5"
   x2="360.70001"
   y2="384.5">
		<stop
   offset="0.3541"
   style="stop-color:#004C99"
   id="stop1522" />
		<stop
   offset="0.7081"
   style="stop-color:#003D7C"
   id="stop1524" />
	</linearGradient>
	<path
   id="path3318_1_"
   class="st48"
   d="M 245.6,410.3 C 234,395.8 242.1,385.9 234.5,372.7 l 126.2,-14 z" />
	<linearGradient
   id="path3320_6_"
   gradientUnits="userSpaceOnUse"
   x1="236.66431"
   y1="327.45001"
   x2="360.89999"
   y2="327.45001">
		<stop
   offset="0.3541"
   style="stop-color:#004C99"
   id="stop1528" />
		<stop
   offset="0.7081"
   style="stop-color:#003D7C"
   id="stop1530" />
	</linearGradient>
	<path
   id="path3320_1_"
   class="st49"
   d="m 236.7,333.6 c -0.8,-18.5 12.1,-22.1 13.8,-37.3 l 110.4,62.3 z" />
	<linearGradient
   id="path3322_6_"
   gradientUnits="userSpaceOnUse"
   x1="274.79999"
   y1="301.29999"
   x2="361.10001"
   y2="301.29999">
		<stop
   offset="0.3541"
   style="stop-color:#004C99"
   id="stop1534" />
		<stop
   offset="0.7081"
   style="stop-color:#003D7C"
   id="stop1536" />
	</linearGradient>
	<path
   id="path3322_1_"
   class="st50"
   d="m 274.8,265.5 c 10.3,-15.4 23.5,-10.3 33.8,-21.6 l 52.5,114.8 z" />
</g><g
     id="g1602"
     style="display:inline">
	<linearGradient
   id="path3308_6_"
   gradientUnits="userSpaceOnUse"
   x1="374.64999"
   y1="373.35001"
   x2="464.49081"
   y2="283.50909">
		<stop
   offset="0.3541"
   style="stop-color:#004C99"
   id="stop1542" />
		<stop
   offset="0.7081"
   style="stop-color:#003D7C"
   id="stop1544" />
	</linearGradient>
	<path
   id="path3308_1_"
   class="st51"
   d="m 446,266 c 15.5,10.3 19.2,31.2 30.5,41.5 l -115.6,52.1 z" />
	<linearGradient
   id="path3324_6_"
   gradientUnits="userSpaceOnUse"
   x1="317.85001"
   y1="316.14999"
   x2="373.45001"
   y2="260.54999">
		<stop
   offset="0.3541"
   style="stop-color:#004C99"
   id="stop1548" />
		<stop
   offset="0.7081"
   style="stop-color:#003D7C"
   id="stop1550" />
	</linearGradient>
	<path
   id="path3324_1_"
   class="st52"
   d="m 297.7,250 c 14.6,-11.5 35.9,-8.4 49.2,-16 L 361,359.3 Z" />
	<linearGradient
   id="path3326_6_"
   gradientUnits="userSpaceOnUse"
   x1="333.02499"
   y1="331.52499"
   x2="419.22501"
   y2="245.325">
		<stop
   offset="0.3541"
   style="stop-color:#004C99"
   id="stop1554" />
		<stop
   offset="0.7081"
   style="stop-color:#003D7C"
   id="stop1556" />
	</linearGradient>
	<path
   id="path3326_1_"
   class="st53"
   d="m 374.5,234.1 c 18.6,-0.8 34,14.1 49.3,15.8 L 361,359.5 Z" />
	<linearGradient
   id="path3328_6_"
   gradientUnits="userSpaceOnUse"
   x1="398.14999"
   y1="397.25"
   x2="473.39999"
   y2="322">
		<stop
   offset="0.3541"
   style="stop-color:#004C99"
   id="stop1560" />
		<stop
   offset="0.7081"
   style="stop-color:#003D7C"
   id="stop1562" />
	</linearGradient>
	<path
   id="path3328_1_"
   class="st54"
   d="m 485.2,333.8 c 6.5,17.3 -3.2,36.4 -0.1,51.4 L 360.7,359.8 Z" />
	<linearGradient
   id="path3330_6_"
   gradientUnits="userSpaceOnUse"
   x1="401.39999"
   y1="408.10001"
   x2="437.35001"
   y2="372.14999">
		<stop
   offset="0.3541"
   style="stop-color:#004C99"
   id="stop1566" />
		<stop
   offset="0.7081"
   style="stop-color:#003D7C"
   id="stop1568" />
	</linearGradient>
	<path
   id="path3330_1_"
   class="st55"
   d="m 476.4,411.2 c -5,17.8 -24,27.8 -30.3,41.6 l -85.6,-93.2 z" />
	<linearGradient
   id="path3332_6_"
   gradientUnits="userSpaceOnUse"
   x1="347.92499"
   y1="458.22501"
   x2="403.47501"
   y2="402.67499">
		<stop
   offset="0.3541"
   style="stop-color:#004C99"
   id="stop1572" />
		<stop
   offset="0.7081"
   style="stop-color:#003D7C"
   id="stop1574" />
	</linearGradient>
	<path
   id="path3332_1_"
   class="st56"
   d="m 423.7,468.8 c -14.6,11.5 -35.9,8.4 -49.2,16 L 360.3,359.5 Z" />
	<linearGradient
   id="path3334_6_"
   gradientUnits="userSpaceOnUse"
   x1="302.125"
   y1="473.42499"
   x2="388.32501"
   y2="387.22501">
		<stop
   offset="0.3541"
   style="stop-color:#004C99"
   id="stop1578" />
		<stop
   offset="0.7081"
   style="stop-color:#003D7C"
   id="stop1580" />
	</linearGradient>
	<path
   id="path3334_1_"
   class="st57"
   d="m 346.9,484.7 c -18.6,0.8 -34,-14.1 -49.3,-15.8 l 62.7,-109.7 z" />
	<linearGradient
   id="path3336_6_"
   gradientUnits="userSpaceOnUse"
   x1="256.90909"
   y1="435.1908"
   x2="346.75"
   y2="345.35001">
		<stop
   offset="0.3541"
   style="stop-color:#004C99"
   id="stop1584" />
		<stop
   offset="0.7081"
   style="stop-color:#003D7C"
   id="stop1586" />
	</linearGradient>
	<path
   id="path3336_1_"
   class="st58"
   d="M 275.4,452.7 C 259.9,442.4 256.2,421.5 244.9,411.2 L 360.5,359.1 Z" />
	<linearGradient
   id="path3338_6_"
   gradientUnits="userSpaceOnUse"
   x1="248.10001"
   y1="396.79999"
   x2="323.25"
   y2="321.64999">
		<stop
   offset="0.3541"
   style="stop-color:#004C99"
   id="stop1590" />
		<stop
   offset="0.7081"
   style="stop-color:#003D7C"
   id="stop1592" />
	</linearGradient>
	<path
   id="path3338_1_"
   class="st59"
   d="m 236.4,385.1 c -6.5,-17.3 3,-36.5 -0.1,-51.4 l 124.4,25.4 z" />
	<linearGradient
   id="path3340_6_"
   gradientUnits="userSpaceOnUse"
   x1="283.95001"
   y1="346.64999"
   x2="319.89999"
   y2="310.70001">
		<stop
   offset="0.3541"
   style="stop-color:#004C99"
   id="stop1596" />
		<stop
   offset="0.7081"
   style="stop-color:#003D7C"
   id="stop1598" />
	</linearGradient>
	<path
   id="path3340_1_"
   class="st60"
   d="m 244.9,307.6 c 5,-17.8 24,-27.8 30.3,-41.6 l 85.6,93.2 z" />
</g><g
     id="path3912_1_"
     class="st20"
     style="display:inline">
	<g
   id="g1616">
		<g
   id="g1612">
			<g
   id="g1606">
				<path
   class="st61"
   d="m 425.1,360.8 c 0,35.2 -28.8,63.8 -64.3,63.8 -35.5,0 -64.3,-28.6 -64.3,-63.8 0,-35.2 28.8,-63.8 64.3,-63.8 35.5,0 64.3,28.6 64.3,63.8 z"
   id="path1604" />
			</g>
			<g
   class="st62"
   id="g1610">
				<path
   class="st61"
   d="m 425.1,360.8 c 0,35.2 -28.8,63.8 -64.3,63.8 -35.5,0 -64.3,-28.6 -64.3,-63.8 0,-35.2 28.8,-63.8 64.3,-63.8 35.5,0 64.3,28.6 64.3,63.8 z"
   id="path1608" />
			</g>
		</g>
		<path
   class="st61"
   d="m 425.1,360.8 c 0,35.2 -28.8,63.8 -64.3,63.8 -35.5,0 -64.3,-28.6 -64.3,-63.8 0,-35.2 28.8,-63.8 64.3,-63.8 35.5,0 64.3,28.6 64.3,63.8 z"
   id="path1614" />
	</g>
	<g
   class="st62"
   id="g1620">
		<path
   class="st61"
   d="m 425.1,360.8 c 0,35.2 -28.8,63.8 -64.3,63.8 -35.5,0 -64.3,-28.6 -64.3,-63.8 0,-35.2 28.8,-63.8 64.3,-63.8 35.5,0 64.3,28.6 64.3,63.8 z"
   id="path1618" />
	</g>
</g><path
     id="path15964"
     style="fill-opacity:0;fill-rule:evenodd;stroke:#000000;stroke-width:2.007;stroke-linecap:round;paint-order:fill markers stroke"
     d="m 280.9423,363.33669 a 79.79641,79.79641 0 0 1 76.53017,-82.46446 79.79641,79.79641 0 0 1 82.92974,76.02572 79.79641,79.79641 0 0 1 -75.51844,83.39195 79.79641,79.79641 0 0 1 -83.85105,-75.00836" /><g
     aria-label="antarctic program (3)"
     id="text17098"
     style="font-size:13.3333px;line-height:1.25;-inkscape-font-specification:'sans-serif, Normal';fill:#000000;fill-opacity:1"><path
       d="m 281.29864,351.00726 -0.12072,2.18808 -1.39241,-0.0768 q 0.18277,0.3035 0.51774,0.82665 0.32392,0.51081 0.50871,0.99047 0.23879,0.56479 0.37492,1.28823 0.14784,0.72409 0.0949,1.68357 -0.0975,1.76684 -1.33536,2.93089 -1.23788,1.16404 -3.05153,1.06398 -1.48602,-0.082 -2.36383,-0.76419 -0.88887,-0.69455 -1.35021,-1.9054 -0.4607,-1.22255 -0.5556,-2.90611 -0.0949,-1.68357 -0.0826,-3.60769 l -0.33933,-0.0187 q -0.74886,-0.0413 -1.25515,0.20069 -0.50564,0.23031 -0.81358,0.70625 -0.29494,0.45319 -0.4247,1.10328 -0.12976,0.65009 -0.16914,1.36385 -0.0478,0.86587 0.1275,1.94357 0.16357,1.07705 0.53389,2.23593 l -0.006,0.11701 -2.23488,-0.1233 q -0.14001,-0.65324 -0.28349,-1.88176 -0.14348,-1.22852 -0.0783,-2.41031 0.0762,-1.38072 0.36635,-2.38579 0.27913,-1.01742 0.87039,-1.73594 0.57892,-0.70746 1.45439,-1.04647 0.87547,-0.339 2.13918,-0.26928 z m -3.33848,2.01055 -3.639,-0.20077 q 0.003,1.00951 0.0445,2.38498 0.0421,1.36377 0.22054,2.1717 0.21683,0.96262 0.7579,1.5793 0.52937,0.61604 1.52395,0.67091 1.12329,0.062 1.73408,-0.58505 0.59909,-0.64767 0.67591,-2.04008 0.0639,-1.1584 -0.32779,-2.1424 -0.4034,-0.98466 -0.99006,-1.83859 z"
       style="font-size:24px;fill:#000000;fill-opacity:1"
       id="path67852" /><path
       d="m 284.5095,336.15395 -0.5259,2.13943 -7.23767,-1.77909 q -0.87626,-0.21539 -1.66389,-0.30039 -0.79902,-0.0878 -1.29859,0.079 -0.5479,0.16702 -0.90697,0.64593 -0.37045,0.47611 -0.58025,1.32961 -0.2154,0.87626 -0.0179,1.93848 0.19747,1.06222 0.65349,2.10352 l 9.49091,2.33296 -0.52589,2.13944 -12.71145,-3.12461 0.52589,-2.13943 1.41112,0.34686 q -0.58457,-1.20564 -0.7882,-2.39005 -0.20364,-1.18441 0.0733,-2.31103 0.50631,-2.05977 2.01248,-2.83596 1.50616,-0.7762 3.83906,-0.20275 z"
       style="font-size:24px;fill:#000000;fill-opacity:1"
       id="path67854" /><path
       d="m 288.57815,325.87123 q -0.0885,0.63627 -0.27635,1.35801 -0.1833,0.71093 -0.40506,1.2406 -0.77388,1.84844 -2.17114,2.39414 -1.39727,0.5457 -3.59162,-0.37299 l -6.42092,-2.68822 -0.57475,1.37282 -1.70792,-0.71504 0.57475,-1.37282 -3.46989,-1.45273 0.85082,-2.0322 3.46989,1.45272 1.75594,-4.19414 1.70792,0.71505 -1.75594,4.19413 5.5021,2.30354 q 0.95124,0.39825 1.50983,0.5813 0.54777,0.17851 1.1212,0.11368 0.53195,-0.0568 0.9093,-0.38156 0.37108,-0.34012 0.7286,-1.19408 0.20818,-0.49724 0.29393,-1.09656 0.075,-0.60384 0.0772,-0.88238 l 0.0453,-0.10809 z"
       style="font-size:24px;fill:#000000;fill-opacity:1"
       id="path67856" /><path
       d="m 295.13337,314.81525 -1.13849,1.87246 -1.19157,-0.7245 q 0.018,0.35382 0.0666,0.97312 0.0447,0.6032 -0.0186,1.11331 -0.0558,0.61065 -0.27703,1.31277 -0.21117,0.70822 -0.71041,1.52929 -0.91932,1.51198 -2.55989,1.95454 -1.64058,0.44256 -3.19261,-0.50112 -1.27167,-0.7732 -1.72393,-1.78879 -0.45618,-1.0317 -0.29186,-2.31699 0.17041,-1.29531 0.88081,-2.8246 0.71041,-1.52929 1.62877,-3.22014 l -0.29038,-0.17656 q -0.64084,-0.38965 -1.20142,-0.41505 -0.55449,-0.0354 -1.05051,0.23901 -0.47383,0.2605 -0.89488,0.77253 -0.42104,0.51203 -0.79243,1.12283 -0.45052,0.74097 -0.80429,1.77393 -0.36378,1.02687 -0.58385,2.22341 l -0.0609,0.10013 -1.91251,-1.16285 q 0.18466,-0.64205 0.63759,-1.793 0.45294,-1.15095 1.06785,-2.16228 0.71842,-1.18155 1.44835,-1.93093 0.72602,-0.76547 1.58628,-1.12017 0.84416,-0.35077 1.77603,-0.23676 0.93187,0.11401 2.01329,0.77154 z m -3.8921,0.19819 -3.11408,-1.89343 q -0.47353,0.89157 -1.08572,2.12398 -0.6061,1.22241 -0.82985,2.01898 -0.26284,0.95109 -0.0766,1.75007 0.17622,0.79289 1.02733,1.31039 0.96126,0.58447 1.80502,0.30203 0.83375,-0.28853 1.55825,-1.48009 0.60273,-0.9913 0.72147,-2.04373 0.10872,-1.05851 -0.006,-2.0882 z"
       style="font-size:24px;fill:#000000;fill-opacity:1"
       id="path67858" /><path
       d="m 294.84384,298.32658 -0.0755,0.0896 q -0.40677,0.30087 -0.74467,0.62912 -0.33931,0.31173 -0.74709,0.79565 -0.65696,0.77964 -0.91913,1.80001 -0.27113,1.01282 -0.29083,2.14556 l 7.10637,5.98822 -1.41966,1.68474 -10.00985,-8.43486 1.41965,-1.68474 1.47863,1.24597 q 0.0392,-1.68329 0.34952,-2.72441 0.30888,-1.05763 0.98095,-1.85519 0.37002,-0.43911 0.56303,-0.6136 0.18406,-0.18205 0.57904,-0.52349 z"
       style="font-size:24px;fill:#000000;fill-opacity:1"
       id="path67860" /><path
       d="m 311.20318,296.71281 q -0.47047,1.12702 -1.01837,2.00898 -0.53916,0.87414 -1.36959,1.61561 -1.05771,0.9444 -2.21377,1.42675 -1.16385,0.4736 -2.35519,0.40618 -1.20008,-0.0596 -2.40828,-0.70898 -1.2082,-0.64936 -2.35552,-1.93435 -2.13855,-2.39514 -2.04491,-4.92954 0.10239,-2.54221 2.26152,-4.47002 0.83917,-0.74928 1.85411,-1.23131 1.02369,-0.48984 2.00117,-0.74991 l 1.63123,1.82696 -0.0874,0.078 q -1.27469,0.0856 -2.35987,0.48891 -1.07645,0.39556 -1.83695,1.07459 -1.39863,1.24878 -1.36865,2.91872 0.0309,1.65338 1.65435,3.47159 1.57659,1.76577 3.21405,2.01614 1.6384,0.23382 3.072,-1.04619 0.49826,-0.44488 0.89693,-1.03649 0.39866,-0.59161 0.62219,-1.16824 0.1945,-0.50357 0.32967,-0.9856 0.12738,-0.49077 0.17826,-0.80328 l 0.0874,-0.0781 z"
       style="font-size:24px;fill:#000000;fill-opacity:1"
       id="path67862" /><path
       d="m 319.69181,291.86162 q -0.42401,0.48258 -0.97798,0.98188 -0.54424,0.49277 -1.02085,0.81303 -1.66329,1.11764 -3.13028,0.80447 -1.46699,-0.31317 -2.79378,-2.28771 l -3.88234,-5.77773 -1.2353,0.83006 -1.03268,-1.53683 1.23531,-0.83007 -2.09803,-3.1223 1.82864,-1.22875 2.09803,3.1223 3.774,-2.53593 1.03268,1.53683 -3.77401,2.53594 3.32679,4.95095 q 0.57516,0.85596 0.94086,1.31615 0.35917,0.45047 0.87366,0.71186 0.47542,0.24529 0.96922,0.18173 0.497,-0.0798 1.26541,-0.59616 0.44744,-0.30065 0.84881,-0.75389 0.39484,-0.46297 0.55001,-0.69431 l 0.0973,-0.0654 z"
       style="font-size:24px;fill:#000000;fill-opacity:1"
       id="path67864" /><path
       d="m 317.00361,276.1279 -2.19094,1.17127 -1.07735,-2.01526 2.19094,-1.17127 z m 7.08041,13.54268 -1.94291,1.03867 -6.17128,-11.5438 1.94292,-1.03868 z"
       style="font-size:24px;fill:#000000;fill-opacity:1"
       id="path67866" /><path
       d="m 336.69891,283.41518 q -0.83581,0.89048 -1.65818,1.5243 -0.81146,0.62958 -1.84917,1.03276 -1.32171,0.51352 -2.5735,0.55985 -1.25603,0.0354 -2.34808,-0.4455 -1.10296,-0.47666 -2.00673,-1.50846 -0.90377,-1.0318 -1.52764,-2.63752 -1.16285,-2.99297 -0.18643,-5.3336 0.98735,-2.34487 3.68539,-3.39314 1.04864,-0.40742 2.16816,-0.50294 1.13046,-0.0998 2.13706,-5.4e-4 l 0.887,2.28296 -0.10923,0.0424 q -1.22375,-0.36688 -2.38148,-0.36967 -1.1468,-0.007 -2.09712,0.3622 -1.74772,0.67904 -2.30523,2.25344 -0.55084,1.55924 0.33192,3.83127 0.85728,2.2065 2.30297,3.01518 1.45237,0.79351 3.24379,0.0975 0.62262,-0.24191 1.20343,-0.65615 0.58082,-0.41425 0.99235,-0.87587 0.35873,-0.40339 0.65436,-0.80741 0.29138,-0.41495 0.44862,-0.68977 l 0.10923,-0.0424 z"
       style="font-size:24px;fill:#000000;fill-opacity:1"
       id="path67868" /><path
       d="m 358.85482,273.90247 q 0.14689,1.58697 -0.18614,2.94767 -0.33411,1.34904 -1.07835,2.3359 -0.69021,0.93479 -1.69613,1.51042 -0.99532,0.56289 -2.16221,0.6709 -1.01519,0.094 -1.8642,-0.0511 -0.83734,-0.1461 -1.73238,-0.534 l 0.5055,5.46103 -2.19374,0.20306 -1.65152,-17.84169 2.19375,-0.20307 0.12637,1.36526 q 0.80712,-0.81615 1.84696,-1.40669 1.05043,-0.6033 2.28733,-0.71779 2.35711,-0.21819 3.82928,1.44618 1.48276,1.65161 1.77548,4.81387 z m -2.25836,0.26789 q -0.21819,-2.35711 -1.13135,-3.44947 -0.91317,-1.09235 -2.58182,-0.9379 -0.94517,0.0875 -1.86422,0.58448 -0.91904,0.49698 -1.73264,1.24311 l 0.68372,7.38639 q 0.9724,0.33367 1.65157,0.4238 0.69083,0.089 1.54266,0.0102 1.83201,-0.16958 2.74438,-1.50153 0.91236,-1.33195 0.6877,-3.75908 z"
       style="font-size:24px;fill:#000000;fill-opacity:1"
       id="path67870" /><path
       d="m 371.75842,270.63625 -0.11695,-0.007 q -0.4837,-0.14836 -0.94851,-0.22505 -0.45236,-0.0876 -1.08388,-0.12801 -1.01745,-0.0651 -1.9939,0.33047 -0.9757,0.38384 -1.89843,1.04115 l -0.59297,9.27403 -2.19863,-0.14058 0.83524,-13.06317 2.19863,0.14058 -0.12338,1.92965 q 1.37713,-0.96879 2.39886,-1.33794 1.03417,-0.3801 2.07502,-0.31355 0.57304,0.0366 0.82809,0.0882 0.25579,0.0398 0.76513,0.1546 z"
       style="font-size:24px;fill:#000000;fill-opacity:1"
       id="path67872" /><path
       d="m 385.46126,277.65371 q -0.69752,3.12226 -2.70236,4.57158 -2.00485,1.44932 -4.69251,0.84889 -2.71052,-0.60553 -3.90799,-2.77025 -1.18603,-2.16216 -0.48852,-5.28442 0.69752,-3.12225 2.69093,-4.57413 2.0074,-1.46076 4.71793,-0.85522 2.68765,0.60042 3.88256,2.77658 1.19747,2.16472 0.49996,5.28697 z m -2.21875,-0.49567 q 0.55443,-2.48179 -0.14942,-3.89983 -0.7013,-1.42948 -2.42826,-1.81528 -1.74984,-0.39092 -2.9928,0.60421 -1.22897,0.98625 -1.7834,3.46804 -0.53655,2.40173 0.15708,3.86552 0.6962,1.45236 2.43459,1.84072 1.71553,0.38324 2.96104,-0.62332 1.25951,-1.01545 1.80117,-3.44006 z"
       style="font-size:24px;fill:#000000;fill-opacity:1"
       id="path67874" /><path
       d="m 397.6274,287.98454 q -1.31423,3.05766 -3.31855,3.89263 -2.00433,0.83498 -4.88972,-0.40521 -0.95821,-0.41185 -1.81319,-0.94515 -0.84885,-0.51791 -1.62525,-1.145 l 0.88848,-2.06714 0.10767,0.0463 q 0.41196,0.40666 1.36828,1.14935 0.95169,0.75344 2.02833,1.2162 1.03357,0.44424 1.81829,0.48815 0.78471,0.0439 1.35127,-0.23555 0.55729,-0.25792 0.9733,-0.78066 0.41601,-0.52274 0.73069,-1.25485 l 0.47201,-1.09817 q -1.22982,0.33877 -2.22693,0.34388 -0.98172,-0.001 -2.27369,-0.55634 -2.15327,-0.92551 -2.75734,-3.02192 -0.58867,-2.10254 0.62837,-4.9341 0.66637,-1.55036 1.57829,-2.48496 0.92731,-0.94074 2.03265,-1.43506 1.02837,-0.46362 2.21012,-0.45315 1.18637,-2.9e-4 2.17688,0.42544 1.04434,0.44887 1.6516,0.96499 0.62266,0.50998 1.22351,1.27845 l 0.35131,-0.46126 1.89489,0.81445 z m -1.19112,-2.80792 2.81817,-6.55673 q -0.65014,-0.71312 -1.28517,-1.16464 -0.61964,-0.45766 -1.30868,-0.75382 -1.66879,-0.71727 -3.10826,-0.009 -1.43948,0.70785 -2.35573,2.8396 -0.86998,2.02407 -0.60827,3.37383 0.26171,1.34976 1.90897,2.05777 0.88284,0.37946 1.90914,0.42516 1.04169,0.0396 2.02983,-0.21175 z"
       style="font-size:24px;fill:#000000;fill-opacity:1"
       id="path67876" /><path
       d="m 413.39925,286.85224 -0.0992,-0.0624 q -0.35427,-0.36121 -0.72613,-0.65043 -0.3557,-0.29289 -0.8914,-0.62976 -0.86307,-0.54273 -1.90991,-0.66114 -1.0406,-0.12833 -2.16516,0.009 l -4.94696,7.86681 -1.86503,-1.1728 6.96818,-11.081 1.86502,1.1728 -1.02932,1.63686 q 1.67252,-0.19414 2.74657,-0.0309 1.0902,0.15952 1.97311,0.71473 0.48609,0.30567 0.68563,0.47268 0.20577,0.15708 0.59859,0.50101 z"
       style="font-size:24px;fill:#000000;fill-opacity:1"
       id="path67878" /><path
       d="m 416.73244,303.56717 -1.65827,-1.43263 0.91167,-1.05526 q -0.35193,-0.0408 -0.97074,-0.0953 -0.60227,-0.0557 -1.09488,-0.20256 -0.59299,-0.15612 -1.24884,-0.49043 -0.66351,-0.32544 -1.39066,-0.95365 -1.33903,-1.15683 -1.50403,-2.84801 -0.16501,-1.69119 1.02246,-3.06569 0.97296,-1.1262 2.04939,-1.40419 1.09295,-0.27919 2.33334,0.0955 1.24926,0.38238 2.63992,1.33603 1.39066,0.95366 2.90626,2.13913 l 0.22217,-0.25716 q 0.49031,-0.56753 0.60812,-1.11618 0.12668,-0.54099 -0.0619,-1.07559 -0.17851,-0.5104 -0.61381,-1.01036 -0.4353,-0.49996 -0.97624,-0.96729 -0.65621,-0.56692 -1.61639,-1.08673 -0.95253,-0.52867 -2.09616,-0.94369 l -0.0887,-0.0766 1.46327,-1.69374 q 0.60265,0.28835 1.66279,0.92548 1.06014,0.63714 1.95578,1.41091 1.0464,0.90401 1.66467,1.74788 0.6348,0.84266 0.84226,1.74975 0.20626,0.89057 -0.0604,1.79073 -0.26662,0.90016 -1.09402,1.85788 z m 0.44853,-3.87126 2.3826,-2.75786 q -0.80093,-0.61452 -1.91506,-1.42219 -1.10527,-0.80001 -1.85384,-1.15247 -0.89449,-0.4166 -1.71327,-0.36513 -0.81112,0.0426 -1.46231,0.79635 -0.73547,0.8513 -0.59653,1.73017 0.14659,0.86999 1.20185,1.78166 0.87791,0.75845 1.89619,1.04969 1.02593,0.28237 2.06037,0.33978 z"
       style="font-size:24px;fill:#000000;fill-opacity:1"
       id="path67880" /><path
       d="m 431.15451,321.90973 -1.28481,-1.7897 6.05451,-4.34649 q 0.68542,-0.49206 1.2754,-1.01658 0.59681,-0.515 0.83408,-0.98828 0.25216,-0.51282 0.16773,-1.07251 -0.0844,-0.5597 -0.638,-1.33079 -0.53989,-0.75206 -1.46058,-1.23075 -0.91116,-0.48552 -2.03175,-0.82069 -0.19845,0.18574 -0.47989,0.41664 -0.27192,0.22406 -0.55751,0.42908 l -6.80657,4.88639 -1.28481,-1.7897 6.05451,-4.34649 q 0.70446,-0.50572 1.28491,-1.02341 0.59682,-0.51501 0.83409,-0.98828 0.25216,-0.51282 0.15821,-1.06568 -0.0844,-0.5597 -0.638,-1.33079 -0.52623,-0.73302 -1.42103,-1.21586 -0.88798,-0.47331 -1.97586,-0.80312 l -7.93941,5.69965 -1.28481,-1.7897 10.63347,-7.6337 1.28481,1.7897 -1.18044,0.84743 q 1.29634,0.33884 2.28121,0.88685 0.99171,0.55754 1.66829,1.49998 0.77909,1.08525 0.86204,2.16534 0.0898,1.08961 -0.45286,2.04177 1.69298,0.42917 2.73521,1.03699 1.05175,0.60098 1.783,1.61958 1.25747,1.75162 0.78584,3.34526 -0.45528,1.59631 -2.35922,2.96313 z"
       style="font-size:24px;fill:#000000;fill-opacity:1"
       id="path67882" /><path
       d="m 433.39761,341.88245 -0.79559,-2.56295 q 1.65703,-2.68623 4.00262,-4.61685 2.34559,-1.93061 5.71436,-2.97634 3.36877,-1.04573 6.3953,-0.78273 3.02653,0.263 5.91342,1.53871 l 0.79559,2.56295 -0.11192,0.0347 q -1.09842,-0.65293 -2.42993,-1.14761 -1.31685,-0.48696 -2.9571,-0.75083 -1.58506,-0.24419 -3.37348,-0.1553 -1.78495,0.10008 -3.62042,0.66984 -1.91382,0.59409 -3.378,1.49034 -1.46071,0.90743 -2.67788,2.04603 -1.16815,1.09884 -2.00864,2.30456 -0.85168,1.2092 -1.35641,2.31069 z"
       style="font-size:24px;fill:#000000;fill-opacity:1"
       id="path67884" /><path
       d="m 448.67969,352.99121 q -0.42247,0.62597 -1.12751,1.08976 -0.70505,0.46379 -1.9008,0.62844 -1.18414,0.16305 -2.23007,-0.13062 -1.04593,-0.29367 -1.88441,-0.97078 -0.93253,-0.75879 -1.49029,-1.88858 -0.54455,-1.11978 -0.73798,-2.5245 -0.19821,-1.43954 -0.0418,-2.8806 0.14485,-1.43946 0.42809,-2.38932 l 2.42632,-0.33409 0.024,0.17414 q -0.51424,1.0763 -0.75995,2.4705 -0.24572,1.39421 -0.0747,2.63639 0.10071,0.73138 0.458,1.52207 0.35729,0.79068 0.9036,1.23595 0.58434,0.46369 1.23479,0.63437 0.65206,0.18229 1.5924,0.0528 0.92874,-0.12788 1.49086,-0.51284 0.57532,-0.37495 0.85167,-0.94532 0.28795,-0.57197 0.31335,-1.33255 0.037,-0.76217 -0.0813,-1.62125 l -0.14386,-1.04483 1.92712,-0.26535 0.1119,0.81264 q 0.24297,1.7646 1.11822,2.70873 0.88846,0.95413 2.30478,0.75911 0.6269,-0.0863 1.0545,-0.41727 0.43921,-0.33255 0.67551,-0.85009 0.23311,-0.54076 0.27087,-1.12559 0.0378,-0.58484 -0.0613,-1.30461 -0.15186,-1.10288 -0.71761,-2.29071 -0.56576,-1.18784 -1.43739,-2.19161 l -0.016,-0.11609 2.42632,-0.33409 q 0.51982,0.76831 1.04511,2.09184 0.5385,1.33354 0.71594,2.62216 0.17423,1.26541 0.0747,2.26094 -0.0995,0.99554 -0.50322,1.84369 -0.44215,0.91259 -1.17243,1.45083 -0.73028,0.53824 -1.78672,0.6837 -1.43954,0.19822 -2.65987,-0.67473 -1.20712,-0.86294 -1.67596,-2.20607 l -0.16253,0.0224 q -0.0161,0.57003 -0.21888,1.33136 -0.19112,0.75974 -0.56353,1.31968 z"
       style="font-size:24px;fill:#000000;fill-opacity:1"
       id="path67886" /><path
       d="m 447.08152,366.18496 q -3.52622,-0.089 -6.30886,-1.30801 -2.78263,-1.21903 -5.10845,-3.3526 l 0.0677,-2.68274 0.11715,0.003 q 0.78557,0.92246 1.93431,1.85408 1.13673,0.94304 2.56023,1.67059 1.4812,0.76417 3.13409,1.22789 1.65259,0.47544 3.65586,0.52599 1.92126,0.0485 3.66603,-0.34121 1.74476,-0.3897 3.20374,-1.06796 1.50643,-0.7005 2.64124,-1.53932 1.14622,-0.82682 2.02536,-1.75415 l 0.11715,0.003 -0.0677,2.68274 q -2.43048,2.01355 -5.27105,3.09067 -2.84058,1.07711 -6.3668,0.98813 z"
       style="font-size:24px;fill:#000000;fill-opacity:1"
       id="path67888" /></g></g></svg>
