<?xml version="1.0" encoding="UTF-8" standalone="no"?>
<!-- Generator: Adobe Illustrator 20.0.0, SVG Export Plug-In . SVG Version: 6.00 Build 0)  -->

<svg
   version="1.1"
   id="svg2"
   x="0px"
   y="0px"
   viewBox="0 0 721.6 721.6"
   style="enable-background:new 0 0 721.6 721.6;"
   xml:space="preserve"
   sodipodi:docname="white9.svg"
   inkscape:version="1.1 (c68e22c387, 2021-05-23)"
   xmlns:inkscape="http://www.inkscape.org/namespaces/inkscape"
   xmlns:sodipodi="http://sodipodi.sourceforge.net/DTD/sodipodi-0.dtd"
   xmlns="http://www.w3.org/2000/svg"
   xmlns:svg="http://www.w3.org/2000/svg"><defs
   id="defs1626"><inkscape:path-effect
     effect="bspline"
     id="path-effect11541"
     is_visible="true"
     lpeversion="1"
     weight="33.333333"
     steps="2"
     helper_size="0"
     apply_no_weight="true"
     apply_with_weight="true"
     only_selected="false" /><inkscape:path-effect
     effect="fill_between_many"
     method="originald"
     linkedpaths="#g12224,0,1"
     id="path-effect12573" /></defs><sodipodi:namedview
   id="namedview1624"
   pagecolor="#ffffff"
   bordercolor="#666666"
   borderopacity="1.0"
   inkscape:pageshadow="2"
   inkscape:pageopacity="0.0"
   inkscape:pagecheckerboard="0"
   showgrid="false"
   showguides="false"
   inkscape:zoom="1.0850887"
   inkscape:cx="520.69476"
   inkscape:cy="352.50575"
   inkscape:window-width="1920"
   inkscape:window-height="1001"
   inkscape:window-x="-9"
   inkscape:window-y="-9"
   inkscape:window-maximized="1"
   inkscape:current-layer="layer2" />
<style
   type="text/css"
   id="style1226">
	
		.st0{opacity:0.9895;fill:url(#path3302_3_);stroke:#5A5A59;stroke-width:0.9965;stroke-linecap:round;stroke-linejoin:round;enable-background:new    ;}
	
		.st1{opacity:0.9895;fill:url(#path3304_3_);stroke:#5A5A59;stroke-width:0.9965;stroke-linecap:round;stroke-linejoin:round;enable-background:new    ;}
	
		.st2{opacity:0.9895;fill:url(#path3306_3_);stroke:#5A5A59;stroke-width:0.9965;stroke-linecap:round;stroke-linejoin:round;enable-background:new    ;}
	
		.st3{opacity:0.9895;fill:url(#path3310_3_);stroke:#5A5A59;stroke-width:0.9965;stroke-linecap:round;stroke-linejoin:round;enable-background:new    ;}
	
		.st4{opacity:0.9895;fill:url(#path3312_3_);stroke:#5A5A59;stroke-width:0.9965;stroke-linecap:round;stroke-linejoin:round;enable-background:new    ;}
	
		.st5{opacity:0.9895;fill:url(#path3314_3_);stroke:#5A5A59;stroke-width:0.9965;stroke-linecap:round;stroke-linejoin:round;enable-background:new    ;}
	
		.st6{opacity:0.9895;fill:url(#path3316_3_);stroke:#5A5A59;stroke-width:0.9965;stroke-linecap:round;stroke-linejoin:round;enable-background:new    ;}
	
		.st7{opacity:0.9895;fill:url(#path3318_3_);stroke:#5A5A59;stroke-width:0.9965;stroke-linecap:round;stroke-linejoin:round;enable-background:new    ;}
	
		.st8{opacity:0.9895;fill:url(#path3320_3_);stroke:#5A5A59;stroke-width:0.9965;stroke-linecap:round;stroke-linejoin:round;enable-background:new    ;}
	
		.st9{opacity:0.9895;fill:url(#path3322_3_);stroke:#5A5A59;stroke-width:0.9965;stroke-linecap:round;stroke-linejoin:round;enable-background:new    ;}
	
		.st10{opacity:0.9895;fill:url(#path3308_3_);stroke:#5A5A59;stroke-width:0.9965;stroke-linecap:round;stroke-linejoin:round;enable-background:new    ;}
	
		.st11{opacity:0.9895;fill:url(#path3324_3_);stroke:#5A5A59;stroke-width:0.9965;stroke-linecap:round;stroke-linejoin:round;enable-background:new    ;}
	
		.st12{opacity:0.9895;fill:url(#path3326_3_);stroke:#5A5A59;stroke-width:0.9965;stroke-linecap:round;stroke-linejoin:round;enable-background:new    ;}
	
		.st13{opacity:0.9895;fill:url(#path3328_3_);stroke:#5A5A59;stroke-width:0.9965;stroke-linecap:round;stroke-linejoin:round;enable-background:new    ;}
	
		.st14{opacity:0.9895;fill:url(#path3330_3_);stroke:#5A5A59;stroke-width:0.9965;stroke-linecap:round;stroke-linejoin:round;enable-background:new    ;}
	
		.st15{opacity:0.9895;fill:url(#path3332_3_);stroke:#5A5A59;stroke-width:0.9965;stroke-linecap:round;stroke-linejoin:round;enable-background:new    ;}
	
		.st16{opacity:0.9895;fill:url(#path3334_3_);stroke:#5A5A59;stroke-width:0.9965;stroke-linecap:round;stroke-linejoin:round;enable-background:new    ;}
	
		.st17{opacity:0.9895;fill:url(#path3336_3_);stroke:#5A5A59;stroke-width:0.9965;stroke-linecap:round;stroke-linejoin:round;enable-background:new    ;}
	
		.st18{opacity:0.9895;fill:url(#path3338_3_);stroke:#5A5A59;stroke-width:0.9965;stroke-linecap:round;stroke-linejoin:round;enable-background:new    ;}
	
		.st19{opacity:0.9895;fill:url(#path3340_3_);stroke:#5A5A59;stroke-width:0.9965;stroke-linecap:round;stroke-linejoin:round;enable-background:new    ;}
	.st20{opacity:0.9895;enable-background:new    ;}
	
		.st21{opacity:0.9895;fill:url(#path3302_5_);stroke:#5A5A59;stroke-width:0.9965;stroke-linecap:round;stroke-linejoin:round;enable-background:new    ;}
	
		.st22{opacity:0.9895;fill:url(#path3304_5_);stroke:#5A5A59;stroke-width:0.9965;stroke-linecap:round;stroke-linejoin:round;enable-background:new    ;}
	
		.st23{opacity:0.9895;fill:url(#path3306_5_);stroke:#5A5A59;stroke-width:0.9965;stroke-linecap:round;stroke-linejoin:round;enable-background:new    ;}
	
		.st24{opacity:0.9895;fill:url(#path3310_5_);stroke:#5A5A59;stroke-width:0.9965;stroke-linecap:round;stroke-linejoin:round;enable-background:new    ;}
	
		.st25{opacity:0.9895;fill:url(#path3312_5_);stroke:#5A5A59;stroke-width:0.9965;stroke-linecap:round;stroke-linejoin:round;enable-background:new    ;}
	
		.st26{opacity:0.9895;fill:url(#path3314_5_);stroke:#5A5A59;stroke-width:0.9965;stroke-linecap:round;stroke-linejoin:round;enable-background:new    ;}
	
		.st27{opacity:0.9895;fill:url(#path3316_5_);stroke:#5A5A59;stroke-width:0.9965;stroke-linecap:round;stroke-linejoin:round;enable-background:new    ;}
	
		.st28{opacity:0.9895;fill:url(#path3318_5_);stroke:#5A5A59;stroke-width:0.9965;stroke-linecap:round;stroke-linejoin:round;enable-background:new    ;}
	
		.st29{opacity:0.9895;fill:url(#path3320_5_);stroke:#5A5A59;stroke-width:0.9965;stroke-linecap:round;stroke-linejoin:round;enable-background:new    ;}
	
		.st30{opacity:0.9895;fill:url(#path3322_5_);stroke:#5A5A59;stroke-width:0.9965;stroke-linecap:round;stroke-linejoin:round;enable-background:new    ;}
	
		.st31{opacity:0.9895;fill:url(#path3308_5_);stroke:#5A5A59;stroke-width:0.9965;stroke-linecap:round;stroke-linejoin:round;enable-background:new    ;}
	
		.st32{opacity:0.9895;fill:url(#path3324_5_);stroke:#5A5A59;stroke-width:0.9965;stroke-linecap:round;stroke-linejoin:round;enable-background:new    ;}
	
		.st33{opacity:0.9895;fill:url(#path3326_5_);stroke:#5A5A59;stroke-width:0.9965;stroke-linecap:round;stroke-linejoin:round;enable-background:new    ;}
	
		.st34{opacity:0.9895;fill:url(#path3328_5_);stroke:#5A5A59;stroke-width:0.9965;stroke-linecap:round;stroke-linejoin:round;enable-background:new    ;}
	
		.st35{opacity:0.9895;fill:url(#path3330_5_);stroke:#5A5A59;stroke-width:0.9965;stroke-linecap:round;stroke-linejoin:round;enable-background:new    ;}
	
		.st36{opacity:0.9895;fill:url(#path3332_5_);stroke:#5A5A59;stroke-width:0.9965;stroke-linecap:round;stroke-linejoin:round;enable-background:new    ;}
	
		.st37{opacity:0.9895;fill:url(#path3334_5_);stroke:#5A5A59;stroke-width:0.9965;stroke-linecap:round;stroke-linejoin:round;enable-background:new    ;}
	
		.st38{opacity:0.9895;fill:url(#path3336_5_);stroke:#5A5A59;stroke-width:0.9965;stroke-linecap:round;stroke-linejoin:round;enable-background:new    ;}
	
		.st39{opacity:0.9895;fill:url(#path3338_5_);stroke:#5A5A59;stroke-width:0.9965;stroke-linecap:round;stroke-linejoin:round;enable-background:new    ;}
	
		.st40{opacity:0.9895;fill:url(#path3340_5_);stroke:#5A5A59;stroke-width:0.9965;stroke-linecap:round;stroke-linejoin:round;enable-background:new    ;}
	
		.st41{opacity:0.9895;fill:url(#path3302_6_);stroke:#5A5A59;stroke-width:0.9965;stroke-linecap:round;stroke-linejoin:round;enable-background:new    ;}
	
		.st42{opacity:0.9895;fill:url(#path3304_6_);stroke:#5A5A59;stroke-width:0.9965;stroke-linecap:round;stroke-linejoin:round;enable-background:new    ;}
	
		.st43{opacity:0.9895;fill:url(#path3306_6_);stroke:#5A5A59;stroke-width:0.9965;stroke-linecap:round;stroke-linejoin:round;enable-background:new    ;}
	
		.st44{opacity:0.9895;fill:url(#path3310_6_);stroke:#5A5A59;stroke-width:0.9965;stroke-linecap:round;stroke-linejoin:round;enable-background:new    ;}
	
		.st45{opacity:0.9895;fill:url(#path3312_6_);stroke:#5A5A59;stroke-width:0.9965;stroke-linecap:round;stroke-linejoin:round;enable-background:new    ;}
	
		.st46{opacity:0.9895;fill:url(#path3314_6_);stroke:#5A5A59;stroke-width:0.9965;stroke-linecap:round;stroke-linejoin:round;enable-background:new    ;}
	
		.st47{opacity:0.9895;fill:url(#path3316_6_);stroke:#5A5A59;stroke-width:0.9965;stroke-linecap:round;stroke-linejoin:round;enable-background:new    ;}
	
		.st48{opacity:0.9895;fill:url(#path3318_6_);stroke:#5A5A59;stroke-width:0.9965;stroke-linecap:round;stroke-linejoin:round;enable-background:new    ;}
	
		.st49{opacity:0.9895;fill:url(#path3320_6_);stroke:#5A5A59;stroke-width:0.9965;stroke-linecap:round;stroke-linejoin:round;enable-background:new    ;}
	
		.st50{opacity:0.9895;fill:url(#path3322_6_);stroke:#5A5A59;stroke-width:0.9965;stroke-linecap:round;stroke-linejoin:round;enable-background:new    ;}
	
		.st51{opacity:0.9895;fill:url(#path3308_6_);stroke:#5A5A59;stroke-width:0.9965;stroke-linecap:round;stroke-linejoin:round;enable-background:new    ;}
	
		.st52{opacity:0.9895;fill:url(#path3324_6_);stroke:#5A5A59;stroke-width:0.9965;stroke-linecap:round;stroke-linejoin:round;enable-background:new    ;}
	
		.st53{opacity:0.9895;fill:url(#path3326_6_);stroke:#5A5A59;stroke-width:0.9965;stroke-linecap:round;stroke-linejoin:round;enable-background:new    ;}
	
		.st54{opacity:0.9895;fill:url(#path3328_6_);stroke:#5A5A59;stroke-width:0.9965;stroke-linecap:round;stroke-linejoin:round;enable-background:new    ;}
	
		.st55{opacity:0.9895;fill:url(#path3330_6_);stroke:#5A5A59;stroke-width:0.9965;stroke-linecap:round;stroke-linejoin:round;enable-background:new    ;}
	
		.st56{opacity:0.9895;fill:url(#path3332_6_);stroke:#5A5A59;stroke-width:0.9965;stroke-linecap:round;stroke-linejoin:round;enable-background:new    ;}
	
		.st57{opacity:0.9895;fill:url(#path3334_6_);stroke:#5A5A59;stroke-width:0.9965;stroke-linecap:round;stroke-linejoin:round;enable-background:new    ;}
	
		.st58{opacity:0.9895;fill:url(#path3336_6_);stroke:#5A5A59;stroke-width:0.9965;stroke-linecap:round;stroke-linejoin:round;enable-background:new    ;}
	
		.st59{opacity:0.9895;fill:url(#path3338_6_);stroke:#5A5A59;stroke-width:0.9965;stroke-linecap:round;stroke-linejoin:round;enable-background:new    ;}
	
		.st60{opacity:0.9895;fill:url(#path3340_6_);stroke:#5A5A59;stroke-width:0.9965;stroke-linecap:round;stroke-linejoin:round;enable-background:new    ;}
	.st61{fill:#004C99;stroke:#5A5A59;stroke-width:0.9965;stroke-linecap:round;stroke-linejoin:round;}
	.st62{opacity:0.3;}
</style>





<g
   inkscape:groupmode="layer"
   id="layer1"
   inkscape:label="red"
   style="display:none"><g
     id="g1352">
	<g
   id="g1288">
		<linearGradient
   id="path3302_3_"
   gradientUnits="userSpaceOnUse"
   x1="261.125"
   y1="263.52499"
   x2="469.875"
   y2="54.775002">
			<stop
   offset="0.3254"
   style="stop-color:#E63329"
   id="stop1228" />
			<stop
   offset="0.6124"
   style="stop-color:#B92D1F"
   id="stop1230" />
		</linearGradient>
		<path
   id="path3302_4_"
   class="st0"
   d="m 320.7,8.6 c 48.9,-18 67.6,15.3 109.7,6.7 l -71.6,345.9 z" />
		<linearGradient
   id="path3304_3_"
   gradientUnits="userSpaceOnUse"
   x1="334.72501"
   y1="332.22491"
   x2="585.56543"
   y2="81.384598">
			<stop
   offset="0.3254"
   style="stop-color:#E63329"
   id="stop1234" />
			<stop
   offset="0.6124"
   style="stop-color:#B92D1F"
   id="stop1236" />
		</linearGradient>
		<path
   id="path3304_4_"
   class="st1"
   d="m 538.9,49.8 c 50.3,13.9 46.1,53.5 85.4,71.1 l -262.9,238 z" />
		<linearGradient
   id="path3306_3_"
   gradientUnits="userSpaceOnUse"
   x1="439.5"
   y1="437.70001"
   x2="673.79999"
   y2="203.39999">
			<stop
   offset="0.3254"
   style="stop-color:#E63329"
   id="stop1240" />
			<stop
   offset="0.6124"
   style="stop-color:#B92D1F"
   id="stop1242" />
		</linearGradient>
		<path
   id="path3306_4_"
   class="st2"
   d="m 684.4,214 c 32.4,40.6 8.8,68.9 30,105.8 L 361,359.2 Z" />
		<linearGradient
   id="path3310_3_"
   gradientUnits="userSpaceOnUse"
   x1="481.39999"
   y1="480.10001"
   x2="620.15002"
   y2="341.35001">
			<stop
   offset="0.3254"
   style="stop-color:#E63329"
   id="stop1246" />
			<stop
   offset="0.6124"
   style="stop-color:#B92D1F"
   id="stop1248" />
		</linearGradient>
		<path
   id="path3310_4_"
   class="st3"
   d="m 709.1,430.3 c 2.2,51.8 -34.7,61 -39.5,103.4 L 360.5,359.2 Z" />
		<linearGradient
   id="path3312_3_"
   gradientUnits="userSpaceOnUse"
   x1="398.09509"
   y1="571.79498"
   x2="485.49509"
   y2="484.39499">
			<stop
   offset="0.3254"
   style="stop-color:#E63329"
   id="stop1252" />
			<stop
   offset="0.6124"
   style="stop-color:#B92D1F"
   id="stop1254" />
		</linearGradient>
		<path
   id="path3312_4_"
   class="st4"
   d="m 599.2,619 c -28.9,43.2 -63.5,30.1 -92.4,61.5 L 360,358.9 Z" />
		<linearGradient
   id="path3314_3_"
   gradientUnits="userSpaceOnUse"
   x1="249.675"
   y1="665.67499"
   x2="458.42499"
   y2="456.92499">
			<stop
   offset="0.3254"
   style="stop-color:#E63329"
   id="stop1258" />
			<stop
   offset="0.6124"
   style="stop-color:#B92D1F"
   id="stop1260" />
		</linearGradient>
		<path
   id="path3314_4_"
   class="st5"
   d="m 399.1,713.3 c -48.9,18 -68.8,-17.6 -110.8,-9 l 71.6,-345.9 z" />
		<linearGradient
   id="path3316_3_"
   gradientUnits="userSpaceOnUse"
   x1="135.493"
   y1="635.80701"
   x2="386.75"
   y2="384.54999">
			<stop
   offset="0.3254"
   style="stop-color:#E63329"
   id="stop1264" />
			<stop
   offset="0.6124"
   style="stop-color:#B92D1F"
   id="stop1266" />
		</linearGradient>
		<path
   id="path3316_4_"
   class="st6"
   d="M 181.9,667.4 C 131.6,653.5 136.5,613.5 97.4,595.9 l 262.7,-238 z" />
		<linearGradient
   id="path3318_3_"
   gradientUnits="userSpaceOnUse"
   x1="48.525002"
   y1="512.52502"
   x2="282.02499"
   y2="279.0249">
			<stop
   offset="0.3254"
   style="stop-color:#E63329"
   id="stop1270" />
			<stop
   offset="0.6124"
   style="stop-color:#B92D1F"
   id="stop1272" />
		</linearGradient>
		<path
   id="path3318_4_"
   class="st7"
   d="M 38.1,502.1 C 5.7,461.5 28.3,433.9 7.1,396.8 l 353.5,-39.2 z" />
		<linearGradient
   id="path3320_3_"
   gradientUnits="userSpaceOnUse"
   x1="101.275"
   y1="375.375"
   x2="240.075"
   y2="236.575">
			<stop
   offset="0.3254"
   style="stop-color:#E63329"
   id="stop1276" />
			<stop
   offset="0.6124"
   style="stop-color:#B92D1F"
   id="stop1278" />
		</linearGradient>
		<path
   id="path3320_4_"
   class="st8"
   d="M 13.2,287.3 C 11,235.5 47.1,225.4 51.8,183 L 361,357.5 Z" />
		<linearGradient
   id="path3322_3_"
   gradientUnits="userSpaceOnUse"
   x1="235.16949"
   y1="231.36951"
   x2="322.5195"
   y2="144.0195">
			<stop
   offset="0.3254"
   style="stop-color:#E63329"
   id="stop1282" />
			<stop
   offset="0.6124"
   style="stop-color:#B92D1F"
   id="stop1284" />
		</linearGradient>
		<path
   id="path3322_4_"
   class="st9"
   d="M 119.9,96.5 C 148.8,53.3 185.7,67.7 214.6,36.1 L 361.5,357.7 Z" />
	</g>
	<g
   id="g1350">
		<linearGradient
   id="path3308_3_"
   gradientUnits="userSpaceOnUse"
   x1="399.625"
   y1="398.625"
   x2="651.23077"
   y2="147.0192">
			<stop
   offset="0.3254"
   style="stop-color:#E63329"
   id="stop1290" />
			<stop
   offset="0.6124"
   style="stop-color:#B92D1F"
   id="stop1292" />
		</linearGradient>
		<path
   id="path3308_4_"
   class="st10"
   d="m 599.4,98 c 43.5,28.7 53.7,87.5 85.5,116.2 L 361.1,360.1 Z" />
		<linearGradient
   id="path3324_3_"
   gradientUnits="userSpaceOnUse"
   x1="240.35001"
   y1="238.35001"
   x2="396.10001"
   y2="82.599998">
			<stop
   offset="0.3254"
   style="stop-color:#E63329"
   id="stop1296" />
			<stop
   offset="0.6124"
   style="stop-color:#B92D1F"
   id="stop1298" />
		</linearGradient>
		<path
   id="path3324_4_"
   class="st11"
   d="M 184,53 C 224.9,20.9 284.5,29.3 321.7,8.2 l 39.5,351 z" />
		<linearGradient
   id="path3326_3_"
   gradientUnits="userSpaceOnUse"
   x1="282.97501"
   y1="281.375"
   x2="524.32501"
   y2="40.025002">
			<stop
   offset="0.3254"
   style="stop-color:#E63329"
   id="stop1302" />
			<stop
   offset="0.6124"
   style="stop-color:#B92D1F"
   id="stop1304" />
		</linearGradient>
		<path
   id="path3326_4_"
   class="st12"
   d="m 399.1,8.6 c 52.2,-2.2 95.3,39.5 138,44.2 L 361.3,359.7 Z" />
		<linearGradient
   id="path3328_3_"
   gradientUnits="userSpaceOnUse"
   x1="465.27499"
   y1="465.17499"
   x2="675.97498"
   y2="254.47501">
			<stop
   offset="0.3254"
   style="stop-color:#E63329"
   id="stop1308" />
			<stop
   offset="0.6124"
   style="stop-color:#B92D1F"
   id="stop1310" />
		</linearGradient>
		<path
   id="path3328_4_"
   class="st13"
   d="m 709.1,287.6 c 18.2,48.5 -9,102 -0.3,143.8 L 360.4,360.3 Z" />
		<linearGradient
   id="path3330_3_"
   gradientUnits="userSpaceOnUse"
   x1="474.5"
   y1="495.79999"
   x2="575.29999"
   y2="395">
			<stop
   offset="0.3254"
   style="stop-color:#E63329"
   id="stop1314" />
			<stop
   offset="0.6124"
   style="stop-color:#B92D1F"
   id="stop1316" />
		</linearGradient>
		<path
   id="path3330_4_"
   class="st14"
   d="m 684.6,504.3 c -14,49.9 -67.2,77.8 -85,116.6 L 360,360.1 Z" />
		<linearGradient
   id="path3332_3_"
   gradientUnits="userSpaceOnUse"
   x1="324.85001"
   y1="636.15002"
   x2="480.5"
   y2="480.5">
			<stop
   offset="0.3254"
   style="stop-color:#E63329"
   id="stop1320" />
			<stop
   offset="0.6124"
   style="stop-color:#B92D1F"
   id="stop1322" />
		</linearGradient>
		<path
   id="path3332_4_"
   class="st15"
   d="m 537,665.8 c -40.9,32.1 -100.5,23.7 -137.7,44.8 l -39.7,-351 z" />
		<linearGradient
   id="path3334_3_"
   gradientUnits="userSpaceOnUse"
   x1="196.72501"
   y1="678.72498"
   x2="438.07501"
   y2="437.375">
			<stop
   offset="0.3254"
   style="stop-color:#E63329"
   id="stop1326" />
			<stop
   offset="0.6124"
   style="stop-color:#B92D1F"
   id="stop1328" />
		</linearGradient>
		<path
   id="path3334_4_"
   class="st16"
   d="M 322,710.2 C 269.8,712.4 226.7,670.7 184,666 L 359.7,359 Z" />
		<linearGradient
   id="path3336_3_"
   gradientUnits="userSpaceOnUse"
   x1="69.769203"
   y1="571.68073"
   x2="321.42499"
   y2="320.02499">
			<stop
   offset="0.3254"
   style="stop-color:#E63329"
   id="stop1332" />
			<stop
   offset="0.6124"
   style="stop-color:#B92D1F"
   id="stop1334" />
		</linearGradient>
		<path
   id="path3336_4_"
   class="st17"
   d="M 121.6,620.7 C 78.1,592 67.9,533.2 36.1,504.5 L 360,358.6 Z" />
		<linearGradient
   id="path3338_3_"
   gradientUnits="userSpaceOnUse"
   x1="45.275002"
   y1="463.97501"
   x2="255.72501"
   y2="253.52499">
			<stop
   offset="0.3254"
   style="stop-color:#E63329"
   id="stop1338" />
			<stop
   offset="0.6124"
   style="stop-color:#B92D1F"
   id="stop1340" />
		</linearGradient>
		<path
   id="path3338_4_"
   class="st18"
   d="M 12.6,431.3 C -5.6,382.8 21,329 12.2,287.3 l 348.4,71.1 z" />
		<linearGradient
   id="path3340_3_"
   gradientUnits="userSpaceOnUse"
   x1="145.75"
   y1="323.85001"
   x2="246.55"
   y2="223.05">
			<stop
   offset="0.3254"
   style="stop-color:#E63329"
   id="stop1344" />
			<stop
   offset="0.6124"
   style="stop-color:#B92D1F"
   id="stop1346" />
		</linearGradient>
		<path
   id="path3340_4_"
   class="st19"
   d="m 36.4,214.5 c 14,-49.9 67.2,-77.8 85,-116.6 l 239.7,260.9 z" />
	</g>
</g><path
     style="fill:#000000;fill-opacity:0;fill-rule:evenodd;stroke:#000000;stroke-width:2.007;stroke-linecap:round;stroke-miterlimit:4;stroke-dasharray:none;stroke-opacity:1;paint-order:fill markers stroke"
     id="path16252"
     sodipodi:type="arc"
     sodipodi:cx="360.63962"
     sodipodi:cy="360.90927"
     sodipodi:rx="261.62036"
     sodipodi:ry="259.47031"
     sodipodi:start="4.920345"
     sodipodi:end="4.8959453"
     sodipodi:open="true"
     sodipodi:arc-type="arc"
     d="M 414.65386,107.02926 A 261.62036,259.47031 0 0 1 616.94808,412.92998 261.62036,259.47031 0 0 1 309.75228,615.42392 261.62036,259.47031 0 0 1 103.71035,311.99359 261.62036,259.47031 0 0 1 408.39248,105.79786" /></g><g
   inkscape:groupmode="layer"
   id="layer2"
   inkscape:label="white"
   style="display:inline"><g
     class="st20"
     id="g1478">
	<g
   id="g1414">
		
			<linearGradient
   id="path3302_5_"
   gradientUnits="userSpaceOnUse"
   x1="396.25711"
   y1="-13.6055"
   x2="322.9931"
   y2="-18.4254"
   gradientTransform="translate(0,252.6096)">
			<stop
   offset="0"
   style="stop-color:#FFFFFF"
   id="stop1354" />
			<stop
   offset="1"
   style="stop-color:#D8D8D8"
   id="stop1356" />
		</linearGradient>
		<path
   id="path3302_2_"
   class="st21"
   d="m 331.5,114.8 c 34.3,-12.7 47.3,10.7 76.8,4.7 l -50.1,242.2 z" />
		
			<linearGradient
   id="path3304_5_"
   gradientUnits="userSpaceOnUse"
   x1="468.2041"
   y1="31.6611"
   x2="408.6066"
   y2="-17.363001"
   gradientTransform="translate(0,252.6096)">
			<stop
   offset="0"
   style="stop-color:#FFFFFF"
   id="stop1360" />
			<stop
   offset="1"
   style="stop-color:#D8D8D8"
   id="stop1362" />
		</linearGradient>
		<path
   id="path3304_2_"
   class="st22"
   d="m 485.4,142.4 c 35.2,9.8 32.3,37.5 59.7,49.8 L 361.2,358.8 Z" />
		
			<linearGradient
   id="path3306_5_"
   gradientUnits="userSpaceOnUse"
   x1="490.23071"
   y1="107.4641"
   x2="472.0347"
   y2="35.6376"
   gradientTransform="translate(0,252.6096)">
			<stop
   offset="0"
   style="stop-color:#FFFFFF"
   id="stop1366" />
			<stop
   offset="1"
   style="stop-color:#D8D8D8"
   id="stop1368" />
		</linearGradient>
		<path
   id="path3306_2_"
   class="st23"
   d="m 587.4,257.4 c 22.7,28.4 6.2,48.3 21,74.1 L 361,359 Z" />
		
			<linearGradient
   id="path3310_5_"
   gradientUnits="userSpaceOnUse"
   x1="465.13171"
   y1="180.78439"
   x2="493.8765"
   y2="111.7968"
   gradientTransform="translate(0,252.6096)">
			<stop
   offset="0"
   style="stop-color:#FFFFFF"
   id="stop1372" />
			<stop
   offset="1"
   style="stop-color:#D8D8D8"
   id="stop1374" />
		</linearGradient>
		<path
   id="path3310_2_"
   class="st24"
   d="m 604.7,408.8 c 1.5,36.3 -24.2,42.7 -27.7,72.4 L 360.6,359 Z" />
		
			<linearGradient
   id="path3312_5_"
   gradientUnits="userSpaceOnUse"
   x1="397.4299"
   y1="231.8116"
   x2="458.02921"
   y2="190.4502"
   gradientTransform="translate(0,252.6096)">
			<stop
   offset="0"
   style="stop-color:#FFFFFF"
   id="stop1378" />
			<stop
   offset="1"
   style="stop-color:#D8D8D8"
   id="stop1380" />
		</linearGradient>
		<path
   id="path3312_2_"
   class="st25"
   d="m 527.8,540.9 c -20.3,30.2 -44.4,21 -64.7,43.1 L 360.2,358.8 Z" />
		
			<linearGradient
   id="path3314_5_"
   gradientUnits="userSpaceOnUse"
   x1="323.90659"
   y1="227.9371"
   x2="399.09619"
   y2="235.6488"
   gradientTransform="translate(0,252.6096)">
			<stop
   offset="0"
   style="stop-color:#FFFFFF"
   id="stop1384" />
			<stop
   offset="1"
   style="stop-color:#D8D8D8"
   id="stop1386" />
		</linearGradient>
		<path
   id="path3314_2_"
   class="st26"
   d="m 387.7,607 c -34.3,12.7 -48.2,-12.3 -77.6,-6.3 l 50.1,-242.2 z" />
		
			<linearGradient
   id="path3316_5_"
   gradientUnits="userSpaceOnUse"
   x1="259.379"
   y1="183.4431"
   x2="314.16089"
   y2="232.4586"
   gradientTransform="translate(0,252.6096)">
			<stop
   offset="0"
   style="stop-color:#FFFFFF"
   id="stop1390" />
			<stop
   offset="1"
   style="stop-color:#D8D8D8"
   id="stop1392" />
		</linearGradient>
		<path
   id="path3316_2_"
   class="st27"
   d="m 235.5,574.8 c -35.2,-9.8 -31.8,-37.7 -59.2,-50 L 360.2,358.2 Z" />
		
			<linearGradient
   id="path3318_5_"
   gradientUnits="userSpaceOnUse"
   x1="229.8683"
   y1="101.032"
   x2="249.9808"
   y2="173.8203"
   gradientTransform="translate(0,252.6096)">
			<stop
   offset="0"
   style="stop-color:#FFFFFF"
   id="stop1396" />
			<stop
   offset="1"
   style="stop-color:#D8D8D8"
   id="stop1398" />
		</linearGradient>
		<path
   id="path3318_2_"
   class="st28"
   d="m 134.9,459.1 c -22.7,-28.4 -6.8,-47.7 -21.7,-73.7 L 360.6,358 Z" />
		
			<linearGradient
   id="path3320_5_"
   gradientUnits="userSpaceOnUse"
   x1="257.0575"
   y1="26.767599"
   x2="229.2776"
   y2="99.57"
   gradientTransform="translate(0,252.6096)">
			<stop
   offset="0"
   style="stop-color:#FFFFFF"
   id="stop1402" />
			<stop
   offset="1"
   style="stop-color:#D8D8D8"
   id="stop1404" />
		</linearGradient>
		<path
   id="path3320_2_"
   class="st29"
   d="m 117.5,308.7 c -1.5,-36.3 23.7,-43.3 27,-73.1 L 361,357.8 Z" />
		
			<linearGradient
   id="path3322_5_"
   gradientUnits="userSpaceOnUse"
   x1="321.81561"
   y1="-18.138"
   x2="256.3974"
   y2="24.191601"
   gradientTransform="translate(0,252.6096)">
			<stop
   offset="0"
   style="stop-color:#FFFFFF"
   id="stop1408" />
			<stop
   offset="1"
   style="stop-color:#D8D8D8"
   id="stop1410" />
		</linearGradient>
		<path
   id="path3322_2_"
   class="st30"
   d="m 192.2,175.1 c 20.3,-30.2 46.1,-20.2 66.3,-42.3 L 361.3,358 Z" />
	</g>
	<g
   id="g1476">
		
			<linearGradient
   id="path3308_5_"
   gradientUnits="userSpaceOnUse"
   x1="361"
   y1="579.33002"
   x2="587.70001"
   y2="579.33002"
   gradientTransform="matrix(1,0,0,-1,0,847.28)">
			<stop
   offset="0"
   style="stop-color:#FFFFFF"
   id="stop1416" />
			<stop
   offset="1"
   style="stop-color:#D8D8D8"
   id="stop1418" />
		</linearGradient>
		<path
   id="path3308_2_"
   class="st31"
   d="m 527.9,176.2 c 30.4,20.1 37.6,61.3 59.8,81.3 L 361,359.7 Z" />
		
			<linearGradient
   id="path3324_5_"
   gradientUnits="userSpaceOnUse"
   x1="237"
   y1="611.13"
   x2="361.10001"
   y2="611.13"
   gradientTransform="matrix(1,0,0,-1,0,847.28)">
			<stop
   offset="0"
   style="stop-color:#FFFFFF"
   id="stop1422" />
			<stop
   offset="1"
   style="stop-color:#D8D8D8"
   id="stop1424" />
		</linearGradient>
		<path
   id="path3324_2_"
   class="st32"
   d="m 237,144.7 c 28.7,-22.5 70.4,-16.5 96.4,-31.4 L 361.1,359 Z" />
		
			<linearGradient
   id="path3326_5_"
   gradientUnits="userSpaceOnUse"
   x1="361.10001"
   y1="610.75787"
   x2="484.10001"
   y2="610.75787"
   gradientTransform="matrix(1,0,0,-1,0,847.28)">
			<stop
   offset="0"
   style="stop-color:#FFFFFF"
   id="stop1428" />
			<stop
   offset="1"
   style="stop-color:#D8D8D8"
   id="stop1430" />
		</linearGradient>
		<path
   id="path3326_2_"
   class="st33"
   d="m 387.6,113.6 c 36.6,-1.5 66.7,27.7 96.5,31 l -123,214.9 z" />
		
			<linearGradient
   id="path3328_5_"
   gradientUnits="userSpaceOnUse"
   x1="360.60001"
   y1="488.03"
   x2="609.17572"
   y2="488.03"
   gradientTransform="matrix(1,0,0,-1,0,847.28)">
			<stop
   offset="0"
   style="stop-color:#FFFFFF"
   id="stop1434" />
			<stop
   offset="1"
   style="stop-color:#D8D8D8"
   id="stop1436" />
		</linearGradient>
		<path
   id="path3328_2_"
   class="st34"
   d="m 604.7,308.9 c 12.7,33.9 -6.3,71.4 -0.2,100.7 L 360.6,359.8 Z" />
		
			<linearGradient
   id="path3330_5_"
   gradientUnits="userSpaceOnUse"
   x1="360.20001"
   y1="396.28"
   x2="587.5"
   y2="396.28"
   gradientTransform="matrix(1,0,0,-1,0,847.28)">
			<stop
   offset="0"
   style="stop-color:#FFFFFF"
   id="stop1440" />
			<stop
   offset="1"
   style="stop-color:#D8D8D8"
   id="stop1442" />
		</linearGradient>
		<path
   id="path3330_2_"
   class="st35"
   d="M 587.5,460.6 C 577.7,495.5 540.4,515 528,542.3 L 360.2,359.7 Z" />
		
			<linearGradient
   id="path3332_5_"
   gradientUnits="userSpaceOnUse"
   x1="360"
   y1="365.03"
   x2="484.20001"
   y2="365.03"
   gradientTransform="matrix(1,0,0,-1,0,847.28)">
			<stop
   offset="0"
   style="stop-color:#FFFFFF"
   id="stop1446" />
			<stop
   offset="1"
   style="stop-color:#D8D8D8"
   id="stop1448" />
		</linearGradient>
		<path
   id="path3332_2_"
   class="st36"
   d="m 484.2,573.7 c -28.7,22.5 -70.4,16.5 -96.4,31.4 L 360,359.4 Z" />
		
			<linearGradient
   id="path3334_5_"
   gradientUnits="userSpaceOnUse"
   x1="237.10001"
   y1="365.45209"
   x2="360.10001"
   y2="365.45209"
   gradientTransform="matrix(1,0,0,-1,0,847.28)">
			<stop
   offset="0"
   style="stop-color:#FFFFFF"
   id="stop1452" />
			<stop
   offset="1"
   style="stop-color:#D8D8D8"
   id="stop1454" />
		</linearGradient>
		<path
   id="path3334_2_"
   class="st37"
   d="m 333.6,604.8 c -36.6,1.5 -66.7,-27.7 -96.5,-31 l 123,-215 z" />
		
			<linearGradient
   id="path3336_5_"
   gradientUnits="userSpaceOnUse"
   x1="133.5"
   y1="396.92999"
   x2="360.20001"
   y2="396.92999"
   gradientTransform="matrix(1,0,0,-1,0,847.28)">
			<stop
   offset="0"
   style="stop-color:#FFFFFF"
   id="stop1458" />
			<stop
   offset="1"
   style="stop-color:#D8D8D8"
   id="stop1460" />
		</linearGradient>
		<path
   id="path3336_2_"
   class="st38"
   d="M 193.3,542.1 C 162.9,522 155.7,480.8 133.5,460.8 L 360.2,358.6 Z" />
		
			<linearGradient
   id="path3338_5_"
   gradientUnits="userSpaceOnUse"
   x1="112.4378"
   y1="488.17999"
   x2="360.60001"
   y2="488.17999"
   gradientTransform="matrix(1,0,0,-1,0,847.28)">
			<stop
   offset="0"
   style="stop-color:#FFFFFF"
   id="stop1464" />
			<stop
   offset="1"
   style="stop-color:#D8D8D8"
   id="stop1466" />
		</linearGradient>
		<path
   id="path3338_2_"
   class="st39"
   d="m 117,409.5 c -12.7,-33.9 5.8,-71.6 -0.3,-100.8 l 243.9,49.8 z" />
		
			<linearGradient
   id="path3340_5_"
   gradientUnits="userSpaceOnUse"
   x1="133.7"
   y1="579.88"
   x2="361"
   y2="579.88"
   gradientTransform="matrix(1,0,0,-1,0,847.28)">
			<stop
   offset="0"
   style="stop-color:#FFFFFF"
   id="stop1470" />
			<stop
   offset="1"
   style="stop-color:#D8D8D8"
   id="stop1472" />
		</linearGradient>
		<path
   id="path3340_2_"
   class="st40"
   d="m 133.7,257.8 c 9.8,-34.9 47.1,-54.4 59.5,-81.7 L 361,358.7 Z" />
	</g>
</g><g
     aria-label="other states"
     id="text69141"
     style="font-size:40px;line-height:1.25"><path
       d="m 268.35984,219.7882 q 3.19892,4.26584 2.8627,8.3752 -0.33622,4.10935 -4.00829,6.863 -3.70332,2.77708 -7.74232,1.94868 -4.02338,-0.84013 -7.2223,-5.10597 -3.19893,-4.26585 -2.87833,-8.36349 0.32451,-4.12497 4.02783,-6.90206 3.67206,-2.75365 7.72279,-1.90962 4.039,0.82841 7.23792,5.09426 z m -3.03141,2.27322 q -2.54273,-3.3908 -5.10128,-4.03551 -2.57026,-0.66033 -4.92976,1.10903 -2.39075,1.79281 -2.47687,4.44514 -0.0822,2.625 2.46051,6.0158 2.46071,3.28142 5.06613,3.98863 2.5937,0.69159 4.96883,-1.08949 2.34387,-1.75765 2.41828,-4.42562 0.0783,-2.6953 -2.40584,-6.00798 z"
       id="path81233" /><path
       d="m 289.60847,219.90785 q -0.76426,0.74982 -1.74656,1.51141 -0.96533,0.75194 -1.797,1.22548 -2.90233,1.65258 -5.30201,0.9512 -2.39968,-0.70138 -4.3615,-4.14684 l -5.74053,-10.0818 -2.15553,1.22735 -1.52694,-2.68169 2.15553,-1.22735 -3.1022,-5.44824 3.19087,-1.81687 3.1022,5.44824 6.58542,-3.7497 1.52694,2.68169 -6.58542,3.7497 4.91907,8.63912 q 0.85045,1.4936 1.40155,2.30358 0.54144,0.79301 1.36434,1.29089 0.75997,0.4663 1.58855,0.42154 0.83589,-0.0714 2.17674,-0.83486 0.78074,-0.44455 1.50375,-1.14841 0.71333,-0.72083 0.99976,-1.08619 l 0.16972,-0.0966 z"
       id="path81235" /><path
       d="m 310.54433,211.12365 -3.39991,1.38683 -4.69161,-11.50181 q -0.56801,-1.39252 -1.22501,-2.5378 -0.66438,-1.16336 -1.37873,-1.67353 -0.76194,-0.57514 -1.75945,-0.59012 -1.00489,-0.0331 -2.36124,0.52018 -1.39251,0.56801 -2.6313,1.87487 -1.23879,1.30687 -2.19608,2.94187 l 6.15221,15.08257 -3.39991,1.38683 -11.47822,-28.13966 3.3999,-1.38683 4.15312,10.18163 q 1.05294,-1.96933 2.45045,-3.40421 1.3975,-1.43488 3.18788,-2.16518 3.27331,-1.33519 5.79542,-0.0648 2.5221,1.27043 4.03434,4.97778 z"
       id="path81237" /><path
       d="m 332.68937,194.59679 -15.64605,3.68531 q 0.46122,1.95813 1.39536,3.28316 0.92966,1.30602 2.17567,1.99576 1.20352,0.67968 2.66077,0.81801 1.47626,0.13385 3.1112,-0.25124 2.16726,-0.51049 4.15202,-1.88094 1.99929,-1.39394 2.7338,-2.44984 l 0.19011,-0.0448 0.91797,3.89726 q -1.62693,1.18584 -3.38811,2.14244 -1.76119,0.95661 -3.83339,1.4447 -5.28506,1.24486 -8.92246,-0.90824 -3.64188,-2.17211 -4.88225,-7.43816 -1.22695,-5.20901 0.88475,-8.93699 2.13071,-3.73245 6.76939,-4.82506 4.29649,-1.01201 7.20691,0.95114 2.92944,1.95867 4.01757,6.57835 z m -4.12383,-1.91813 q -0.68174,-2.80915 -2.45126,-4.01768 -1.75051,-1.213 -4.60216,-0.54132 -2.87066,0.67617 -4.18312,2.77116 -1.29345,2.09051 -0.9305,4.65369 z"
       id="path81239" /><path
       d="m 352.39376,185.13514 -0.1943,0.0199 q -0.83593,-0.11085 -1.62107,-0.10909 -0.7677,-0.0197 -1.81692,0.0876 -1.6904,0.17287 -3.18673,1.09158 -1.49832,0.89928 -2.83436,2.23352 l 1.57564,15.40793 -3.65282,0.37355 -2.21942,-21.70322 3.65282,-0.37355 0.32785,3.20594 q 1.99733,-1.97123 3.57535,-2.85903 1.59547,-0.90922 3.32473,-1.08605 0.95207,-0.0974 1.38549,-0.0828 0.43143,-0.005 1.30026,0.0437 z"
       id="path81241" /><path
       d="m 387.91604,198.49768 q -0.31802,2.97131 -2.9881,4.61052 -2.65067,1.64129 -6.90372,1.18608 -2.40812,-0.25774 -4.36755,-1.0371 -1.93794,-0.79671 -3.22461,-1.62192 l 0.43858,-4.09769 0.1942,0.0208 q 1.58914,1.48615 3.62282,2.48953 2.03575,0.98396 3.97778,1.19182 2.40812,0.25774 3.85069,-0.37357 1.44257,-0.63131 1.62132,-2.30146 0.13719,-1.28174 -0.53011,-2.02102 -0.6673,-0.73928 -2.71481,-1.42985 -0.75811,-0.25793 -1.99549,-0.62608 -1.21795,-0.36607 -2.21813,-0.74812 -2.77373,-1.06295 -3.82189,-2.64834 -1.02667,-1.60274 -0.79803,-3.73898 0.14343,-1.34 0.81399,-2.46644 0.68998,-1.12436 1.91613,-1.93598 1.18523,-0.79636 2.9115,-1.14195 1.74777,-0.36293 3.82575,-0.14052 1.94203,0.20786 3.87094,0.90538 1.95041,0.68018 3.19824,1.50124 l -0.41779,3.90348 -0.19421,-0.0208 q -1.2881,-1.17894 -3.21356,-2.09216 -1.92339,-0.93265 -3.846,-1.13843 -2.00029,-0.21409 -3.46228,0.41514 -1.45991,0.60981 -1.62204,2.1246 -0.14342,1.34 0.6189,2.10909 0.74291,0.76702 2.52269,1.38965 0.98491,0.34113 2.20287,0.7072 1.23738,0.36815 2.05167,0.65174 2.4817,0.8549 3.70881,2.42016 1.22503,1.58469 0.97144,3.95397 z"
       id="path81243" /><path
       d="m 403.49037,208.18034 q -1.06997,0.0382 -2.30889,-0.0619 -1.21988,-0.0958 -2.1533,-0.30707 -3.25748,-0.73718 -4.55628,-2.87341 -1.2988,-2.13623 -0.42368,-6.00329 l 2.56071,-11.31544 -2.41929,-0.54749 0.68113,-3.00983 2.41929,0.54749 1.38382,-6.1149 3.58132,0.81046 -1.38382,6.1149 7.39122,1.67266 -0.68113,3.00982 -7.39122,-1.67265 -2.19428,9.69623 q -0.37936,1.67636 -0.51871,2.64608 -0.13504,0.95067 0.13678,1.87326 0.24665,0.85683 0.88862,1.38258 0.66534,0.51102 2.17025,0.85159 0.87628,0.1983 1.8848,0.16621 1.01283,-0.0512 1.47072,-0.12776 l 0.1905,0.0431 z"
       id="path81245" /><path
       d="m 423.67163,215.34546 -3.43176,-1.25007 0.7955,-2.18384 q -0.57244,0.14486 -1.56879,0.42631 -0.97131,0.26978 -1.82571,0.33272 -1.01627,0.1079 -2.236,-0.0246 -1.2264,-0.11415 -2.73124,-0.66231 -2.77109,-1.00941 -4.02953,-3.54648 -1.25844,-2.53707 -0.22229,-5.38158 0.84898,-2.33065 2.36138,-3.4011 1.53744,-1.08211 3.69178,-1.23277 2.17268,-0.14397 4.90392,0.51834 2.73125,0.6623 5.79439,1.61181 l 0.19386,-0.5322 q 0.42783,-1.17451 0.28651,-2.09903 -0.12297,-0.91783 -0.73331,-1.63903 -0.58031,-0.68949 -1.55452,-1.21065 -0.97422,-0.52116 -2.09367,-0.92894 -1.35802,-0.49468 -3.16171,-0.73597 -1.79701,-0.25964 -3.82446,-0.22906 l -0.18352,-0.0668 1.27681,-3.50517 q 1.10961,0.0924 3.13851,0.45729 2.02889,0.36489 3.88241,1.04006 2.16549,0.78881 3.62839,1.73743 1.48793,0.93695 2.34825,2.2273 0.84865,1.26532 0.96626,2.82559 0.11761,1.56027 -0.60435,3.54225 z m -1.59343,-6.29677 2.07899,-5.70736 q -1.61167,-0.48313 -3.82566,-1.08174 -2.19564,-0.59193 -3.57056,-0.69782 -1.64023,-0.11938 -2.88537,0.44561 -1.23846,0.54663 -1.80667,2.10652 -0.64174,1.76176 0.0951,3.04871 0.74353,1.2686 2.92737,2.0641 1.81681,0.6618 3.57567,0.51259 1.76554,-0.16756 3.41114,-0.69061 z"
       id="path81247" /><path
       d="m 440.2038,223.46332 q -1.04518,-0.2322 -2.21906,-0.6408 -1.15653,-0.39964 -2.00679,-0.83891 -2.96726,-1.53296 -3.68687,-3.92723 -0.71961,-2.39427 1.10022,-5.9168 l 5.32501,-10.3073 -2.20375,-1.13852 1.41642,-2.74167 2.20375,1.13851 2.87766,-5.57011 3.26224,1.68536 -2.87766,5.57011 6.73272,3.47829 -1.41642,2.74167 -6.73271,-3.47829 -4.56302,8.83236 q -0.78889,1.527 -1.16771,2.43048 -0.36986,0.88612 -0.33889,1.84743 0.0232,0.89132 0.51223,1.56167 0.51538,0.66196 1.88621,1.37017 0.79821,0.41238 1.78237,0.63503 0.99312,0.2053 1.45556,0.24635 l 0.17352,0.0896 z"
       id="path81249" /><path
       d="m 464.98071,227.57108 -13.22827,-9.132 q -1.14288,1.65554 -1.499,3.23715 -0.34503,1.56555 -0.0208,2.95232 0.3032,1.3485 1.1781,2.52208 0.89096,1.18467 2.27326,2.13892 1.83235,1.26494 4.18009,1.81769 2.37491,0.54777 3.65072,0.38425 l 0.16074,0.11096 -2.27468,3.29501 q -1.9708,-0.41119 -3.86164,-1.07572 -1.89084,-0.66452 -3.64282,-1.87399 -4.46836,-3.08468 -5.31139,-7.22664 -0.83192,-4.15803 2.24167,-8.61032 3.0403,-4.40406 7.22166,-5.33855 4.19744,-0.92339 8.11931,1.78403 3.63255,2.5077 4.12881,5.98307 0.51234,3.48648 -2.18399,7.39227 z m -1.34358,-4.34511 q 1.62614,-2.38993 1.33549,-4.51297 -0.27457,-2.11194 -2.68555,-3.77634 -2.42706,-1.67549 -4.86119,-1.24361 -2.41806,0.44297 -4.07561,2.43148 z"
       id="path81251" /><path
       d="m 478.92573,245.88907 q -2.03086,2.19212 -5.15129,1.91048 -3.10609,-0.26836 -6.24384,-3.17528 -1.77663,-1.64593 -2.88177,-3.44189 -1.07753,-1.79701 -1.61589,-3.22763 l 2.80073,-3.02313 0.14328,0.13274 q 0.38582,2.1413 1.41659,4.16123 1.04404,2.0056 2.4768,3.33296 1.77663,1.64593 3.31051,2.00197 1.53388,0.35605 2.67541,-0.87612 0.87606,-0.94563 0.78291,-1.93716 -0.0931,-0.99154 -1.32197,-2.76895 -0.45364,-0.6599 -1.22565,-1.69461 -0.75769,-1.02145 -1.33122,-1.92553 -1.58849,-2.51 -1.48128,-4.40754 0.1348,-1.89859 1.5949,-3.47463 0.91588,-0.9886 2.12674,-1.49093 1.2252,-0.48905 2.69333,-0.40691 1.42621,0.0699 3.01677,0.82461 1.61817,0.75363 3.15122,2.17391 1.43277,1.32736 2.56235,3.03946 1.15718,1.71104 1.66688,3.11511 l -2.668,2.87986 -0.14327,-0.13274 q -0.32809,-1.71506 -1.32599,-3.59804 -0.98462,-1.8973 -2.40306,-3.21139 -1.47574,-1.36718 -3.02395,-1.7365 -1.53493,-0.38365 -2.57027,0.7339 -0.91588,0.98861 -0.76437,2.06084 0.13718,1.05896 1.19196,2.62189 0.58576,0.86216 1.34344,1.8836 0.77201,1.03472 1.25537,1.74876 1.47871,2.16867 1.527,4.15701 0.035,2.00267 -1.58437,3.75065 z"
       id="path81253" /></g></g><g
   inkscape:groupmode="layer"
   id="layer3"
   inkscape:label="blue"
   style="display:none"><g
     id="g1540"
     style="display:inline">
	<linearGradient
   id="path3302_6_"
   gradientUnits="userSpaceOnUse"
   x1="344.70001"
   y1="297.9892"
   x2="383.89999"
   y2="297.9892">
		<stop
   offset="0.3541"
   style="stop-color:#004C99"
   id="stop1480" />
		<stop
   offset="0.7081"
   style="stop-color:#003D7C"
   id="stop1482" />
	</linearGradient>
	<path
   id="path3302_1_"
   class="st41"
   d="m 344.7,236 c 17.5,-6.4 24.1,5.5 39.2,2.4 l -25.6,123.5 z" />
	<linearGradient
   id="path3304_6_"
   gradientUnits="userSpaceOnUse"
   x1="361"
   y1="304"
   x2="454.89999"
   y2="304">
		<stop
   offset="0.3541"
   style="stop-color:#004C99"
   id="stop1486" />
		<stop
   offset="0.7081"
   style="stop-color:#003D7C"
   id="stop1488" />
	</linearGradient>
	<path
   id="path3304_1_"
   class="st42"
   d="m 424.4,248.8 c 17.9,5 16.5,19.1 30.5,25.4 l -93.9,85 z" />
	<linearGradient
   id="path3306_6_"
   gradientUnits="userSpaceOnUse"
   x1="360.89999"
   y1="333.45001"
   x2="487.10001"
   y2="333.45001">
		<stop
   offset="0.3541"
   style="stop-color:#004C99"
   id="stop1492" />
		<stop
   offset="0.7081"
   style="stop-color:#003D7C"
   id="stop1494" />
	</linearGradient>
	<path
   id="path3306_1_"
   class="st43"
   d="m 476.4,307.5 c 11.6,14.5 3.1,24.6 10.7,37.8 l -126.2,14.1 z" />
	<linearGradient
   id="path3310_6_"
   gradientUnits="userSpaceOnUse"
   x1="360.70001"
   y1="390.45001"
   x2="485.23489"
   y2="390.45001">
		<stop
   offset="0.3541"
   style="stop-color:#004C99"
   id="stop1498" />
		<stop
   offset="0.7081"
   style="stop-color:#003D7C"
   id="stop1500" />
	</linearGradient>
	<path
   id="path3310_1_"
   class="st44"
   d="m 485.2,384.7 c 0.8,18.5 -12.4,21.8 -14.1,36.9 L 360.7,359.3 Z" />
	<linearGradient
   id="path3312_6_"
   gradientUnits="userSpaceOnUse"
   x1="360.5"
   y1="416.70001"
   x2="445.89999"
   y2="416.70001">
		<stop
   offset="0.3541"
   style="stop-color:#004C99"
   id="stop1504" />
		<stop
   offset="0.7081"
   style="stop-color:#003D7C"
   id="stop1506" />
	</linearGradient>
	<path
   id="path3312_1_"
   class="st45"
   d="m 445.9,452.1 c -10.3,15.4 -22.7,10.7 -33,22 L 360.5,359.3 Z" />
	<linearGradient
   id="path3314_6_"
   gradientUnits="userSpaceOnUse"
   x1="334.89999"
   y1="423.3143"
   x2="374.5"
   y2="423.3143">
		<stop
   offset="0.3541"
   style="stop-color:#004C99"
   id="stop1510" />
		<stop
   offset="0.7081"
   style="stop-color:#003D7C"
   id="stop1512" />
	</linearGradient>
	<path
   id="path3314_1_"
   class="st46"
   d="m 374.5,485.8 c -17.5,6.4 -24.6,-6.3 -39.6,-3.2 L 360.5,359 Z" />
	<linearGradient
   id="path3316_6_"
   gradientUnits="userSpaceOnUse"
   x1="266.70001"
   y1="414.14999"
   x2="360.5"
   y2="414.14999">
		<stop
   offset="0.3541"
   style="stop-color:#004C99"
   id="stop1516" />
		<stop
   offset="0.7081"
   style="stop-color:#003D7C"
   id="stop1518" />
	</linearGradient>
	<path
   id="path3316_1_"
   class="st47"
   d="m 296.9,469.4 c -17.9,-5 -16.2,-19.2 -30.2,-25.5 l 93.8,-85 z" />
	<linearGradient
   id="path3318_6_"
   gradientUnits="userSpaceOnUse"
   x1="234.5"
   y1="384.5"
   x2="360.70001"
   y2="384.5">
		<stop
   offset="0.3541"
   style="stop-color:#004C99"
   id="stop1522" />
		<stop
   offset="0.7081"
   style="stop-color:#003D7C"
   id="stop1524" />
	</linearGradient>
	<path
   id="path3318_1_"
   class="st48"
   d="M 245.6,410.3 C 234,395.8 242.1,385.9 234.5,372.7 l 126.2,-14 z" />
	<linearGradient
   id="path3320_6_"
   gradientUnits="userSpaceOnUse"
   x1="236.66431"
   y1="327.45001"
   x2="360.89999"
   y2="327.45001">
		<stop
   offset="0.3541"
   style="stop-color:#004C99"
   id="stop1528" />
		<stop
   offset="0.7081"
   style="stop-color:#003D7C"
   id="stop1530" />
	</linearGradient>
	<path
   id="path3320_1_"
   class="st49"
   d="m 236.7,333.6 c -0.8,-18.5 12.1,-22.1 13.8,-37.3 l 110.4,62.3 z" />
	<linearGradient
   id="path3322_6_"
   gradientUnits="userSpaceOnUse"
   x1="274.79999"
   y1="301.29999"
   x2="361.10001"
   y2="301.29999">
		<stop
   offset="0.3541"
   style="stop-color:#004C99"
   id="stop1534" />
		<stop
   offset="0.7081"
   style="stop-color:#003D7C"
   id="stop1536" />
	</linearGradient>
	<path
   id="path3322_1_"
   class="st50"
   d="m 274.8,265.5 c 10.3,-15.4 23.5,-10.3 33.8,-21.6 l 52.5,114.8 z" />
</g><g
     id="g1602"
     style="display:inline">
	<linearGradient
   id="path3308_6_"
   gradientUnits="userSpaceOnUse"
   x1="374.64999"
   y1="373.35001"
   x2="464.49081"
   y2="283.50909">
		<stop
   offset="0.3541"
   style="stop-color:#004C99"
   id="stop1542" />
		<stop
   offset="0.7081"
   style="stop-color:#003D7C"
   id="stop1544" />
	</linearGradient>
	<path
   id="path3308_1_"
   class="st51"
   d="m 446,266 c 15.5,10.3 19.2,31.2 30.5,41.5 l -115.6,52.1 z" />
	<linearGradient
   id="path3324_6_"
   gradientUnits="userSpaceOnUse"
   x1="317.85001"
   y1="316.14999"
   x2="373.45001"
   y2="260.54999">
		<stop
   offset="0.3541"
   style="stop-color:#004C99"
   id="stop1548" />
		<stop
   offset="0.7081"
   style="stop-color:#003D7C"
   id="stop1550" />
	</linearGradient>
	<path
   id="path3324_1_"
   class="st52"
   d="m 297.7,250 c 14.6,-11.5 35.9,-8.4 49.2,-16 L 361,359.3 Z" />
	<linearGradient
   id="path3326_6_"
   gradientUnits="userSpaceOnUse"
   x1="333.02499"
   y1="331.52499"
   x2="419.22501"
   y2="245.325">
		<stop
   offset="0.3541"
   style="stop-color:#004C99"
   id="stop1554" />
		<stop
   offset="0.7081"
   style="stop-color:#003D7C"
   id="stop1556" />
	</linearGradient>
	<path
   id="path3326_1_"
   class="st53"
   d="m 374.5,234.1 c 18.6,-0.8 34,14.1 49.3,15.8 L 361,359.5 Z" />
	<linearGradient
   id="path3328_6_"
   gradientUnits="userSpaceOnUse"
   x1="398.14999"
   y1="397.25"
   x2="473.39999"
   y2="322">
		<stop
   offset="0.3541"
   style="stop-color:#004C99"
   id="stop1560" />
		<stop
   offset="0.7081"
   style="stop-color:#003D7C"
   id="stop1562" />
	</linearGradient>
	<path
   id="path3328_1_"
   class="st54"
   d="m 485.2,333.8 c 6.5,17.3 -3.2,36.4 -0.1,51.4 L 360.7,359.8 Z" />
	<linearGradient
   id="path3330_6_"
   gradientUnits="userSpaceOnUse"
   x1="401.39999"
   y1="408.10001"
   x2="437.35001"
   y2="372.14999">
		<stop
   offset="0.3541"
   style="stop-color:#004C99"
   id="stop1566" />
		<stop
   offset="0.7081"
   style="stop-color:#003D7C"
   id="stop1568" />
	</linearGradient>
	<path
   id="path3330_1_"
   class="st55"
   d="m 476.4,411.2 c -5,17.8 -24,27.8 -30.3,41.6 l -85.6,-93.2 z" />
	<linearGradient
   id="path3332_6_"
   gradientUnits="userSpaceOnUse"
   x1="347.92499"
   y1="458.22501"
   x2="403.47501"
   y2="402.67499">
		<stop
   offset="0.3541"
   style="stop-color:#004C99"
   id="stop1572" />
		<stop
   offset="0.7081"
   style="stop-color:#003D7C"
   id="stop1574" />
	</linearGradient>
	<path
   id="path3332_1_"
   class="st56"
   d="m 423.7,468.8 c -14.6,11.5 -35.9,8.4 -49.2,16 L 360.3,359.5 Z" />
	<linearGradient
   id="path3334_6_"
   gradientUnits="userSpaceOnUse"
   x1="302.125"
   y1="473.42499"
   x2="388.32501"
   y2="387.22501">
		<stop
   offset="0.3541"
   style="stop-color:#004C99"
   id="stop1578" />
		<stop
   offset="0.7081"
   style="stop-color:#003D7C"
   id="stop1580" />
	</linearGradient>
	<path
   id="path3334_1_"
   class="st57"
   d="m 346.9,484.7 c -18.6,0.8 -34,-14.1 -49.3,-15.8 l 62.7,-109.7 z" />
	<linearGradient
   id="path3336_6_"
   gradientUnits="userSpaceOnUse"
   x1="256.90909"
   y1="435.1908"
   x2="346.75"
   y2="345.35001">
		<stop
   offset="0.3541"
   style="stop-color:#004C99"
   id="stop1584" />
		<stop
   offset="0.7081"
   style="stop-color:#003D7C"
   id="stop1586" />
	</linearGradient>
	<path
   id="path3336_1_"
   class="st58"
   d="M 275.4,452.7 C 259.9,442.4 256.2,421.5 244.9,411.2 L 360.5,359.1 Z" />
	<linearGradient
   id="path3338_6_"
   gradientUnits="userSpaceOnUse"
   x1="248.10001"
   y1="396.79999"
   x2="323.25"
   y2="321.64999">
		<stop
   offset="0.3541"
   style="stop-color:#004C99"
   id="stop1590" />
		<stop
   offset="0.7081"
   style="stop-color:#003D7C"
   id="stop1592" />
	</linearGradient>
	<path
   id="path3338_1_"
   class="st59"
   d="m 236.4,385.1 c -6.5,-17.3 3,-36.5 -0.1,-51.4 l 124.4,25.4 z" />
	<linearGradient
   id="path3340_6_"
   gradientUnits="userSpaceOnUse"
   x1="283.95001"
   y1="346.64999"
   x2="319.89999"
   y2="310.70001">
		<stop
   offset="0.3541"
   style="stop-color:#004C99"
   id="stop1596" />
		<stop
   offset="0.7081"
   style="stop-color:#003D7C"
   id="stop1598" />
	</linearGradient>
	<path
   id="path3340_1_"
   class="st60"
   d="m 244.9,307.6 c 5,-17.8 24,-27.8 30.3,-41.6 l 85.6,93.2 z" />
</g><g
     id="path3912_1_"
     class="st20"
     style="display:inline">
	<g
   id="g1616">
		<g
   id="g1612">
			<g
   id="g1606">
				<path
   class="st61"
   d="m 425.1,360.8 c 0,35.2 -28.8,63.8 -64.3,63.8 -35.5,0 -64.3,-28.6 -64.3,-63.8 0,-35.2 28.8,-63.8 64.3,-63.8 35.5,0 64.3,28.6 64.3,63.8 z"
   id="path1604" />
			</g>
			<g
   class="st62"
   id="g1610">
				<path
   class="st61"
   d="m 425.1,360.8 c 0,35.2 -28.8,63.8 -64.3,63.8 -35.5,0 -64.3,-28.6 -64.3,-63.8 0,-35.2 28.8,-63.8 64.3,-63.8 35.5,0 64.3,28.6 64.3,63.8 z"
   id="path1608" />
			</g>
		</g>
		<path
   class="st61"
   d="m 425.1,360.8 c 0,35.2 -28.8,63.8 -64.3,63.8 -35.5,0 -64.3,-28.6 -64.3,-63.8 0,-35.2 28.8,-63.8 64.3,-63.8 35.5,0 64.3,28.6 64.3,63.8 z"
   id="path1614" />
	</g>
	<g
   class="st62"
   id="g1620">
		<path
   class="st61"
   d="m 425.1,360.8 c 0,35.2 -28.8,63.8 -64.3,63.8 -35.5,0 -64.3,-28.6 -64.3,-63.8 0,-35.2 28.8,-63.8 64.3,-63.8 35.5,0 64.3,28.6 64.3,63.8 z"
   id="path1618" />
	</g>
</g><path
     id="path15964"
     style="fill-opacity:0;fill-rule:evenodd;stroke:#000000;stroke-width:2.007;stroke-linecap:round;paint-order:fill markers stroke"
     d="m 280.9423,363.33669 a 79.79641,79.79641 0 0 1 76.53017,-82.46446 79.79641,79.79641 0 0 1 82.92974,76.02572 79.79641,79.79641 0 0 1 -75.51844,83.39195 79.79641,79.79641 0 0 1 -83.85105,-75.00836" /><g
     aria-label="antarctic program (3)"
     id="text17098"
     style="font-size:13.3333px;line-height:1.25;-inkscape-font-specification:'sans-serif, Normal';fill:#000000;fill-opacity:1"><path
       d="m 281.29864,351.00726 -0.12072,2.18808 -1.39241,-0.0768 q 0.18277,0.3035 0.51774,0.82665 0.32392,0.51081 0.50871,0.99047 0.23879,0.56479 0.37492,1.28823 0.14784,0.72409 0.0949,1.68357 -0.0975,1.76684 -1.33536,2.93089 -1.23788,1.16404 -3.05153,1.06398 -1.48602,-0.082 -2.36383,-0.76419 -0.88887,-0.69455 -1.35021,-1.9054 -0.4607,-1.22255 -0.5556,-2.90611 -0.0949,-1.68357 -0.0826,-3.60769 l -0.33933,-0.0187 q -0.74886,-0.0413 -1.25515,0.20069 -0.50564,0.23031 -0.81358,0.70625 -0.29494,0.45319 -0.4247,1.10328 -0.12976,0.65009 -0.16914,1.36385 -0.0478,0.86587 0.1275,1.94357 0.16357,1.07705 0.53389,2.23593 l -0.006,0.11701 -2.23488,-0.1233 q -0.14001,-0.65324 -0.28349,-1.88176 -0.14348,-1.22852 -0.0783,-2.41031 0.0762,-1.38072 0.36635,-2.38579 0.27913,-1.01742 0.87039,-1.73594 0.57892,-0.70746 1.45439,-1.04647 0.87547,-0.339 2.13918,-0.26928 z m -3.33848,2.01055 -3.639,-0.20077 q 0.003,1.00951 0.0445,2.38498 0.0421,1.36377 0.22054,2.1717 0.21683,0.96262 0.7579,1.5793 0.52937,0.61604 1.52395,0.67091 1.12329,0.062 1.73408,-0.58505 0.59909,-0.64767 0.67591,-2.04008 0.0639,-1.1584 -0.32779,-2.1424 -0.4034,-0.98466 -0.99006,-1.83859 z"
       style="font-size:24px;fill:#000000;fill-opacity:1"
       id="path67852" /><path
       d="m 284.5095,336.15395 -0.5259,2.13943 -7.23767,-1.77909 q -0.87626,-0.21539 -1.66389,-0.30039 -0.79902,-0.0878 -1.29859,0.079 -0.5479,0.16702 -0.90697,0.64593 -0.37045,0.47611 -0.58025,1.32961 -0.2154,0.87626 -0.0179,1.93848 0.19747,1.06222 0.65349,2.10352 l 9.49091,2.33296 -0.52589,2.13944 -12.71145,-3.12461 0.52589,-2.13943 1.41112,0.34686 q -0.58457,-1.20564 -0.7882,-2.39005 -0.20364,-1.18441 0.0733,-2.31103 0.50631,-2.05977 2.01248,-2.83596 1.50616,-0.7762 3.83906,-0.20275 z"
       style="font-size:24px;fill:#000000;fill-opacity:1"
       id="path67854" /><path
       d="m 288.57815,325.87123 q -0.0885,0.63627 -0.27635,1.35801 -0.1833,0.71093 -0.40506,1.2406 -0.77388,1.84844 -2.17114,2.39414 -1.39727,0.5457 -3.59162,-0.37299 l -6.42092,-2.68822 -0.57475,1.37282 -1.70792,-0.71504 0.57475,-1.37282 -3.46989,-1.45273 0.85082,-2.0322 3.46989,1.45272 1.75594,-4.19414 1.70792,0.71505 -1.75594,4.19413 5.5021,2.30354 q 0.95124,0.39825 1.50983,0.5813 0.54777,0.17851 1.1212,0.11368 0.53195,-0.0568 0.9093,-0.38156 0.37108,-0.34012 0.7286,-1.19408 0.20818,-0.49724 0.29393,-1.09656 0.075,-0.60384 0.0772,-0.88238 l 0.0453,-0.10809 z"
       style="font-size:24px;fill:#000000;fill-opacity:1"
       id="path67856" /><path
       d="m 295.13337,314.81525 -1.13849,1.87246 -1.19157,-0.7245 q 0.018,0.35382 0.0666,0.97312 0.0447,0.6032 -0.0186,1.11331 -0.0558,0.61065 -0.27703,1.31277 -0.21117,0.70822 -0.71041,1.52929 -0.91932,1.51198 -2.55989,1.95454 -1.64058,0.44256 -3.19261,-0.50112 -1.27167,-0.7732 -1.72393,-1.78879 -0.45618,-1.0317 -0.29186,-2.31699 0.17041,-1.29531 0.88081,-2.8246 0.71041,-1.52929 1.62877,-3.22014 l -0.29038,-0.17656 q -0.64084,-0.38965 -1.20142,-0.41505 -0.55449,-0.0354 -1.05051,0.23901 -0.47383,0.2605 -0.89488,0.77253 -0.42104,0.51203 -0.79243,1.12283 -0.45052,0.74097 -0.80429,1.77393 -0.36378,1.02687 -0.58385,2.22341 l -0.0609,0.10013 -1.91251,-1.16285 q 0.18466,-0.64205 0.63759,-1.793 0.45294,-1.15095 1.06785,-2.16228 0.71842,-1.18155 1.44835,-1.93093 0.72602,-0.76547 1.58628,-1.12017 0.84416,-0.35077 1.77603,-0.23676 0.93187,0.11401 2.01329,0.77154 z m -3.8921,0.19819 -3.11408,-1.89343 q -0.47353,0.89157 -1.08572,2.12398 -0.6061,1.22241 -0.82985,2.01898 -0.26284,0.95109 -0.0766,1.75007 0.17622,0.79289 1.02733,1.31039 0.96126,0.58447 1.80502,0.30203 0.83375,-0.28853 1.55825,-1.48009 0.60273,-0.9913 0.72147,-2.04373 0.10872,-1.05851 -0.006,-2.0882 z"
       style="font-size:24px;fill:#000000;fill-opacity:1"
       id="path67858" /><path
       d="m 294.84384,298.32658 -0.0755,0.0896 q -0.40677,0.30087 -0.74467,0.62912 -0.33931,0.31173 -0.74709,0.79565 -0.65696,0.77964 -0.91913,1.80001 -0.27113,1.01282 -0.29083,2.14556 l 7.10637,5.98822 -1.41966,1.68474 -10.00985,-8.43486 1.41965,-1.68474 1.47863,1.24597 q 0.0392,-1.68329 0.34952,-2.72441 0.30888,-1.05763 0.98095,-1.85519 0.37002,-0.43911 0.56303,-0.6136 0.18406,-0.18205 0.57904,-0.52349 z"
       style="font-size:24px;fill:#000000;fill-opacity:1"
       id="path67860" /><path
       d="m 311.20318,296.71281 q -0.47047,1.12702 -1.01837,2.00898 -0.53916,0.87414 -1.36959,1.61561 -1.05771,0.9444 -2.21377,1.42675 -1.16385,0.4736 -2.35519,0.40618 -1.20008,-0.0596 -2.40828,-0.70898 -1.2082,-0.64936 -2.35552,-1.93435 -2.13855,-2.39514 -2.04491,-4.92954 0.10239,-2.54221 2.26152,-4.47002 0.83917,-0.74928 1.85411,-1.23131 1.02369,-0.48984 2.00117,-0.74991 l 1.63123,1.82696 -0.0874,0.078 q -1.27469,0.0856 -2.35987,0.48891 -1.07645,0.39556 -1.83695,1.07459 -1.39863,1.24878 -1.36865,2.91872 0.0309,1.65338 1.65435,3.47159 1.57659,1.76577 3.21405,2.01614 1.6384,0.23382 3.072,-1.04619 0.49826,-0.44488 0.89693,-1.03649 0.39866,-0.59161 0.62219,-1.16824 0.1945,-0.50357 0.32967,-0.9856 0.12738,-0.49077 0.17826,-0.80328 l 0.0874,-0.0781 z"
       style="font-size:24px;fill:#000000;fill-opacity:1"
       id="path67862" /><path
       d="m 319.69181,291.86162 q -0.42401,0.48258 -0.97798,0.98188 -0.54424,0.49277 -1.02085,0.81303 -1.66329,1.11764 -3.13028,0.80447 -1.46699,-0.31317 -2.79378,-2.28771 l -3.88234,-5.77773 -1.2353,0.83006 -1.03268,-1.53683 1.23531,-0.83007 -2.09803,-3.1223 1.82864,-1.22875 2.09803,3.1223 3.774,-2.53593 1.03268,1.53683 -3.77401,2.53594 3.32679,4.95095 q 0.57516,0.85596 0.94086,1.31615 0.35917,0.45047 0.87366,0.71186 0.47542,0.24529 0.96922,0.18173 0.497,-0.0798 1.26541,-0.59616 0.44744,-0.30065 0.84881,-0.75389 0.39484,-0.46297 0.55001,-0.69431 l 0.0973,-0.0654 z"
       style="font-size:24px;fill:#000000;fill-opacity:1"
       id="path67864" /><path
       d="m 317.00361,276.1279 -2.19094,1.17127 -1.07735,-2.01526 2.19094,-1.17127 z m 7.08041,13.54268 -1.94291,1.03867 -6.17128,-11.5438 1.94292,-1.03868 z"
       style="font-size:24px;fill:#000000;fill-opacity:1"
       id="path67866" /><path
       d="m 336.69891,283.41518 q -0.83581,0.89048 -1.65818,1.5243 -0.81146,0.62958 -1.84917,1.03276 -1.32171,0.51352 -2.5735,0.55985 -1.25603,0.0354 -2.34808,-0.4455 -1.10296,-0.47666 -2.00673,-1.50846 -0.90377,-1.0318 -1.52764,-2.63752 -1.16285,-2.99297 -0.18643,-5.3336 0.98735,-2.34487 3.68539,-3.39314 1.04864,-0.40742 2.16816,-0.50294 1.13046,-0.0998 2.13706,-5.4e-4 l 0.887,2.28296 -0.10923,0.0424 q -1.22375,-0.36688 -2.38148,-0.36967 -1.1468,-0.007 -2.09712,0.3622 -1.74772,0.67904 -2.30523,2.25344 -0.55084,1.55924 0.33192,3.83127 0.85728,2.2065 2.30297,3.01518 1.45237,0.79351 3.24379,0.0975 0.62262,-0.24191 1.20343,-0.65615 0.58082,-0.41425 0.99235,-0.87587 0.35873,-0.40339 0.65436,-0.80741 0.29138,-0.41495 0.44862,-0.68977 l 0.10923,-0.0424 z"
       style="font-size:24px;fill:#000000;fill-opacity:1"
       id="path67868" /><path
       d="m 358.85482,273.90247 q 0.14689,1.58697 -0.18614,2.94767 -0.33411,1.34904 -1.07835,2.3359 -0.69021,0.93479 -1.69613,1.51042 -0.99532,0.56289 -2.16221,0.6709 -1.01519,0.094 -1.8642,-0.0511 -0.83734,-0.1461 -1.73238,-0.534 l 0.5055,5.46103 -2.19374,0.20306 -1.65152,-17.84169 2.19375,-0.20307 0.12637,1.36526 q 0.80712,-0.81615 1.84696,-1.40669 1.05043,-0.6033 2.28733,-0.71779 2.35711,-0.21819 3.82928,1.44618 1.48276,1.65161 1.77548,4.81387 z m -2.25836,0.26789 q -0.21819,-2.35711 -1.13135,-3.44947 -0.91317,-1.09235 -2.58182,-0.9379 -0.94517,0.0875 -1.86422,0.58448 -0.91904,0.49698 -1.73264,1.24311 l 0.68372,7.38639 q 0.9724,0.33367 1.65157,0.4238 0.69083,0.089 1.54266,0.0102 1.83201,-0.16958 2.74438,-1.50153 0.91236,-1.33195 0.6877,-3.75908 z"
       style="font-size:24px;fill:#000000;fill-opacity:1"
       id="path67870" /><path
       d="m 371.75842,270.63625 -0.11695,-0.007 q -0.4837,-0.14836 -0.94851,-0.22505 -0.45236,-0.0876 -1.08388,-0.12801 -1.01745,-0.0651 -1.9939,0.33047 -0.9757,0.38384 -1.89843,1.04115 l -0.59297,9.27403 -2.19863,-0.14058 0.83524,-13.06317 2.19863,0.14058 -0.12338,1.92965 q 1.37713,-0.96879 2.39886,-1.33794 1.03417,-0.3801 2.07502,-0.31355 0.57304,0.0366 0.82809,0.0882 0.25579,0.0398 0.76513,0.1546 z"
       style="font-size:24px;fill:#000000;fill-opacity:1"
       id="path67872" /><path
       d="m 385.46126,277.65371 q -0.69752,3.12226 -2.70236,4.57158 -2.00485,1.44932 -4.69251,0.84889 -2.71052,-0.60553 -3.90799,-2.77025 -1.18603,-2.16216 -0.48852,-5.28442 0.69752,-3.12225 2.69093,-4.57413 2.0074,-1.46076 4.71793,-0.85522 2.68765,0.60042 3.88256,2.77658 1.19747,2.16472 0.49996,5.28697 z m -2.21875,-0.49567 q 0.55443,-2.48179 -0.14942,-3.89983 -0.7013,-1.42948 -2.42826,-1.81528 -1.74984,-0.39092 -2.9928,0.60421 -1.22897,0.98625 -1.7834,3.46804 -0.53655,2.40173 0.15708,3.86552 0.6962,1.45236 2.43459,1.84072 1.71553,0.38324 2.96104,-0.62332 1.25951,-1.01545 1.80117,-3.44006 z"
       style="font-size:24px;fill:#000000;fill-opacity:1"
       id="path67874" /><path
       d="m 397.6274,287.98454 q -1.31423,3.05766 -3.31855,3.89263 -2.00433,0.83498 -4.88972,-0.40521 -0.95821,-0.41185 -1.81319,-0.94515 -0.84885,-0.51791 -1.62525,-1.145 l 0.88848,-2.06714 0.10767,0.0463 q 0.41196,0.40666 1.36828,1.14935 0.95169,0.75344 2.02833,1.2162 1.03357,0.44424 1.81829,0.48815 0.78471,0.0439 1.35127,-0.23555 0.55729,-0.25792 0.9733,-0.78066 0.41601,-0.52274 0.73069,-1.25485 l 0.47201,-1.09817 q -1.22982,0.33877 -2.22693,0.34388 -0.98172,-0.001 -2.27369,-0.55634 -2.15327,-0.92551 -2.75734,-3.02192 -0.58867,-2.10254 0.62837,-4.9341 0.66637,-1.55036 1.57829,-2.48496 0.92731,-0.94074 2.03265,-1.43506 1.02837,-0.46362 2.21012,-0.45315 1.18637,-2.9e-4 2.17688,0.42544 1.04434,0.44887 1.6516,0.96499 0.62266,0.50998 1.22351,1.27845 l 0.35131,-0.46126 1.89489,0.81445 z m -1.19112,-2.80792 2.81817,-6.55673 q -0.65014,-0.71312 -1.28517,-1.16464 -0.61964,-0.45766 -1.30868,-0.75382 -1.66879,-0.71727 -3.10826,-0.009 -1.43948,0.70785 -2.35573,2.8396 -0.86998,2.02407 -0.60827,3.37383 0.26171,1.34976 1.90897,2.05777 0.88284,0.37946 1.90914,0.42516 1.04169,0.0396 2.02983,-0.21175 z"
       style="font-size:24px;fill:#000000;fill-opacity:1"
       id="path67876" /><path
       d="m 413.39925,286.85224 -0.0992,-0.0624 q -0.35427,-0.36121 -0.72613,-0.65043 -0.3557,-0.29289 -0.8914,-0.62976 -0.86307,-0.54273 -1.90991,-0.66114 -1.0406,-0.12833 -2.16516,0.009 l -4.94696,7.86681 -1.86503,-1.1728 6.96818,-11.081 1.86502,1.1728 -1.02932,1.63686 q 1.67252,-0.19414 2.74657,-0.0309 1.0902,0.15952 1.97311,0.71473 0.48609,0.30567 0.68563,0.47268 0.20577,0.15708 0.59859,0.50101 z"
       style="font-size:24px;fill:#000000;fill-opacity:1"
       id="path67878" /><path
       d="m 416.73244,303.56717 -1.65827,-1.43263 0.91167,-1.05526 q -0.35193,-0.0408 -0.97074,-0.0953 -0.60227,-0.0557 -1.09488,-0.20256 -0.59299,-0.15612 -1.24884,-0.49043 -0.66351,-0.32544 -1.39066,-0.95365 -1.33903,-1.15683 -1.50403,-2.84801 -0.16501,-1.69119 1.02246,-3.06569 0.97296,-1.1262 2.04939,-1.40419 1.09295,-0.27919 2.33334,0.0955 1.24926,0.38238 2.63992,1.33603 1.39066,0.95366 2.90626,2.13913 l 0.22217,-0.25716 q 0.49031,-0.56753 0.60812,-1.11618 0.12668,-0.54099 -0.0619,-1.07559 -0.17851,-0.5104 -0.61381,-1.01036 -0.4353,-0.49996 -0.97624,-0.96729 -0.65621,-0.56692 -1.61639,-1.08673 -0.95253,-0.52867 -2.09616,-0.94369 l -0.0887,-0.0766 1.46327,-1.69374 q 0.60265,0.28835 1.66279,0.92548 1.06014,0.63714 1.95578,1.41091 1.0464,0.90401 1.66467,1.74788 0.6348,0.84266 0.84226,1.74975 0.20626,0.89057 -0.0604,1.79073 -0.26662,0.90016 -1.09402,1.85788 z m 0.44853,-3.87126 2.3826,-2.75786 q -0.80093,-0.61452 -1.91506,-1.42219 -1.10527,-0.80001 -1.85384,-1.15247 -0.89449,-0.4166 -1.71327,-0.36513 -0.81112,0.0426 -1.46231,0.79635 -0.73547,0.8513 -0.59653,1.73017 0.14659,0.86999 1.20185,1.78166 0.87791,0.75845 1.89619,1.04969 1.02593,0.28237 2.06037,0.33978 z"
       style="font-size:24px;fill:#000000;fill-opacity:1"
       id="path67880" /><path
       d="m 431.15451,321.90973 -1.28481,-1.7897 6.05451,-4.34649 q 0.68542,-0.49206 1.2754,-1.01658 0.59681,-0.515 0.83408,-0.98828 0.25216,-0.51282 0.16773,-1.07251 -0.0844,-0.5597 -0.638,-1.33079 -0.53989,-0.75206 -1.46058,-1.23075 -0.91116,-0.48552 -2.03175,-0.82069 -0.19845,0.18574 -0.47989,0.41664 -0.27192,0.22406 -0.55751,0.42908 l -6.80657,4.88639 -1.28481,-1.7897 6.05451,-4.34649 q 0.70446,-0.50572 1.28491,-1.02341 0.59682,-0.51501 0.83409,-0.98828 0.25216,-0.51282 0.15821,-1.06568 -0.0844,-0.5597 -0.638,-1.33079 -0.52623,-0.73302 -1.42103,-1.21586 -0.88798,-0.47331 -1.97586,-0.80312 l -7.93941,5.69965 -1.28481,-1.7897 10.63347,-7.6337 1.28481,1.7897 -1.18044,0.84743 q 1.29634,0.33884 2.28121,0.88685 0.99171,0.55754 1.66829,1.49998 0.77909,1.08525 0.86204,2.16534 0.0898,1.08961 -0.45286,2.04177 1.69298,0.42917 2.73521,1.03699 1.05175,0.60098 1.783,1.61958 1.25747,1.75162 0.78584,3.34526 -0.45528,1.59631 -2.35922,2.96313 z"
       style="font-size:24px;fill:#000000;fill-opacity:1"
       id="path67882" /><path
       d="m 433.39761,341.88245 -0.79559,-2.56295 q 1.65703,-2.68623 4.00262,-4.61685 2.34559,-1.93061 5.71436,-2.97634 3.36877,-1.04573 6.3953,-0.78273 3.02653,0.263 5.91342,1.53871 l 0.79559,2.56295 -0.11192,0.0347 q -1.09842,-0.65293 -2.42993,-1.14761 -1.31685,-0.48696 -2.9571,-0.75083 -1.58506,-0.24419 -3.37348,-0.1553 -1.78495,0.10008 -3.62042,0.66984 -1.91382,0.59409 -3.378,1.49034 -1.46071,0.90743 -2.67788,2.04603 -1.16815,1.09884 -2.00864,2.30456 -0.85168,1.2092 -1.35641,2.31069 z"
       style="font-size:24px;fill:#000000;fill-opacity:1"
       id="path67884" /><path
       d="m 448.67969,352.99121 q -0.42247,0.62597 -1.12751,1.08976 -0.70505,0.46379 -1.9008,0.62844 -1.18414,0.16305 -2.23007,-0.13062 -1.04593,-0.29367 -1.88441,-0.97078 -0.93253,-0.75879 -1.49029,-1.88858 -0.54455,-1.11978 -0.73798,-2.5245 -0.19821,-1.43954 -0.0418,-2.8806 0.14485,-1.43946 0.42809,-2.38932 l 2.42632,-0.33409 0.024,0.17414 q -0.51424,1.0763 -0.75995,2.4705 -0.24572,1.39421 -0.0747,2.63639 0.10071,0.73138 0.458,1.52207 0.35729,0.79068 0.9036,1.23595 0.58434,0.46369 1.23479,0.63437 0.65206,0.18229 1.5924,0.0528 0.92874,-0.12788 1.49086,-0.51284 0.57532,-0.37495 0.85167,-0.94532 0.28795,-0.57197 0.31335,-1.33255 0.037,-0.76217 -0.0813,-1.62125 l -0.14386,-1.04483 1.92712,-0.26535 0.1119,0.81264 q 0.24297,1.7646 1.11822,2.70873 0.88846,0.95413 2.30478,0.75911 0.6269,-0.0863 1.0545,-0.41727 0.43921,-0.33255 0.67551,-0.85009 0.23311,-0.54076 0.27087,-1.12559 0.0378,-0.58484 -0.0613,-1.30461 -0.15186,-1.10288 -0.71761,-2.29071 -0.56576,-1.18784 -1.43739,-2.19161 l -0.016,-0.11609 2.42632,-0.33409 q 0.51982,0.76831 1.04511,2.09184 0.5385,1.33354 0.71594,2.62216 0.17423,1.26541 0.0747,2.26094 -0.0995,0.99554 -0.50322,1.84369 -0.44215,0.91259 -1.17243,1.45083 -0.73028,0.53824 -1.78672,0.6837 -1.43954,0.19822 -2.65987,-0.67473 -1.20712,-0.86294 -1.67596,-2.20607 l -0.16253,0.0224 q -0.0161,0.57003 -0.21888,1.33136 -0.19112,0.75974 -0.56353,1.31968 z"
       style="font-size:24px;fill:#000000;fill-opacity:1"
       id="path67886" /><path
       d="m 447.08152,366.18496 q -3.52622,-0.089 -6.30886,-1.30801 -2.78263,-1.21903 -5.10845,-3.3526 l 0.0677,-2.68274 0.11715,0.003 q 0.78557,0.92246 1.93431,1.85408 1.13673,0.94304 2.56023,1.67059 1.4812,0.76417 3.13409,1.22789 1.65259,0.47544 3.65586,0.52599 1.92126,0.0485 3.66603,-0.34121 1.74476,-0.3897 3.20374,-1.06796 1.50643,-0.7005 2.64124,-1.53932 1.14622,-0.82682 2.02536,-1.75415 l 0.11715,0.003 -0.0677,2.68274 q -2.43048,2.01355 -5.27105,3.09067 -2.84058,1.07711 -6.3668,0.98813 z"
       style="font-size:24px;fill:#000000;fill-opacity:1"
       id="path67888" /></g></g></svg>
