<?xml version="1.0" encoding="UTF-8" standalone="no"?>
<!-- Generator: Adobe Illustrator 20.0.0, SVG Export Plug-In . SVG Version: 6.00 Build 0)  -->

<svg
   version="1.1"
   id="svg2"
   x="0px"
   y="0px"
   viewBox="0 0 721.6 721.6"
   style="enable-background:new 0 0 721.6 721.6;"
   xml:space="preserve"
   sodipodi:docname="white12.svg"
   inkscape:version="1.1 (c68e22c387, 2021-05-23)"
   xmlns:inkscape="http://www.inkscape.org/namespaces/inkscape"
   xmlns:sodipodi="http://sodipodi.sourceforge.net/DTD/sodipodi-0.dtd"
   xmlns="http://www.w3.org/2000/svg"
   xmlns:svg="http://www.w3.org/2000/svg"><defs
   id="defs1626"><inkscape:path-effect
     effect="bspline"
     id="path-effect11541"
     is_visible="true"
     lpeversion="1"
     weight="33.333333"
     steps="2"
     helper_size="0"
     apply_no_weight="true"
     apply_with_weight="true"
     only_selected="false" /><inkscape:path-effect
     effect="fill_between_many"
     method="originald"
     linkedpaths="#g12224,0,1"
     id="path-effect12573" /></defs><sodipodi:namedview
   id="namedview1624"
   pagecolor="#ffffff"
   bordercolor="#666666"
   borderopacity="1.0"
   inkscape:pageshadow="2"
   inkscape:pageopacity="0.0"
   inkscape:pagecheckerboard="0"
   showgrid="false"
   showguides="false"
   inkscape:zoom="1.0850887"
   inkscape:cx="520.69476"
   inkscape:cy="352.50575"
   inkscape:window-width="1920"
   inkscape:window-height="1001"
   inkscape:window-x="-9"
   inkscape:window-y="-9"
   inkscape:window-maximized="1"
   inkscape:current-layer="layer2" />
<style
   type="text/css"
   id="style1226">
	
		.st0{opacity:0.9895;fill:url(#path3302_3_);stroke:#5A5A59;stroke-width:0.9965;stroke-linecap:round;stroke-linejoin:round;enable-background:new    ;}
	
		.st1{opacity:0.9895;fill:url(#path3304_3_);stroke:#5A5A59;stroke-width:0.9965;stroke-linecap:round;stroke-linejoin:round;enable-background:new    ;}
	
		.st2{opacity:0.9895;fill:url(#path3306_3_);stroke:#5A5A59;stroke-width:0.9965;stroke-linecap:round;stroke-linejoin:round;enable-background:new    ;}
	
		.st3{opacity:0.9895;fill:url(#path3310_3_);stroke:#5A5A59;stroke-width:0.9965;stroke-linecap:round;stroke-linejoin:round;enable-background:new    ;}
	
		.st4{opacity:0.9895;fill:url(#path3312_3_);stroke:#5A5A59;stroke-width:0.9965;stroke-linecap:round;stroke-linejoin:round;enable-background:new    ;}
	
		.st5{opacity:0.9895;fill:url(#path3314_3_);stroke:#5A5A59;stroke-width:0.9965;stroke-linecap:round;stroke-linejoin:round;enable-background:new    ;}
	
		.st6{opacity:0.9895;fill:url(#path3316_3_);stroke:#5A5A59;stroke-width:0.9965;stroke-linecap:round;stroke-linejoin:round;enable-background:new    ;}
	
		.st7{opacity:0.9895;fill:url(#path3318_3_);stroke:#5A5A59;stroke-width:0.9965;stroke-linecap:round;stroke-linejoin:round;enable-background:new    ;}
	
		.st8{opacity:0.9895;fill:url(#path3320_3_);stroke:#5A5A59;stroke-width:0.9965;stroke-linecap:round;stroke-linejoin:round;enable-background:new    ;}
	
		.st9{opacity:0.9895;fill:url(#path3322_3_);stroke:#5A5A59;stroke-width:0.9965;stroke-linecap:round;stroke-linejoin:round;enable-background:new    ;}
	
		.st10{opacity:0.9895;fill:url(#path3308_3_);stroke:#5A5A59;stroke-width:0.9965;stroke-linecap:round;stroke-linejoin:round;enable-background:new    ;}
	
		.st11{opacity:0.9895;fill:url(#path3324_3_);stroke:#5A5A59;stroke-width:0.9965;stroke-linecap:round;stroke-linejoin:round;enable-background:new    ;}
	
		.st12{opacity:0.9895;fill:url(#path3326_3_);stroke:#5A5A59;stroke-width:0.9965;stroke-linecap:round;stroke-linejoin:round;enable-background:new    ;}
	
		.st13{opacity:0.9895;fill:url(#path3328_3_);stroke:#5A5A59;stroke-width:0.9965;stroke-linecap:round;stroke-linejoin:round;enable-background:new    ;}
	
		.st14{opacity:0.9895;fill:url(#path3330_3_);stroke:#5A5A59;stroke-width:0.9965;stroke-linecap:round;stroke-linejoin:round;enable-background:new    ;}
	
		.st15{opacity:0.9895;fill:url(#path3332_3_);stroke:#5A5A59;stroke-width:0.9965;stroke-linecap:round;stroke-linejoin:round;enable-background:new    ;}
	
		.st16{opacity:0.9895;fill:url(#path3334_3_);stroke:#5A5A59;stroke-width:0.9965;stroke-linecap:round;stroke-linejoin:round;enable-background:new    ;}
	
		.st17{opacity:0.9895;fill:url(#path3336_3_);stroke:#5A5A59;stroke-width:0.9965;stroke-linecap:round;stroke-linejoin:round;enable-background:new    ;}
	
		.st18{opacity:0.9895;fill:url(#path3338_3_);stroke:#5A5A59;stroke-width:0.9965;stroke-linecap:round;stroke-linejoin:round;enable-background:new    ;}
	
		.st19{opacity:0.9895;fill:url(#path3340_3_);stroke:#5A5A59;stroke-width:0.9965;stroke-linecap:round;stroke-linejoin:round;enable-background:new    ;}
	.st20{opacity:0.9895;enable-background:new    ;}
	
		.st21{opacity:0.9895;fill:url(#path3302_5_);stroke:#5A5A59;stroke-width:0.9965;stroke-linecap:round;stroke-linejoin:round;enable-background:new    ;}
	
		.st22{opacity:0.9895;fill:url(#path3304_5_);stroke:#5A5A59;stroke-width:0.9965;stroke-linecap:round;stroke-linejoin:round;enable-background:new    ;}
	
		.st23{opacity:0.9895;fill:url(#path3306_5_);stroke:#5A5A59;stroke-width:0.9965;stroke-linecap:round;stroke-linejoin:round;enable-background:new    ;}
	
		.st24{opacity:0.9895;fill:url(#path3310_5_);stroke:#5A5A59;stroke-width:0.9965;stroke-linecap:round;stroke-linejoin:round;enable-background:new    ;}
	
		.st25{opacity:0.9895;fill:url(#path3312_5_);stroke:#5A5A59;stroke-width:0.9965;stroke-linecap:round;stroke-linejoin:round;enable-background:new    ;}
	
		.st26{opacity:0.9895;fill:url(#path3314_5_);stroke:#5A5A59;stroke-width:0.9965;stroke-linecap:round;stroke-linejoin:round;enable-background:new    ;}
	
		.st27{opacity:0.9895;fill:url(#path3316_5_);stroke:#5A5A59;stroke-width:0.9965;stroke-linecap:round;stroke-linejoin:round;enable-background:new    ;}
	
		.st28{opacity:0.9895;fill:url(#path3318_5_);stroke:#5A5A59;stroke-width:0.9965;stroke-linecap:round;stroke-linejoin:round;enable-background:new    ;}
	
		.st29{opacity:0.9895;fill:url(#path3320_5_);stroke:#5A5A59;stroke-width:0.9965;stroke-linecap:round;stroke-linejoin:round;enable-background:new    ;}
	
		.st30{opacity:0.9895;fill:url(#path3322_5_);stroke:#5A5A59;stroke-width:0.9965;stroke-linecap:round;stroke-linejoin:round;enable-background:new    ;}
	
		.st31{opacity:0.9895;fill:url(#path3308_5_);stroke:#5A5A59;stroke-width:0.9965;stroke-linecap:round;stroke-linejoin:round;enable-background:new    ;}
	
		.st32{opacity:0.9895;fill:url(#path3324_5_);stroke:#5A5A59;stroke-width:0.9965;stroke-linecap:round;stroke-linejoin:round;enable-background:new    ;}
	
		.st33{opacity:0.9895;fill:url(#path3326_5_);stroke:#5A5A59;stroke-width:0.9965;stroke-linecap:round;stroke-linejoin:round;enable-background:new    ;}
	
		.st34{opacity:0.9895;fill:url(#path3328_5_);stroke:#5A5A59;stroke-width:0.9965;stroke-linecap:round;stroke-linejoin:round;enable-background:new    ;}
	
		.st35{opacity:0.9895;fill:url(#path3330_5_);stroke:#5A5A59;stroke-width:0.9965;stroke-linecap:round;stroke-linejoin:round;enable-background:new    ;}
	
		.st36{opacity:0.9895;fill:url(#path3332_5_);stroke:#5A5A59;stroke-width:0.9965;stroke-linecap:round;stroke-linejoin:round;enable-background:new    ;}
	
		.st37{opacity:0.9895;fill:url(#path3334_5_);stroke:#5A5A59;stroke-width:0.9965;stroke-linecap:round;stroke-linejoin:round;enable-background:new    ;}
	
		.st38{opacity:0.9895;fill:url(#path3336_5_);stroke:#5A5A59;stroke-width:0.9965;stroke-linecap:round;stroke-linejoin:round;enable-background:new    ;}
	
		.st39{opacity:0.9895;fill:url(#path3338_5_);stroke:#5A5A59;stroke-width:0.9965;stroke-linecap:round;stroke-linejoin:round;enable-background:new    ;}
	
		.st40{opacity:0.9895;fill:url(#path3340_5_);stroke:#5A5A59;stroke-width:0.9965;stroke-linecap:round;stroke-linejoin:round;enable-background:new    ;}
	
		.st41{opacity:0.9895;fill:url(#path3302_6_);stroke:#5A5A59;stroke-width:0.9965;stroke-linecap:round;stroke-linejoin:round;enable-background:new    ;}
	
		.st42{opacity:0.9895;fill:url(#path3304_6_);stroke:#5A5A59;stroke-width:0.9965;stroke-linecap:round;stroke-linejoin:round;enable-background:new    ;}
	
		.st43{opacity:0.9895;fill:url(#path3306_6_);stroke:#5A5A59;stroke-width:0.9965;stroke-linecap:round;stroke-linejoin:round;enable-background:new    ;}
	
		.st44{opacity:0.9895;fill:url(#path3310_6_);stroke:#5A5A59;stroke-width:0.9965;stroke-linecap:round;stroke-linejoin:round;enable-background:new    ;}
	
		.st45{opacity:0.9895;fill:url(#path3312_6_);stroke:#5A5A59;stroke-width:0.9965;stroke-linecap:round;stroke-linejoin:round;enable-background:new    ;}
	
		.st46{opacity:0.9895;fill:url(#path3314_6_);stroke:#5A5A59;stroke-width:0.9965;stroke-linecap:round;stroke-linejoin:round;enable-background:new    ;}
	
		.st47{opacity:0.9895;fill:url(#path3316_6_);stroke:#5A5A59;stroke-width:0.9965;stroke-linecap:round;stroke-linejoin:round;enable-background:new    ;}
	
		.st48{opacity:0.9895;fill:url(#path3318_6_);stroke:#5A5A59;stroke-width:0.9965;stroke-linecap:round;stroke-linejoin:round;enable-background:new    ;}
	
		.st49{opacity:0.9895;fill:url(#path3320_6_);stroke:#5A5A59;stroke-width:0.9965;stroke-linecap:round;stroke-linejoin:round;enable-background:new    ;}
	
		.st50{opacity:0.9895;fill:url(#path3322_6_);stroke:#5A5A59;stroke-width:0.9965;stroke-linecap:round;stroke-linejoin:round;enable-background:new    ;}
	
		.st51{opacity:0.9895;fill:url(#path3308_6_);stroke:#5A5A59;stroke-width:0.9965;stroke-linecap:round;stroke-linejoin:round;enable-background:new    ;}
	
		.st52{opacity:0.9895;fill:url(#path3324_6_);stroke:#5A5A59;stroke-width:0.9965;stroke-linecap:round;stroke-linejoin:round;enable-background:new    ;}
	
		.st53{opacity:0.9895;fill:url(#path3326_6_);stroke:#5A5A59;stroke-width:0.9965;stroke-linecap:round;stroke-linejoin:round;enable-background:new    ;}
	
		.st54{opacity:0.9895;fill:url(#path3328_6_);stroke:#5A5A59;stroke-width:0.9965;stroke-linecap:round;stroke-linejoin:round;enable-background:new    ;}
	
		.st55{opacity:0.9895;fill:url(#path3330_6_);stroke:#5A5A59;stroke-width:0.9965;stroke-linecap:round;stroke-linejoin:round;enable-background:new    ;}
	
		.st56{opacity:0.9895;fill:url(#path3332_6_);stroke:#5A5A59;stroke-width:0.9965;stroke-linecap:round;stroke-linejoin:round;enable-background:new    ;}
	
		.st57{opacity:0.9895;fill:url(#path3334_6_);stroke:#5A5A59;stroke-width:0.9965;stroke-linecap:round;stroke-linejoin:round;enable-background:new    ;}
	
		.st58{opacity:0.9895;fill:url(#path3336_6_);stroke:#5A5A59;stroke-width:0.9965;stroke-linecap:round;stroke-linejoin:round;enable-background:new    ;}
	
		.st59{opacity:0.9895;fill:url(#path3338_6_);stroke:#5A5A59;stroke-width:0.9965;stroke-linecap:round;stroke-linejoin:round;enable-background:new    ;}
	
		.st60{opacity:0.9895;fill:url(#path3340_6_);stroke:#5A5A59;stroke-width:0.9965;stroke-linecap:round;stroke-linejoin:round;enable-background:new    ;}
	.st61{fill:#004C99;stroke:#5A5A59;stroke-width:0.9965;stroke-linecap:round;stroke-linejoin:round;}
	.st62{opacity:0.3;}
</style>





<g
   inkscape:groupmode="layer"
   id="layer1"
   inkscape:label="red"
   style="display:none"><g
     id="g1352">
	<g
   id="g1288">
		<linearGradient
   id="path3302_3_"
   gradientUnits="userSpaceOnUse"
   x1="261.125"
   y1="263.52499"
   x2="469.875"
   y2="54.775002">
			<stop
   offset="0.3254"
   style="stop-color:#E63329"
   id="stop1228" />
			<stop
   offset="0.6124"
   style="stop-color:#B92D1F"
   id="stop1230" />
		</linearGradient>
		<path
   id="path3302_4_"
   class="st0"
   d="m 320.7,8.6 c 48.9,-18 67.6,15.3 109.7,6.7 l -71.6,345.9 z" />
		<linearGradient
   id="path3304_3_"
   gradientUnits="userSpaceOnUse"
   x1="334.72501"
   y1="332.22491"
   x2="585.56543"
   y2="81.384598">
			<stop
   offset="0.3254"
   style="stop-color:#E63329"
   id="stop1234" />
			<stop
   offset="0.6124"
   style="stop-color:#B92D1F"
   id="stop1236" />
		</linearGradient>
		<path
   id="path3304_4_"
   class="st1"
   d="m 538.9,49.8 c 50.3,13.9 46.1,53.5 85.4,71.1 l -262.9,238 z" />
		<linearGradient
   id="path3306_3_"
   gradientUnits="userSpaceOnUse"
   x1="439.5"
   y1="437.70001"
   x2="673.79999"
   y2="203.39999">
			<stop
   offset="0.3254"
   style="stop-color:#E63329"
   id="stop1240" />
			<stop
   offset="0.6124"
   style="stop-color:#B92D1F"
   id="stop1242" />
		</linearGradient>
		<path
   id="path3306_4_"
   class="st2"
   d="m 684.4,214 c 32.4,40.6 8.8,68.9 30,105.8 L 361,359.2 Z" />
		<linearGradient
   id="path3310_3_"
   gradientUnits="userSpaceOnUse"
   x1="481.39999"
   y1="480.10001"
   x2="620.15002"
   y2="341.35001">
			<stop
   offset="0.3254"
   style="stop-color:#E63329"
   id="stop1246" />
			<stop
   offset="0.6124"
   style="stop-color:#B92D1F"
   id="stop1248" />
		</linearGradient>
		<path
   id="path3310_4_"
   class="st3"
   d="m 709.1,430.3 c 2.2,51.8 -34.7,61 -39.5,103.4 L 360.5,359.2 Z" />
		<linearGradient
   id="path3312_3_"
   gradientUnits="userSpaceOnUse"
   x1="398.09509"
   y1="571.79498"
   x2="485.49509"
   y2="484.39499">
			<stop
   offset="0.3254"
   style="stop-color:#E63329"
   id="stop1252" />
			<stop
   offset="0.6124"
   style="stop-color:#B92D1F"
   id="stop1254" />
		</linearGradient>
		<path
   id="path3312_4_"
   class="st4"
   d="m 599.2,619 c -28.9,43.2 -63.5,30.1 -92.4,61.5 L 360,358.9 Z" />
		<linearGradient
   id="path3314_3_"
   gradientUnits="userSpaceOnUse"
   x1="249.675"
   y1="665.67499"
   x2="458.42499"
   y2="456.92499">
			<stop
   offset="0.3254"
   style="stop-color:#E63329"
   id="stop1258" />
			<stop
   offset="0.6124"
   style="stop-color:#B92D1F"
   id="stop1260" />
		</linearGradient>
		<path
   id="path3314_4_"
   class="st5"
   d="m 399.1,713.3 c -48.9,18 -68.8,-17.6 -110.8,-9 l 71.6,-345.9 z" />
		<linearGradient
   id="path3316_3_"
   gradientUnits="userSpaceOnUse"
   x1="135.493"
   y1="635.80701"
   x2="386.75"
   y2="384.54999">
			<stop
   offset="0.3254"
   style="stop-color:#E63329"
   id="stop1264" />
			<stop
   offset="0.6124"
   style="stop-color:#B92D1F"
   id="stop1266" />
		</linearGradient>
		<path
   id="path3316_4_"
   class="st6"
   d="M 181.9,667.4 C 131.6,653.5 136.5,613.5 97.4,595.9 l 262.7,-238 z" />
		<linearGradient
   id="path3318_3_"
   gradientUnits="userSpaceOnUse"
   x1="48.525002"
   y1="512.52502"
   x2="282.02499"
   y2="279.0249">
			<stop
   offset="0.3254"
   style="stop-color:#E63329"
   id="stop1270" />
			<stop
   offset="0.6124"
   style="stop-color:#B92D1F"
   id="stop1272" />
		</linearGradient>
		<path
   id="path3318_4_"
   class="st7"
   d="M 38.1,502.1 C 5.7,461.5 28.3,433.9 7.1,396.8 l 353.5,-39.2 z" />
		<linearGradient
   id="path3320_3_"
   gradientUnits="userSpaceOnUse"
   x1="101.275"
   y1="375.375"
   x2="240.075"
   y2="236.575">
			<stop
   offset="0.3254"
   style="stop-color:#E63329"
   id="stop1276" />
			<stop
   offset="0.6124"
   style="stop-color:#B92D1F"
   id="stop1278" />
		</linearGradient>
		<path
   id="path3320_4_"
   class="st8"
   d="M 13.2,287.3 C 11,235.5 47.1,225.4 51.8,183 L 361,357.5 Z" />
		<linearGradient
   id="path3322_3_"
   gradientUnits="userSpaceOnUse"
   x1="235.16949"
   y1="231.36951"
   x2="322.5195"
   y2="144.0195">
			<stop
   offset="0.3254"
   style="stop-color:#E63329"
   id="stop1282" />
			<stop
   offset="0.6124"
   style="stop-color:#B92D1F"
   id="stop1284" />
		</linearGradient>
		<path
   id="path3322_4_"
   class="st9"
   d="M 119.9,96.5 C 148.8,53.3 185.7,67.7 214.6,36.1 L 361.5,357.7 Z" />
	</g>
	<g
   id="g1350">
		<linearGradient
   id="path3308_3_"
   gradientUnits="userSpaceOnUse"
   x1="399.625"
   y1="398.625"
   x2="651.23077"
   y2="147.0192">
			<stop
   offset="0.3254"
   style="stop-color:#E63329"
   id="stop1290" />
			<stop
   offset="0.6124"
   style="stop-color:#B92D1F"
   id="stop1292" />
		</linearGradient>
		<path
   id="path3308_4_"
   class="st10"
   d="m 599.4,98 c 43.5,28.7 53.7,87.5 85.5,116.2 L 361.1,360.1 Z" />
		<linearGradient
   id="path3324_3_"
   gradientUnits="userSpaceOnUse"
   x1="240.35001"
   y1="238.35001"
   x2="396.10001"
   y2="82.599998">
			<stop
   offset="0.3254"
   style="stop-color:#E63329"
   id="stop1296" />
			<stop
   offset="0.6124"
   style="stop-color:#B92D1F"
   id="stop1298" />
		</linearGradient>
		<path
   id="path3324_4_"
   class="st11"
   d="M 184,53 C 224.9,20.9 284.5,29.3 321.7,8.2 l 39.5,351 z" />
		<linearGradient
   id="path3326_3_"
   gradientUnits="userSpaceOnUse"
   x1="282.97501"
   y1="281.375"
   x2="524.32501"
   y2="40.025002">
			<stop
   offset="0.3254"
   style="stop-color:#E63329"
   id="stop1302" />
			<stop
   offset="0.6124"
   style="stop-color:#B92D1F"
   id="stop1304" />
		</linearGradient>
		<path
   id="path3326_4_"
   class="st12"
   d="m 399.1,8.6 c 52.2,-2.2 95.3,39.5 138,44.2 L 361.3,359.7 Z" />
		<linearGradient
   id="path3328_3_"
   gradientUnits="userSpaceOnUse"
   x1="465.27499"
   y1="465.17499"
   x2="675.97498"
   y2="254.47501">
			<stop
   offset="0.3254"
   style="stop-color:#E63329"
   id="stop1308" />
			<stop
   offset="0.6124"
   style="stop-color:#B92D1F"
   id="stop1310" />
		</linearGradient>
		<path
   id="path3328_4_"
   class="st13"
   d="m 709.1,287.6 c 18.2,48.5 -9,102 -0.3,143.8 L 360.4,360.3 Z" />
		<linearGradient
   id="path3330_3_"
   gradientUnits="userSpaceOnUse"
   x1="474.5"
   y1="495.79999"
   x2="575.29999"
   y2="395">
			<stop
   offset="0.3254"
   style="stop-color:#E63329"
   id="stop1314" />
			<stop
   offset="0.6124"
   style="stop-color:#B92D1F"
   id="stop1316" />
		</linearGradient>
		<path
   id="path3330_4_"
   class="st14"
   d="m 684.6,504.3 c -14,49.9 -67.2,77.8 -85,116.6 L 360,360.1 Z" />
		<linearGradient
   id="path3332_3_"
   gradientUnits="userSpaceOnUse"
   x1="324.85001"
   y1="636.15002"
   x2="480.5"
   y2="480.5">
			<stop
   offset="0.3254"
   style="stop-color:#E63329"
   id="stop1320" />
			<stop
   offset="0.6124"
   style="stop-color:#B92D1F"
   id="stop1322" />
		</linearGradient>
		<path
   id="path3332_4_"
   class="st15"
   d="m 537,665.8 c -40.9,32.1 -100.5,23.7 -137.7,44.8 l -39.7,-351 z" />
		<linearGradient
   id="path3334_3_"
   gradientUnits="userSpaceOnUse"
   x1="196.72501"
   y1="678.72498"
   x2="438.07501"
   y2="437.375">
			<stop
   offset="0.3254"
   style="stop-color:#E63329"
   id="stop1326" />
			<stop
   offset="0.6124"
   style="stop-color:#B92D1F"
   id="stop1328" />
		</linearGradient>
		<path
   id="path3334_4_"
   class="st16"
   d="M 322,710.2 C 269.8,712.4 226.7,670.7 184,666 L 359.7,359 Z" />
		<linearGradient
   id="path3336_3_"
   gradientUnits="userSpaceOnUse"
   x1="69.769203"
   y1="571.68073"
   x2="321.42499"
   y2="320.02499">
			<stop
   offset="0.3254"
   style="stop-color:#E63329"
   id="stop1332" />
			<stop
   offset="0.6124"
   style="stop-color:#B92D1F"
   id="stop1334" />
		</linearGradient>
		<path
   id="path3336_4_"
   class="st17"
   d="M 121.6,620.7 C 78.1,592 67.9,533.2 36.1,504.5 L 360,358.6 Z" />
		<linearGradient
   id="path3338_3_"
   gradientUnits="userSpaceOnUse"
   x1="45.275002"
   y1="463.97501"
   x2="255.72501"
   y2="253.52499">
			<stop
   offset="0.3254"
   style="stop-color:#E63329"
   id="stop1338" />
			<stop
   offset="0.6124"
   style="stop-color:#B92D1F"
   id="stop1340" />
		</linearGradient>
		<path
   id="path3338_4_"
   class="st18"
   d="M 12.6,431.3 C -5.6,382.8 21,329 12.2,287.3 l 348.4,71.1 z" />
		<linearGradient
   id="path3340_3_"
   gradientUnits="userSpaceOnUse"
   x1="145.75"
   y1="323.85001"
   x2="246.55"
   y2="223.05">
			<stop
   offset="0.3254"
   style="stop-color:#E63329"
   id="stop1344" />
			<stop
   offset="0.6124"
   style="stop-color:#B92D1F"
   id="stop1346" />
		</linearGradient>
		<path
   id="path3340_4_"
   class="st19"
   d="m 36.4,214.5 c 14,-49.9 67.2,-77.8 85,-116.6 l 239.7,260.9 z" />
	</g>
</g><path
     style="fill:#000000;fill-opacity:0;fill-rule:evenodd;stroke:#000000;stroke-width:2.007;stroke-linecap:round;stroke-miterlimit:4;stroke-dasharray:none;stroke-opacity:1;paint-order:fill markers stroke"
     id="path16252"
     sodipodi:type="arc"
     sodipodi:cx="360.63962"
     sodipodi:cy="360.90927"
     sodipodi:rx="261.62036"
     sodipodi:ry="259.47031"
     sodipodi:start="4.920345"
     sodipodi:end="4.8959453"
     sodipodi:open="true"
     sodipodi:arc-type="arc"
     d="M 414.65386,107.02926 A 261.62036,259.47031 0 0 1 616.94808,412.92998 261.62036,259.47031 0 0 1 309.75228,615.42392 261.62036,259.47031 0 0 1 103.71035,311.99359 261.62036,259.47031 0 0 1 408.39248,105.79786" /></g><g
   inkscape:groupmode="layer"
   id="layer2"
   inkscape:label="white"
   style="display:inline"><g
     class="st20"
     id="g1478">
	<g
   id="g1414">
		
			<linearGradient
   id="path3302_5_"
   gradientUnits="userSpaceOnUse"
   x1="396.25711"
   y1="-13.6055"
   x2="322.9931"
   y2="-18.4254"
   gradientTransform="translate(0,252.6096)">
			<stop
   offset="0"
   style="stop-color:#FFFFFF"
   id="stop1354" />
			<stop
   offset="1"
   style="stop-color:#D8D8D8"
   id="stop1356" />
		</linearGradient>
		<path
   id="path3302_2_"
   class="st21"
   d="m 331.5,114.8 c 34.3,-12.7 47.3,10.7 76.8,4.7 l -50.1,242.2 z" />
		
			<linearGradient
   id="path3304_5_"
   gradientUnits="userSpaceOnUse"
   x1="468.2041"
   y1="31.6611"
   x2="408.6066"
   y2="-17.363001"
   gradientTransform="translate(0,252.6096)">
			<stop
   offset="0"
   style="stop-color:#FFFFFF"
   id="stop1360" />
			<stop
   offset="1"
   style="stop-color:#D8D8D8"
   id="stop1362" />
		</linearGradient>
		<path
   id="path3304_2_"
   class="st22"
   d="m 485.4,142.4 c 35.2,9.8 32.3,37.5 59.7,49.8 L 361.2,358.8 Z" />
		
			<linearGradient
   id="path3306_5_"
   gradientUnits="userSpaceOnUse"
   x1="490.23071"
   y1="107.4641"
   x2="472.0347"
   y2="35.6376"
   gradientTransform="translate(0,252.6096)">
			<stop
   offset="0"
   style="stop-color:#FFFFFF"
   id="stop1366" />
			<stop
   offset="1"
   style="stop-color:#D8D8D8"
   id="stop1368" />
		</linearGradient>
		<path
   id="path3306_2_"
   class="st23"
   d="m 587.4,257.4 c 22.7,28.4 6.2,48.3 21,74.1 L 361,359 Z" />
		
			<linearGradient
   id="path3310_5_"
   gradientUnits="userSpaceOnUse"
   x1="465.13171"
   y1="180.78439"
   x2="493.8765"
   y2="111.7968"
   gradientTransform="translate(0,252.6096)">
			<stop
   offset="0"
   style="stop-color:#FFFFFF"
   id="stop1372" />
			<stop
   offset="1"
   style="stop-color:#D8D8D8"
   id="stop1374" />
		</linearGradient>
		<path
   id="path3310_2_"
   class="st24"
   d="m 604.7,408.8 c 1.5,36.3 -24.2,42.7 -27.7,72.4 L 360.6,359 Z" />
		
			<linearGradient
   id="path3312_5_"
   gradientUnits="userSpaceOnUse"
   x1="397.4299"
   y1="231.8116"
   x2="458.02921"
   y2="190.4502"
   gradientTransform="translate(0,252.6096)">
			<stop
   offset="0"
   style="stop-color:#FFFFFF"
   id="stop1378" />
			<stop
   offset="1"
   style="stop-color:#D8D8D8"
   id="stop1380" />
		</linearGradient>
		<path
   id="path3312_2_"
   class="st25"
   d="m 527.8,540.9 c -20.3,30.2 -44.4,21 -64.7,43.1 L 360.2,358.8 Z" />
		
			<linearGradient
   id="path3314_5_"
   gradientUnits="userSpaceOnUse"
   x1="323.90659"
   y1="227.9371"
   x2="399.09619"
   y2="235.6488"
   gradientTransform="translate(0,252.6096)">
			<stop
   offset="0"
   style="stop-color:#FFFFFF"
   id="stop1384" />
			<stop
   offset="1"
   style="stop-color:#D8D8D8"
   id="stop1386" />
		</linearGradient>
		<path
   id="path3314_2_"
   class="st26"
   d="m 387.7,607 c -34.3,12.7 -48.2,-12.3 -77.6,-6.3 l 50.1,-242.2 z" />
		
			<linearGradient
   id="path3316_5_"
   gradientUnits="userSpaceOnUse"
   x1="259.379"
   y1="183.4431"
   x2="314.16089"
   y2="232.4586"
   gradientTransform="translate(0,252.6096)">
			<stop
   offset="0"
   style="stop-color:#FFFFFF"
   id="stop1390" />
			<stop
   offset="1"
   style="stop-color:#D8D8D8"
   id="stop1392" />
		</linearGradient>
		<path
   id="path3316_2_"
   class="st27"
   d="m 235.5,574.8 c -35.2,-9.8 -31.8,-37.7 -59.2,-50 L 360.2,358.2 Z" />
		
			<linearGradient
   id="path3318_5_"
   gradientUnits="userSpaceOnUse"
   x1="229.8683"
   y1="101.032"
   x2="249.9808"
   y2="173.8203"
   gradientTransform="translate(0,252.6096)">
			<stop
   offset="0"
   style="stop-color:#FFFFFF"
   id="stop1396" />
			<stop
   offset="1"
   style="stop-color:#D8D8D8"
   id="stop1398" />
		</linearGradient>
		<path
   id="path3318_2_"
   class="st28"
   d="m 134.9,459.1 c -22.7,-28.4 -6.8,-47.7 -21.7,-73.7 L 360.6,358 Z" />
		
			<linearGradient
   id="path3320_5_"
   gradientUnits="userSpaceOnUse"
   x1="257.0575"
   y1="26.767599"
   x2="229.2776"
   y2="99.57"
   gradientTransform="translate(0,252.6096)">
			<stop
   offset="0"
   style="stop-color:#FFFFFF"
   id="stop1402" />
			<stop
   offset="1"
   style="stop-color:#D8D8D8"
   id="stop1404" />
		</linearGradient>
		<path
   id="path3320_2_"
   class="st29"
   d="m 117.5,308.7 c -1.5,-36.3 23.7,-43.3 27,-73.1 L 361,357.8 Z" />
		
			<linearGradient
   id="path3322_5_"
   gradientUnits="userSpaceOnUse"
   x1="321.81561"
   y1="-18.138"
   x2="256.3974"
   y2="24.191601"
   gradientTransform="translate(0,252.6096)">
			<stop
   offset="0"
   style="stop-color:#FFFFFF"
   id="stop1408" />
			<stop
   offset="1"
   style="stop-color:#D8D8D8"
   id="stop1410" />
		</linearGradient>
		<path
   id="path3322_2_"
   class="st30"
   d="m 192.2,175.1 c 20.3,-30.2 46.1,-20.2 66.3,-42.3 L 361.3,358 Z" />
	</g>
	<g
   id="g1476">
		
			<linearGradient
   id="path3308_5_"
   gradientUnits="userSpaceOnUse"
   x1="361"
   y1="579.33002"
   x2="587.70001"
   y2="579.33002"
   gradientTransform="matrix(1,0,0,-1,0,847.28)">
			<stop
   offset="0"
   style="stop-color:#FFFFFF"
   id="stop1416" />
			<stop
   offset="1"
   style="stop-color:#D8D8D8"
   id="stop1418" />
		</linearGradient>
		<path
   id="path3308_2_"
   class="st31"
   d="m 527.9,176.2 c 30.4,20.1 37.6,61.3 59.8,81.3 L 361,359.7 Z" />
		
			<linearGradient
   id="path3324_5_"
   gradientUnits="userSpaceOnUse"
   x1="237"
   y1="611.13"
   x2="361.10001"
   y2="611.13"
   gradientTransform="matrix(1,0,0,-1,0,847.28)">
			<stop
   offset="0"
   style="stop-color:#FFFFFF"
   id="stop1422" />
			<stop
   offset="1"
   style="stop-color:#D8D8D8"
   id="stop1424" />
		</linearGradient>
		<path
   id="path3324_2_"
   class="st32"
   d="m 237,144.7 c 28.7,-22.5 70.4,-16.5 96.4,-31.4 L 361.1,359 Z" />
		
			<linearGradient
   id="path3326_5_"
   gradientUnits="userSpaceOnUse"
   x1="361.10001"
   y1="610.75787"
   x2="484.10001"
   y2="610.75787"
   gradientTransform="matrix(1,0,0,-1,0,847.28)">
			<stop
   offset="0"
   style="stop-color:#FFFFFF"
   id="stop1428" />
			<stop
   offset="1"
   style="stop-color:#D8D8D8"
   id="stop1430" />
		</linearGradient>
		<path
   id="path3326_2_"
   class="st33"
   d="m 387.6,113.6 c 36.6,-1.5 66.7,27.7 96.5,31 l -123,214.9 z" />
		
			<linearGradient
   id="path3328_5_"
   gradientUnits="userSpaceOnUse"
   x1="360.60001"
   y1="488.03"
   x2="609.17572"
   y2="488.03"
   gradientTransform="matrix(1,0,0,-1,0,847.28)">
			<stop
   offset="0"
   style="stop-color:#FFFFFF"
   id="stop1434" />
			<stop
   offset="1"
   style="stop-color:#D8D8D8"
   id="stop1436" />
		</linearGradient>
		<path
   id="path3328_2_"
   class="st34"
   d="m 604.7,308.9 c 12.7,33.9 -6.3,71.4 -0.2,100.7 L 360.6,359.8 Z" />
		
			<linearGradient
   id="path3330_5_"
   gradientUnits="userSpaceOnUse"
   x1="360.20001"
   y1="396.28"
   x2="587.5"
   y2="396.28"
   gradientTransform="matrix(1,0,0,-1,0,847.28)">
			<stop
   offset="0"
   style="stop-color:#FFFFFF"
   id="stop1440" />
			<stop
   offset="1"
   style="stop-color:#D8D8D8"
   id="stop1442" />
		</linearGradient>
		<path
   id="path3330_2_"
   class="st35"
   d="M 587.5,460.6 C 577.7,495.5 540.4,515 528,542.3 L 360.2,359.7 Z" />
		
			<linearGradient
   id="path3332_5_"
   gradientUnits="userSpaceOnUse"
   x1="360"
   y1="365.03"
   x2="484.20001"
   y2="365.03"
   gradientTransform="matrix(1,0,0,-1,0,847.28)">
			<stop
   offset="0"
   style="stop-color:#FFFFFF"
   id="stop1446" />
			<stop
   offset="1"
   style="stop-color:#D8D8D8"
   id="stop1448" />
		</linearGradient>
		<path
   id="path3332_2_"
   class="st36"
   d="m 484.2,573.7 c -28.7,22.5 -70.4,16.5 -96.4,31.4 L 360,359.4 Z" />
		
			<linearGradient
   id="path3334_5_"
   gradientUnits="userSpaceOnUse"
   x1="237.10001"
   y1="365.45209"
   x2="360.10001"
   y2="365.45209"
   gradientTransform="matrix(1,0,0,-1,0,847.28)">
			<stop
   offset="0"
   style="stop-color:#FFFFFF"
   id="stop1452" />
			<stop
   offset="1"
   style="stop-color:#D8D8D8"
   id="stop1454" />
		</linearGradient>
		<path
   id="path3334_2_"
   class="st37"
   d="m 333.6,604.8 c -36.6,1.5 -66.7,-27.7 -96.5,-31 l 123,-215 z" />
		
			<linearGradient
   id="path3336_5_"
   gradientUnits="userSpaceOnUse"
   x1="133.5"
   y1="396.92999"
   x2="360.20001"
   y2="396.92999"
   gradientTransform="matrix(1,0,0,-1,0,847.28)">
			<stop
   offset="0"
   style="stop-color:#FFFFFF"
   id="stop1458" />
			<stop
   offset="1"
   style="stop-color:#D8D8D8"
   id="stop1460" />
		</linearGradient>
		<path
   id="path3336_2_"
   class="st38"
   d="M 193.3,542.1 C 162.9,522 155.7,480.8 133.5,460.8 L 360.2,358.6 Z" />
		
			<linearGradient
   id="path3338_5_"
   gradientUnits="userSpaceOnUse"
   x1="112.4378"
   y1="488.17999"
   x2="360.60001"
   y2="488.17999"
   gradientTransform="matrix(1,0,0,-1,0,847.28)">
			<stop
   offset="0"
   style="stop-color:#FFFFFF"
   id="stop1464" />
			<stop
   offset="1"
   style="stop-color:#D8D8D8"
   id="stop1466" />
		</linearGradient>
		<path
   id="path3338_2_"
   class="st39"
   d="m 117,409.5 c -12.7,-33.9 5.8,-71.6 -0.3,-100.8 l 243.9,49.8 z" />
		
			<linearGradient
   id="path3340_5_"
   gradientUnits="userSpaceOnUse"
   x1="133.7"
   y1="579.88"
   x2="361"
   y2="579.88"
   gradientTransform="matrix(1,0,0,-1,0,847.28)">
			<stop
   offset="0"
   style="stop-color:#FFFFFF"
   id="stop1470" />
			<stop
   offset="1"
   style="stop-color:#D8D8D8"
   id="stop1472" />
		</linearGradient>
		<path
   id="path3340_2_"
   class="st40"
   d="m 133.7,257.8 c 9.8,-34.9 47.1,-54.4 59.5,-81.7 L 361,358.7 Z" />
	</g>
</g><g
     aria-label="scrabble score, this one "
     id="text69141"
     style="font-size:40px;line-height:1.25"><path
       d="m 199.00067,333.95612 q 2.97085,0.32228 4.60623,2.99471 1.63749,2.65301 1.17618,6.90541 -0.26119,2.40775 -1.04336,4.36606 -0.79948,1.93679 -1.62654,3.22228 l -4.09706,-0.44445 0.0211,-0.19418 q 1.48843,-1.58701 2.49472,-3.61924 0.98688,-2.03434 1.19752,-3.97607 0.2612,-2.40775 -0.36805,-3.85122 -0.62924,-1.44347 -2.29913,-1.62462 -1.28154,-0.13903 -2.02178,0.52721 -0.74023,0.66624 -1.43374,2.71276 -0.25901,0.75774 -0.62894,1.99459 -0.36782,1.21743 -0.7513,2.21706 -1.06692,2.77219 -2.65382,3.81809 -1.60421,1.02436 -3.74011,0.79266 -1.3398,-0.14534 -2.46528,-0.81752 -1.12337,-0.6916 -1.93323,-1.91891 -0.79465,-1.18637 -1.13777,-2.91314 -0.36042,-1.74828 -0.13504,-3.82594 0.21065,-1.94173 0.91093,-3.86964 0.68298,-1.94943 1.50582,-3.19608 l 3.90289,0.42339 -0.0211,0.19417 q -1.18078,1.28641 -2.09676,3.21056 -0.93541,1.92205 -1.14394,3.84437 -0.21696,1.99998 0.41017,3.46287 0.60772,1.46078 2.12228,1.62508 1.33979,0.14534 2.10997,-0.61588 0.76808,-0.7418 1.39327,-2.52069 0.34254,-0.98442 0.71036,-2.20185 0.36992,-1.23685 0.65467,-2.05073 0.85846,-2.48048 2.42548,-3.70534 1.58644,-1.22276 3.95536,-0.96577 z"
       id="path85340" /><path
       d="m 208.77552,313.46457 q 0.41937,1.9918 0.50081,3.72036 0.0861,1.70958 -0.35312,3.51232 -0.55939,2.29612 -1.69049,4.05091 -1.15007,1.75017 -2.84922,2.7836 -1.70377,1.0524 -3.97608,1.30291 -2.2723,0.25052 -5.06181,-0.42907 -5.19948,-1.26672 -7.46632,-4.83435 -2.2622,-3.58661 -1.12031,-8.27374 0.44382,-1.82171 1.38149,-3.4427 0.94231,-1.63997 2.03836,-2.92084 l 3.96603,0.96622 -0.0462,0.18976 q -1.66899,1.32221 -2.77746,2.90159 -1.10384,1.56041 -1.50605,3.21134 -0.73969,3.0362 0.8798,5.30028 1.60513,2.24048 5.55219,3.20207 3.8332,0.93386 6.31768,-0.27009 2.47013,-1.22754 3.22831,-4.33964 0.26352,-1.08165 0.25163,-2.27059 -0.0119,-1.18894 -0.25003,-2.19178 -0.20895,-0.87511 -0.47897,-1.66458 -0.289,-0.7941 -0.51451,-1.27119 l 0.0462,-0.18976 z"
       id="path85342" /><path
       d="m 199.82335,290.37853 -0.0682,0.18301 q -0.46963,0.70036 -0.81582,1.40507 -0.35765,0.67958 -0.72618,1.66779 -0.59373,1.59211 -0.43281,3.34058 0.14262,1.74164 0.7471,3.53045 l 14.51202,5.41184 -1.283,3.44043 -20.44128,-7.62298 1.283,-3.44043 3.01953,1.12604 q -0.88267,-2.66382 -0.97969,-4.47184 -0.1085,-1.83314 0.49888,-3.46186 0.3344,-0.89671 0.53944,-1.27884 0.18674,-0.38895 0.61512,-1.14639 z"
       id="path85344" /><path
       d="m 225.59268,279.08976 -1.70343,3.23079 -2.05595,-1.084 q 0.066,0.58678 0.20986,1.61207 0.13572,0.99891 0.0823,1.85395 -0.0308,1.02153 -0.32728,2.21206 -0.27923,1.19964 -1.02619,2.61634 -1.37549,2.60882 -4.05965,3.51197 -2.68416,0.90315 -5.36208,-0.50878 -2.19417,-1.15687 -3.04987,-2.80035 -0.86387,-1.66986 -0.7213,-3.82474 0.15168,-2.17216 1.17787,-4.78851 1.02619,-2.61634 2.38189,-5.52263 l -0.50103,-0.26417 q -1.10572,-0.58299 -2.04086,-0.56821 -0.92603,-0.002 -1.72327,0.50452 -0.76174,0.48156 -1.41007,1.37619 -0.64833,0.89464 -1.20399,1.94853 -0.67409,1.27849 -1.15749,3.03287 -0.50068,1.74528 -0.74503,3.75818 l -0.0911,0.17277 -3.29989,-1.73987 q 0.24185,-1.08687 0.87823,-3.04763 0.63638,-1.96076 1.55641,-3.70573 1.07489,-2.03868 2.21293,-3.35958 1.12987,-1.3473 2.52488,-2.02488 1.36862,-0.66943 2.93044,-0.57459 1.56182,0.0948 3.42772,1.07863 z m -6.45458,0.72575 -5.37312,-2.83298 q -0.69701,1.53136 -1.59002,3.64386 -0.8839,2.09521 -1.17507,3.44311 -0.34047,1.60895 0.0506,2.91914 0.37383,1.30109 1.84237,2.07538 1.65858,0.87448 3.03349,0.31878 1.35762,-0.56482 2.44162,-2.62077 0.90182,-1.71042 0.99225,-3.47327 0.0732,-1.77197 -0.22215,-3.47325 z"
       id="path85346" /><path
       d="m 231.94924,251.06242 q 2.1929,1.6334 3.48053,3.56667 1.2993,1.9176 1.70804,3.85376 0.40905,2.03382 0.0439,3.83191 -0.38083,1.78642 -1.57088,3.3841 -1.10838,1.48804 -2.29701,2.33181 -1.17296,0.85544 -2.57321,1.49287 l 0.6745,0.79466 -2.05342,2.75679 -24.37252,-18.15407 2.19342,-2.94476 8.70895,6.48693 q -0.0964,-1.99578 0.29974,-3.86819 0.38051,-1.88408 1.67556,-3.62274 2.31009,-3.10139 6.02101,-3.11363 3.72259,-0.0279 8.0614,3.20389 z m -2.18511,3.09707 q -3.13272,-2.33342 -5.5161,-2.50134 -2.39904,-0.17959 -4.11411,2.12295 -0.9567,1.28442 -1.37286,3.02017 -0.43181,1.7241 -0.39468,3.50523 l 10.02468,7.46697 q 1.49726,-0.83307 2.38158,-1.56255 0.89598,-0.74515 1.74769,-1.88859 1.82007,-2.44352 1.24909,-5.01196 -0.57497,-2.59577 -4.00529,-5.15088 z"
       id="path85348" /><path
       d="m 250.71695,232.08925 q 1.90975,1.95695 2.87842,4.06816 0.98264,2.09756 1.08282,4.07386 0.0852,2.0728 -0.55732,3.79142 -0.65615,1.70464 -2.08193,3.09603 -1.32794,1.2959 -2.63414,1.94291 -1.29256,0.66099 -2.77541,1.07105 l 0.54159,0.89056 -2.46017,2.40083 -21.22547,-21.75016 2.62791,-2.56452 7.58442,7.77191 q 0.21761,-1.98623 0.9024,-3.77339 0.67114,-1.80114 2.22272,-3.3153 2.7677,-2.70093 6.43466,-2.13131 3.68093,0.55597 7.4595,4.42795 z m -2.64357,2.71625 q -2.72821,-2.79565 -5.0558,-3.3351 -2.34124,-0.55343 -4.39604,1.45181 -1.14622,1.11856 -1.82931,2.76763 -0.69674,1.63509 -0.93927,3.40002 l 8.73027,8.94608 q 1.60934,-0.58806 2.59707,-1.16991 1.00171,-0.59548 2.02213,-1.59128 2.1806,-2.128 2.0193,-4.7542 -0.16096,-2.65381 -3.14835,-5.71505 z"
       id="path85350" /><path
       d="m 266.02201,234.33753 -2.90132,2.25056 -18.62697,-24.01304 2.90132,-2.25056 z"
       id="path85352" /><path
       d="m 281.88112,211.39671 -13.70964,8.39203 q 1.05027,1.71579 2.35183,2.68236 1.29137,0.94991 2.69056,1.21553 1.35567,0.26936 2.78312,-0.0548 1.44411,-0.33438 2.87671,-1.21131 1.89903,-1.16244 3.35586,-3.0847 1.46328,-1.94911 1.83087,-3.18171 l 0.16658,-0.10197 2.09036,3.41491 q -1.17465,1.63503 -2.54849,3.09429 -1.37384,1.45926 -3.18957,2.57072 -4.63097,2.83473 -8.75917,1.92672 -4.13839,-0.92466 -6.96293,-5.53897 -2.79394,-4.56433 -1.95358,-8.76562 0.85703,-4.21149 4.92161,-6.69953 3.76474,-2.30449 7.14302,-1.34963 3.39494,0.94465 5.87278,4.99258 z m -4.51679,-0.53274 q -1.52579,-2.45521 -3.58444,-3.04995 -2.04199,-0.60494 -4.54071,0.92459 -2.51538,1.53973 -3.10709,3.94002 -0.57505,2.3901 0.57104,4.71134 z"
       id="path85354" /><path
       d="m 318.23014,201.6275 q 0.92969,2.83998 -0.83219,5.43076 -1.74331,2.5847 -5.80838,3.91544 -2.30169,0.75348 -4.40835,0.84713 -2.09417,0.069 -3.60619,-0.1553 l -1.28213,-3.91657 0.18562,-0.0608 q 2.05914,0.70285 4.32545,0.783 2.26024,0.0616 4.11643,-0.54606 2.30169,-0.75348 3.35797,-1.92131 1.05628,-1.16783 0.5337,-2.76416 -0.40104,-1.22509 -1.313,-1.62529 -0.91195,-0.4002 -3.06248,-0.18944 -0.79716,0.076 -2.07661,0.24823 -1.26088,0.16615 -2.32974,0.22833 -2.96559,0.16932 -4.57216,-0.84609 -1.59409,-1.04004 -2.2625,-3.08186 -0.41927,-1.28077 -0.2702,-2.58319 0.16763,-1.3085 0.95256,-2.55191 0.75388,-1.21269 2.18614,-2.23644 1.44475,-1.04838 3.43088,-1.69856 1.8562,-0.60765 3.90143,-0.7634 2.05772,-0.18038 3.53261,0.0561 l 1.22136,3.73095 -0.18562,0.0608 q -1.65851,-0.54628 -3.78915,-0.58864 -2.13671,-0.0609 -3.97434,0.54065 -1.91188,0.62587 -2.98673,1.79978 -1.08091,1.15534 -0.60695,2.60318 0.41927,1.28077 1.43011,1.66915 0.99228,0.39446 2.87079,0.23164 1.03814,-0.0932 2.29902,-0.25938 1.27944,-0.17223 2.13837,-0.24789 2.61391,-0.23916 4.37539,0.68444 1.76756,0.94216 2.50889,3.20672 z"
       id="path85356" /><path
       d="m 340.94731,202.16224 q -1.64618,1.19718 -3.19031,1.97834 -1.52491,0.77762 -3.34964,1.114 -2.32412,0.42844 -4.38801,0.1138 -2.06744,-0.33385 -3.70533,-1.46185 -1.6571,-1.12447 -2.81489,-3.09567 -1.1578,-1.9712 -1.67831,-4.79472 -0.97019,-5.26289 1.35858,-8.7904 2.34798,-3.53105 7.09226,-4.40564 1.84393,-0.33992 3.70663,-0.14708 1.88191,0.18931 3.49899,0.66576 l 0.74004,4.01439 -0.19208,0.0354 q -1.88909,-0.9824 -3.78366,-1.34811 -1.87536,-0.36926 -3.54642,-0.0612 -3.07322,0.56654 -4.47712,2.97026 -1.38823,2.38097 -0.65173,6.37615 0.71525,3.87994 2.82988,5.65489 2.13031,1.75221 5.28036,1.17151 1.09483,-0.20183 2.17497,-0.69885 1.08013,-0.49703 1.89791,-1.12443 0.71315,-0.54853 1.32319,-1.11778 0.60649,-0.58845 0.94966,-0.98934 l 0.19207,-0.0354 z"
       id="path85358" /><path
       d="m 364.07146,191.44882 q 0.20349,5.32815 -2.41112,8.51619 -2.61461,3.18805 -7.20111,3.36322 -4.62553,0.17666 -7.47569,-2.80267 -2.83064,-2.98008 -3.03413,-8.30823 -0.2035,-5.32814 2.39159,-8.51544 2.61387,-3.20757 7.2394,-3.38423 4.5865,-0.17517 7.4374,2.82368 2.85016,2.97933 3.05366,8.30748 z m -3.78631,0.14461 q -0.16175,-4.23519 -1.89896,-6.22112 -1.73796,-2.00545 -4.68503,-1.89289 -2.98611,0.11405 -4.56604,2.24621 -1.56116,2.1119 -1.39941,6.34709 0.15653,4.09858 1.89673,6.16257 1.73945,2.04448 4.70604,1.93118 2.92755,-0.11181 4.50674,-2.26349 1.59796,-2.17194 1.43993,-6.30955 z"
       id="path85360" /><path
       d="m 385.37175,186.34613 -0.19449,-0.018 q -0.79886,-0.26996 -1.56961,-0.41963 -0.7495,-0.16733 -1.79971,-0.26437 -1.69202,-0.15634 -3.33742,0.45659 -1.64361,0.59348 -3.21186,1.64506 l -1.42503,15.42258 -3.6563,-0.33783 2.00727,-21.72387 3.6563,0.33784 -0.29651,3.20898 q 2.33995,-1.54909 4.05956,-2.11593 1.74085,-0.5845 3.47175,-0.42456 0.95298,0.088 1.37545,0.18593 0.42427,0.0784 1.26742,0.29364 z"
       id="path85362" /><path
       d="M 407.29812,198.40486 391.6192,194.862 q -0.44339,1.96225 -0.18429,3.56262 0.26342,1.58132 1.08123,2.74728 0.78402,1.13829 2.03332,1.90116 1.26835,0.76717 2.90673,1.13738 2.17181,0.49075 4.55639,0.12851 2.40793,-0.37699 3.53083,-1.00429 l 0.19051,0.043 -0.88248,3.90544 q -1.98203,0.35308 -3.98431,0.44128 -2.00227,0.0882 -4.07882,-0.38103 -5.29616,-1.19674 -7.62239,-4.72593 -2.32192,-3.54824 -1.12949,-8.82535 1.17952,-5.21996 4.71119,-7.64574 3.55071,-2.42148 8.19914,-1.37111 4.30552,0.97289 6.06149,4.0128 1.77503,3.04422 0.72897,7.6736 z m -2.86642,-3.53111 q 0.61806,-2.82385 -0.44302,-4.68553 -1.04203,-1.85738 -3.89967,-2.5031 -2.87669,-0.65003 -4.97441,0.65807 -2.07866,1.31241 -2.87551,3.77548 z"
       id="path85364" /><path
       d="m 419.27816,207.94543 -9.51172,10.17464 -2.68336,-0.96489 7.52678,-10.8884 z"
       id="path85366" /><path
       d="m 446.27081,227.65005 q -1.03084,-0.28931 -2.18048,-0.76184 -1.1328,-0.46262 -1.95763,-0.94797 -2.87848,-1.69379 -3.46536,-4.12401 -0.58688,-2.43021 1.42387,-5.84736 l 5.88367,-9.99893 -2.13782,-1.25795 1.56502,-2.65965 2.13782,1.25795 3.17956,-5.40346 3.16465,1.86217 -3.17956,5.40347 6.53128,3.84321 -1.56501,2.65964 -6.53129,-3.8432 -5.04174,8.5681 q -0.87165,1.48133 -1.29958,2.36261 -0.41802,0.86445 -0.43994,1.826 -0.0259,0.89124 0.42558,1.58747 0.47821,0.6893 1.80803,1.47181 0.77433,0.45564 1.74476,0.73206 0.98033,0.2596 1.43981,0.32601 l 0.16833,0.0991 z"
       id="path85368" /><path
       d="m 464.31575,241.429 -2.89646,-2.25681 7.63474,-9.79866 q 0.92433,-1.18632 1.58996,-2.3266 0.67763,-1.1557 0.76403,-2.02926 0.11902,-0.94718 -0.36501,-1.81952 -0.47203,-0.88774 -1.62753,-1.78807 -1.18632,-0.92433 -2.93664,-1.34723 -1.75033,-0.42291 -3.6449,-0.43825 l -10.01159,12.84919 -2.89646,-2.25681 18.6787,-23.97282 2.89646,2.2568 -6.75842,8.67398 q 2.2321,-0.0683 4.17251,0.42842 1.9404,0.49673 3.46567,1.68515 2.78861,2.17278 2.94378,4.99252 0.15516,2.81974 -2.30572,5.97811 z"
       id="path85370" /><path
       d="m 490.02268,230.99546 -2.95486,-2.90061 2.66801,-2.71792 2.95487,2.90061 z m -18.00874,18.01104 -2.62035,-2.57224 15.28293,-15.56881 2.62035,2.57224 z"
       id="path85372" /><path
       d="m 491.93382,262.12906 q -2.29541,1.91335 -5.35388,1.23356 -3.04597,-0.66479 -5.78469,-3.95037 -1.55069,-1.86033 -2.4162,-3.78327 -0.83799,-1.92045 -1.18829,-3.40833 l 3.16556,-2.63868 0.12506,0.15003 q 0.10782,2.17311 0.87082,4.30863 0.77801,2.123 2.02856,3.62327 1.5507,1.86033 3.02619,2.41029 1.4755,0.54997 2.76573,-0.52551 0.99018,-0.82537 1.02506,-1.82066 0.0349,-0.99529 -0.95567,-2.91572 -0.36519,-0.71265 -0.99803,-1.83789 -0.62032,-1.11024 -1.07308,-2.08046 -1.25322,-2.69311 -0.90336,-4.56119 0.37736,-1.86559 2.02765,-3.24121 1.03518,-0.86288 2.3005,-1.20565 1.27783,-0.32776 2.72328,-0.0579 1.40544,0.25239 2.88599,1.20497 1.50806,0.95507 2.84616,2.56036 1.25056,1.50027 2.15106,3.34318 0.92801,1.84541 1.2533,3.30328 l -3.01554,2.51363 -0.12505,-0.15003 q -0.10526,-1.74299 -0.85324,-3.73846 -0.73298,-2.00798 -1.97103,-3.49325 -1.28808,-1.54527 -2.77608,-2.11024 -1.473,-0.57747 -2.64321,0.39797 -1.03518,0.86288 -1.02254,1.94569 1.4e-4,1.06781 0.84561,2.75318 0.47026,0.93021 1.09059,2.04045 0.63283,1.12524 1.02054,1.89541 1.18815,2.34051 0.98085,4.31861 -0.2223,1.9906 -2.05262,3.51629 z"
       id="path85374" /><path
       d="m 515.76149,294.09177 q -4.76625,2.39028 -8.75052,1.32944 -3.98427,-1.06084 -6.04184,-5.16365 -2.07508,-4.13774 -0.54238,-7.96535 1.54146,-3.81016 6.30771,-6.20044 4.76624,-2.39028 8.74176,-1.3469 4.00173,1.05209 6.07681,5.18982 2.05757,4.10281 0.50741,7.93919 -1.5327,3.82761 -6.29895,6.21789 z m -1.69859,-3.387 q 3.78856,-1.89997 4.8775,-4.3033 1.10641,-2.41209 -0.21569,-5.04837 -1.33961,-2.67119 -3.93447,-3.2271 -2.56864,-0.54719 -6.3572,1.35277 -3.66634,1.83868 -4.82512,4.27704 -1.14132,2.4296 0.18953,5.08334 1.31334,2.61881 3.92566,3.16596 2.63853,0.55585 6.33979,-1.30034 z"
       id="path85376" /><path
       d="m 513.63729,321.68408 -1.1141,-3.49878 11.83628,-3.769 q 1.43301,-0.45631 2.62658,-1.02086 1.21218,-0.57047 1.77715,-1.24231 0.63349,-0.71416 0.72717,-1.70738 0.11229,-0.99914 -0.33216,-2.39493 -0.45631,-1.43301 -1.66131,-2.7711 -1.20499,-1.33809 -2.75932,-2.42146 l -15.52116,4.94238 -1.11411,-3.49878 20.78794,-6.61946 1.11411,3.49878 -2.30771,0.73483 q 1.88007,1.20512 3.20015,2.71154 1.32009,1.50642 1.90677,3.34886 1.07263,3.3685 -0.39294,5.78244 -1.46556,2.41395 -5.28072,3.6288 z"
       id="path85378" /><path
       d="m 528.37816,345.05464 -2.44987,-15.88643 q -1.98822,0.30661 -3.38228,1.13421 -1.37475,0.82463 -2.15986,2.01286 -0.77175,1.14664 -1.02368,2.5886 -0.24894,1.46127 0.007,3.12133 0.33935,2.20055 1.55031,4.28645 1.23325,2.10223 2.22845,2.9171 l 0.0298,0.19303 -3.95713,0.61024 q -1.05491,-1.71472 -1.87079,-3.54536 -0.81589,-1.83063 -1.14035,-3.93466 -0.82754,-5.36626 1.60354,-8.82405 2.45039,-3.46077 7.79734,-4.28533 5.28905,-0.81564 8.84038,1.58126 3.55431,2.4162 4.28064,7.12615 0.67275,4.3625 -1.5121,7.11041 -2.18186,2.76721 -6.87251,3.49056 z m 2.2349,-3.96112 q 2.85387,-0.45986 4.19714,-2.12941 1.34625,-1.65024 0.89973,-4.5457 -0.44949,-2.91476 -2.43537,-4.38711 -1.9829,-1.45304 -4.56663,-1.29174 z"
       id="path85380" /></g></g><g
   inkscape:groupmode="layer"
   id="layer3"
   inkscape:label="blue"
   style="display:none"><g
     id="g1540"
     style="display:inline">
	<linearGradient
   id="path3302_6_"
   gradientUnits="userSpaceOnUse"
   x1="344.70001"
   y1="297.9892"
   x2="383.89999"
   y2="297.9892">
		<stop
   offset="0.3541"
   style="stop-color:#004C99"
   id="stop1480" />
		<stop
   offset="0.7081"
   style="stop-color:#003D7C"
   id="stop1482" />
	</linearGradient>
	<path
   id="path3302_1_"
   class="st41"
   d="m 344.7,236 c 17.5,-6.4 24.1,5.5 39.2,2.4 l -25.6,123.5 z" />
	<linearGradient
   id="path3304_6_"
   gradientUnits="userSpaceOnUse"
   x1="361"
   y1="304"
   x2="454.89999"
   y2="304">
		<stop
   offset="0.3541"
   style="stop-color:#004C99"
   id="stop1486" />
		<stop
   offset="0.7081"
   style="stop-color:#003D7C"
   id="stop1488" />
	</linearGradient>
	<path
   id="path3304_1_"
   class="st42"
   d="m 424.4,248.8 c 17.9,5 16.5,19.1 30.5,25.4 l -93.9,85 z" />
	<linearGradient
   id="path3306_6_"
   gradientUnits="userSpaceOnUse"
   x1="360.89999"
   y1="333.45001"
   x2="487.10001"
   y2="333.45001">
		<stop
   offset="0.3541"
   style="stop-color:#004C99"
   id="stop1492" />
		<stop
   offset="0.7081"
   style="stop-color:#003D7C"
   id="stop1494" />
	</linearGradient>
	<path
   id="path3306_1_"
   class="st43"
   d="m 476.4,307.5 c 11.6,14.5 3.1,24.6 10.7,37.8 l -126.2,14.1 z" />
	<linearGradient
   id="path3310_6_"
   gradientUnits="userSpaceOnUse"
   x1="360.70001"
   y1="390.45001"
   x2="485.23489"
   y2="390.45001">
		<stop
   offset="0.3541"
   style="stop-color:#004C99"
   id="stop1498" />
		<stop
   offset="0.7081"
   style="stop-color:#003D7C"
   id="stop1500" />
	</linearGradient>
	<path
   id="path3310_1_"
   class="st44"
   d="m 485.2,384.7 c 0.8,18.5 -12.4,21.8 -14.1,36.9 L 360.7,359.3 Z" />
	<linearGradient
   id="path3312_6_"
   gradientUnits="userSpaceOnUse"
   x1="360.5"
   y1="416.70001"
   x2="445.89999"
   y2="416.70001">
		<stop
   offset="0.3541"
   style="stop-color:#004C99"
   id="stop1504" />
		<stop
   offset="0.7081"
   style="stop-color:#003D7C"
   id="stop1506" />
	</linearGradient>
	<path
   id="path3312_1_"
   class="st45"
   d="m 445.9,452.1 c -10.3,15.4 -22.7,10.7 -33,22 L 360.5,359.3 Z" />
	<linearGradient
   id="path3314_6_"
   gradientUnits="userSpaceOnUse"
   x1="334.89999"
   y1="423.3143"
   x2="374.5"
   y2="423.3143">
		<stop
   offset="0.3541"
   style="stop-color:#004C99"
   id="stop1510" />
		<stop
   offset="0.7081"
   style="stop-color:#003D7C"
   id="stop1512" />
	</linearGradient>
	<path
   id="path3314_1_"
   class="st46"
   d="m 374.5,485.8 c -17.5,6.4 -24.6,-6.3 -39.6,-3.2 L 360.5,359 Z" />
	<linearGradient
   id="path3316_6_"
   gradientUnits="userSpaceOnUse"
   x1="266.70001"
   y1="414.14999"
   x2="360.5"
   y2="414.14999">
		<stop
   offset="0.3541"
   style="stop-color:#004C99"
   id="stop1516" />
		<stop
   offset="0.7081"
   style="stop-color:#003D7C"
   id="stop1518" />
	</linearGradient>
	<path
   id="path3316_1_"
   class="st47"
   d="m 296.9,469.4 c -17.9,-5 -16.2,-19.2 -30.2,-25.5 l 93.8,-85 z" />
	<linearGradient
   id="path3318_6_"
   gradientUnits="userSpaceOnUse"
   x1="234.5"
   y1="384.5"
   x2="360.70001"
   y2="384.5">
		<stop
   offset="0.3541"
   style="stop-color:#004C99"
   id="stop1522" />
		<stop
   offset="0.7081"
   style="stop-color:#003D7C"
   id="stop1524" />
	</linearGradient>
	<path
   id="path3318_1_"
   class="st48"
   d="M 245.6,410.3 C 234,395.8 242.1,385.9 234.5,372.7 l 126.2,-14 z" />
	<linearGradient
   id="path3320_6_"
   gradientUnits="userSpaceOnUse"
   x1="236.66431"
   y1="327.45001"
   x2="360.89999"
   y2="327.45001">
		<stop
   offset="0.3541"
   style="stop-color:#004C99"
   id="stop1528" />
		<stop
   offset="0.7081"
   style="stop-color:#003D7C"
   id="stop1530" />
	</linearGradient>
	<path
   id="path3320_1_"
   class="st49"
   d="m 236.7,333.6 c -0.8,-18.5 12.1,-22.1 13.8,-37.3 l 110.4,62.3 z" />
	<linearGradient
   id="path3322_6_"
   gradientUnits="userSpaceOnUse"
   x1="274.79999"
   y1="301.29999"
   x2="361.10001"
   y2="301.29999">
		<stop
   offset="0.3541"
   style="stop-color:#004C99"
   id="stop1534" />
		<stop
   offset="0.7081"
   style="stop-color:#003D7C"
   id="stop1536" />
	</linearGradient>
	<path
   id="path3322_1_"
   class="st50"
   d="m 274.8,265.5 c 10.3,-15.4 23.5,-10.3 33.8,-21.6 l 52.5,114.8 z" />
</g><g
     id="g1602"
     style="display:inline">
	<linearGradient
   id="path3308_6_"
   gradientUnits="userSpaceOnUse"
   x1="374.64999"
   y1="373.35001"
   x2="464.49081"
   y2="283.50909">
		<stop
   offset="0.3541"
   style="stop-color:#004C99"
   id="stop1542" />
		<stop
   offset="0.7081"
   style="stop-color:#003D7C"
   id="stop1544" />
	</linearGradient>
	<path
   id="path3308_1_"
   class="st51"
   d="m 446,266 c 15.5,10.3 19.2,31.2 30.5,41.5 l -115.6,52.1 z" />
	<linearGradient
   id="path3324_6_"
   gradientUnits="userSpaceOnUse"
   x1="317.85001"
   y1="316.14999"
   x2="373.45001"
   y2="260.54999">
		<stop
   offset="0.3541"
   style="stop-color:#004C99"
   id="stop1548" />
		<stop
   offset="0.7081"
   style="stop-color:#003D7C"
   id="stop1550" />
	</linearGradient>
	<path
   id="path3324_1_"
   class="st52"
   d="m 297.7,250 c 14.6,-11.5 35.9,-8.4 49.2,-16 L 361,359.3 Z" />
	<linearGradient
   id="path3326_6_"
   gradientUnits="userSpaceOnUse"
   x1="333.02499"
   y1="331.52499"
   x2="419.22501"
   y2="245.325">
		<stop
   offset="0.3541"
   style="stop-color:#004C99"
   id="stop1554" />
		<stop
   offset="0.7081"
   style="stop-color:#003D7C"
   id="stop1556" />
	</linearGradient>
	<path
   id="path3326_1_"
   class="st53"
   d="m 374.5,234.1 c 18.6,-0.8 34,14.1 49.3,15.8 L 361,359.5 Z" />
	<linearGradient
   id="path3328_6_"
   gradientUnits="userSpaceOnUse"
   x1="398.14999"
   y1="397.25"
   x2="473.39999"
   y2="322">
		<stop
   offset="0.3541"
   style="stop-color:#004C99"
   id="stop1560" />
		<stop
   offset="0.7081"
   style="stop-color:#003D7C"
   id="stop1562" />
	</linearGradient>
	<path
   id="path3328_1_"
   class="st54"
   d="m 485.2,333.8 c 6.5,17.3 -3.2,36.4 -0.1,51.4 L 360.7,359.8 Z" />
	<linearGradient
   id="path3330_6_"
   gradientUnits="userSpaceOnUse"
   x1="401.39999"
   y1="408.10001"
   x2="437.35001"
   y2="372.14999">
		<stop
   offset="0.3541"
   style="stop-color:#004C99"
   id="stop1566" />
		<stop
   offset="0.7081"
   style="stop-color:#003D7C"
   id="stop1568" />
	</linearGradient>
	<path
   id="path3330_1_"
   class="st55"
   d="m 476.4,411.2 c -5,17.8 -24,27.8 -30.3,41.6 l -85.6,-93.2 z" />
	<linearGradient
   id="path3332_6_"
   gradientUnits="userSpaceOnUse"
   x1="347.92499"
   y1="458.22501"
   x2="403.47501"
   y2="402.67499">
		<stop
   offset="0.3541"
   style="stop-color:#004C99"
   id="stop1572" />
		<stop
   offset="0.7081"
   style="stop-color:#003D7C"
   id="stop1574" />
	</linearGradient>
	<path
   id="path3332_1_"
   class="st56"
   d="m 423.7,468.8 c -14.6,11.5 -35.9,8.4 -49.2,16 L 360.3,359.5 Z" />
	<linearGradient
   id="path3334_6_"
   gradientUnits="userSpaceOnUse"
   x1="302.125"
   y1="473.42499"
   x2="388.32501"
   y2="387.22501">
		<stop
   offset="0.3541"
   style="stop-color:#004C99"
   id="stop1578" />
		<stop
   offset="0.7081"
   style="stop-color:#003D7C"
   id="stop1580" />
	</linearGradient>
	<path
   id="path3334_1_"
   class="st57"
   d="m 346.9,484.7 c -18.6,0.8 -34,-14.1 -49.3,-15.8 l 62.7,-109.7 z" />
	<linearGradient
   id="path3336_6_"
   gradientUnits="userSpaceOnUse"
   x1="256.90909"
   y1="435.1908"
   x2="346.75"
   y2="345.35001">
		<stop
   offset="0.3541"
   style="stop-color:#004C99"
   id="stop1584" />
		<stop
   offset="0.7081"
   style="stop-color:#003D7C"
   id="stop1586" />
	</linearGradient>
	<path
   id="path3336_1_"
   class="st58"
   d="M 275.4,452.7 C 259.9,442.4 256.2,421.5 244.9,411.2 L 360.5,359.1 Z" />
	<linearGradient
   id="path3338_6_"
   gradientUnits="userSpaceOnUse"
   x1="248.10001"
   y1="396.79999"
   x2="323.25"
   y2="321.64999">
		<stop
   offset="0.3541"
   style="stop-color:#004C99"
   id="stop1590" />
		<stop
   offset="0.7081"
   style="stop-color:#003D7C"
   id="stop1592" />
	</linearGradient>
	<path
   id="path3338_1_"
   class="st59"
   d="m 236.4,385.1 c -6.5,-17.3 3,-36.5 -0.1,-51.4 l 124.4,25.4 z" />
	<linearGradient
   id="path3340_6_"
   gradientUnits="userSpaceOnUse"
   x1="283.95001"
   y1="346.64999"
   x2="319.89999"
   y2="310.70001">
		<stop
   offset="0.3541"
   style="stop-color:#004C99"
   id="stop1596" />
		<stop
   offset="0.7081"
   style="stop-color:#003D7C"
   id="stop1598" />
	</linearGradient>
	<path
   id="path3340_1_"
   class="st60"
   d="m 244.9,307.6 c 5,-17.8 24,-27.8 30.3,-41.6 l 85.6,93.2 z" />
</g><g
     id="path3912_1_"
     class="st20"
     style="display:inline">
	<g
   id="g1616">
		<g
   id="g1612">
			<g
   id="g1606">
				<path
   class="st61"
   d="m 425.1,360.8 c 0,35.2 -28.8,63.8 -64.3,63.8 -35.5,0 -64.3,-28.6 -64.3,-63.8 0,-35.2 28.8,-63.8 64.3,-63.8 35.5,0 64.3,28.6 64.3,63.8 z"
   id="path1604" />
			</g>
			<g
   class="st62"
   id="g1610">
				<path
   class="st61"
   d="m 425.1,360.8 c 0,35.2 -28.8,63.8 -64.3,63.8 -35.5,0 -64.3,-28.6 -64.3,-63.8 0,-35.2 28.8,-63.8 64.3,-63.8 35.5,0 64.3,28.6 64.3,63.8 z"
   id="path1608" />
			</g>
		</g>
		<path
   class="st61"
   d="m 425.1,360.8 c 0,35.2 -28.8,63.8 -64.3,63.8 -35.5,0 -64.3,-28.6 -64.3,-63.8 0,-35.2 28.8,-63.8 64.3,-63.8 35.5,0 64.3,28.6 64.3,63.8 z"
   id="path1614" />
	</g>
	<g
   class="st62"
   id="g1620">
		<path
   class="st61"
   d="m 425.1,360.8 c 0,35.2 -28.8,63.8 -64.3,63.8 -35.5,0 -64.3,-28.6 -64.3,-63.8 0,-35.2 28.8,-63.8 64.3,-63.8 35.5,0 64.3,28.6 64.3,63.8 z"
   id="path1618" />
	</g>
</g><path
     id="path15964"
     style="fill-opacity:0;fill-rule:evenodd;stroke:#000000;stroke-width:2.007;stroke-linecap:round;paint-order:fill markers stroke"
     d="m 280.9423,363.33669 a 79.79641,79.79641 0 0 1 76.53017,-82.46446 79.79641,79.79641 0 0 1 82.92974,76.02572 79.79641,79.79641 0 0 1 -75.51844,83.39195 79.79641,79.79641 0 0 1 -83.85105,-75.00836" /><g
     aria-label="antarctic program (3)"
     id="text17098"
     style="font-size:13.3333px;line-height:1.25;-inkscape-font-specification:'sans-serif, Normal';fill:#000000;fill-opacity:1"><path
       d="m 281.29864,351.00726 -0.12072,2.18808 -1.39241,-0.0768 q 0.18277,0.3035 0.51774,0.82665 0.32392,0.51081 0.50871,0.99047 0.23879,0.56479 0.37492,1.28823 0.14784,0.72409 0.0949,1.68357 -0.0975,1.76684 -1.33536,2.93089 -1.23788,1.16404 -3.05153,1.06398 -1.48602,-0.082 -2.36383,-0.76419 -0.88887,-0.69455 -1.35021,-1.9054 -0.4607,-1.22255 -0.5556,-2.90611 -0.0949,-1.68357 -0.0826,-3.60769 l -0.33933,-0.0187 q -0.74886,-0.0413 -1.25515,0.20069 -0.50564,0.23031 -0.81358,0.70625 -0.29494,0.45319 -0.4247,1.10328 -0.12976,0.65009 -0.16914,1.36385 -0.0478,0.86587 0.1275,1.94357 0.16357,1.07705 0.53389,2.23593 l -0.006,0.11701 -2.23488,-0.1233 q -0.14001,-0.65324 -0.28349,-1.88176 -0.14348,-1.22852 -0.0783,-2.41031 0.0762,-1.38072 0.36635,-2.38579 0.27913,-1.01742 0.87039,-1.73594 0.57892,-0.70746 1.45439,-1.04647 0.87547,-0.339 2.13918,-0.26928 z m -3.33848,2.01055 -3.639,-0.20077 q 0.003,1.00951 0.0445,2.38498 0.0421,1.36377 0.22054,2.1717 0.21683,0.96262 0.7579,1.5793 0.52937,0.61604 1.52395,0.67091 1.12329,0.062 1.73408,-0.58505 0.59909,-0.64767 0.67591,-2.04008 0.0639,-1.1584 -0.32779,-2.1424 -0.4034,-0.98466 -0.99006,-1.83859 z"
       style="font-size:24px;fill:#000000;fill-opacity:1"
       id="path67852" /><path
       d="m 284.5095,336.15395 -0.5259,2.13943 -7.23767,-1.77909 q -0.87626,-0.21539 -1.66389,-0.30039 -0.79902,-0.0878 -1.29859,0.079 -0.5479,0.16702 -0.90697,0.64593 -0.37045,0.47611 -0.58025,1.32961 -0.2154,0.87626 -0.0179,1.93848 0.19747,1.06222 0.65349,2.10352 l 9.49091,2.33296 -0.52589,2.13944 -12.71145,-3.12461 0.52589,-2.13943 1.41112,0.34686 q -0.58457,-1.20564 -0.7882,-2.39005 -0.20364,-1.18441 0.0733,-2.31103 0.50631,-2.05977 2.01248,-2.83596 1.50616,-0.7762 3.83906,-0.20275 z"
       style="font-size:24px;fill:#000000;fill-opacity:1"
       id="path67854" /><path
       d="m 288.57815,325.87123 q -0.0885,0.63627 -0.27635,1.35801 -0.1833,0.71093 -0.40506,1.2406 -0.77388,1.84844 -2.17114,2.39414 -1.39727,0.5457 -3.59162,-0.37299 l -6.42092,-2.68822 -0.57475,1.37282 -1.70792,-0.71504 0.57475,-1.37282 -3.46989,-1.45273 0.85082,-2.0322 3.46989,1.45272 1.75594,-4.19414 1.70792,0.71505 -1.75594,4.19413 5.5021,2.30354 q 0.95124,0.39825 1.50983,0.5813 0.54777,0.17851 1.1212,0.11368 0.53195,-0.0568 0.9093,-0.38156 0.37108,-0.34012 0.7286,-1.19408 0.20818,-0.49724 0.29393,-1.09656 0.075,-0.60384 0.0772,-0.88238 l 0.0453,-0.10809 z"
       style="font-size:24px;fill:#000000;fill-opacity:1"
       id="path67856" /><path
       d="m 295.13337,314.81525 -1.13849,1.87246 -1.19157,-0.7245 q 0.018,0.35382 0.0666,0.97312 0.0447,0.6032 -0.0186,1.11331 -0.0558,0.61065 -0.27703,1.31277 -0.21117,0.70822 -0.71041,1.52929 -0.91932,1.51198 -2.55989,1.95454 -1.64058,0.44256 -3.19261,-0.50112 -1.27167,-0.7732 -1.72393,-1.78879 -0.45618,-1.0317 -0.29186,-2.31699 0.17041,-1.29531 0.88081,-2.8246 0.71041,-1.52929 1.62877,-3.22014 l -0.29038,-0.17656 q -0.64084,-0.38965 -1.20142,-0.41505 -0.55449,-0.0354 -1.05051,0.23901 -0.47383,0.2605 -0.89488,0.77253 -0.42104,0.51203 -0.79243,1.12283 -0.45052,0.74097 -0.80429,1.77393 -0.36378,1.02687 -0.58385,2.22341 l -0.0609,0.10013 -1.91251,-1.16285 q 0.18466,-0.64205 0.63759,-1.793 0.45294,-1.15095 1.06785,-2.16228 0.71842,-1.18155 1.44835,-1.93093 0.72602,-0.76547 1.58628,-1.12017 0.84416,-0.35077 1.77603,-0.23676 0.93187,0.11401 2.01329,0.77154 z m -3.8921,0.19819 -3.11408,-1.89343 q -0.47353,0.89157 -1.08572,2.12398 -0.6061,1.22241 -0.82985,2.01898 -0.26284,0.95109 -0.0766,1.75007 0.17622,0.79289 1.02733,1.31039 0.96126,0.58447 1.80502,0.30203 0.83375,-0.28853 1.55825,-1.48009 0.60273,-0.9913 0.72147,-2.04373 0.10872,-1.05851 -0.006,-2.0882 z"
       style="font-size:24px;fill:#000000;fill-opacity:1"
       id="path67858" /><path
       d="m 294.84384,298.32658 -0.0755,0.0896 q -0.40677,0.30087 -0.74467,0.62912 -0.33931,0.31173 -0.74709,0.79565 -0.65696,0.77964 -0.91913,1.80001 -0.27113,1.01282 -0.29083,2.14556 l 7.10637,5.98822 -1.41966,1.68474 -10.00985,-8.43486 1.41965,-1.68474 1.47863,1.24597 q 0.0392,-1.68329 0.34952,-2.72441 0.30888,-1.05763 0.98095,-1.85519 0.37002,-0.43911 0.56303,-0.6136 0.18406,-0.18205 0.57904,-0.52349 z"
       style="font-size:24px;fill:#000000;fill-opacity:1"
       id="path67860" /><path
       d="m 311.20318,296.71281 q -0.47047,1.12702 -1.01837,2.00898 -0.53916,0.87414 -1.36959,1.61561 -1.05771,0.9444 -2.21377,1.42675 -1.16385,0.4736 -2.35519,0.40618 -1.20008,-0.0596 -2.40828,-0.70898 -1.2082,-0.64936 -2.35552,-1.93435 -2.13855,-2.39514 -2.04491,-4.92954 0.10239,-2.54221 2.26152,-4.47002 0.83917,-0.74928 1.85411,-1.23131 1.02369,-0.48984 2.00117,-0.74991 l 1.63123,1.82696 -0.0874,0.078 q -1.27469,0.0856 -2.35987,0.48891 -1.07645,0.39556 -1.83695,1.07459 -1.39863,1.24878 -1.36865,2.91872 0.0309,1.65338 1.65435,3.47159 1.57659,1.76577 3.21405,2.01614 1.6384,0.23382 3.072,-1.04619 0.49826,-0.44488 0.89693,-1.03649 0.39866,-0.59161 0.62219,-1.16824 0.1945,-0.50357 0.32967,-0.9856 0.12738,-0.49077 0.17826,-0.80328 l 0.0874,-0.0781 z"
       style="font-size:24px;fill:#000000;fill-opacity:1"
       id="path67862" /><path
       d="m 319.69181,291.86162 q -0.42401,0.48258 -0.97798,0.98188 -0.54424,0.49277 -1.02085,0.81303 -1.66329,1.11764 -3.13028,0.80447 -1.46699,-0.31317 -2.79378,-2.28771 l -3.88234,-5.77773 -1.2353,0.83006 -1.03268,-1.53683 1.23531,-0.83007 -2.09803,-3.1223 1.82864,-1.22875 2.09803,3.1223 3.774,-2.53593 1.03268,1.53683 -3.77401,2.53594 3.32679,4.95095 q 0.57516,0.85596 0.94086,1.31615 0.35917,0.45047 0.87366,0.71186 0.47542,0.24529 0.96922,0.18173 0.497,-0.0798 1.26541,-0.59616 0.44744,-0.30065 0.84881,-0.75389 0.39484,-0.46297 0.55001,-0.69431 l 0.0973,-0.0654 z"
       style="font-size:24px;fill:#000000;fill-opacity:1"
       id="path67864" /><path
       d="m 317.00361,276.1279 -2.19094,1.17127 -1.07735,-2.01526 2.19094,-1.17127 z m 7.08041,13.54268 -1.94291,1.03867 -6.17128,-11.5438 1.94292,-1.03868 z"
       style="font-size:24px;fill:#000000;fill-opacity:1"
       id="path67866" /><path
       d="m 336.69891,283.41518 q -0.83581,0.89048 -1.65818,1.5243 -0.81146,0.62958 -1.84917,1.03276 -1.32171,0.51352 -2.5735,0.55985 -1.25603,0.0354 -2.34808,-0.4455 -1.10296,-0.47666 -2.00673,-1.50846 -0.90377,-1.0318 -1.52764,-2.63752 -1.16285,-2.99297 -0.18643,-5.3336 0.98735,-2.34487 3.68539,-3.39314 1.04864,-0.40742 2.16816,-0.50294 1.13046,-0.0998 2.13706,-5.4e-4 l 0.887,2.28296 -0.10923,0.0424 q -1.22375,-0.36688 -2.38148,-0.36967 -1.1468,-0.007 -2.09712,0.3622 -1.74772,0.67904 -2.30523,2.25344 -0.55084,1.55924 0.33192,3.83127 0.85728,2.2065 2.30297,3.01518 1.45237,0.79351 3.24379,0.0975 0.62262,-0.24191 1.20343,-0.65615 0.58082,-0.41425 0.99235,-0.87587 0.35873,-0.40339 0.65436,-0.80741 0.29138,-0.41495 0.44862,-0.68977 l 0.10923,-0.0424 z"
       style="font-size:24px;fill:#000000;fill-opacity:1"
       id="path67868" /><path
       d="m 358.85482,273.90247 q 0.14689,1.58697 -0.18614,2.94767 -0.33411,1.34904 -1.07835,2.3359 -0.69021,0.93479 -1.69613,1.51042 -0.99532,0.56289 -2.16221,0.6709 -1.01519,0.094 -1.8642,-0.0511 -0.83734,-0.1461 -1.73238,-0.534 l 0.5055,5.46103 -2.19374,0.20306 -1.65152,-17.84169 2.19375,-0.20307 0.12637,1.36526 q 0.80712,-0.81615 1.84696,-1.40669 1.05043,-0.6033 2.28733,-0.71779 2.35711,-0.21819 3.82928,1.44618 1.48276,1.65161 1.77548,4.81387 z m -2.25836,0.26789 q -0.21819,-2.35711 -1.13135,-3.44947 -0.91317,-1.09235 -2.58182,-0.9379 -0.94517,0.0875 -1.86422,0.58448 -0.91904,0.49698 -1.73264,1.24311 l 0.68372,7.38639 q 0.9724,0.33367 1.65157,0.4238 0.69083,0.089 1.54266,0.0102 1.83201,-0.16958 2.74438,-1.50153 0.91236,-1.33195 0.6877,-3.75908 z"
       style="font-size:24px;fill:#000000;fill-opacity:1"
       id="path67870" /><path
       d="m 371.75842,270.63625 -0.11695,-0.007 q -0.4837,-0.14836 -0.94851,-0.22505 -0.45236,-0.0876 -1.08388,-0.12801 -1.01745,-0.0651 -1.9939,0.33047 -0.9757,0.38384 -1.89843,1.04115 l -0.59297,9.27403 -2.19863,-0.14058 0.83524,-13.06317 2.19863,0.14058 -0.12338,1.92965 q 1.37713,-0.96879 2.39886,-1.33794 1.03417,-0.3801 2.07502,-0.31355 0.57304,0.0366 0.82809,0.0882 0.25579,0.0398 0.76513,0.1546 z"
       style="font-size:24px;fill:#000000;fill-opacity:1"
       id="path67872" /><path
       d="m 385.46126,277.65371 q -0.69752,3.12226 -2.70236,4.57158 -2.00485,1.44932 -4.69251,0.84889 -2.71052,-0.60553 -3.90799,-2.77025 -1.18603,-2.16216 -0.48852,-5.28442 0.69752,-3.12225 2.69093,-4.57413 2.0074,-1.46076 4.71793,-0.85522 2.68765,0.60042 3.88256,2.77658 1.19747,2.16472 0.49996,5.28697 z m -2.21875,-0.49567 q 0.55443,-2.48179 -0.14942,-3.89983 -0.7013,-1.42948 -2.42826,-1.81528 -1.74984,-0.39092 -2.9928,0.60421 -1.22897,0.98625 -1.7834,3.46804 -0.53655,2.40173 0.15708,3.86552 0.6962,1.45236 2.43459,1.84072 1.71553,0.38324 2.96104,-0.62332 1.25951,-1.01545 1.80117,-3.44006 z"
       style="font-size:24px;fill:#000000;fill-opacity:1"
       id="path67874" /><path
       d="m 397.6274,287.98454 q -1.31423,3.05766 -3.31855,3.89263 -2.00433,0.83498 -4.88972,-0.40521 -0.95821,-0.41185 -1.81319,-0.94515 -0.84885,-0.51791 -1.62525,-1.145 l 0.88848,-2.06714 0.10767,0.0463 q 0.41196,0.40666 1.36828,1.14935 0.95169,0.75344 2.02833,1.2162 1.03357,0.44424 1.81829,0.48815 0.78471,0.0439 1.35127,-0.23555 0.55729,-0.25792 0.9733,-0.78066 0.41601,-0.52274 0.73069,-1.25485 l 0.47201,-1.09817 q -1.22982,0.33877 -2.22693,0.34388 -0.98172,-0.001 -2.27369,-0.55634 -2.15327,-0.92551 -2.75734,-3.02192 -0.58867,-2.10254 0.62837,-4.9341 0.66637,-1.55036 1.57829,-2.48496 0.92731,-0.94074 2.03265,-1.43506 1.02837,-0.46362 2.21012,-0.45315 1.18637,-2.9e-4 2.17688,0.42544 1.04434,0.44887 1.6516,0.96499 0.62266,0.50998 1.22351,1.27845 l 0.35131,-0.46126 1.89489,0.81445 z m -1.19112,-2.80792 2.81817,-6.55673 q -0.65014,-0.71312 -1.28517,-1.16464 -0.61964,-0.45766 -1.30868,-0.75382 -1.66879,-0.71727 -3.10826,-0.009 -1.43948,0.70785 -2.35573,2.8396 -0.86998,2.02407 -0.60827,3.37383 0.26171,1.34976 1.90897,2.05777 0.88284,0.37946 1.90914,0.42516 1.04169,0.0396 2.02983,-0.21175 z"
       style="font-size:24px;fill:#000000;fill-opacity:1"
       id="path67876" /><path
       d="m 413.39925,286.85224 -0.0992,-0.0624 q -0.35427,-0.36121 -0.72613,-0.65043 -0.3557,-0.29289 -0.8914,-0.62976 -0.86307,-0.54273 -1.90991,-0.66114 -1.0406,-0.12833 -2.16516,0.009 l -4.94696,7.86681 -1.86503,-1.1728 6.96818,-11.081 1.86502,1.1728 -1.02932,1.63686 q 1.67252,-0.19414 2.74657,-0.0309 1.0902,0.15952 1.97311,0.71473 0.48609,0.30567 0.68563,0.47268 0.20577,0.15708 0.59859,0.50101 z"
       style="font-size:24px;fill:#000000;fill-opacity:1"
       id="path67878" /><path
       d="m 416.73244,303.56717 -1.65827,-1.43263 0.91167,-1.05526 q -0.35193,-0.0408 -0.97074,-0.0953 -0.60227,-0.0557 -1.09488,-0.20256 -0.59299,-0.15612 -1.24884,-0.49043 -0.66351,-0.32544 -1.39066,-0.95365 -1.33903,-1.15683 -1.50403,-2.84801 -0.16501,-1.69119 1.02246,-3.06569 0.97296,-1.1262 2.04939,-1.40419 1.09295,-0.27919 2.33334,0.0955 1.24926,0.38238 2.63992,1.33603 1.39066,0.95366 2.90626,2.13913 l 0.22217,-0.25716 q 0.49031,-0.56753 0.60812,-1.11618 0.12668,-0.54099 -0.0619,-1.07559 -0.17851,-0.5104 -0.61381,-1.01036 -0.4353,-0.49996 -0.97624,-0.96729 -0.65621,-0.56692 -1.61639,-1.08673 -0.95253,-0.52867 -2.09616,-0.94369 l -0.0887,-0.0766 1.46327,-1.69374 q 0.60265,0.28835 1.66279,0.92548 1.06014,0.63714 1.95578,1.41091 1.0464,0.90401 1.66467,1.74788 0.6348,0.84266 0.84226,1.74975 0.20626,0.89057 -0.0604,1.79073 -0.26662,0.90016 -1.09402,1.85788 z m 0.44853,-3.87126 2.3826,-2.75786 q -0.80093,-0.61452 -1.91506,-1.42219 -1.10527,-0.80001 -1.85384,-1.15247 -0.89449,-0.4166 -1.71327,-0.36513 -0.81112,0.0426 -1.46231,0.79635 -0.73547,0.8513 -0.59653,1.73017 0.14659,0.86999 1.20185,1.78166 0.87791,0.75845 1.89619,1.04969 1.02593,0.28237 2.06037,0.33978 z"
       style="font-size:24px;fill:#000000;fill-opacity:1"
       id="path67880" /><path
       d="m 431.15451,321.90973 -1.28481,-1.7897 6.05451,-4.34649 q 0.68542,-0.49206 1.2754,-1.01658 0.59681,-0.515 0.83408,-0.98828 0.25216,-0.51282 0.16773,-1.07251 -0.0844,-0.5597 -0.638,-1.33079 -0.53989,-0.75206 -1.46058,-1.23075 -0.91116,-0.48552 -2.03175,-0.82069 -0.19845,0.18574 -0.47989,0.41664 -0.27192,0.22406 -0.55751,0.42908 l -6.80657,4.88639 -1.28481,-1.7897 6.05451,-4.34649 q 0.70446,-0.50572 1.28491,-1.02341 0.59682,-0.51501 0.83409,-0.98828 0.25216,-0.51282 0.15821,-1.06568 -0.0844,-0.5597 -0.638,-1.33079 -0.52623,-0.73302 -1.42103,-1.21586 -0.88798,-0.47331 -1.97586,-0.80312 l -7.93941,5.69965 -1.28481,-1.7897 10.63347,-7.6337 1.28481,1.7897 -1.18044,0.84743 q 1.29634,0.33884 2.28121,0.88685 0.99171,0.55754 1.66829,1.49998 0.77909,1.08525 0.86204,2.16534 0.0898,1.08961 -0.45286,2.04177 1.69298,0.42917 2.73521,1.03699 1.05175,0.60098 1.783,1.61958 1.25747,1.75162 0.78584,3.34526 -0.45528,1.59631 -2.35922,2.96313 z"
       style="font-size:24px;fill:#000000;fill-opacity:1"
       id="path67882" /><path
       d="m 433.39761,341.88245 -0.79559,-2.56295 q 1.65703,-2.68623 4.00262,-4.61685 2.34559,-1.93061 5.71436,-2.97634 3.36877,-1.04573 6.3953,-0.78273 3.02653,0.263 5.91342,1.53871 l 0.79559,2.56295 -0.11192,0.0347 q -1.09842,-0.65293 -2.42993,-1.14761 -1.31685,-0.48696 -2.9571,-0.75083 -1.58506,-0.24419 -3.37348,-0.1553 -1.78495,0.10008 -3.62042,0.66984 -1.91382,0.59409 -3.378,1.49034 -1.46071,0.90743 -2.67788,2.04603 -1.16815,1.09884 -2.00864,2.30456 -0.85168,1.2092 -1.35641,2.31069 z"
       style="font-size:24px;fill:#000000;fill-opacity:1"
       id="path67884" /><path
       d="m 448.67969,352.99121 q -0.42247,0.62597 -1.12751,1.08976 -0.70505,0.46379 -1.9008,0.62844 -1.18414,0.16305 -2.23007,-0.13062 -1.04593,-0.29367 -1.88441,-0.97078 -0.93253,-0.75879 -1.49029,-1.88858 -0.54455,-1.11978 -0.73798,-2.5245 -0.19821,-1.43954 -0.0418,-2.8806 0.14485,-1.43946 0.42809,-2.38932 l 2.42632,-0.33409 0.024,0.17414 q -0.51424,1.0763 -0.75995,2.4705 -0.24572,1.39421 -0.0747,2.63639 0.10071,0.73138 0.458,1.52207 0.35729,0.79068 0.9036,1.23595 0.58434,0.46369 1.23479,0.63437 0.65206,0.18229 1.5924,0.0528 0.92874,-0.12788 1.49086,-0.51284 0.57532,-0.37495 0.85167,-0.94532 0.28795,-0.57197 0.31335,-1.33255 0.037,-0.76217 -0.0813,-1.62125 l -0.14386,-1.04483 1.92712,-0.26535 0.1119,0.81264 q 0.24297,1.7646 1.11822,2.70873 0.88846,0.95413 2.30478,0.75911 0.6269,-0.0863 1.0545,-0.41727 0.43921,-0.33255 0.67551,-0.85009 0.23311,-0.54076 0.27087,-1.12559 0.0378,-0.58484 -0.0613,-1.30461 -0.15186,-1.10288 -0.71761,-2.29071 -0.56576,-1.18784 -1.43739,-2.19161 l -0.016,-0.11609 2.42632,-0.33409 q 0.51982,0.76831 1.04511,2.09184 0.5385,1.33354 0.71594,2.62216 0.17423,1.26541 0.0747,2.26094 -0.0995,0.99554 -0.50322,1.84369 -0.44215,0.91259 -1.17243,1.45083 -0.73028,0.53824 -1.78672,0.6837 -1.43954,0.19822 -2.65987,-0.67473 -1.20712,-0.86294 -1.67596,-2.20607 l -0.16253,0.0224 q -0.0161,0.57003 -0.21888,1.33136 -0.19112,0.75974 -0.56353,1.31968 z"
       style="font-size:24px;fill:#000000;fill-opacity:1"
       id="path67886" /><path
       d="m 447.08152,366.18496 q -3.52622,-0.089 -6.30886,-1.30801 -2.78263,-1.21903 -5.10845,-3.3526 l 0.0677,-2.68274 0.11715,0.003 q 0.78557,0.92246 1.93431,1.85408 1.13673,0.94304 2.56023,1.67059 1.4812,0.76417 3.13409,1.22789 1.65259,0.47544 3.65586,0.52599 1.92126,0.0485 3.66603,-0.34121 1.74476,-0.3897 3.20374,-1.06796 1.50643,-0.7005 2.64124,-1.53932 1.14622,-0.82682 2.02536,-1.75415 l 0.11715,0.003 -0.0677,2.68274 q -2.43048,2.01355 -5.27105,3.09067 -2.84058,1.07711 -6.3668,0.98813 z"
       style="font-size:24px;fill:#000000;fill-opacity:1"
       id="path67888" /></g></g></svg>
